<?xml version="1.0" standalone="no"?>
<!DOCTYPE svg PUBLIC "-//W3C//DTD SVG 1.1//EN" "http://www.w3.org/Graphics/SVG/1.1/DTD/svg11.dtd">
<svg width="236mm" height="108mm" viewBox="0 -108 236 108" xmlns="http://www.w3.org/2000/svg" version="1.1">
<title>OpenSCAD Model</title>
<path d="
M 0,-10 L 0.048152,-9.01983 L 0.192146,-8.0491 L 0.430596,-7.09715 L 0.761204,-6.17317 L 1.18079,-5.28603
 L 1.6853,-4.4443 L 2.26989,-3.65607 L 2.92893,-2.92893 L 3.65607,-2.26989 L 4.4443,-1.6853 L 5.28603,-1.18079
 L 6.17317,-0.761204 L 7.09715,-0.430596 L 8.0491,-0.192146 L 9.01983,-0.048152 L 10,-0 L 218.5,-0
 L 219.48,-0.048152 L 220.451,-0.192146 L 221.403,-0.430596 L 222.327,-0.761204 L 223.214,-1.18079 L 224.056,-1.6853
 L 224.844,-2.26989 L 225.571,-2.92893 L 226.23,-3.65607 L 226.815,-4.4443 L 227.319,-5.28603 L 227.739,-6.17317
 L 228.069,-7.09715 L 228.308,-8.0491 L 228.452,-9.01983 L 228.5,-10 L 228.5,-34 L 228.51,-34.196
 L 228.538,-34.3902 L 228.586,-34.5806 L 228.652,-34.7654 L 228.736,-34.9428 L 228.837,-35.1111 L 228.954,-35.2688
 L 229.086,-35.4142 L 229.231,-35.546 L 229.389,-35.6629 L 229.557,-35.7638 L 229.735,-35.8478 L 229.919,-35.9139
 L 230.11,-35.9616 L 230.304,-35.9904 L 230.5,-36 L 233.5,-36 L 233.696,-36.0096 L 233.89,-36.0384
 L 234.081,-36.0861 L 234.265,-36.1522 L 234.443,-36.2362 L 234.611,-36.3371 L 234.769,-36.454 L 234.914,-36.5858
 L 235.046,-36.7312 L 235.163,-36.8889 L 235.264,-37.0572 L 235.348,-37.2346 L 235.414,-37.4194 L 235.462,-37.6098
 L 235.49,-37.804 L 235.5,-38 L 235.5,-70 L 235.49,-70.196 L 235.462,-70.3902 L 235.414,-70.5806
 L 235.348,-70.7654 L 235.264,-70.9428 L 235.163,-71.1111 L 235.046,-71.2688 L 234.914,-71.4142 L 234.769,-71.546
 L 234.611,-71.6629 L 234.443,-71.7638 L 234.265,-71.8478 L 234.081,-71.9139 L 233.89,-71.9616 L 233.696,-71.9904
 L 233.5,-72 L 230.5,-72 L 230.304,-72.0096 L 230.11,-72.0384 L 229.919,-72.0861 L 229.735,-72.1522
 L 229.557,-72.2362 L 229.389,-72.3371 L 229.231,-72.454 L 229.086,-72.5858 L 228.954,-72.7312 L 228.837,-72.8889
 L 228.736,-73.0572 L 228.652,-73.2346 L 228.586,-73.4194 L 228.538,-73.6098 L 228.51,-73.804 L 228.5,-74
 L 228.5,-98 L 228.452,-98.9802 L 228.308,-99.9509 L 228.069,-100.903 L 227.739,-101.827 L 227.319,-102.714
 L 226.815,-103.556 L 226.23,-104.344 L 225.571,-105.071 L 224.844,-105.73 L 224.056,-106.315 L 223.214,-106.819
 L 222.327,-107.239 L 221.403,-107.569 L 220.451,-107.808 L 219.48,-107.952 L 218.5,-108 L 10,-108
 L 9.01983,-107.952 L 8.0491,-107.808 L 7.09715,-107.569 L 6.17317,-107.239 L 5.28603,-106.819 L 4.4443,-106.315
 L 3.65607,-105.73 L 2.92893,-105.071 L 2.26989,-104.344 L 1.6853,-103.556 L 1.18079,-102.714 L 0.761204,-101.827
 L 0.430596,-100.903 L 0.192146,-99.9509 L 0.048152,-98.9802 L 0,-98 z
M 6.5,-54 L 6.51685,-54.3431 L 6.56725,-54.6828 L 6.65071,-55.016 L 6.76642,-55.3394 L 6.91327,-55.6499
 L 7.08986,-55.9445 L 7.29446,-56.2204 L 7.52513,-56.4749 L 7.77962,-56.7055 L 8.0555,-56.9101 L 8.35011,-57.0867
 L 8.66061,-57.2336 L 8.984,-57.3493 L 9.31718,-57.4327 L 9.65694,-57.4831 L 10,-57.5 L 10.3431,-57.4831
 L 10.6828,-57.4327 L 11.016,-57.3493 L 11.3394,-57.2336 L 11.6499,-57.0867 L 11.9445,-56.9101 L 12.2204,-56.7055
 L 12.4749,-56.4749 L 12.7055,-56.2204 L 12.9101,-55.9445 L 13.0867,-55.6499 L 13.2336,-55.3394 L 13.3493,-55.016
 L 13.4327,-54.6828 L 13.4831,-54.3431 L 13.5,-54 L 13.4831,-53.6569 L 13.4327,-53.3172 L 13.3493,-52.984
 L 13.2336,-52.6606 L 13.0867,-52.3501 L 12.9101,-52.0555 L 12.7055,-51.7796 L 12.4749,-51.5251 L 12.2204,-51.2945
 L 11.9445,-51.0899 L 11.6499,-50.9133 L 11.3394,-50.7664 L 11.016,-50.6507 L 10.6828,-50.5673 L 10.3431,-50.5169
 L 10,-50.5 L 9.65694,-50.5169 L 9.31718,-50.5673 L 8.984,-50.6507 L 8.66061,-50.7664 L 8.35011,-50.9133
 L 8.0555,-51.0899 L 7.77962,-51.2945 L 7.52513,-51.5251 L 7.29446,-51.7796 L 7.08986,-52.0555 L 6.91327,-52.3501
 L 6.76642,-52.6606 L 6.65071,-52.984 L 6.56725,-53.3172 L 6.51685,-53.6569 z
M 14.6,-87.25 L 14.638,-88.0243 L 14.7518,-88.7912 L 14.9402,-89.5432 L 15.2014,-90.2732 L 15.5328,-90.974
 L 15.9314,-91.639 L 16.3932,-92.2617 L 16.9139,-92.8361 L 17.4883,-93.3568 L 18.111,-93.8186 L 18.776,-94.2172
 L 19.4768,-94.5486 L 20.2068,-94.8098 L 20.9588,-94.9982 L 21.7257,-95.112 L 22.5,-95.15 L 23.2743,-95.112
 L 24.0412,-94.9982 L 24.7932,-94.8098 L 25.5232,-94.5486 L 26.224,-94.2172 L 26.889,-93.8186 L 27.5117,-93.3568
 L 28.0861,-92.8361 L 28.6068,-92.2617 L 29.0686,-91.639 L 29.4672,-90.974 L 29.7,-90.4818 L 29.7,-84.0182
 L 29.4672,-83.526 L 29.0686,-82.861 L 28.6068,-82.2383 L 28.0861,-81.6639 L 27.5117,-81.1432 L 26.889,-80.6814
 L 26.224,-80.2828 L 25.5232,-79.9514 L 24.7932,-79.6902 L 24.0412,-79.5018 L 23.2743,-79.388 L 22.5,-79.35
 L 21.7257,-79.388 L 20.9588,-79.5018 L 20.2068,-79.6902 L 19.4768,-79.9514 L 18.776,-80.2828 L 18.111,-80.6814
 L 17.4883,-81.1432 L 16.9139,-81.6639 L 16.3932,-82.2383 L 15.9314,-82.861 L 15.5328,-83.526 L 15.2014,-84.2268
 L 14.9402,-84.9568 L 14.7518,-85.7088 L 14.638,-86.4757 z
M 20.45,-10.25 L 20.45,-47.45 L 44.85,-47.45 L 44.85,-10.25 z
M 46.6654,-82.092 L 48.8732,-85.4276 L 97.5057,-53.2384 L 97.9202,-53.5486 L 98.4659,-53.8789 L 99.0413,-54.1541
 L 99.6409,-54.3717 L 100.259,-54.5294 L 100.89,-54.6257 L 101.527,-54.6598 L 102.164,-54.6313 L 102.795,-54.5404
 L 103.415,-54.3881 L 104.016,-54.1759 L 104.594,-53.9056 L 105.143,-53.5801 L 126.824,-39.2297 L 127.338,-38.852
 L 127.812,-38.4257 L 128.242,-37.9549 L 128.625,-37.4442 L 128.955,-36.8985 L 129.23,-36.3231 L 129.448,-35.7235
 L 129.605,-35.1054 L 129.702,-34.4748 L 129.736,-33.8378 L 129.707,-33.2006 L 129.617,-32.5692 L 129.464,-31.9498
 L 129.252,-31.3483 L 128.982,-30.7704 L 128.656,-30.2219 L 128.278,-29.7079 L 127.852,-29.2334 L 127.381,-28.803
 L 126.871,-28.4207 L 126.325,-28.0904 L 125.75,-27.8152 L 125.15,-27.5977 L 124.532,-27.44 L 123.901,-27.3436
 L 123.264,-27.3095 L 122.627,-27.3381 L 121.996,-27.4289 L 121.376,-27.5812 L 120.775,-27.7935 L 120.197,-28.0637
 L 119.648,-28.3892 L 97.9673,-42.7396 L 97.4533,-43.1173 L 96.9788,-43.5436 L 96.5484,-44.0144 L 96.1662,-44.5251
 L 95.8359,-45.0708 L 95.5606,-45.6462 L 95.3431,-46.2459 L 95.1854,-46.864 L 95.0891,-47.4945 L 95.055,-48.1315
 L 95.0835,-48.7687 L 95.1743,-49.4001 L 95.2979,-49.9028 z
M 51.7,-13.07 L 51.7,-33.87 L 88.9,-33.87 L 88.9,-13.07 z
M 59.5143,-54.76 L 62.3843,-59.0962 L 66.7205,-56.2262 L 63.8505,-51.89 z
M 72.08,-88.25 L 72.1041,-88.7401 L 72.1761,-89.2255 L 72.2953,-89.7014 L 72.4606,-90.1634 L 72.6704,-90.607
 L 72.9227,-91.0279 L 73.2149,-91.422 L 73.5445,-91.7855 L 73.908,-92.1151 L 74.3021,-92.4073 L 74.723,-92.6596
 L 75.1666,-92.8694 L 75.6286,-93.0347 L 76.1045,-93.1539 L 76.5899,-93.2259 L 77.08,-93.25 L 77.5701,-93.2259
 L 78.0555,-93.1539 L 78.5314,-93.0347 L 78.9934,-92.8694 L 79.437,-92.6596 L 79.8579,-92.4073 L 80.252,-92.1151
 L 80.6155,-91.7855 L 80.9451,-91.422 L 81.2373,-91.0279 L 81.4896,-90.607 L 81.6994,-90.1634 L 81.8647,-89.7014
 L 81.9839,-89.2255 L 82.0559,-88.7401 L 82.08,-88.25 L 82.0559,-87.7599 L 81.9839,-87.2745 L 81.8647,-86.7986
 L 81.6994,-86.3366 L 81.4896,-85.893 L 81.2373,-85.4721 L 80.9451,-85.078 L 80.6155,-84.7145 L 80.252,-84.3849
 L 79.8579,-84.0927 L 79.437,-83.8404 L 78.9934,-83.6306 L 78.5314,-83.4653 L 78.0555,-83.3461 L 77.5701,-83.2741
 L 77.08,-83.25 L 76.5899,-83.2741 L 76.1045,-83.3461 L 75.6286,-83.4653 L 75.1666,-83.6306 L 74.723,-83.8404
 L 74.3021,-84.0927 L 73.908,-84.3849 L 73.5445,-84.7145 L 73.2149,-85.078 L 72.9227,-85.4721 L 72.6704,-85.893
 L 72.4606,-86.3366 L 72.2953,-86.7986 L 72.1761,-87.2745 L 72.1041,-87.7599 z
M 97.873,-29.3709 L 100.743,-33.7071 L 105.079,-30.8371 L 102.209,-26.5009 z
M 103.79,-71.25 L 103.79,-99.85 L 160.79,-99.85 L 160.79,-71.25 z
M 141.6,-47.8 L 141.669,-49.2114 L 141.877,-50.6093 L 142.22,-51.9801 L 142.696,-53.3106 L 143.3,-54.5881
 L 144.027,-55.8002 L 144.869,-56.9353 L 145.818,-57.9823 L 146.865,-58.9313 L 148,-59.7732 L 149.212,-60.4997
 L 150.489,-61.1039 L 151.82,-61.5799 L 153.191,-61.9233 L 154.589,-62.1307 L 156,-62.2 L 157.411,-62.1307
 L 158.809,-61.9233 L 160.18,-61.5799 L 161.511,-61.1039 L 162.788,-60.4997 L 164,-59.7732 L 165.135,-58.9313
 L 166.182,-57.9823 L 167.131,-56.9353 L 167.973,-55.8002 L 168.7,-54.5881 L 169.304,-53.3106 L 169.78,-51.9801
 L 170.123,-50.6093 L 170.331,-49.2114 L 170.4,-47.8 L 170.331,-46.3886 L 170.123,-44.9907 L 169.78,-43.6199
 L 169.304,-42.2894 L 168.7,-41.0119 L 167.973,-39.7998 L 167.131,-38.6647 L 166.182,-37.6177 L 165.135,-36.6686
 L 164,-35.8268 L 162.788,-35.1003 L 161.511,-34.4961 L 160.18,-34.0201 L 158.809,-33.6767 L 157.411,-33.4693
 L 156,-33.4 L 154.589,-33.4693 L 153.191,-33.6767 L 151.82,-34.0201 L 150.489,-34.4961 L 149.212,-35.1003
 L 148,-35.8268 L 146.865,-36.6686 L 145.818,-37.6177 L 144.869,-38.6647 L 144.027,-39.7998 L 143.3,-41.0119
 L 142.696,-42.2894 L 142.22,-43.6199 L 141.877,-44.9907 L 141.669,-46.3886 z
M 144.05,-18.05 L 144.08,-18.6577 L 144.169,-19.2596 L 144.317,-19.8498 L 144.522,-20.4226 L 144.782,-20.9727
 L 145.095,-21.4945 L 145.457,-21.9832 L 145.866,-22.4341 L 146.317,-22.8427 L 146.805,-23.2051 L 147.327,-23.5179
 L 147.877,-23.7781 L 148.45,-23.983 L 149.04,-24.1309 L 149.642,-24.2201 L 150.25,-24.25 L 150.858,-24.2201
 L 151.46,-24.1309 L 152.05,-23.983 L 152.623,-23.7781 L 153.173,-23.5179 L 153.695,-23.2051 L 154.183,-22.8427
 L 154.634,-22.4341 L 155.043,-21.9832 L 155.405,-21.4945 L 155.718,-20.9727 L 155.978,-20.4226 L 156.183,-19.8498
 L 156.331,-19.2596 L 156.42,-18.6577 L 156.45,-18.05 L 156.42,-17.4423 L 156.331,-16.8404 L 156.183,-16.2502
 L 155.978,-15.6774 L 155.718,-15.1273 L 155.405,-14.6055 L 155.043,-14.1168 L 154.634,-13.6659 L 154.183,-13.2573
 L 153.695,-12.8949 L 153.173,-12.5821 L 152.623,-12.3219 L 152.05,-12.117 L 151.46,-11.9691 L 150.858,-11.8799
 L 150.25,-11.85 L 149.642,-11.8799 L 149.04,-11.9691 L 148.45,-12.117 L 147.877,-12.3219 L 147.327,-12.5821
 L 146.805,-12.8949 L 146.317,-13.2573 L 145.866,-13.6659 L 145.457,-14.1168 L 145.095,-14.6055 L 144.782,-15.1273
 L 144.522,-15.6774 L 144.317,-16.2502 L 144.169,-16.8404 L 144.08,-17.4423 z
M 169.3,-71.25 L 169.426,-73.818 L 169.803,-76.3614 L 170.428,-78.8555 L 171.294,-81.2763 L 172.394,-83.6006
 L 173.715,-85.8059 L 175.247,-87.8711 L 176.974,-89.7762 L 178.879,-91.5029 L 180.944,-93.0345 L 183.149,-94.3563
 L 185.474,-95.4556 L 187.895,-96.3218 L 190.389,-96.9466 L 192.932,-97.3238 L 195.5,-97.45 L 198.068,-97.3238
 L 200.611,-96.9466 L 203.105,-96.3218 L 205.526,-95.4556 L 207.851,-94.3563 L 210.056,-93.0345 L 212.121,-91.5029
 L 214.026,-89.7762 L 215.753,-87.8711 L 217.285,-85.8059 L 218.606,-83.6006 L 219.706,-81.2763 L 220.572,-78.8555
 L 221.197,-76.3614 L 221.574,-73.818 L 221.7,-71.25 L 221.574,-68.682 L 221.197,-66.1386 L 220.572,-63.6445
 L 219.706,-61.2237 L 218.606,-58.8994 L 217.285,-56.6941 L 215.753,-54.6289 L 214.026,-52.7238 L 212.121,-50.9971
 L 210.056,-49.4655 L 207.851,-48.1437 L 205.526,-47.0444 L 203.105,-46.1782 L 200.611,-45.5534 L 198.068,-45.1762
 L 195.5,-45.05 L 192.932,-45.1762 L 190.389,-45.5534 L 187.895,-46.1782 L 185.474,-47.0444 L 183.149,-48.1437
 L 180.944,-49.4655 L 178.879,-50.9971 L 176.974,-52.7238 L 175.247,-54.6289 L 173.715,-56.6941 L 172.394,-58.8994
 L 171.294,-61.2237 L 170.428,-63.6445 L 169.803,-66.1386 L 169.426,-68.682 z
M 174.3,-18.05 L 174.33,-18.6577 L 174.419,-19.2596 L 174.567,-19.8498 L 174.772,-20.4226 L 175.032,-20.9727
 L 175.345,-21.4945 L 175.707,-21.9832 L 176.116,-22.4341 L 176.567,-22.8427 L 177.055,-23.2051 L 177.577,-23.5179
 L 178.127,-23.7781 L 178.7,-23.983 L 179.29,-24.1309 L 179.892,-24.2201 L 180.5,-24.25 L 181.108,-24.2201
 L 181.71,-24.1309 L 182.3,-23.983 L 182.873,-23.7781 L 183.423,-23.5179 L 183.945,-23.2051 L 184.433,-22.8427
 L 184.884,-22.4341 L 185.293,-21.9832 L 185.655,-21.4945 L 185.968,-20.9727 L 186.228,-20.4226 L 186.433,-19.8498
 L 186.581,-19.2596 L 186.67,-18.6577 L 186.7,-18.05 L 186.67,-17.4423 L 186.581,-16.8404 L 186.433,-16.2502
 L 186.228,-15.6774 L 185.968,-15.1273 L 185.655,-14.6055 L 185.293,-14.1168 L 184.884,-13.6659 L 184.433,-13.2573
 L 183.945,-12.8949 L 183.423,-12.5821 L 182.873,-12.3219 L 182.3,-12.117 L 181.71,-11.9691 L 181.108,-11.8799
 L 180.5,-11.85 L 179.892,-11.8799 L 179.29,-11.9691 L 178.7,-12.117 L 178.127,-12.3219 L 177.577,-12.5821
 L 177.055,-12.8949 L 176.567,-13.2573 L 176.116,-13.6659 L 175.707,-14.1168 L 175.345,-14.6055 L 175.032,-15.1273
 L 174.772,-15.6774 L 174.567,-16.2502 L 174.419,-16.8404 L 174.33,-17.4423 z
M 195.92,-29.6 L 195.967,-30.5606 L 196.108,-31.5119 L 196.342,-32.4448 L 196.666,-33.3503 L 197.077,-34.2197
 L 197.572,-35.0446 L 198.144,-35.8171 L 198.79,-36.5296 L 199.503,-37.1755 L 200.275,-37.7484 L 201.1,-38.2428
 L 201.97,-38.654 L 202.875,-38.978 L 203.808,-39.2117 L 204.759,-39.3528 L 205.72,-39.4 L 206.681,-39.3528
 L 207.632,-39.2117 L 208.565,-38.978 L 209.47,-38.654 L 210.34,-38.2428 L 211.165,-37.7484 L 211.937,-37.1755
 L 212.65,-36.5296 L 213.296,-35.8171 L 213.868,-35.0446 L 214.363,-34.2197 L 214.774,-33.3503 L 215.098,-32.4448
 L 215.332,-31.5119 L 215.473,-30.5606 L 215.52,-29.6 L 215.473,-28.6394 L 215.332,-27.6881 L 215.098,-26.7552
 L 214.774,-25.8497 L 214.363,-24.9803 L 213.868,-24.1554 L 213.296,-23.3829 L 212.65,-22.6704 L 211.937,-22.0245
 L 211.165,-21.4516 L 210.34,-20.9572 L 209.47,-20.546 L 208.565,-20.222 L 207.632,-19.9883 L 206.681,-19.8472
 L 205.72,-19.8 L 204.759,-19.8472 L 203.808,-19.9883 L 202.875,-20.222 L 201.97,-20.546 L 201.1,-20.9572
 L 200.275,-21.4516 L 199.503,-22.0245 L 198.79,-22.6704 L 198.144,-23.3829 L 197.572,-24.1554 L 197.077,-24.9803
 L 196.666,-25.8497 L 196.342,-26.7552 L 196.108,-27.6881 L 195.967,-28.6394 z
" stroke="black" fill="lightgray" stroke-width="0.5"/>
</svg>
