<?xml version="1.0" standalone="no"?>
<!DOCTYPE svg PUBLIC "-//W3C//DTD SVG 1.1//EN" "http://www.w3.org/Graphics/SVG/1.1/DTD/svg11.dtd">
<svg width="236mm" height="108mm" viewBox="0 -108 236 108" xmlns="http://www.w3.org/2000/svg" version="1.1">
<title>OpenSCAD Model</title>
<path d="
M 0,-10 L 0.048152,-9.01983 L 0.192146,-8.0491 L 0.430596,-7.09715 L 0.761204,-6.17317 L 1.18079,-5.28603
 L 1.6853,-4.4443 L 2.26989,-3.65607 L 2.92893,-2.92893 L 3.65607,-2.26989 L 4.4443,-1.6853 L 5.28603,-1.18079
 L 6.17317,-0.761204 L 7.09715,-0.430596 L 8.0491,-0.192146 L 9.01983,-0.048152 L 10,-0 L 218.5,-0
 L 219.48,-0.048152 L 220.451,-0.192146 L 221.403,-0.430596 L 222.327,-0.761204 L 223.214,-1.18079 L 224.056,-1.6853
 L 224.844,-2.26989 L 225.571,-2.92893 L 226.23,-3.65607 L 226.815,-4.4443 L 227.319,-5.28603 L 227.739,-6.17317
 L 228.069,-7.09715 L 228.308,-8.0491 L 228.452,-9.01983 L 228.5,-10 L 228.5,-34 L 228.51,-34.196
 L 228.538,-34.3902 L 228.586,-34.5806 L 228.652,-34.7654 L 228.736,-34.9428 L 228.837,-35.1111 L 228.954,-35.2688
 L 229.086,-35.4142 L 229.231,-35.546 L 229.389,-35.6629 L 229.557,-35.7638 L 229.735,-35.8478 L 229.919,-35.9139
 L 230.11,-35.9616 L 230.304,-35.9904 L 230.5,-36 L 233.5,-36 L 233.696,-36.0096 L 233.89,-36.0384
 L 234.081,-36.0861 L 234.265,-36.1522 L 234.443,-36.2362 L 234.611,-36.3371 L 234.769,-36.454 L 234.914,-36.5858
 L 235.046,-36.7312 L 235.163,-36.8889 L 235.264,-37.0572 L 235.348,-37.2346 L 235.414,-37.4194 L 235.462,-37.6098
 L 235.49,-37.804 L 235.5,-38 L 235.5,-70 L 235.49,-70.196 L 235.462,-70.3902 L 235.414,-70.5806
 L 235.348,-70.7654 L 235.264,-70.9428 L 235.163,-71.1111 L 235.046,-71.2688 L 234.914,-71.4142 L 234.769,-71.546
 L 234.611,-71.6629 L 234.443,-71.7638 L 234.265,-71.8478 L 234.081,-71.9139 L 233.89,-71.9616 L 233.696,-71.9904
 L 233.5,-72 L 230.5,-72 L 230.304,-72.0096 L 230.11,-72.0384 L 229.919,-72.0861 L 229.735,-72.1522
 L 229.557,-72.2362 L 229.389,-72.3371 L 229.231,-72.454 L 229.086,-72.5858 L 228.954,-72.7312 L 228.837,-72.8889
 L 228.736,-73.0572 L 228.652,-73.2346 L 228.586,-73.4194 L 228.538,-73.6098 L 228.51,-73.804 L 228.5,-74
 L 228.5,-98 L 228.452,-98.9802 L 228.308,-99.9509 L 228.069,-100.903 L 227.739,-101.827 L 227.319,-102.714
 L 226.815,-103.556 L 226.23,-104.344 L 225.571,-105.071 L 224.844,-105.73 L 224.056,-106.315 L 223.214,-106.819
 L 222.327,-107.239 L 221.403,-107.569 L 220.451,-107.808 L 219.48,-107.952 L 218.5,-108 L 10,-108
 L 9.01983,-107.952 L 8.0491,-107.808 L 7.09715,-107.569 L 6.17317,-107.239 L 5.28603,-106.819 L 4.4443,-106.315
 L 3.65607,-105.73 L 2.92893,-105.071 L 2.26989,-104.344 L 1.6853,-103.556 L 1.18079,-102.714 L 0.761204,-101.827
 L 0.430596,-100.903 L 0.192146,-99.9509 L 0.048152,-98.9802 L 0,-98 z
M 6.5,-54 L 6.51685,-54.3431 L 6.56725,-54.6828 L 6.65071,-55.016 L 6.76642,-55.3394 L 6.91327,-55.6499
 L 7.08986,-55.9445 L 7.29446,-56.2204 L 7.52513,-56.4749 L 7.77962,-56.7055 L 8.0555,-56.9101 L 8.35011,-57.0867
 L 8.66061,-57.2336 L 8.984,-57.3493 L 9.31718,-57.4327 L 9.65694,-57.4831 L 10,-57.5 L 10.3431,-57.4831
 L 10.6828,-57.4327 L 11.016,-57.3493 L 11.3394,-57.2336 L 11.6499,-57.0867 L 11.9445,-56.9101 L 12.2204,-56.7055
 L 12.4749,-56.4749 L 12.7055,-56.2204 L 12.9101,-55.9445 L 13.0867,-55.6499 L 13.2336,-55.3394 L 13.3493,-55.016
 L 13.4327,-54.6828 L 13.4831,-54.3431 L 13.5,-54 L 13.4831,-53.6569 L 13.4327,-53.3172 L 13.3493,-52.984
 L 13.2336,-52.6606 L 13.0867,-52.3501 L 12.9101,-52.0555 L 12.7055,-51.7796 L 12.4749,-51.5251 L 12.2204,-51.2945
 L 11.9445,-51.0899 L 11.6499,-50.9133 L 11.3394,-50.7664 L 11.016,-50.6507 L 10.6828,-50.5673 L 10.3431,-50.5169
 L 10,-50.5 L 9.65694,-50.5169 L 9.31718,-50.5673 L 8.984,-50.6507 L 8.66061,-50.7664 L 8.35011,-50.9133
 L 8.0555,-51.0899 L 7.77962,-51.2945 L 7.52513,-51.5251 L 7.29446,-51.7796 L 7.08986,-52.0555 L 6.91327,-52.3501
 L 6.76642,-52.6606 L 6.65071,-52.984 L 6.56725,-53.3172 L 6.51685,-53.6569 z
M 14.1,-10.25 L 14.1,-47.25 L 38.5,-47.25 L 38.5,-10.25 z
M 14.6,-87.25 L 14.638,-88.0243 L 14.7518,-88.7912 L 14.9402,-89.5432 L 15.2014,-90.2732 L 15.5328,-90.974
 L 15.9314,-91.639 L 16.3932,-92.2617 L 16.9139,-92.8361 L 17.4883,-93.3568 L 18.111,-93.8186 L 18.776,-94.2172
 L 19.4768,-94.5486 L 20.2068,-94.8098 L 20.9588,-94.9982 L 21.7257,-95.112 L 22.5,-95.15 L 23.2743,-95.112
 L 24.0412,-94.9982 L 24.7932,-94.8098 L 25.5232,-94.5486 L 26.224,-94.2172 L 26.889,-93.8186 L 27.5117,-93.3568
 L 28.0861,-92.8361 L 28.6068,-92.2617 L 29.0686,-91.639 L 29.4672,-90.974 L 29.7,-90.4818 L 29.7,-84.0182
 L 29.4672,-83.526 L 29.0686,-82.861 L 28.6068,-82.2383 L 28.0861,-81.6639 L 27.5117,-81.1432 L 26.889,-80.6814
 L 26.224,-80.2828 L 25.5232,-79.9514 L 24.7932,-79.6902 L 24.0412,-79.5018 L 23.2743,-79.388 L 22.5,-79.35
 L 21.7257,-79.388 L 20.9588,-79.5018 L 20.2068,-79.6902 L 19.4768,-79.9514 L 18.776,-80.2828 L 18.111,-80.6814
 L 17.4883,-81.1432 L 16.9139,-81.6639 L 16.3932,-82.2383 L 15.9314,-82.861 L 15.5328,-83.526 L 15.2014,-84.2268
 L 14.9402,-84.9568 L 14.7518,-85.7088 L 14.638,-86.4757 z
M 29.456,-66.7567 L 30.0818,-70.7075 L 87.6841,-61.5841 L 87.9326,-62.0383 L 88.2922,-62.5652 L 88.7017,-63.0543
 L 89.1571,-63.5009 L 89.6542,-63.9007 L 90.188,-64.2498 L 90.7535,-64.545 L 91.3452,-64.7833 L 91.9574,-64.9625
 L 92.5842,-65.0808 L 93.2196,-65.137 L 93.8574,-65.1308 L 94.4916,-65.062 L 120.172,-60.9947 L 120.796,-60.8642
 L 121.404,-60.673 L 121.991,-60.4231 L 122.551,-60.1169 L 123.078,-59.7573 L 123.567,-59.3479 L 124.013,-58.8924
 L 124.413,-58.3954 L 124.762,-57.8615 L 125.058,-57.2961 L 125.296,-56.7044 L 125.475,-56.0922 L 125.593,-55.4653
 L 125.65,-54.83 L 125.643,-54.1921 L 125.575,-53.5579 L 125.444,-52.9336 L 125.253,-52.325 L 125.003,-51.7381
 L 124.697,-51.1785 L 124.337,-50.6517 L 123.928,-50.1626 L 123.472,-49.716 L 122.975,-49.3162 L 122.441,-48.967
 L 121.876,-48.6718 L 121.284,-48.4335 L 120.672,-48.2544 L 120.045,-48.1361 L 119.41,-48.0798 L 118.772,-48.086
 L 118.138,-48.1548 L 92.458,-52.2221 L 91.8336,-52.3527 L 91.225,-52.5438 L 90.6381,-52.7937 L 90.0785,-53.0999
 L 89.5517,-53.4595 L 89.0626,-53.869 L 88.616,-54.3244 L 88.2162,-54.8215 L 87.867,-55.3553 L 87.5719,-55.9208
 L 87.3335,-56.5125 L 87.1544,-57.1247 L 87.0584,-57.6334 z
M 43.5,-88.25 L 43.5241,-88.7401 L 43.5961,-89.2255 L 43.7153,-89.7014 L 43.8806,-90.1634 L 44.0904,-90.607
 L 44.3427,-91.0279 L 44.6349,-91.422 L 44.9645,-91.7855 L 45.328,-92.1151 L 45.7221,-92.4073 L 46.143,-92.6596
 L 46.5866,-92.8694 L 47.0486,-93.0347 L 47.5245,-93.1539 L 48.0099,-93.2259 L 48.5,-93.25 L 48.9901,-93.2259
 L 49.4755,-93.1539 L 49.9514,-93.0347 L 50.4134,-92.8694 L 50.857,-92.6596 L 51.2779,-92.4073 L 51.672,-92.1151
 L 52.0355,-91.7855 L 52.3651,-91.422 L 52.6573,-91.0279 L 52.9096,-90.607 L 53.1194,-90.1634 L 53.2847,-89.7014
 L 53.4039,-89.2255 L 53.4759,-88.7401 L 53.5,-88.25 L 53.4759,-87.7599 L 53.4039,-87.2745 L 53.2847,-86.7986
 L 53.1194,-86.3366 L 52.9096,-85.893 L 52.6573,-85.4721 L 52.3651,-85.078 L 52.0355,-84.7145 L 51.672,-84.3849
 L 51.2779,-84.0927 L 50.857,-83.8404 L 50.4134,-83.6306 L 49.9514,-83.4653 L 49.4755,-83.3461 L 48.9901,-83.2741
 L 48.5,-83.25 L 48.0099,-83.2741 L 47.5245,-83.3461 L 47.0486,-83.4653 L 46.5866,-83.6306 L 46.143,-83.8404
 L 45.7221,-84.0927 L 45.328,-84.3849 L 44.9645,-84.7145 L 44.6349,-85.078 L 44.3427,-85.4721 L 44.0904,-85.893
 L 43.8806,-86.3366 L 43.7153,-86.7986 L 43.5961,-87.2745 L 43.5241,-87.7599 z
M 51.7,-16.25 L 51.7,-37.05 L 88.5,-37.05 L 88.5,-16.25 z
M 52.4824,-47.214 L 53.2958,-52.35 L 58.4318,-51.5365 L 57.6183,-46.4005 z
M 65.7,-71.25 L 65.7,-99.85 L 122.5,-99.85 L 122.5,-71.25 z
M 97.916,-40.018 L 98.7295,-45.154 L 103.865,-44.3405 L 103.052,-39.2045 z
M 112.5,-24.25 L 112.529,-24.8381 L 112.615,-25.4205 L 112.758,-25.9917 L 112.957,-26.5461 L 113.208,-27.0784
 L 113.511,-27.5834 L 113.862,-28.0564 L 114.257,-28.4926 L 114.694,-28.8881 L 115.167,-29.2388 L 115.672,-29.5415
 L 116.204,-29.7933 L 116.758,-29.9916 L 117.329,-30.1347 L 117.912,-30.2211 L 118.5,-30.25 L 119.088,-30.2211
 L 119.671,-30.1347 L 120.242,-29.9916 L 120.796,-29.7933 L 121.328,-29.5415 L 121.833,-29.2388 L 122.306,-28.8881
 L 122.743,-28.4926 L 123.138,-28.0564 L 123.489,-27.5834 L 123.792,-27.0784 L 124.043,-26.5461 L 124.242,-25.9917
 L 124.385,-25.4205 L 124.471,-24.8381 L 124.5,-24.25 L 124.471,-23.6619 L 124.385,-23.0795 L 124.242,-22.5083
 L 124.043,-21.9539 L 123.792,-21.4216 L 123.489,-20.9166 L 123.138,-20.4436 L 122.743,-20.0074 L 122.306,-19.6119
 L 121.833,-19.2612 L 121.328,-18.9585 L 120.796,-18.7067 L 120.242,-18.5084 L 119.671,-18.3653 L 119.088,-18.2789
 L 118.5,-18.25 L 117.912,-18.2789 L 117.329,-18.3653 L 116.758,-18.5084 L 116.204,-18.7067 L 115.672,-18.9585
 L 115.167,-19.2612 L 114.694,-19.6119 L 114.257,-20.0074 L 113.862,-20.4436 L 113.511,-20.9166 L 113.208,-21.4216
 L 112.957,-21.9539 L 112.758,-22.5083 L 112.615,-23.0795 L 112.529,-23.6619 z
M 134.3,-76.25 L 134.368,-77.6418 L 134.573,-79.0203 L 134.911,-80.372 L 135.381,-81.6841 L 135.977,-82.9438
 L 136.693,-84.1391 L 137.523,-85.2584 L 138.459,-86.2909 L 139.492,-87.2267 L 140.611,-88.0569 L 141.806,-88.7733
 L 143.066,-89.3691 L 144.378,-89.8386 L 145.73,-90.1772 L 147.108,-90.3816 L 148.5,-90.45 L 149.892,-90.3816
 L 151.27,-90.1772 L 152.622,-89.8386 L 153.934,-89.3691 L 155.194,-88.7733 L 156.389,-88.0569 L 157.508,-87.2267
 L 158.541,-86.2909 L 159.477,-85.2584 L 160.307,-84.1391 L 161.023,-82.9438 L 161.619,-81.6841 L 162.089,-80.372
 L 162.427,-79.0203 L 162.632,-77.6418 L 162.7,-76.25 L 162.632,-74.8582 L 162.427,-73.4797 L 162.089,-72.128
 L 161.619,-70.8159 L 161.023,-69.5562 L 160.307,-68.3609 L 159.477,-67.2416 L 158.541,-66.2091 L 157.508,-65.2733
 L 156.389,-64.4431 L 155.194,-63.7267 L 153.934,-63.1309 L 152.622,-62.6614 L 151.27,-62.3228 L 149.892,-62.1184
 L 148.5,-62.05 L 147.108,-62.1184 L 145.73,-62.3228 L 144.378,-62.6614 L 143.066,-63.1309 L 141.806,-63.7267
 L 140.611,-64.4431 L 139.492,-65.2733 L 138.459,-66.2091 L 137.523,-67.2416 L 136.693,-68.3609 L 135.977,-69.5562
 L 135.381,-70.8159 L 134.911,-72.128 L 134.573,-73.4797 L 134.368,-74.8582 z
M 144.5,-24.25 L 144.529,-24.8381 L 144.615,-25.4205 L 144.758,-25.9917 L 144.957,-26.5461 L 145.208,-27.0784
 L 145.511,-27.5834 L 145.862,-28.0564 L 146.257,-28.4926 L 146.694,-28.8881 L 147.167,-29.2388 L 147.672,-29.5415
 L 148.204,-29.7933 L 148.758,-29.9916 L 149.329,-30.1347 L 149.912,-30.2211 L 150.5,-30.25 L 151.088,-30.2211
 L 151.671,-30.1347 L 152.242,-29.9916 L 152.796,-29.7933 L 153.328,-29.5415 L 153.833,-29.2388 L 154.306,-28.8881
 L 154.743,-28.4926 L 155.138,-28.0564 L 155.489,-27.5834 L 155.792,-27.0784 L 156.043,-26.5461 L 156.242,-25.9917
 L 156.385,-25.4205 L 156.471,-24.8381 L 156.5,-24.25 L 156.471,-23.6619 L 156.385,-23.0795 L 156.242,-22.5083
 L 156.043,-21.9539 L 155.792,-21.4216 L 155.489,-20.9166 L 155.138,-20.4436 L 154.743,-20.0074 L 154.306,-19.6119
 L 153.833,-19.2612 L 153.328,-18.9585 L 152.796,-18.7067 L 152.242,-18.5084 L 151.671,-18.3653 L 151.088,-18.2789
 L 150.5,-18.25 L 149.912,-18.2789 L 149.329,-18.3653 L 148.758,-18.5084 L 148.204,-18.7067 L 147.672,-18.9585
 L 147.167,-19.2612 L 146.694,-19.6119 L 146.257,-20.0074 L 145.862,-20.4436 L 145.511,-20.9166 L 145.208,-21.4216
 L 144.957,-21.9539 L 144.758,-22.5083 L 144.615,-23.0795 L 144.529,-23.6619 z
M 169.3,-71.25 L 169.426,-73.818 L 169.803,-76.3614 L 170.428,-78.8555 L 171.294,-81.2763 L 172.394,-83.6006
 L 173.715,-85.8059 L 175.247,-87.8711 L 176.974,-89.7762 L 178.879,-91.5029 L 180.944,-93.0345 L 183.149,-94.3563
 L 185.474,-95.4556 L 187.895,-96.3218 L 190.389,-96.9466 L 192.932,-97.3238 L 195.5,-97.45 L 198.068,-97.3238
 L 200.611,-96.9466 L 203.105,-96.3218 L 205.526,-95.4556 L 207.851,-94.3563 L 210.056,-93.0345 L 212.121,-91.5029
 L 214.026,-89.7762 L 215.753,-87.8711 L 217.285,-85.8059 L 218.606,-83.6006 L 219.706,-81.2763 L 220.572,-78.8555
 L 221.197,-76.3614 L 221.574,-73.818 L 221.7,-71.25 L 221.574,-68.682 L 221.197,-66.1386 L 220.572,-63.6445
 L 219.706,-61.2237 L 218.606,-58.8994 L 217.285,-56.6941 L 215.753,-54.6289 L 214.026,-52.7238 L 212.121,-50.9971
 L 210.056,-49.4655 L 207.851,-48.1437 L 205.526,-47.0444 L 203.105,-46.1782 L 200.611,-45.5534 L 198.068,-45.1762
 L 195.5,-45.05 L 192.932,-45.1762 L 190.389,-45.5534 L 187.895,-46.1782 L 185.474,-47.0444 L 183.149,-48.1437
 L 180.944,-49.4655 L 178.879,-50.9971 L 176.974,-52.7238 L 175.247,-54.6289 L 173.715,-56.6941 L 172.394,-58.8994
 L 171.294,-61.2237 L 170.428,-63.6445 L 169.803,-66.1386 L 169.426,-68.682 z
M 174,-23.25 L 174.046,-24.1812 L 174.183,-25.1034 L 174.409,-26.0077 L 174.723,-26.8855 L 175.122,-27.7283
 L 175.601,-28.5279 L 176.156,-29.2767 L 176.782,-29.9675 L 177.473,-30.5936 L 178.222,-31.149 L 179.022,-31.6283
 L 179.865,-32.0269 L 180.742,-32.3409 L 181.647,-32.5675 L 182.569,-32.7043 L 183.5,-32.75 L 184.431,-32.7043
 L 185.353,-32.5675 L 186.258,-32.3409 L 187.135,-32.0269 L 187.978,-31.6283 L 188.778,-31.149 L 189.527,-30.5936
 L 190.218,-29.9675 L 190.844,-29.2767 L 191.399,-28.5279 L 191.878,-27.7283 L 192.277,-26.8855 L 192.591,-26.0077
 L 192.817,-25.1034 L 192.954,-24.1812 L 193,-23.25 L 192.954,-22.3188 L 192.817,-21.3966 L 192.591,-20.4923
 L 192.277,-19.6145 L 191.878,-18.7717 L 191.399,-17.9721 L 190.844,-17.2233 L 190.218,-16.5325 L 189.527,-15.9064
 L 188.778,-15.351 L 187.978,-14.8717 L 187.135,-14.4731 L 186.258,-14.1591 L 185.353,-13.9325 L 184.431,-13.7957
 L 183.5,-13.75 L 182.569,-13.7957 L 181.647,-13.9325 L 180.742,-14.1591 L 179.865,-14.4731 L 179.022,-14.8717
 L 178.222,-15.351 L 177.473,-15.9064 L 176.782,-16.5325 L 176.156,-17.2233 L 175.601,-17.9721 L 175.122,-18.7717
 L 174.723,-19.6145 L 174.409,-20.4923 L 174.183,-21.3966 L 174.046,-22.3188 z
" stroke="black" fill="lightgray" stroke-width="0.5"/>
</svg>
