  0
SECTION
  2
BLOCKS
  0
ENDSEC
  0
SECTION
  2
ENTITIES
  0
LINE
  8
0
 10
0
 20
10
 11
0.048152
 21
9.01983
  0
LINE
  8
0
 10
0.048152
 20
9.01983
 11
0.192146
 21
8.0491
  0
LINE
  8
0
 10
0.192146
 20
8.0491
 11
0.430596
 21
7.09715
  0
LINE
  8
0
 10
0.430596
 20
7.09715
 11
0.761204
 21
6.17317
  0
LINE
  8
0
 10
0.761204
 20
6.17317
 11
1.18079
 21
5.28603
  0
LINE
  8
0
 10
1.18079
 20
5.28603
 11
1.6853
 21
4.4443
  0
LINE
  8
0
 10
1.6853
 20
4.4443
 11
2.26989
 21
3.65607
  0
LINE
  8
0
 10
2.26989
 20
3.65607
 11
2.92893
 21
2.92893
  0
LINE
  8
0
 10
2.92893
 20
2.92893
 11
3.65607
 21
2.26989
  0
LINE
  8
0
 10
3.65607
 20
2.26989
 11
4.4443
 21
1.6853
  0
LINE
  8
0
 10
4.4443
 20
1.6853
 11
5.28603
 21
1.18079
  0
LINE
  8
0
 10
5.28603
 20
1.18079
 11
6.17317
 21
0.761204
  0
LINE
  8
0
 10
6.17317
 20
0.761204
 11
7.09715
 21
0.430596
  0
LINE
  8
0
 10
7.09715
 20
0.430596
 11
8.0491
 21
0.192146
  0
LINE
  8
0
 10
8.0491
 20
0.192146
 11
9.01983
 21
0.048152
  0
LINE
  8
0
 10
9.01983
 20
0.048152
 11
10
 21
0
  0
LINE
  8
0
 10
10
 20
0
 11
218.5
 21
0
  0
LINE
  8
0
 10
218.5
 20
0
 11
219.48
 21
0.048152
  0
LINE
  8
0
 10
219.48
 20
0.048152
 11
220.451
 21
0.192146
  0
LINE
  8
0
 10
220.451
 20
0.192146
 11
221.403
 21
0.430596
  0
LINE
  8
0
 10
221.403
 20
0.430596
 11
222.327
 21
0.761204
  0
LINE
  8
0
 10
222.327
 20
0.761204
 11
223.214
 21
1.18079
  0
LINE
  8
0
 10
223.214
 20
1.18079
 11
224.056
 21
1.6853
  0
LINE
  8
0
 10
224.056
 20
1.6853
 11
224.844
 21
2.26989
  0
LINE
  8
0
 10
224.844
 20
2.26989
 11
225.571
 21
2.92893
  0
LINE
  8
0
 10
225.571
 20
2.92893
 11
226.23
 21
3.65607
  0
LINE
  8
0
 10
226.23
 20
3.65607
 11
226.815
 21
4.4443
  0
LINE
  8
0
 10
226.815
 20
4.4443
 11
227.319
 21
5.28603
  0
LINE
  8
0
 10
227.319
 20
5.28603
 11
227.739
 21
6.17317
  0
LINE
  8
0
 10
227.739
 20
6.17317
 11
228.069
 21
7.09715
  0
LINE
  8
0
 10
228.069
 20
7.09715
 11
228.308
 21
8.0491
  0
LINE
  8
0
 10
228.308
 20
8.0491
 11
228.452
 21
9.01983
  0
LINE
  8
0
 10
228.452
 20
9.01983
 11
228.5
 21
10
  0
LINE
  8
0
 10
228.5
 20
10
 11
228.5
 21
34
  0
LINE
  8
0
 10
228.5
 20
34
 11
228.51
 21
34.196
  0
LINE
  8
0
 10
228.51
 20
34.196
 11
228.538
 21
34.3902
  0
LINE
  8
0
 10
228.538
 20
34.3902
 11
228.586
 21
34.5806
  0
LINE
  8
0
 10
228.586
 20
34.5806
 11
228.652
 21
34.7654
  0
LINE
  8
0
 10
228.652
 20
34.7654
 11
228.736
 21
34.9428
  0
LINE
  8
0
 10
228.736
 20
34.9428
 11
228.837
 21
35.1111
  0
LINE
  8
0
 10
228.837
 20
35.1111
 11
228.954
 21
35.2688
  0
LINE
  8
0
 10
228.954
 20
35.2688
 11
229.086
 21
35.4142
  0
LINE
  8
0
 10
229.086
 20
35.4142
 11
229.231
 21
35.546
  0
LINE
  8
0
 10
229.231
 20
35.546
 11
229.389
 21
35.6629
  0
LINE
  8
0
 10
229.389
 20
35.6629
 11
229.557
 21
35.7638
  0
LINE
  8
0
 10
229.557
 20
35.7638
 11
229.735
 21
35.8478
  0
LINE
  8
0
 10
229.735
 20
35.8478
 11
229.919
 21
35.9139
  0
LINE
  8
0
 10
229.919
 20
35.9139
 11
230.11
 21
35.9616
  0
LINE
  8
0
 10
230.11
 20
35.9616
 11
230.304
 21
35.9904
  0
LINE
  8
0
 10
230.304
 20
35.9904
 11
230.5
 21
36
  0
LINE
  8
0
 10
230.5
 20
36
 11
233.5
 21
36
  0
LINE
  8
0
 10
233.5
 20
36
 11
233.696
 21
36.0096
  0
LINE
  8
0
 10
233.696
 20
36.0096
 11
233.89
 21
36.0384
  0
LINE
  8
0
 10
233.89
 20
36.0384
 11
234.081
 21
36.0861
  0
LINE
  8
0
 10
234.081
 20
36.0861
 11
234.265
 21
36.1522
  0
LINE
  8
0
 10
234.265
 20
36.1522
 11
234.443
 21
36.2362
  0
LINE
  8
0
 10
234.443
 20
36.2362
 11
234.611
 21
36.3371
  0
LINE
  8
0
 10
234.611
 20
36.3371
 11
234.769
 21
36.454
  0
LINE
  8
0
 10
234.769
 20
36.454
 11
234.914
 21
36.5858
  0
LINE
  8
0
 10
234.914
 20
36.5858
 11
235.046
 21
36.7312
  0
LINE
  8
0
 10
235.046
 20
36.7312
 11
235.163
 21
36.8889
  0
LINE
  8
0
 10
235.163
 20
36.8889
 11
235.264
 21
37.0572
  0
LINE
  8
0
 10
235.264
 20
37.0572
 11
235.348
 21
37.2346
  0
LINE
  8
0
 10
235.348
 20
37.2346
 11
235.414
 21
37.4194
  0
LINE
  8
0
 10
235.414
 20
37.4194
 11
235.462
 21
37.6098
  0
LINE
  8
0
 10
235.462
 20
37.6098
 11
235.49
 21
37.804
  0
LINE
  8
0
 10
235.49
 20
37.804
 11
235.5
 21
38
  0
LINE
  8
0
 10
235.5
 20
38
 11
235.5
 21
70
  0
LINE
  8
0
 10
235.5
 20
70
 11
235.49
 21
70.196
  0
LINE
  8
0
 10
235.49
 20
70.196
 11
235.462
 21
70.3902
  0
LINE
  8
0
 10
235.462
 20
70.3902
 11
235.414
 21
70.5806
  0
LINE
  8
0
 10
235.414
 20
70.5806
 11
235.348
 21
70.7654
  0
LINE
  8
0
 10
235.348
 20
70.7654
 11
235.264
 21
70.9428
  0
LINE
  8
0
 10
235.264
 20
70.9428
 11
235.163
 21
71.1111
  0
LINE
  8
0
 10
235.163
 20
71.1111
 11
235.046
 21
71.2688
  0
LINE
  8
0
 10
235.046
 20
71.2688
 11
234.914
 21
71.4142
  0
LINE
  8
0
 10
234.914
 20
71.4142
 11
234.769
 21
71.546
  0
LINE
  8
0
 10
234.769
 20
71.546
 11
234.611
 21
71.6629
  0
LINE
  8
0
 10
234.611
 20
71.6629
 11
234.443
 21
71.7638
  0
LINE
  8
0
 10
234.443
 20
71.7638
 11
234.265
 21
71.8478
  0
LINE
  8
0
 10
234.265
 20
71.8478
 11
234.081
 21
71.9139
  0
LINE
  8
0
 10
234.081
 20
71.9139
 11
233.89
 21
71.9616
  0
LINE
  8
0
 10
233.89
 20
71.9616
 11
233.696
 21
71.9904
  0
LINE
  8
0
 10
233.696
 20
71.9904
 11
233.5
 21
72
  0
LINE
  8
0
 10
233.5
 20
72
 11
230.5
 21
72
  0
LINE
  8
0
 10
230.5
 20
72
 11
230.304
 21
72.0096
  0
LINE
  8
0
 10
230.304
 20
72.0096
 11
230.11
 21
72.0384
  0
LINE
  8
0
 10
230.11
 20
72.0384
 11
229.919
 21
72.0861
  0
LINE
  8
0
 10
229.919
 20
72.0861
 11
229.735
 21
72.1522
  0
LINE
  8
0
 10
229.735
 20
72.1522
 11
229.557
 21
72.2362
  0
LINE
  8
0
 10
229.557
 20
72.2362
 11
229.389
 21
72.3371
  0
LINE
  8
0
 10
229.389
 20
72.3371
 11
229.231
 21
72.454
  0
LINE
  8
0
 10
229.231
 20
72.454
 11
229.086
 21
72.5858
  0
LINE
  8
0
 10
229.086
 20
72.5858
 11
228.954
 21
72.7312
  0
LINE
  8
0
 10
228.954
 20
72.7312
 11
228.837
 21
72.8889
  0
LINE
  8
0
 10
228.837
 20
72.8889
 11
228.736
 21
73.0572
  0
LINE
  8
0
 10
228.736
 20
73.0572
 11
228.652
 21
73.2346
  0
LINE
  8
0
 10
228.652
 20
73.2346
 11
228.586
 21
73.4194
  0
LINE
  8
0
 10
228.586
 20
73.4194
 11
228.538
 21
73.6098
  0
LINE
  8
0
 10
228.538
 20
73.6098
 11
228.51
 21
73.804
  0
LINE
  8
0
 10
228.51
 20
73.804
 11
228.5
 21
74
  0
LINE
  8
0
 10
228.5
 20
74
 11
228.5
 21
98
  0
LINE
  8
0
 10
228.5
 20
98
 11
228.452
 21
98.9802
  0
LINE
  8
0
 10
228.452
 20
98.9802
 11
228.308
 21
99.9509
  0
LINE
  8
0
 10
228.308
 20
99.9509
 11
228.069
 21
100.903
  0
LINE
  8
0
 10
228.069
 20
100.903
 11
227.739
 21
101.827
  0
LINE
  8
0
 10
227.739
 20
101.827
 11
227.319
 21
102.714
  0
LINE
  8
0
 10
227.319
 20
102.714
 11
226.815
 21
103.556
  0
LINE
  8
0
 10
226.815
 20
103.556
 11
226.23
 21
104.344
  0
LINE
  8
0
 10
226.23
 20
104.344
 11
225.571
 21
105.071
  0
LINE
  8
0
 10
225.571
 20
105.071
 11
224.844
 21
105.73
  0
LINE
  8
0
 10
224.844
 20
105.73
 11
224.056
 21
106.315
  0
LINE
  8
0
 10
224.056
 20
106.315
 11
223.214
 21
106.819
  0
LINE
  8
0
 10
223.214
 20
106.819
 11
222.327
 21
107.239
  0
LINE
  8
0
 10
222.327
 20
107.239
 11
221.403
 21
107.569
  0
LINE
  8
0
 10
221.403
 20
107.569
 11
220.451
 21
107.808
  0
LINE
  8
0
 10
220.451
 20
107.808
 11
219.48
 21
107.952
  0
LINE
  8
0
 10
219.48
 20
107.952
 11
218.5
 21
108
  0
LINE
  8
0
 10
218.5
 20
108
 11
10
 21
108
  0
LINE
  8
0
 10
10
 20
108
 11
9.01983
 21
107.952
  0
LINE
  8
0
 10
9.01983
 20
107.952
 11
8.0491
 21
107.808
  0
LINE
  8
0
 10
8.0491
 20
107.808
 11
7.09715
 21
107.569
  0
LINE
  8
0
 10
7.09715
 20
107.569
 11
6.17317
 21
107.239
  0
LINE
  8
0
 10
6.17317
 20
107.239
 11
5.28603
 21
106.819
  0
LINE
  8
0
 10
5.28603
 20
106.819
 11
4.4443
 21
106.315
  0
LINE
  8
0
 10
4.4443
 20
106.315
 11
3.65607
 21
105.73
  0
LINE
  8
0
 10
3.65607
 20
105.73
 11
2.92893
 21
105.071
  0
LINE
  8
0
 10
2.92893
 20
105.071
 11
2.26989
 21
104.344
  0
LINE
  8
0
 10
2.26989
 20
104.344
 11
1.6853
 21
103.556
  0
LINE
  8
0
 10
1.6853
 20
103.556
 11
1.18079
 21
102.714
  0
LINE
  8
0
 10
1.18079
 20
102.714
 11
0.761204
 21
101.827
  0
LINE
  8
0
 10
0.761204
 20
101.827
 11
0.430596
 21
100.903
  0
LINE
  8
0
 10
0.430596
 20
100.903
 11
0.192146
 21
99.9509
  0
LINE
  8
0
 10
0.192146
 20
99.9509
 11
0.048152
 21
98.9802
  0
LINE
  8
0
 10
0.048152
 20
98.9802
 11
0
 21
98
  0
LINE
  8
0
 10
0
 20
98
 11
0
 21
10
  0
LINE
  8
0
 10
6.5
 20
54
 11
6.51685
 21
54.3431
  0
LINE
  8
0
 10
6.51685
 20
54.3431
 11
6.56725
 21
54.6828
  0
LINE
  8
0
 10
6.56725
 20
54.6828
 11
6.65071
 21
55.016
  0
LINE
  8
0
 10
6.65071
 20
55.016
 11
6.76642
 21
55.3394
  0
LINE
  8
0
 10
6.76642
 20
55.3394
 11
6.91327
 21
55.6499
  0
LINE
  8
0
 10
6.91327
 20
55.6499
 11
7.08986
 21
55.9445
  0
LINE
  8
0
 10
7.08986
 20
55.9445
 11
7.29446
 21
56.2204
  0
LINE
  8
0
 10
7.29446
 20
56.2204
 11
7.52513
 21
56.4749
  0
LINE
  8
0
 10
7.52513
 20
56.4749
 11
7.77962
 21
56.7055
  0
LINE
  8
0
 10
7.77962
 20
56.7055
 11
8.0555
 21
56.9101
  0
LINE
  8
0
 10
8.0555
 20
56.9101
 11
8.35011
 21
57.0867
  0
LINE
  8
0
 10
8.35011
 20
57.0867
 11
8.66061
 21
57.2336
  0
LINE
  8
0
 10
8.66061
 20
57.2336
 11
8.984
 21
57.3493
  0
LINE
  8
0
 10
8.984
 20
57.3493
 11
9.31718
 21
57.4327
  0
LINE
  8
0
 10
9.31718
 20
57.4327
 11
9.65694
 21
57.4831
  0
LINE
  8
0
 10
9.65694
 20
57.4831
 11
10
 21
57.5
  0
LINE
  8
0
 10
10
 20
57.5
 11
10.3431
 21
57.4831
  0
LINE
  8
0
 10
10.3431
 20
57.4831
 11
10.6828
 21
57.4327
  0
LINE
  8
0
 10
10.6828
 20
57.4327
 11
11.016
 21
57.3493
  0
LINE
  8
0
 10
11.016
 20
57.3493
 11
11.3394
 21
57.2336
  0
LINE
  8
0
 10
11.3394
 20
57.2336
 11
11.6499
 21
57.0867
  0
LINE
  8
0
 10
11.6499
 20
57.0867
 11
11.9445
 21
56.9101
  0
LINE
  8
0
 10
11.9445
 20
56.9101
 11
12.2204
 21
56.7055
  0
LINE
  8
0
 10
12.2204
 20
56.7055
 11
12.4749
 21
56.4749
  0
LINE
  8
0
 10
12.4749
 20
56.4749
 11
12.7055
 21
56.2204
  0
LINE
  8
0
 10
12.7055
 20
56.2204
 11
12.9101
 21
55.9445
  0
LINE
  8
0
 10
12.9101
 20
55.9445
 11
13.0867
 21
55.6499
  0
LINE
  8
0
 10
13.0867
 20
55.6499
 11
13.2336
 21
55.3394
  0
LINE
  8
0
 10
13.2336
 20
55.3394
 11
13.3493
 21
55.016
  0
LINE
  8
0
 10
13.3493
 20
55.016
 11
13.4327
 21
54.6828
  0
LINE
  8
0
 10
13.4327
 20
54.6828
 11
13.4831
 21
54.3431
  0
LINE
  8
0
 10
13.4831
 20
54.3431
 11
13.5
 21
54
  0
LINE
  8
0
 10
13.5
 20
54
 11
13.4831
 21
53.6569
  0
LINE
  8
0
 10
13.4831
 20
53.6569
 11
13.4327
 21
53.3172
  0
LINE
  8
0
 10
13.4327
 20
53.3172
 11
13.3493
 21
52.984
  0
LINE
  8
0
 10
13.3493
 20
52.984
 11
13.2336
 21
52.6606
  0
LINE
  8
0
 10
13.2336
 20
52.6606
 11
13.0867
 21
52.3501
  0
LINE
  8
0
 10
13.0867
 20
52.3501
 11
12.9101
 21
52.0555
  0
LINE
  8
0
 10
12.9101
 20
52.0555
 11
12.7055
 21
51.7796
  0
LINE
  8
0
 10
12.7055
 20
51.7796
 11
12.4749
 21
51.5251
  0
LINE
  8
0
 10
12.4749
 20
51.5251
 11
12.2204
 21
51.2945
  0
LINE
  8
0
 10
12.2204
 20
51.2945
 11
11.9445
 21
51.0899
  0
LINE
  8
0
 10
11.9445
 20
51.0899
 11
11.6499
 21
50.9133
  0
LINE
  8
0
 10
11.6499
 20
50.9133
 11
11.3394
 21
50.7664
  0
LINE
  8
0
 10
11.3394
 20
50.7664
 11
11.016
 21
50.6507
  0
LINE
  8
0
 10
11.016
 20
50.6507
 11
10.6828
 21
50.5673
  0
LINE
  8
0
 10
10.6828
 20
50.5673
 11
10.3431
 21
50.5169
  0
LINE
  8
0
 10
10.3431
 20
50.5169
 11
10
 21
50.5
  0
LINE
  8
0
 10
10
 20
50.5
 11
9.65694
 21
50.5169
  0
LINE
  8
0
 10
9.65694
 20
50.5169
 11
9.31718
 21
50.5673
  0
LINE
  8
0
 10
9.31718
 20
50.5673
 11
8.984
 21
50.6507
  0
LINE
  8
0
 10
8.984
 20
50.6507
 11
8.66061
 21
50.7664
  0
LINE
  8
0
 10
8.66061
 20
50.7664
 11
8.35011
 21
50.9133
  0
LINE
  8
0
 10
8.35011
 20
50.9133
 11
8.0555
 21
51.0899
  0
LINE
  8
0
 10
8.0555
 20
51.0899
 11
7.77962
 21
51.2945
  0
LINE
  8
0
 10
7.77962
 20
51.2945
 11
7.52513
 21
51.5251
  0
LINE
  8
0
 10
7.52513
 20
51.5251
 11
7.29446
 21
51.7796
  0
LINE
  8
0
 10
7.29446
 20
51.7796
 11
7.08986
 21
52.0555
  0
LINE
  8
0
 10
7.08986
 20
52.0555
 11
6.91327
 21
52.3501
  0
LINE
  8
0
 10
6.91327
 20
52.3501
 11
6.76642
 21
52.6606
  0
LINE
  8
0
 10
6.76642
 20
52.6606
 11
6.65071
 21
52.984
  0
LINE
  8
0
 10
6.65071
 20
52.984
 11
6.56725
 21
53.3172
  0
LINE
  8
0
 10
6.56725
 20
53.3172
 11
6.51685
 21
53.6569
  0
LINE
  8
0
 10
6.51685
 20
53.6569
 11
6.5
 21
54
  0
LINE
  8
0
 10
14.6
 20
87.25
 11
14.638
 21
88.0243
  0
LINE
  8
0
 10
14.638
 20
88.0243
 11
14.7518
 21
88.7912
  0
LINE
  8
0
 10
14.7518
 20
88.7912
 11
14.9402
 21
89.5432
  0
LINE
  8
0
 10
14.9402
 20
89.5432
 11
15.2014
 21
90.2732
  0
LINE
  8
0
 10
15.2014
 20
90.2732
 11
15.5328
 21
90.974
  0
LINE
  8
0
 10
15.5328
 20
90.974
 11
15.9314
 21
91.639
  0
LINE
  8
0
 10
15.9314
 20
91.639
 11
16.3932
 21
92.2617
  0
LINE
  8
0
 10
16.3932
 20
92.2617
 11
16.9139
 21
92.8361
  0
LINE
  8
0
 10
16.9139
 20
92.8361
 11
17.4883
 21
93.3568
  0
LINE
  8
0
 10
17.4883
 20
93.3568
 11
18.111
 21
93.8186
  0
LINE
  8
0
 10
18.111
 20
93.8186
 11
18.776
 21
94.2172
  0
LINE
  8
0
 10
18.776
 20
94.2172
 11
19.4768
 21
94.5486
  0
LINE
  8
0
 10
19.4768
 20
94.5486
 11
20.2068
 21
94.8098
  0
LINE
  8
0
 10
20.2068
 20
94.8098
 11
20.9588
 21
94.9982
  0
LINE
  8
0
 10
20.9588
 20
94.9982
 11
21.7257
 21
95.112
  0
LINE
  8
0
 10
21.7257
 20
95.112
 11
22.5
 21
95.15
  0
LINE
  8
0
 10
22.5
 20
95.15
 11
23.2743
 21
95.112
  0
LINE
  8
0
 10
23.2743
 20
95.112
 11
24.0412
 21
94.9982
  0
LINE
  8
0
 10
24.0412
 20
94.9982
 11
24.7932
 21
94.8098
  0
LINE
  8
0
 10
24.7932
 20
94.8098
 11
25.5232
 21
94.5486
  0
LINE
  8
0
 10
25.5232
 20
94.5486
 11
26.224
 21
94.2172
  0
LINE
  8
0
 10
26.224
 20
94.2172
 11
26.889
 21
93.8186
  0
LINE
  8
0
 10
26.889
 20
93.8186
 11
27.5117
 21
93.3568
  0
LINE
  8
0
 10
27.5117
 20
93.3568
 11
28.0861
 21
92.8361
  0
LINE
  8
0
 10
28.0861
 20
92.8361
 11
28.6068
 21
92.2617
  0
LINE
  8
0
 10
28.6068
 20
92.2617
 11
29.0686
 21
91.639
  0
LINE
  8
0
 10
29.0686
 20
91.639
 11
29.4672
 21
90.974
  0
LINE
  8
0
 10
29.4672
 20
90.974
 11
29.7
 21
90.4818
  0
LINE
  8
0
 10
29.7
 20
90.4818
 11
29.7
 21
84.0182
  0
LINE
  8
0
 10
29.7
 20
84.0182
 11
29.4672
 21
83.526
  0
LINE
  8
0
 10
29.4672
 20
83.526
 11
29.0686
 21
82.861
  0
LINE
  8
0
 10
29.0686
 20
82.861
 11
28.6068
 21
82.2383
  0
LINE
  8
0
 10
28.6068
 20
82.2383
 11
28.0861
 21
81.6639
  0
LINE
  8
0
 10
28.0861
 20
81.6639
 11
27.5117
 21
81.1432
  0
LINE
  8
0
 10
27.5117
 20
81.1432
 11
26.889
 21
80.6814
  0
LINE
  8
0
 10
26.889
 20
80.6814
 11
26.224
 21
80.2828
  0
LINE
  8
0
 10
26.224
 20
80.2828
 11
25.5232
 21
79.9514
  0
LINE
  8
0
 10
25.5232
 20
79.9514
 11
24.7932
 21
79.6902
  0
LINE
  8
0
 10
24.7932
 20
79.6902
 11
24.0412
 21
79.5018
  0
LINE
  8
0
 10
24.0412
 20
79.5018
 11
23.2743
 21
79.388
  0
LINE
  8
0
 10
23.2743
 20
79.388
 11
22.5
 21
79.35
  0
LINE
  8
0
 10
22.5
 20
79.35
 11
21.7257
 21
79.388
  0
LINE
  8
0
 10
21.7257
 20
79.388
 11
20.9588
 21
79.5018
  0
LINE
  8
0
 10
20.9588
 20
79.5018
 11
20.2068
 21
79.6902
  0
LINE
  8
0
 10
20.2068
 20
79.6902
 11
19.4768
 21
79.9514
  0
LINE
  8
0
 10
19.4768
 20
79.9514
 11
18.776
 21
80.2828
  0
LINE
  8
0
 10
18.776
 20
80.2828
 11
18.111
 21
80.6814
  0
LINE
  8
0
 10
18.111
 20
80.6814
 11
17.4883
 21
81.1432
  0
LINE
  8
0
 10
17.4883
 20
81.1432
 11
16.9139
 21
81.6639
  0
LINE
  8
0
 10
16.9139
 20
81.6639
 11
16.3932
 21
82.2383
  0
LINE
  8
0
 10
16.3932
 20
82.2383
 11
15.9314
 21
82.861
  0
LINE
  8
0
 10
15.9314
 20
82.861
 11
15.5328
 21
83.526
  0
LINE
  8
0
 10
15.5328
 20
83.526
 11
15.2014
 21
84.2268
  0
LINE
  8
0
 10
15.2014
 20
84.2268
 11
14.9402
 21
84.9568
  0
LINE
  8
0
 10
14.9402
 20
84.9568
 11
14.7518
 21
85.7088
  0
LINE
  8
0
 10
14.7518
 20
85.7088
 11
14.638
 21
86.4757
  0
LINE
  8
0
 10
14.638
 20
86.4757
 11
14.6
 21
87.25
  0
LINE
  8
0
 10
20.45
 20
10.25
 11
20.45
 21
47.45
  0
LINE
  8
0
 10
20.45
 20
47.45
 11
44.85
 21
47.45
  0
LINE
  8
0
 10
44.85
 20
47.45
 11
44.85
 21
10.25
  0
LINE
  8
0
 10
44.85
 20
10.25
 11
20.45
 21
10.25
  0
LINE
  8
0
 10
46.6654
 20
82.092
 11
48.8732
 21
85.4276
  0
LINE
  8
0
 10
48.8732
 20
85.4276
 11
97.5057
 21
53.2384
  0
LINE
  8
0
 10
97.5057
 20
53.2384
 11
97.9202
 21
53.5486
  0
LINE
  8
0
 10
97.9202
 20
53.5486
 11
98.4659
 21
53.8789
  0
LINE
  8
0
 10
98.4659
 20
53.8789
 11
99.0413
 21
54.1541
  0
LINE
  8
0
 10
99.0413
 20
54.1541
 11
99.6409
 21
54.3717
  0
LINE
  8
0
 10
99.6409
 20
54.3717
 11
100.259
 21
54.5294
  0
LINE
  8
0
 10
100.259
 20
54.5294
 11
100.89
 21
54.6257
  0
LINE
  8
0
 10
100.89
 20
54.6257
 11
101.527
 21
54.6598
  0
LINE
  8
0
 10
101.527
 20
54.6598
 11
102.164
 21
54.6313
  0
LINE
  8
0
 10
102.164
 20
54.6313
 11
102.795
 21
54.5404
  0
LINE
  8
0
 10
102.795
 20
54.5404
 11
103.415
 21
54.3881
  0
LINE
  8
0
 10
103.415
 20
54.3881
 11
104.016
 21
54.1759
  0
LINE
  8
0
 10
104.016
 20
54.1759
 11
104.594
 21
53.9056
  0
LINE
  8
0
 10
104.594
 20
53.9056
 11
105.143
 21
53.5801
  0
LINE
  8
0
 10
105.143
 20
53.5801
 11
126.824
 21
39.2297
  0
LINE
  8
0
 10
126.824
 20
39.2297
 11
127.338
 21
38.852
  0
LINE
  8
0
 10
127.338
 20
38.852
 11
127.812
 21
38.4257
  0
LINE
  8
0
 10
127.812
 20
38.4257
 11
128.242
 21
37.9549
  0
LINE
  8
0
 10
128.242
 20
37.9549
 11
128.625
 21
37.4442
  0
LINE
  8
0
 10
128.625
 20
37.4442
 11
128.955
 21
36.8985
  0
LINE
  8
0
 10
128.955
 20
36.8985
 11
129.23
 21
36.3231
  0
LINE
  8
0
 10
129.23
 20
36.3231
 11
129.448
 21
35.7235
  0
LINE
  8
0
 10
129.448
 20
35.7235
 11
129.605
 21
35.1054
  0
LINE
  8
0
 10
129.605
 20
35.1054
 11
129.702
 21
34.4748
  0
LINE
  8
0
 10
129.702
 20
34.4748
 11
129.736
 21
33.8378
  0
LINE
  8
0
 10
129.736
 20
33.8378
 11
129.707
 21
33.2006
  0
LINE
  8
0
 10
129.707
 20
33.2006
 11
129.617
 21
32.5692
  0
LINE
  8
0
 10
129.617
 20
32.5692
 11
129.464
 21
31.9498
  0
LINE
  8
0
 10
129.464
 20
31.9498
 11
129.252
 21
31.3483
  0
LINE
  8
0
 10
129.252
 20
31.3483
 11
128.982
 21
30.7704
  0
LINE
  8
0
 10
128.982
 20
30.7704
 11
128.656
 21
30.2219
  0
LINE
  8
0
 10
128.656
 20
30.2219
 11
128.278
 21
29.7079
  0
LINE
  8
0
 10
128.278
 20
29.7079
 11
127.852
 21
29.2334
  0
LINE
  8
0
 10
127.852
 20
29.2334
 11
127.381
 21
28.803
  0
LINE
  8
0
 10
127.381
 20
28.803
 11
126.871
 21
28.4207
  0
LINE
  8
0
 10
126.871
 20
28.4207
 11
126.325
 21
28.0904
  0
LINE
  8
0
 10
126.325
 20
28.0904
 11
125.75
 21
27.8152
  0
LINE
  8
0
 10
125.75
 20
27.8152
 11
125.15
 21
27.5977
  0
LINE
  8
0
 10
125.15
 20
27.5977
 11
124.532
 21
27.44
  0
LINE
  8
0
 10
124.532
 20
27.44
 11
123.901
 21
27.3436
  0
LINE
  8
0
 10
123.901
 20
27.3436
 11
123.264
 21
27.3095
  0
LINE
  8
0
 10
123.264
 20
27.3095
 11
122.627
 21
27.3381
  0
LINE
  8
0
 10
122.627
 20
27.3381
 11
121.996
 21
27.4289
  0
LINE
  8
0
 10
121.996
 20
27.4289
 11
121.376
 21
27.5812
  0
LINE
  8
0
 10
121.376
 20
27.5812
 11
120.775
 21
27.7935
  0
LINE
  8
0
 10
120.775
 20
27.7935
 11
120.197
 21
28.0637
  0
LINE
  8
0
 10
120.197
 20
28.0637
 11
119.648
 21
28.3892
  0
LINE
  8
0
 10
119.648
 20
28.3892
 11
97.9673
 21
42.7396
  0
LINE
  8
0
 10
97.9673
 20
42.7396
 11
97.4533
 21
43.1173
  0
LINE
  8
0
 10
97.4533
 20
43.1173
 11
96.9788
 21
43.5436
  0
LINE
  8
0
 10
96.9788
 20
43.5436
 11
96.5484
 21
44.0144
  0
LINE
  8
0
 10
96.5484
 20
44.0144
 11
96.1662
 21
44.5251
  0
LINE
  8
0
 10
96.1662
 20
44.5251
 11
95.8359
 21
45.0708
  0
LINE
  8
0
 10
95.8359
 20
45.0708
 11
95.5606
 21
45.6462
  0
LINE
  8
0
 10
95.5606
 20
45.6462
 11
95.3431
 21
46.2459
  0
LINE
  8
0
 10
95.3431
 20
46.2459
 11
95.1854
 21
46.864
  0
LINE
  8
0
 10
95.1854
 20
46.864
 11
95.0891
 21
47.4945
  0
LINE
  8
0
 10
95.0891
 20
47.4945
 11
95.055
 21
48.1315
  0
LINE
  8
0
 10
95.055
 20
48.1315
 11
95.0835
 21
48.7687
  0
LINE
  8
0
 10
95.0835
 20
48.7687
 11
95.1743
 21
49.4001
  0
LINE
  8
0
 10
95.1743
 20
49.4001
 11
95.2979
 21
49.9028
  0
LINE
  8
0
 10
95.2979
 20
49.9028
 11
46.6654
 21
82.092
  0
LINE
  8
0
 10
51.7
 20
13.07
 11
51.7
 21
33.87
  0
LINE
  8
0
 10
51.7
 20
33.87
 11
88.9
 21
33.87
  0
LINE
  8
0
 10
88.9
 20
33.87
 11
88.9
 21
13.07
  0
LINE
  8
0
 10
88.9
 20
13.07
 11
51.7
 21
13.07
  0
LINE
  8
0
 10
59.5143
 20
54.76
 11
62.3843
 21
59.0962
  0
LINE
  8
0
 10
62.3843
 20
59.0962
 11
66.7205
 21
56.2262
  0
LINE
  8
0
 10
66.7205
 20
56.2262
 11
63.8505
 21
51.89
  0
LINE
  8
0
 10
63.8505
 20
51.89
 11
59.5143
 21
54.76
  0
LINE
  8
0
 10
72.08
 20
88.25
 11
72.1041
 21
88.7401
  0
LINE
  8
0
 10
72.1041
 20
88.7401
 11
72.1761
 21
89.2255
  0
LINE
  8
0
 10
72.1761
 20
89.2255
 11
72.2953
 21
89.7014
  0
LINE
  8
0
 10
72.2953
 20
89.7014
 11
72.4606
 21
90.1634
  0
LINE
  8
0
 10
72.4606
 20
90.1634
 11
72.6704
 21
90.607
  0
LINE
  8
0
 10
72.6704
 20
90.607
 11
72.9227
 21
91.0279
  0
LINE
  8
0
 10
72.9227
 20
91.0279
 11
73.2149
 21
91.422
  0
LINE
  8
0
 10
73.2149
 20
91.422
 11
73.5445
 21
91.7855
  0
LINE
  8
0
 10
73.5445
 20
91.7855
 11
73.908
 21
92.1151
  0
LINE
  8
0
 10
73.908
 20
92.1151
 11
74.3021
 21
92.4073
  0
LINE
  8
0
 10
74.3021
 20
92.4073
 11
74.723
 21
92.6596
  0
LINE
  8
0
 10
74.723
 20
92.6596
 11
75.1666
 21
92.8694
  0
LINE
  8
0
 10
75.1666
 20
92.8694
 11
75.6286
 21
93.0347
  0
LINE
  8
0
 10
75.6286
 20
93.0347
 11
76.1045
 21
93.1539
  0
LINE
  8
0
 10
76.1045
 20
93.1539
 11
76.5899
 21
93.2259
  0
LINE
  8
0
 10
76.5899
 20
93.2259
 11
77.08
 21
93.25
  0
LINE
  8
0
 10
77.08
 20
93.25
 11
77.5701
 21
93.2259
  0
LINE
  8
0
 10
77.5701
 20
93.2259
 11
78.0555
 21
93.1539
  0
LINE
  8
0
 10
78.0555
 20
93.1539
 11
78.5314
 21
93.0347
  0
LINE
  8
0
 10
78.5314
 20
93.0347
 11
78.9934
 21
92.8694
  0
LINE
  8
0
 10
78.9934
 20
92.8694
 11
79.437
 21
92.6596
  0
LINE
  8
0
 10
79.437
 20
92.6596
 11
79.8579
 21
92.4073
  0
LINE
  8
0
 10
79.8579
 20
92.4073
 11
80.252
 21
92.1151
  0
LINE
  8
0
 10
80.252
 20
92.1151
 11
80.6155
 21
91.7855
  0
LINE
  8
0
 10
80.6155
 20
91.7855
 11
80.9451
 21
91.422
  0
LINE
  8
0
 10
80.9451
 20
91.422
 11
81.2373
 21
91.0279
  0
LINE
  8
0
 10
81.2373
 20
91.0279
 11
81.4896
 21
90.607
  0
LINE
  8
0
 10
81.4896
 20
90.607
 11
81.6994
 21
90.1634
  0
LINE
  8
0
 10
81.6994
 20
90.1634
 11
81.8647
 21
89.7014
  0
LINE
  8
0
 10
81.8647
 20
89.7014
 11
81.9839
 21
89.2255
  0
LINE
  8
0
 10
81.9839
 20
89.2255
 11
82.0559
 21
88.7401
  0
LINE
  8
0
 10
82.0559
 20
88.7401
 11
82.08
 21
88.25
  0
LINE
  8
0
 10
82.08
 20
88.25
 11
82.0559
 21
87.7599
  0
LINE
  8
0
 10
82.0559
 20
87.7599
 11
81.9839
 21
87.2745
  0
LINE
  8
0
 10
81.9839
 20
87.2745
 11
81.8647
 21
86.7986
  0
LINE
  8
0
 10
81.8647
 20
86.7986
 11
81.6994
 21
86.3366
  0
LINE
  8
0
 10
81.6994
 20
86.3366
 11
81.4896
 21
85.893
  0
LINE
  8
0
 10
81.4896
 20
85.893
 11
81.2373
 21
85.4721
  0
LINE
  8
0
 10
81.2373
 20
85.4721
 11
80.9451
 21
85.078
  0
LINE
  8
0
 10
80.9451
 20
85.078
 11
80.6155
 21
84.7145
  0
LINE
  8
0
 10
80.6155
 20
84.7145
 11
80.252
 21
84.3849
  0
LINE
  8
0
 10
80.252
 20
84.3849
 11
79.8579
 21
84.0927
  0
LINE
  8
0
 10
79.8579
 20
84.0927
 11
79.437
 21
83.8404
  0
LINE
  8
0
 10
79.437
 20
83.8404
 11
78.9934
 21
83.6306
  0
LINE
  8
0
 10
78.9934
 20
83.6306
 11
78.5314
 21
83.4653
  0
LINE
  8
0
 10
78.5314
 20
83.4653
 11
78.0555
 21
83.3461
  0
LINE
  8
0
 10
78.0555
 20
83.3461
 11
77.5701
 21
83.2741
  0
LINE
  8
0
 10
77.5701
 20
83.2741
 11
77.08
 21
83.25
  0
LINE
  8
0
 10
77.08
 20
83.25
 11
76.5899
 21
83.2741
  0
LINE
  8
0
 10
76.5899
 20
83.2741
 11
76.1045
 21
83.3461
  0
LINE
  8
0
 10
76.1045
 20
83.3461
 11
75.6286
 21
83.4653
  0
LINE
  8
0
 10
75.6286
 20
83.4653
 11
75.1666
 21
83.6306
  0
LINE
  8
0
 10
75.1666
 20
83.6306
 11
74.723
 21
83.8404
  0
LINE
  8
0
 10
74.723
 20
83.8404
 11
74.3021
 21
84.0927
  0
LINE
  8
0
 10
74.3021
 20
84.0927
 11
73.908
 21
84.3849
  0
LINE
  8
0
 10
73.908
 20
84.3849
 11
73.5445
 21
84.7145
  0
LINE
  8
0
 10
73.5445
 20
84.7145
 11
73.2149
 21
85.078
  0
LINE
  8
0
 10
73.2149
 20
85.078
 11
72.9227
 21
85.4721
  0
LINE
  8
0
 10
72.9227
 20
85.4721
 11
72.6704
 21
85.893
  0
LINE
  8
0
 10
72.6704
 20
85.893
 11
72.4606
 21
86.3366
  0
LINE
  8
0
 10
72.4606
 20
86.3366
 11
72.2953
 21
86.7986
  0
LINE
  8
0
 10
72.2953
 20
86.7986
 11
72.1761
 21
87.2745
  0
LINE
  8
0
 10
72.1761
 20
87.2745
 11
72.1041
 21
87.7599
  0
LINE
  8
0
 10
72.1041
 20
87.7599
 11
72.08
 21
88.25
  0
LINE
  8
0
 10
97.873
 20
29.3709
 11
100.743
 21
33.7071
  0
LINE
  8
0
 10
100.743
 20
33.7071
 11
105.079
 21
30.8371
  0
LINE
  8
0
 10
105.079
 20
30.8371
 11
102.209
 21
26.5009
  0
LINE
  8
0
 10
102.209
 20
26.5009
 11
97.873
 21
29.3709
  0
LINE
  8
0
 10
103.79
 20
71.25
 11
103.79
 21
99.85
  0
LINE
  8
0
 10
103.79
 20
99.85
 11
160.79
 21
99.85
  0
LINE
  8
0
 10
160.79
 20
99.85
 11
160.79
 21
71.25
  0
LINE
  8
0
 10
160.79
 20
71.25
 11
103.79
 21
71.25
  0
LINE
  8
0
 10
141.6
 20
47.8
 11
141.669
 21
49.2114
  0
LINE
  8
0
 10
141.669
 20
49.2114
 11
141.877
 21
50.6093
  0
LINE
  8
0
 10
141.877
 20
50.6093
 11
142.22
 21
51.9801
  0
LINE
  8
0
 10
142.22
 20
51.9801
 11
142.696
 21
53.3106
  0
LINE
  8
0
 10
142.696
 20
53.3106
 11
143.3
 21
54.5881
  0
LINE
  8
0
 10
143.3
 20
54.5881
 11
144.027
 21
55.8002
  0
LINE
  8
0
 10
144.027
 20
55.8002
 11
144.869
 21
56.9353
  0
LINE
  8
0
 10
144.869
 20
56.9353
 11
145.818
 21
57.9823
  0
LINE
  8
0
 10
145.818
 20
57.9823
 11
146.865
 21
58.9313
  0
LINE
  8
0
 10
146.865
 20
58.9313
 11
148
 21
59.7732
  0
LINE
  8
0
 10
148
 20
59.7732
 11
149.212
 21
60.4997
  0
LINE
  8
0
 10
149.212
 20
60.4997
 11
150.489
 21
61.1039
  0
LINE
  8
0
 10
150.489
 20
61.1039
 11
151.82
 21
61.5799
  0
LINE
  8
0
 10
151.82
 20
61.5799
 11
153.191
 21
61.9233
  0
LINE
  8
0
 10
153.191
 20
61.9233
 11
154.589
 21
62.1307
  0
LINE
  8
0
 10
154.589
 20
62.1307
 11
156
 21
62.2
  0
LINE
  8
0
 10
156
 20
62.2
 11
157.411
 21
62.1307
  0
LINE
  8
0
 10
157.411
 20
62.1307
 11
158.809
 21
61.9233
  0
LINE
  8
0
 10
158.809
 20
61.9233
 11
160.18
 21
61.5799
  0
LINE
  8
0
 10
160.18
 20
61.5799
 11
161.511
 21
61.1039
  0
LINE
  8
0
 10
161.511
 20
61.1039
 11
162.788
 21
60.4997
  0
LINE
  8
0
 10
162.788
 20
60.4997
 11
164
 21
59.7732
  0
LINE
  8
0
 10
164
 20
59.7732
 11
165.135
 21
58.9313
  0
LINE
  8
0
 10
165.135
 20
58.9313
 11
166.182
 21
57.9823
  0
LINE
  8
0
 10
166.182
 20
57.9823
 11
167.131
 21
56.9353
  0
LINE
  8
0
 10
167.131
 20
56.9353
 11
167.973
 21
55.8002
  0
LINE
  8
0
 10
167.973
 20
55.8002
 11
168.7
 21
54.5881
  0
LINE
  8
0
 10
168.7
 20
54.5881
 11
169.304
 21
53.3106
  0
LINE
  8
0
 10
169.304
 20
53.3106
 11
169.78
 21
51.9801
  0
LINE
  8
0
 10
169.78
 20
51.9801
 11
170.123
 21
50.6093
  0
LINE
  8
0
 10
170.123
 20
50.6093
 11
170.331
 21
49.2114
  0
LINE
  8
0
 10
170.331
 20
49.2114
 11
170.4
 21
47.8
  0
LINE
  8
0
 10
170.4
 20
47.8
 11
170.331
 21
46.3886
  0
LINE
  8
0
 10
170.331
 20
46.3886
 11
170.123
 21
44.9907
  0
LINE
  8
0
 10
170.123
 20
44.9907
 11
169.78
 21
43.6199
  0
LINE
  8
0
 10
169.78
 20
43.6199
 11
169.304
 21
42.2894
  0
LINE
  8
0
 10
169.304
 20
42.2894
 11
168.7
 21
41.0119
  0
LINE
  8
0
 10
168.7
 20
41.0119
 11
167.973
 21
39.7998
  0
LINE
  8
0
 10
167.973
 20
39.7998
 11
167.131
 21
38.6647
  0
LINE
  8
0
 10
167.131
 20
38.6647
 11
166.182
 21
37.6177
  0
LINE
  8
0
 10
166.182
 20
37.6177
 11
165.135
 21
36.6686
  0
LINE
  8
0
 10
165.135
 20
36.6686
 11
164
 21
35.8268
  0
LINE
  8
0
 10
164
 20
35.8268
 11
162.788
 21
35.1003
  0
LINE
  8
0
 10
162.788
 20
35.1003
 11
161.511
 21
34.4961
  0
LINE
  8
0
 10
161.511
 20
34.4961
 11
160.18
 21
34.0201
  0
LINE
  8
0
 10
160.18
 20
34.0201
 11
158.809
 21
33.6767
  0
LINE
  8
0
 10
158.809
 20
33.6767
 11
157.411
 21
33.4693
  0
LINE
  8
0
 10
157.411
 20
33.4693
 11
156
 21
33.4
  0
LINE
  8
0
 10
156
 20
33.4
 11
154.589
 21
33.4693
  0
LINE
  8
0
 10
154.589
 20
33.4693
 11
153.191
 21
33.6767
  0
LINE
  8
0
 10
153.191
 20
33.6767
 11
151.82
 21
34.0201
  0
LINE
  8
0
 10
151.82
 20
34.0201
 11
150.489
 21
34.4961
  0
LINE
  8
0
 10
150.489
 20
34.4961
 11
149.212
 21
35.1003
  0
LINE
  8
0
 10
149.212
 20
35.1003
 11
148
 21
35.8268
  0
LINE
  8
0
 10
148
 20
35.8268
 11
146.865
 21
36.6686
  0
LINE
  8
0
 10
146.865
 20
36.6686
 11
145.818
 21
37.6177
  0
LINE
  8
0
 10
145.818
 20
37.6177
 11
144.869
 21
38.6647
  0
LINE
  8
0
 10
144.869
 20
38.6647
 11
144.027
 21
39.7998
  0
LINE
  8
0
 10
144.027
 20
39.7998
 11
143.3
 21
41.0119
  0
LINE
  8
0
 10
143.3
 20
41.0119
 11
142.696
 21
42.2894
  0
LINE
  8
0
 10
142.696
 20
42.2894
 11
142.22
 21
43.6199
  0
LINE
  8
0
 10
142.22
 20
43.6199
 11
141.877
 21
44.9907
  0
LINE
  8
0
 10
141.877
 20
44.9907
 11
141.669
 21
46.3886
  0
LINE
  8
0
 10
141.669
 20
46.3886
 11
141.6
 21
47.8
  0
LINE
  8
0
 10
144.05
 20
18.05
 11
144.08
 21
18.6577
  0
LINE
  8
0
 10
144.08
 20
18.6577
 11
144.169
 21
19.2596
  0
LINE
  8
0
 10
144.169
 20
19.2596
 11
144.317
 21
19.8498
  0
LINE
  8
0
 10
144.317
 20
19.8498
 11
144.522
 21
20.4226
  0
LINE
  8
0
 10
144.522
 20
20.4226
 11
144.782
 21
20.9727
  0
LINE
  8
0
 10
144.782
 20
20.9727
 11
145.095
 21
21.4945
  0
LINE
  8
0
 10
145.095
 20
21.4945
 11
145.457
 21
21.9832
  0
LINE
  8
0
 10
145.457
 20
21.9832
 11
145.866
 21
22.4341
  0
LINE
  8
0
 10
145.866
 20
22.4341
 11
146.317
 21
22.8427
  0
LINE
  8
0
 10
146.317
 20
22.8427
 11
146.805
 21
23.2051
  0
LINE
  8
0
 10
146.805
 20
23.2051
 11
147.327
 21
23.5179
  0
LINE
  8
0
 10
147.327
 20
23.5179
 11
147.877
 21
23.7781
  0
LINE
  8
0
 10
147.877
 20
23.7781
 11
148.45
 21
23.983
  0
LINE
  8
0
 10
148.45
 20
23.983
 11
149.04
 21
24.1309
  0
LINE
  8
0
 10
149.04
 20
24.1309
 11
149.642
 21
24.2201
  0
LINE
  8
0
 10
149.642
 20
24.2201
 11
150.25
 21
24.25
  0
LINE
  8
0
 10
150.25
 20
24.25
 11
150.858
 21
24.2201
  0
LINE
  8
0
 10
150.858
 20
24.2201
 11
151.46
 21
24.1309
  0
LINE
  8
0
 10
151.46
 20
24.1309
 11
152.05
 21
23.983
  0
LINE
  8
0
 10
152.05
 20
23.983
 11
152.623
 21
23.7781
  0
LINE
  8
0
 10
152.623
 20
23.7781
 11
153.173
 21
23.5179
  0
LINE
  8
0
 10
153.173
 20
23.5179
 11
153.695
 21
23.2051
  0
LINE
  8
0
 10
153.695
 20
23.2051
 11
154.183
 21
22.8427
  0
LINE
  8
0
 10
154.183
 20
22.8427
 11
154.634
 21
22.4341
  0
LINE
  8
0
 10
154.634
 20
22.4341
 11
155.043
 21
21.9832
  0
LINE
  8
0
 10
155.043
 20
21.9832
 11
155.405
 21
21.4945
  0
LINE
  8
0
 10
155.405
 20
21.4945
 11
155.718
 21
20.9727
  0
LINE
  8
0
 10
155.718
 20
20.9727
 11
155.978
 21
20.4226
  0
LINE
  8
0
 10
155.978
 20
20.4226
 11
156.183
 21
19.8498
  0
LINE
  8
0
 10
156.183
 20
19.8498
 11
156.331
 21
19.2596
  0
LINE
  8
0
 10
156.331
 20
19.2596
 11
156.42
 21
18.6577
  0
LINE
  8
0
 10
156.42
 20
18.6577
 11
156.45
 21
18.05
  0
LINE
  8
0
 10
156.45
 20
18.05
 11
156.42
 21
17.4423
  0
LINE
  8
0
 10
156.42
 20
17.4423
 11
156.331
 21
16.8404
  0
LINE
  8
0
 10
156.331
 20
16.8404
 11
156.183
 21
16.2502
  0
LINE
  8
0
 10
156.183
 20
16.2502
 11
155.978
 21
15.6774
  0
LINE
  8
0
 10
155.978
 20
15.6774
 11
155.718
 21
15.1273
  0
LINE
  8
0
 10
155.718
 20
15.1273
 11
155.405
 21
14.6055
  0
LINE
  8
0
 10
155.405
 20
14.6055
 11
155.043
 21
14.1168
  0
LINE
  8
0
 10
155.043
 20
14.1168
 11
154.634
 21
13.6659
  0
LINE
  8
0
 10
154.634
 20
13.6659
 11
154.183
 21
13.2573
  0
LINE
  8
0
 10
154.183
 20
13.2573
 11
153.695
 21
12.8949
  0
LINE
  8
0
 10
153.695
 20
12.8949
 11
153.173
 21
12.5821
  0
LINE
  8
0
 10
153.173
 20
12.5821
 11
152.623
 21
12.3219
  0
LINE
  8
0
 10
152.623
 20
12.3219
 11
152.05
 21
12.117
  0
LINE
  8
0
 10
152.05
 20
12.117
 11
151.46
 21
11.9691
  0
LINE
  8
0
 10
151.46
 20
11.9691
 11
150.858
 21
11.8799
  0
LINE
  8
0
 10
150.858
 20
11.8799
 11
150.25
 21
11.85
  0
LINE
  8
0
 10
150.25
 20
11.85
 11
149.642
 21
11.8799
  0
LINE
  8
0
 10
149.642
 20
11.8799
 11
149.04
 21
11.9691
  0
LINE
  8
0
 10
149.04
 20
11.9691
 11
148.45
 21
12.117
  0
LINE
  8
0
 10
148.45
 20
12.117
 11
147.877
 21
12.3219
  0
LINE
  8
0
 10
147.877
 20
12.3219
 11
147.327
 21
12.5821
  0
LINE
  8
0
 10
147.327
 20
12.5821
 11
146.805
 21
12.8949
  0
LINE
  8
0
 10
146.805
 20
12.8949
 11
146.317
 21
13.2573
  0
LINE
  8
0
 10
146.317
 20
13.2573
 11
145.866
 21
13.6659
  0
LINE
  8
0
 10
145.866
 20
13.6659
 11
145.457
 21
14.1168
  0
LINE
  8
0
 10
145.457
 20
14.1168
 11
145.095
 21
14.6055
  0
LINE
  8
0
 10
145.095
 20
14.6055
 11
144.782
 21
15.1273
  0
LINE
  8
0
 10
144.782
 20
15.1273
 11
144.522
 21
15.6774
  0
LINE
  8
0
 10
144.522
 20
15.6774
 11
144.317
 21
16.2502
  0
LINE
  8
0
 10
144.317
 20
16.2502
 11
144.169
 21
16.8404
  0
LINE
  8
0
 10
144.169
 20
16.8404
 11
144.08
 21
17.4423
  0
LINE
  8
0
 10
144.08
 20
17.4423
 11
144.05
 21
18.05
  0
LINE
  8
0
 10
169.3
 20
71.25
 11
169.426
 21
73.818
  0
LINE
  8
0
 10
169.426
 20
73.818
 11
169.803
 21
76.3614
  0
LINE
  8
0
 10
169.803
 20
76.3614
 11
170.428
 21
78.8555
  0
LINE
  8
0
 10
170.428
 20
78.8555
 11
171.294
 21
81.2763
  0
LINE
  8
0
 10
171.294
 20
81.2763
 11
172.394
 21
83.6006
  0
LINE
  8
0
 10
172.394
 20
83.6006
 11
173.715
 21
85.8059
  0
LINE
  8
0
 10
173.715
 20
85.8059
 11
175.247
 21
87.8711
  0
LINE
  8
0
 10
175.247
 20
87.8711
 11
176.974
 21
89.7762
  0
LINE
  8
0
 10
176.974
 20
89.7762
 11
178.879
 21
91.5029
  0
LINE
  8
0
 10
178.879
 20
91.5029
 11
180.944
 21
93.0345
  0
LINE
  8
0
 10
180.944
 20
93.0345
 11
183.149
 21
94.3563
  0
LINE
  8
0
 10
183.149
 20
94.3563
 11
185.474
 21
95.4556
  0
LINE
  8
0
 10
185.474
 20
95.4556
 11
187.895
 21
96.3218
  0
LINE
  8
0
 10
187.895
 20
96.3218
 11
190.389
 21
96.9466
  0
LINE
  8
0
 10
190.389
 20
96.9466
 11
192.932
 21
97.3238
  0
LINE
  8
0
 10
192.932
 20
97.3238
 11
195.5
 21
97.45
  0
LINE
  8
0
 10
195.5
 20
97.45
 11
198.068
 21
97.3238
  0
LINE
  8
0
 10
198.068
 20
97.3238
 11
200.611
 21
96.9466
  0
LINE
  8
0
 10
200.611
 20
96.9466
 11
203.105
 21
96.3218
  0
LINE
  8
0
 10
203.105
 20
96.3218
 11
205.526
 21
95.4556
  0
LINE
  8
0
 10
205.526
 20
95.4556
 11
207.851
 21
94.3563
  0
LINE
  8
0
 10
207.851
 20
94.3563
 11
210.056
 21
93.0345
  0
LINE
  8
0
 10
210.056
 20
93.0345
 11
212.121
 21
91.5029
  0
LINE
  8
0
 10
212.121
 20
91.5029
 11
214.026
 21
89.7762
  0
LINE
  8
0
 10
214.026
 20
89.7762
 11
215.753
 21
87.8711
  0
LINE
  8
0
 10
215.753
 20
87.8711
 11
217.285
 21
85.8059
  0
LINE
  8
0
 10
217.285
 20
85.8059
 11
218.606
 21
83.6006
  0
LINE
  8
0
 10
218.606
 20
83.6006
 11
219.706
 21
81.2763
  0
LINE
  8
0
 10
219.706
 20
81.2763
 11
220.572
 21
78.8555
  0
LINE
  8
0
 10
220.572
 20
78.8555
 11
221.197
 21
76.3614
  0
LINE
  8
0
 10
221.197
 20
76.3614
 11
221.574
 21
73.818
  0
LINE
  8
0
 10
221.574
 20
73.818
 11
221.7
 21
71.25
  0
LINE
  8
0
 10
221.7
 20
71.25
 11
221.574
 21
68.682
  0
LINE
  8
0
 10
221.574
 20
68.682
 11
221.197
 21
66.1386
  0
LINE
  8
0
 10
221.197
 20
66.1386
 11
220.572
 21
63.6445
  0
LINE
  8
0
 10
220.572
 20
63.6445
 11
219.706
 21
61.2237
  0
LINE
  8
0
 10
219.706
 20
61.2237
 11
218.606
 21
58.8994
  0
LINE
  8
0
 10
218.606
 20
58.8994
 11
217.285
 21
56.6941
  0
LINE
  8
0
 10
217.285
 20
56.6941
 11
215.753
 21
54.6289
  0
LINE
  8
0
 10
215.753
 20
54.6289
 11
214.026
 21
52.7238
  0
LINE
  8
0
 10
214.026
 20
52.7238
 11
212.121
 21
50.9971
  0
LINE
  8
0
 10
212.121
 20
50.9971
 11
210.056
 21
49.4655
  0
LINE
  8
0
 10
210.056
 20
49.4655
 11
207.851
 21
48.1437
  0
LINE
  8
0
 10
207.851
 20
48.1437
 11
205.526
 21
47.0444
  0
LINE
  8
0
 10
205.526
 20
47.0444
 11
203.105
 21
46.1782
  0
LINE
  8
0
 10
203.105
 20
46.1782
 11
200.611
 21
45.5534
  0
LINE
  8
0
 10
200.611
 20
45.5534
 11
198.068
 21
45.1762
  0
LINE
  8
0
 10
198.068
 20
45.1762
 11
195.5
 21
45.05
  0
LINE
  8
0
 10
195.5
 20
45.05
 11
192.932
 21
45.1762
  0
LINE
  8
0
 10
192.932
 20
45.1762
 11
190.389
 21
45.5534
  0
LINE
  8
0
 10
190.389
 20
45.5534
 11
187.895
 21
46.1782
  0
LINE
  8
0
 10
187.895
 20
46.1782
 11
185.474
 21
47.0444
  0
LINE
  8
0
 10
185.474
 20
47.0444
 11
183.149
 21
48.1437
  0
LINE
  8
0
 10
183.149
 20
48.1437
 11
180.944
 21
49.4655
  0
LINE
  8
0
 10
180.944
 20
49.4655
 11
178.879
 21
50.9971
  0
LINE
  8
0
 10
178.879
 20
50.9971
 11
176.974
 21
52.7238
  0
LINE
  8
0
 10
176.974
 20
52.7238
 11
175.247
 21
54.6289
  0
LINE
  8
0
 10
175.247
 20
54.6289
 11
173.715
 21
56.6941
  0
LINE
  8
0
 10
173.715
 20
56.6941
 11
172.394
 21
58.8994
  0
LINE
  8
0
 10
172.394
 20
58.8994
 11
171.294
 21
61.2237
  0
LINE
  8
0
 10
171.294
 20
61.2237
 11
170.428
 21
63.6445
  0
LINE
  8
0
 10
170.428
 20
63.6445
 11
169.803
 21
66.1386
  0
LINE
  8
0
 10
169.803
 20
66.1386
 11
169.426
 21
68.682
  0
LINE
  8
0
 10
169.426
 20
68.682
 11
169.3
 21
71.25
  0
LINE
  8
0
 10
174.3
 20
18.05
 11
174.33
 21
18.6577
  0
LINE
  8
0
 10
174.33
 20
18.6577
 11
174.419
 21
19.2596
  0
LINE
  8
0
 10
174.419
 20
19.2596
 11
174.567
 21
19.8498
  0
LINE
  8
0
 10
174.567
 20
19.8498
 11
174.772
 21
20.4226
  0
LINE
  8
0
 10
174.772
 20
20.4226
 11
175.032
 21
20.9727
  0
LINE
  8
0
 10
175.032
 20
20.9727
 11
175.345
 21
21.4945
  0
LINE
  8
0
 10
175.345
 20
21.4945
 11
175.707
 21
21.9832
  0
LINE
  8
0
 10
175.707
 20
21.9832
 11
176.116
 21
22.4341
  0
LINE
  8
0
 10
176.116
 20
22.4341
 11
176.567
 21
22.8427
  0
LINE
  8
0
 10
176.567
 20
22.8427
 11
177.055
 21
23.2051
  0
LINE
  8
0
 10
177.055
 20
23.2051
 11
177.577
 21
23.5179
  0
LINE
  8
0
 10
177.577
 20
23.5179
 11
178.127
 21
23.7781
  0
LINE
  8
0
 10
178.127
 20
23.7781
 11
178.7
 21
23.983
  0
LINE
  8
0
 10
178.7
 20
23.983
 11
179.29
 21
24.1309
  0
LINE
  8
0
 10
179.29
 20
24.1309
 11
179.892
 21
24.2201
  0
LINE
  8
0
 10
179.892
 20
24.2201
 11
180.5
 21
24.25
  0
LINE
  8
0
 10
180.5
 20
24.25
 11
181.108
 21
24.2201
  0
LINE
  8
0
 10
181.108
 20
24.2201
 11
181.71
 21
24.1309
  0
LINE
  8
0
 10
181.71
 20
24.1309
 11
182.3
 21
23.983
  0
LINE
  8
0
 10
182.3
 20
23.983
 11
182.873
 21
23.7781
  0
LINE
  8
0
 10
182.873
 20
23.7781
 11
183.423
 21
23.5179
  0
LINE
  8
0
 10
183.423
 20
23.5179
 11
183.945
 21
23.2051
  0
LINE
  8
0
 10
183.945
 20
23.2051
 11
184.433
 21
22.8427
  0
LINE
  8
0
 10
184.433
 20
22.8427
 11
184.884
 21
22.4341
  0
LINE
  8
0
 10
184.884
 20
22.4341
 11
185.293
 21
21.9832
  0
LINE
  8
0
 10
185.293
 20
21.9832
 11
185.655
 21
21.4945
  0
LINE
  8
0
 10
185.655
 20
21.4945
 11
185.968
 21
20.9727
  0
LINE
  8
0
 10
185.968
 20
20.9727
 11
186.228
 21
20.4226
  0
LINE
  8
0
 10
186.228
 20
20.4226
 11
186.433
 21
19.8498
  0
LINE
  8
0
 10
186.433
 20
19.8498
 11
186.581
 21
19.2596
  0
LINE
  8
0
 10
186.581
 20
19.2596
 11
186.67
 21
18.6577
  0
LINE
  8
0
 10
186.67
 20
18.6577
 11
186.7
 21
18.05
  0
LINE
  8
0
 10
186.7
 20
18.05
 11
186.67
 21
17.4423
  0
LINE
  8
0
 10
186.67
 20
17.4423
 11
186.581
 21
16.8404
  0
LINE
  8
0
 10
186.581
 20
16.8404
 11
186.433
 21
16.2502
  0
LINE
  8
0
 10
186.433
 20
16.2502
 11
186.228
 21
15.6774
  0
LINE
  8
0
 10
186.228
 20
15.6774
 11
185.968
 21
15.1273
  0
LINE
  8
0
 10
185.968
 20
15.1273
 11
185.655
 21
14.6055
  0
LINE
  8
0
 10
185.655
 20
14.6055
 11
185.293
 21
14.1168
  0
LINE
  8
0
 10
185.293
 20
14.1168
 11
184.884
 21
13.6659
  0
LINE
  8
0
 10
184.884
 20
13.6659
 11
184.433
 21
13.2573
  0
LINE
  8
0
 10
184.433
 20
13.2573
 11
183.945
 21
12.8949
  0
LINE
  8
0
 10
183.945
 20
12.8949
 11
183.423
 21
12.5821
  0
LINE
  8
0
 10
183.423
 20
12.5821
 11
182.873
 21
12.3219
  0
LINE
  8
0
 10
182.873
 20
12.3219
 11
182.3
 21
12.117
  0
LINE
  8
0
 10
182.3
 20
12.117
 11
181.71
 21
11.9691
  0
LINE
  8
0
 10
181.71
 20
11.9691
 11
181.108
 21
11.8799
  0
LINE
  8
0
 10
181.108
 20
11.8799
 11
180.5
 21
11.85
  0
LINE
  8
0
 10
180.5
 20
11.85
 11
179.892
 21
11.8799
  0
LINE
  8
0
 10
179.892
 20
11.8799
 11
179.29
 21
11.9691
  0
LINE
  8
0
 10
179.29
 20
11.9691
 11
178.7
 21
12.117
  0
LINE
  8
0
 10
178.7
 20
12.117
 11
178.127
 21
12.3219
  0
LINE
  8
0
 10
178.127
 20
12.3219
 11
177.577
 21
12.5821
  0
LINE
  8
0
 10
177.577
 20
12.5821
 11
177.055
 21
12.8949
  0
LINE
  8
0
 10
177.055
 20
12.8949
 11
176.567
 21
13.2573
  0
LINE
  8
0
 10
176.567
 20
13.2573
 11
176.116
 21
13.6659
  0
LINE
  8
0
 10
176.116
 20
13.6659
 11
175.707
 21
14.1168
  0
LINE
  8
0
 10
175.707
 20
14.1168
 11
175.345
 21
14.6055
  0
LINE
  8
0
 10
175.345
 20
14.6055
 11
175.032
 21
15.1273
  0
LINE
  8
0
 10
175.032
 20
15.1273
 11
174.772
 21
15.6774
  0
LINE
  8
0
 10
174.772
 20
15.6774
 11
174.567
 21
16.2502
  0
LINE
  8
0
 10
174.567
 20
16.2502
 11
174.419
 21
16.8404
  0
LINE
  8
0
 10
174.419
 20
16.8404
 11
174.33
 21
17.4423
  0
LINE
  8
0
 10
174.33
 20
17.4423
 11
174.3
 21
18.05
  0
LINE
  8
0
 10
195.92
 20
29.6
 11
195.967
 21
30.5606
  0
LINE
  8
0
 10
195.967
 20
30.5606
 11
196.108
 21
31.5119
  0
LINE
  8
0
 10
196.108
 20
31.5119
 11
196.342
 21
32.4448
  0
LINE
  8
0
 10
196.342
 20
32.4448
 11
196.666
 21
33.3503
  0
LINE
  8
0
 10
196.666
 20
33.3503
 11
197.077
 21
34.2197
  0
LINE
  8
0
 10
197.077
 20
34.2197
 11
197.572
 21
35.0446
  0
LINE
  8
0
 10
197.572
 20
35.0446
 11
198.144
 21
35.8171
  0
LINE
  8
0
 10
198.144
 20
35.8171
 11
198.79
 21
36.5296
  0
LINE
  8
0
 10
198.79
 20
36.5296
 11
199.503
 21
37.1755
  0
LINE
  8
0
 10
199.503
 20
37.1755
 11
200.275
 21
37.7484
  0
LINE
  8
0
 10
200.275
 20
37.7484
 11
201.1
 21
38.2428
  0
LINE
  8
0
 10
201.1
 20
38.2428
 11
201.97
 21
38.654
  0
LINE
  8
0
 10
201.97
 20
38.654
 11
202.875
 21
38.978
  0
LINE
  8
0
 10
202.875
 20
38.978
 11
203.808
 21
39.2117
  0
LINE
  8
0
 10
203.808
 20
39.2117
 11
204.759
 21
39.3528
  0
LINE
  8
0
 10
204.759
 20
39.3528
 11
205.72
 21
39.4
  0
LINE
  8
0
 10
205.72
 20
39.4
 11
206.681
 21
39.3528
  0
LINE
  8
0
 10
206.681
 20
39.3528
 11
207.632
 21
39.2117
  0
LINE
  8
0
 10
207.632
 20
39.2117
 11
208.565
 21
38.978
  0
LINE
  8
0
 10
208.565
 20
38.978
 11
209.47
 21
38.654
  0
LINE
  8
0
 10
209.47
 20
38.654
 11
210.34
 21
38.2428
  0
LINE
  8
0
 10
210.34
 20
38.2428
 11
211.165
 21
37.7484
  0
LINE
  8
0
 10
211.165
 20
37.7484
 11
211.937
 21
37.1755
  0
LINE
  8
0
 10
211.937
 20
37.1755
 11
212.65
 21
36.5296
  0
LINE
  8
0
 10
212.65
 20
36.5296
 11
213.296
 21
35.8171
  0
LINE
  8
0
 10
213.296
 20
35.8171
 11
213.868
 21
35.0446
  0
LINE
  8
0
 10
213.868
 20
35.0446
 11
214.363
 21
34.2197
  0
LINE
  8
0
 10
214.363
 20
34.2197
 11
214.774
 21
33.3503
  0
LINE
  8
0
 10
214.774
 20
33.3503
 11
215.098
 21
32.4448
  0
LINE
  8
0
 10
215.098
 20
32.4448
 11
215.332
 21
31.5119
  0
LINE
  8
0
 10
215.332
 20
31.5119
 11
215.473
 21
30.5606
  0
LINE
  8
0
 10
215.473
 20
30.5606
 11
215.52
 21
29.6
  0
LINE
  8
0
 10
215.52
 20
29.6
 11
215.473
 21
28.6394
  0
LINE
  8
0
 10
215.473
 20
28.6394
 11
215.332
 21
27.6881
  0
LINE
  8
0
 10
215.332
 20
27.6881
 11
215.098
 21
26.7552
  0
LINE
  8
0
 10
215.098
 20
26.7552
 11
214.774
 21
25.8497
  0
LINE
  8
0
 10
214.774
 20
25.8497
 11
214.363
 21
24.9803
  0
LINE
  8
0
 10
214.363
 20
24.9803
 11
213.868
 21
24.1554
  0
LINE
  8
0
 10
213.868
 20
24.1554
 11
213.296
 21
23.3829
  0
LINE
  8
0
 10
213.296
 20
23.3829
 11
212.65
 21
22.6704
  0
LINE
  8
0
 10
212.65
 20
22.6704
 11
211.937
 21
22.0245
  0
LINE
  8
0
 10
211.937
 20
22.0245
 11
211.165
 21
21.4516
  0
LINE
  8
0
 10
211.165
 20
21.4516
 11
210.34
 21
20.9572
  0
LINE
  8
0
 10
210.34
 20
20.9572
 11
209.47
 21
20.546
  0
LINE
  8
0
 10
209.47
 20
20.546
 11
208.565
 21
20.222
  0
LINE
  8
0
 10
208.565
 20
20.222
 11
207.632
 21
19.9883
  0
LINE
  8
0
 10
207.632
 20
19.9883
 11
206.681
 21
19.8472
  0
LINE
  8
0
 10
206.681
 20
19.8472
 11
205.72
 21
19.8
  0
LINE
  8
0
 10
205.72
 20
19.8
 11
204.759
 21
19.8472
  0
LINE
  8
0
 10
204.759
 20
19.8472
 11
203.808
 21
19.9883
  0
LINE
  8
0
 10
203.808
 20
19.9883
 11
202.875
 21
20.222
  0
LINE
  8
0
 10
202.875
 20
20.222
 11
201.97
 21
20.546
  0
LINE
  8
0
 10
201.97
 20
20.546
 11
201.1
 21
20.9572
  0
LINE
  8
0
 10
201.1
 20
20.9572
 11
200.275
 21
21.4516
  0
LINE
  8
0
 10
200.275
 20
21.4516
 11
199.503
 21
22.0245
  0
LINE
  8
0
 10
199.503
 20
22.0245
 11
198.79
 21
22.6704
  0
LINE
  8
0
 10
198.79
 20
22.6704
 11
198.144
 21
23.3829
  0
LINE
  8
0
 10
198.144
 20
23.3829
 11
197.572
 21
24.1554
  0
LINE
  8
0
 10
197.572
 20
24.1554
 11
197.077
 21
24.9803
  0
LINE
  8
0
 10
197.077
 20
24.9803
 11
196.666
 21
25.8497
  0
LINE
  8
0
 10
196.666
 20
25.8497
 11
196.342
 21
26.7552
  0
LINE
  8
0
 10
196.342
 20
26.7552
 11
196.108
 21
27.6881
  0
LINE
  8
0
 10
196.108
 20
27.6881
 11
195.967
 21
28.6394
  0
LINE
  8
0
 10
195.967
 20
28.6394
 11
195.92
 21
29.6
  0
ENDSEC
  0
SECTION
  2
OBJECTS
  0
DICTIONARY
  0
ENDSEC
  0
EOF
