<?xml version="1.0" standalone="no"?>
<!DOCTYPE svg PUBLIC "-//W3C//DTD SVG 20010904//EN"
 "http://www.w3.org/TR/2001/REC-SVG-20010904/DTD/svg10.dtd">
<svg version="1.0" xmlns="http://www.w3.org/2000/svg"
 width="782.000000pt" height="722.000000pt" viewBox="0 0 782.000000 722.000000"
 preserveAspectRatio="xMidYMid meet">

<g transform="translate(0.000000,722.000000) scale(0.100000,-0.100000)"
fill="#000000" stroke="none">
<path d="M2735 6454 c-38 -10 -108 -45 -143 -72 -34 -27 -132 -164 -132 -186
0 -9 32 -11 118 -9 116 4 118 4 182 -30 69 -35 121 -92 161 -176 29 -62 75
-207 83 -263 4 -26 11 -50 16 -53 6 -3 44 10 85 30 244 116 357 157 537 199
20 5 34 21 60 72 33 66 102 148 148 177 54 34 122 49 194 44 39 -3 81 -8 94
-12 35 -12 28 25 -18 99 -46 72 -105 126 -177 158 -40 18 -65 22 -153 22 -100
-1 -108 -3 -175 -37 -101 -51 -158 -99 -255 -215 l-45 -53 -24 28 c-95 113
-123 140 -185 182 -95 64 -172 91 -271 96 -44 2 -89 2 -100 -1z"/>
<path d="M5861 6424 c-114 -42 -226 -113 -321 -202 -50 -46 -92 -83 -94 -81
-2 2 -11 18 -19 35 -25 49 -135 151 -194 180 -115 57 -255 54 -361 -6 -49 -29
-146 -135 -137 -151 3 -3 43 -8 89 -11 80 -4 87 -6 131 -43 63 -51 85 -89 85
-148 0 -53 -15 -88 -92 -211 -74 -118 -327 -457 -598 -802 -47 -60 -109 -140
-139 -179 -30 -38 -80 -101 -111 -140 -70 -87 -165 -210 -329 -430 -187 -250
-221 -298 -221 -311 0 -16 -28 -26 -36 -13 -16 26 16 1215 38 1398 5 43 -1 42
-152 -27 -46 -21 -211 -115 -274 -155 l-49 -31 8 -315 c4 -174 9 -332 11 -351
2 -19 3 -350 4 -735 1 -1639 -47 -2238 -206 -2571 -45 -94 -101 -156 -172
-190 -52 -25 -67 -28 -165 -27 -124 1 -120 6 -57 -87 46 -68 128 -135 197
-163 26 -11 85 -21 129 -24 174 -12 318 68 431 238 25 38 51 69 57 69 7 0 20
-14 30 -32 11 -17 53 -67 93 -109 109 -114 225 -169 359 -169 111 0 239 58
309 142 33 40 77 125 67 132 -4 2 -55 4 -112 3 -97 -1 -109 1 -163 28 -141 70
-232 243 -295 560 -54 270 -78 624 -88 1293 -6 402 -5 472 7 471 16 -1 68 -62
383 -454 214 -268 391 -496 541 -699 33 -45 91 -122 130 -172 38 -51 93 -124
120 -163 28 -38 58 -70 67 -71 54 -1 358 201 358 237 0 9 -31 52 -68 97 -135
161 -384 465 -457 556 -33 41 -69 86 -81 100 -12 14 -76 89 -142 168 -138 164
-216 253 -287 332 -27 30 -70 77 -95 104 -25 28 -94 101 -155 164 -60 62 -111
117 -113 122 -9 25 615 790 833 1020 120 128 402 431 450 484 71 79 119 132
169 186 34 36 117 126 186 200 196 213 377 389 475 462 214 161 414 216 619
173 38 -8 72 -13 74 -10 3 3 -12 38 -32 79 -43 85 -121 169 -193 208 -127 69
-321 88 -442 42z"/>
<path d="M2217 6036 c-36 -16 -97 -74 -97 -92 0 -9 11 -14 32 -14 18 0 45 -11
65 -26 87 -66 70 -173 -35 -221 -45 -20 -248 -22 -307 -3 -20 7 -81 12 -135
13 -81 0 -109 -4 -157 -23 -170 -69 -280 -187 -328 -355 -24 -82 -24 -252 -1
-320 54 -155 207 -286 402 -344 124 -36 310 -27 454 24 24 8 45 14 47 12 5 -5
4 -2289 -1 -2294 -2 -3 -26 3 -52 12 -66 22 -197 45 -264 45 -127 0 -305 -58
-408 -134 -153 -114 -211 -243 -195 -441 16 -209 115 -357 298 -446 104 -50
196 -60 326 -35 186 35 336 16 387 -49 54 -68 -5 -195 -90 -195 -49 0 -50 -18
-2 -60 45 -39 74 -50 127 -49 57 0 118 27 167 72 56 51 80 107 80 187 0 148
-95 253 -293 324 l-62 22 -1 56 c-2 112 -52 186 -166 244 -52 27 -146 39 -163
22 -4 -4 7 -28 24 -54 34 -52 39 -90 17 -132 -53 -102 -185 -118 -272 -34 -84
82 -88 202 -11 304 80 104 212 125 402 63 217 -71 315 -124 675 -365 132 -88
244 -160 248 -160 5 0 14 42 21 93 7 50 16 119 22 153 17 111 23 100 -132 236
-78 67 -157 137 -175 153 l-35 30 0 1285 0 1285 28 24 c15 13 55 49 88 80 83
79 193 167 302 239 51 34 94 62 97 62 2 0 33 17 67 38 183 110 420 200 644
246 261 54 576 54 788 1 20 -6 34 8 116 116 102 133 116 159 83 159 -12 0 -31
4 -44 9 -39 15 -122 32 -175 35 -29 2 -55 6 -60 9 -24 14 -303 29 -435 23
-560 -25 -954 -173 -1587 -595 -358 -239 -435 -284 -557 -320 -172 -51 -325
-15 -400 94 -34 50 -48 114 -34 166 36 132 105 183 225 164 83 -12 139 -86
121 -158 -3 -13 -17 -40 -31 -61 -33 -49 -25 -60 40 -52 162 19 277 142 266
287 -3 39 9 53 54 63 52 13 164 74 206 113 62 57 91 113 97 188 10 126 -39
210 -153 265 -66 32 -112 36 -158 16z"/>
<path d="M5450 5451 c-8 -10 -62 -69 -120 -131 -58 -61 -107 -116 -109 -122
-2 -5 23 -38 56 -72 252 -260 423 -618 494 -1031 27 -156 17 -140 81 -141 82
-2 120 -11 158 -39 47 -34 68 -76 72 -137 l3 -52 46 2 c92 6 189 -68 205 -155
8 -41 -10 -106 -39 -147 -29 -41 -90 -66 -166 -66 l-63 0 4 -32 c10 -66 -29
-127 -112 -176 -35 -21 -57 -26 -109 -27 l-64 0 -18 -100 c-59 -346 -183 -662
-352 -895 -59 -82 -271 -287 -366 -354 -129 -92 -295 -172 -431 -207 -213 -55
-623 -53 -874 5 -86 20 -86 23 -41 -164 32 -132 39 -148 72 -155 15 -4 37 -8
48 -11 113 -28 448 -42 578 -24 40 5 108 15 152 21 44 6 94 14 110 19 17 4 57
13 90 20 218 46 339 95 569 232 238 142 342 224 511 400 320 334 527 714 673
1238 46 165 66 255 76 346 11 90 -41 313 -124 534 -18 47 -41 109 -52 139 -48
133 -159 374 -227 494 -11 20 -31 54 -42 74 -117 206 -378 513 -578 679 -70
58 -88 64 -111 35z"/>
<path d="M5355 1436 c-77 -45 -175 -97 -217 -116 -43 -18 -78 -38 -78 -42 0
-5 7 -22 15 -37 50 -99 60 -209 22 -276 -33 -60 -108 -95 -204 -95 -53 0 -73
-4 -73 -13 0 -21 107 -123 153 -145 84 -40 112 -47 197 -46 68 0 95 5 133 23
61 30 131 93 182 165 22 30 46 56 53 56 8 0 39 -22 70 -49 129 -111 248 -189
327 -213 77 -24 144 -37 191 -38 104 0 272 60 345 123 78 69 164 206 142 228
-7 7 -17 8 -29 1 -57 -29 -257 -21 -360 14 -182 62 -309 151 -540 377 -94 92
-175 167 -180 166 -5 -1 -72 -38 -149 -83z"/>
</g>
</svg>
