<?xml version="1.0" standalone="no"?>
<!DOCTYPE svg PUBLIC "-//W3C//DTD SVG 20010904//EN"
 "http://www.w3.org/TR/2001/REC-SVG-20010904/DTD/svg10.dtd">
<svg version="1.0" xmlns="http://www.w3.org/2000/svg"
 width="420.000000pt" height="363.000000pt" viewBox="0 0 420.000000 363.000000"
 preserveAspectRatio="xMidYMid meet">

<g transform="translate(0.000000,363.000000) scale(0.100000,-0.100000)"
fill="#000000" stroke="none">
<path d="M500 3466 c-27 -14 -58 -42 -77 -71 -29 -42 -33 -55 -33 -115 l0 -67
-71 -5 c-59 -5 -76 -10 -107 -35 -57 -46 -82 -97 -82 -168 0 -75 27 -127 88
-170 40 -27 51 -30 122 -30 73 0 80 2 119 33 23 19 46 32 50 30 9 -3 145 -128
350 -323 l106 -99 8 34 c15 61 59 184 84 232 12 26 23 54 23 61 0 8 -53 63
-117 123 -65 60 -145 134 -177 165 l-59 57 23 23 c34 36 50 82 50 148 0 50 -5
66 -32 106 -42 61 -104 95 -173 95 -33 0 -65 -8 -95 -24z"/>
<path d="M3514 3462 c-52 -29 -71 -46 -93 -83 -44 -74 -37 -166 17 -238 l26
-34 -85 -81 c-47 -45 -125 -118 -174 -162 l-89 -82 41 -88 c23 -49 51 -122 63
-161 15 -49 26 -71 33 -66 7 4 37 30 67 58 30 28 96 89 145 135 50 46 118 110
151 142 34 32 66 58 72 58 5 0 15 -7 23 -16 43 -52 172 -74 235 -41 76 40 116
105 118 187 1 74 -24 126 -81 170 -40 30 -55 35 -115 38 l-68 4 6 48 c12 89
-36 171 -121 211 -50 23 -130 24 -171 1z"/>
<path d="M1890 3285 c-95 -18 -238 -67 -310 -107 -131 -73 -265 -192 -354
-315 -39 -53 -96 -153 -96 -168 0 -3 43 -5 95 -5 l94 0 46 71 c56 86 132 169
155 169 38 0 30 -31 -23 -89 -68 -76 -107 -129 -107 -146 0 -3 29 -5 64 -5
l64 0 40 68 c22 37 50 76 61 86 20 18 23 18 37 4 15 -14 13 -21 -25 -76 -23
-34 -41 -66 -41 -71 0 -6 20 -11 44 -11 46 0 55 7 109 84 37 54 73 19 38 -37
-12 -19 -21 -37 -21 -41 0 -3 171 -6 380 -6 355 0 380 1 380 18 -1 9 -7 28
-15 42 -22 38 -19 70 5 70 15 0 28 -14 45 -52 14 -29 25 -59 25 -65 0 -10 25
-13 90 -13 62 0 90 4 90 12 0 19 -50 100 -83 136 -28 29 -30 34 -15 48 12 12
20 14 36 5 24 -13 96 -118 113 -166 l13 -35 128 0 128 0 -24 48 c-76 148 -227
310 -379 406 -76 49 -194 98 -298 126 -108 29 -373 37 -489 15z"/>
<path d="M1077 2601 c-20 -49 -57 -193 -57 -220 l0 -21 1080 0 1080 0 0 34 c0
55 -19 136 -45 193 l-24 53 -1009 0 -1010 0 -15 -39z"/>
<path d="M482 2280 c-17 -27 -15 -75 4 -94 14 -14 176 -16 1633 -16 1555 0
1619 1 1634 18 22 25 21 75 -1 95 -17 16 -145 17 -1638 17 -1605 0 -1619 0
-1632 -20z"/>
<path d="M1030 2093 c1 -10 7 -43 14 -73 70 -287 235 -533 451 -673 316 -203
829 -214 1165 -24 183 103 327 262 425 470 44 94 95 250 95 293 l0 24 -1075 0
c-1017 0 -1075 -1 -1075 -17z m750 -72 c104 -46 178 -145 187 -251 5 -48 1
-67 -20 -113 -70 -152 -223 -228 -359 -177 -74 27 -158 115 -184 192 -54 160
36 326 201 371 36 10 130 -2 175 -22z m885 -10 c105 -49 158 -133 158 -247 -1
-167 -117 -294 -268 -294 -122 0 -220 52 -272 145 -25 45 -28 59 -28 145 0 88
2 99 29 140 84 132 241 178 381 111z m-491 -562 c42 -33 50 -65 26 -99 -31
-43 -81 -56 -136 -35 -47 18 -64 39 -64 78 0 23 31 59 60 70 35 13 88 6 114
-14z"/>
<path d="M1511 1213 c-10 -21 -25 -57 -32 -81 -11 -39 -11 -44 7 -58 34 -28
226 -116 234 -107 6 6 40 174 40 195 0 3 -19 11 -42 18 -24 6 -72 25 -107 41
-35 16 -68 29 -72 29 -5 0 -17 -17 -28 -37z"/>
<path d="M2595 1223 c-16 -9 -64 -27 -105 -39 -41 -12 -75 -26 -75 -30 1 -47
31 -197 41 -201 15 -6 216 72 245 96 l21 17 -25 70 c-38 104 -38 104 -56 104
-9 -1 -29 -8 -46 -17z"/>
<path d="M2725 1223 c56 -132 85 -262 92 -406 l6 -108 138 -130 138 -131 -29
-40 c-74 -101 -37 -254 74 -307 80 -39 173 -24 239 38 46 42 61 79 61 152 l0
66 59 1 c104 2 178 62 199 164 16 78 -2 131 -62 190 -53 51 -104 66 -182 54
-40 -7 -95 -38 -111 -63 -14 -22 -28 -15 -96 50 -36 34 -138 130 -226 212 -88
83 -190 178 -226 213 -67 63 -87 75 -74 45z"/>
<path d="M1358 1152 c-45 -43 -177 -165 -292 -271 l-208 -193 -32 31 c-92 89
-248 72 -316 -35 -56 -89 -47 -185 24 -259 44 -46 92 -65 164 -65 l43 0 -6
-44 c-24 -157 145 -283 290 -217 49 22 99 77 115 126 17 51 5 135 -26 180 -13
20 -24 40 -24 44 0 7 237 236 260 251 4 3 11 50 14 105 11 158 37 296 72 382
8 19 13 37 11 40 -3 2 -43 -31 -89 -75z"/>
<path d="M1807 1134 c-12 -44 -30 -184 -24 -190 12 -13 124 -34 210 -40 l87
-7 0 110 0 109 -107 13 c-59 7 -119 15 -134 18 -21 4 -28 1 -32 -13z"/>
<path d="M2305 1140 c-22 -4 -70 -11 -107 -15 l-68 -7 0 -109 0 -109 58 0 c60
1 187 22 199 34 10 10 -20 209 -32 212 -5 1 -28 -2 -50 -6z"/>
<path d="M1447 1008 c-4 -13 -9 -53 -13 -89 l-6 -66 43 -30 c65 -45 207 -114
213 -104 6 10 25 135 26 167 0 16 -14 27 -60 47 -33 15 -62 27 -64 27 -2 0
-32 16 -66 35 -34 19 -63 35 -65 35 -2 0 -5 -10 -8 -22z"/>
<path d="M2690 985 c-14 -8 -71 -31 -127 -51 -117 -42 -111 -31 -92 -159 9
-60 15 -75 28 -75 21 0 192 82 234 112 28 20 29 23 23 82 -13 113 -17 119 -66
91z"/>
<path d="M1766 868 c-17 -79 -27 -171 -20 -178 16 -16 179 -52 257 -57 l78 -6
-3 109 -3 109 -80 7 c-44 3 -111 13 -148 22 -38 9 -70 16 -72 16 -3 0 -7 -10
-9 -22z"/>
<path d="M2290 865 c-36 -7 -86 -13 -112 -14 l-48 -1 0 -110 0 -110 53 0 c45
0 234 34 244 44 2 1 -2 49 -8 104 -14 117 -4 111 -129 87z"/>
<path d="M1423 703 c23 -334 212 -543 532 -589 79 -11 268 -5 352 11 268 51
438 256 460 553 l6 83 -89 -44 c-397 -200 -838 -188 -1199 33 l-68 42 6 -89z"/>
</g>
</svg>
