<?xml version="1.0" encoding="UTF-8" standalone="no"?>
<!-- Generator: Adobe Illustrator 20.0.0, SVG Export Plug-In . SVG Version: 6.00 Build 0)  -->

<svg
   xmlns:dc="http://purl.org/dc/elements/1.1/"
   xmlns:cc="http://creativecommons.org/ns#"
   xmlns:rdf="http://www.w3.org/1999/02/22-rdf-syntax-ns#"
   xmlns:svg="http://www.w3.org/2000/svg"
   xmlns="http://www.w3.org/2000/svg"
   xmlns:sodipodi="http://sodipodi.sourceforge.net/DTD/sodipodi-0.dtd"
   xmlns:inkscape="http://www.inkscape.org/namespaces/inkscape"
   version="1.1"
   x="0px"
   y="0px"
   viewBox="0 0 595.3 841.9"
   style="enable-background:new 0 0 595.3 841.9;"
   xml:space="preserve"
   id="svg58"
   sodipodi:docname="Zelda_GODDESS _vector patterns-01_bracer.svg"
   inkscape:version="0.92.5 (2060ec1f9f, 2020-04-08)"><metadata
   id="metadata64"><rdf:RDF><cc:Work
       rdf:about=""><dc:format>image/svg+xml</dc:format><dc:type
         rdf:resource="http://purl.org/dc/dcmitype/StillImage" /><dc:title></dc:title></cc:Work></rdf:RDF></metadata><defs
   id="defs62">
	
	
</defs><sodipodi:namedview
   pagecolor="#ffffff"
   bordercolor="#666666"
   borderopacity="1"
   objecttolerance="10"
   gridtolerance="10"
   guidetolerance="10"
   inkscape:pageopacity="0"
   inkscape:pageshadow="2"
   inkscape:window-width="1837"
   inkscape:window-height="829"
   id="namedview60"
   showgrid="false"
   inkscape:zoom="1.1212733"
   inkscape:cx="143.12342"
   inkscape:cy="291.74071"
   inkscape:window-x="72"
   inkscape:window-y="1107"
   inkscape:window-maximized="0"
   inkscape:current-layer="svg58" />
<style
   type="text/css"
   id="style2">
	.st0{fill:#E56742;}
	.st1{opacity:0.52;}
	.st2{fill:#C9CDD3;}
	.st3{fill:#444C4C;}
</style>
<path
   style="fill:#e56742"
   inkscape:connector-curvature="0"
   id="path6"
   d="M 555.3,392.9 C 503.3,386.8 451.2,381.8 399,378 c -68.1,-5 -134.7,-5 -202.8,0 -52.2,3.8 -104.3,8.8 -156.3,14.9 -10.2,1.2 -34.2,1.3 -34.2,16.2 0,3.5 0.9,7.1 1.5,10.6 2.7,15.2 5.8,30.3 8.8,45.5 4.6,22.8 9.2,45.7 13.9,68.5 5.4,26.3 10.9,52.6 16.4,78.8 5.3,25.5 10.7,51 16.1,76.6 4.3,20.6 8.7,41.1 13,61.7 2.4,11.4 4.9,22.7 7.2,34.1 0.2,1 0.4,2 0.6,3 0.9,5 3.4,8.7 8.6,8.7 0.4,0 1.7,0 2,-0.1 56.1,-6 114.6,-9.4 175.8,-10.2 9.1,-0.1 18.1,-0.2 26.7,-0.2 0.4,0 0.8,0 1.1,0 0.4,0 0.8,0 1.1,0 8.6,0 17.6,0 26.7,0.2 61.1,0.8 119.7,4.3 175.8,10.2 0.4,0 1.7,0.1 2,0.1 5.2,0 7.8,-3.6 8.6,-8.7 0.2,-1 0.4,-2 0.6,-3 2.4,-11.4 4.8,-22.8 7.2,-34.1 4.4,-20.6 8.7,-41.1 13,-61.7 5.4,-25.5 10.8,-51 16.1,-76.6 5.5,-26.3 11,-52.5 16.4,-78.8 4.7,-22.8 9.4,-45.6 13.9,-68.5 3,-15.1 6.1,-30.3 8.7,-45.5 0.6,-3.4 1.5,-7.1 1.5,-10.6 0.5,-14.9 -23.5,-15 -33.7,-16.2 z m -253,17.5 c 0.2,-2.7 1,-5 2.8,-6.9 2,-2 7,-3.2 10.3,-3.2 h 0.3 c 34.1,0.8 95.8,5.7 96.4,5.8 0.7,0.1 1.4,0.5 1.8,1.1 0.4,0.6 0.4,1.4 0.1,2.1 -11.6,26.7 -58.2,127.7 -68.3,153.1 -0.2,0.6 -0.7,1.1 -1.3,1.3 -0.3,0.1 -0.6,0.2 -0.9,0.2 -0.3,0 -0.6,-0.1 -0.9,-0.2 -9.6,-4 -19.5,-6.7 -30.4,-8.1 -4.2,-0.5 -8.4,-3.2 -9.9,-6.7 v -22.7 c 0.3,-7.8 19.9,-48.3 22,-47.5 -12.7,-11.9 -13.9,-19.6 -15.4,-37.4 -0.6,-6.2 -8.4,-8.3 -6.6,-30.9 z m 70.8,207.1 -69.8,0.6 V 575 c 29.5,1.9 55.1,18.4 69.8,42.5 z M 181.4,407.3 c 0.4,-0.6 1.1,-1.1 1.8,-1.1 0.6,-0.1 62.3,-5 96.4,-5.8 h 0.3 c 3.3,0 8.2,1.2 10.3,3.2 1.8,1.8 2.6,4.2 2.8,6.9 1.8,22.6 -6,24.6 -6.6,30.9 -1.6,17.8 -2.8,25.5 -15.4,37.4 2.1,-0.8 21.7,39.7 22,47.5 V 549 c -1.5,3.6 -5.7,6.2 -9.9,6.7 -10.9,1.4 -20.8,4 -30.4,8.1 -0.3,0.1 -0.6,0.2 -0.9,0.2 -0.3,0 -0.6,-0.1 -0.9,-0.2 -0.6,-0.2 -1.1,-0.7 -1.3,-1.3 -10.1,-25.4 -56.7,-126.4 -68.3,-153.1 -0.3,-0.7 -0.3,-1.5 0.1,-2.1 z M 292,575 v 43.1 l -69.8,-0.6 C 236.8,593.4 262.5,576.9 292,575 Z M 41.5,438.3 c -0.8,-2 -1.2,-4.3 -1.2,-6.4 0.1,-2.5 0.8,-4.8 2.4,-6.7 1.9,-2.2 4.6,-3.3 7.4,-4.2 7,-2.3 14.4,-3.3 21.7,-4.1 20.2,-2.3 40.6,-5.2 60.9,-6.5 3.1,-0.2 6.1,-0.4 9.2,-0.6 l 2.5,-0.2 c 1,-0.1 1.9,0.5 2.3,1.3 1.9,3.9 83.2,158.8 84.7,162.4 0.4,1 0.1,2.1 -0.8,2.8 -10.2,7.6 -18.7,16.4 -26,27 -0.4,0.6 -1.1,1 -1.8,1 -0.1,0 -0.1,0 -0.2,0 -0.7,0 -1.3,-0.3 -1.8,-0.8 -7.4,-7.9 -152.1,-146 -159.3,-165 z M 80,620.7 v 0 c -0.9,-0.2 -1.6,-0.9 -1.8,-1.8 L 52.8,503 c -0.2,-1 0.3,-2 1.2,-2.5 0.9,-0.5 2,-0.3 2.8,0.4 7.3,7.1 21.1,19.1 37.1,32.9 13.9,12 29.6,25.6 43.6,38.4 26.6,24 49.6,44.8 54.8,50.1 0.6,0.7 0.9,1.6 1,2.2 0,0.2 0,0.5 0,0.7 -1.3,5.9 -2.8,11.7 -4.2,17.4 l -1.2,5.1 c -0.1,0.6 -0.5,1.1 -1.1,1.5 -0.4,0.2 -0.8,0.3 -1.2,0.3 -0.2,0 -0.4,0 -0.6,-0.1 -4.1,-1.1 -8.1,-2.1 -12.2,-3.2 -2.5,-0.6 -6.7,-1.7 -11.9,-3.1 l -0.2,-0.1 c -7.2,-1.9 -16.6,-4.7 -26.7,-7.6 -18,-5.2 -38.4,-11.1 -54,-14.7 z m 17.2,95.9 c -0.5,0 -0.9,-0.1 -1.3,-0.4 -0.5,-0.3 -0.9,-0.9 -1,-1.5 L 83.2,656.3 c -0.2,-0.8 0.1,-1.5 0.6,-2.1 0.5,-0.5 1.3,-0.8 2.1,-0.7 21.4,3.4 51,7.7 72.7,10.9 l 0.4,0.1 c 11.8,1.7 21,3.1 25.8,3.8 1,0.2 1.8,0.9 2,1.9 1.6,8 3.1,15.7 4.6,23.5 0.2,1.2 -0.5,2.4 -1.8,2.7 -6.5,1.6 -64.8,14.9 -91.9,20.2 -0.2,0 -0.3,0 -0.5,0 z m 145.4,42.9 v 0 c -0.2,1 -1.1,1.7 -2.2,1.8 -34.4,2.1 -102.9,6.3 -116.4,7.3 -0.5,0 -1.1,0.1 -1.7,0.1 -10.4,0 -19.2,-7.2 -21,-17.2 -0.6,-3.4 1.4,-6.6 4.7,-7.7 16.9,-5.7 37.6,-12.7 52.8,-17.7 l 0.3,-0.1 c 11.8,-4 21.9,-7.3 28,-9.4 1.1,-0.4 2.3,-0.8 3.4,-1.1 l 0.2,-0.1 c 2.3,-0.7 4.6,-1.5 6.9,-2.3 1.1,-0.4 2.4,0.1 2.9,1.1 9.3,17.1 22.6,31.1 39.5,41.8 0.5,0.3 1.1,0.7 1.6,1 0.8,0.4 1.2,1.5 1,2.5 z m -33.4,-95.4 c 0,-11.3 2.1,-22 5.8,-31.9 l 75.7,121 c -45.5,-3.6 -81.5,-42.1 -81.5,-89.1 z m 88.4,25.2 -40.8,-0.4 40.5,-65.1 0.4,0.6 v 0 0 0 0 l 0.4,-0.6 40.5,65.1 z m 6.9,63.9 75.7,-121 c 3.8,9.9 5.8,20.7 5.8,31.9 0.1,47 -35.9,85.5 -81.5,89.1 z M 494,751.5 c -1.8,9.9 -10.6,17.2 -21,17.2 -0.6,0 -1.2,0 -1.7,-0.1 -13.5,-1 -82,-5.2 -116.4,-7.3 -1,-0.1 -1.9,-0.8 -2.2,-1.8 v 0 c -0.2,-1 0.2,-2 1.1,-2.6 0.5,-0.3 1.1,-0.6 1.6,-1 16.9,-10.7 30.2,-24.8 39.5,-41.8 0.6,-1 1.8,-1.5 2.9,-1.1 2.3,0.8 4.6,1.6 6.9,2.3 l 0.2,0.1 c 1.1,0.4 2.3,0.7 3.4,1.1 6.1,2.1 16.2,5.4 28,9.4 l 0.3,0.1 c 15.1,5.1 35.9,12 52.8,17.7 3.2,1.2 5.2,4.4 4.6,7.8 z m 18.1,-95.2 -11.7,58.4 c -0.1,0.6 -0.5,1.2 -1,1.5 -0.4,0.3 -0.8,0.4 -1.3,0.4 -0.2,0 -0.3,0 -0.5,0 -27,-5.4 -85.4,-18.7 -91.9,-20.2 -1.2,-0.3 -2,-1.5 -1.8,-2.7 1.5,-7.8 3,-15.5 4.6,-23.5 0.2,-1 1,-1.7 2,-1.9 4.7,-0.7 14,-2.1 25.8,-3.8 l 0.4,-0.1 c 21.7,-3.2 51.3,-7.5 72.7,-10.9 0.8,-0.1 1.5,0.1 2.1,0.7 0.5,0.5 0.7,1.3 0.6,2.1 z M 542.5,503 517.1,618.9 c -0.2,0.9 -0.9,1.6 -1.8,1.8 v 0 c -15.7,3.5 -36,9.4 -53.9,14.7 -10,2.9 -19.5,5.7 -26.7,7.6 l -0.2,0.1 c -5.3,1.4 -9.4,2.5 -11.9,3.1 -4,1 -8.1,2.1 -12.2,3.2 -0.2,0.1 -0.4,0.1 -0.6,0.1 -0.4,0 -0.8,-0.1 -1.2,-0.3 -0.5,-0.3 -0.9,-0.9 -1.1,-1.5 l -1.2,-5.1 c -1.4,-5.7 -2.8,-11.5 -4.2,-17.4 -0.1,-0.2 -0.1,-0.5 0,-0.7 0,-0.6 0.3,-1.5 1,-2.2 5.2,-5.3 28.2,-26.1 54.8,-50.1 14.1,-12.7 29.8,-26.3 43.6,-38.4 16,-13.9 29.8,-25.9 37.1,-32.9 0.7,-0.7 1.9,-0.9 2.8,-0.4 0.8,0.4 1.3,1.5 1.1,2.5 z m 11.3,-64.7 c -7.2,19 -151.9,157.1 -159.3,165.2 -0.4,0.5 -1.1,0.8 -1.8,0.8 -0.1,0 -0.1,0 -0.2,0 -0.7,-0.1 -1.4,-0.4 -1.8,-1 -7.2,-10.6 -15.7,-19.4 -26,-27 -0.9,-0.6 -1.2,-1.8 -0.8,-2.8 1.6,-3.6 82.8,-158.5 84.7,-162.4 0.4,-0.9 1.3,-1.4 2.3,-1.3 l 2.5,0.2 c 3.1,0.2 6.1,0.4 9.2,0.6 20.3,1.3 40.6,4.2 60.9,6.5 7.3,0.8 14.7,1.8 21.7,4.1 2.7,0.9 5.5,2.1 7.4,4.2 1.6,1.9 2.3,4.2 2.4,6.7 0,1.9 -0.4,4.1 -1.2,6.2 z"
   class="st0" />

</svg>