<?xml version="1.0" encoding="UTF-8" standalone="no"?>
<svg
   enable-background="new 0 0 864 864"
   version="1.1"
   viewBox="0 0 484.14435 441.58099"
   xml:space="preserve"
   id="svg220"
   sodipodi:docname="cherryblossombutterfly.svg"
   inkscape:export-filename="cherryblossombutterfly-bottomright.svg"
   inkscape:export-xdpi="96"
   inkscape:export-ydpi="96"
   width="484.14435"
   height="441.58099"
   xmlns:inkscape="http://www.inkscape.org/namespaces/inkscape"
   xmlns:sodipodi="http://sodipodi.sourceforge.net/DTD/sodipodi-0.dtd"
   xmlns="http://www.w3.org/2000/svg"
   xmlns:svg="http://www.w3.org/2000/svg"><defs
   id="defs224" /><sodipodi:namedview
   id="namedview222"
   pagecolor="#ffffff"
   bordercolor="#000000"
   borderopacity="0.25"
   inkscape:showpageshadow="2"
   inkscape:pageopacity="0.0"
   inkscape:pagecheckerboard="0"
   inkscape:deskcolor="#d1d1d1"
   showgrid="false" />
<style
   type="text/css"
   id="style130">
	.st0{fill:#EA92A9;}
	.st1{fill:#7A3C3C;}
</style>























































<g
   inkscape:groupmode="layer"
   id="layer2"
   inkscape:label="Layer 2"
   style="display:inline"
   transform="translate(-90.1,-228.8873)"><path
     class="st0"
     d="m 162.3,346.6 c -1.1,-4.7 -5.5,-9.2 -11.7,-11.4 -2.3,-0.8 -4.5,-1.2 -6.7,-1.2 1.7,-1.2 3.3,-2.7 4.7,-4.5 4,-5.2 5.3,-11.4 3.6,-15.9 0,-0.1 -0.1,-0.2 -0.2,-0.2 -0.1,-0.1 -0.2,-0.1 -0.4,-0.1 l -4.5,0.3 c -0.7,0 -1.4,-0.5 -1.5,-1.2 l -0.7,-4.1 c 0,-0.2 -0.2,-0.4 -0.3,-0.5 -0.1,-0.1 -0.3,-0.2 -0.4,-0.2 -4.8,-0.4 -10.5,2.4 -14.4,7.6 -1.5,1.9 -2.5,3.9 -3.3,6 -0.6,-2 -1.6,-4 -2.9,-5.8 -3.7,-5.4 -9.2,-8.6 -14,-8.4 -0.1,0 -0.2,0 -0.3,0.1 -0.1,0.1 -0.2,0.2 -0.2,0.3 l -1.1,4.4 c -0.2,0.7 -0.9,1.2 -1.6,1 l -4.1,-0.6 c -0.2,0 -0.4,0 -0.6,0.1 -0.1,0.1 -0.2,0.2 -0.3,0.4 -1.9,4.4 -1,10.7 2.7,16.1 1.4,2 3,3.6 4.7,4.9 -2.1,0 -4.3,0.3 -6.4,0.9 -6.3,1.9 -11,6.1 -12.3,10.7 v 0.3 c 0,0.1 0.1,0.2 0.2,0.3 l 3.8,2.4 c 0.6,0.4 0.8,1.2 0.5,1.8 l -1.9,3.7 c -0.1,0.2 -0.1,0.4 -0.1,0.6 0,0.2 0.1,0.3 0.3,0.4 3.6,3.1 9.9,4.2 16.1,2.4 2.3,-0.7 4.4,-1.7 6.2,-2.9 -0.7,2 -1.1,4.1 -1.1,6.4 -0.2,6.6 2.4,12.3 6.4,15 0.1,0.1 0.2,0.1 0.3,0.1 0.1,0 0.3,0 0.4,-0.1 l 3.5,-2.9 c 0.6,-0.5 1.4,-0.4 1.9,0.1 l 2.9,2.9 c 0.2,0.2 0.4,0.2 0.6,0.3 0.2,0 0.3,0 0.5,-0.1 4.1,-2.5 7.1,-8.1 7.2,-14.6 0.1,-2.4 -0.3,-4.7 -0.9,-6.8 1.7,1.2 3.6,2.3 5.7,3.1 6.2,2.2 12.5,1.5 16.3,-1.5 0.1,-0.1 0.1,-0.2 0.2,-0.3 v -0.4 l -1.7,-4.2 c -0.3,-0.7 0,-1.4 0.7,-1.8 l 3.7,-1.9 c 0.2,-0.1 0.3,-0.3 0.4,-0.5 0.1,-0.1 0.1,-0.3 0.1,-0.5 z m -22,-2.1 c -1.1,0.8 -2.7,0.5 -3.5,-0.6 l -0.3,-0.6 -5.1,-1.5 c -0.7,0.8 -1.6,1.4 -2.7,1.7 l -0.5,5 c 0.1,0 0.1,0.1 0.2,0.1 1,1 1,2.5 0,3.5 -1,1 -2.5,1 -3.5,0 -1,-1 -1,-2.5 0,-3.5 0.2,-0.2 0.5,-0.4 0.7,-0.5 l 0.5,-4.8 c -1,-0.4 -1.9,-1.1 -2.5,-2.1 l -5,1.6 c 0,0.1 -0.1,0.3 -0.1,0.4 -0.5,1.3 -2,1.9 -3.2,1.4 -1.3,-0.5 -1.9,-2 -1.4,-3.2 0.5,-1.3 2,-1.9 3.2,-1.4 l 0.6,0.3 5.3,-1.7 c 0,-1 0.4,-1.9 0.9,-2.6 l -3,-3.7 h -0.4 c -1.4,0 -2.5,-1.1 -2.5,-2.5 0,-1.4 1.1,-2.5 2.5,-2.5 1.4,0 2.5,1.1 2.5,2.5 0,0.2 0,0.5 -0.1,0.7 l 3.1,3.8 c 0.5,-0.2 1.1,-0.3 1.7,-0.3 0.5,0 1,0.1 1.4,0.2 L 132,330 c -0.1,-0.1 -0.1,-0.2 -0.2,-0.4 -0.4,-1.3 0.4,-2.7 1.7,-3.1 1.3,-0.4 2.7,0.4 3.1,1.7 0.4,1.3 -0.4,2.7 -1.7,3.1 -0.2,0.1 -0.4,0.1 -0.7,0.1 l -3,4.3 c 0.7,0.8 1.1,1.9 1.1,3 v 0.5 l 4.7,1.4 0.3,-0.3 c 1.1,-0.8 2.7,-0.5 3.5,0.6 0.9,1.2 0.7,2.8 -0.5,3.6 z"
     id="path144" /><path
     class="st0"
     d="m 338.1,514.9 c 3.4,-3.7 4.8,-10.1 3.1,-16.8 -0.6,-2.4 -1.6,-4.7 -2.8,-6.6 2,0.8 4.3,1.3 6.7,1.4 6.9,0.4 13,-2 16,-6.1 0.1,-0.1 0.1,-0.2 0.1,-0.3 0,-0.1 0,-0.3 -0.1,-0.4 l -2.9,-3.8 c -0.5,-0.6 -0.4,-1.5 0.2,-2 l 3.2,-3 c 0.2,-0.2 0.3,-0.4 0.3,-0.6 0,-0.2 0,-0.3 -0.1,-0.5 -2.4,-4.4 -8.2,-7.7 -15,-8.2 -2.5,-0.2 -4.9,0.1 -7.1,0.7 1.4,-1.7 2.5,-3.7 3.4,-5.9 2.6,-6.4 2.1,-13 -0.9,-17.1 -0.1,-0.1 -0.2,-0.2 -0.3,-0.2 -0.1,-0.1 -0.3,-0.1 -0.4,0 l -4.5,1.6 c -0.7,0.3 -1.5,-0.1 -1.8,-0.8 l -1.8,-3.9 c -0.1,-0.2 -0.3,-0.4 -0.5,-0.5 -0.2,-0.1 -0.3,-0.1 -0.5,0 -4.9,1 -9.9,5.4 -12.4,11.7 -0.9,2.3 -1.4,4.7 -1.6,7 -1.2,-1.8 -2.7,-3.6 -4.5,-5.1 -5.3,-4.4 -11.7,-6 -16.5,-4.4 -0.1,0 -0.2,0.1 -0.3,0.2 -0.1,0.1 -0.1,0.2 -0.1,0.4 l 0.1,4.8 c 0,0.8 -0.5,1.4 -1.3,1.5 l -4.3,0.5 c -0.2,0 -0.4,0.1 -0.6,0.3 -0.1,0.1 -0.2,0.3 -0.2,0.5 -0.6,5 2.1,11 7.3,15.4 1.9,1.6 4,2.8 6.1,3.7 -2.1,0.6 -4.2,1.5 -6.2,2.8 -5.8,3.7 -9.3,9.3 -9.3,14.3 0,0.1 0,0.2 0.1,0.3 0.1,0.1 0.2,0.2 0.3,0.2 l 4.6,1.3 c 0.7,0.2 1.2,0.9 1,1.7 l -0.8,4.3 c 0,0.2 0,0.5 0.1,0.7 0.1,0.1 0.2,0.3 0.4,0.3 4.6,2.1 11.1,1.5 16.9,-2.2 2.1,-1.3 3.9,-3 5.4,-4.7 -0.1,2.2 0.1,4.5 0.7,6.8 1.7,6.7 5.9,11.7 10.7,13.3 h 0.3 c 0.1,0 0.3,-0.1 0.3,-0.2 l 2.7,-3.9 c 0.4,-0.6 1.3,-0.8 1.9,-0.5 l 3.8,2.1 c 0.2,0.1 0.4,0.1 0.7,0.1 0.1,0.1 0.3,0 0.4,-0.2 z m -10.9,-20.3 c -1.3,-0.5 -2,-2 -1.5,-3.4 0.1,-0.2 0.2,-0.4 0.4,-0.6 l -1.7,-5.3 c -1.1,-0.1 -2.2,-0.6 -3,-1.4 l -4.7,2.5 v 0.2 c -0.3,1.4 -1.6,2.3 -3.1,2 -1.4,-0.3 -2.3,-1.6 -2,-3.1 0.3,-1.4 1.6,-2.3 3.1,-2 0.3,0.1 0.6,0.2 0.9,0.3 l 4.5,-2.4 c -0.3,-1.1 -0.1,-2.3 0.4,-3.4 l -4.3,-3.5 c -0.1,0.1 -0.3,0.1 -0.4,0.1 -1.4,0.3 -2.8,-0.6 -3.1,-2 -0.3,-1.4 0.6,-2.8 2,-3.1 1.4,-0.3 2.8,0.6 3.1,2 0.1,0.2 0.1,0.5 0,0.7 l 4.5,3.7 c 0.9,-0.5 1.9,-0.8 2.8,-0.7 l 1.5,-4.7 -0.3,-0.3 c -0.8,-1.2 -0.5,-2.8 0.7,-3.6 1.2,-0.8 2.8,-0.5 3.6,0.7 0.8,1.2 0.5,2.8 -0.7,3.6 l -0.6,0.3 -1.5,4.9 c 0.5,0.3 0.9,0.8 1.3,1.3 0.3,0.4 0.5,0.9 0.6,1.4 l 5.3,0.1 c 0.1,-0.1 0.1,-0.2 0.2,-0.4 0.9,-1.1 2.6,-1.2 3.7,-0.3 1.1,0.9 1.2,2.6 0.3,3.7 -0.9,1.1 -2.6,1.2 -3.7,0.3 l -0.5,-0.5 -5.4,-0.1 c -0.3,1.1 -1,2.1 -2,2.7 -0.1,0.1 -0.3,0.2 -0.4,0.3 l 1.6,4.9 c 0.1,0 0.3,0.1 0.4,0.1 1.3,0.5 2,2 1.5,3.4 -0.7,1.4 -2.2,2.1 -3.5,1.6 z"
     id="path148" /><path
     class="st0"
     d="m 492.2,284.6 c 2.6,-2.7 3.6,-7.6 2.3,-12.5 -0.5,-1.8 -1.2,-3.5 -2.1,-4.9 1.5,0.6 3.2,1 5,1.1 5.1,0.3 9.7,-1.5 11.9,-4.6 0,-0.1 0.1,-0.1 0.1,-0.2 0,-0.1 0,-0.2 -0.1,-0.3 l -2.2,-2.8 c -0.3,-0.4 -0.3,-1.1 0.1,-1.5 l 2.4,-2.2 c 0.1,-0.1 0.2,-0.3 0.2,-0.4 0,-0.1 0,-0.3 -0.1,-0.4 -1.8,-3.3 -6.1,-5.8 -11.2,-6.1 -1.9,-0.1 -3.7,0.1 -5.3,0.5 1,-1.3 1.9,-2.7 2.6,-4.4 1.9,-4.8 1.6,-9.7 -0.7,-12.7 0,-0.1 -0.1,-0.1 -0.2,-0.1 h -0.3 l -3.3,1.2 c -0.5,0.2 -1.1,-0.1 -1.4,-0.6 l -1.4,-2.9 c -0.1,-0.2 -0.2,-0.3 -0.4,-0.3 -0.1,0 -0.2,-0.1 -0.4,0 -3.7,0.7 -7.4,4 -9.3,8.8 -0.7,1.7 -1.1,3.5 -1.2,5.2 -0.9,-1.4 -2,-2.6 -3.4,-3.8 -4,-3.3 -8.7,-4.5 -12.3,-3.3 -0.1,0 -0.1,0.1 -0.2,0.1 -0.1,0.1 -0.1,0.2 -0.1,0.3 l 0.1,3.5 c 0,0.6 -0.4,1 -1,1.1 l -3.2,0.4 c -0.2,0 -0.3,0.1 -0.4,0.2 -0.1,0.1 -0.1,0.2 -0.1,0.3 -0.5,3.7 1.5,8.2 5.5,11.5 1.4,1.2 3,2.1 4.6,2.7 -1.6,0.4 -3.1,1.1 -4.7,2.1 -4.4,2.8 -7,6.9 -7,10.7 0,0.1 0,0.2 0.1,0.2 0.1,0.1 0.1,0.2 0.2,0.2 l 3.4,1 c 0.5,0.2 0.9,0.7 0.8,1.3 l -0.6,3.2 c 0,0.2 0,0.3 0.1,0.5 0.1,0.1 0.2,0.2 0.3,0.2 3.4,1.6 8.3,1.1 12.6,-1.6 1.6,-1 2.9,-2.2 4,-3.5 -0.1,1.6 0.1,3.3 0.5,5.1 1.3,5 4.4,8.8 8,9.9 h 0.2 c 0.1,0 0.2,-0.1 0.3,-0.2 l 2,-2.9 c 0.3,-0.5 0.9,-0.6 1.4,-0.3 l 2.8,1.6 c 0.1,0.1 0.3,0.1 0.5,0.1 0.4,-0.4 0.5,-0.4 0.6,-0.5 z m -8.1,-15.2 c -1,-0.4 -1.5,-1.5 -1.1,-2.5 0.1,-0.2 0.2,-0.3 0.3,-0.5 l -1.3,-4 c -0.8,-0.1 -1.6,-0.4 -2.3,-1 l -3.5,1.8 v 0.2 c -0.2,1.1 -1.2,1.7 -2.3,1.5 -1.1,-0.2 -1.7,-1.2 -1.5,-2.3 0.2,-1.1 1.2,-1.7 2.3,-1.5 0.2,0 0.4,0.1 0.6,0.3 l 3.3,-1.8 c -0.2,-0.8 -0.1,-1.7 0.3,-2.5 l -3.2,-2.6 c -0.1,0 -0.2,0.1 -0.3,0.1 -1,0.2 -2.1,-0.4 -2.3,-1.5 -0.2,-1.1 0.4,-2.1 1.5,-2.3 1,-0.2 2.1,0.4 2.3,1.5 v 0.5 l 3.4,2.7 c 0.7,-0.4 1.4,-0.6 2.1,-0.5 l 1.1,-3.5 c -0.1,-0.1 -0.1,-0.2 -0.2,-0.2 -0.6,-0.9 -0.4,-2.1 0.5,-2.7 0.9,-0.6 2.1,-0.4 2.7,0.5 0.6,0.9 0.4,2.1 -0.5,2.7 -0.2,0.1 -0.3,0.2 -0.5,0.2 l -1.1,3.7 c 0.4,0.3 0.7,0.6 0.9,1 0.2,0.3 0.4,0.7 0.5,1 l 4,0.1 c 0.1,-0.1 0.1,-0.2 0.2,-0.3 0.7,-0.8 1.9,-0.9 2.7,-0.2 0.8,0.7 0.9,1.9 0.2,2.7 -0.7,0.8 -1.9,0.9 -2.7,0.2 -0.1,-0.1 -0.2,-0.3 -0.3,-0.4 l -4.1,-0.1 c -0.2,0.8 -0.7,1.5 -1.5,2 -0.1,0.1 -0.2,0.1 -0.3,0.2 l 1.2,3.7 c 0.1,0 0.2,0 0.3,0.1 1,0.4 1.5,1.5 1.1,2.5 -0.4,1.1 -1.5,1.6 -2.5,1.2 z"
     id="path156" /><path
     class="st0"
     d="m 226.4,487.7 c -0.2,0.2 -0.5,0.3 -0.8,0.2 -2.9,-0.8 -5.8,-1.3 -8.8,-1.5 1.1,3 2.2,5.9 3.2,8.8 0.2,0.7 -0.5,1.1 -1,1 -11.9,-1.6 -21.3,-13.5 -20.1,-25.5 0,-0.5 0.4,-0.7 0.8,-0.8 0.1,-0.2 0.3,-0.3 0.6,-0.4 6.2,-0.5 12.5,1.1 17.7,4.4 2.6,1.6 4.9,3.7 6.9,6 1.7,2.3 3.4,5.3 1.5,7.8 z"
     id="path158" /><path
     class="st0"
     d="m 247.6,529.9 c -3,1.8 -3.2,5.8 -2.8,8.9 0.5,4 2.1,8.2 0.6,12.2 -1.6,4.4 -5.8,5.5 -10,6.2 -1.3,0.2 -4.7,1.5 -5.9,1.2 -1.8,-0.4 -1,-2.7 -1.1,-4.1 -0.2,-2.2 -0.3,-4.4 -0.2,-6.6 0.1,-4.3 0.9,-8.8 3.3,-12.5 3.3,-5.2 9.6,-9 15.8,-7.1 0.9,0.2 1,1.3 0.3,1.8 z"
     id="path164" /><path
     class="st0"
     d="m 186.3,628 c 0.8,-0.3 1.7,-0.4 2.5,-0.3 1.5,0.2 2.9,1 4.2,1.9 5.8,4.5 7.9,12.7 6.1,19.7 -1.2,4.7 -3.9,9 -7.3,12.4 -2.1,2.1 -4.6,3.8 -7.1,5.4 -0.7,0.4 -6.4,5.2 -6.1,2.6 0.1,-1.3 1.8,-2.9 2.4,-4.1 1.5,-3 2.4,-6.9 1.6,-10.2 -0.7,-2.7 -2.1,-5.2 -2.8,-7.9 -0.4,-1.6 -0.4,-3.4 0.5,-4.8 0.9,-1.4 3.1,-1.9 4.3,-0.8 -0.7,-2.8 -1.1,-5.7 -1,-8.6 0,-1.5 0.2,-3.1 1.2,-4.2 0.3,-0.5 0.9,-0.9 1.5,-1.1 z"
     id="path170" /><path
     class="st0"
     d="m 147.9,525.1 c 0,0.9 -0.3,1.7 -0.7,2.5 -0.8,1.3 -2,2.3 -3.4,3.1 -6.3,3.6 -14.7,2.5 -20.6,-1.8 -3.9,-2.9 -6.8,-7 -8.7,-11.4 -1.1,-2.8 -1.7,-5.7 -2.3,-8.6 -0.2,-0.8 -2.4,-7.8 -0.1,-6.6 1.2,0.6 2,2.7 2.9,3.7 2.2,2.5 5.4,4.8 8.9,5.3 2.8,0.4 5.6,0 8.4,0.4 1.6,0.2 3.3,0.9 4.3,2.3 0.9,1.4 0.6,3.6 -0.9,4.2 2.9,0.4 5.7,1.1 8.3,2.3 1.4,0.6 2.8,1.4 3.5,2.7 0.3,0.5 0.5,1.2 0.4,1.9 z"
     id="path172" /><path
     class="st0"
     d="m 562.4,338.3 c -1,-4.3 -5.1,-8.6 -10.8,-10.6 -2.1,-0.7 -4.2,-1.1 -6.2,-1.2 1.6,-1.1 3.1,-2.5 4.3,-4.2 3.7,-4.9 4.9,-10.6 3.4,-14.8 0,-0.1 -0.1,-0.2 -0.2,-0.2 -0.1,-0.1 -0.2,-0.1 -0.4,-0.1 l -4.2,0.3 c -0.7,0 -1.3,-0.4 -1.4,-1.1 l -0.6,-3.8 c 0,-0.2 -0.1,-0.4 -0.3,-0.5 -0.1,-0.1 -0.3,-0.1 -0.4,-0.2 -4.4,-0.4 -9.7,2.2 -13.4,7 -1.4,1.8 -2.4,3.7 -3,5.6 -0.6,-1.8 -1.5,-3.7 -2.7,-5.4 -3.5,-5 -8.5,-8 -13,-7.8 -0.1,0 -0.2,0 -0.3,0.1 -0.1,0.1 -0.2,0.2 -0.2,0.3 l -1,4.1 c -0.2,0.7 -0.8,1.1 -1.5,1 l -3.8,-0.6 c -0.2,0 -0.4,0 -0.6,0.1 l -0.3,0.3 c -1.7,4.1 -0.9,9.9 2.5,14.9 1.3,1.8 2.8,3.4 4.4,4.6 -1.9,0 -3.9,0.2 -6,0.8 -5.9,1.7 -10.2,5.7 -11.4,10 v 0.3 c 0,0.1 0.1,0.2 0.2,0.3 l 3.6,2.2 c 0.6,0.4 0.8,1.1 0.5,1.7 l -1.7,3.4 c -0.1,0.2 -0.1,0.4 -0.1,0.6 0,0.1 0.1,0.3 0.2,0.4 3.4,2.9 9.1,3.9 15,2.2 2.1,-0.6 4.1,-1.6 5.7,-2.7 -0.6,1.8 -1,3.8 -1,6 -0.2,6.1 2.2,11.5 6,13.9 0.1,0.1 0.2,0.1 0.3,0.1 0.1,0 0.2,0 0.3,-0.1 l 3.2,-2.7 c 0.5,-0.4 1.3,-0.4 1.8,0.1 l 2.7,2.7 c 0.1,0.1 0.3,0.2 0.5,0.2 0.1,0 0.3,0 0.4,-0.1 3.8,-2.3 6.6,-7.5 6.7,-13.6 0.1,-2.2 -0.2,-4.4 -0.8,-6.3 1.5,1.2 3.3,2.1 5.3,2.8 5.8,2 11.6,1.4 15.1,-1.4 l 0.2,-0.2 v -0.4 l -1.6,-3.9 c -0.2,-0.6 0,-1.3 0.6,-1.6 l 3.4,-1.8 c 0.2,-0.1 0.3,-0.3 0.4,-0.4 0.3,0 0.3,-0.2 0.2,-0.3 z m -20.4,-2 c -1,0.7 -2.5,0.5 -3.2,-0.6 l -0.3,-0.6 -4.8,-1.4 c -0.6,0.8 -1.5,1.3 -2.5,1.6 l -0.5,4.6 0.1,0.1 c 0.9,0.9 0.9,2.4 0,3.3 -0.9,0.9 -2.4,0.9 -3.3,0 -0.9,-0.9 -0.9,-2.4 0,-3.3 0.2,-0.2 0.4,-0.3 0.7,-0.5 l 0.5,-4.5 c -1,-0.4 -1.8,-1 -2.3,-1.9 l -4.7,1.5 c 0,0.1 -0.1,0.2 -0.1,0.4 -0.5,1.2 -1.8,1.8 -3,1.3 -1.2,-0.5 -1.8,-1.8 -1.3,-3 0.5,-1.2 1.8,-1.8 3,-1.3 0.2,0.1 0.4,0.2 0.5,0.3 l 4.9,-1.5 c 0,-0.9 0.4,-1.7 0.9,-2.4 l -2.7,-3.4 h -0.4 c -1.3,0 -2.3,-1 -2.3,-2.3 0,-1.3 1,-2.3 2.3,-2.3 1.3,0 2.3,1 2.3,2.3 0,0.2 0,0.4 -0.1,0.6 l 2.9,3.6 c 0.5,-0.2 1,-0.3 1.6,-0.3 0.5,0 0.9,0.1 1.3,0.2 l 2.7,-3.9 c -0.1,-0.1 -0.1,-0.2 -0.1,-0.4 -0.4,-1.2 0.3,-2.5 1.6,-2.9 1.2,-0.4 2.5,0.3 2.9,1.6 0.4,1.2 -0.3,2.5 -1.6,2.9 -0.2,0.1 -0.4,0.1 -0.6,0.1 l -2.8,4 c 0.6,0.8 1,1.7 1,2.8 v 0.4 l 4.4,1.3 c 0.1,-0.1 0.2,-0.2 0.3,-0.2 1,-0.7 2.5,-0.5 3.2,0.6 0.8,1 0.6,2.4 -0.5,3.2 z"
     id="path132" /><path
     class="st0"
     d="m 185.1,461.4 c -1.2,-5 -5.8,-9.8 -12.4,-12.1 -2.4,-0.8 -4.8,-1.3 -7.1,-1.3 1.8,-1.3 3.5,-2.9 5,-4.8 4.3,-5.6 5.6,-12.1 3.8,-16.9 0,-0.1 -0.1,-0.2 -0.2,-0.3 -0.1,-0.1 -0.3,-0.1 -0.4,-0.1 l -4.8,0.3 c -0.8,0.1 -1.4,-0.5 -1.6,-1.2 l -0.7,-4.3 c 0,-0.2 -0.2,-0.4 -0.3,-0.6 -0.1,-0.1 -0.3,-0.2 -0.5,-0.2 -5.1,-0.4 -11.1,2.5 -15.3,8 -1.6,2 -2.7,4.2 -3.5,6.4 -0.6,-2.1 -1.7,-4.2 -3,-6.2 -4,-5.8 -9.8,-9.1 -14.9,-8.9 -0.1,0 -0.2,0 -0.3,0.1 -0.1,0.1 -0.2,0.2 -0.2,0.3 l -1.2,4.7 c -0.2,0.7 -0.9,1.2 -1.7,1.1 l -4.4,-0.7 c -0.2,0 -0.5,0 -0.7,0.1 -0.1,0.1 -0.3,0.2 -0.3,0.4 -2,4.7 -1,11.3 2.9,17.1 1.4,2.1 3.1,3.9 5,5.2 -2.2,0 -4.5,0.3 -6.8,1 -6.7,2 -11.7,6.5 -13,11.4 v 0.3 c 0,0.1 0.1,0.3 0.3,0.3 l 4.1,2.6 c 0.6,0.4 0.9,1.2 0.5,1.9 l -2,3.9 c -0.1,0.2 -0.1,0.4 -0.1,0.7 0,0.2 0.1,0.3 0.3,0.4 3.9,3.3 10.5,4.5 17.1,2.5 2.4,-0.7 4.6,-1.8 6.5,-3.1 -0.7,2.1 -1.1,4.4 -1.2,6.8 -0.2,7 2.5,13.1 6.8,15.9 0.1,0.1 0.2,0.1 0.3,0.1 0.1,0 0.3,0 0.4,-0.1 l 3.7,-3.1 c 0.6,-0.5 1.5,-0.5 2,0.1 l 3.1,3.1 c 0.2,0.2 0.4,0.3 0.6,0.3 0.2,0 0.3,0 0.5,-0.1 4.4,-2.6 7.5,-8.6 7.7,-15.5 0.1,-2.5 -0.3,-5 -0.9,-7.2 1.8,1.3 3.8,2.4 6.1,3.2 6.6,2.3 13.2,1.6 17.2,-1.6 0.1,-0.1 0.2,-0.2 0.2,-0.3 v -0.4 l -1.8,-4.5 c -0.3,-0.7 0,-1.5 0.7,-1.9 l 3.9,-2 c 0.2,-0.1 0.4,-0.3 0.4,-0.5 0.2,0 0.2,-0.2 0.2,-0.3 z m -23.3,-2.3 c -1.2,0.8 -2.8,0.5 -3.7,-0.7 l -0.3,-0.6 -5.4,-1.6 c -0.7,0.9 -1.7,1.5 -2.8,1.8 l -0.5,5.3 c 0.1,0 0.1,0.1 0.2,0.1 1,1 1,2.7 0,3.7 -1,1 -2.7,1 -3.7,0 -1,-1 -1,-2.7 0,-3.7 0.2,-0.2 0.5,-0.4 0.8,-0.5 l 0.5,-5.1 c -1.1,-0.4 -2,-1.2 -2.6,-2.2 l -5.3,1.7 c 0,0.1 -0.1,0.3 -0.1,0.4 -0.5,1.4 -2.1,2 -3.4,1.5 -1.4,-0.5 -2,-2.1 -1.5,-3.4 0.5,-1.4 2.1,-2 3.4,-1.5 0.2,0.1 0.4,0.2 0.6,0.4 l 5.6,-1.8 c 0,-1 0.4,-2 1,-2.8 l -3.1,-3.9 h -0.4 c -1.5,0 -2.6,-1.2 -2.6,-2.6 0,-1.5 1.2,-2.6 2.6,-2.6 1.5,0 2.6,1.2 2.6,2.6 0,0.2 0,0.5 -0.1,0.7 l 3.3,4.1 c 0.6,-0.2 1.2,-0.3 1.8,-0.3 0.5,0 1,0.1 1.5,0.2 l 3.1,-4.4 c -0.1,-0.1 -0.1,-0.3 -0.2,-0.4 -0.4,-1.4 0.4,-2.9 1.8,-3.3 1.4,-0.4 2.9,0.4 3.3,1.8 0.4,1.4 -0.4,2.9 -1.8,3.3 -0.2,0.1 -0.5,0.1 -0.7,0.1 l -3.1,4.5 c 0.7,0.9 1.2,2 1.2,3.2 v 0.5 l 5,1.5 0.3,-0.3 c 1.2,-0.8 2.8,-0.5 3.7,0.7 0.5,1.1 0.2,2.7 -1,3.6 z"
     id="path134" /><path
     class="st0"
     d="m 332.5,267.2 c -0.9,-3.8 -4.4,-7.5 -9.5,-9.2 -1.8,-0.6 -3.7,-1 -5.4,-1 1.4,-1 2.7,-2.2 3.8,-3.7 3.3,-4.2 4.3,-9.2 2.9,-12.9 0,-0.1 -0.1,-0.1 -0.2,-0.2 -0.1,-0.1 -0.2,-0.1 -0.3,-0.1 l -3.7,0.2 c -0.6,0 -1.1,-0.4 -1.2,-1 l -0.5,-3.3 c 0,-0.2 -0.1,-0.3 -0.3,-0.4 -0.1,-0.1 -0.2,-0.1 -0.4,-0.1 -3.9,-0.3 -8.5,1.9 -11.7,6.1 -1.2,1.5 -2.1,3.2 -2.6,4.9 -0.5,-1.6 -1.3,-3.2 -2.3,-4.7 -3,-4.4 -7.4,-6.9 -11.4,-6.8 -0.1,0 -0.2,0 -0.2,0.1 -0.1,0.1 -0.2,0.2 -0.2,0.3 l -0.9,3.6 c -0.1,0.6 -0.7,0.9 -1.3,0.8 l -3.3,-0.5 c -0.2,0 -0.4,0 -0.5,0.1 -0.1,0.1 -0.2,0.2 -0.2,0.3 -1.5,3.6 -0.8,8.7 2.2,13 1.1,1.6 2.4,3 3.8,4 -1.7,0 -3.4,0.2 -5.2,0.7 -5.1,1.5 -8.9,4.9 -10,8.7 v 0.3 c 0,0.1 0.1,0.2 0.2,0.3 l 3.1,2 c 0.5,0.3 0.7,1 0.4,1.5 l -1.5,3 c -0.1,0.2 -0.1,0.3 0,0.5 0,0.1 0.1,0.2 0.2,0.3 2.9,2.6 8,3.4 13.1,1.9 1.9,-0.6 3.5,-1.4 5,-2.4 -0.5,1.6 -0.9,3.3 -0.9,5.2 -0.1,5.3 1.9,10 5.2,12.2 0.1,0 0.2,0.1 0.2,0.1 0.1,0 0.2,0 0.3,-0.1 l 2.8,-2.4 c 0.5,-0.4 1.1,-0.3 1.5,0.1 l 2.4,2.4 c 0.1,0.1 0.3,0.2 0.5,0.2 0.1,0 0.3,0 0.4,-0.1 3.3,-2 5.7,-6.5 5.9,-11.8 0,-1.9 -0.2,-3.8 -0.7,-5.5 1.3,1 2.9,1.9 4.7,2.5 5,1.8 10.1,1.2 13.2,-1.2 0.1,-0.1 0.1,-0.1 0.1,-0.2 v -0.3 l -1.4,-3.4 c -0.2,-0.5 0,-1.2 0.5,-1.4 l 3,-1.5 c 0.2,-0.1 0.3,-0.2 0.3,-0.4 0.1,-0.5 0.1,-0.6 0.1,-0.7 z m -17.8,-1.8 c -0.9,0.6 -2.2,0.4 -2.8,-0.5 -0.1,-0.2 -0.2,-0.3 -0.2,-0.5 l -4.2,-1.2 c -0.5,0.7 -1.3,1.2 -2.2,1.4 l -0.4,4.1 0.1,0.1 c 0.8,0.8 0.8,2.1 0,2.8 -0.8,0.7 -2.1,0.8 -2.8,0 -0.7,-0.8 -0.8,-2.1 0,-2.8 0.2,-0.2 0.4,-0.3 0.6,-0.4 l 0.4,-3.9 c -0.8,-0.3 -1.6,-0.9 -2,-1.7 l -4.1,1.3 c 0,0.1 0,0.2 -0.1,0.3 -0.4,1 -1.6,1.5 -2.6,1.1 -1,-0.4 -1.5,-1.6 -1.1,-2.6 0.4,-1 1.6,-1.5 2.6,-1.1 0.2,0.1 0.3,0.2 0.5,0.3 l 4.3,-1.3 c 0,-0.8 0.3,-1.5 0.8,-2.1 l -2.4,-3 h -0.3 c -1.1,0 -2,-0.9 -2,-2 0,-1.1 0.9,-2 2,-2 1.1,0 2,0.9 2,2 0,0.2 0,0.4 -0.1,0.5 l 2.5,3.1 c 0.4,-0.2 0.9,-0.3 1.4,-0.3 0.4,0 0.8,0.1 1.2,0.2 l 2.4,-3.4 c 0,-0.1 -0.1,-0.2 -0.1,-0.3 -0.3,-1.1 0.3,-2.2 1.4,-2.5 1.1,-0.3 2.2,0.3 2.5,1.4 0.3,1.1 -0.3,2.2 -1.4,2.5 -0.2,0.1 -0.4,0.1 -0.5,0.1 l -2.4,3.5 c 0.6,0.7 0.9,1.5 0.9,2.5 v 0.4 l 3.8,1.1 c 0.1,-0.1 0.2,-0.2 0.3,-0.2 0.9,-0.6 2.2,-0.4 2.8,0.5 0.3,0.7 0.1,2 -0.8,2.6 z"
     id="path136" /><path
     class="st0"
     d="m 310.2,403.5 c -2.8,-2.7 -7.7,-3.9 -12.9,-2.8 -1.9,0.4 -3.6,1.1 -5.1,2 0.6,-1.5 1.1,-3.3 1.3,-5.1 0.5,-5.3 -1.3,-10.1 -4.4,-12.5 -0.1,-0.1 -0.1,-0.1 -0.2,-0.1 -0.1,0 -0.2,0 -0.3,0.1 l -3,2.2 c -0.5,0.3 -1.1,0.3 -1.5,-0.2 l -2.2,-2.5 c -0.1,-0.1 -0.3,-0.2 -0.5,-0.2 -0.1,0 -0.3,0 -0.4,0.1 -3.5,1.8 -6.1,6.1 -6.6,11.4 -0.2,1.9 0,3.8 0.4,5.5 -1.3,-1.1 -2.8,-2 -4.5,-2.8 -4.9,-2.1 -10,-1.9 -13.2,0.3 -0.1,0 -0.1,0.1 -0.2,0.2 v 0.3 l 1.1,3.5 c 0.2,0.6 -0.1,1.2 -0.6,1.4 l -3.1,1.3 c -0.2,0.1 -0.3,0.2 -0.4,0.4 -0.1,0.1 -0.1,0.3 0,0.4 0.6,3.8 3.9,7.7 8.8,9.8 1.8,0.8 3.6,1.2 5.4,1.4 -1.4,0.9 -2.8,2 -4,3.4 -3.5,4 -4.9,8.9 -3.8,12.7 0,0.1 0.1,0.2 0.1,0.2 0.1,0.1 0.2,0.1 0.3,0.1 h 3.7 c 0.6,0 1.1,0.4 1.1,1 l 0.3,3.4 c 0,0.2 0.1,0.3 0.2,0.5 0.1,0.1 0.2,0.1 0.3,0.2 3.9,0.6 8.6,-1.4 12.1,-5.3 1.3,-1.5 2.3,-3.1 3,-4.7 0.4,1.6 1.1,3.3 2,4.9 2.7,4.6 7,7.4 10.9,7.5 0.1,0 0.2,0 0.2,-0.1 0.1,-0.1 0.2,-0.1 0.2,-0.3 l 1.1,-3.5 c 0.2,-0.6 0.8,-0.9 1.3,-0.8 l 3.3,0.7 c 0.2,0 0.4,0 0.5,-0.1 l 0.3,-0.3 c 1.7,-3.5 1.4,-8.6 -1.4,-13.1 -1,-1.7 -2.2,-3.1 -3.5,-4.3 1.7,0.1 3.5,0 5.3,-0.4 5.2,-1.2 9.2,-4.3 10.5,-8 V 411 c 0,-0.1 -0.1,-0.2 -0.2,-0.3 l -3,-2.2 c -0.5,-0.3 -0.6,-1 -0.3,-1.5 l 1.7,-2.9 c 0.1,-0.2 0.1,-0.3 0.1,-0.5 0,0.1 -0.1,0 -0.2,-0.1 z m -16,8 c -0.4,1 -1.6,1.5 -2.6,1.1 -0.2,-0.1 -0.3,-0.2 -0.5,-0.3 l -4.2,1.2 c -0.1,0.9 -0.5,1.7 -1.1,2.3 l 1.8,3.7 h 0.2 c 1.1,0.2 1.8,1.3 1.5,2.4 -0.2,1.1 -1.3,1.8 -2.4,1.5 -1.1,-0.2 -1.8,-1.3 -1.5,-2.4 0.1,-0.2 0.2,-0.5 0.3,-0.7 l -1.7,-3.5 c -0.9,0.2 -1.8,0.1 -2.6,-0.4 l -2.8,3.2 c 0,0.1 0.1,0.2 0.1,0.3 0.2,1.1 -0.5,2.1 -1.6,2.3 -1.1,0.2 -2.1,-0.5 -2.3,-1.6 -0.2,-1.1 0.5,-2.1 1.6,-2.3 h 0.5 l 2.9,-3.4 c -0.4,-0.7 -0.6,-1.5 -0.5,-2.2 l -3.6,-1.2 c -0.1,0.1 -0.2,0.1 -0.3,0.2 -0.9,0.6 -2.2,0.3 -2.8,-0.6 -0.6,-0.9 -0.3,-2.2 0.6,-2.8 0.9,-0.6 2.2,-0.3 2.8,0.6 0.1,0.2 0.2,0.3 0.2,0.5 l 3.8,1.3 c 0.3,-0.4 0.6,-0.7 1,-0.9 0.3,-0.2 0.7,-0.4 1.1,-0.5 l 0.2,-4.1 c -0.1,-0.1 -0.2,-0.1 -0.3,-0.2 -0.8,-0.7 -0.9,-2 -0.2,-2.8 0.7,-0.8 2,-0.9 2.8,-0.2 0.8,0.7 0.9,2 0.2,2.8 -0.1,0.1 -0.3,0.3 -0.4,0.3 l -0.2,4.2 c 0.8,0.3 1.6,0.8 2.1,1.6 0.1,0.1 0.1,0.2 0.2,0.3 l 3.8,-1.1 c 0,-0.1 0.1,-0.2 0.1,-0.3 0.4,-1 1.6,-1.5 2.6,-1.1 1.2,0.6 1.6,1.8 1.2,2.8 z"
     id="path138" /><path
     class="st0"
     d="m 235.4,409.3 c -0.9,-3.8 -4.4,-7.5 -9.5,-9.2 -1.8,-0.6 -3.7,-1 -5.4,-1 1.4,-1 2.7,-2.2 3.8,-3.7 3.3,-4.2 4.3,-9.2 2.9,-12.9 0,-0.1 -0.1,-0.1 -0.2,-0.2 -0.1,-0.1 -0.2,-0.1 -0.3,-0.1 l -3.7,0.2 c -0.6,0 -1.1,-0.4 -1.2,-1 l -0.5,-3.3 c 0,-0.2 -0.1,-0.3 -0.3,-0.4 -0.1,-0.1 -0.2,-0.1 -0.4,-0.1 -3.9,-0.3 -8.5,1.9 -11.7,6.1 -1.2,1.5 -2.1,3.2 -2.6,4.9 -0.5,-1.6 -1.3,-3.2 -2.3,-4.7 -3,-4.4 -7.4,-6.9 -11.4,-6.8 -0.1,0 -0.2,0 -0.2,0.1 -0.1,0.1 -0.2,0.2 -0.2,0.3 l -0.9,3.6 c -0.1,0.6 -0.7,0.9 -1.3,0.8 l -3.3,-0.5 c -0.2,0 -0.4,0 -0.5,0.1 -0.1,0.1 -0.2,0.2 -0.2,0.3 -1.5,3.6 -0.8,8.7 2.2,13 1.1,1.6 2.4,3 3.8,4 -1.7,0 -3.4,0.2 -5.2,0.7 -5.1,1.5 -8.9,4.9 -10,8.7 v 0.3 c 0,0.1 0.1,0.2 0.2,0.3 l 3.1,2 c 0.5,0.3 0.7,1 0.4,1.5 l -1.5,3 c -0.1,0.2 -0.1,0.3 0,0.5 0,0.1 0.1,0.2 0.2,0.3 2.9,2.6 8,3.4 13.1,1.9 1.9,-0.6 3.5,-1.4 5,-2.4 -0.5,1.6 -0.9,3.3 -0.9,5.2 -0.1,5.3 1.9,10 5.2,12.2 0.1,0 0.2,0.1 0.2,0.1 0.1,0 0.2,0 0.3,-0.1 l 2.8,-2.4 c 0.5,-0.4 1.1,-0.3 1.5,0.1 l 2.4,2.4 c 0.1,0.1 0.3,0.2 0.5,0.2 0.1,0 0.3,0 0.4,-0.1 3.3,-2 5.7,-6.5 5.9,-11.8 0,-1.9 -0.2,-3.8 -0.7,-5.5 1.3,1 2.9,1.9 4.7,2.5 5,1.8 10.1,1.2 13.2,-1.2 0.1,-0.1 0.1,-0.1 0.1,-0.2 v -0.3 l -1.4,-3.4 c -0.2,-0.5 0,-1.2 0.5,-1.4 l 3,-1.5 c 0.2,-0.1 0.3,-0.2 0.3,-0.4 0.1,-0.5 0.2,-0.6 0.1,-0.7 z m -17.8,-1.8 c -0.9,0.6 -2.2,0.4 -2.8,-0.5 -0.1,-0.2 -0.2,-0.3 -0.2,-0.5 l -4.2,-1.2 c -0.5,0.7 -1.3,1.2 -2.2,1.4 l -0.4,4.1 0.1,0.1 c 0.8,0.8 0.8,2.1 0,2.8 -0.8,0.7 -2.1,0.8 -2.8,0 -0.8,-0.8 -0.8,-2.1 0,-2.8 0.2,-0.2 0.4,-0.3 0.6,-0.4 l 0.4,-3.9 c -0.8,-0.3 -1.6,-0.9 -2,-1.7 l -4.1,1.3 c 0,0.1 0,0.2 -0.1,0.3 -0.4,1 -1.6,1.5 -2.6,1.1 -1,-0.4 -1.5,-1.6 -1.1,-2.6 0.4,-1 1.6,-1.5 2.6,-1.1 0.2,0.1 0.3,0.2 0.5,0.3 l 4.3,-1.3 c 0,-0.8 0.3,-1.5 0.8,-2.1 l -2.4,-3 h -0.3 c -1.1,0 -2,-0.9 -2,-2 0,-1.1 0.9,-2 2,-2 1.1,0 2,0.9 2,2 0,0.2 0,0.4 -0.1,0.5 l 2.5,3.1 c 0.4,-0.2 0.9,-0.3 1.4,-0.3 0.4,0 0.8,0.1 1.2,0.2 l 2.4,-3.4 c 0,-0.1 -0.1,-0.2 -0.1,-0.3 -0.3,-1.1 0.3,-2.2 1.4,-2.5 1.1,-0.3 2.2,0.3 2.5,1.4 0.3,1.1 -0.3,2.2 -1.4,2.5 -0.2,0.1 -0.4,0.1 -0.5,0.1 l -2.4,3.5 c 0.6,0.7 0.9,1.5 0.9,2.5 v 0.4 l 3.8,1.1 c 0.1,-0.1 0.2,-0.2 0.3,-0.2 0.9,-0.6 2.2,-0.4 2.8,0.5 0.4,0.7 0.1,2 -0.8,2.6 z"
     id="path140" /><path
     class="st0"
     d="m 228,303.1 c 0.8,-3.8 -0.8,-8.6 -4.6,-12.4 -1.4,-1.4 -2.9,-2.4 -4.5,-3.2 1.7,-0.3 3.3,-0.9 5,-1.7 4.7,-2.5 7.8,-6.5 8.1,-10.4 0,-0.1 0,-0.2 -0.1,-0.2 -0.1,-0.1 -0.1,-0.2 -0.2,-0.2 l -3.4,-1.3 c -0.5,-0.2 -0.8,-0.8 -0.7,-1.4 l 0.9,-3.2 c 0,-0.2 0,-0.4 -0.1,-0.5 l -0.3,-0.3 c -3.4,-2 -8.5,-1.9 -13.2,0.6 -1.7,0.9 -3.2,2 -4.5,3.3 0.2,-1.7 0.2,-3.4 -0.1,-5.3 -0.9,-5.3 -3.8,-9.5 -7.4,-11 h -0.3 c -0.1,0 -0.2,0.1 -0.3,0.2 l -2.3,2.8 c -0.4,0.5 -1,0.5 -1.5,0.2 l -2.8,-1.9 c -0.1,-0.1 -0.3,-0.1 -0.5,-0.1 -0.1,0 -0.3,0.1 -0.3,0.2 -2.9,2.6 -4.4,7.5 -3.5,12.7 0.3,1.9 0.9,3.7 1.7,5.2 -1.5,-0.7 -3.2,-1.3 -5,-1.6 -5.3,-0.8 -10.2,0.7 -12.7,3.6 -0.1,0.1 -0.1,0.1 -0.1,0.2 0,0.1 0,0.2 0.1,0.3 l 2,3.1 c 0.3,0.5 0.2,1.1 -0.3,1.5 l -2.7,2.1 c -0.1,0.1 -0.2,0.3 -0.3,0.4 v 0.4 c 1.6,3.6 5.8,6.5 11,7.3 1.9,0.3 3.8,0.3 5.5,0 -1.2,1.2 -2.2,2.7 -3,4.3 -2.4,4.8 -2.5,9.9 -0.5,13.2 0,0.1 0.1,0.1 0.2,0.2 0.1,0 0.2,0.1 0.3,0 l 3.6,-0.9 c 0.6,-0.1 1.2,0.2 1.4,0.7 l 1.1,3.2 c 0.1,0.2 0.2,0.3 0.3,0.4 0.1,0.1 0.2,0.1 0.4,0.1 3.9,-0.4 8,-3.5 10.3,-8.2 0.9,-1.7 1.4,-3.5 1.7,-5.3 0.8,1.5 1.8,2.9 3.2,4.2 3.8,3.8 8.6,5.4 12.4,4.5 0.1,0 0.2,-0.1 0.2,-0.1 0.1,-0.1 0.1,-0.2 0.1,-0.3 l 0.2,-3.7 c 0,-0.6 0.5,-1 1.1,-1.1 l 3.4,-0.1 c 0.2,0 0.3,-0.1 0.5,-0.2 0.4,0 0.5,-0.2 0.5,-0.3 z M 212.6,294 c -1.1,0.2 -2.1,-0.6 -2.3,-1.6 v -0.5 L 207,289 c -0.8,0.4 -1.7,0.5 -2.5,0.3 l -2.1,3.5 c 0,0.1 0.1,0.1 0.1,0.1 0.4,1 -0.2,2.2 -1.2,2.6 -1,0.4 -2.2,-0.2 -2.6,-1.2 -0.4,-1 0.2,-2.2 1.2,-2.6 0.2,-0.1 0.5,-0.1 0.7,-0.1 l 2,-3.4 c -0.6,-0.6 -1,-1.5 -1.1,-2.4 l -4.2,-0.6 c -0.1,0.1 -0.1,0.2 -0.2,0.2 -0.8,0.8 -2.1,0.7 -2.8,-0.1 -0.8,-0.8 -0.7,-2.1 0.1,-2.8 0.8,-0.8 2.1,-0.7 2.8,0.1 0.1,0.1 0.2,0.3 0.3,0.5 l 4.5,0.6 c 0.4,-0.7 0.9,-1.3 1.6,-1.6 l -0.9,-3.7 c -0.1,0 -0.2,-0.1 -0.3,-0.1 -1,-0.5 -1.4,-1.7 -1,-2.7 0.5,-1 1.7,-1.4 2.7,-1 1,0.5 1.4,1.7 1,2.7 -0.1,0.2 -0.2,0.3 -0.3,0.5 l 1,3.9 c 0.5,0 0.9,0.1 1.3,0.4 0.4,0.2 0.7,0.4 1,0.7 l 3.6,-2.1 v -0.3 c 0.2,-1.1 1.2,-1.8 2.3,-1.7 1.1,0.2 1.8,1.2 1.7,2.3 -0.2,1.1 -1.2,1.8 -2.3,1.7 -0.2,0 -0.4,-0.1 -0.5,-0.2 l -3.6,2.1 c 0.2,0.8 0.2,1.8 -0.2,2.6 -0.1,0.1 -0.1,0.2 -0.2,0.3 l 3,2.6 c 0.1,0 0.2,-0.1 0.3,-0.1 1.1,-0.2 2.1,0.6 2.3,1.6 0,1.1 -0.8,2.2 -1.9,2.4 z"
     id="path142" /><path
     class="st0"
     d="m 355,378.4 c -0.9,0 -1.8,-0.1 -2.8,-0.2 -1.6,-0.2 -3.3,-0.7 -4.7,-1.7 -1.4,-1 -2.3,-2.6 -2.8,-4.3 -0.5,-1.7 -0.5,-3.4 -0.3,-5.1 0.6,-6.5 4.3,-12.7 10,-15.8 2,-1.1 4.2,-1.8 6.5,-1.8 1,0 5.9,0 4.8,2.2 -0.3,0.5 -0.9,0.9 -1.4,1.1 -1.6,0.8 -3.3,1.5 -4.7,2.5 -1.4,1 -2.6,2.6 -2.8,4.4 3.1,-2.7 6.7,-4.8 10.5,-6.1 0.7,-0.2 1.4,-0.5 2.1,-0.4 1,0.2 1.8,0.9 2.4,1.7 0.7,0.9 1.2,1.9 1.5,3 0.2,0.6 0.3,1.2 0.1,1.7 -0.2,0.5 -0.6,0.9 -1,1.3 -3,2.9 -6.6,5.3 -10.4,7 -0.4,0.2 -0.8,0.6 -0.5,0.9 0.1,0.1 0.3,0.1 0.5,0.1 2.4,-0.4 4.7,-1.3 6.8,-2.7 1.2,-0.8 2.4,-1.8 3.8,-2 0.6,-0.1 1.2,0 1.5,0.5 0.2,0.3 0.1,0.7 0.1,1.1 -0.5,2.1 -1.6,3.9 -3,5.5 -4,4.5 -10.1,7.2 -16.2,7.1 z"
     id="path178" /><path
     class="st0"
     d="m 340.7,341.3 c 0.4,-3.9 -1.7,-8.5 -5.8,-11.9 -1.5,-1.2 -3.1,-2.2 -4.8,-2.8 1.6,-0.4 3.2,-1.2 4.8,-2.2 4.5,-2.9 7.2,-7.2 7.1,-11.2 0,-0.1 0,-0.2 -0.1,-0.2 -0.1,-0.1 -0.2,-0.2 -0.3,-0.2 l -3.5,-1 c -0.6,-0.2 -0.9,-0.7 -0.8,-1.3 l 0.6,-3.3 c 0,-0.2 0,-0.4 -0.1,-0.5 l -0.3,-0.3 c -3.5,-1.6 -8.6,-1.1 -13.1,1.8 -1.6,1.1 -3,2.3 -4.1,3.7 0.1,-1.7 -0.1,-3.5 -0.6,-5.2 -1.4,-5.2 -4.7,-9.1 -8.4,-10.2 H 311 c -0.1,0 -0.2,0.1 -0.3,0.2 l -2.1,3.1 c -0.3,0.5 -1,0.6 -1.5,0.4 l -3,-1.6 c -0.2,-0.1 -0.3,-0.1 -0.5,-0.1 -0.1,0 -0.2,0.1 -0.3,0.2 -2.6,2.9 -3.7,7.9 -2.3,13 0.5,1.9 1.3,3.6 2.2,5.1 -1.6,-0.6 -3.3,-1 -5.2,-1.1 -5.3,-0.3 -10.1,1.6 -12.3,4.8 0,0.1 -0.1,0.2 -0.1,0.2 0,0.1 0,0.2 0.1,0.3 l 2.3,2.9 c 0.4,0.5 0.3,1.1 -0.1,1.5 l -2.4,2.3 c -0.1,0.1 -0.2,0.3 -0.2,0.5 0,0.1 0,0.3 0.1,0.4 1.9,3.4 6.4,5.9 11.7,6.2 1.9,0.1 3.8,-0.1 5.5,-0.6 -1,1.3 -1.9,2.9 -2.6,4.6 -1.9,5 -1.5,10.1 0.8,13.2 l 0.2,0.2 h 0.3 l 3.5,-1.3 c 0.6,-0.2 1.2,0.1 1.4,0.6 l 1.4,3 c 0.1,0.2 0.2,0.3 0.4,0.4 0.1,0 0.3,0.1 0.4,0 3.8,-0.8 7.6,-4.2 9.5,-9.2 0.7,-1.8 1.1,-3.6 1.2,-5.4 0.9,1.4 2.1,2.7 3.6,3.9 4.1,3.4 9.1,4.6 12.8,3.3 0.1,0 0.2,-0.1 0.2,-0.1 0.1,-0.1 0.1,-0.2 0.1,-0.3 l -0.1,-3.7 c 0,-0.6 0.4,-1.1 1,-1.2 l 3.3,-0.4 c 0.2,0 0.3,-0.1 0.4,-0.3 0.2,0 0.3,-0.1 0.3,-0.2 z m -16.2,-7.7 c -1.1,0.3 -2.2,-0.3 -2.5,-1.4 0,-0.2 -0.1,-0.4 -0.1,-0.5 l -3.5,-2.5 c -0.7,0.5 -1.6,0.7 -2.5,0.5 l -1.8,3.7 0.1,0.1 c 0.5,1 0,2.2 -1,2.7 -1,0.5 -2.2,0 -2.7,-1 -0.5,-1 0,-2.2 1,-2.7 0.2,-0.1 0.5,-0.2 0.7,-0.2 l 1.7,-3.5 c -0.7,-0.6 -1.2,-1.4 -1.3,-2.3 l -4.3,-0.2 c -0.1,0.1 -0.1,0.2 -0.2,0.3 -0.7,0.8 -2,0.9 -2.8,0.2 -0.8,-0.7 -0.9,-2 -0.2,-2.8 0.7,-0.8 2,-0.9 2.8,-0.2 l 0.4,0.4 4.5,0.2 c 0.3,-0.7 0.8,-1.3 1.4,-1.7 l -1.3,-3.6 c -0.1,0 -0.2,0 -0.3,-0.1 -1,-0.4 -1.6,-1.5 -1.2,-2.6 0.4,-1.1 1.5,-1.6 2.6,-1.2 1,0.4 1.6,1.5 1.2,2.6 -0.1,0.2 -0.2,0.3 -0.3,0.5 l 1.3,3.8 c 0.5,0 0.9,0.1 1.4,0.2 0.4,0.1 0.7,0.3 1,0.6 l 3.4,-2.4 v -0.3 c 0.1,-1.1 1,-2 2.1,-1.9 1.1,0.1 2,1 1.9,2.1 -0.1,1.1 -1,2 -2.1,1.9 -0.2,0 -0.4,-0.1 -0.5,-0.1 l -3.4,2.4 c 0.3,0.8 0.3,1.7 0,2.6 0,0.1 -0.1,0.2 -0.1,0.4 l 3.2,2.3 c 0.1,0 0.2,-0.1 0.3,-0.1 1.1,-0.3 2.2,0.3 2.5,1.4 0.3,1 -0.3,2.1 -1.4,2.4 z"
     id="path182" /><path
     class="st0"
     d="m 449.6,339.9 c 1.4,-3.1 0.9,-7.4 -1.6,-11.2 -0.9,-1.4 -2,-2.6 -3.2,-3.5 1.4,0.1 3,-0.1 4.5,-0.5 4.4,-1.2 7.8,-4 8.8,-7.3 v -0.2 c 0,-0.1 -0.1,-0.2 -0.2,-0.2 l -2.6,-1.8 c -0.4,-0.3 -0.6,-0.8 -0.3,-1.3 l 1.4,-2.5 c 0.1,-0.1 0.1,-0.3 0.1,-0.4 0,-0.1 -0.1,-0.2 -0.2,-0.3 -2.5,-2.3 -6.8,-3.1 -11.2,-1.9 -1.6,0.4 -3.1,1.1 -4.3,1.9 0.5,-1.4 0.8,-2.9 0.9,-4.4 0.2,-4.6 -1.4,-8.6 -4.2,-10.6 -0.1,0 -0.1,-0.1 -0.2,-0.1 -0.1,0 -0.2,0 -0.3,0.1 l -2.5,2 c -0.4,0.3 -1,0.3 -1.3,-0.1 l -2,-2.1 c -0.1,-0.1 -0.2,-0.2 -0.4,-0.2 -0.1,0 -0.2,0 -0.3,0.1 -2.9,1.7 -5.1,5.5 -5.3,10 -0.1,1.7 0.1,3.3 0.5,4.7 -1.1,-0.9 -2.5,-1.7 -3.9,-2.2 -4.3,-1.6 -8.7,-1.3 -11.3,0.7 -0.1,0 -0.1,0.1 -0.1,0.2 v 0.3 l 1.1,3 c 0.2,0.5 0,1 -0.5,1.2 l -2.6,1.2 -0.3,0.3 c 0,0.1 -0.1,0.2 0,0.3 0.7,3.3 3.6,6.5 7.9,8.1 1.6,0.6 3.1,0.9 4.6,1 -1.2,0.8 -2.3,1.8 -3.3,3.1 -2.9,3.6 -3.9,7.8 -2.8,11 0,0.1 0.1,0.1 0.1,0.2 0.1,0.1 0.2,0.1 0.3,0.1 l 3.2,-0.1 c 0.5,0 0.9,0.3 1,0.8 l 0.4,2.9 c 0,0.2 0.1,0.3 0.2,0.4 0.1,0.1 0.2,0.1 0.3,0.1 3.3,0.4 7.3,-1.5 10.2,-5 1.1,-1.3 1.8,-2.7 2.4,-4.1 0.4,1.4 1,2.8 1.9,4.1 2.5,3.8 6.2,6.1 9.6,6.1 0.1,0 0.1,0 0.2,-0.1 l 0.2,-0.2 0.9,-3 c 0.1,-0.5 0.6,-0.8 1.1,-0.7 l 2.8,0.5 c 0.2,0 0.3,0 0.4,-0.1 -0.2,-0.2 -0.1,-0.2 -0.1,-0.3 z m -11.2,-10.5 c -1,0 -1.7,-0.9 -1.6,-1.8 0,-0.2 0,-0.3 0.1,-0.5 l -2.2,-3 c -0.7,0.2 -1.5,0.1 -2.2,-0.2 l -2.4,2.5 v 0.1 c 0.1,0.9 -0.5,1.8 -1.5,1.9 -0.9,0.1 -1.8,-0.5 -1.9,-1.5 -0.1,-0.9 0.5,-1.8 1.5,-1.9 h 0.6 l 2.3,-2.5 c -0.4,-0.7 -0.6,-1.4 -0.5,-2.2 l -3.4,-1.3 -0.2,0.2 c -0.8,0.5 -1.9,0.2 -2.4,-0.6 -0.5,-0.8 -0.2,-1.9 0.6,-2.4 0.8,-0.5 1.9,-0.2 2.4,0.6 0.1,0.1 0.1,0.3 0.2,0.4 l 3.6,1.3 c 0.4,-0.5 1,-0.9 1.6,-1.1 l -0.1,-3.3 c -0.1,0 -0.2,-0.1 -0.2,-0.1 -0.8,-0.6 -0.9,-1.7 -0.3,-2.4 0.6,-0.8 1.7,-0.9 2.4,-0.3 0.7,0.6 0.9,1.7 0.3,2.4 l -0.3,0.3 0.1,3.4 c 0.4,0.1 0.7,0.3 1.1,0.5 0.3,0.2 0.5,0.5 0.7,0.7 l 3.4,-1.1 c 0,-0.1 0,-0.2 0.1,-0.3 0.3,-0.9 1.3,-1.3 2.2,-1 0.9,0.3 1.3,1.3 1,2.2 -0.3,0.9 -1.3,1.3 -2.2,1 -0.2,-0.1 -0.3,-0.1 -0.4,-0.2 l -3.5,1.1 c 0,0.7 -0.2,1.5 -0.7,2.1 -0.1,0.1 -0.1,0.2 -0.2,0.3 l 2,2.8 h 0.3 c 1,0 1.7,0.9 1.6,1.8 -0.1,1.4 -0.9,2.1 -1.9,2.1 z"
     id="path192" /><path
     class="st0"
     d="m 271.3,598.9 c 0.4,-1.3 0.3,-2.5 -0.6,-3.5 -1.1,-1.3 -2.6,-1.9 -4.1,-2.3 -3.4,-0.9 -6.8,-0.6 -10.1,-0.2 -4.3,0.5 -8.3,2 -12.2,3.8 -4.5,2.2 -8.5,4.7 -12.5,7.8 -0.6,-5.5 -1.9,-10.7 -3.9,-15.9 -2.1,-5.3 -4.9,-9.9 -9,-13.9 -1.7,-1.6 -3.5,-3 -5.8,-3.8 -2,-0.7 -3.8,-0.2 -4.9,1.4 -0.5,0.7 -0.8,1.6 -1,2.5 -0.5,2.1 -0.6,4.3 -0.7,6.3 -0.1,2.9 -0.2,5.8 -1.1,8.7 -0.4,1.4 -0.6,3.1 -0.2,4.6 0.3,1.5 1.2,2.5 2.5,3.1 0.7,0.2 1.3,0.6 2.1,1 -0.2,0 -0.3,0.1 -0.4,0.1 -1.8,0.4 -3.5,1 -5.1,2 -0.8,0.4 -1.3,1.1 -1.7,2 -0.4,0.9 -0.7,1.8 -1.1,2.5 -0.5,0.9 -0.6,1.7 -0.6,2.6 0.1,0.3 0.1,0.6 -0.1,0.9 -0.3,0.8 -0.5,1.5 -0.8,2.3 -0.4,0.9 -0.3,1.7 0.5,2.4 0.8,0.8 1.3,1.8 1.4,2.9 0.1,1.2 0.6,2 1.5,2.7 0.5,0.4 0.9,0.8 1.2,1.3 0.6,1.3 1.6,1.9 2.9,2.2 0.5,0.1 1,0.2 1.4,0.6 0.8,0.6 1.8,0.7 2.8,0.7 0.8,0.1 1.6,0 2.4,-0.1 1.2,-0.1 2.2,-0.5 3.2,-1.1 3.5,-2.3 6.9,-4.8 10.2,-7.3 0.7,4 1.2,8 2,12 0.1,0.4 0.2,1 0.4,1.4 0.7,1.6 1.9,2.9 3.3,4 0.4,0.3 0.9,0.5 1.3,0.8 0.6,0.3 1.2,0.5 1.8,0.8 1.1,0.5 2.1,0.9 3.4,0.5 0.6,-0.2 1.3,-0.2 2,-0.2 1.2,0.1 2.1,-0.2 3.1,-0.9 0.5,-0.4 0.9,-0.6 1.5,-0.8 0.6,-0.2 1.2,-0.2 1.8,-0.3 0.7,0 1.1,-0.3 1.4,-0.9 0.4,-0.8 0.7,-1.5 1.2,-2.3 0.2,-0.4 0.5,-0.9 0.8,-1.1 0.9,-0.6 1.3,-1.4 1.6,-2.5 0.2,-0.6 0.4,-1.3 0.8,-1.9 0.4,-0.7 0.6,-1.3 0.5,-2.1 -0.3,-2 -1,-3.9 -2.1,-5.5 -0.1,-0.2 -0.2,-0.4 -0.4,-0.7 1,0.3 1.8,0.6 2.6,0.8 1.1,0.3 2,0.2 3,-0.2 1.9,-0.9 3.1,-2.6 4.1,-4.4 0.8,-1.4 1.7,-2.7 2.8,-3.9 1.5,-1.7 3,-3.3 4.5,-5 1,-0.9 1.8,-2.4 2.4,-3.9 z"
     id="path194" /><path
     class="st0"
     d="m 573.3,281.1 c -0.5,-0.4 -0.5,-0.9 -0.3,-1.4 0.3,-1 -0.1,-1.7 -0.8,-2.3 -0.6,-0.5 -0.9,-1 -1,-1.8 -0.2,-1.1 -0.8,-1.8 -1.8,-2.1 -1.2,-0.4 -2.3,-0.8 -3.6,-1 -1.8,-0.4 -3.6,-0.6 -5.4,-0.4 -0.7,0.1 -1.5,0.1 -2.4,0.3 l 0.4,-0.4 c 2.7,-2.2 4.1,-5.2 4.6,-8.5 0.6,-3.9 -0.1,-7.6 -1.2,-11.3 -1,-3.3 -2,-6.7 -3.5,-9.9 -0.8,-1.9 -1.8,-4.1 -4.2,-3.9 -1.1,0.1 -2.1,0.6 -2.9,1.4 -1.2,1 -2.1,2.2 -2.9,3.5 -1.2,2 -2.1,4.2 -2.7,6.5 -0.1,0.3 -0.2,0.5 -0.3,0.8 -1.6,-1.6 -3.2,-3.3 -5.2,-4.4 -0.5,-0.3 -1,-0.5 -1.6,-0.5 -0.7,0 -1.4,0.3 -1.8,0.8 -1,1 -1.5,2.3 -1.8,3.7 -0.5,2.5 -0.5,5 -0.2,7.6 0.4,3 1.2,5.9 2.2,8.7 1.5,4.1 3.5,8 5.6,11.8 0.5,0.8 1,1.6 1.5,2.5 0.1,0.1 0.1,0.1 0.2,0.3 0.4,0.7 0.8,1.3 1.2,2 l 1.2,2.1 c 0.1,0.2 0.3,0.5 0.3,0.7 1.9,0.9 4.2,1.2 6.1,1.8 2.1,0.7 4,1.6 5.9,2.5 1.5,0.5 3,0.8 4.6,0.5 0.5,-0.1 1,-0.3 1.4,-0.6 0.2,-0.1 0.3,-0.3 0.5,-0.3 0.3,-0.1 0.6,0.1 0.8,0.1 0.3,0.1 0.7,0.1 1,0.1 0.7,0 1.4,-0.1 2.2,-0.3 1.6,-0.5 2.8,-1.6 3.7,-2.9 0.5,-0.7 0.5,-0.6 0.6,-1 0.1,-0.5 0.3,-0.8 0.3,-1 0.4,-1.6 0.4,-2.8 -0.7,-3.7 z"
     id="path198" /><path
     class="st0"
     d="m 239.9,496.1 c 0.1,0.2 0.2,0.5 0.3,0.9 0.1,0.3 0.1,0.3 0.5,0.8 0.8,1.1 1.7,2 3.1,2.4 0.6,0.2 1.2,0.2 1.8,0.2 0.3,0 0.5,-0.1 0.8,-0.1 0.2,-0.1 0.5,-0.2 0.7,-0.1 0.2,0.1 0.3,0.2 0.4,0.3 0.4,0.3 0.8,0.4 1.2,0.5 1.4,0.2 2.6,0 3.9,-0.4 1.6,-0.8 3.2,-1.5 4.9,-2.1 1.6,-0.5 3.5,-0.7 5.1,-1.5 0.1,-0.2 0.2,-0.4 0.3,-0.5 0.3,-0.6 0.7,-1.1 1,-1.7 0.3,-0.5 0.7,-1.1 1,-1.6 0.1,-0.1 0.1,-0.2 0.2,-0.2 0.4,-0.7 0.9,-1.4 1.3,-2.1 1.8,-3.2 3.4,-6.4 4.7,-9.8 0.8,-2.4 1.5,-4.8 1.8,-7.3 0.3,-2.1 0.3,-4.2 -0.2,-6.3 -0.2,-1.1 -0.7,-2.2 -1.5,-3 -0.4,-0.4 -0.9,-0.7 -1.5,-0.7 -0.5,0 -0.9,0.2 -1.4,0.4 -1.7,0.9 -3,2.4 -4.4,3.7 -0.1,-0.2 -0.2,-0.4 -0.3,-0.7 -0.5,-1.9 -1.3,-3.7 -2.3,-5.4 -0.7,-1.1 -1.4,-2.1 -2.4,-2.9 -0.7,-0.7 -1.5,-1.1 -2.4,-1.1 -2,-0.2 -2.8,1.7 -3.5,3.3 -1.3,2.7 -2,5.5 -2.9,8.3 -1,3.1 -1.5,6.2 -1,9.4 0.4,2.8 1.6,5.3 3.9,7.1 l 0.3,0.3 c -0.8,-0.1 -1.4,-0.2 -2,-0.2 -1.5,-0.2 -3,0 -4.5,0.3 -1,0.2 -2,0.5 -3,0.9 -0.8,0.3 -1.4,0.8 -1.5,1.7 -0.1,0.6 -0.4,1.1 -0.9,1.5 -0.6,0.5 -0.9,1.1 -0.7,1.9 0.2,0.4 0.1,0.9 -0.3,1.2 -0.9,0.6 -1,1.5 -0.5,2.6 z"
     id="path202" /><path
     class="st0"
     d="m 356.6,275.3 c 0.1,0.3 0.2,0.6 0.3,1 0.1,0.4 0.1,0.3 0.6,1 0.9,1.3 2.1,2.3 3.7,2.9 0.7,0.2 1.4,0.3 2.2,0.3 0.3,0 0.7,-0.1 1,-0.1 0.3,-0.1 0.6,-0.2 0.8,-0.1 0.2,0.1 0.3,0.2 0.5,0.3 0.5,0.3 0.9,0.5 1.4,0.6 1.6,0.3 3.1,0 4.6,-0.5 2,-0.9 3.9,-1.8 5.9,-2.5 2,-0.6 4.2,-0.8 6.1,-1.8 0.1,-0.2 0.2,-0.5 0.3,-0.7 l 1.2,-2.1 c 0.4,-0.7 0.8,-1.3 1.2,-2 0.1,-0.1 0.1,-0.2 0.2,-0.3 0.5,-0.8 1,-1.6 1.5,-2.5 2.2,-3.8 4.1,-7.7 5.6,-11.8 1,-2.9 1.8,-5.7 2.2,-8.7 0.3,-2.5 0.3,-5 -0.2,-7.6 -0.3,-1.3 -0.8,-2.7 -1.8,-3.7 -0.5,-0.5 -1.1,-0.8 -1.8,-0.8 -0.6,0 -1.1,0.3 -1.6,0.5 -2,1.1 -3.6,2.9 -5.2,4.4 -0.1,-0.3 -0.3,-0.5 -0.3,-0.8 -0.7,-2.3 -1.6,-4.4 -2.7,-6.5 -0.8,-1.3 -1.7,-2.5 -2.9,-3.5 -0.8,-0.8 -1.8,-1.3 -2.9,-1.4 -2.4,-0.2 -3.4,2 -4.2,3.9 -1.5,3.2 -2.4,6.6 -3.5,9.9 -1.2,3.7 -1.8,7.4 -1.2,11.3 0.5,3.4 1.9,6.4 4.6,8.5 l 0.4,0.4 c -0.9,-0.1 -1.7,-0.2 -2.4,-0.3 -1.8,-0.2 -3.7,0 -5.4,0.4 -1.2,0.3 -2.4,0.7 -3.6,1 -1,0.3 -1.6,1 -1.8,2.1 -0.1,0.7 -0.5,1.3 -1,1.8 -0.7,0.6 -1,1.3 -0.8,2.3 0.2,0.5 0.1,1 -0.3,1.4 -1.2,1.2 -1.2,2.4 -0.7,3.7 z"
     id="path206" /><path
     class="st0"
     d="m 243.4,362.1 c 1.1,-3.7 -0.2,-8.7 -3.7,-12.7 -1.3,-1.5 -2.7,-2.6 -4.2,-3.5 1.7,-0.2 3.4,-0.6 5.1,-1.4 4.9,-2.1 8.3,-6 8.9,-9.8 v -0.2 c 0,-0.1 -0.1,-0.2 -0.2,-0.2 l -3.3,-1.6 c -0.5,-0.3 -0.8,-0.9 -0.6,-1.4 l 1.2,-3.2 c 0.1,-0.2 0.1,-0.4 0,-0.5 -0.1,-0.1 -0.1,-0.2 -0.2,-0.3 -3.2,-2.2 -8.3,-2.5 -13.2,-0.4 -1.8,0.8 -3.4,1.8 -4.7,3 0.3,-1.6 0.5,-3.4 0.3,-5.3 -0.5,-5.3 -3.1,-9.7 -6.6,-11.5 -0.1,0 -0.2,-0.1 -0.2,0 -0.1,0 -0.2,0.1 -0.3,0.1 l -2.5,2.7 c -0.4,0.4 -1.1,0.5 -1.5,0.1 l -2.6,-2.1 c -0.1,-0.1 -0.3,-0.2 -0.5,-0.1 -0.1,0 -0.3,0.1 -0.4,0.1 -3.1,2.4 -4.9,7.2 -4.4,12.5 0.2,1.9 0.7,3.7 1.4,5.4 -1.5,-0.8 -3.1,-1.5 -4.9,-1.9 -5.2,-1.2 -10.2,0 -12.9,2.7 -0.1,0.1 -0.1,0.1 -0.1,0.2 v 0.3 l 1.8,3.2 c 0.3,0.5 0.1,1.2 -0.4,1.5 l -2.8,1.9 c -0.1,0.1 -0.3,0.3 -0.3,0.4 v 0.4 c 1.3,3.7 5.3,6.9 10.5,8.1 1.9,0.4 3.8,0.5 5.5,0.4 -1.2,1.1 -2.4,2.5 -3.3,4.1 -2.7,4.6 -3.2,9.7 -1.4,13.2 0,0.1 0.1,0.1 0.2,0.2 0.1,0.1 0.2,0.1 0.3,0.1 l 3.6,-0.7 c 0.6,-0.1 1.1,0.2 1.3,0.8 l 0.9,3.2 c 0,0.2 0.2,0.3 0.3,0.4 0.1,0.1 0.2,0.1 0.4,0.1 3.9,-0.1 8.2,-2.9 10.9,-7.5 1,-1.7 1.7,-3.4 2,-5.1 0.7,1.5 1.6,3 2.9,4.4 3.5,4 8.2,6 12.1,5.4 0.1,0 0.2,-0.1 0.2,-0.1 0.1,-0.1 0.1,-0.2 0.2,-0.3 l 0.5,-3.6 c 0.1,-0.6 0.6,-1 1.2,-1 l 3.4,0.1 c 0.2,0 0.4,-0.1 0.5,-0.2 -0.5,-0.1 -0.4,-0.2 -0.4,-0.4 z m -14.6,-10.2 c -1.1,0.1 -2.1,-0.7 -2.2,-1.8 v -0.5 l -3,-3.1 c -0.8,0.3 -1.7,0.4 -2.6,0.1 l -2.3,3.3 c 0,0.1 0,0.1 0.1,0.2 0.3,1.1 -0.3,2.2 -1.4,2.5 -1.1,0.3 -2.2,-0.3 -2.5,-1.4 -0.3,-1.1 0.3,-2.2 1.4,-2.5 0.2,-0.1 0.5,-0.1 0.7,-0.1 l 2.3,-3.2 c -0.6,-0.7 -0.9,-1.5 -0.9,-2.4 l -4.2,-0.9 c -0.1,0.1 -0.1,0.2 -0.2,0.2 -0.9,0.7 -2.1,0.6 -2.8,-0.3 -0.7,-0.9 -0.6,-2.1 0.3,-2.8 0.9,-0.7 2.1,-0.6 2.8,0.3 0.1,0.1 0.2,0.3 0.3,0.5 l 4.4,0.9 c 0.4,-0.7 1,-1.2 1.7,-1.5 l -0.7,-3.8 c -0.1,0 -0.2,-0.1 -0.3,-0.1 -1,-0.5 -1.3,-1.8 -0.8,-2.7 0.5,-1 1.8,-1.3 2.7,-0.8 0.9,0.5 1.3,1.8 0.8,2.7 -0.1,0.2 -0.2,0.3 -0.3,0.4 l 0.7,3.9 c 0.5,0.1 0.9,0.2 1.3,0.4 0.4,0.2 0.7,0.4 0.9,0.7 l 3.7,-1.8 V 338 c 0.2,-1.1 1.3,-1.8 2.4,-1.5 1.1,0.2 1.8,1.3 1.5,2.4 -0.2,1.1 -1.3,1.8 -2.4,1.5 -0.2,0 -0.4,-0.1 -0.5,-0.2 l -3.8,1.9 c 0.2,0.9 0,1.8 -0.4,2.6 -0.1,0.1 -0.1,0.2 -0.2,0.3 l 2.8,2.8 c 0.1,0 0.2,-0.1 0.3,-0.1 1.1,-0.1 2.1,0.7 2.2,1.8 0.1,1.3 -0.7,2.3 -1.8,2.4 z"
     id="path218" /><path
     class="st1"
     d="m 492.3,320.7 c -0.5,0.1 -1,-0.4 -1.3,-0.9 -2.7,-3.8 -5.4,-7.6 -8.2,-11.4 -3.2,-4.5 -8.4,-8.1 -13.2,-10.9 -5.1,-3 -10.7,-5.2 -16.4,-6.3 -5.7,-1.1 -11.5,0 -17.2,0.6 -5.5,0.5 -10.7,-0.5 -15.8,-2.5 -2.1,-0.8 -4.1,-1.7 -6.1,-2.5 -3.8,-1.5 -7.5,-2.6 -11.6,-1.7 -3.4,0.7 -6.4,2.5 -9.2,4.4 -5.7,4.1 -10.3,9.4 -15.3,14.3 -3.9,3.9 -7.9,8 -12,11.9 4.3,-0.7 8.9,-0.3 13.9,1.3 10.3,3.3 20.5,6.8 31.1,9.2 0.5,0.1 0.5,0.9 0,1 -9,1.6 -17.7,-0.6 -26.4,-3.2 -5.4,-1.7 -10.9,-3.7 -16.7,-3.2 -4,0.4 -7.8,2.2 -11.7,3.1 -1.6,1.2 -3.2,2.3 -4.9,3.3 -0.5,0.2 -0.9,0.4 -1.4,0.6 -1.1,0.5 -2.2,1.1 -3.3,1.7 -1.1,0.6 -2.1,1.4 -3,2.2 -0.6,0.6 -1.2,1.3 -1.5,2 -0.3,-0.8 -0.6,-1.5 -1,-2.2 -1,-2.1 -2.4,-4.4 -4.4,-5.8 1.1,-0.6 2.1,-1.2 3.1,-2 2,-1.5 4,-3.4 4.1,-6 v -0.1 c 3.8,-2 7.4,-4.4 10.9,-7.1 10.2,-7.9 19,-17.6 29.3,-25.5 2.2,-1.7 4.6,-3.4 7.1,-4.8 8,-6 17.1,-7.1 27,-7.8 9.7,-0.7 20.9,0 29.8,-4.6 1.1,-0.6 1.9,1.1 1,1.8 -7.1,5.8 -16.3,7.3 -25.1,8.9 -1.7,0.3 -3.4,0.6 -5,0.8 1.4,0.6 2.8,1.2 4.2,1.7 4.7,1.9 9.7,1.5 14.6,2.1 5.3,0.6 10.7,1.6 15.9,2.9 4.3,1.1 9,2 13,3.9 5.1,2.4 10.1,6.1 14.3,9.7 2.3,2 4.4,4.2 6.1,6.7 1.2,1.7 2.2,3.6 3,5.5 1.2,2.9 1.8,5.9 2.3,8.9 z m -301.5,23.2 c -4,3.4 -7.8,7 -11.6,10.6 1.2,-2.1 2.3,-4.3 3.4,-6.5 v -0.2 c 0.5,-1.3 1,-2.6 1.4,-3.9 0.8,-2.8 1.1,-5.7 1.7,-8.5 1.3,-6.5 2.8,-12.8 4.7,-19.1 0.3,-1.5 0.8,-3 1.3,-4.4 -0.3,0.1 -0.7,0.1 -1,0.2 -0.9,0.2 -1.7,0.5 -2.6,0.8 -3.1,5.1 -5.7,10.5 -7.8,16.1 -2.3,6 -4.2,12.1 -7.3,17.7 -1.1,3.5 -2.4,6.9 -4,10.1 -3.1,6.5 -7.5,12 -13.8,15.6 -3,1.7 -6.2,3 -9.4,4.2 -1.6,0.6 -3.3,1.2 -4.9,1.7 -1.8,0.5 -3.7,0.7 -5.6,0.8 -1.9,0.1 -3.8,0.4 -5.6,1.1 -1.7,0.7 -3.3,1.5 -4.8,2.3 -3.1,1.6 -6.1,3.6 -8.8,5.7 -3.2,2.5 -6.1,5.3 -8.8,8.3 -3.8,5.5 -6.7,11.6 -8.3,18 -2.7,11 -0.7,23 2.3,33.7 0.8,2.8 5.6,2.2 5.7,-0.7 0.3,-9.7 2.6,-18.7 5.8,-27.8 3.1,-8.5 6.8,-16.4 13.9,-22.2 5.4,-4.4 11.2,-6.3 17.3,-7.7 0.5,-0.2 1.1,-0.5 1.6,-0.7 6.7,-2.9 13.5,-5.4 20,-8.5 3.1,-1.5 6.2,-3.1 9.1,-5 1.9,-1.2 3.6,-2.7 5.2,-4.3 1.7,-1 3.4,-2 5,-3.1 3.3,-2.2 6.2,-4.8 9.3,-7.3 0.3,-0.1 0.6,-0.1 0.9,-0.2 1.1,-0.8 2.3,-1.6 3.6,-2.2 0.2,-1.2 0.5,-2.4 1,-3.5 0.4,-1.1 1,-2.2 1.6,-3.2 -4.8,-1 -8.8,-3.6 -10.5,-7.9 z m 147,29.9 c -7,1.6 -14,-0.3 -20.9,-1.5 -5.6,-1 -11.1,-2 -16.5,-3.8 -6.8,-2.3 -13.2,-5.4 -19.8,-8.3 0.5,0 1,0.1 1.6,0.1 10.8,0.5 21.2,2.1 32,0.4 0.3,-0.1 0.2,-0.5 -0.1,-0.6 -11,-0.7 -21.7,-4.2 -32.8,-5 -5.8,-0.4 -11.4,-0.8 -17,-2.4 -2.7,-0.8 -5.4,-1.4 -8.2,-1.2 -1.8,0.1 -4.7,-1.5 -6.5,-2.1 -2.4,-0.8 -4.9,-1.5 -7.3,-2.2 -0.6,-0.2 -1.3,-0.3 -1.9,-0.5 2.8,3.1 4.7,7.1 6,11.2 9.5,1.4 18.9,2.6 28.2,5.8 10.6,3.6 20.7,8.7 31.8,10.6 9.9,1.7 22.1,3.8 31.8,0.6 0.6,-0.3 0.3,-1.3 -0.4,-1.1 z m -89.4,-48.2 c 1,0.3 1.6,1.5 1.3,2.5 -0.3,1.1 -0.7,2.1 -1,3.2 0.4,0.2 0.7,0.5 1.1,0.7 10.8,-2.8 21.5,-4.1 32.3,-4.2 0.2,-0.1 0.3,-0.2 0.5,-0.3 0.1,-0.1 0.2,-0.1 0.3,-0.2 0,0 0.1,0 0.1,-0.1 0.2,-0.1 0.3,-0.3 0.5,-0.4 l 0.5,-0.5 c 0.1,-0.1 0.1,-0.2 0.2,-0.3 l 0.1,-0.1 c 0.1,-0.1 0.1,-0.2 0.2,-0.3 v -0.3 c 0,-0.8 -0.6,-1.5 -0.8,-2.2 -0.2,-0.8 -0.1,-1.7 0.2,-2.4 1,-3.1 4.1,-5.1 7.1,-6.1 0.4,-0.2 0.8,-0.3 1.3,-0.5 -2.2,-0.3 -4.5,-0.7 -6.7,-0.9 -3.8,-0.3 -7.7,-0.1 -11.4,0.5 -3.3,0.5 -6.5,1.3 -9.6,2.3 -3.1,1 -6.1,2.1 -9.3,2.8 l 0.1,-0.1 c 4.1,-3.5 7.8,-7.4 10.9,-11.8 4,-3.3 7.9,-6.9 11.3,-10.9 3.9,-4.5 6.4,-9.7 9.7,-14.6 0.4,-0.6 -0.5,-1.2 -1,-0.7 -4,4 -7.3,8.7 -11.3,12.7 -4.4,4.3 -9.3,8.3 -14.3,11.9 -9,6.7 -18.5,12.9 -28.1,18.6 5,-1.4 10.7,-1.7 15.3,0.9 0.1,0.4 0.3,0.6 0.5,0.8 z"
     id="path210" /></g></svg>
