solid OpenSCAD_Model
  facet normal -0.707107 0.707107 0
    outer loop
      vertex -5.8 0 -10
      vertex 0 5.8 0
      vertex 0 5.8 -10
    endloop
  endfacet
  facet normal -0.707107 0.707107 0
    outer loop
      vertex 0 5.8 0
      vertex -5.8 0 -10
      vertex -5.8 0 0
    endloop
  endfacet
  facet normal -0.707107 0.707107 0
    outer loop
      vertex -5.8 0 28
      vertex 0 5.8 38
      vertex 0 5.8 28
    endloop
  endfacet
  facet normal -0.707107 0.707107 0
    outer loop
      vertex 0 5.8 38
      vertex -5.8 0 28
      vertex -5.8 0 38
    endloop
  endfacet
  facet normal 0.707107 0.707107 0
    outer loop
      vertex 5.8 0 0
      vertex 0 5.8 -10
      vertex 0 5.8 0
    endloop
  endfacet
  facet normal 0.707107 0.707107 0
    outer loop
      vertex 0 5.8 -10
      vertex 5.8 0 0
      vertex 5.8 0 -10
    endloop
  endfacet
  facet normal 0.707107 0.707107 0
    outer loop
      vertex 5.8 0 38
      vertex 0 5.8 28
      vertex 0 5.8 38
    endloop
  endfacet
  facet normal 0.707107 0.707107 0
    outer loop
      vertex 0 5.8 28
      vertex 5.8 0 38
      vertex 5.8 0 28
    endloop
  endfacet
  facet normal 0.707107 -0.707107 0
    outer loop
      vertex 0 -5.8 38
      vertex 5.8 0 28
      vertex 5.8 0 38
    endloop
  endfacet
  facet normal 0.707107 -0.707107 0
    outer loop
      vertex 5.8 0 28
      vertex 0 -5.8 38
      vertex 0 -5.8 28
    endloop
  endfacet
  facet normal 0.707107 -0.707107 0
    outer loop
      vertex 0 -5.8 0
      vertex 5.8 0 -10
      vertex 5.8 0 0
    endloop
  endfacet
  facet normal 0.707107 -0.707107 0
    outer loop
      vertex 5.8 0 -10
      vertex 0 -5.8 0
      vertex 0 -5.8 -10
    endloop
  endfacet
  facet normal 0 0 1
    outer loop
      vertex 0 5.8 38
      vertex 4.2 0 38
      vertex 5.8 0 38
    endloop
  endfacet
  facet normal 0 0 1
    outer loop
      vertex 0 5.8 38
      vertex 0 4.2 38
      vertex 4.2 0 38
    endloop
  endfacet
  facet normal 0 0 1
    outer loop
      vertex 0 5.8 38
      vertex -4.2 0 38
      vertex 0 4.2 38
    endloop
  endfacet
  facet normal 0 -0 1
    outer loop
      vertex -4.2 0 38
      vertex 0 5.8 38
      vertex -5.8 0 38
    endloop
  endfacet
  facet normal 0 0 1
    outer loop
      vertex 0 -4.2 38
      vertex 5.8 0 38
      vertex 4.2 0 38
    endloop
  endfacet
  facet normal -0 0 1
    outer loop
      vertex 0 -4.2 38
      vertex 0 -5.8 38
      vertex 5.8 0 38
    endloop
  endfacet
  facet normal 0 0 1
    outer loop
      vertex -4.2 0 38
      vertex 0 -5.8 38
      vertex 0 -4.2 38
    endloop
  endfacet
  facet normal 0 0 1
    outer loop
      vertex 0 -5.8 38
      vertex -4.2 0 38
      vertex -5.8 0 38
    endloop
  endfacet
  facet normal -0.707107 -0.707107 0
    outer loop
      vertex 0 -5.8 28
      vertex -5.8 0 38
      vertex -5.8 0 28
    endloop
  endfacet
  facet normal -0.707107 -0.707107 0
    outer loop
      vertex -5.8 0 38
      vertex 0 -5.8 28
      vertex 0 -5.8 38
    endloop
  endfacet
  facet normal -0.707107 -0.707107 0
    outer loop
      vertex 0 -5.8 -10
      vertex -5.8 0 0
      vertex -5.8 0 -10
    endloop
  endfacet
  facet normal -0.707107 -0.707107 0
    outer loop
      vertex -5.8 0 0
      vertex 0 -5.8 -10
      vertex 0 -5.8 0
    endloop
  endfacet
  facet normal 0 0 -1
    outer loop
      vertex 0 -5.8 -10
      vertex 4.2 0 -10
      vertex 5.8 0 -10
    endloop
  endfacet
  facet normal 0 0 -1
    outer loop
      vertex 0 -5.8 -10
      vertex 0 -4.2 -10
      vertex 4.2 0 -10
    endloop
  endfacet
  facet normal 0 0 -1
    outer loop
      vertex 0 -5.8 -10
      vertex -4.2 0 -10
      vertex 0 -4.2 -10
    endloop
  endfacet
  facet normal -0 -0 -1
    outer loop
      vertex -4.2 0 -10
      vertex 0 -5.8 -10
      vertex -5.8 0 -10
    endloop
  endfacet
  facet normal 0 0 -1
    outer loop
      vertex 0 4.2 -10
      vertex 5.8 0 -10
      vertex 4.2 0 -10
    endloop
  endfacet
  facet normal 0 0 -1
    outer loop
      vertex 0 4.2 -10
      vertex 0 5.8 -10
      vertex 5.8 0 -10
    endloop
  endfacet
  facet normal 0 0 -1
    outer loop
      vertex -4.2 0 -10
      vertex 0 5.8 -10
      vertex 0 4.2 -10
    endloop
  endfacet
  facet normal 0 0 -1
    outer loop
      vertex 0 5.8 -10
      vertex -4.2 0 -10
      vertex -5.8 0 -10
    endloop
  endfacet
  facet normal -0.242978 -0.970032 0
    outer loop
      vertex -1.68365 -5.55025 0
      vertex -1.13152 -5.68855 28
      vertex -1.68365 -5.55025 28
    endloop
  endfacet
  facet normal -0.242978 -0.970032 -0
    outer loop
      vertex -1.13152 -5.68855 28
      vertex -1.68365 -5.55025 0
      vertex -1.13152 -5.68855 0
    endloop
  endfacet
  facet normal 0.336887 0.941545 -0
    outer loop
      vertex 2.21956 5.3585 0
      vertex 1.68365 5.55025 28
      vertex 2.21956 5.3585 28
    endloop
  endfacet
  facet normal 0.336887 0.941545 0
    outer loop
      vertex 1.68365 5.55025 28
      vertex 2.21956 5.3585 0
      vertex 1.68365 5.55025 0
    endloop
  endfacet
  facet normal 0.989176 0.146737 0
    outer loop
      vertex 5.77207 0.568499 28
      vertex 5.68855 1.13152 0
      vertex 5.68855 1.13152 28
    endloop
  endfacet
  facet normal 0.989176 0.146737 0
    outer loop
      vertex 5.68855 1.13152 0
      vertex 5.77207 0.568499 28
      vertex 5.77207 0.568499 0
    endloop
  endfacet
  facet normal 0.998795 0.0490702 0
    outer loop
      vertex 5.8 0 28
      vertex 5.77207 0.568499 0
      vertex 5.77207 0.568499 28
    endloop
  endfacet
  facet normal 0.998795 0.0490702 0
    outer loop
      vertex 5.77207 0.568499 0
      vertex 5.8 0 28
      vertex 5.8 0 0
    endloop
  endfacet
  facet normal 0.970032 0.242978 0
    outer loop
      vertex 5.68855 1.13152 28
      vertex 5.55025 1.68365 0
      vertex 5.55025 1.68365 28
    endloop
  endfacet
  facet normal 0.970032 0.242978 0
    outer loop
      vertex 5.55025 1.68365 0
      vertex 5.68855 1.13152 28
      vertex 5.68855 1.13152 0
    endloop
  endfacet
  facet normal 0.0490702 -0.998795 0
    outer loop
      vertex 0 -5.8 0
      vertex 0.568499 -5.77207 28
      vertex 0 -5.8 28
    endloop
  endfacet
  facet normal 0.0490702 -0.998795 0
    outer loop
      vertex 0.568499 -5.77207 28
      vertex 0 -5.8 0
      vertex 0.568499 -5.77207 0
    endloop
  endfacet
  facet normal 0.671556 -0.740954 0
    outer loop
      vertex 3.67948 -4.48346 0
      vertex 4.10122 -4.10122 28
      vertex 3.67948 -4.48346 28
    endloop
  endfacet
  facet normal 0.671556 -0.740954 0
    outer loop
      vertex 4.10122 -4.10122 28
      vertex 3.67948 -4.48346 0
      vertex 4.10122 -4.10122 0
    endloop
  endfacet
  facet normal 0.85773 0.5141 0
    outer loop
      vertex 5.11514 2.7341 28
      vertex 4.82252 3.22231 0
      vertex 4.82252 3.22231 28
    endloop
  endfacet
  facet normal 0.85773 0.5141 0
    outer loop
      vertex 4.82252 3.22231 0
      vertex 5.11514 2.7341 28
      vertex 5.11514 2.7341 0
    endloop
  endfacet
  facet normal 0.803208 -0.595699 0
    outer loop
      vertex 4.48346 -3.67948 28
      vertex 4.82252 -3.22231 0
      vertex 4.82252 -3.22231 28
    endloop
  endfacet
  facet normal 0.803208 -0.595699 0
    outer loop
      vertex 4.82252 -3.22231 0
      vertex 4.48346 -3.67948 28
      vertex 4.48346 -3.67948 0
    endloop
  endfacet
  facet normal 0.998795 -0.0490702 0
    outer loop
      vertex 5.77207 -0.568499 28
      vertex 5.8 0 0
      vertex 5.8 0 28
    endloop
  endfacet
  facet normal 0.998795 -0.0490702 0
    outer loop
      vertex 5.8 0 0
      vertex 5.77207 -0.568499 28
      vertex 5.77207 -0.568499 0
    endloop
  endfacet
  facet normal 0.336887 -0.941545 0
    outer loop
      vertex 1.68365 -5.55025 0
      vertex 2.21956 -5.3585 28
      vertex 1.68365 -5.55025 28
    endloop
  endfacet
  facet normal 0.336887 -0.941545 0
    outer loop
      vertex 2.21956 -5.3585 28
      vertex 1.68365 -5.55025 0
      vertex 2.21956 -5.3585 0
    endloop
  endfacet
  facet normal 0.146737 -0.989176 0
    outer loop
      vertex 0.568499 -5.77207 0
      vertex 1.13152 -5.68855 28
      vertex 0.568499 -5.77207 28
    endloop
  endfacet
  facet normal 0.146737 -0.989176 0
    outer loop
      vertex 1.13152 -5.68855 28
      vertex 0.568499 -5.77207 0
      vertex 1.13152 -5.68855 0
    endloop
  endfacet
  facet normal 0.941545 0.336887 0
    outer loop
      vertex 5.55025 1.68365 28
      vertex 5.3585 2.21956 0
      vertex 5.3585 2.21956 28
    endloop
  endfacet
  facet normal 0.941545 0.336887 0
    outer loop
      vertex 5.3585 2.21956 0
      vertex 5.55025 1.68365 28
      vertex 5.55025 1.68365 0
    endloop
  endfacet
  facet normal 0.903989 0.427556 0
    outer loop
      vertex 5.3585 2.21956 28
      vertex 5.11514 2.7341 0
      vertex 5.11514 2.7341 28
    endloop
  endfacet
  facet normal 0.903989 0.427556 0
    outer loop
      vertex 5.11514 2.7341 0
      vertex 5.3585 2.21956 28
      vertex 5.3585 2.21956 0
    endloop
  endfacet
  facet normal 0.146737 0.989176 -0
    outer loop
      vertex 1.13152 5.68855 0
      vertex 0.568499 5.77207 28
      vertex 1.13152 5.68855 28
    endloop
  endfacet
  facet normal 0.146737 0.989176 0
    outer loop
      vertex 0.568499 5.77207 28
      vertex 1.13152 5.68855 0
      vertex 0.568499 5.77207 0
    endloop
  endfacet
  facet normal 0.595699 0.803208 -0
    outer loop
      vertex 3.67948 4.48346 0
      vertex 3.22231 4.82252 28
      vertex 3.67948 4.48346 28
    endloop
  endfacet
  facet normal 0.595699 0.803208 0
    outer loop
      vertex 3.22231 4.82252 28
      vertex 3.67948 4.48346 0
      vertex 3.22231 4.82252 0
    endloop
  endfacet
  facet normal 0.0490702 0.998795 -0
    outer loop
      vertex 0.568499 5.77207 0
      vertex 0 5.8 28
      vertex 0.568499 5.77207 28
    endloop
  endfacet
  facet normal 0.0490702 0.998795 0
    outer loop
      vertex 0 5.8 28
      vertex 0.568499 5.77207 0
      vertex 0 5.8 0
    endloop
  endfacet
  facet normal 0.5141 0.85773 -0
    outer loop
      vertex 3.22231 4.82252 0
      vertex 2.7341 5.11514 28
      vertex 3.22231 4.82252 28
    endloop
  endfacet
  facet normal 0.5141 0.85773 0
    outer loop
      vertex 2.7341 5.11514 28
      vertex 3.22231 4.82252 0
      vertex 2.7341 5.11514 0
    endloop
  endfacet
  facet normal 0.5141 -0.85773 0
    outer loop
      vertex 2.7341 -5.11514 0
      vertex 3.22231 -4.82252 28
      vertex 2.7341 -5.11514 28
    endloop
  endfacet
  facet normal 0.5141 -0.85773 0
    outer loop
      vertex 3.22231 -4.82252 28
      vertex 2.7341 -5.11514 0
      vertex 3.22231 -4.82252 0
    endloop
  endfacet
  facet normal 0.671556 0.740954 -0
    outer loop
      vertex 4.10122 4.10122 0
      vertex 3.67948 4.48346 28
      vertex 4.10122 4.10122 28
    endloop
  endfacet
  facet normal 0.671556 0.740954 0
    outer loop
      vertex 3.67948 4.48346 28
      vertex 4.10122 4.10122 0
      vertex 3.67948 4.48346 0
    endloop
  endfacet
  facet normal -0.146737 0.989176 0
    outer loop
      vertex -0.568499 5.77207 0
      vertex -1.13152 5.68855 28
      vertex -0.568499 5.77207 28
    endloop
  endfacet
  facet normal -0.146737 0.989176 0
    outer loop
      vertex -1.13152 5.68855 28
      vertex -0.568499 5.77207 0
      vertex -1.13152 5.68855 0
    endloop
  endfacet
  facet normal -0.803208 0.595699 0
    outer loop
      vertex -4.82252 3.22231 0
      vertex -4.48346 3.67948 28
      vertex -4.48346 3.67948 0
    endloop
  endfacet
  facet normal -0.803208 0.595699 0
    outer loop
      vertex -4.48346 3.67948 28
      vertex -4.82252 3.22231 0
      vertex -4.82252 3.22231 28
    endloop
  endfacet
  facet normal -0.970032 0.242978 0
    outer loop
      vertex -5.68855 1.13152 0
      vertex -5.55025 1.68365 28
      vertex -5.55025 1.68365 0
    endloop
  endfacet
  facet normal -0.970032 0.242978 0
    outer loop
      vertex -5.55025 1.68365 28
      vertex -5.68855 1.13152 0
      vertex -5.68855 1.13152 28
    endloop
  endfacet
  facet normal 0.427556 -0.903989 0
    outer loop
      vertex 2.21956 -5.3585 0
      vertex 2.7341 -5.11514 28
      vertex 2.21956 -5.3585 28
    endloop
  endfacet
  facet normal 0.427556 -0.903989 0
    outer loop
      vertex 2.7341 -5.11514 28
      vertex 2.21956 -5.3585 0
      vertex 2.7341 -5.11514 0
    endloop
  endfacet
  facet normal 0.803208 0.595699 0
    outer loop
      vertex 4.82252 3.22231 28
      vertex 4.48346 3.67948 0
      vertex 4.48346 3.67948 28
    endloop
  endfacet
  facet normal 0.803208 0.595699 0
    outer loop
      vertex 4.48346 3.67948 0
      vertex 4.82252 3.22231 28
      vertex 4.82252 3.22231 0
    endloop
  endfacet
  facet normal -0.941545 -0.336887 0
    outer loop
      vertex -5.3585 -2.21956 0
      vertex -5.55025 -1.68365 28
      vertex -5.55025 -1.68365 0
    endloop
  endfacet
  facet normal -0.941545 -0.336887 0
    outer loop
      vertex -5.55025 -1.68365 28
      vertex -5.3585 -2.21956 0
      vertex -5.3585 -2.21956 28
    endloop
  endfacet
  facet normal -0.5141 0.85773 0
    outer loop
      vertex -2.7341 5.11514 0
      vertex -3.22231 4.82252 28
      vertex -2.7341 5.11514 28
    endloop
  endfacet
  facet normal -0.5141 0.85773 0
    outer loop
      vertex -3.22231 4.82252 28
      vertex -2.7341 5.11514 0
      vertex -3.22231 4.82252 0
    endloop
  endfacet
  facet normal -0.336887 0.941545 0
    outer loop
      vertex -1.68365 5.55025 0
      vertex -2.21956 5.3585 28
      vertex -1.68365 5.55025 28
    endloop
  endfacet
  facet normal -0.336887 0.941545 0
    outer loop
      vertex -2.21956 5.3585 28
      vertex -1.68365 5.55025 0
      vertex -2.21956 5.3585 0
    endloop
  endfacet
  facet normal 0.427556 0.903989 -0
    outer loop
      vertex 2.7341 5.11514 0
      vertex 2.21956 5.3585 28
      vertex 2.7341 5.11514 28
    endloop
  endfacet
  facet normal 0.427556 0.903989 0
    outer loop
      vertex 2.21956 5.3585 28
      vertex 2.7341 5.11514 0
      vertex 2.21956 5.3585 0
    endloop
  endfacet
  facet normal -0.941545 0.336887 0
    outer loop
      vertex -5.55025 1.68365 0
      vertex -5.3585 2.21956 28
      vertex -5.3585 2.21956 0
    endloop
  endfacet
  facet normal -0.941545 0.336887 0
    outer loop
      vertex -5.3585 2.21956 28
      vertex -5.55025 1.68365 0
      vertex -5.55025 1.68365 28
    endloop
  endfacet
  facet normal -0.242978 0.970032 0
    outer loop
      vertex -1.13152 5.68855 0
      vertex -1.68365 5.55025 28
      vertex -1.13152 5.68855 28
    endloop
  endfacet
  facet normal -0.242978 0.970032 0
    outer loop
      vertex -1.68365 5.55025 28
      vertex -1.13152 5.68855 0
      vertex -1.68365 5.55025 0
    endloop
  endfacet
  facet normal -0.595699 -0.803208 0
    outer loop
      vertex -3.67948 -4.48346 0
      vertex -3.22231 -4.82252 28
      vertex -3.67948 -4.48346 28
    endloop
  endfacet
  facet normal -0.595699 -0.803208 -0
    outer loop
      vertex -3.22231 -4.82252 28
      vertex -3.67948 -4.48346 0
      vertex -3.22231 -4.82252 0
    endloop
  endfacet
  facet normal -0.970032 -0.242978 0
    outer loop
      vertex -5.55025 -1.68365 0
      vertex -5.68855 -1.13152 28
      vertex -5.68855 -1.13152 0
    endloop
  endfacet
  facet normal -0.970032 -0.242978 0
    outer loop
      vertex -5.68855 -1.13152 28
      vertex -5.55025 -1.68365 0
      vertex -5.55025 -1.68365 28
    endloop
  endfacet
  facet normal 0.970032 -0.242978 0
    outer loop
      vertex 5.55025 -1.68365 28
      vertex 5.68855 -1.13152 0
      vertex 5.68855 -1.13152 28
    endloop
  endfacet
  facet normal 0.970032 -0.242978 0
    outer loop
      vertex 5.68855 -1.13152 0
      vertex 5.55025 -1.68365 28
      vertex 5.55025 -1.68365 0
    endloop
  endfacet
  facet normal -0.998795 -0.0490702 0
    outer loop
      vertex -5.77207 -0.568499 0
      vertex -5.8 0 28
      vertex -5.8 0 0
    endloop
  endfacet
  facet normal -0.998795 -0.0490702 0
    outer loop
      vertex -5.8 0 28
      vertex -5.77207 -0.568499 0
      vertex -5.77207 -0.568499 28
    endloop
  endfacet
  facet normal 0.941545 -0.336887 0
    outer loop
      vertex 5.3585 -2.21956 28
      vertex 5.55025 -1.68365 0
      vertex 5.55025 -1.68365 28
    endloop
  endfacet
  facet normal 0.941545 -0.336887 0
    outer loop
      vertex 5.55025 -1.68365 0
      vertex 5.3585 -2.21956 28
      vertex 5.3585 -2.21956 0
    endloop
  endfacet
  facet normal 0.740954 0.671556 0
    outer loop
      vertex 4.48346 3.67948 28
      vertex 4.10122 4.10122 0
      vertex 4.10122 4.10122 28
    endloop
  endfacet
  facet normal 0.740954 0.671556 0
    outer loop
      vertex 4.10122 4.10122 0
      vertex 4.48346 3.67948 28
      vertex 4.48346 3.67948 0
    endloop
  endfacet
  facet normal -0.595699 0.803208 0
    outer loop
      vertex -3.22231 4.82252 0
      vertex -3.67948 4.48346 28
      vertex -3.22231 4.82252 28
    endloop
  endfacet
  facet normal -0.595699 0.803208 0
    outer loop
      vertex -3.67948 4.48346 28
      vertex -3.22231 4.82252 0
      vertex -3.67948 4.48346 0
    endloop
  endfacet
  facet normal -0.989176 -0.146737 0
    outer loop
      vertex -5.68855 -1.13152 0
      vertex -5.77207 -0.568499 28
      vertex -5.77207 -0.568499 0
    endloop
  endfacet
  facet normal -0.989176 -0.146737 0
    outer loop
      vertex -5.77207 -0.568499 28
      vertex -5.68855 -1.13152 0
      vertex -5.68855 -1.13152 28
    endloop
  endfacet
  facet normal -0.336887 -0.941545 0
    outer loop
      vertex -2.21956 -5.3585 0
      vertex -1.68365 -5.55025 28
      vertex -2.21956 -5.3585 28
    endloop
  endfacet
  facet normal -0.336887 -0.941545 -0
    outer loop
      vertex -1.68365 -5.55025 28
      vertex -2.21956 -5.3585 0
      vertex -1.68365 -5.55025 0
    endloop
  endfacet
  facet normal 0.903989 -0.427556 0
    outer loop
      vertex 5.11514 -2.7341 28
      vertex 5.3585 -2.21956 0
      vertex 5.3585 -2.21956 28
    endloop
  endfacet
  facet normal 0.903989 -0.427556 0
    outer loop
      vertex 5.3585 -2.21956 0
      vertex 5.11514 -2.7341 28
      vertex 5.11514 -2.7341 0
    endloop
  endfacet
  facet normal -0.0490702 0.998795 0
    outer loop
      vertex 0 5.8 0
      vertex -0.568499 5.77207 28
      vertex 0 5.8 28
    endloop
  endfacet
  facet normal -0.0490702 0.998795 0
    outer loop
      vertex -0.568499 5.77207 28
      vertex 0 5.8 0
      vertex -0.568499 5.77207 0
    endloop
  endfacet
  facet normal 0.242978 0.970032 -0
    outer loop
      vertex 1.68365 5.55025 0
      vertex 1.13152 5.68855 28
      vertex 1.68365 5.55025 28
    endloop
  endfacet
  facet normal 0.242978 0.970032 0
    outer loop
      vertex 1.13152 5.68855 28
      vertex 1.68365 5.55025 0
      vertex 1.13152 5.68855 0
    endloop
  endfacet
  facet normal -0.671556 -0.740954 0
    outer loop
      vertex -4.10122 -4.10122 0
      vertex -3.67948 -4.48346 28
      vertex -4.10122 -4.10122 28
    endloop
  endfacet
  facet normal -0.671556 -0.740954 -0
    outer loop
      vertex -3.67948 -4.48346 28
      vertex -4.10122 -4.10122 0
      vertex -3.67948 -4.48346 0
    endloop
  endfacet
  facet normal 0.989176 -0.146737 0
    outer loop
      vertex 5.68855 -1.13152 28
      vertex 5.77207 -0.568499 0
      vertex 5.77207 -0.568499 28
    endloop
  endfacet
  facet normal 0.989176 -0.146737 0
    outer loop
      vertex 5.77207 -0.568499 0
      vertex 5.68855 -1.13152 28
      vertex 5.68855 -1.13152 0
    endloop
  endfacet
  facet normal 0.740954 -0.671556 0
    outer loop
      vertex 4.10122 -4.10122 28
      vertex 4.48346 -3.67948 0
      vertex 4.48346 -3.67948 28
    endloop
  endfacet
  facet normal 0.740954 -0.671556 0
    outer loop
      vertex 4.48346 -3.67948 0
      vertex 4.10122 -4.10122 28
      vertex 4.10122 -4.10122 0
    endloop
  endfacet
  facet normal -0.427556 0.903989 0
    outer loop
      vertex -2.21956 5.3585 0
      vertex -2.7341 5.11514 28
      vertex -2.21956 5.3585 28
    endloop
  endfacet
  facet normal -0.427556 0.903989 0
    outer loop
      vertex -2.7341 5.11514 28
      vertex -2.21956 5.3585 0
      vertex -2.7341 5.11514 0
    endloop
  endfacet
  facet normal 0 0 1
    outer loop
      vertex 5.68855 1.13152 28
      vertex 5.8 0 28
      vertex 5.77207 0.568499 28
    endloop
  endfacet
  facet normal 0 0 1
    outer loop
      vertex 5.55025 1.68365 28
      vertex 5.8 0 28
      vertex 5.68855 1.13152 28
    endloop
  endfacet
  facet normal 0 0 1
    outer loop
      vertex 5.3585 2.21956 28
      vertex 5.8 0 28
      vertex 5.55025 1.68365 28
    endloop
  endfacet
  facet normal 0 0 1
    outer loop
      vertex 5.11514 2.7341 28
      vertex 5.8 0 28
      vertex 5.3585 2.21956 28
    endloop
  endfacet
  facet normal 0 0 1
    outer loop
      vertex 4.82252 3.22231 28
      vertex 5.8 0 28
      vertex 5.11514 2.7341 28
    endloop
  endfacet
  facet normal 0 0 1
    outer loop
      vertex 4.48346 3.67948 28
      vertex 5.8 0 28
      vertex 4.82252 3.22231 28
    endloop
  endfacet
  facet normal 0 0 1
    outer loop
      vertex 4.10122 4.10122 28
      vertex 5.8 0 28
      vertex 4.48346 3.67948 28
    endloop
  endfacet
  facet normal 0 0 1
    outer loop
      vertex 3.67948 4.48346 28
      vertex 5.8 0 28
      vertex 4.10122 4.10122 28
    endloop
  endfacet
  facet normal 0 0 1
    outer loop
      vertex 3.22231 4.82252 28
      vertex 5.8 0 28
      vertex 3.67948 4.48346 28
    endloop
  endfacet
  facet normal 0 0 1
    outer loop
      vertex 2.7341 5.11514 28
      vertex 5.8 0 28
      vertex 3.22231 4.82252 28
    endloop
  endfacet
  facet normal 0 0 1
    outer loop
      vertex 2.21956 5.3585 28
      vertex 5.8 0 28
      vertex 2.7341 5.11514 28
    endloop
  endfacet
  facet normal 0 0 1
    outer loop
      vertex 1.68365 5.55025 28
      vertex 5.8 0 28
      vertex 2.21956 5.3585 28
    endloop
  endfacet
  facet normal 0 0 1
    outer loop
      vertex 1.13152 5.68855 28
      vertex 5.8 0 28
      vertex 1.68365 5.55025 28
    endloop
  endfacet
  facet normal 0 0 1
    outer loop
      vertex 0.568499 5.77207 28
      vertex 5.8 0 28
      vertex 1.13152 5.68855 28
    endloop
  endfacet
  facet normal 0 0 1
    outer loop
      vertex 5.8 0 28
      vertex 0.568499 5.77207 28
      vertex 0 5.8 28
    endloop
  endfacet
  facet normal 0 0 1
    outer loop
      vertex -1.13152 5.68855 28
      vertex 0 5.8 28
      vertex -0.568499 5.77207 28
    endloop
  endfacet
  facet normal 0 0 1
    outer loop
      vertex -1.68365 5.55025 28
      vertex 0 5.8 28
      vertex -1.13152 5.68855 28
    endloop
  endfacet
  facet normal 0 0 1
    outer loop
      vertex -2.21956 5.3585 28
      vertex 0 5.8 28
      vertex -1.68365 5.55025 28
    endloop
  endfacet
  facet normal 0 0 1
    outer loop
      vertex -2.7341 5.11514 28
      vertex 0 5.8 28
      vertex -2.21956 5.3585 28
    endloop
  endfacet
  facet normal 0 0 1
    outer loop
      vertex -3.22231 4.82252 28
      vertex 0 5.8 28
      vertex -2.7341 5.11514 28
    endloop
  endfacet
  facet normal 0 0 1
    outer loop
      vertex -3.67948 4.48346 28
      vertex 0 5.8 28
      vertex -3.22231 4.82252 28
    endloop
  endfacet
  facet normal 0 0 1
    outer loop
      vertex -4.10122 4.10122 28
      vertex 0 5.8 28
      vertex -3.67948 4.48346 28
    endloop
  endfacet
  facet normal 0 0 1
    outer loop
      vertex -4.48346 3.67948 28
      vertex 0 5.8 28
      vertex -4.10122 4.10122 28
    endloop
  endfacet
  facet normal 0 0 1
    outer loop
      vertex -4.82252 3.22231 28
      vertex 0 5.8 28
      vertex -4.48346 3.67948 28
    endloop
  endfacet
  facet normal 0 0 1
    outer loop
      vertex -5.11514 2.7341 28
      vertex 0 5.8 28
      vertex -4.82252 3.22231 28
    endloop
  endfacet
  facet normal 0 0 1
    outer loop
      vertex -5.3585 2.21956 28
      vertex 0 5.8 28
      vertex -5.11514 2.7341 28
    endloop
  endfacet
  facet normal 0 0 1
    outer loop
      vertex -5.55025 1.68365 28
      vertex 0 5.8 28
      vertex -5.3585 2.21956 28
    endloop
  endfacet
  facet normal 0 0 1
    outer loop
      vertex -5.68855 1.13152 28
      vertex 0 5.8 28
      vertex -5.55025 1.68365 28
    endloop
  endfacet
  facet normal 0 0 1
    outer loop
      vertex -5.77207 0.568499 28
      vertex 0 5.8 28
      vertex -5.68855 1.13152 28
    endloop
  endfacet
  facet normal 0 0 1
    outer loop
      vertex 0 5.8 28
      vertex -5.77207 0.568499 28
      vertex -5.8 0 28
    endloop
  endfacet
  facet normal 0 0 1
    outer loop
      vertex 0 -5.8 28
      vertex -1.13152 -5.68855 28
      vertex -0.568499 -5.77207 28
    endloop
  endfacet
  facet normal 0 0 1
    outer loop
      vertex 0 -5.8 28
      vertex -1.68365 -5.55025 28
      vertex -1.13152 -5.68855 28
    endloop
  endfacet
  facet normal 0 0 1
    outer loop
      vertex 0 -5.8 28
      vertex -2.21956 -5.3585 28
      vertex -1.68365 -5.55025 28
    endloop
  endfacet
  facet normal 0 0 1
    outer loop
      vertex 0 -5.8 28
      vertex -2.7341 -5.11514 28
      vertex -2.21956 -5.3585 28
    endloop
  endfacet
  facet normal 0 0 1
    outer loop
      vertex 0 -5.8 28
      vertex -3.22231 -4.82252 28
      vertex -2.7341 -5.11514 28
    endloop
  endfacet
  facet normal 0 0 1
    outer loop
      vertex 0 -5.8 28
      vertex -3.67948 -4.48346 28
      vertex -3.22231 -4.82252 28
    endloop
  endfacet
  facet normal 0 0 1
    outer loop
      vertex 0 -5.8 28
      vertex -4.10122 -4.10122 28
      vertex -3.67948 -4.48346 28
    endloop
  endfacet
  facet normal 0 0 1
    outer loop
      vertex 0 -5.8 28
      vertex -4.48346 -3.67948 28
      vertex -4.10122 -4.10122 28
    endloop
  endfacet
  facet normal 0 0 1
    outer loop
      vertex 0 -5.8 28
      vertex -4.82252 -3.22231 28
      vertex -4.48346 -3.67948 28
    endloop
  endfacet
  facet normal 0 0 1
    outer loop
      vertex 0 -5.8 28
      vertex -5.11514 -2.7341 28
      vertex -4.82252 -3.22231 28
    endloop
  endfacet
  facet normal 0 0 1
    outer loop
      vertex 0 -5.8 28
      vertex -5.3585 -2.21956 28
      vertex -5.11514 -2.7341 28
    endloop
  endfacet
  facet normal 0 0 1
    outer loop
      vertex 0 -5.8 28
      vertex -5.55025 -1.68365 28
      vertex -5.3585 -2.21956 28
    endloop
  endfacet
  facet normal 0 0 1
    outer loop
      vertex 0 -5.8 28
      vertex -5.68855 -1.13152 28
      vertex -5.55025 -1.68365 28
    endloop
  endfacet
  facet normal 0 0 1
    outer loop
      vertex 0 -5.8 28
      vertex -5.77207 -0.568499 28
      vertex -5.68855 -1.13152 28
    endloop
  endfacet
  facet normal -0 -0 1
    outer loop
      vertex -5.77207 -0.568499 28
      vertex 0 -5.8 28
      vertex -5.8 0 28
    endloop
  endfacet
  facet normal 0 0 1
    outer loop
      vertex 5.8 0 28
      vertex 5.68855 -1.13152 28
      vertex 5.77207 -0.568499 28
    endloop
  endfacet
  facet normal 0 0 1
    outer loop
      vertex 5.8 0 28
      vertex 5.55025 -1.68365 28
      vertex 5.68855 -1.13152 28
    endloop
  endfacet
  facet normal 0 0 1
    outer loop
      vertex 5.8 0 28
      vertex 5.3585 -2.21956 28
      vertex 5.55025 -1.68365 28
    endloop
  endfacet
  facet normal 0 0 1
    outer loop
      vertex 5.8 0 28
      vertex 5.11514 -2.7341 28
      vertex 5.3585 -2.21956 28
    endloop
  endfacet
  facet normal 0 0 1
    outer loop
      vertex 5.8 0 28
      vertex 4.82252 -3.22231 28
      vertex 5.11514 -2.7341 28
    endloop
  endfacet
  facet normal 0 0 1
    outer loop
      vertex 5.8 0 28
      vertex 4.48346 -3.67948 28
      vertex 4.82252 -3.22231 28
    endloop
  endfacet
  facet normal 0 0 1
    outer loop
      vertex 5.8 0 28
      vertex 4.10122 -4.10122 28
      vertex 4.48346 -3.67948 28
    endloop
  endfacet
  facet normal 0 0 1
    outer loop
      vertex 5.8 0 28
      vertex 3.67948 -4.48346 28
      vertex 4.10122 -4.10122 28
    endloop
  endfacet
  facet normal 0 0 1
    outer loop
      vertex 5.8 0 28
      vertex 3.22231 -4.82252 28
      vertex 3.67948 -4.48346 28
    endloop
  endfacet
  facet normal 0 0 1
    outer loop
      vertex 5.8 0 28
      vertex 2.7341 -5.11514 28
      vertex 3.22231 -4.82252 28
    endloop
  endfacet
  facet normal 0 0 1
    outer loop
      vertex 5.8 0 28
      vertex 2.21956 -5.3585 28
      vertex 2.7341 -5.11514 28
    endloop
  endfacet
  facet normal 0 0 1
    outer loop
      vertex 5.8 0 28
      vertex 1.68365 -5.55025 28
      vertex 2.21956 -5.3585 28
    endloop
  endfacet
  facet normal 0 0 1
    outer loop
      vertex 5.8 0 28
      vertex 1.13152 -5.68855 28
      vertex 1.68365 -5.55025 28
    endloop
  endfacet
  facet normal 0 0 1
    outer loop
      vertex 5.8 0 28
      vertex 0.568499 -5.77207 28
      vertex 1.13152 -5.68855 28
    endloop
  endfacet
  facet normal 0 -0 1
    outer loop
      vertex 0.568499 -5.77207 28
      vertex 5.8 0 28
      vertex 0 -5.8 28
    endloop
  endfacet
  facet normal 0.85773 -0.5141 0
    outer loop
      vertex 4.82252 -3.22231 28
      vertex 5.11514 -2.7341 0
      vertex 5.11514 -2.7341 28
    endloop
  endfacet
  facet normal 0.85773 -0.5141 0
    outer loop
      vertex 5.11514 -2.7341 0
      vertex 4.82252 -3.22231 28
      vertex 4.82252 -3.22231 0
    endloop
  endfacet
  facet normal -0.740954 -0.671556 0
    outer loop
      vertex -4.10122 -4.10122 0
      vertex -4.48346 -3.67948 28
      vertex -4.48346 -3.67948 0
    endloop
  endfacet
  facet normal -0.740954 -0.671556 0
    outer loop
      vertex -4.48346 -3.67948 28
      vertex -4.10122 -4.10122 0
      vertex -4.10122 -4.10122 28
    endloop
  endfacet
  facet normal -0.989176 0.146737 0
    outer loop
      vertex -5.77207 0.568499 0
      vertex -5.68855 1.13152 28
      vertex -5.68855 1.13152 0
    endloop
  endfacet
  facet normal -0.989176 0.146737 0
    outer loop
      vertex -5.68855 1.13152 28
      vertex -5.77207 0.568499 0
      vertex -5.77207 0.568499 28
    endloop
  endfacet
  facet normal -0.803208 -0.595699 0
    outer loop
      vertex -4.48346 -3.67948 0
      vertex -4.82252 -3.22231 28
      vertex -4.82252 -3.22231 0
    endloop
  endfacet
  facet normal -0.803208 -0.595699 0
    outer loop
      vertex -4.82252 -3.22231 28
      vertex -4.48346 -3.67948 0
      vertex -4.48346 -3.67948 28
    endloop
  endfacet
  facet normal 0.242978 -0.970032 0
    outer loop
      vertex 1.13152 -5.68855 0
      vertex 1.68365 -5.55025 28
      vertex 1.13152 -5.68855 28
    endloop
  endfacet
  facet normal 0.242978 -0.970032 0
    outer loop
      vertex 1.68365 -5.55025 28
      vertex 1.13152 -5.68855 0
      vertex 1.68365 -5.55025 0
    endloop
  endfacet
  facet normal -0.671556 0.740954 0
    outer loop
      vertex -3.67948 4.48346 0
      vertex -4.10122 4.10122 28
      vertex -3.67948 4.48346 28
    endloop
  endfacet
  facet normal -0.671556 0.740954 0
    outer loop
      vertex -4.10122 4.10122 28
      vertex -3.67948 4.48346 0
      vertex -4.10122 4.10122 0
    endloop
  endfacet
  facet normal -0.5141 -0.85773 0
    outer loop
      vertex -3.22231 -4.82252 0
      vertex -2.7341 -5.11514 28
      vertex -3.22231 -4.82252 28
    endloop
  endfacet
  facet normal -0.5141 -0.85773 -0
    outer loop
      vertex -2.7341 -5.11514 28
      vertex -3.22231 -4.82252 0
      vertex -2.7341 -5.11514 0
    endloop
  endfacet
  facet normal -0.0490702 -0.998795 0
    outer loop
      vertex -0.568499 -5.77207 0
      vertex 0 -5.8 28
      vertex -0.568499 -5.77207 28
    endloop
  endfacet
  facet normal -0.0490702 -0.998795 -0
    outer loop
      vertex 0 -5.8 28
      vertex -0.568499 -5.77207 0
      vertex 0 -5.8 0
    endloop
  endfacet
  facet normal -0.903989 0.427556 0
    outer loop
      vertex -5.3585 2.21956 0
      vertex -5.11514 2.7341 28
      vertex -5.11514 2.7341 0
    endloop
  endfacet
  facet normal -0.903989 0.427556 0
    outer loop
      vertex -5.11514 2.7341 28
      vertex -5.3585 2.21956 0
      vertex -5.3585 2.21956 28
    endloop
  endfacet
  facet normal -0.740954 0.671556 0
    outer loop
      vertex -4.48346 3.67948 0
      vertex -4.10122 4.10122 28
      vertex -4.10122 4.10122 0
    endloop
  endfacet
  facet normal -0.740954 0.671556 0
    outer loop
      vertex -4.10122 4.10122 28
      vertex -4.48346 3.67948 0
      vertex -4.48346 3.67948 28
    endloop
  endfacet
  facet normal 0.595699 -0.803208 0
    outer loop
      vertex 3.22231 -4.82252 0
      vertex 3.67948 -4.48346 28
      vertex 3.22231 -4.82252 28
    endloop
  endfacet
  facet normal 0.595699 -0.803208 0
    outer loop
      vertex 3.67948 -4.48346 28
      vertex 3.22231 -4.82252 0
      vertex 3.67948 -4.48346 0
    endloop
  endfacet
  facet normal -0.85773 0.5141 0
    outer loop
      vertex -5.11514 2.7341 0
      vertex -4.82252 3.22231 28
      vertex -4.82252 3.22231 0
    endloop
  endfacet
  facet normal -0.85773 0.5141 0
    outer loop
      vertex -4.82252 3.22231 28
      vertex -5.11514 2.7341 0
      vertex -5.11514 2.7341 28
    endloop
  endfacet
  facet normal -0.903989 -0.427556 0
    outer loop
      vertex -5.11514 -2.7341 0
      vertex -5.3585 -2.21956 28
      vertex -5.3585 -2.21956 0
    endloop
  endfacet
  facet normal -0.903989 -0.427556 0
    outer loop
      vertex -5.3585 -2.21956 28
      vertex -5.11514 -2.7341 0
      vertex -5.11514 -2.7341 28
    endloop
  endfacet
  facet normal -0.85773 -0.5141 0
    outer loop
      vertex -4.82252 -3.22231 0
      vertex -5.11514 -2.7341 28
      vertex -5.11514 -2.7341 0
    endloop
  endfacet
  facet normal -0.85773 -0.5141 0
    outer loop
      vertex -5.11514 -2.7341 28
      vertex -4.82252 -3.22231 0
      vertex -4.82252 -3.22231 28
    endloop
  endfacet
  facet normal 0 0 -1
    outer loop
      vertex -1.13152 -5.68855 0
      vertex 0 -5.8 0
      vertex -0.568499 -5.77207 0
    endloop
  endfacet
  facet normal 0 0 -1
    outer loop
      vertex -1.68365 -5.55025 0
      vertex 0 -5.8 0
      vertex -1.13152 -5.68855 0
    endloop
  endfacet
  facet normal 0 0 -1
    outer loop
      vertex -2.21956 -5.3585 0
      vertex 0 -5.8 0
      vertex -1.68365 -5.55025 0
    endloop
  endfacet
  facet normal 0 0 -1
    outer loop
      vertex -2.7341 -5.11514 0
      vertex 0 -5.8 0
      vertex -2.21956 -5.3585 0
    endloop
  endfacet
  facet normal 0 0 -1
    outer loop
      vertex -3.22231 -4.82252 0
      vertex 0 -5.8 0
      vertex -2.7341 -5.11514 0
    endloop
  endfacet
  facet normal 0 0 -1
    outer loop
      vertex -3.67948 -4.48346 0
      vertex 0 -5.8 0
      vertex -3.22231 -4.82252 0
    endloop
  endfacet
  facet normal 0 0 -1
    outer loop
      vertex -4.10122 -4.10122 0
      vertex 0 -5.8 0
      vertex -3.67948 -4.48346 0
    endloop
  endfacet
  facet normal 0 0 -1
    outer loop
      vertex -4.48346 -3.67948 0
      vertex 0 -5.8 0
      vertex -4.10122 -4.10122 0
    endloop
  endfacet
  facet normal 0 0 -1
    outer loop
      vertex -4.82252 -3.22231 0
      vertex 0 -5.8 0
      vertex -4.48346 -3.67948 0
    endloop
  endfacet
  facet normal 0 0 -1
    outer loop
      vertex -5.11514 -2.7341 0
      vertex 0 -5.8 0
      vertex -4.82252 -3.22231 0
    endloop
  endfacet
  facet normal 0 0 -1
    outer loop
      vertex -5.3585 -2.21956 0
      vertex 0 -5.8 0
      vertex -5.11514 -2.7341 0
    endloop
  endfacet
  facet normal 0 0 -1
    outer loop
      vertex -5.55025 -1.68365 0
      vertex 0 -5.8 0
      vertex -5.3585 -2.21956 0
    endloop
  endfacet
  facet normal 0 0 -1
    outer loop
      vertex -5.68855 -1.13152 0
      vertex 0 -5.8 0
      vertex -5.55025 -1.68365 0
    endloop
  endfacet
  facet normal 0 0 -1
    outer loop
      vertex -5.77207 -0.568499 0
      vertex 0 -5.8 0
      vertex -5.68855 -1.13152 0
    endloop
  endfacet
  facet normal 0 0 -1
    outer loop
      vertex 0 -5.8 0
      vertex -5.77207 -0.568499 0
      vertex -5.8 0 0
    endloop
  endfacet
  facet normal 0 0 -1
    outer loop
      vertex 5.8 0 0
      vertex 5.68855 1.13152 0
      vertex 5.77207 0.568499 0
    endloop
  endfacet
  facet normal 0 0 -1
    outer loop
      vertex 5.8 0 0
      vertex 5.55025 1.68365 0
      vertex 5.68855 1.13152 0
    endloop
  endfacet
  facet normal 0 0 -1
    outer loop
      vertex 5.8 0 0
      vertex 5.3585 2.21956 0
      vertex 5.55025 1.68365 0
    endloop
  endfacet
  facet normal 0 0 -1
    outer loop
      vertex 5.8 0 0
      vertex 5.11514 2.7341 0
      vertex 5.3585 2.21956 0
    endloop
  endfacet
  facet normal 0 0 -1
    outer loop
      vertex 5.8 0 0
      vertex 4.82252 3.22231 0
      vertex 5.11514 2.7341 0
    endloop
  endfacet
  facet normal 0 0 -1
    outer loop
      vertex 5.8 0 0
      vertex 4.48346 3.67948 0
      vertex 4.82252 3.22231 0
    endloop
  endfacet
  facet normal 0 0 -1
    outer loop
      vertex 5.8 0 0
      vertex 4.10122 4.10122 0
      vertex 4.48346 3.67948 0
    endloop
  endfacet
  facet normal 0 0 -1
    outer loop
      vertex 5.8 0 0
      vertex 3.67948 4.48346 0
      vertex 4.10122 4.10122 0
    endloop
  endfacet
  facet normal 0 0 -1
    outer loop
      vertex 5.8 0 0
      vertex 3.22231 4.82252 0
      vertex 3.67948 4.48346 0
    endloop
  endfacet
  facet normal 0 0 -1
    outer loop
      vertex 5.8 0 0
      vertex 2.7341 5.11514 0
      vertex 3.22231 4.82252 0
    endloop
  endfacet
  facet normal 0 0 -1
    outer loop
      vertex 5.8 0 0
      vertex 2.21956 5.3585 0
      vertex 2.7341 5.11514 0
    endloop
  endfacet
  facet normal 0 0 -1
    outer loop
      vertex 5.8 0 0
      vertex 1.68365 5.55025 0
      vertex 2.21956 5.3585 0
    endloop
  endfacet
  facet normal 0 0 -1
    outer loop
      vertex 5.8 0 0
      vertex 1.13152 5.68855 0
      vertex 1.68365 5.55025 0
    endloop
  endfacet
  facet normal 0 0 -1
    outer loop
      vertex 5.8 0 0
      vertex 0.568499 5.77207 0
      vertex 1.13152 5.68855 0
    endloop
  endfacet
  facet normal -0 -0 -1
    outer loop
      vertex 0.568499 5.77207 0
      vertex 5.8 0 0
      vertex 0 5.8 0
    endloop
  endfacet
  facet normal 0 0 -1
    outer loop
      vertex 0 5.8 0
      vertex -1.13152 5.68855 0
      vertex -0.568499 5.77207 0
    endloop
  endfacet
  facet normal 0 0 -1
    outer loop
      vertex 0 5.8 0
      vertex -1.68365 5.55025 0
      vertex -1.13152 5.68855 0
    endloop
  endfacet
  facet normal 0 0 -1
    outer loop
      vertex 0 5.8 0
      vertex -2.21956 5.3585 0
      vertex -1.68365 5.55025 0
    endloop
  endfacet
  facet normal 0 0 -1
    outer loop
      vertex 0 5.8 0
      vertex -2.7341 5.11514 0
      vertex -2.21956 5.3585 0
    endloop
  endfacet
  facet normal 0 0 -1
    outer loop
      vertex 0 5.8 0
      vertex -3.22231 4.82252 0
      vertex -2.7341 5.11514 0
    endloop
  endfacet
  facet normal 0 0 -1
    outer loop
      vertex 0 5.8 0
      vertex -3.67948 4.48346 0
      vertex -3.22231 4.82252 0
    endloop
  endfacet
  facet normal 0 0 -1
    outer loop
      vertex 0 5.8 0
      vertex -4.10122 4.10122 0
      vertex -3.67948 4.48346 0
    endloop
  endfacet
  facet normal 0 0 -1
    outer loop
      vertex 0 5.8 0
      vertex -4.48346 3.67948 0
      vertex -4.10122 4.10122 0
    endloop
  endfacet
  facet normal 0 0 -1
    outer loop
      vertex 0 5.8 0
      vertex -4.82252 3.22231 0
      vertex -4.48346 3.67948 0
    endloop
  endfacet
  facet normal 0 0 -1
    outer loop
      vertex 0 5.8 0
      vertex -5.11514 2.7341 0
      vertex -4.82252 3.22231 0
    endloop
  endfacet
  facet normal 0 0 -1
    outer loop
      vertex 0 5.8 0
      vertex -5.3585 2.21956 0
      vertex -5.11514 2.7341 0
    endloop
  endfacet
  facet normal 0 0 -1
    outer loop
      vertex 0 5.8 0
      vertex -5.55025 1.68365 0
      vertex -5.3585 2.21956 0
    endloop
  endfacet
  facet normal 0 0 -1
    outer loop
      vertex 0 5.8 0
      vertex -5.68855 1.13152 0
      vertex -5.55025 1.68365 0
    endloop
  endfacet
  facet normal 0 0 -1
    outer loop
      vertex 0 5.8 0
      vertex -5.77207 0.568499 0
      vertex -5.68855 1.13152 0
    endloop
  endfacet
  facet normal 0 -0 -1
    outer loop
      vertex -5.77207 0.568499 0
      vertex 0 5.8 0
      vertex -5.8 0 0
    endloop
  endfacet
  facet normal 0 0 -1
    outer loop
      vertex 5.68855 -1.13152 0
      vertex 5.8 0 0
      vertex 5.77207 -0.568499 0
    endloop
  endfacet
  facet normal 0 0 -1
    outer loop
      vertex 5.55025 -1.68365 0
      vertex 5.8 0 0
      vertex 5.68855 -1.13152 0
    endloop
  endfacet
  facet normal 0 0 -1
    outer loop
      vertex 5.3585 -2.21956 0
      vertex 5.8 0 0
      vertex 5.55025 -1.68365 0
    endloop
  endfacet
  facet normal 0 0 -1
    outer loop
      vertex 5.11514 -2.7341 0
      vertex 5.8 0 0
      vertex 5.3585 -2.21956 0
    endloop
  endfacet
  facet normal 0 0 -1
    outer loop
      vertex 4.82252 -3.22231 0
      vertex 5.8 0 0
      vertex 5.11514 -2.7341 0
    endloop
  endfacet
  facet normal 0 0 -1
    outer loop
      vertex 4.48346 -3.67948 0
      vertex 5.8 0 0
      vertex 4.82252 -3.22231 0
    endloop
  endfacet
  facet normal 0 0 -1
    outer loop
      vertex 4.10122 -4.10122 0
      vertex 5.8 0 0
      vertex 4.48346 -3.67948 0
    endloop
  endfacet
  facet normal 0 0 -1
    outer loop
      vertex 3.67948 -4.48346 0
      vertex 5.8 0 0
      vertex 4.10122 -4.10122 0
    endloop
  endfacet
  facet normal 0 0 -1
    outer loop
      vertex 3.22231 -4.82252 0
      vertex 5.8 0 0
      vertex 3.67948 -4.48346 0
    endloop
  endfacet
  facet normal 0 0 -1
    outer loop
      vertex 2.7341 -5.11514 0
      vertex 5.8 0 0
      vertex 3.22231 -4.82252 0
    endloop
  endfacet
  facet normal 0 0 -1
    outer loop
      vertex 2.21956 -5.3585 0
      vertex 5.8 0 0
      vertex 2.7341 -5.11514 0
    endloop
  endfacet
  facet normal 0 0 -1
    outer loop
      vertex 1.68365 -5.55025 0
      vertex 5.8 0 0
      vertex 2.21956 -5.3585 0
    endloop
  endfacet
  facet normal 0 0 -1
    outer loop
      vertex 1.13152 -5.68855 0
      vertex 5.8 0 0
      vertex 1.68365 -5.55025 0
    endloop
  endfacet
  facet normal 0 0 -1
    outer loop
      vertex 0.568499 -5.77207 0
      vertex 5.8 0 0
      vertex 1.13152 -5.68855 0
    endloop
  endfacet
  facet normal 0 0 -1
    outer loop
      vertex 5.8 0 0
      vertex 0.568499 -5.77207 0
      vertex 0 -5.8 0
    endloop
  endfacet
  facet normal -0.998795 0.0490702 0
    outer loop
      vertex -5.8 0 0
      vertex -5.77207 0.568499 28
      vertex -5.77207 0.568499 0
    endloop
  endfacet
  facet normal -0.998795 0.0490702 0
    outer loop
      vertex -5.77207 0.568499 28
      vertex -5.8 0 0
      vertex -5.8 0 28
    endloop
  endfacet
  facet normal -0.146737 -0.989176 0
    outer loop
      vertex -1.13152 -5.68855 0
      vertex -0.568499 -5.77207 28
      vertex -1.13152 -5.68855 28
    endloop
  endfacet
  facet normal -0.146737 -0.989176 -0
    outer loop
      vertex -0.568499 -5.77207 28
      vertex -1.13152 -5.68855 0
      vertex -0.568499 -5.77207 0
    endloop
  endfacet
  facet normal -0.427556 -0.903989 0
    outer loop
      vertex -2.7341 -5.11514 0
      vertex -2.21956 -5.3585 28
      vertex -2.7341 -5.11514 28
    endloop
  endfacet
  facet normal -0.427556 -0.903989 -0
    outer loop
      vertex -2.21956 -5.3585 28
      vertex -2.7341 -5.11514 0
      vertex -2.21956 -5.3585 0
    endloop
  endfacet
  facet normal 0.707107 -0.707107 0
    outer loop
      vertex -4.2 0 38
      vertex 0 4.2 -10
      vertex 0 4.2 38
    endloop
  endfacet
  facet normal 0.707107 -0.707107 0
    outer loop
      vertex 0 4.2 -10
      vertex -4.2 0 38
      vertex -4.2 0 -10
    endloop
  endfacet
  facet normal -0.707107 -0.707107 0
    outer loop
      vertex 4.2 0 -10
      vertex 0 4.2 38
      vertex 0 4.2 -10
    endloop
  endfacet
  facet normal -0.707107 -0.707107 0
    outer loop
      vertex 0 4.2 38
      vertex 4.2 0 -10
      vertex 4.2 0 38
    endloop
  endfacet
  facet normal -0.707107 0.707107 0
    outer loop
      vertex 0 -4.2 -10
      vertex 4.2 0 38
      vertex 4.2 0 -10
    endloop
  endfacet
  facet normal -0.707107 0.707107 0
    outer loop
      vertex 4.2 0 38
      vertex 0 -4.2 -10
      vertex 0 -4.2 38
    endloop
  endfacet
  facet normal 0.707107 0.707107 0
    outer loop
      vertex 0 -4.2 38
      vertex -4.2 0 -10
      vertex -4.2 0 38
    endloop
  endfacet
  facet normal 0.707107 0.707107 0
    outer loop
      vertex -4.2 0 -10
      vertex 0 -4.2 38
      vertex 0 -4.2 -10
    endloop
  endfacet
endsolid OpenSCAD_Model
