solid OpenSCAD_Model
  facet normal 1 -0 0
    outer loop
      vertex 24.2 0 16.6
      vertex 24.2 24.2 0
      vertex 24.2 24.2 16.6
    endloop
  endfacet
  facet normal 1 0 0
    outer loop
      vertex 24.2 24.2 0
      vertex 24.2 0 16.6
      vertex 24.2 0 0
    endloop
  endfacet
  facet normal 0 0 1
    outer loop
      vertex 9.7 24.2 16.6
      vertex 1.6 22.6 16.6
      vertex 9.7 22.6 16.6
    endloop
  endfacet
  facet normal 0 0 1
    outer loop
      vertex 1.6 22.6 16.6
      vertex 0 24.2 16.6
      vertex 1.6 1.6 16.6
    endloop
  endfacet
  facet normal -0 0 1
    outer loop
      vertex 0 24.2 16.6
      vertex 1.6 22.6 16.6
      vertex 9.7 24.2 16.6
    endloop
  endfacet
  facet normal -0 0 1
    outer loop
      vertex 1.6 1.6 16.6
      vertex 4.6 0 16.6
      vertex 4.6 1.6 16.6
    endloop
  endfacet
  facet normal 0 0 1
    outer loop
      vertex 1.6 1.6 16.6
      vertex 0 0 16.6
      vertex 4.6 0 16.6
    endloop
  endfacet
  facet normal 0 0 1
    outer loop
      vertex 0 0 16.6
      vertex 1.6 1.6 16.6
      vertex 0 24.2 16.6
    endloop
  endfacet
  facet normal 0 0 1
    outer loop
      vertex 24.2 24.2 16.6
      vertex 22.6 22.6 16.6
      vertex 24.2 0 16.6
    endloop
  endfacet
  facet normal -0 0 1
    outer loop
      vertex 14.7 24.2 16.6
      vertex 22.6 22.6 16.6
      vertex 24.2 24.2 16.6
    endloop
  endfacet
  facet normal 0 0 1
    outer loop
      vertex 22.6 22.6 16.6
      vertex 14.7 24.2 16.6
      vertex 14.7 22.6 16.6
    endloop
  endfacet
  facet normal -0 0 1
    outer loop
      vertex 22.6 1.6 16.6
      vertex 24.2 0 16.6
      vertex 22.6 22.6 16.6
    endloop
  endfacet
  facet normal 0 0 1
    outer loop
      vertex 14.6 0 16.6
      vertex 22.6 1.6 16.6
      vertex 14.6 1.6 16.6
    endloop
  endfacet
  facet normal 0 0 1
    outer loop
      vertex 22.6 1.6 16.6
      vertex 14.6 0 16.6
      vertex 24.2 0 16.6
    endloop
  endfacet
  facet normal 0 0 -1
    outer loop
      vertex 0 0 0
      vertex 24.2 24.2 0
      vertex 24.2 0 0
    endloop
  endfacet
  facet normal -0 0 -1
    outer loop
      vertex 24.2 24.2 0
      vertex 0 0 0
      vertex 0 24.2 0
    endloop
  endfacet
  facet normal -1 0 0
    outer loop
      vertex 0 0 0
      vertex 0 24.2 16.6
      vertex 0 24.2 0
    endloop
  endfacet
  facet normal -1 -0 0
    outer loop
      vertex 0 24.2 16.6
      vertex 0 0 0
      vertex 0 0 16.6
    endloop
  endfacet
  facet normal 0 1 0
    outer loop
      vertex 24.2 24.2 16.6
      vertex 14.7 24.2 11.6
      vertex 14.7 24.2 16.6
    endloop
  endfacet
  facet normal 0 1 0
    outer loop
      vertex 14.7 24.2 11.6
      vertex 24.2 24.2 0
      vertex 9.7 24.2 11.6
    endloop
  endfacet
  facet normal 0 1 -0
    outer loop
      vertex 24.2 24.2 0
      vertex 14.7 24.2 11.6
      vertex 24.2 24.2 16.6
    endloop
  endfacet
  facet normal 0 1 -0
    outer loop
      vertex 9.7 24.2 11.6
      vertex 0 24.2 16.6
      vertex 9.7 24.2 16.6
    endloop
  endfacet
  facet normal 0 1 0
    outer loop
      vertex 0 24.2 0
      vertex 9.7 24.2 11.6
      vertex 24.2 24.2 0
    endloop
  endfacet
  facet normal 0 1 0
    outer loop
      vertex 9.7 24.2 11.6
      vertex 0 24.2 0
      vertex 0 24.2 16.6
    endloop
  endfacet
  facet normal 0 -1 0
    outer loop
      vertex 0 0 16.6
      vertex 4.6 0 5.6
      vertex 4.6 0 16.6
    endloop
  endfacet
  facet normal 0 -1 -0
    outer loop
      vertex 4.6 0 5.6
      vertex 0 0 0
      vertex 14.6 0 5.6
    endloop
  endfacet
  facet normal 0 -1 0
    outer loop
      vertex 0 0 0
      vertex 4.6 0 5.6
      vertex 0 0 16.6
    endloop
  endfacet
  facet normal 0 -1 0
    outer loop
      vertex 14.6 0 5.6
      vertex 24.2 0 16.6
      vertex 14.6 0 16.6
    endloop
  endfacet
  facet normal 0 -1 0
    outer loop
      vertex 14.6 0 5.6
      vertex 24.2 0 0
      vertex 24.2 0 16.6
    endloop
  endfacet
  facet normal 0 -1 0
    outer loop
      vertex 24.2 0 0
      vertex 14.6 0 5.6
      vertex 0 0 0
    endloop
  endfacet
  facet normal -1 0 0
    outer loop
      vertex 22.6 1.6 1.6
      vertex 22.6 22.6 16.6
      vertex 22.6 22.6 1.6
    endloop
  endfacet
  facet normal -1 -0 0
    outer loop
      vertex 22.6 22.6 16.6
      vertex 22.6 1.6 1.6
      vertex 22.6 1.6 16.6
    endloop
  endfacet
  facet normal -0 0 1
    outer loop
      vertex 1.6 22.6 1.6
      vertex 22.6 1.6 1.6
      vertex 22.6 22.6 1.6
    endloop
  endfacet
  facet normal 0 0 1
    outer loop
      vertex 22.6 1.6 1.6
      vertex 1.6 22.6 1.6
      vertex 1.6 1.6 1.6
    endloop
  endfacet
  facet normal 1 -0 0
    outer loop
      vertex 1.6 1.6 16.6
      vertex 1.6 22.6 1.6
      vertex 1.6 22.6 16.6
    endloop
  endfacet
  facet normal 1 0 0
    outer loop
      vertex 1.6 22.6 1.6
      vertex 1.6 1.6 16.6
      vertex 1.6 1.6 1.6
    endloop
  endfacet
  facet normal 0 -1 0
    outer loop
      vertex 1.6 22.6 16.6
      vertex 9.7 22.6 11.6
      vertex 9.7 22.6 16.6
    endloop
  endfacet
  facet normal 0 -1 0
    outer loop
      vertex 22.6 22.6 1.6
      vertex 9.7 22.6 11.6
      vertex 1.6 22.6 1.6
    endloop
  endfacet
  facet normal 0 -1 0
    outer loop
      vertex 1.6 22.6 1.6
      vertex 9.7 22.6 11.6
      vertex 1.6 22.6 16.6
    endloop
  endfacet
  facet normal 0 -1 0
    outer loop
      vertex 14.7 22.6 11.6
      vertex 22.6 22.6 16.6
      vertex 14.7 22.6 16.6
    endloop
  endfacet
  facet normal 0 -1 0
    outer loop
      vertex 9.7 22.6 11.6
      vertex 22.6 22.6 1.6
      vertex 14.7 22.6 11.6
    endloop
  endfacet
  facet normal 0 -1 0
    outer loop
      vertex 14.7 22.6 11.6
      vertex 22.6 22.6 1.6
      vertex 22.6 22.6 16.6
    endloop
  endfacet
  facet normal 0 1 0
    outer loop
      vertex 22.6 1.6 16.6
      vertex 14.6 1.6 5.6
      vertex 14.6 1.6 16.6
    endloop
  endfacet
  facet normal 0 1 0
    outer loop
      vertex 1.6 1.6 1.6
      vertex 14.6 1.6 5.6
      vertex 22.6 1.6 1.6
    endloop
  endfacet
  facet normal 0 1 -0
    outer loop
      vertex 22.6 1.6 1.6
      vertex 14.6 1.6 5.6
      vertex 22.6 1.6 16.6
    endloop
  endfacet
  facet normal 0 1 -0
    outer loop
      vertex 4.6 1.6 5.6
      vertex 1.6 1.6 16.6
      vertex 4.6 1.6 16.6
    endloop
  endfacet
  facet normal 0 1 0
    outer loop
      vertex 4.6 1.6 5.6
      vertex 1.6 1.6 1.6
      vertex 1.6 1.6 16.6
    endloop
  endfacet
  facet normal 0 1 0
    outer loop
      vertex 14.6 1.6 5.6
      vertex 1.6 1.6 1.6
      vertex 4.6 1.6 5.6
    endloop
  endfacet
  facet normal -1 0 0
    outer loop
      vertex 14.6 0 5.6
      vertex 14.6 1.6 16.6
      vertex 14.6 1.6 5.6
    endloop
  endfacet
  facet normal -1 -0 0
    outer loop
      vertex 14.6 1.6 16.6
      vertex 14.6 0 5.6
      vertex 14.6 0 16.6
    endloop
  endfacet
  facet normal -0 0 1
    outer loop
      vertex 4.6 1.6 5.6
      vertex 14.6 0 5.6
      vertex 14.6 1.6 5.6
    endloop
  endfacet
  facet normal 0 0 1
    outer loop
      vertex 14.6 0 5.6
      vertex 4.6 1.6 5.6
      vertex 4.6 0 5.6
    endloop
  endfacet
  facet normal 1 -0 0
    outer loop
      vertex 4.6 0 16.6
      vertex 4.6 1.6 5.6
      vertex 4.6 1.6 16.6
    endloop
  endfacet
  facet normal 1 0 0
    outer loop
      vertex 4.6 1.6 5.6
      vertex 4.6 0 16.6
      vertex 4.6 0 5.6
    endloop
  endfacet
  facet normal -1 0 0
    outer loop
      vertex 14.7 22.6 11.6
      vertex 14.7 24.2 16.6
      vertex 14.7 24.2 11.6
    endloop
  endfacet
  facet normal -1 -0 0
    outer loop
      vertex 14.7 24.2 16.6
      vertex 14.7 22.6 11.6
      vertex 14.7 22.6 16.6
    endloop
  endfacet
  facet normal -0 0 1
    outer loop
      vertex 9.7 24.2 11.6
      vertex 14.7 22.6 11.6
      vertex 14.7 24.2 11.6
    endloop
  endfacet
  facet normal 0 0 1
    outer loop
      vertex 14.7 22.6 11.6
      vertex 9.7 24.2 11.6
      vertex 9.7 22.6 11.6
    endloop
  endfacet
  facet normal 1 -0 0
    outer loop
      vertex 9.7 22.6 16.6
      vertex 9.7 24.2 11.6
      vertex 9.7 24.2 16.6
    endloop
  endfacet
  facet normal 1 0 0
    outer loop
      vertex 9.7 24.2 11.6
      vertex 9.7 22.6 16.6
      vertex 9.7 22.6 11.6
    endloop
  endfacet
endsolid OpenSCAD_Model
