<?xml version="1.0" standalone="no"?>
<!DOCTYPE svg PUBLIC "-//W3C//DTD SVG 20010904//EN"
 "http://www.w3.org/TR/2001/REC-SVG-20010904/DTD/svg10.dtd">
<svg version="1.0" xmlns="http://www.w3.org/2000/svg"
 width="600.000000pt" height="600.000000pt" viewBox="0 0 600.000000 600.000000"
 preserveAspectRatio="xMidYMid meet">

<g transform="translate(0.000000,600.000000) scale(0.100000,-0.100000)"
fill="#000000" stroke="none">
<path d="M645 3935 c-61 -22 -95 -65 -95 -123 0 -57 20 -89 66 -108 47 -20 51
-18 25 10 -19 20 -22 31 -17 61 8 42 41 67 91 67 88 0 125 -111 67 -203 -35
-54 -99 -91 -262 -149 -178 -64 -238 -96 -305 -164 -107 -108 -146 -227 -126
-378 14 -105 54 -192 123 -264 l53 -56 1 -82 c0 -55 5 -91 16 -112 23 -42 87
-98 149 -130 l52 -26 -7 87 c-3 47 -13 102 -21 122 -13 31 -13 34 0 29 51 -19
131 -37 209 -45 49 -6 90 -12 91 -13 1 -2 14 -29 30 -61 39 -78 111 -166 165
-199 25 -15 69 -32 99 -38 60 -11 211 -13 260 -4 32 7 32 7 13 28 -11 11 -39
53 -62 91 -58 97 -123 161 -188 185 -29 11 -62 20 -72 20 -37 0 -20 16 30 29
28 7 99 37 158 67 131 66 148 70 214 50 64 -18 101 -54 152 -151 78 -144 152
-204 278 -225 55 -10 101 -9 241 5 105 10 199 14 241 10 l69 -6 -7 27 c-18 69
-91 235 -131 295 -97 147 -252 220 -433 205 -72 -6 -148 -28 -270 -80 -47 -20
-76 -26 -115 -24 l-52 3 181 127 c242 170 465 318 480 318 26 0 86 -32 149
-81 127 -97 254 -136 355 -109 34 9 262 104 277 115 9 6 -203 161 -255 187
-71 35 -174 47 -252 29 -24 -5 -46 -8 -49 -6 -8 9 243 123 325 148 113 36 243
57 346 57 l87 0 7 -47 c10 -71 42 -150 77 -190 16 -19 58 -48 91 -65 65 -33
187 -81 192 -76 5 5 -16 100 -37 164 -22 67 -73 135 -123 161 -48 25 -14 27
57 4 102 -34 214 -106 298 -191 61 -61 86 -96 123 -171 61 -124 79 -199 79
-329 1 -123 -13 -188 -60 -288 -62 -132 -172 -227 -323 -278 -84 -28 -256 -26
-330 5 -308 128 -366 549 -95 694 54 29 193 31 245 3 112 -59 178 -201 139
-303 -33 -89 -147 -139 -219 -96 -50 29 -63 83 -30 126 26 33 64 42 101 23 29
-14 29 -14 29 16 0 35 -44 83 -85 94 -33 8 -93 -9 -130 -38 -84 -66 -70 -228
25 -297 123 -89 291 -52 375 84 28 45 30 55 30 144 0 77 -4 105 -22 143 -29
63 -102 134 -171 166 -50 23 -70 27 -162 27 -99 0 -109 -2 -173 -33 -329 -162
-306 -622 39 -788 232 -111 515 -66 704 113 114 107 176 232 200 408 54 376
-205 731 -597 821 -89 21 -97 23 -90 30 3 3 69 -2 147 -11 210 -24 367 -68
603 -169 43 -19 93 -88 103 -144 4 -19 0 -66 -10 -108 -9 -41 -16 -107 -16
-147 1 -125 47 -197 207 -319 l98 -76 30 107 c39 139 42 273 7 338 -32 61 -82
107 -167 154 -48 26 -85 55 -105 82 -16 22 -28 42 -26 44 6 6 116 -51 184 -94
259 -165 440 -369 493 -558 22 -79 18 -191 -10 -247 -29 -60 -79 -93 -140 -92
-38 1 -49 7 -78 37 -53 59 -43 126 23 153 31 13 39 13 65 0 27 -13 28 -13 19
3 -33 63 -138 62 -197 -2 -76 -84 -38 -217 79 -278 83 -43 220 -12 284 64 52
61 69 114 68 212 0 169 -60 298 -206 448 -49 49 -88 91 -88 93 0 2 59 -26 132
-61 72 -35 171 -77 220 -92 98 -31 94 -26 133 -165 32 -118 96 -159 259 -166
125 -5 121 -13 60 96 -36 63 -88 124 -134 154 -25 17 -25 17 27 17 28 1 85 6
126 11 69 10 77 9 128 -15 69 -32 151 -34 214 -4 71 33 75 45 24 69 -24 11
-56 20 -71 20 -16 0 -28 4 -28 8 0 4 27 27 60 50 304 215 283 653 -39 810 -71
34 -82 37 -171 37 -106 0 -153 -17 -218 -79 -57 -53 -77 -101 -77 -186 0 -83
19 -131 71 -184 89 -90 251 -88 319 2 15 20 20 43 20 88 0 70 -14 93 -77 125
-37 19 -52 13 -24 -10 24 -20 28 -59 10 -96 -18 -39 -46 -51 -102 -42 -55 10
-84 45 -90 111 -4 49 -1 62 22 97 39 58 99 83 185 77 117 -9 220 -79 271 -183
22 -43 25 -64 25 -155 0 -100 -2 -109 -34 -175 -68 -138 -198 -232 -375 -270
-61 -14 -108 -16 -220 -12 -77 3 -154 9 -171 15 l-30 9 30 7 c110 25 158 58
205 140 17 28 30 54 30 57 0 4 -21 9 -47 12 -27 3 -79 10 -118 17 -118 21
-177 -8 -276 -140 l-26 -35 -85 38 c-46 21 -169 85 -274 143 -104 58 -244 132
-311 166 -68 33 -120 64 -117 69 2 5 39 7 82 5 64 -2 90 -9 154 -39 98 -47
162 -60 259 -55 104 6 182 45 286 141 43 40 94 86 114 103 l37 31 -157 76
c-180 88 -210 97 -308 97 -136 0 -235 -61 -326 -200 -49 -75 -88 -104 -162
-121 -53 -12 -56 -11 -187 38 -146 55 -251 85 -373 106 -83 15 -83 16 -1 36
98 24 166 91 236 236 63 132 68 122 -57 117 -188 -7 -294 -40 -361 -111 -31
-33 -69 -118 -86 -190 l-12 -56 -95 -8 c-167 -13 -301 -37 -416 -76 -62 -20
-113 -34 -113 -30 0 3 9 14 21 25 12 10 31 37 43 59 19 36 21 55 20 183 0 78
-3 145 -6 147 -11 11 -214 -97 -251 -133 -74 -72 -99 -171 -75 -297 8 -38 12
-77 10 -86 -2 -9 -31 -32 -65 -50 -76 -40 -242 -142 -359 -220 -49 -32 -88
-56 -88 -53 0 3 22 31 50 62 60 67 122 184 145 271 19 74 21 221 4 284 -29
107 -104 198 -202 243 -55 26 -73 29 -157 29 -84 0 -102 -3 -152 -28 -223
-110 -226 -427 -4 -512 55 -21 144 -17 199 10 106 50 127 209 35 265 -40 24
-69 25 -111 3 -32 -17 -32 -17 -7 -21 78 -12 82 -107 6 -132 -41 -13 -106 9
-129 44 -52 78 -42 164 27 232 54 55 110 71 186 55 230 -47 308 -324 169 -599
-144 -286 -536 -588 -872 -673 -48 -12 -90 -20 -93 -16 -3 3 13 27 37 52 30
32 72 60 137 91 209 100 315 290 269 479 -15 61 -124 295 -137 295 -3 0 -14
-17 -25 -37 -11 -21 -79 -96 -151 -168 -157 -155 -178 -189 -178 -295 -1 -61
5 -92 33 -169 32 -88 34 -96 22 -140 -7 -28 -26 -60 -49 -83 -31 -33 -42 -38
-83 -38 -157 0 -329 61 -424 151 -197 186 -182 485 27 540 90 24 188 -31 188
-105 0 -74 -79 -104 -122 -46 -25 34 -38 25 -38 -27 0 -52 45 -95 106 -100
114 -10 187 86 155 205 -31 113 -175 183 -308 149 -57 -15 -37 9 40 46 39 19
133 54 207 77 158 49 211 75 263 125 52 51 77 104 77 165 0 98 -57 179 -144
205 -60 18 -70 18 -121 0z"/>
</g>
</svg>
