<?xml version="1.0" encoding="UTF-8" standalone="no"?>
<svg
   xmlns:dc="http://purl.org/dc/elements/1.1/"
   xmlns:cc="http://creativecommons.org/ns#"
   xmlns:rdf="http://www.w3.org/1999/02/22-rdf-syntax-ns#"
   xmlns:svg="http://www.w3.org/2000/svg"
   xmlns="http://www.w3.org/2000/svg"
   xmlns:sodipodi="http://sodipodi.sourceforge.net/DTD/sodipodi-0.dtd"
   xmlns:inkscape="http://www.inkscape.org/namespaces/inkscape"
   id="svg"
   version="1.1"
   width="400"
   height="377.7173913043478"
   viewBox="0, 0, 400,377.7173913043478"
   sodipodi:docname="cute-fox.svg"
   inkscape:version="0.92.5 (2060ec1f9f, 2020-04-08)">
  <metadata
     id="metadata871">
    <rdf:RDF>
      <cc:Work
         rdf:about="">
        <dc:format>image/svg+xml</dc:format>
        <dc:type
           rdf:resource="http://purl.org/dc/dcmitype/StillImage" />
        <dc:title></dc:title>
      </cc:Work>
    </rdf:RDF>
  </metadata>
  <defs
     id="defs869" />
  <sodipodi:namedview
     pagecolor="#ffffff"
     bordercolor="#666666"
     borderopacity="1"
     objecttolerance="10"
     gridtolerance="10"
     guidetolerance="10"
     inkscape:pageopacity="0"
     inkscape:pageshadow="2"
     inkscape:window-width="1848"
     inkscape:window-height="1016"
     id="namedview867"
     showgrid="false"
     inkscape:zoom="2.21859"
     inkscape:cx="200"
     inkscape:cy="188.85869"
     inkscape:window-x="1992"
     inkscape:window-y="27"
     inkscape:window-maximized="1"
     inkscape:current-layer="svg" />
  <path
     style="fill:#050505;fill-rule:evenodd;stroke:none"
     inkscape:connector-curvature="0"
     d="M 40.25,2.216 C 31.801,7.368 26.38,27.33 24.985,58.427 c -0.715,15.925 -0.034,19.829 6.19,35.51 5.838,14.71 5.868,14.988 2.176,20.753 -2.887,4.507 -3.447,5.502 -7.97,14.153 -6.506,12.443 -9.042,15.68 -15.061,19.226 -6.706,3.95 -6.909,6.286 -1.279,14.721 13.765,20.623 36.719,39.582 68.275,56.392 13.561,7.224 13.421,7.139 13.421,8.185 0,0.462 -0.778,1.937 -1.73,3.278 -13.801,19.433 -17.701,32.274 -17.678,58.202 0.015,17.327 0.35,18.809 11.955,52.741 2.604,7.614 3.662,11.68 4.604,17.699 1.312,8.383 4.136,11.152 13.581,13.314 3.124,0.716 114.151,0.545 116.053,-0.178 1.711,-0.65 5.949,-0.768 34.523,-0.958 48.852,-0.325 53.694,-0.792 70.619,-6.814 16.018,-5.7 26.522,-11.657 36.421,-20.657 1.605,-1.46 3.84,-3.183 4.966,-3.83 7.721,-4.436 17.407,-18.656 21.69,-31.846 4.06,-12.499 5.747,-22.424 6.332,-37.24 0.209,-5.303 0.632,-12.067 0.94,-15.031 0.703,-6.77 0.697,-9.103 -0.031,-12.191 -0.318,-1.351 -0.997,-5.094 -1.508,-8.317 -1.553,-9.789 -2.319,-12.193 -5.258,-16.484 -0.893,-1.304 -1.942,-3.276 -2.332,-4.381 -2.01,-5.702 -6.774,-7.656 -10.849,-4.451 -1.562,1.229 -9.36,12.314 -11.448,16.275 -2.412,4.574 -3.629,4.848 -23.402,5.263 -17.95,0.377 -19.858,0.647 -26.655,3.778 -2.599,1.197 -4.933,1.859 -10.783,3.055 -25.182,5.148 -42.304,14.397 -53.925,29.13 -2.769,3.51 -2.984,3.676 -3.68,2.837 -0.632,-0.762 -4.368,-13.119 -6.09,-20.146 -2.231,-9.1 -4.041,-12.853 -12.999,-26.942 -3.408,-5.36 -3.404,-5.386 1.33,-7.83 6.84,-3.533 19.117,-12.11 25.846,-18.057 23.972,-21.187 34.68,-35.995 31.97,-44.208 -0.695,-2.106 -3.894,-4.724 -9.111,-7.456 -7.894,-4.133 -9.979,-6.669 -16.835,-20.473 -4.305,-8.667 -4.346,-8.954 -1.798,-12.665 13.812,-20.114 14.678,-23.213 14.675,-52.482 l -0.002,-19.281 -1.063,-6.049 c -1.406,-7.998 -6.425,-22.303 -8.623,-24.575 -0.877,-0.908 -7.914,-1.039 -11.86,-0.222 -9.359,1.939 -35.228,11.003 -41.278,14.463 -6.164,3.525 -18.471,14.368 -23.731,20.908 -4.227,5.255 -3.731,5.162 -12.117,2.289 -14.001,-4.795 -29.356,-4.006 -47.146,2.422 -3.511,1.269 -4.502,0.527 -8.533,-6.39 C 106.057,27.189 97.047,20.607 72.023,11.904 66.824,10.096 60.784,7.941 58.601,7.116 43.017,1.227 42.22,1.014 40.25,2.216 m 14.863,27.081 c 11.566,3.098 25.928,8.545 30.223,11.461 8.649,5.874 10.336,16.334 3.707,22.984 -3.305,3.315 -4.398,3.486 -16.453,2.579 -4.059,-0.305 -4.422,0 -4.884,4.117 -0.645,5.751 -3.086,8.673 -9.069,10.857 C 43.35,86.874 37.072,71.604 42.544,42.155 45.014,28.86 46.772,27.062 55.113,29.297 m 196.969,5.132 c 2.86,0.997 4.253,10.019 4.244,27.478 -0.007,13.947 -0.242,15.897 -2.452,20.389 -6.65,13.515 -24.861,8.767 -27.1,-7.067 -0.693,-4.903 -0.743,-4.932 -8.139,-4.831 -8.34,0.114 -12.674,-2.184 -15.696,-8.321 -5.699,-11.576 5.348,-21.481 29.396,-26.357 8.007,-1.624 17.089,-2.217 19.747,-1.291 m -41.685,81.637 c 11.405,2.131 22.503,8.877 26.995,16.408 4.019,6.739 6.086,17.433 6.086,31.482 0,8.39 -0.213,8.065 5.283,8.07 8.736,0.009 13.974,7.443 10.357,14.7 -5.266,10.568 -55.724,38.531 -84.26,46.696 -8.316,2.379 -9.263,2.712 -9.263,3.253 0,0.789 1.126,0.794 5.427,0.024 5.79,-1.037 10.089,-1.054 11.002,-0.046 0.851,0.941 4.078,12.922 5.401,20.058 1.332,7.181 1.543,25.29 0.364,31.191 -3.862,19.319 -14.156,32.828 -27.645,36.281 -27.362,7.004 -50.087,-37.507 -40.258,-78.852 1.505,-6.331 1.865,-6.768 5.57,-6.768 5.304,0 4.479,-1.285 -2.043,-3.184 -7.65,-2.228 -20.102,-6.579 -26.234,-9.167 -24.864,-10.497 -64.298,-36.38 -64.289,-42.198 0.01,-6.447 7.568,-11.511 17.849,-11.958 6.599,-0.287 6.11,0.333 6.389,-8.085 1.305,-39.262 32.344,-60.282 60.55,-41.005 16.345,11.17 25.734,30.103 31.638,63.799 1.841,10.505 1.896,10.321 -3.207,10.729 -6.815,0.543 -14.663,3.991 -16.303,7.161 -1.654,3.199 5.033,14.346 11.103,18.507 5.466,3.748 6.53,5.138 7.315,9.566 0.982,5.538 2.001,6.321 2.38,1.83 0.416,-4.917 1.71,-6.876 6.769,-10.253 14.379,-9.598 14.303,-23.562 -0.145,-26.825 -4.963,-1.121 -4.857,-3.828 0.986,-25.317 12.065,-44.366 27.303,-60.746 52.183,-56.097 m -104.348,44.988 c -12.553,6.235 -16.355,24.86 -6.848,33.548 12.185,11.136 27.555,-17.535 16.185,-30.19 -3.512,-3.909 -6.247,-4.893 -9.337,-3.358 m 83.096,0.793 c -4.464,2.21 -7.292,8.209 -7.292,15.469 0,17.445 18.036,27.925 23.466,13.635 3.714,-9.775 2.255,-17.825 -4.475,-24.693 -5.23,-5.338 -7.839,-6.322 -11.699,-4.411 m -76.589,5.247 c 4.166,2.541 3.672,7.403 -1.075,10.573 -3.841,2.565 -8.099,0.739 -9.367,-4.016 -1.416,-5.314 5.43,-9.613 10.442,-6.557 m 85.37,1.904 c 3.669,3.429 2.625,7.606 -2.547,10.19 -6.505,3.251 -11.067,-2.037 -7.763,-8.999 1.184,-2.495 8.065,-3.29 10.31,-1.191 m 180.983,51.461 c 6.731,7.064 8.393,28.069 5.038,63.658 -0.314,3.329 -0.713,8.095 -0.887,10.59 -0.291,4.163 -0.448,4.829 -1.901,8.093 -0.872,1.955 -1.853,4.592 -2.18,5.86 -1.452,5.614 -8.627,17.238 -10.641,17.238 -1.601,0 -6.145,-6.194 -6.145,-8.376 0,-0.494 -0.373,-1.576 -0.829,-2.405 -0.772,-1.404 -0.848,-2.203 -1.104,-11.714 -0.539,-19.977 -0.552,-20.011 -6.077,-15.25 -4.851,4.18 -15.802,10.793 -17.069,10.306 -1.995,-0.765 -0.092,-9.546 4.45,-20.531 3.1,-7.5 2.923,-7.735 -5.647,-7.516 l -6.049,0.154 -5.293,1.831 c -4.55,1.575 -5.81,1.855 -8.971,2.001 -8.08,0.372 -8.806,-1.145 -3.587,-7.495 2.575,-3.133 4.162,-5.503 4.8,-7.168 0.278,-0.727 0.88,-1.833 1.337,-2.457 1.64,-2.238 2.813,-5.084 3.948,-9.582 2.111,-8.359 1.804,-8.215 18.73,-8.747 19.82,-0.622 23.808,-1.885 24.779,-7.85 0.272,-1.672 0.903,-2.961 3.013,-6.152 4.89,-7.395 6.743,-8.204 10.285,-4.488 M 128.02,335.372 c 13.522,2.73 22.858,14.038 22.825,27.645 -0.011,4.315 1.223,4.091 -22.538,4.091 H 108.46 l -3.474,-0.985 c -4.773,-1.354 -4.612,-1.105 -4.589,-7.063 0.032,-8.407 1.839,-12.947 7.335,-18.427 6.196,-6.179 10.375,-7.263 20.288,-5.261 m 68.89,0.03 c 8.232,1.802 17.154,8.17 19.396,13.843 1.237,3.132 1.505,13.197 0.404,15.204 -1.116,2.036 -2.469,2.858 -4.542,2.759 -0.974,-0.047 -10.91,-0.216 -22.079,-0.376 -23.609,-0.339 -21.557,0.087 -21.79,-4.523 -0.468,-9.255 1.803,-15.289 8.102,-21.532 6.115,-6.061 11.239,-7.404 20.509,-5.375"
     id="path0" />
</svg>
