<?xml version="1.0" encoding="UTF-8" standalone="no"?>
<svg
   xmlns:dc="http://purl.org/dc/elements/1.1/"
   xmlns:cc="http://creativecommons.org/ns#"
   xmlns:rdf="http://www.w3.org/1999/02/22-rdf-syntax-ns#"
   xmlns:svg="http://www.w3.org/2000/svg"
   xmlns="http://www.w3.org/2000/svg"
   xmlns:sodipodi="http://sodipodi.sourceforge.net/DTD/sodipodi-0.dtd"
   xmlns:inkscape="http://www.inkscape.org/namespaces/inkscape"
   id="svg"
   version="1.1"
   width="400"
   height="456.25"
   viewBox="0, 0, 400,456.25"
   sodipodi:docname="heart-panda.svg"
   inkscape:version="0.92.5 (2060ec1f9f, 2020-04-08)">
  <metadata
     id="metadata871">
    <rdf:RDF>
      <cc:Work
         rdf:about="">
        <dc:format>image/svg+xml</dc:format>
        <dc:type
           rdf:resource="http://purl.org/dc/dcmitype/StillImage" />
      </cc:Work>
    </rdf:RDF>
  </metadata>
  <defs
     id="defs869" />
  <sodipodi:namedview
     pagecolor="#ffffff"
     bordercolor="#666666"
     borderopacity="1"
     objecttolerance="10"
     gridtolerance="10"
     guidetolerance="10"
     inkscape:pageopacity="0"
     inkscape:pageshadow="2"
     inkscape:window-width="1920"
     inkscape:window-height="1043"
     id="namedview867"
     showgrid="false"
     inkscape:zoom="1.8367123"
     inkscape:cx="200"
     inkscape:cy="228.125"
     inkscape:window-x="0"
     inkscape:window-y="0"
     inkscape:window-maximized="1"
     inkscape:current-layer="svg" />
  <path
     style="fill:#050505;fill-rule:evenodd;stroke:none"
     inkscape:connector-curvature="0"
     d="m 193.8,4.448 c -23.937,1.829 -45.642,7.298 -63.397,15.974 -1.776,0.868 -3.301,1.578 -3.389,1.578 -0.307,0 -12.82,6.894 -13.876,7.645 -1.555,1.106 -1.433,1.183 -7,-4.354 C 73.466,-7.196 18.966,8.817 9.228,53.764 c -5.516,25.462 7.839,52.431 31.456,63.518 4.048,1.9 3.817,1.392 2.687,5.918 -8.654,34.678 -3.634,70.228 13.685,96.917 5.817,8.964 17.137,21.609 23.907,26.704 8.434,6.348 10.49,7.812 14.402,10.254 2.4,1.499 6.347,3.805 8.771,5.125 5.586,3.042 5.605,2.743 -0.421,6.363 -19.019,11.427 -33.221,24.399 -38.668,35.318 -8.187,16.413 -0.979,33.961 15.103,36.769 6.401,1.117 8.604,0.19 18.576,-7.822 7.114,-5.717 7.274,-5.775 7.274,-2.647 0,13.589 4.626,32.895 11.074,46.219 l 3.001,6.2 0.086,13.8 c 0.075,12.024 0.198,14.495 0.963,19.2 3.57,21.987 6.434,27.624 16.046,31.587 13.799,5.691 39.891,4.222 54.63,-3.075 8.471,-4.193 10.422,-9.358 7.75,-20.512 -1.431,-5.973 -1.492,-5.444 0.669,-5.741 2.633,-0.36 18.494,-0.326 18.713,0.041 0.098,0.165 -0.163,1.56 -0.579,3.1 -3.799,14.033 -2.283,19.81 6.333,24.143 17.962,9.031 50.998,8.836 61.475,-0.362 7.348,-6.452 12.084,-31.569 10.651,-56.49 l -0.478,-8.308 0.972,-1.692 c 5.761,-10.03 10.623,-28.771 11.705,-45.119 0.367,-5.552 0.255,-5.535 5.254,-0.791 6.194,5.879 9.382,7.12 15.534,6.049 14.8,-2.578 20.781,-20.662 12.348,-37.338 -4.628,-9.154 -16.369,-21.954 -29.947,-32.649 -5.987,-4.716 -5.797,-4.008 -1.724,-6.42 28.732,-17.018 47.073,-40.843 54.827,-71.223 5.509,-21.588 5.449,-45.774 -0.171,-67.978 -1.348,-5.326 -1.356,-5.276 1.149,-6.614 20.287,-10.838 32.392,-33.18 30.177,-55.701 -4.807,-48.883 -62.883,-69.868 -97.834,-35.352 -3.974,3.925 -4.161,4.019 -5.762,2.909 C 288.204,24.833 272.48,17.483 263.2,14.198 241.41,6.487 215.239,2.81 193.8,4.448 m 22.4,7.993 c 6.154,0.391 11.292,0.898 13.4,1.321 0.55,0.111 2.26,0.399 3.8,0.641 2.686,0.421 3.685,0.62 7.9,1.569 4.248,0.957 5.747,1.319 6.7,1.62 0.55,0.173 1.81,0.542 2.8,0.818 33.897,9.476 65.329,31.351 85.046,59.19 16.789,23.705 25.754,51.482 25.754,79.8 0,31.906 -10.626,58.872 -31.377,79.623 -18.082,18.082 -43.603,30.761 -73.623,36.577 -1.32,0.256 -3.12,0.617 -4,0.802 -1.49,0.314 -3.652,0.66 -9.898,1.588 -1.376,0.204 -4.482,0.556 -6.902,0.782 -2.42,0.226 -6.02,0.569 -8,0.761 -5.332,0.518 -31.545,0.569 -37.146,0.072 -10.856,-0.963 -19.951,-2.098 -26.054,-3.251 -4.794,-0.906 -6.498,-1.24 -8,-1.571 C 100.188,260.374 63.492,231.05 51.254,188.6 c -1.557,-5.401 -1.898,-7.008 -3.224,-15.2 -1.909,-11.789 -1.08,-30.686 1.93,-44 0.199,-0.88 0.542,-2.41 0.762,-3.4 C 62,75.302 104.452,33.438 160.6,17.646 c 6.733,-1.894 15.61,-3.611 24.2,-4.681 4.391,-0.547 18.282,-1.249 21.6,-1.091 1.87,0.088 6.28,0.344 9.8,0.567 m -75.253,105.556 c -21.806,3.056 -54.72,33.452 -63.459,58.603 -13.452,38.712 30.554,59.222 61.253,28.549 32.021,-31.995 33.528,-91.541 2.206,-87.152 m 125.942,0.006 c -13.078,2.742 -19.543,25.21 -13.292,46.197 5.307,17.822 14.119,33.307 24.167,42.47 28.555,26.041 69.187,10.257 61.706,-23.971 -0.675,-3.088 -0.851,-3.632 -2.864,-8.833 -10.767,-27.815 -50.737,-59.842 -69.717,-55.863 m -128.582,13.816 c 6.88,2.874 6.444,12.875 -0.667,15.315 -3.026,1.038 -6.039,0.101 -8.517,-2.648 -5.519,-6.121 1.542,-15.86 9.184,-12.667 m 145.322,0.435 c 6.194,3.372 5.47,12.383 -1.185,14.73 -7.164,2.528 -13.39,-5.286 -9.5,-11.924 2.15,-3.67 6.836,-4.9 10.685,-2.806 m -80.971,37.98 c -2.48,0.6 -6.895,2.772 -8.798,4.328 l -1.141,0.933 0.516,2.304 c 2.446,10.932 15.382,15.691 23.831,8.768 3.338,-2.735 5.909,-7.911 5.661,-11.393 -0.292,-4.092 -11.834,-6.934 -20.069,-4.94 m -78.968,100.92 c 6.507,2.581 16.742,5.764 24.51,7.623 1.98,0.473 4.23,1.025 5,1.224 2.778,0.722 12.345,2.469 17.4,3.178 1.76,0.247 4.37,0.613 5.8,0.814 2.45,0.344 6.02,0.661 18.108,1.607 6.587,0.516 21.776,0.515 28.692,-0.001 13.114,-0.978 16.964,-1.372 23.6,-2.416 8.471,-1.332 15.516,-2.714 20.4,-4.003 8.821,-2.328 18.871,-5.585 23.982,-7.772 3.743,-1.602 4.281,-1.686 4.573,-0.708 1.252,4.193 3.136,16.064 4.713,29.7 0.718,6.211 0.727,31.9 0.012,37.4 -4.293,33.059 -15.848,52.668 -37.493,63.63 -5.867,2.971 -9.373,4.175 -17.987,6.179 -9.706,2.257 -53.443,3 -67.6,1.148 -33.612,-4.396 -53.908,-24.069 -60.77,-58.904 -2.078,-10.545 -2.613,-16.736 -2.618,-30.253 -0.005,-14.51 0.439,-19.807 3.187,-38 0.382,-2.528 1.467,-7.899 2.041,-10.1 0.471,-1.808 0.715,-1.827 4.45,-0.346 m 104.51,23.825 c -8.606,1.734 -15.301,9.047 -18.239,19.921 -1.084,4.011 -1.051,3.987 -2.768,2.03 -11.366,-12.944 -30.8,-12.719 -40.758,0.471 -13.255,17.555 -2.474,44.073 23.765,58.455 9.539,5.228 26.195,10.817 34.55,11.594 l 2.656,0.247 3.797,-3.121 c 16.081,-13.218 28.751,-30.599 32.391,-44.435 6.945,-26.404 -11.524,-49.972 -35.394,-45.162"
     id="path0" />
</svg>
