<svg id="svg" xmlns="http://www.w3.org/2000/svg" xmlns:xlink="http://www.w3.org/1999/xlink" width="400" height="445.06065857885613" viewBox="0, 0, 400,445.06065857885613"><g id="svgg"><path id="path0" d="M18.007 2.263 C 25.808 6.161,33.574 17.109,35.303 26.644 C 35.824 29.518,36.049 91.909,36.049 233.750 C 36.049 345.395,36.196 436.742,36.377 436.742 C 36.558 436.742,38.090 435.357,39.782 433.665 C 41.474 431.973,46.893 427.936,51.824 424.695 C 73.005 410.772,72.097 415.054,72.097 329.077 C 72.097 294.433,72.363 266.193,72.687 266.320 C 73.012 266.447,100.953 288.856,134.779 316.118 C 177.357 350.433,196.785 365.685,197.920 365.685 C 199.055 365.685,218.483 350.433,261.062 316.118 C 294.888 288.856,322.829 266.447,323.153 266.320 C 323.478 266.193,323.744 294.433,323.744 329.077 C 323.744 415.054,322.836 410.772,344.017 424.695 C 348.947 427.936,354.366 431.973,356.058 433.665 C 357.751 435.357,359.283 436.742,359.464 436.742 C 359.644 436.742,359.792 345.395,359.792 233.750 C 359.792 91.909,360.017 29.518,360.538 26.644 C 362.266 17.109,370.033 6.161,377.834 2.263 L 380.936 0.712 197.920 0.712 L 14.905 0.712 18.007 2.263 M322.357 36.072 C 322.357 45.151,307.226 55.745,284.229 62.766 C 250.992 72.913,226.509 85.059,202.090 103.514 L 197.940 106.650 194.811 104.252 C 171.202 86.160,144.295 72.744,111.612 62.766 C 88.615 55.745,73.484 45.151,73.484 36.072 C 73.484 35.581,112.756 35.355,197.920 35.355 C 283.085 35.355,322.357 35.581,322.357 36.072 M79.632 94.310 C 81.533 95.032,87.869 96.425,93.711 97.404 C 122.448 102.221,145.535 112.149,158.764 125.377 C 168.688 135.302,169.042 155.048,159.579 170.884 C 139.006 205.312,89.395 200.465,75.911 162.709 C 71.966 151.663,71.382 145.557,71.421 115.791 L 71.455 89.397 73.815 91.197 C 75.113 92.186,77.730 93.587,79.632 94.310 M324.420 115.806 C 324.459 145.556,323.874 151.665,319.930 162.709 C 306.446 200.465,256.835 205.312,236.261 170.884 C 226.799 155.048,227.152 135.302,237.077 125.377 C 250.299 112.155,273.395 102.221,302.097 97.410 C 313.570 95.486,318.766 93.864,322.010 91.191 C 323.154 90.249,324.157 89.467,324.238 89.453 C 324.319 89.439,324.401 101.298,324.420 115.806 M110.123 126.393 C 83.710 137.484,94.888 177.200,123.130 172.604 C 146.368 168.822,150.914 136.915,129.636 126.939 C 124.089 124.339,115.583 124.100,110.123 126.393 M267.454 126.407 C 244.988 135.838,248.727 168.701,272.711 172.604 C 295.638 176.335,310.191 148.423,293.974 131.821 C 287.496 125.187,275.966 122.834,267.454 126.407 M201.171 205.199 C 203.707 215.589,203.173 225.096,199.502 234.907 C 197.862 239.291,197.653 239.116,195.059 231.196 C 192.069 222.069,192.457 212.310,196.336 199.036 L 197.833 193.913 198.783 196.610 C 199.305 198.093,200.379 201.958,201.171 205.199 M90.426 225.988 C 110.913 234.097,135.935 234.838,157.198 227.964 C 170.009 223.822,172.965 224.804,175.802 234.144 C 179.425 246.070,193.789 268.977,197.645 268.977 C 201.877 268.977,216.299 246.554,220.049 234.144 C 222.870 224.804,225.828 223.821,238.642 227.964 C 263.634 236.043,292.103 233.631,315.425 221.456 L 319.931 219.104 309.872 228.963 C 293.133 245.368,282.279 254.375,225.866 298.673 C 210.733 310.555,198.158 320.277,197.920 320.277 C 197.683 320.277,185.107 310.555,169.975 298.673 C 113.561 254.375,102.707 245.368,85.969 228.963 L 75.910 219.104 80.416 221.456 C 82.894 222.750,87.399 224.789,90.426 225.988 " stroke="none" fill="#000000" fill-rule="evenodd"></path></g></svg>