<?xml version="1.0" encoding="UTF-8"?>
<svg class="img-fluid" width="980" height="1e3" cursor="move" style="max-height:none;transform-origin:50% 50%;transform:matrix(4.13576, 0, 0, 4.13576, 79.3056, 208.974)" viewBox="0 0 9800 1e4" xmlns="http://www.w3.org/2000/svg">
<g fill="#fff" style="transform:none">
<path d="m905 9925c-71-41-134-76-139-78l-9-3 106-129c59-72 107-133 107-136v-6l-167-12c-92-6-169-13-171-16-4-4 25-101 79-269 23-72 23-70 2-61-48 19-306 96-309 92-2-2-9-65-16-140l-11-137h-6c-3 0-17 10-31 23-14 12-57 50-97 85l-71 62-86-142-86-143v-88-88l151-301 152-301-23-266c-12-146-24-269-27-273-2-5-8-8-12-8-5 0-57-22-115-50-58-27-111-50-116-50h-10v-52-53l104-43 103-42 6-107c4-58 7-142 7-185v-79l-110-106-110-105v-65-65l113 106 112 105 10-244 122-55c68-30 123-57 123-60s-55-30-123-60l-122-56-5-122-5-123-65 56c-36 31-86 75-112 97l-48 40 1-64v-63l110-94 109-93v-154-154h-62-63l-48-46-47-45v-94-94l100-86 57-5 58-5-4-74-3-74 134-128-66-61-67-61 7-78 7-79h-59-59l-53-46-52-46v-92-92l96-94h62 62v-154-154l-109-94-110-93v-64l-1-63 67 58c38 32 88 76 113 97l45 39 5-123 5-124 122-55c68-30 123-57 123-60s-55-30-122-60l-123-55-10-244-113 106-112 105v-65-64l110-107 110-106v-79c0-43-3-126-7-184l-6-106-103-43-104-43v-50l1-50 122-54c67-30 125-57 129-60l6-6 23-265 22-265-152-302-151-302v-88-87l172-288 32 30c17 16 46 42 65 58s50 43 68 61l34 32 4-12c2-7 9-70 14-141 6-71 13-131 15-133 3-4 263 74 310 93l18 7-7-24c-20-60-78-247-87-277-5-19-8-35-6-37s79-9 171-16l167-12v-6c0-4-48-64-106-135-58-70-104-129-102-130 4-3 89-51 173-96 33-18 69-39 80-46l19-14h106 105l190 106c105 59 248 138 319 177l129 70 231-17c127-10 238-20 247-22l16-4 46-118c24-64 51-134 58-155l13-38 100 6 50 158 50 157h125 126l45-49c25-27 94-99 154-161l108-111 62 3 61 3-121 125c-67 69-133 139-148 156l-26 31 47 7c25 3 85 6 132 6h87l48 118c26 64 53 128 60 140l13 24 148-292h89 88l-304-320h64 65l152 160 153 160h164 164v-96-95l58-65 57-64h65 66l62 71 62 70v90 89h79 79l4 8c2 4 29 32 61 62l57 54 126-124h77 77l1-77c0-43 2-86 4-96l4-19 116-126 130-2 58 64 57 65v95 96h163l162 1 310-322 124 6-148 155-149 155 87 3 86 3 64 127c35 70 70 135 76 145l13 18 58-140 59-141h120 120l13-9 13-8-147-154-148-154 61-3 62-3 119 123c65 68 134 140 152 161l32 37h127 128l49-157 50-158 100-6 28 78c15 43 42 114 59 157l32 79 15 2c8 1 121 10 250 20l235 17 120-66c66-36 127-70 135-75 14-9 241-137 334-188l41-23h102 102l48 27c26 14 86 48 132 74 46 27 89 50 94 52l10 3-106 130c-59 71-107 131-107 135 0 3 75 11 167 18s169 14 171 16c4 4-3 29-57 199-22 71-39 131-38 132 2 2 63-16 137-40s147-46 162-49l26-7 8 78c4 42 8 105 8 139l1 63h10c11-1 32-18 133-107l69-63 87 143 86 143v95 95l-9 9c-5 6-73 138-151 294l-143 284 22 256c12 141 21 262 21 269v13l43 18c23 10 77 35 120 55s83 36 88 36h9v53 52l-104 43-103 44-7 105c-3 59-6 142-6 185v80l111 106 110 107-3 61-3 62-104-99c-57-54-108-99-112-99h-8l-6 234-122 55c-68 30-123 58-123 61s55 30 123 60l122 55 3 123 3 122h5c3 0 45-35 93-77 47-42 96-86 109-97l22-19-1 64v64l-47 39c-26 21-75 64-109 94l-63 55v153 154h63 62l48 46 47 45v92 92l-49 48-49 47h-62-62l7 76 7 75-68 65-67 65 67 64 68 64-7 75-7 76h61 62l49 46 50 47v91 92l-96 94h-62-62v153 154l218 188 2 128-22-19c-13-11-62-55-109-97-48-42-90-77-93-77h-6v123 122l-125 54c-69 30-125 57-125 61 0 3 55 31 123 61l122 55 3 122c1 67 5 122 7 122 3 0 53-47 112-104l108-105 6 124-110 108-111 108v78c0 43 3 126 6 184l7 106 103 43 104 42v51 50l-32 14c-18 8-73 32-123 54-49 22-93 42-97 46l-6 6-23 267-22 266 152 301 151 300v88 88l-172 284-94-82c-52-45-98-83-103-85l-8-3-11 137c-7 76-13 139-15 141-4 3-269-76-309-92l-18-7v6c0 4 9 32 19 64 44 131 83 263 80 266-2 2-71 9-154 16-82 6-160 13-173 16l-23 5 19 17c11 9 61 68 111 131l92 114-41 23c-23 13-44 24-46 24-3 0-21 10-42 23-20 13-63 38-95 55l-58 32h-106-105l-26-18c-15-11-40-25-57-34-16-8-57-29-90-48-92-51-302-168-380-213l-70-40-225 17c-124 10-236 18-248 19l-24 1-12 26c-7 14-35 85-62 158l-49 133-98-6-51-157-50-158h-127-126l-32 37c-18 21-87 93-153 161l-121 123-116-6 30-35c17-19 83-89 147-155l117-120-65-6c-36-4-97-7-136-8l-71-1-28-72c-16-40-43-104-60-143l-32-69-74 147-74 146-86 3-87 3 296 310-61 3-62 3-310-322-162 1h-163v96 95l-57 65-58 64h-61-62l-66-67-67-68 6-180-160-6-62-62-63-61-57 54c-32 30-59 58-61 63l-4 7h-78-77l-6 30-6 29 10 126-65 68-64 67h-64-63l-57-64-58-65v-95-96h-162l-163-1-310 322-62-3-61-3 296-310-87-3-86-3-150-292-19 44c-11 24-38 88-60 142l-41 98-129 4c-70 2-130 6-133 9-2 2 62 73 144 158l148 153-63 3-62 3-108-112c-59-61-127-134-151-160l-44-49h-127-126l-50 158-50 157-49 3-50 3-19-53c-10-29-36-99-59-156l-41-103-20-4c-12-2-124-12-251-21l-230-16-70 39c-38 22-117 66-175 98s-167 94-243 137l-139 78-106-1h-107l-130-74zm428-77c100-56 224-125 274-152l92-51-22-7c-17-5-540-48-583-48h-12l-91 111-92 112 8 7c12 12 227 130 236 130 5 0 90-46 190-102zm7442 41c61-33 114-64 118-69l9-8-184-222h-11c-32 0-547 41-577 46l-34 6 74 41c41 22 165 91 275 153s205 113 210 114c6 0 60-28 120-61zm-4245-176v-123h103l102-1 98-90-44-45-43-44h-107-106l-6-67c-4-38-7-111-7-165v-96l-66 61c-37 34-70 61-73 61-3-1-85-27-182-58s-179-56-181-56c-3 0 21 84 54 186l60 186-56 57c-31 31-56 60-56 64v7h160 160v122 122l47 48 48 49 94-96 1-122zm884 170 46-48v-122-123h160 160v-7c0-4-25-33-56-64l-56-57 56-175c31-96 56-180 56-187v-11l-17 5c-10 4-93 30-184 60l-165 53-65-61-64-60-6 134c-4 74-7 147-8 163l-1 27h-108-108l-44 45-45 46 50 44 50 45h102 103v122 122l47 48c26 26 48 48 50 48 1 0 22-21 47-47zm-2830-163c20-63 40-120 44-127l8-12 101-3 102-3-54-57-53-58 23-77c14-43 36-111 50-152s24-76 22-77c-1-1-71 26-156 61l-153 65-17-10c-9-5-50-43-91-84-69-70-92-88-89-68 1 4 1 70 0 147l-1 140-140 79c-78 43-139 80-137 82 3 4 343 34 378 34h18l48 125 48 124 6-7c4-4 24-59 43-122zm4778-116c2-1 93-9 203-18 109-9 200-18 201-19s-62-38-142-82l-144-80-2-135c0-74-1-141-1-147 1-23-11-14-77 53-36 36-77 74-91 85l-27 19-153-65c-85-35-155-63-156-61-1 1 20 69 46 151l49 150-39 46c-21 25-46 52-55 60l-17 14 216 10 37 115c20 63 40 124 44 135l8 20 49-124c27-68 50-125 51-127zm-3411-90 74-75-2-12c-2-7-29-93-61-192l-58-180-119-42c-66-23-127-42-135-42l-15-1-124 304 164 316h101 101l74-76zm2256-83 82-159-60-143c-33-79-64-148-68-152l-9-9-118 38c-66 20-124 42-131 48l-11 11-60 187-59 186 152 152h100 100l82-159zm-2861-6 62-149-74-148-75-148h-10c-6 0-77 28-158 61l-148 61-104 330 18 21c10 12 40 45 67 75l50 52 155-2 155-3 62-150zm3525 108c24-27 55-60 67-74l24-27-53-165-53-166-147-60c-81-34-152-61-158-61h-10l-74 148-75 147 49 120c27 66 56 135 64 153l15 32h153 153l45-47zm-4824-83 178-99 3-173 2-173-197-197-207 64-207 63-58 70c-31 39-84 104-118 145s-111 136-172 210l-111 135 10 3c18 6 554 49 627 51l72 1 178-100zm6236 80c144-11 284-24 310-28l48-7-230-280-231-280-206-64-206-63-99 98-99 99v171 172l178 100 177 100 48 1c26 1 165-8 310-19zm-7053-266c102-124 194-238 205-252l19-26-14 6c-8 3-148 47-311 98l-296 92-43 139c-24 77-41 141-39 143 4 5 192 23 254 24l40 2 185-226zm7687 215c71-6 130-13 132-15s-15-66-39-143l-43-139-306-95c-168-53-306-95-308-94-1 2 68 88 154 192 85 105 176 216 202 247l46 58h17c10 0 75-5 145-11zm-3955-105 57-57 79 2 80 2 7-162 7-163-143-137c-79-76-146-138-149-138s-70 62-149 138l-143 137 14 326 158-6 58 57c31 31 59 57 62 57 2 0 30-25 62-56zm-4420-198c24-8 82-26 130-41l87-26 45-142c93-294 135-431 133-433-1-1-109 93-240 209l-239 211 6 65c4 37 9 90 12 119l6 52h9c4 0 28-6 51-14zm8782-46c3-33 9-87 12-119l6-59-236-206c-130-113-237-206-239-206-4 0 51 181 132 436l42 132 102 31c56 18 113 36 127 41s30 9 37 9l11 1 6-60zm-6623-28 164-68 53-158 53-159-8-8c-10-10-344-149-358-149-5 0-72 25-147 56l-138 57v146 146l108 102c59 57 107 103 108 103 0 0 74-31 165-68zm4672-37 107-106v-143-143l-137-57c-76-31-142-56-148-56-5 0-90 33-187 72l-178 73 1 10c0 6 24 80 52 165l52 154 160 67c88 37 162 68 165 68 3 1 54-46 113-104zm-3868-20c25-59 44-109 43-109-2-1-28-10-59-19l-57-17-45 19-46 20 57 109c31 61 58 109 59 108 2-1 23-51 48-111zm2894 9c28-56 51-106 51-111v-10l-42-16-42-17-55 17c-31 9-57 18-59 19s18 52 44 113 48 110 49 109c2-2 26-49 54-104zm-1955-29 78-75-7-102-7-103-358-186-130 67c-71 36-130 69-130 73 0 3 20 67 44 141l43 135 184 62c101 33 189 61 194 62 6 0 45-33 89-74zm1190 12 189-62 43-135c24-74 44-138 44-142 0-5-59-37-130-73l-131-65-178 92-179 93-14 206 78 74c44 41 81 74 84 74 3 1 90-27 194-62zm-4401-78 329-103 96-115c54-64 112-135 130-158l33-44-55-151c-30-83-57-152-58-153-3-2-175-66-269-100l-36-13-159 140c-87 77-162 145-165 151-4 7-51 152-104 322-54 171-100 316-103 324l-5 14 19-5c10-3 167-52 347-109zm7693 94c-125-397-199-630-204-640-4-6-78-74-165-151l-159-141-61 24c-34 12-103 38-154 56l-92 33-57 153-56 153 38 47c21 27 80 98 130 159l93 110 233 73c128 40 278 88 333 106s106 34 113 34l13 1-5-17zm-8612-96 49-43-23-279c-12-154-24-287-27-295l-5-15-256 510 13 15c6 8 38 59 69 113l57 98 37-30c20-17 59-50 86-74zm9360-6c36-60 66-114 66-120 0-14-243-501-250-501-3 0-16 131-29 291l-24 291 14 13c16 16 153 134 156 135 1 0 31-49 67-109zm-6612 0c40-16 90-37 111-45l37-16-25-51-26-50-92-40-7 8c-9 10-80 223-75 223 3 0 37-13 77-29zm3721-78c-20-60-39-112-43-116l-8-9-45 20-46 20-26 52-26 51 38 15c21 9 67 29 103 44 36 16 70 29 77 29l12 1-36-107zm-2927 30c-7-21-21-65-31-98s-19-61-21-63c-1-2-21 6-44 18l-42 21-20 45c-11 25-18 48-15 50 4 5 167 62 179 63l7 1-13-37zm2202-3c20-5 43-14 50-18l13-9-40-92-41-21c-23-12-43-20-44-18-6 7-56 175-56 186v11l41-14c22-8 57-19 77-25zm-3718-337c58-23 113-46 123-51l19-8-212-88v-153-153h-8c-4 0-60 53-125 119l-118 119-91-34c-50-19-93-32-96-30-2 3 6 31 18 63s35 93 50 135l29 77-96 116c-52 64-94 118-92 120 3 3 193-54 294-88l21-7 84 85 85 86 10-264 105-44zm5560 188c85 27 158 49 163 49 4 0-38-55-92-121l-100-121 29-77c15-42 38-102 50-134s20-60 18-63c-3-2-46 11-96 30l-91 34-117-119-117-118-9 5-8 5v149 148l-42 16c-24 9-71 29-106 43l-63 27 123 51 123 52 3 134 3 133 87-86 87-87 155 50zm-3103-65 101-99 144 137 143 137 5-85c3-46 7-86 10-89 3-2 83-44 177-92l173-89-168-88c-92-48-170-89-173-90l-7-3-5-73c-3-40-7-75-9-77-3-4-48 36-187 166-52 49-97 89-100 89s-69-58-146-130c-76-71-141-128-142-126-5 4-12 69-12 113l-1 42-17 5c-10 4-89 44-175 89l-157 83 172 88c94 49 173 90 175 92 7 5 10 41 11 109l1 69 43-39c23-22 88-84 144-139zm-1428 138 63-25 76 25c41 14 76 25 78 23 1-1 15-32 32-69l30-67 61-31 61-30v-9c0-5-9-38-20-74l-20-66 25-57c14-31 25-62 25-68v-12l-69-34-69-33-28-68-27-69-16 1c-9 0-43 10-76 23l-60 22-69-28c-38-15-72-28-75-28-4 0-19 33-34 73l-28 73-75 29-75 30 5 15c2 8 15 43 27 77l23 61-22 69c-12 38-22 72-22 75s31 18 69 34l69 29 33 67c18 38 36 68 39 68 4 0 35-11 69-26zm2934-4 68-22 60 26c33 14 64 26 68 26s22-31 41-69l33-69 68-27 69-27-7-26c-3-15-14-49-23-77l-17-50 28-69 29-68-5-8c-2-4-35-20-73-36l-68-28-28-68c-16-38-32-71-36-73l-8-5-68 29-69 28-60-23c-33-13-67-23-76-23l-16-1-27 68-27 67-66 34-65 34-4 12-5 12 25 58 26 58-20 64c-11 36-20 69-20 74v9l61 31 61 30 62 140 11-4c5-2 41-14 78-27zm-5563-240 255-223 6-21c4-12 37-115 73-231l66-209-53-56c-30-30-75-79-102-107l-48-53h-151-151l-119 235-120 236 2 42c4 62 41 523 48 585l6 54 16-15c9-8 132-115 272-237zm8639-91 27-332-120-238-121-239h-151-151l-43 48c-24 26-70 74-102 107l-58 61 64 204c36 113 70 219 76 235l12 30 106 92c59 50 179 155 266 233 87 77 161 138 163 136 3-2 17-154 32-337zm-6356 69 15-47-21-56-22-55h-8c-5 0-65 23-135 52l-126 52 20 8c10 5 71 30 134 57l115 49 6-7c4-3 13-27 22-53zm4035-47 12-7-111-47c-61-26-120-49-132-52l-22-6-44 112 15 42c8 23 16 47 19 54l4 12 123-50c68-28 129-54 136-58zm-3100 41c45-23 82-44 82-47 0-6-156-85-167-85-5 0-16 20-26 45l-19 44 12 38c15 47 20 55 28 51 4-2 44-22 90-46zm1999 3 13-39-34-96h-8c-5 0-45 18-89 41l-81 40 7 7c13 13 160 89 169 88l9-2 14-39zm-3184-172c89-36 166-69 170-73l9-8-70-172c-39-94-72-173-74-175s-66-29-143-59l-139-56-83 82-83 83 2 174 3 174 110 48c61 26 116 48 123 48 8 1 86-29 175-66zm1558-25 179-93v-95l1-95-98-92-97-91-120 43c-67 24-129 46-138 50l-16 7-26 61c-13 34-43 107-66 161-22 55-39 103-38 108 3 9 216 126 232 127 5 1 89-41 187-91zm1444 31c63-33 115-64 115-68 0-3-29-78-64-165l-65-159-14-8c-8-5-70-28-139-53l-124-44-194 180v97 96l178 92c97 51 180 93 185 93 4 0 59-27 122-61zm1545 13 115-49 3-174 2-174-83-83-84-83-141 57-141 58-70 171c-39 94-71 174-71 178s10 12 23 17c12 5 87 36 167 69s150 60 155 61c6 0 62-22 125-48zm-2271-233 141-131v-92c0-50-3-127-6-171l-7-81-138-53-139-54-139 53-138 52-7 82c-3 44-6 122-6 173v92l142 131c79 71 145 130 149 130s70-59 148-131zm-1175-14c24-60 42-112 40-114s-58 16-124 39l-121 43 3 6c2 4 12 27 23 53l19 46 51 25 50 25 7-7c4-3 27-55 52-116zm2163 98 52-28 4-15c3-8 12-31 21-51l15-37-120-42c-66-24-121-41-123-39-4 5 87 238 94 239 3 0 28-12 57-27zm-2928-8 44-18 24-55c13-30 22-56 20-58-10-10-250-104-254-100-3 3 14 51 37 108s46 114 51 127l9 23 13-5c6-3 32-13 56-22zm3703-103c28-68 48-125 46-128-5-4-244 89-254 99-2 2 6 28 18 57l22 53 50 23c28 12 55 22 59 21 5-2 31-58 59-125zm-4554-317-3-150-186-3-186-2-99 110-99 111 2 12c2 16 57 165 80 218l19 42 104 38 105 37 133-131 132-132-2-150zm5651 375c57-21 105-41 108-44 3-2 27-62 53-132l49-127-12-17c-7-9-52-60-102-113l-90-97-185 2-185 3-3 150-3 149 266 266s47-18 104-40zm-6642-83c61-53 115-97 121-97 5 0 69 22 141 49l131 49v-8c0-4-18-55-40-114-22-58-40-112-40-119v-13l82-90 82-89-99-5-100-5-150-338-164 342-164 6 172 180 1 13c0 8-22 85-50 171-27 86-50 164-50 172v14l8-10c4-6 57-54 119-108zm7344-65c-28-87-51-164-51-171v-13l85-91 85-92-162-6-164-342-74 169-75 169-100 5-99 5 85 93 86 94-43 115c-24 63-44 118-44 123v8l131-49c72-27 137-49 143-49 9 0 94 72 211 179l30 28 3-8c2-4-19-80-47-167zm-5116 34 39-14 4-10 3-10-46-108c-25-60-49-118-53-128l-8-19-52 124c-29 68-52 128-52 132 0 11 80 47 105 47 11 0 38-7 60-14zm2928-3 47-17v-8c0-8-68-182-91-231l-12-28-108 252 4 12 3 11 35 12c47 17 67 17 122-3zm-2609-111 158-57 126-310-96-101-97-102-306-2-14 33c-7 17-33 80-58 138l-45 106 76 177 75 176h11c6-1 82-27 170-58zm2376 6c13-29 46-109 75-178l52-125-114-270-294-6-17 13c-10 7-56 54-104 103l-86 90 126 310 73 27c41 14 110 40 154 56s87 30 96 31l17 1 22-52zm-2899-83c27-66 59-141 71-167l21-47-58-141-58-140h-151-152l-98 100-99 100 53 132c29 73 58 138 64 145 14 15 327 142 345 140l13-2 49-120zm3449 59c91-36 170-71 176-77 6-7 35-72 65-145l53-133-199-199h-150-151l-51 123c-29 67-55 130-59 139l-6 17 58 138c31 76 63 153 71 171 7 17 17 32 21 32s82-30 172-66zm-6065-366c55-1 115-1 133-1 17 1 32-1 32-4s-33-39-72-80c-40-41-79-84-86-96l-13-22 50-140c27-77 49-140 48-142-2-1-58 20-125 47-67 28-128 50-135 50h-12l-85-85c-47-47-88-85-92-85h-8l-1 98c-1 53-4 128-8 167l-6 70-180 74 25 9c14 5 64 28 111 50l87 40 6 38c3 22 10 100 16 174s13 155 16 180l6 45 97-192 96-193 100-2zm8765 172c6-85 14-170 17-189l6-33 86-40c47-22 97-44 111-50l25-10-90-37-90-38-6-69c-4-38-7-116-8-174l-1-105-185 185h-15c-8-1-69-23-135-50-66-26-121-47-122-46s20 64 48 140c27 75 49 142 49 147s-38 49-85 98c-47 48-85 90-85 92 0 3 46 3 101 1l101-4 32 6 31 6 94 188 94 187 8-25c4-14 12-95 19-180zm-4905-128c6-5 59-28 120-51 60-24 111-44 112-45 2-1-51-24-116-50l-118-48-17-171c-10-95-20-187-23-205l-6-33-96 183-97 183-127 3c-70 1-127 4-127 6s38 42 85 89l85 87-17 42c-9 24-36 88-59 143s-41 101-40 103c2 1 57-17 124-40l121-42 176 162 5-154 5-153 10-9zm1038 192c62 22 118 41 124 44l13 4-120-290 85-89 85-88-124-3-125-3-29-52c-16-29-60-112-98-185l-69-133-7 28c-4 16-15 107-24 204l-17 176-109 45c-60 24-110 48-111 52l-2 8 110 43 110 42 6 29c4 16 7 89 8 162l1 134 182-166 111 38zm2069-244h192l-44-47c-25-27-60-64-77-83l-33-36 51-158c28-87 49-160 47-162-3-2-66 21-141 51s-141 55-145 55c-5 0-49-38-98-84l-89-84-6 4c-4 2-7 18-7 36s0 99-1 181l-1 147h-162-163l178 178-51 126c-28 69-49 126-48 126s58-23 126-50l124-50 76 75 75 75 6-300h191zm-5207 220 70-70 125 50c68 28 126 50 127 50 2 0-4-17-13-37-8-21-32-78-52-126l-36-88 179-179h-163-162v-178-179l-6-6-7-6-90 84c-49 47-94 85-98 85-5 0-71-25-146-55s-138-53-140-51 19 74 46 161l50 158-75 84-76 83h191 191v145 145h7c4 0 39-31 78-70zm-1178-389c46-95 83-179 83-187 0-13-94-235-121-285l-8-17-163 67-163 66-106 300 16 44 91 93 90 93 99-1 100-1 82-172zm7582 160c4-6 48-53 98-104l92-94-56-154c-30-85-58-157-62-162-4-4-78-36-164-71l-158-64-15 29c-8 16-38 84-67 152l-53 122 86 180 87 180 206-4 6-10zm-6914-82c44-49 81-94 83-99s-20-82-48-172l-52-163-12-11c-6-6-54-28-106-49-52-20-116-46-143-56l-47-19-76 151-75 152 77 178 78 179h120l121-1 80-90zm6349-87 77-178-71-142c-38-79-70-147-70-152 0-6-2-10-5-10-14 0-292 114-301 124l-11 11-52 161c-28 88-51 165-51 170s39 51 86 102l86 92h117 117l78-178zm-4705-96c20-3 81-6 135-6h99l-94-96-94-95 3-17c2-9 23-86 48-171 24-85 43-156 41-157-1-1-51 40-110 92l-109 94h-13c-8 0-71-20-141-45s-129-43-132-40c-3 2 14 53 37 111l42 107-105 106c-58 59-106 110-106 114v8l23-1c12-1 70-2 128-1l107 1 37 88c21 48 45 103 53 122l14 35 51-122 50-121 36-6zm2852 124c23-58 45-108 48-112l6-7 128-2 127-1v-6c0-4-48-54-106-113l-105-106 42-107 42-106-5-5-5-6-128 46c-70 25-133 45-140 45h-13l-88-77c-49-42-100-86-113-97l-24-21 7 25c3 14 26 93 51 175l44 150-97 98-97 97 105 2c58 1 118 2 135 3l29 1 51 121 50 122 6-7c4-4 26-54 50-112zm-1380-1c68-28 127-54 132-58l7-7 52-490-164-312c-89-171-165-312-168-312s-20 28-37 63c-18 34-92 174-164 311l-131 250 22 215c12 119 25 231 29 250l7 35 124 52 125 52 42 2 124-51zm-1990-245 122-123-98-246-136-46-136-47-205 205 2 183c0 101 3 187 6 191l4 8 318-2 123-123zm2924 6 108-108-61-218-62-218-33-27c-17-15-142-122-277-237l-245-210-7 26c-3 15-21 169-38 342l-32 315 112 215c62 118 118 220 125 225l12 10 145-3 144-3 109-109zm1223-75 2-190-102-102-103-102-270 94-49 123-49 124 124 124 124 125 320-6 3-190zm-2843-37 117-222-31-315c-18-174-35-328-39-343l-7-27-550 472-7 17c-4 10-32 109-64 220l-57 201 109 110 109 109h151 152l117-222zm-2856-198c-6-4-29-13-51-21l-39-13-52 19c-29 10-53 19-55 20-2 2 84 200 95 218l4 7 55-111 55-112-12-7zm6954 113c25-59 45-107 44-108-1 0-25-10-53-21l-51-21-49 19c-27 11-50 21-52 23-4 4 102 215 108 215 4 0 27-48 53-107zm1027-236v-138l-42-18c-24-11-88-39-144-64l-100-44-160 70c-87 39-161 72-163 73-3 3 107 331 114 342 1 1 67 29 146 61l144 60 103-102 102-102v-138zm-8801 278 136-56 54-152c29-84 54-161 55-172l1-19-159-72-159-71-141 61-141 62-3 139-3 138 98 99 98 98h14c8 0 75-25 150-55zm1719-44 103-97-6-276-120-54c-65-30-127-57-137-60l-17-5-163 71c-90 39-167 75-172 80l-8 8 47 149 47 148 11 12c12 12 284 122 302 122 6 0 56-44 113-98zm5265 43c78-30 147-61 154-67l11-12 47-148 47-149-8-8c-5-5-83-41-173-80l-163-72-72 30c-39 17-101 44-138 61l-68 31v138 137l102 97c57 53 107 97 111 98 5 0 72-25 150-56zm-6608-150 115-46v-8c0-4-9-29-21-56l-20-49-51-23-52-22-6 7c-10 11-91 243-85 243 3 0 57-21 120-46zm7773-71c-22-65-44-122-49-127l-7-8-53 28-53 29-19 48-20 48 6 5c6 6 219 93 229 94h8l-42-117zm-6968 100c0-5-16-56-36-115l-36-108-36 16c-20 9-43 18-50 21l-13 5-25 50c-14 28-24 51-22 52 6 5 203 85 211 85 4 1 7-2 7-6zm6192-35c57-23 104-43 106-44s-7-23-20-49l-23-47-47-24c-26-13-50-24-52-24-4 0-76 212-76 225 0 8 6 7 112-37zm-4445-155c82-69 149-127 150-127 5-3 201-701 198-704-2-3-148 45-325 104l-321 109-122 144c-67 80-130 155-140 168l-19 23 58 148c32 81 58 148 59 150 2 2 301 109 312 111 2 1 69-56 150-126zm3048 14c1-1 28-68 59-149l57-148-59-72c-33-40-96-115-140-167l-80-94-322-110c-177-60-323-107-325-105s42 161 98 355l102 351 148 126 147 125 157-55c86-30 158-56 158-57zm-5318 34 69-28 72 28 73 27 34-67 34-68 71-32 72-32-5-12c-2-7-14-43-27-80l-22-69 22-61c13-34 25-68 27-75l5-12-140-62-27-69c-15-38-30-71-34-74l-8-4-152 58-67-25c-37-14-71-23-76-22l-10 4-27 64-27 65-142 70 26 72 26 71-26 76-27 75 54 25c29 13 62 27 73 30l20 7 32 74c18 41 34 75 35 75s33-13 72-29zm5989-266 116-51-3-9-2-10-86-38c-47-21-98-42-113-48l-28-11v-129-129h-6c-3 0-53 44-111 97l-105 98-155-53c-86-29-157-51-159-50-3 4 25 38 157 190l49 56-54 139c-30 76-53 139-53 140 1 0 57-18 124-40l123-42 92 93 93 92 3-122 3-123 115-50zm1137 266c39 16 71 29 72 29s17-33 34-73l32-72 73-33 74-33-26-78-25-78 25-69 26-69-142-70-29-71-30-71-73 28-74 29-76-30-77-29-7 4c-4 3-20 36-36 74l-29 70-69 31-68 30 5 12c2 7 14 41 27 75l22 62-26 77-26 78 8 7c4 4 34 18 67 32l60 24 38 71 37 70 72-27 72-28 69 28zm-5770-68 88-88 122 42c67 23 122 41 124 40 1-1-23-64-53-140l-54-138 49-57c103-118 159-187 157-190-2-1-73 21-158 50l-156 52-108-99-109-98-6 260-230 100v8l-1 8 114 51 113 52 6 234h7c3 0 46-39 95-87zm2023-311c68-128 124-240 124-248 0-12-109-222-125-242-2-2-38 28-82 65-43 37-94 81-113 96l-33 28 27 262c14 144 29 282 33 306l6 44 20-39c11-21 75-144 143-272zm564 17c16-156 30-291 30-301v-16l-111-97c-61-53-112-95-114-93-15 19-125 230-125 241 0 8 48 106 108 218 59 112 123 234 142 271s36 66 37 64c2-1 16-131 33-287zm-3338 110c51-22 109-48 128-56l35-15-50-25c-27-14-85-41-127-59l-78-33-9 17c-4 9-14 34-20 54l-12 37 18 61c9 33 18 60 20 60 1 0 44-18 95-41zm6031-21 18-63-17-47c-9-27-19-50-22-52-4-2-60 20-125 48l-118 53v8 8l118 53c65 29 120 53 123 53 3 1 13-27 23-61zm-6988-4 19-55-19-55c-10-30-19-54-20-54s-23 10-51 23c-27 13-79 36-116 53-37 16-68 31-68 35s216 106 230 108c3 1 14-24 25-55zm7973 2c62-27 112-52 112-55 0-5-106-55-230-109l-7-3-18 55-18 54 17 56 18 57 7-3c4-2 57-25 119-52zm-4783-260 210-181-2-35c-1-19-7-87-13-151l-12-117-280 94-8 14c-4 8-45 143-89 300-45 157-84 294-88 305l-6 20 39-35c21-18 134-115 249-214zm1646-70c-49-169-93-311-97-316-5-4-71-28-146-53l-138-46v17c0 9-7 78-15 152l-14 134 32 27c18 15 129 110 247 212 118 101 216 184 217 183s-37-141-86-310zm-5046 148c83-38 151-69 153-70 6-4-111-318-122-331-9-9-215-95-254-105l-12-3-110 95-111 95 6 268 140 64 140 63 10-4c6-3 78-35 160-72zm1602 13 118-53 6-280-98-90c-54-50-103-93-109-97l-10-6-278 106-58 154c-32 85-59 160-61 168l-2 14 320 146 27-4c15-3 80-28 145-58zm5344 3c74-34 148-67 166-75l32-14-29-78c-15-43-44-118-62-167l-34-89-139-52-139-53-26 20c-14 11-62 53-108 95l-83 75 6 282 125 57c69 32 132 58 141 58l17 1 133-60zm1634-13 120-54 6-270-48-39c-26-21-76-64-111-95l-63-56-254 98-11 14c-13 17-128 325-123 329 2 2 75 35 163 74l159 70 21-8c11-5 75-33 141-63zm-8282-137 46-21 21-46c11-25 20-51 20-57v-11l-111-44c-60-24-112-41-115-39-6 6 79 238 87 238 4 0 27-9 52-20zm769-100 45-120h-8c-10 0-221 78-226 84-2 2 7 29 21 60l25 57 43 19c24 11 46 20 49 20s26-54 51-120zm6213 100 46-20 25-56c14-31 24-58 22-59s-52-22-111-45l-108-42-6 5-5 6 42 116c24 63 44 115 46 115 1 0 23-9 49-20zm772-97c24-64 41-118 39-120s-54 15-115 39l-111 43v11c0 7 9 31 19 55l20 43 43 22c24 13 48 23 53 23l10 1 42-117zm-1621-257c-3-66-6-138-6-161v-42l-203-106-203-107-354 27c-195 14-357 27-359 29s52 69 120 150 174 206 234 278l111 131 418 142 124-111 125-111-7-119zm-4155 269 196-66 30-32c54-58 445-528 441-532-1-1-162-14-357-28l-354-26-176 91c-96 50-187 98-201 106l-27 16-7 104c-3 58-6 131-6 162v58l118 105 117 106 15 1c8 0 103-29 211-65zm-1594-77c32-12 60-23 62-24 5-5-103-264-110-264-4 0-25 44-47 98-22 53-48 113-56 133l-15 37 52 20c29 11 53 21 54 21 0 1 27-9 60-21zm3522-118c41-77 78-140 82-140s63 47 130 105 125 105 129 105h6l18-167c9-92 19-169 21-171 2-3 76 20 165 50 88 30 162 53 164 51s-16-70-39-151c-24-81-45-154-46-162l-4-15 135-9c74-5 137-10 139-12 1-1-42-57-98-123s-101-121-101-123 67-32 150-68c82-36 150-67 149-70 0-3-67-34-149-70s-150-66-150-68 45-57 100-122c55-64 100-120 100-124v-6h-43c-24 0-85-3-135-6l-92-7v-16c0-9 20-82 44-163l43-148h-11c-6 0-80 23-164 51s-155 49-157 47-12-79-22-171c-9-92-20-167-23-167s-61 47-129 105-126 105-130 105-41-63-82-140-76-139-79-139-38 62-79 139l-75 140h-8c-5 0-64-47-131-105s-124-105-128-105h-5l-17 166c-9 92-19 169-21 172-3 2-78-20-168-51-90-30-164-54-165-53-1 0 18 69 43 151 24 83 44 157 44 167v16l-130 7-130 8-4 6c-2 3 40 58 94 121 55 63 99 117 99 120 1 3-66 35-149 70-82 36-150 67-150 70s68 34 150 70c83 35 150 66 150 68 0 3-45 58-100 123l-100 118 7 4c5 3 65 8 136 12l127 7v13c0 12-75 279-87 311l-5 13 167-56c91-30 168-53 170-51 3 2 12 79 22 171l17 167h6c4 0 61-47 128-105 66-58 125-105 129-105h9l75 140c41 77 76 139 79 139s38-62 79-139zm3493 111 36-16-55-132c-31-73-58-133-62-133-7 0-115 259-110 264 2 1 29 12 59 23l55 22 20-6c11-3 36-13 57-22zm-4543-214 64-22 39-138c22-76 38-141 35-143-2-2-53-8-113-13l-109-9-20 22c-33 34-379 447-387 460l-7 12 217-74c119-40 246-83 281-95zm-2689 81c19-46 53-127 76-181l42-97-56-135-57-135h-125-125l-107 107c-60 59-108 112-108 117s23 71 51 146l51 137 157 61c86 33 159 61 162 61 3 1 21-36 39-81zm569 4 124-47 48-127c26-71 49-134 51-141l3-14-104-111-105-112h-127-126l-57 135-57 134 77 180 76 180 37-14c20-8 92-36 160-63zm4499 5c-35-41-128-151-207-245l-145-172-45 5c-25 2-76 7-113 11l-68 6 1 11c0 7 17 71 38 142l37 130 270 92c148 50 275 92 282 92l13 1-63-73zm1962-121 71-169-57-133-57-134h-126-127l-104 111-105 112 2 11c2 6 25 69 51 141l49 130 318 122 7-12c4-6 39-87 78-179zm447 148c65-25 137-52 159-60l41-15 52-137c28-76 51-142 51-148 0-5-49-58-108-117l-108-108-248 6-57 130-56 130 13 35c23 56 139 330 141 330 0 0 54-21 120-46zm-8271-152c39-34 75-62 81-62 5 0 60 20 121 44 62 24 112 41 112 38s-21-62-47-130l-46-123 99-100 99-99-173-1c-94-1-178-2-184-3l-13-1-6-162-88-98-51 50-52 50 7 103 6 102h-88-89l-94 96 90 88h87l88 1 6 155c3 85 7 157 7 159 1 3 14-7 30-20 15-14 59-53 98-87zm9043-53 6-152 174-2 46-45 45-44-94-96h-89-88l6-102 7-103-52-50-51-50-88 100-1 76v77l-22 6-23 6h-165-165l198 198-47 126c-25 69-46 128-46 130s50-16 112-40c61-24 116-44 122-44s54 38 106 84 97 82 99 80 6-72 10-155zm-6979-142c3-3 75-41 160-86 85-44 153-81 150-82-3 0-102-8-220-17l-215-17-40-117c-22-65-42-118-46-118-3 0-21 44-40 98l-34 97-132 5-133 5 170 170 6 20 5 21-45 119c-25 66-44 121-42 122 1 1 58-19 127-46l124-49 59 52c32 28 75 65 95 83l36 32 5-144c3-79 7-146 10-148zm4905 196 80-70 110 42c61 24 119 46 129 51l19 7-7-19c-35-86-86-227-86-237v-12l178-190-131-5-132-5-34-97c-19-54-38-98-41-98-4 0-24 53-46 118l-39 117-207 15c-113 8-209 18-212 21l-6 6 310 164v146 146l18-14c9-8 53-47 97-86zm-5952-413 44-105 113-3 114-3-239-239 239-239-114-3-113-3-44-105c-24-57-47-108-51-112l-8-8-49 115-48 114-108 3-107 3 113 118 113 117-113 118-113 117 214 6 49 114 49 115 8-8c4-4 27-55 51-112zm6982 5 47-114 216-6-113-118-114-118 228-234-108-3-109-3-48-115-47-115-8 8c-4 4-28 55-52 113l-45 105-111 5-110 5 116 118 115 117-116 118-116 117 222 10 44 103c24 57 44 107 44 112 0 6 4 10 9 10h8l48-115zm-1835-26 25-4-263-138-263-139-137 61-137 60 2 8c2 4 38 51 82 103l80 96 293-22c161-12 304-24 318-25zm-2740-36c36-42 73-87 82-99l17-21-139-63-139-62-263 139-262 138 16 3c32 6 486 40 553 41l71 1 64-77zm-588-135c158-84 288-155 288-158 0-4-132-76-294-161l-294-154-264 19-265 20-45 138-46 138 46 139 46 138 190 13c105 6 196 13 201 15 6 2 41 4 79 4l70 1 288-152zm3829 135 236-17 45-138 46-138-46-138-45-138-236-17c-130-10-251-17-270-17h-34l-136 72c-75 40-185 98-246 130-60 32-129 68-152 80-24 12-43 25-43 28s129 74 288 158l287 151 35 1c19 0 141-7 271-17zm-4997-61 49-7 38-112 38-113-38-112-38-113-148-9-149-8-113 115c-62 64-113 121-113 127 0 5 50 62 111 125l112 115 101-1c56 0 123-4 150-7zm5934-106c62-64 112-120 112-125s-51-62-112-126l-113-117-145 7-145 6-6 7c-4 4-22 55-42 115l-36 107 36 108 35 107 28 22 276 4 112-115zm1164 91 8-12v-43-43l114-120-112-114-7-57-7-58-162-1c-88 0-170-2-181-4l-20-4-112 117c-62 64-113 119-113 122s51 57 113 120l112 115 180-3 179-3 8-12zm-8141-98c57-61 104-114 104-119s-47-58-104-119l-105-111h-188-188v24c0 13-3 37-6 54l-6 31-21 23c-11 13-36 40-55 60l-35 37 57 63 56 63 2 40c0 22 1 46 1 53l-1 12h193 192l104-111zm2759-228c74-33 134-63 133-66-1-4-36-49-79-101l-77-94h-43c-47 0-573 39-588 43l-9 3 259 137c142 75 261 136 264 137 3 0 66-27 140-59zm2542-77c142-75 257-138 255-140-4-4-534-44-589-44h-44l-77 93c-43 50-77 96-78 101v8l128 58c70 32 132 58 137 59s126-60 268-135zm-5925 71 38-45 10-164 25-1c14-1 97-2 185-3l160-2-99-99-99-100 46-123c26-68 47-127 47-130 0-4-49 14-110 38-60 24-115 44-121 44s-56-38-110-86l-99-85-1 18c-1 10-4 81-8 157l-6 139-170-2-48 47-47 46 94 96h89 89l-8 101-7 101 49 49c26 27 51 49 55 49s25-20 46-45zm9006-3 47-48-6-102-7-102h89 90l94-96-44-43-45-44-85 1h-86l-4-6c-2-4-5-72-7-152s-5-148-7-153l-3-7-194 170h-13c-7 0-62-20-122-44-61-24-110-42-110-38 0 3 21 62 47 130l46 123-99 100-99 99h105c58 0 142 3 188 7l82 6v76 76l42 48c23 26 44 47 48 47 3 0 27-22 53-48zm-7109-129 37-112 17-5c9-2 98-10 197-16s191-13 204-16l24-5-79-41c-43-23-115-60-159-84l-80-43-10-290-95 83-95 84-45-18c-143-56-204-79-206-77-2 1 17 56 42 121 24 65 44 124 44 131v13l-182 192h134 134l34 104 35 104 6-6c4-4 23-57 43-119zm5196 22 34-105h135 134l-92-95-91-94v-15c0-8 20-67 45-132 24-65 43-119 41-121-1-2-30 8-64 22-35 14-91 36-126 49l-63 24-94-85-94-84-10 292-70 38c-38 20-107 57-153 81l-82 44 12 7 13 6 386 26 13 12 12 12 34 111c19 62 37 112 40 112s21-48 40-105zm-6239-239 56-134-24-59c-78-187-126-298-128-301-1-2-75 25-163 60l-160 62-51 137c-28 75-51 140-51 145s48 57 107 116l108 108h125 125l56-134zm630 22 104-111-3-14c-2-7-25-70-51-140l-48-128-124-47c-68-27-140-54-160-62l-36-15-154 358 57 136 57 135h127 127l104-112zm6353-23 57-134-76-179-76-180-142 55c-78 30-151 58-162 63l-20 8-22 58c-11 33-35 96-51 140l-31 82 106 111 105 111h127 128l57-135zm628 28c60-59 108-112 108-117s-23-70-51-145l-51-137-160-63c-88-34-161-61-162-59-2 2-37 83-78 181l-76 178 50 116c27 63 53 124 59 134l10 19h122 122l107-107zm-5497-4c165-12 302-23 304-25 2-1-102-128-231-281l-234-278-194-67c-107-37-204-67-215-67h-20l-45 42c-25 23-79 71-119 107l-74 65 7 160c4 88 8 161 10 162 1 2 92 50 202 108l199 106 55-5c30-3 190-15 355-27zm3580-75 202-106 7-105c3-59 6-132 6-163v-56l-123-111-123-110-208 70-208 71-231 274c-128 150-233 277-235 281l-3 8 328 25c180 14 341 26 357 27l29 1 202-106zm-2992 30 68-6-6-27c-3-16-20-79-38-141l-32-112-35-14c-19-7-146-51-282-97l-246-83 6 11c3 5 96 117 206 248l199 237 46-5c25-2 77-7 114-11zm2029-74c40-47 107-126 148-175 41-50 101-120 133-157l59-68-13 1c-8 0-135 42-284 92l-269 92-39 138-40 137 6 6c5 5 167 20 209 19h17l73-85zm-4562-303c29-70 51-128 49-130s-30-13-61-25l-58-21-54 20-55 21 17 42c9 23 35 85 57 138l40 97 6-7c3-4 30-64 59-135zm6968 36c22-54 47-114 56-134l15-37-110-42-52 21c-28 11-55 24-60 28l-7 7 52 127c29 70 56 127 59 127s24-44 47-97zm-4064-83 15-145-27-22c-15-11-126-107-247-211s-221-189-222-188 37 141 86 311l89 310 14 8c7 4 72 27 143 51l130 43 2-6c1-3 9-71 17-151zm1350 59 10-9 87-307c49-169 87-308 86-309s-113 93-249 210l-247 211 4 40c3 22 10 90 16 151l11 112 137-45c75-25 140-49 145-54zm-4945-47 33-17 35-95c19-52 46-125 60-163 15-37 24-68 22-70s-76-35-163-74l-159-71-76 33c-42 18-106 47-143 64l-68 30v134 133l111 96 110 96 102-40c56-21 117-47 136-56zm1616 2 105-97v-139-139l-82-38c-46-20-108-48-139-60l-56-23-164 72c-90 40-167 75-170 79l-7 6 124 328 135 52c74 29 137 53 141 54 4 0 55-42 113-95zm5259 42 140-53 124-328-7-6c-9-9-327-149-338-149-6 0-68 26-139 58l-129 58-3 141-3 142 106 95c59 53 107 96 108 96s65-24 141-54zm1719-48 108-92-6-270-280-124-30 13c-40 16-289 128-293 131-2 1 15 53 38 116 23 62 49 133 57 158 9 25 21 50 27 57 13 14 233 102 256 102l16 1 107-92zm-5417-5c-3-10-49-169-101-353-53-183-97-335-98-335-1-1-68-59-149-128l-147-126-157 55c-87 30-159 56-159 57-1 1-27 68-59 150l-58 147 35 43c19 23 82 98 139 166l104 124 315 108c173 59 320 108 327 108l13 1-5-17zm2218-91 318-109 278-328-7-20c-3-11-29-79-57-152l-51-132-158-55-158-56-147 127c-81 69-148 126-149 127s-45 152-98 336c-52 184-98 343-101 353l-5 17h8c4 0 151-49 327-108zm-1395-20 62-113-3-18c-3-20-281-552-285-547-3 3-63 561-63 588v17l111 96c61 53 112 95 114 93 1-2 30-54 64-116zm429 18 100-85 1-21c1-25-58-586-62-590s-282 528-285 547l-3 17 62 116 63 115 12-7c6-4 57-45 112-92zm-4145-6 97-37v-12c0-7-9-32-20-57l-19-44-51-24c-27-13-51-22-53-19s-65 171-85 228l-5 14 19-6c10-3 63-22 117-43zm780-71c-25-65-46-119-47-121-2-1-24 7-50 19l-48 21-24 55c-14 31-23 57-21 59 6 6 211 83 223 84h11l-44-117zm6197 76c58-22 106-42 108-44 2-1-8-28-22-59l-25-56-47-20c-26-11-48-19-50-18-5 5-84 221-84 229 0 14 8 12 120-32zm830 36c0-6-82-229-87-234-2-3-26 6-53 19l-51 24-19 44c-11 25-20 50-20 57v13l18 5c9 3 58 21 107 41 91 36 105 40 105 31zm-7523-154 53-21 76 30 77 29 7-4c4-3 20-36 36-75l29-70 63-27c35-14 65-30 68-34l4-7-26-71-26-70 26-77c14-43 24-80 21-83-3-2-33-17-68-32l-62-27-37-68-37-69-13 2c-7 2-39 14-71 27l-58 23-71-28c-38-16-71-29-73-29-1 0-17 33-34 73l-32 74-74 32-74 33 27 75 26 75-26 71-26 72 72 35 71 36 58 142 21-8c12-4 45-17 73-29zm1360-58 106-97 155 52c85 29 156 51 158 49 1-1-44-57-102-124l-104-122 51-128c28-70 53-134 56-140l5-13-126 43-125 43-88-88c-48-48-91-88-95-88h-8v118l-1 117-112 49c-62 27-116 52-120 56l-8 7 120 54 121 54v128 127h5c3 0 53-44 112-97zm4618-208 115-50-2-10-3-10-110-51-110-50-6-234h-7c-4 0-45 38-92 85l-85 85h-15c-8 0-64-18-125-40-60-21-110-38-111-37s22 64 52 140l54 138-105 122c-57 66-103 123-100 125 2 2 73-20 158-49l154-54 218 200 3-131 3-130 114-49zm998 275 77-30 73 29 72 29 7-16c5-10 19-43 33-74l25-58 138-62-25-73-26-74 25-75 26-75-73-32-74-32-32-74c-17-40-32-73-33-73 0 0-33 13-73 29l-71 29-59-23c-32-13-64-25-71-27l-13-3-37 69-37 68-62 27c-35 15-65 30-68 32-3 3 7 40 21 83l26 77-22 62c-13 34-25 68-27 75l-5 12 71 32c39 17 71 34 71 39 0 9 58 139 62 139 2 0 38-13 81-30zm-3882-431 31-316-117-221-118-222h-151-151l-109 109-109 110 64 220 64 219 550 472 7-27c4-16 21-170 39-344zm1272 106 246-210 124-436-109-110-109-109-153 2-153 3-232 440 32 310c18 171 35 325 38 342l5 33 33-28c18-15 143-121 278-237zm-716 7c51-97 125-237 164-311l71-134-26-245-26-246-7-7c-13-12-256-109-273-109s-260 97-273 109l-7 7-26 245-25 244 68 130c37 72 111 212 163 313 52 100 97 182 100 182s47-80 97-178zm-4012 43 19-55-18-52c-11-29-20-54-21-56-1-1-40 15-86 36s-99 44-116 51c-18 8-33 16-33 20 0 5 214 108 231 110 3 1 14-24 24-54zm888 48c4-3 53-27 110-52l103-46v-10-10l-118-52c-65-29-120-53-122-53s-11 27-20 60l-17 61 12 37c21 67 35 83 52 65zm6101-54 17-46-16-59c-10-32-19-60-20-62s-56 21-122 50l-119 53-3 9-3 10 119 52 118 53 6-7c4-4 14-28 23-53zm985 6c61-27 111-52 111-55 0-4-74-39-230-108-3-1-14 23-25 53l-18 55 18 55 19 55 7-2c3-2 56-25 118-53zm-8188-181c79-36 148-69 152-73l8-8-57-164c-31-90-58-165-59-166-5-8-272-113-285-113h-15l-196 196 6 278 128 57c71 31 131 60 134 63l7 6 16-5c9-3 82-35 161-71zm8584 3 120-54 3-138 3-139-203-203-147 58-146 59-58 167-57 167 9 9c5 5 77 39 162 77l152 68 21-8c12-5 75-33 141-63zm-6990 4 130-58 3-136 3-137-101-97c-56-54-105-99-110-101-12-4-291 107-307 122l-11 11-47 148-47 149 8 8c12 11 326 150 339 150 6 0 69-27 140-59zm5378-12c89-39 166-74 171-79l8-8-47-149-47-148-11-12c-12-11-289-123-304-123-4 1-54 45-111 99l-103 98 6 276 130 58c72 32 134 59 138 59 5 0 81-32 170-71zm-6661-134 46-19 21-51c12-28 21-53 21-57 0-5-222-98-235-98-4 0 43 141 74 223l11 29 8-4c4-2 28-12 54-23zm7744-103c24-67 41-122 39-122-13 0-235 93-235 98 0 4 9 29 21 57l21 50 46 22c26 11 51 20 56 19l9-2 43-122zm-6999 4c19-59 33-110 30-112-3-4-206 73-215 81-2 1 7 24 20 50l23 47 45 24c25 12 49 22 53 21l9-3 35-108zm6239 92 46-23 25-48c13-27 23-50 21-51-12-9-212-85-215-82-5 4 66 226 72 226 3 0 25-10 51-22zm-5116-59 126-42 48-125 49-124-243-243-161 2c-89 1-163 3-165 5s-4 86-4 187l-2 184 207 207 10-4c5-3 66-23 135-47zm4147-51 103-103v-186-186l-77-7c-42-3-115-6-162-6h-86l-248 248 49 123 49 124 130 47c72 25 132 47 135 47 2 1 51-45 107-101zm-3431-99c-24-85-46-162-48-171l-3-17 94-95 94-96h-9c-5-1-65-2-134-3l-124-2-50-122-50-123-6 8c-4 4-28 58-55 120l-48 112h-128-129v7c0 4 47 55 106 114l105 105-41 108c-23 59-40 109-38 112 3 2 63-16 133-41 71-25 134-45 140-45h12l109 94c60 52 110 93 112 92 1-2-18-72-42-157zm2587 24 69-57 136 47c74 26 137 45 140 43 2-3-15-53-38-112l-41-108 105-105c59-59 106-109 106-113v-6l-127-1-128-2-6-7c-3-4-25-54-48-112-24-58-46-108-50-112l-7-8-50 123-50 122-124 2c-69 1-129 2-135 2l-10 1 97 98 96 97-43 150c-24 83-47 161-50 174l-6 24 48-41c26-23 79-68 116-99zm-4745 12c5-4-102-215-108-215-4 0-27 48-53 106l-46 105 52 24 52 23 50-20c28-11 51-21 53-23zm6989 0c5-3-90-215-96-215-7 0-114 211-109 215 2 2 25 12 53 23l49 19 50-20c28-11 52-21 53-22zm-7216-189c32-75 59-142 59-150 0-7-38-93-85-190l-86-177-192 6-86 88c-47 49-92 99-100 112l-14 23 106 304 31 14c17 8 90 39 161 68l130 53 8-7c4-4 35-69 68-144zm505 79c51-20 99-42 107-48l15-12 52-163c28-90 50-167 48-173-2-5-39-49-83-98l-80-90h-121l-120-1-78 179-77 178 75 152 76 151 47-19c27-10 89-35 139-56zm6492-78 73-152-78-178-77-177h-117-117l-86 92c-47 51-86 96-86 101 0 18 102 332 111 342 8 8 287 124 299 124 3 0 38-68 78-152zm632 16c4-4 33-77 63-162l55-154-85-88c-47-48-91-96-98-106l-13-17-202-8-85 177c-47 98-85 184-85 192 0 14 82 208 116 274l13 27 157-63c86-35 160-67 164-72zm598-304c4-4 45-23 92-42l85-35-25-10c-14-6-64-28-112-50l-86-40-6-29c-3-15-10-102-17-193s-15-174-19-185l-7-20-94 187-93 187-26 5c-14 2-73 3-132 2-60-1-108 0-108 2 0 3 38 45 85 93 47 49 85 92 85 97s-22 71-49 148c-28 76-49 139-48 140s56-20 122-46c66-27 127-49 135-50h15l90 90 90 91 8-168 7-167 8-7zm-9098 246 85-85h15c8 1 69 23 135 50 65 27 120 48 122 47 1-2-20-65-48-141-27-75-49-142-49-147s38-49 85-98c47-48 85-90 85-92s-57-4-126-4-129-2-134-5c-4-3-50-90-103-195l-95-190-6 45c-3 25-10 108-16 185s-13 155-16 173l-5 34-87 40c-48 22-98 45-112 50l-25 9 90 38 90 37 6 70c4 38 7 113 8 167l1 97h8c4 0 45-38 92-85zm2100-100v-185h162 163l-179-179 36-88c20-48 44-105 52-125 9-21 15-38 13-38s-59 23-127 50l-124 50-71-70c-39-38-74-70-78-70h-7v145 145h-192-192l44 48c25 26 60 63 77 82l32 35-50 159c-27 87-48 160-46 162s65-21 140-51 140-55 145-55c4 0 48 38 97 85 50 46 93 84 98 85h7v-185zm2005-46 18-176 118-49c65-26 118-49 116-50-1-1-54-22-117-47l-115-44-6-29c-4-16-7-89-8-162l-1-134-87 81c-49 44-93 81-99 81s-61-18-123-40c-61-22-114-40-116-40s8 28 22 63c14 34 40 99 58 144l33 83-85 89-84 90 127 3 128 3 95 181 96 182 6-27c4-14 15-105 24-202zm1119-139 127-5-170-176 8-22c5-12 32-78 60-146l51-123-13 4c-6 3-62 22-123 44l-112 39-91-84-91-83-1 134c-1 73-4 146-8 163l-6 29-108 41-109 41 2 9 1 10 108 43 108 44 17 171c9 95 20 187 23 205l6 34 97-184 97-183 127-5zm1761 285c50-46 93-85 98-85 4 0 69 25 144 55s138 53 141 51c2-2-19-75-47-162l-50-158 75-83 76-83h-191-191v-145-145h-7c-4 0-39 32-78 70l-71 70-124-50c-68-27-125-50-126-50s20 57 48 126l51 126-178 178h163 162l1 163c1 89 1 172 1 185l-1 22h7c4 0 48-38 97-85zm-5922-396 73-164h97 97v-7c0-4-36-47-80-95l-80-87v-13c0-7 18-61 40-119 22-59 40-110 40-115v-8l-42 18c-24 9-87 33-140 51l-97 34-28-25c-100-91-206-180-210-176-2 3 19 77 46 164 28 87 51 165 51 172v13l-87 92-87 91 83 3 82 3 81 169c45 94 83 168 85 167 2-2 36-78 76-168zm7177-171 81-3-85-92-86-91v-13c0-6 23-84 51-171 28-88 49-162 46-164-3-3-56 40-118 95-63 56-119 101-125 101s-71-22-143-49l-131-49v8c0 5 20 60 44 123l43 115-83 91c-46 50-84 95-84 99v7h97 98l150 338 164-342 81-3zm-5326 143 58-139-68-163c-37-90-71-168-75-173l-8-9-168 68c-92 37-173 72-179 79-6 6-35 70-64 143l-54 132 99 100 99 101h151 151l58-139zm678 35 97-102-64-154-64-155-166-59-165-59-6 5c-3 3-38 84-78 179l-73 174 38 90c20 49 46 111 58 138l20 47 306-2 97-102zm2208 94c0-6 24-68 53-139l54-129-75-176-74-176h-12c-6 1-82 27-170 58l-158 57-63 155-64 155 77 80c42 43 88 89 102 102l25 22 153 1h152v-10zm725-90 99-100-53-132c-30-73-59-138-65-145-6-6-87-42-179-79l-168-67-8 9c-5 5-39 82-76 172l-68 163 59 140 58 139h151 150l100-100zm-1894-141 136-51 7-82c3-44 6-122 6-172v-91l-142-132-141-132-8 3c-5 2-72 61-149 131l-140 128v92c0 51 3 129 6 173l7 81 131 51c72 28 136 51 141 51 6 1 71-22 146-50zm-2783-184 3-149-264-264-101 35c-56 20-105 40-110 44s-30 65-56 135l-48 128 24 30c14 16 60 67 101 113l77 83 185-2 186-3 3-150zm5760 44 101-110-28-77c-16-42-39-103-50-134l-22-57-72-27c-40-15-88-33-107-41l-34-14-266 266v146 146l7 6 6 7h182 181l102-111zm-7033 49c27-29 72-78 102-108l53-56-72-230-73-230-85-75c-46-41-168-147-270-236l-185-163-3 10c-2 5-16 156-31 336l-27 327 121 239 120 238h151 151l48-52zm8301-191 122-242-28-322c-15-177-30-327-32-333l-3-11-135 119c-74 65-193 170-265 233l-130 115-12 25c-7 14-42 119-78 234l-64 207 202 218h151 151l121-243zm-5746-133v-11l-43-17c-23-9-52-16-62-16-25 0-105 36-105 47 0 4 23 63 51 131l52 123 53-123c29-68 53-128 54-134zm2879 132c28-69 51-128 51-133v-8l-49-18c-60-21-70-21-122-1l-41 17 5 17c4 17 101 249 103 250 1 0 25-56 53-124zm-3752 28c76-31 139-57 141-58 8-9 141-342 139-349-3-9-295-135-332-144l-20-4-230 98-3 174-2 173 82 83c45 46 83 83 84 83 2 0 65-25 141-56zm4691-27 82-83-2-174-3-173-115-49c-63-26-118-48-123-48-12 0-330 131-341 141l-8 7 50 124c28 68 60 146 72 174l21 51 137 56c75 31 139 56 142 57 3 0 43-37 88-83zm-2905-97 57-54v-96-95l-183-94-182-94-117 63c-65 34-118 65-118 69 0 5 27 75 61 157s63 154 66 161l5 12 41 16c23 8 85 30 137 49l95 34 40-36c22-20 66-61 98-92zm1370-130 68-162-4-12-5-11-115-59-115-58-181 93-181 94v97 96l96 90 97 90 136-48 136-47 68-163zm-2737 85c59-24 108-46 110-48s-6-28-18-57l-22-53-108-48-6 6c-7 7-102 237-102 248v8l20-6c11-3 68-26 126-50zm3774 47c0-10-95-240-102-247l-6-6-108 48-22 53c-12 29-20 55-18 58 6 6 239 101 249 102 4 0 7-4 7-8zm-2960-71c-38-98-72-176-79-183l-7-8-102 54-21 50c-11 27-20 51-18 52 7 7 214 82 229 83l18 1-20-49zm2110 9c62-22 114-41 116-43 2-1-7-26-20-53l-24-51-48-27-47-27-8 8c-7 8-40 84-79 184l-20 49h9c5 0 60-18 121-40zm-3740-183v-154l107-43 106-44-19-8c-10-4-66-28-124-51l-105-44-3-133-3-134-87 87-87 86-155-49c-85-28-159-50-163-50s37 54 92 121l100 120-28 77c-16 42-39 103-51 135s-20 60-18 63c3 2 46-11 96-30l91-34 118 119c65 66 121 119 126 119h7v-153zm5393 36 117-118 92 32c51 18 94 30 96 28s-18-64-46-137l-50-133 26-35c14-19 59-74 100-122 40-49 70-88 65-88-4 0-78 23-163 50l-155 49-87-86-87-87-3 133-3 134-124 52-123 52 106 43 106 42v154 154h7c4 0 61-53 126-117zm-6011 15 56-19 57-155 57-154-38-47c-21-27-80-98-131-160l-94-112-57-16c-31-9-185-57-341-107-155-49-285-88-287-86-3 4 11 52 147 480l59 186 52 44c29 24 101 87 160 140l109 97 97-36c53-19 123-44 154-55zm6914-58 158-140 103-327c56-180 101-329 99-331s-120 34-262 78c-143 45-297 94-342 108l-84 26-116 140c-63 78-122 149-130 158l-14 17 56 154 57 153 152 56c84 30 155 54 159 51 4-2 78-66 164-143zm-5189 89 61-23 64 22c34 12 68 22 74 22h11l27-68 26-68 140-68v-8c0-5-11-36-25-70l-25-61 20-65c11-35 20-68 20-73v-9l-61-30-61-31-30-67c-17-37-31-68-32-69-2-2-37 9-78 23l-76 25-63-25c-34-15-65-26-69-26-3 0-21 31-40 69l-33 69-138 54 5 17c3 9 14 43 24 76l18 60-28 69c-15 38-28 72-28 75s34 19 75 36l74 29 28 74 28 73 15-5c8-2 43-15 77-27zm3166-42 28-72 70-29c38-16 72-32 74-36l5-8-29-68-28-69 17-50c9-28 20-62 23-77l7-26-69-27-68-27-33-69c-19-38-37-69-41-69s-35 12-68 26l-60 26-77-26c-43-14-78-25-80-23-1 1-15 32-32 69l-30 67-61 31-61 30v9c0 5 9 38 20 74l20 66-25 57c-14 31-25 62-25 68v12l140 68 26 68 27 68h13c8 0 37-9 66-20 66-25 80-25 148 5 30 13 60 24 65 24l10 1 28-73zm-1739-121 96-88 86 78c47 44 111 102 142 131 31 28 58 50 60 48 5-4 10-60 11-112l1-42 18-5c9-4 88-44 174-89l157-83-172-88c-95-49-174-91-177-93-3-3-7-42-10-89l-5-84-140 135c-77 74-142 134-145 134s-68-60-145-134c-76-74-140-133-142-132-1 2-3 40-4 85l-2 82-178 92-179 92 158 83c86 45 165 85 175 89l17 5 1 47c1 26 2 52 4 57 1 6 3 20 3 33l2 24 49-44c27-24 92-83 145-132zm-4463-285 23-284-40-34c-21-19-60-52-86-74l-46-40-66 110c-36 61-66 115-66 121 0 5 55 120 122 255l123 244 12-14 24-284zm9398-200 1-14-66-108-66-109-47 40c-25 21-64 54-85 73l-39 33 22 280c13 153 25 286 28 294l5 15 123-245c68-135 124-251 124-259zm-6722 374 21-56-36-104-13 3c-27 7-260 105-256 108 8 8 233 102 247 103l15 1 22-55zm3929 4c69-28 123-53 121-55s-63-28-135-58l-133-55-4 12c-3 7-11 31-19 53l-14 42 21 56 22 56h8c5 0 65-23 133-51zm-2986-9c44-22 80-42 80-44 0-3-39-25-87-50l-86-47-7 8c-4 4-13 25-20 46l-12 37 18 45 17 45h9c4 0 44-18 88-40zm1993-5 19-44-12-38c-7-21-16-42-20-46l-7-8-86 47c-48 25-87 47-87 50 0 5 153 83 165 83l10 1 18-45zm-5103-354c-48-155-90-284-92-286-7-8-270-87-274-83-2 2-8 55-14 118l-11 114 18 17c32 33 458 407 460 405 1-1-38-129-87-285zm8259 71 231-203v-13c0-28-21-221-25-224-2-2-57 13-122 33s-126 39-135 41l-18 5-46 147c-25 81-65 209-89 285l-43 138 8-3c5-2 113-94 239-206zm-6323 117c93-39 173-74 177-78l8-8-106-318-165-67-165-68-69 68c-38 37-87 85-107 107l-38 40-1 141v141l133 56c72 31 139 56 148 57 9 0 93-32 185-71zm1545-21 177-93 14-204-77-73c-43-40-80-74-84-75-3-2-91 25-195 60l-189 62-43 135c-24 74-44 138-44 142s51 32 113 63c61 32 116 61 122 66 5 5 13 9 18 9 6 0 90-42 188-92zm1450 26c71-36 129-69 129-72 0-4-20-67-44-141l-43-135-19-7c-10-4-97-33-192-64l-173-56-80 73-79 73 12 210 6 3c4 1 84 43 177 92 94 49 171 90 173 90s62-30 133-66zm1562 10 137-57v-139-140l-17-22c-10-12-59-60-109-108l-90-87-165 67-164 67-52 160-53 159 8 8c10 10 334 146 352 147 8 1 77-24 153-55zm-2294-242 143-137-14-320-75 4-75 3-128-126-64 63-65 64-74-6-74-5-7 161-7 162 143 137c79 75 145 137 148 137s70-62 149-137zm-1213 20c17-53 30-98 29-100-2-3-175 55-181 61-3 2 4 25 15 50l20 46 38 20c21 11 40 20 43 21 3 0 19-44 36-98zm2204 78 40-20 14-28c7-15 16-37 20-49l7-21-83-28c-46-15-88-29-94-31l-12-4 32 100c17 56 32 101 34 101 1 0 21-9 42-20zm-2908-16 28-14 50-100-22-9c-13-5-61-25-107-45-47-20-87-34-89-31-4 4 36 143 59 202l9 24 23-7c12-3 34-13 49-20zm3645-80c18-54 32-104 31-111l-3-12-85 35c-47 19-95 40-108 45l-22 9 25 51 26 50 42 19c23 11 46 18 51 17l10-3 33-100zm-4645-51 98-98v-171-172l-182-101-181-101h-45c-49 0-654 49-659 53-1 2 25 37 60 78 34 42 98 120 142 174s119 146 168 204l87 106 198 62c108 34 201 62 207 62l10 1 97-97zm5809 46c90-29 181-57 202-63l38-12 202-245c111-135 214-262 229-281l28-36-58-6c-98-11-565-46-608-46h-40l-364 202v171 172l97 97c54 54 100 98 103 98 4 0 80-23 171-51zm-4453-55c32-9 58-18 60-19 2-2-18-53-44-114l-47-112-49 93c-27 50-51 102-54 113l-5 22 38 16c47 20 35 20 101 1zm2925-3 45-19-56-111c-31-60-58-108-61-106-6 6-91 218-88 220 4 3 102 34 109 34 3 1 27-8 51-18zm-2638-90 120-39 12-24c15-29 113-340 113-359v-15l-73-72-72-72h-100-100l-82 159-83 159 49 113c27 63 54 131 62 152l13 37h11c5 0 64-18 130-39zm2451-114 63-147-164-320h-100-100l-76 78-76 77 58 180c32 99 62 186 66 193l8 13 115 39c63 21 121 38 129 37l14-2 63-148zm-2892-5 74-148-62-150-62-149-155-3-156-2-49 53c-27 29-57 63-67 74l-19 21 53 166 53 165 90 37c50 20 114 47 141 59 28 13 58 24 67 24l18 1 74-148zm3377 87 146-61 53-164 52-165-18-22c-11-12-41-45-68-75l-50-52-155 2-155 3-62 150-62 149 74 148 75 148h12c6 0 77-27 158-61zm-5268 39c-5-7-86-105-179-218s-181-220-195-238l-26-33-146 12-147 12v10c0 5 19 69 41 142l42 133 216 67c119 37 254 80 301 95 47 16 89 29 94 29l8 1-9-12zm7228-88 296-92 43-140c23-76 41-141 39-142-2-2-69-9-147-16l-144-11-11 15c-13 16-119 145-272 330-55 67-107 130-115 140l-15 20 15-6c8-3 148-47 311-98zm-4466-59 180-58 60 58c33 33 64 59 68 59h7v-62c0-35 3-107 7-160l6-98h106 107l43-44 43-43-49-46-48-47h-102-103v-120-119l-94-102-48 48-48 47v123 123h-160-160v7c0 4 25 33 56 64l56 57-60 186c-32 102-57 186-53 186 3 0 87-26 186-59zm1158-9 49-49 166 53c92 30 177 57 189 60l21 6-120-374 56-57c31-31 56-60 56-64v-7h-160-160v-123-123l-48-47-48-48-94 104v118 119h-102l-103 1-98 90 44 45 43 44h107 106l6 68c4 37 7 109 7 160v93l18-10c9-5 39-32 65-59zm-2945-33c44-42 84-79 89-82l10-6 154 64c85 35 155 62 156 61 2-1-13-49-32-107-20-57-42-125-49-150l-14-46 108-118-198-6-10-12c-6-7-27-64-47-127s-40-118-44-122l-6-7-96 246-147 13c-81 6-173 15-204 18l-57 7 144 79 145 79v149 150l9-4c5-1 45-37 89-79zm5062-66v-148l145-80c79-43 143-80 142-82-2-1-93-10-202-18l-200-16-6-11c-4-6-26-62-50-125l-42-114-7 8c-4 4-20 46-34 93-15 47-34 104-42 128l-16 42h-105-105l55 61 55 62-24 76c-13 42-35 109-49 150s-24 76-22 77c1 2 72-26 156-61l154-64 31 25c17 13 58 51 91 84s63 60 68 60h7v-147zm-6068-356c152-13 279-25 282-27 2-3-119-74-271-158l-274-154-17 7c-9 3-65 33-124 66l-108 61 8 13c4 7 45 58 91 114l83 101 27-1c14 0 151-10 303-22zm7398-88 92-111-9-8c-4-5-59-36-121-70l-113-63-18 9c-10 5-136 74-279 154l-260 145 11 6c7 3 122 14 257 24s247 19 249 21 26 4 52 4h47l92-111z"/>
</g>
</svg>
