<svg class="img-fluid" id="outputsvg" xmlns="http://www.w3.org/2000/svg" style="transform: matrix(4.13576, 0, 0, 4.13576, 79.3056, 208.974); transform-origin: 50% 50%; cursor: move; max-height: none;" width="980" height="1000" viewBox="0 0 9800 10000"><g id="l1SadJIyAibq8u0BuZo6Te9" fill="rgb(255,255,255)" style="transform: none;"><g><path id="p3h0JiOUA" d="M905 9925 c-71 -41 -134 -76 -139 -78 l-9 -3 106 -129 c59 -72 107 -133 107 -136 l0 -6 -167 -12 c-92 -6 -169 -13 -171 -16 -4 -4 25 -101 79 -269 23 -72 23 -70 2 -61 -48 19 -306 96 -309 92 -2 -2 -9 -65 -16 -140 l-11 -137 -6 0 c-3 0 -17 10 -31 23 -14 12 -57 50 -97 85 l-71 62 -86 -142 -86 -143 0 -88 0 -88 151 -301 152 -301 -23 -266 c-12 -146 -24 -269 -27 -273 -2 -5 -8 -8 -12 -8 -5 0 -57 -22 -115 -50 -58 -27 -111 -50 -116 -50 l-10 0 0 -52 0 -53 104 -43 103 -42 6 -107 c4 -58 7 -142 7 -185 l0 -79 -110 -106 -110 -105 0 -65 0 -65 113 106 112 105 5 -122 5 -122 122 -55 c68 -30 123 -57 123 -60 0 -3 -55 -30 -123 -60 l-122 -56 -5 -122 -5 -123 -65 56 c-36 31 -86 75 -112 97 l-48 40 1 -64 0 -63 110 -94 109 -93 0 -154 0 -154 -62 0 -63 0 -48 -46 -47 -45 0 -94 0 -94 50 -43 50 -43 57 -5 58 -5 -4 -74 -3 -74 67 -64 67 -64 -66 -61 -67 -61 7 -78 7 -79 -59 0 -59 0 -53 -46 -52 -46 0 -92 0 -92 48 -47 48 -47 62 0 62 0 0 -154 0 -154 -109 -94 -110 -93 0 -64 -1 -63 67 58 c38 32 88 76 113 97 l45 39 5 -123 5 -124 122 -55 c68 -30 123 -57 123 -60 0 -3 -55 -30 -122 -60 l-123 -55 -5 -122 -5 -122 -113 106 -112 105 0 -65 0 -64 110 -107 110 -106 0 -79 c0 -43 -3 -126 -7 -184 l-6 -106 -103 -43 -104 -43 0 -50 1 -50 122 -54 c67 -30 125 -57 129 -60 l6 -6 23 -265 22 -265 -152 -302 -151 -302 0 -88 0 -87 86 -144 86 -144 32 30 c17 16 46 42 65 58 19 16 50 43 68 61 l34 32 4 -12 c2 -7 9 -70 14 -141 6 -71 13 -131 15 -133 3 -4 263 74 310 93 l18 7 -7 -24 c-20 -60 -78 -247 -87 -277 -5 -19 -8 -35 -6 -37 2 -2 79 -9 171 -16 l167 -12 0 -6 c0 -4 -48 -64 -106 -135 -58 -70 -104 -129 -102 -130 4 -3 89 -51 173 -96 33 -18 69 -39 80 -46 l19 -14 106 0 105 0 190 106 c105 59 248 138 319 177 l129 70 231 -17 c127 -10 238 -20 247 -22 l16 -4 46 -118 c24 -64 51 -134 58 -155 l13 -38 50 3 50 3 50 158 50 157 125 0 126 0 45 -49 c25 -27 94 -99 154 -161 l108 -111 62 3 61 3 -121 125 c-67 69 -133 139 -148 156 l-26 31 47 7 c25 3 85 6 132 6 l87 0 48 118 c26 64 53 128 60 140 l13 24 74 -146 74 -146 89 0 88 0 -152 -160 -152 -160 64 0 65 0 152 160 153 160 164 0 164 0 0 -96 0 -95 58 -65 57 -64 65 0 66 0 62 71 62 70 0 90 0 89 79 0 79 0 4 8 c2 4 29 32 61 62 l57 54 63 -62 63 -62 77 0 77 0 1 -77 c0 -43 2 -86 4 -96 l4 -19 58 -63 58 -63 65 -1 65 -1 58 64 57 65 0 95 0 96 163 0 162 1 155 -161 155 -161 62 3 62 3 -148 155 -149 155 87 3 86 3 64 127 c35 70 70 135 76 145 l13 18 58 -140 59 -141 120 0 120 0 13 -9 13 -8 -147 -154 -148 -154 61 -3 62 -3 119 123 c65 68 134 140 152 161 l32 37 127 0 128 0 49 -157 50 -158 50 -3 50 -3 28 78 c15 43 42 114 59 157 l32 79 15 2 c8 1 121 10 250 20 l235 17 120 -66 c66 -36 127 -70 135 -75 14 -9 241 -137 334 -188 l41 -23 102 0 102 0 48 27 c26 14 86 48 132 74 46 27 89 50 94 52 l10 3 -106 130 c-59 71 -107 131 -107 135 0 3 75 11 167 18 92 7 169 14 171 16 4 4 -3 29 -57 199 -22 71 -39 131 -38 132 2 2 63 -16 137 -40 74 -24 147 -46 162 -49 l26 -7 8 78 c4 42 8 105 8 139 l1 63 10 0 c11 -1 32 -18 133 -107 l69 -63 87 143 86 143 0 95 0 95 -9 9 c-5 6 -73 138 -151 294 l-143 284 22 256 c12 141 21 262 21 269 l0 13 43 18 c23 10 77 35 120 55 43 20 83 36 88 36 l9 0 0 53 0 52 -104 43 -103 44 -7 105 c-3 59 -6 142 -6 185 l0 80 111 106 110 107 -3 61 -3 62 -104 -99 c-57 -54 -108 -99 -112 -99 l-8 0 -3 117 -3 117 -122 55 c-68 30 -123 58 -123 61 0 3 55 30 123 60 l122 55 3 123 3 122 5 0 c3 0 45 -35 93 -77 47 -42 96 -86 109 -97 l22 -19 -1 64 0 64 -47 39 c-26 21 -75 64 -109 94 l-63 55 0 153 0 154 63 0 62 0 48 46 47 45 0 92 0 92 -49 48 -49 47 -62 0 -62 0 7 76 7 75 -68 65 -67 65 67 64 68 64 -7 75 -7 76 61 0 62 0 49 46 50 47 0 91 0 92 -48 47 -48 47 -62 0 -62 0 0 153 0 154 109 94 109 94 1 64 1 64 -22 -19 c-13 -11 -62 -55 -109 -97 -48 -42 -90 -77 -93 -77 l-6 0 0 123 0 122 -125 54 c-69 30 -125 57 -125 61 0 3 55 31 123 61 l122 55 3 122 c1 67 5 122 7 122 3 0 53 -47 112 -104 l108 -105 3 62 3 62 -110 108 -111 108 0 78 c0 43 3 126 6 184 l7 106 103 43 104 42 0 51 0 50 -32 14 c-18 8 -73 32 -123 54 -49 22 -93 42 -97 46 l-6 6 -23 267 -22 266 152 301 151 300 0 88 0 88 -86 142 -86 142 -94 -82 c-52 -45 -98 -83 -103 -85 l-8 -3 -11 137 c-7 76 -13 139 -15 141 -4 3 -269 -76 -309 -92 l-18 -7 0 6 c0 4 9 32 19 64 44 131 83 263 80 266 -2 2 -71 9 -154 16 -82 6 -160 13 -173 16 l-23 5 19 17 c11 9 61 68 111 131 l92 114 -41 23 c-23 13 -44 24 -46 24 -3 0 -21 10 -42 23 -20 13 -63 38 -95 55 l-58 32 -106 0 -105 0 -26 -18 c-15 -11 -40 -25 -57 -34 -16 -8 -57 -29 -90 -48 -92 -51 -302 -168 -380 -213 l-70 -40 -225 17 c-124 10 -236 18 -248 19 l-24 1 -12 26 c-7 14 -35 85 -62 158 l-49 133 -49 -3 -49 -3 -51 -157 -50 -158 -127 0 -126 0 -32 37 c-18 21 -87 93 -153 161 l-121 123 -58 -3 -58 -3 30 -35 c17 -19 83 -89 147 -155 l117 -120 -65 -6 c-36 -4 -97 -7 -136 -8 l-71 -1 -28 -72 c-16 -40 -43 -104 -60 -143 l-32 -69 -74 147 -74 146 -86 3 -87 3 148 155 148 155 -61 3 -62 3 -155 -161 -155 -161 -162 1 -163 0 0 96 0 95 -57 65 -58 64 -61 0 -62 0 -66 -67 -67 -68 3 -90 3 -90 -80 -3 -80 -3 -62 -62 -63 -61 -57 54 c-32 30 -59 58 -61 63 l-4 7 -78 0 -77 0 -6 30 -6 29 5 63 5 63 -65 68 -64 67 -64 0 -63 0 -57 -64 -58 -65 0 -95 0 -96 -162 0 -163 -1 -155 161 -155 161 -62 -3 -61 -3 148 -155 148 -155 -87 -3 -86 -3 -75 -146 -75 -146 -19 44 c-11 24 -38 88 -60 142 l-41 98 -129 4 c-70 2 -130 6 -133 9 -2 2 62 73 144 158 l148 153 -63 3 -62 3 -108 -112 c-59 -61 -127 -134 -151 -160 l-44 -49 -127 0 -126 0 -50 158 -50 157 -49 3 -50 3 -19 -53 c-10 -29 -36 -99 -59 -156 l-41 -103 -20 -4 c-12 -2 -124 -12 -251 -21 l-230 -16 -70 39 c-38 22 -117 66 -175 98 -58 32 -167 94 -243 137 l-139 78 -106 -1 -107 0 -130 -74z m428 -77 c100 -56 224 -125 274 -152 l92 -51 -22 -7 c-17 -5 -540 -48 -583 -48 l-12 0 -91 111 -92 112 8 7 c12 12 227 130 236 130 5 0 90 -46 190 -102z m7442 41 c61 -33 114 -64 118 -69 l9 -8 -92 -111 -92 -111 -11 0 c-32 0 -547 41 -577 46 l-34 6 74 41 c41 22 165 91 275 153 110 62 205 113 210 114 6 0 60 -28 120 -61z m-4245 -176 l0 -123 103 0 102 -1 49 -45 49 -45 -44 -45 -43 -44 -107 0 -106 0 -6 -67 c-4 -38 -7 -111 -7 -165 l0 -96 -66 61 c-37 34 -70 61 -73 61 -3 -1 -85 -27 -182 -58 -97 -31 -179 -56 -181 -56 -3 0 21 84 54 186 l60 186 -56 57 c-31 31 -56 60 -56 64 l0 7 160 0 160 0 0 122 0 122 47 48 48 49 47 -48 47 -48 1 -122z m884 170 l46 -48 0 -122 0 -123 160 0 160 0 0 -7 c0 -4 -25 -33 -56 -64 l-56 -57 56 -175 c31 -96 56 -180 56 -187 l0 -11 -17 5 c-10 4 -93 30 -184 60 l-165 53 -65 -61 -64 -60 -6 134 c-4 74 -7 147 -8 163 l-1 27 -108 0 -108 0 -44 45 -45 46 50 44 50 45 102 0 103 0 0 122 0 122 47 48 c26 26 48 48 50 48 1 0 22 -21 47 -47z m-2830 -163 c20 -63 40 -120 44 -127 l8 -12 101 -3 102 -3 -54 -57 -53 -58 23 -77 c14 -43 36 -111 50 -152 14 -41 24 -76 22 -77 -1 -1 -71 26 -156 61 l-153 65 -17 -10 c-9 -5 -50 -43 -91 -84 -69 -70 -92 -88 -89 -68 1 4 1 70 0 147 l-1 140 -140 79 c-78 43 -139 80 -137 82 3 4 343 34 378 34 l18 0 48 125 48 124 6 -7 c4 -4 24 -59 43 -122z m4778 -116 c2 -1 93 -9 203 -18 109 -9 200 -18 201 -19 1 -1 -62 -38 -142 -82 l-144 -80 -2 -135 c0 -74 -1 -141 -1 -147 1 -23 -11 -14 -77 53 -36 36 -77 74 -91 85 l-27 19 -153 -65 c-85 -35 -155 -63 -156 -61 -1 1 20 69 46 151 l49 150 -39 46 c-21 25 -46 52 -55 60 l-17 14 108 5 108 5 37 115 c20 63 40 124 44 135 l8 20 49 -124 c27 -68 50 -125 51 -127z m-3411 -90 l74 -75 -2 -12 c-2 -7 -29 -93 -61 -192 l-58 -180 -119 -42 c-66 -23 -127 -42 -135 -42 l-15 -1 -62 152 -62 152 82 158 82 158 101 0 101 0 74 -76z m2256 -83 l82 -159 -60 -143 c-33 -79 -64 -148 -68 -152 l-9 -9 -118 38 c-66 20 -124 42 -131 48 l-11 11 -60 187 -59 186 76 76 76 76 100 0 100 0 82 -159z m-2861 -6 l62 -149 -74 -148 -75 -148 -10 0 c-6 0 -77 28 -158 61 l-148 61 -52 165 -52 165 18 21 c10 12 40 45 67 75 l50 52 155 -2 155 -3 62 -150z m3525 108 c24 -27 55 -60 67 -74 l24 -27 -53 -165 -53 -166 -147 -60 c-81 -34 -152 -61 -158 -61 l-10 0 -74 148 -75 147 49 120 c27 66 56 135 64 153 l15 32 153 0 153 0 45 -47z m-4824 -83 l178 -99 3 -173 2 -173 -98 -98 -99 -99 -207 64 -207 63 -58 70 c-31 39 -84 104 -118 145 -34 41 -111 136 -172 210 l-111 135 10 3 c18 6 554 49 627 51 l72 1 178 -100z m6236 80 c144 -11 284 -24 310 -28 l48 -7 -230 -280 -231 -280 -206 -64 -206 -63 -99 98 -99 99 0 171 0 172 178 100 177 100 48 1 c26 1 165 -8 310 -19z m-7053 -266 c102 -124 194 -238 205 -252 l19 -26 -14 6 c-8 3 -148 47 -311 98 l-296 92 -43 139 c-24 77 -41 141 -39 143 4 5 192 23 254 24 l40 2 185 -226z m7687 215 c71 -6 130 -13 132 -15 2 -2 -15 -66 -39 -143 l-43 -139 -306 -95 c-168 -53 -306 -95 -308 -94 -1 2 68 88 154 192 85 105 176 216 202 247 l46 58 17 0 c10 0 75 -5 145 -11z m-3955 -105 l57 -57 79 2 80 2 7 -162 7 -163 -143 -137 c-79 -76 -146 -138 -149 -138 -3 0 -70 62 -149 138 l-143 137 7 163 7 163 79 -3 79 -3 58 57 c31 31 59 57 62 57 2 0 30 -25 62 -56z m-4420 -198 c24 -8 82 -26 130 -41 l87 -26 45 -142 c93 -294 135 -431 133 -433 -1 -1 -109 93 -240 209 l-239 211 6 65 c4 37 9 90 12 119 l6 52 9 0 c4 0 28 -6 51 -14z m8782 -46 c3 -33 9 -87 12 -119 l6 -59 -236 -206 c-130 -113 -237 -206 -239 -206 -4 0 51 181 132 436 l42 132 102 31 c56 18 113 36 127 41 14 5 30 9 37 9 l11 1 6 -60z m-6623 -28 l164 -68 53 -158 53 -159 -8 -8 c-10 -10 -344 -149 -358 -149 -5 0 -72 25 -147 56 l-138 57 0 146 0 146 108 102 c59 57 107 103 108 103 0 0 74 -31 165 -68z m4672 -37 l107 -106 0 -143 0 -143 -137 -57 c-76 -31 -142 -56 -148 -56 -5 0 -90 33 -187 72 l-178 73 1 10 c0 6 24 80 52 165 l52 154 160 67 c88 37 162 68 165 68 3 1 54 -46 113 -104z m-3868 -20 c25 -59 44 -109 43 -109 -2 -1 -28 -10 -59 -19 l-57 -17 -45 19 -46 20 57 109 c31 61 58 109 59 108 2 -1 23 -51 48 -111z m2894 9 c28 -56 51 -106 51 -111 l0 -10 -42 -16 -42 -17 -55 17 c-31 9 -57 18 -59 19 -2 1 18 52 44 113 26 61 48 110 49 109 2 -2 26 -49 54 -104z m-1955 -29 l78 -75 -7 -102 -7 -103 -179 -93 -179 -93 -130 67 c-71 36 -130 69 -130 73 0 3 20 67 44 141 l43 135 184 62 c101 33 189 61 194 62 6 0 45 -33 89 -74z m1190 12 l189 -62 43 -135 c24 -74 44 -138 44 -142 0 -5 -59 -37 -130 -73 l-131 -65 -178 92 -179 93 -7 103 -7 103 78 74 c44 41 81 74 84 74 3 1 90 -27 194 -62z m-4401 -78 l329 -103 96 -115 c54 -64 112 -135 130 -158 l33 -44 -55 -151 c-30 -83 -57 -152 -58 -153 -3 -2 -175 -66 -269 -100 l-36 -13 -159 140 c-87 77 -162 145 -165 151 -4 7 -51 152 -104 322 -54 171 -100 316 -103 324 l-5 14 19 -5 c10 -3 167 -52 347 -109z m7693 94 c-125 -397 -199 -630 -204 -640 -4 -6 -78 -74 -165 -151 l-159 -141 -61 24 c-34 12 -103 38 -154 56 l-92 33 -57 153 -56 153 38 47 c21 27 80 98 130 159 l93 110 233 73 c128 40 278 88 333 106 55 18 106 34 113 34 l13 1 -5 -17z m-8612 -96 l49 -43 -23 -279 c-12 -154 -24 -287 -27 -295 l-5 -15 -128 255 -128 255 13 15 c6 8 38 59 69 113 l57 98 37 -30 c20 -17 59 -50 86 -74z m9360 -6 c36 -60 66 -114 66 -120 0 -14 -243 -501 -250 -501 -3 0 -16 131 -29 291 l-24 291 14 13 c16 16 153 134 156 135 1 0 31 -49 67 -109z m-6612 0 c40 -16 90 -37 111 -45 l37 -16 -25 -51 -26 -50 -46 -20 -46 -20 -7 8 c-9 10 -80 223 -75 223 3 0 37 -13 77 -29z m3721 -78 c-20 -60 -39 -112 -43 -116 l-8 -9 -45 20 -46 20 -26 52 -26 51 38 15 c21 9 67 29 103 44 36 16 70 29 77 29 l12 1 -36 -107z m-2927 30 c-7 -21 -21 -65 -31 -98 -10 -33 -19 -61 -21 -63 -1 -2 -21 6 -44 18 l-42 21 -20 45 c-11 25 -18 48 -15 50 4 5 167 62 179 63 l7 1 -13 -37z m2202 -3 c20 -5 43 -14 50 -18 l13 -9 -20 -46 -20 -46 -41 -21 c-23 -12 -43 -20 -44 -18 -6 7 -56 175 -56 186 l0 11 41 -14 c22 -8 57 -19 77 -25z m-3718 -337 c58 -23 113 -46 123 -51 l19 -8 -106 -44 -106 -44 0 -153 0 -153 -8 0 c-4 0 -60 53 -125 119 l-118 119 -91 -34 c-50 -19 -93 -32 -96 -30 -2 3 6 31 18 63 12 32 35 93 50 135 l29 77 -96 116 c-52 64 -94 118 -92 120 3 3 193 -54 294 -88 l21 -7 84 85 85 86 5 -132 5 -132 105 -44z m5560 188 c85 27 158 49 163 49 4 0 -38 -55 -92 -121 l-100 -121 29 -77 c15 -42 38 -102 50 -134 12 -32 20 -60 18 -63 -3 -2 -46 11 -96 30 l-91 34 -117 -119 -117 -118 -9 5 -8 5 0 149 0 148 -42 16 c-24 9 -71 29 -106 43 l-63 27 123 51 123 52 3 134 3 133 87 -86 87 -87 155 50z m-3103 -65 l101 -99 144 137 143 137 5 -85 c3 -46 7 -86 10 -89 3 -2 83 -44 177 -92 l173 -89 -168 -88 c-92 -48 -170 -89 -173 -90 l-7 -3 -5 -73 c-3 -40 -7 -75 -9 -77 -3 -4 -48 36 -187 166 -52 49 -97 89 -100 89 -3 0 -69 -58 -146 -130 -76 -71 -141 -128 -142 -126 -5 4 -12 69 -12 113 l-1 42 -17 5 c-10 4 -89 44 -175 89 l-157 83 172 88 c94 49 173 90 175 92 7 5 10 41 11 109 l1 69 43 -39 c23 -22 88 -84 144 -139z m-1428 138 l63 -25 76 25 c41 14 76 25 78 23 1 -1 15 -32 32 -69 l30 -67 61 -31 61 -30 0 -9 c0 -5 -9 -38 -20 -74 l-20 -66 25 -57 c14 -31 25 -62 25 -68 l0 -12 -69 -34 -69 -33 -28 -68 -27 -69 -16 1 c-9 0 -43 10 -76 23 l-60 22 -69 -28 c-38 -15 -72 -28 -75 -28 -4 0 -19 33 -34 73 l-28 73 -75 29 -75 30 5 15 c2 8 15 43 27 77 l23 61 -22 69 c-12 38 -22 72 -22 75 0 3 31 18 69 34 l69 29 33 67 c18 38 36 68 39 68 4 0 35 -11 69 -26z m2934 -4 l68 -22 60 26 c33 14 64 26 68 26 4 0 22 -31 41 -69 l33 -69 68 -27 69 -27 -7 -26 c-3 -15 -14 -49 -23 -77 l-17 -50 28 -69 29 -68 -5 -8 c-2 -4 -35 -20 -73 -36 l-68 -28 -28 -68 c-16 -38 -32 -71 -36 -73 l-8 -5 -68 29 -69 28 -60 -23 c-33 -13 -67 -23 -76 -23 l-16 -1 -27 68 -27 67 -66 34 -65 34 -4 12 -5 12 25 58 26 58 -20 64 c-11 36 -20 69 -20 74 l0 9 61 31 61 30 31 70 31 70 11 -4 c5 -2 41 -14 78 -27z m-5563 -240 l255 -223 6 -21 c4 -12 37 -115 73 -231 l66 -209 -53 -56 c-30 -30 -75 -79 -102 -107 l-48 -53 -151 0 -151 0 -119 235 -120 236 2 42 c4 62 41 523 48 585 l6 54 16 -15 c9 -8 132 -115 272 -237z m8639 -91 l27 -332 -120 -238 -121 -239 -151 0 -151 0 -43 48 c-24 26 -70 74 -102 107 l-58 61 64 204 c36 113 70 219 76 235 l12 30 106 92 c59 50 179 155 266 233 87 77 161 138 163 136 3 -2 17 -154 32 -337z m-6356 69 l15 -47 -21 -56 -22 -55 -8 0 c-5 0 -65 23 -135 52 l-126 52 20 8 c10 5 71 30 134 57 l115 49 6 -7 c4 -3 13 -27 22 -53z m4035 -47 l12 -7 -111 -47 c-61 -26 -120 -49 -132 -52 l-22 -6 -22 56 -22 56 15 42 c8 23 16 47 19 54 l4 12 123 -50 c68 -28 129 -54 136 -58z m-3100 41 c45 -23 82 -44 82 -47 0 -6 -156 -85 -167 -85 -5 0 -16 20 -26 45 l-19 44 12 38 c15 47 20 55 28 51 4 -2 44 -22 90 -46z m1999 3 l13 -39 -17 -48 -17 -48 -8 0 c-5 0 -45 18 -89 41 l-81 40 7 7 c13 13 160 89 169 88 l9 -2 14 -39z m-3184 -172 c89 -36 166 -69 170 -73 l9 -8 -70 -172 c-39 -94 -72 -173 -74 -175 -2 -2 -66 -29 -143 -59 l-139 -56 -83 82 -83 83 2 174 3 174 110 48 c61 26 116 48 123 48 8 1 86 -29 175 -66z m1558 -25 l179 -93 0 -95 1 -95 -98 -92 -97 -91 -120 43 c-67 24 -129 46 -138 50 l-16 7 -26 61 c-13 34 -43 107 -66 161 -22 55 -39 103 -38 108 3 9 216 126 232 127 5 1 89 -41 187 -91z m1444 31 c63 -33 115 -64 115 -68 0 -3 -29 -78 -64 -165 l-65 -159 -14 -8 c-8 -5 -70 -28 -139 -53 l-124 -44 -97 90 -97 90 0 97 0 96 178 92 c97 51 180 93 185 93 4 0 59 -27 122 -61z m1545 13 l115 -49 3 -174 2 -174 -83 -83 -84 -83 -141 57 -141 58 -70 171 c-39 94 -71 174 -71 178 0 4 10 12 23 17 12 5 87 36 167 69 80 33 150 60 155 61 6 0 62 -22 125 -48z m-2271 -233 l141 -131 0 -92 c0 -50 -3 -127 -6 -171 l-7 -81 -138 -53 -139 -54 -139 53 -138 52 -7 82 c-3 44 -6 122 -6 173 l0 92 142 131 c79 71 145 130 149 130 4 0 70 -59 148 -131z m-1175 -14 c24 -60 42 -112 40 -114 -2 -2 -58 16 -124 39 l-121 43 3 6 c2 4 12 27 23 53 l19 46 51 25 50 25 7 -7 c4 -3 27 -55 52 -116z m2163 98 l52 -28 4 -15 c3 -8 12 -31 21 -51 l15 -37 -120 -42 c-66 -24 -121 -41 -123 -39 -4 5 87 238 94 239 3 0 28 -12 57 -27z m-2928 -8 l44 -18 24 -55 c13 -30 22 -56 20 -58 -10 -10 -250 -104 -254 -100 -3 3 14 51 37 108 23 57 46 114 51 127 l9 23 13 -5 c6 -3 32 -13 56 -22z m3703 -103 c28 -68 48 -125 46 -128 -5 -4 -244 89 -254 99 -2 2 6 28 18 57 l22 53 50 23 c28 12 55 22 59 21 5 -2 31 -58 59 -125z m-4554 -317 l-3 -150 -186 -3 -186 -2 -99 110 -99 111 2 12 c2 16 57 165 80 218 l19 42 104 38 105 37 133 -131 132 -132 -2 -150z m5651 375 c57 -21 105 -41 108 -44 3 -2 27 -62 53 -132 l49 -127 -12 -17 c-7 -9 -52 -60 -102 -113 l-90 -97 -185 2 -185 3 -3 150 -3 149 133 133 c73 73 133 133 133 133 0 0 47 -18 104 -40z m-6642 -83 c61 -53 115 -97 121 -97 5 0 69 22 141 49 l131 49 0 -8 c0 -4 -18 -55 -40 -114 -22 -58 -40 -112 -40 -119 l0 -13 82 -90 82 -89 -99 -5 -100 -5 -75 -169 -75 -169 -82 171 -82 171 -82 3 -82 3 86 90 86 90 1 13 c0 8 -22 85 -50 171 -27 86 -50 164 -50 172 l0 14 8 -10 c4 -6 57 -54 119 -108z m7344 -65 c-28 -87 -51 -164 -51 -171 l0 -13 85 -91 85 -92 -81 -3 -81 -3 -82 -171 -82 -171 -74 169 -75 169 -100 5 -99 5 85 93 86 94 -43 115 c-24 63 -44 118 -44 123 l0 8 131 -49 c72 -27 137 -49 143 -49 9 0 94 72 211 179 l30 28 3 -8 c2 -4 -19 -80 -47 -167z m-5116 34 l39 -14 4 -10 3 -10 -46 -108 c-25 -60 -49 -118 -53 -128 l-8 -19 -52 124 c-29 68 -52 128 -52 132 0 11 80 47 105 47 11 0 38 -7 60 -14z m2928 -3 l47 -17 0 -8 c0 -8 -68 -182 -91 -231 l-12 -28 -54 126 -54 126 4 12 3 11 35 12 c47 17 67 17 122 -3z m-2609 -111 l158 -57 63 -155 63 -155 -96 -101 -97 -102 -153 -1 -153 -1 -14 33 c-7 17 -33 80 -58 138 l-45 106 76 177 75 176 11 0 c6 -1 82 -27 170 -58z m2376 6 c13 -29 46 -109 75 -178 l52 -125 -57 -135 -57 -135 -147 -3 -147 -3 -17 13 c-10 7 -56 54 -104 103 l-86 90 63 155 63 155 73 27 c41 14 110 40 154 56 44 16 87 30 96 31 l17 1 22 -52z m-2899 -83 c27 -66 59 -141 71 -167 l21 -47 -58 -141 -58 -140 -151 0 -152 0 -98 100 -99 100 53 132 c29 73 58 138 64 145 14 15 327 142 345 140 l13 -2 49 -120z m3449 59 c91 -36 170 -71 176 -77 6 -7 35 -72 65 -145 l53 -133 -99 -99 -100 -100 -150 0 -151 0 -51 123 c-29 67 -55 130 -59 139 l-6 17 58 138 c31 76 63 153 71 171 7 17 17 32 21 32 4 0 82 -30 172 -66z m-6065 -366 c55 -1 115 -1 133 -1 17 1 32 -1 32 -4 0 -3 -33 -39 -72 -80 -40 -41 -79 -84 -86 -96 l-13 -22 50 -140 c27 -77 49 -140 48 -142 -2 -1 -58 20 -125 47 -67 28 -128 50 -135 50 l-12 0 -85 -85 c-47 -47 -88 -85 -92 -85 l-8 0 -1 98 c-1 53 -4 128 -8 167 l-6 70 -90 37 -90 37 25 9 c14 5 64 28 111 50 l87 40 6 38 c3 22 10 100 16 174 6 74 13 155 16 180 l6 45 97 -192 96 -193 100 -2z m8765 172 c6 -85 14 -170 17 -189 l6 -33 86 -40 c47 -22 97 -44 111 -50 l25 -10 -90 -37 -90 -38 -6 -69 c-4 -38 -7 -116 -8 -174 l-1 -105 -93 93 -92 92 -15 0 c-8 -1 -69 -23 -135 -50 -66 -26 -121 -47 -122 -46 -1 1 20 64 48 140 27 75 49 142 49 147 0 5 -38 49 -85 98 -47 48 -85 90 -85 92 0 3 46 3 101 1 l101 -4 32 6 31 6 94 188 94 187 8 -25 c4 -14 12 -95 19 -180z m-4905 -128 c6 -5 59 -28 120 -51 60 -24 111 -44 112 -45 2 -1 -51 -24 -116 -50 l-118 -48 -17 -171 c-10 -95 -20 -187 -23 -205 l-6 -33 -96 183 -97 183 -127 3 c-70 1 -127 4 -127 6 0 2 38 42 85 89 l85 87 -17 42 c-9 24 -36 88 -59 143 -23 55 -41 101 -40 103 2 1 57 -17 124 -40 l121 -42 88 81 88 81 5 -154 5 -153 10 -9z m1038 192 c62 22 118 41 124 44 l13 4 -60 -145 -60 -145 85 -89 85 -88 -124 -3 -125 -3 -29 -52 c-16 -29 -60 -112 -98 -185 l-69 -133 -7 28 c-4 16 -15 107 -24 204 l-17 176 -109 45 c-60 24 -110 48 -111 52 l-2 8 110 43 110 42 6 29 c4 16 7 89 8 162 l1 134 91 -83 91 -83 111 38z m2069 -244 l192 0 -44 -47 c-25 -27 -60 -64 -77 -83 l-33 -36 51 -158 c28 -87 49 -160 47 -162 -3 -2 -66 21 -141 51 -75 30 -141 55 -145 55 -5 0 -49 -38 -98 -84 l-89 -84 -6 4 c-4 2 -7 18 -7 36 0 18 0 99 -1 181 l-1 147 -162 0 -163 0 89 89 89 89 -51 126 c-28 69 -49 126 -48 126 1 0 58 -23 126 -50 l124 -50 76 75 75 75 3 -150 3 -150 191 0z m-5207 220 l70 -70 125 50 c68 28 126 50 127 50 2 0 -4 -17 -13 -37 -8 -21 -32 -78 -52 -126 l-36 -88 89 -89 90 -90 -163 0 -162 0 0 -178 0 -179 -6 -6 -7 -6 -90 84 c-49 47 -94 85 -98 85 -5 0 -71 -25 -146 -55 -75 -30 -138 -53 -140 -51 -2 2 19 74 46 161 l50 158 -75 84 -76 83 191 0 191 0 0 145 0 145 7 0 c4 0 39 -31 78 -70z m-1178 -389 c46 -95 83 -179 83 -187 0 -13 -94 -235 -121 -285 l-8 -17 -163 67 -163 66 -53 150 -53 150 8 22 8 22 91 93 90 93 99 -1 100 -1 82 -172z m7582 160 c4 -6 48 -53 98 -104 l92 -94 -56 -154 c-30 -85 -58 -157 -62 -162 -4 -4 -78 -36 -164 -71 l-158 -64 -15 29 c-8 16 -38 84 -67 152 l-53 122 86 180 87 180 103 -2 103 -2 6 -10z m-6914 -82 c44 -49 81 -94 83 -99 2 -5 -20 -82 -48 -172 l-52 -163 -12 -11 c-6 -6 -54 -28 -106 -49 -52 -20 -116 -46 -143 -56 l-47 -19 -76 151 -75 152 77 178 78 179 120 0 121 -1 80 -90z m6349 -87 l77 -178 -71 -142 c-38 -79 -70 -147 -70 -152 0 -6 -2 -10 -5 -10 -14 0 -292 114 -301 124 l-11 11 -52 161 c-28 88 -51 165 -51 170 0 5 39 51 86 102 l86 92 117 0 117 0 78 -178z m-4705 -96 c20 -3 81 -6 135 -6 l99 0 -94 -96 -94 -95 3 -17 c2 -9 23 -86 48 -171 24 -85 43 -156 41 -157 -1 -1 -51 40 -110 92 l-109 94 -13 0 c-8 0 -71 -20 -141 -45 -70 -25 -129 -43 -132 -40 -3 2 14 53 37 111 l42 107 -105 106 c-58 59 -106 110 -106 114 l0 8 23 -1 c12 -1 70 -2 128 -1 l107 1 37 88 c21 48 45 103 53 122 l14 35 51 -122 50 -121 36 -6z m2852 124 c23 -58 45 -108 48 -112 l6 -7 128 -2 127 -1 0 -6 c0 -4 -48 -54 -106 -113 l-105 -106 42 -107 42 -106 -5 -5 -5 -6 -128 46 c-70 25 -133 45 -140 45 l-13 0 -88 -77 c-49 -42 -100 -86 -113 -97 l-24 -21 7 25 c3 14 26 93 51 175 l44 150 -97 98 -97 97 105 2 c58 1 118 2 135 3 l29 1 51 121 50 122 6 -7 c4 -4 26 -54 50 -112z m-1380 -1 c68 -28 127 -54 132 -58 l7 -7 26 -245 26 -245 -164 -312 c-89 -171 -165 -312 -168 -312 -3 0 -20 28 -37 63 -18 34 -92 174 -164 311 l-131 250 22 215 c12 119 25 231 29 250 l7 35 124 52 125 52 21 1 21 1 124 -51z m-1990 -245 l122 -123 -49 -123 -49 -123 -136 -46 -136 -47 -103 103 -102 102 2 183 c0 101 3 187 6 191 l4 8 159 -1 159 -1 123 -123z m2924 6 l108 -108 -61 -218 -62 -218 -33 -27 c-17 -15 -142 -122 -277 -237 l-245 -210 -7 26 c-3 15 -21 169 -38 342 l-32 315 112 215 c62 118 118 220 125 225 l12 10 145 -3 144 -3 109 -109z m1223 -75 l2 -190 -102 -102 -103 -102 -135 47 -135 47 -49 123 -49 124 124 124 124 125 160 -3 160 -3 3 -190z m-2843 -37 l117 -222 -31 -315 c-18 -174 -35 -328 -39 -343 l-7 -27 -275 236 -275 236 -7 17 c-4 10 -32 109 -64 220 l-57 201 109 110 109 109 151 0 152 0 117 -222z m-2856 -198 c-6 -4 -29 -13 -51 -21 l-39 -13 -52 19 c-29 10 -53 19 -55 20 -2 2 84 200 95 218 l4 7 55 -111 55 -112 -12 -7z m6954 113 c25 -59 45 -107 44 -108 -1 0 -25 -10 -53 -21 l-51 -21 -49 19 c-27 11 -50 21 -52 23 -4 4 102 215 108 215 4 0 27 -48 53 -107z m1027 -236 l0 -138 -42 -18 c-24 -11 -88 -39 -144 -64 l-100 -44 -160 70 c-87 39 -161 72 -163 73 -3 3 107 331 114 342 1 1 67 29 146 61 l144 60 103 -102 102 -102 0 -138z m-8801 278 l136 -56 54 -152 c29 -84 54 -161 55 -172 l1 -19 -159 -72 -159 -71 -141 61 -141 62 -3 139 -3 138 98 99 98 98 14 0 c8 0 75 -25 150 -55z m1719 -44 l103 -97 -3 -138 -3 -138 -120 -54 c-65 -30 -127 -57 -137 -60 l-17 -5 -163 71 c-90 39 -167 75 -172 80 l-8 8 47 149 47 148 11 12 c12 12 284 122 302 122 6 0 56 -44 113 -98z m5265 43 c78 -30 147 -61 154 -67 l11 -12 47 -148 47 -149 -8 -8 c-5 -5 -83 -41 -173 -80 l-163 -72 -72 30 c-39 17 -101 44 -138 61 l-68 31 0 138 0 137 102 97 c57 53 107 97 111 98 5 0 72 -25 150 -56z m-6608 -150 l115 -46 0 -8 c0 -4 -9 -29 -21 -56 l-20 -49 -51 -23 -52 -22 -6 7 c-10 11 -91 243 -85 243 3 0 57 -21 120 -46z m7773 -71 c-22 -65 -44 -122 -49 -127 l-7 -8 -53 28 -53 29 -19 48 -20 48 6 5 c6 6 219 93 229 94 l8 0 -42 -117z m-6968 100 c0 -5 -16 -56 -36 -115 l-36 -108 -36 16 c-20 9 -43 18 -50 21 l-13 5 -25 50 c-14 28 -24 51 -22 52 6 5 203 85 211 85 4 1 7 -2 7 -6z m6192 -35 c57 -23 104 -43 106 -44 2 -1 -7 -23 -20 -49 l-23 -47 -47 -24 c-26 -13 -50 -24 -52 -24 -4 0 -76 212 -76 225 0 8 6 7 112 -37z m-4445 -155 c82 -69 149 -127 150 -127 5 -3 201 -701 198 -704 -2 -3 -148 45 -325 104 l-321 109 -122 144 c-67 80 -130 155 -140 168 l-19 23 58 148 c32 81 58 148 59 150 2 2 301 109 312 111 2 1 69 -56 150 -126z m3048 14 c1 -1 28 -68 59 -149 l57 -148 -59 -72 c-33 -40 -96 -115 -140 -167 l-80 -94 -322 -110 c-177 -60 -323 -107 -325 -105 -2 2 42 161 98 355 l102 351 148 126 147 125 157 -55 c86 -30 158 -56 158 -57z m-5318 34 l69 -28 72 28 73 27 34 -67 34 -68 71 -32 72 -32 -5 -12 c-2 -7 -14 -43 -27 -80 l-22 -69 22 -61 c13 -34 25 -68 27 -75 l5 -12 -70 -31 -70 -31 -27 -69 c-15 -38 -30 -71 -34 -74 l-8 -4 -76 29 -76 29 -67 -25 c-37 -14 -71 -23 -76 -22 l-10 4 -27 64 -27 65 -71 35 -71 35 26 72 26 71 -26 76 -27 75 54 25 c29 13 62 27 73 30 l20 7 32 74 c18 41 34 75 35 75 1 0 33 -13 72 -29z m5989 -266 l116 -51 -3 -9 -2 -10 -86 -38 c-47 -21 -98 -42 -113 -48 l-28 -11 0 -129 0 -129 -6 0 c-3 0 -53 44 -111 97 l-105 98 -155 -53 c-86 -29 -157 -51 -159 -50 -3 4 25 38 157 190 l49 56 -54 139 c-30 76 -53 139 -53 140 1 0 57 -18 124 -40 l123 -42 92 93 93 92 3 -122 3 -123 115 -50z m1137 266 c39 16 71 29 72 29 1 0 17 -33 34 -73 l32 -72 73 -33 74 -33 -26 -78 -25 -78 25 -69 26 -69 -71 -35 -71 -35 -29 -71 -30 -71 -73 28 -74 29 -76 -30 -77 -29 -7 4 c-4 3 -20 36 -36 74 l-29 70 -69 31 -68 30 5 12 c2 7 14 41 27 75 l22 62 -26 77 -26 78 8 7 c4 4 34 18 67 32 l60 24 38 71 37 70 72 -27 72 -28 69 28z m-5770 -68 l88 -88 122 42 c67 23 122 41 124 40 1 -1 -23 -64 -53 -140 l-54 -138 49 -57 c103 -118 159 -187 157 -190 -2 -1 -73 21 -158 50 l-156 52 -108 -99 -109 -98 -3 130 -3 130 -115 50 -115 50 0 8 -1 8 114 51 113 52 3 117 3 117 7 0 c3 0 46 -39 95 -87z m2023 -311 c68 -128 124 -240 124 -248 0 -12 -109 -222 -125 -242 -2 -2 -38 28 -82 65 -43 37 -94 81 -113 96 l-33 28 27 262 c14 144 29 282 33 306 l6 44 20 -39 c11 -21 75 -144 143 -272z m564 17 c16 -156 30 -291 30 -301 l0 -16 -111 -97 c-61 -53 -112 -95 -114 -93 -15 19 -125 230 -125 241 0 8 48 106 108 218 59 112 123 234 142 271 19 37 36 66 37 64 2 -1 16 -131 33 -287z m-3338 110 c51 -22 109 -48 128 -56 l35 -15 -50 -25 c-27 -14 -85 -41 -127 -59 l-78 -33 -9 17 c-4 9 -14 34 -20 54 l-12 37 18 61 c9 33 18 60 20 60 1 0 44 -18 95 -41z m6031 -21 l18 -63 -17 -47 c-9 -27 -19 -50 -22 -52 -4 -2 -60 20 -125 48 l-118 53 0 8 0 8 118 53 c65 29 120 53 123 53 3 1 13 -27 23 -61z m-6988 -4 l19 -55 -19 -55 c-10 -30 -19 -54 -20 -54 -1 0 -23 10 -51 23 -27 13 -79 36 -116 53 -37 16 -68 31 -68 35 0 4 216 106 230 108 3 1 14 -24 25 -55z m7973 2 c62 -27 112 -52 112 -55 0 -5 -106 -55 -230 -109 l-7 -3 -18 55 -18 54 17 56 18 57 7 -3 c4 -2 57 -25 119 -52z m-4783 -260 l210 -181 -2 -35 c-1 -19 -7 -87 -13 -151 l-12 -117 -140 47 -140 47 -8 14 c-4 8 -45 143 -89 300 -45 157 -84 294 -88 305 l-6 20 39 -35 c21 -18 134 -115 249 -214z m1646 -70 c-49 -169 -93 -311 -97 -316 -5 -4 -71 -28 -146 -53 l-138 -46 0 17 c0 9 -7 78 -15 152 l-14 134 32 27 c18 15 129 110 247 212 118 101 216 184 217 183 1 -1 -37 -141 -86 -310z m-5046 148 c83 -38 151 -69 153 -70 6 -4 -111 -318 -122 -331 -9 -9 -215 -95 -254 -105 l-12 -3 -110 95 -111 95 3 134 3 134 140 64 140 63 10 -4 c6 -3 78 -35 160 -72z m1602 13 l118 -53 3 -140 3 -140 -98 -90 c-54 -50 -103 -93 -109 -97 l-10 -6 -139 53 -139 53 -58 154 c-32 85 -59 160 -61 168 l-2 14 160 73 160 73 27 -4 c15 -3 80 -28 145 -58z m5344 3 c74 -34 148 -67 166 -75 l32 -14 -29 -78 c-15 -43 -44 -118 -62 -167 l-34 -89 -139 -52 -139 -53 -26 20 c-14 11 -62 53 -108 95 l-83 75 3 141 3 141 125 57 c69 32 132 58 141 58 l17 1 133 -60z m1634 -13 l120 -54 3 -135 3 -135 -48 -39 c-26 -21 -76 -64 -111 -95 l-63 -56 -127 49 -127 49 -11 14 c-13 17 -128 325 -123 329 2 2 75 35 163 74 l159 70 21 -8 c11 -5 75 -33 141 -63z m-8282 -137 l46 -21 21 -46 c11 -25 20 -51 20 -57 l0 -11 -111 -44 c-60 -24 -112 -41 -115 -39 -6 6 79 238 87 238 4 0 27 -9 52 -20z m769 -100 l45 -120 -8 0 c-10 0 -221 78 -226 84 -2 2 7 29 21 60 l25 57 43 19 c24 11 46 20 49 20 3 0 26 -54 51 -120z m6213 100 l46 -20 25 -56 c14 -31 24 -58 22 -59 -2 -1 -52 -22 -111 -45 l-108 -42 -6 5 -5 6 42 116 c24 63 44 115 46 115 1 0 23 -9 49 -20z m772 -97 c24 -64 41 -118 39 -120 -2 -2 -54 15 -115 39 l-111 43 0 11 c0 7 9 31 19 55 l20 43 43 22 c24 13 48 23 53 23 l10 1 42 -117z m-1621 -257 c-3 -66 -6 -138 -6 -161 l0 -42 -203 -106 -203 -107 -354 27 c-195 14 -357 27 -359 29 -2 2 52 69 120 150 68 81 174 206 234 278 l111 131 209 71 209 71 124 -111 125 -111 -7 -119z m-4155 269 l196 -66 30 -32 c54 -58 445 -528 441 -532 -1 -1 -162 -14 -357 -28 l-354 -26 -176 91 c-96 50 -187 98 -201 106 l-27 16 -7 104 c-3 58 -6 131 -6 162 l0 58 118 105 117 106 15 1 c8 0 103 -29 211 -65z m-1594 -77 c32 -12 60 -23 62 -24 5 -5 -103 -264 -110 -264 -4 0 -25 44 -47 98 -22 53 -48 113 -56 133 l-15 37 52 20 c29 11 53 21 54 21 0 1 27 -9 60 -21z m3522 -118 c41 -77 78 -140 82 -140 4 0 63 47 130 105 67 58 125 105 129 105 l6 0 18 -167 c9 -92 19 -169 21 -171 2 -3 76 20 165 50 88 30 162 53 164 51 2 -2 -16 -70 -39 -151 -24 -81 -45 -154 -46 -162 l-4 -15 135 -9 c74 -5 137 -10 139 -12 1 -1 -42 -57 -98 -123 -56 -66 -101 -121 -101 -123 0 -2 67 -32 150 -68 82 -36 150 -67 149 -70 0 -3 -67 -34 -149 -70 -82 -36 -150 -66 -150 -68 0 -2 45 -57 100 -122 55 -64 100 -120 100 -124 l0 -6 -43 0 c-24 0 -85 -3 -135 -6 l-92 -7 0 -16 c0 -9 20 -82 44 -163 l43 -148 -11 0 c-6 0 -80 23 -164 51 -84 28 -155 49 -157 47 -2 -2 -12 -79 -22 -171 -9 -92 -20 -167 -23 -167 -3 0 -61 47 -129 105 -68 58 -126 105 -130 105 -4 0 -41 -63 -82 -140 -41 -77 -76 -139 -79 -139 -3 0 -38 62 -79 139 l-75 140 -8 0 c-5 0 -64 -47 -131 -105 -67 -58 -124 -105 -128 -105 l-5 0 -17 166 c-9 92 -19 169 -21 172 -3 2 -78 -20 -168 -51 -90 -30 -164 -54 -165 -53 -1 0 18 69 43 151 24 83 44 157 44 167 l0 16 -130 7 -130 8 -4 6 c-2 3 40 58 94 121 55 63 99 117 99 120 1 3 -66 35 -149 70 -82 36 -150 67 -150 70 0 3 68 34 150 70 83 35 150 66 150 68 0 3 -45 58 -100 123 l-100 118 7 4 c5 3 65 8 136 12 l127 7 0 13 c0 12 -75 279 -87 311 l-5 13 167 -56 c91 -30 168 -53 170 -51 3 2 12 79 22 171 l17 167 6 0 c4 0 61 -47 128 -105 66 -58 125 -105 129 -105 l9 0 75 140 c41 77 76 139 79 139 3 0 38 -62 79 -139z m3493 111 l36 -16 -55 -132 c-31 -73 -58 -133 -62 -133 -7 0 -115 259 -110 264 2 1 29 12 59 23 l55 22 20 -6 c11 -3 36 -13 57 -22z m-4543 -214 l64 -22 39 -138 c22 -76 38 -141 35 -143 -2 -2 -53 -8 -113 -13 l-109 -9 -20 22 c-33 34 -379 447 -387 460 l-7 12 217 -74 c119 -40 246 -83 281 -95z m-2689 81 c19 -46 53 -127 76 -181 l42 -97 -56 -135 -57 -135 -125 0 -125 0 -107 107 c-60 59 -108 112 -108 117 0 5 23 71 51 146 l51 137 157 61 c86 33 159 61 162 61 3 1 21 -36 39 -81z m569 4 l124 -47 48 -127 c26 -71 49 -134 51 -141 l3 -14 -104 -111 -105 -112 -127 0 -126 0 -57 135 -57 134 77 180 76 180 37 -14 c20 -8 92 -36 160 -63z m4499 5 c-35 -41 -128 -151 -207 -245 l-145 -172 -45 5 c-25 2 -76 7 -113 11 l-68 6 1 11 c0 7 17 71 38 142 l37 130 270 92 c148 50 275 92 282 92 l13 1 -63 -73z m1962 -121 l71 -169 -57 -133 -57 -134 -126 0 -127 0 -104 111 -105 112 2 11 c2 6 25 69 51 141 l49 130 159 61 159 61 7 -12 c4 -6 39 -87 78 -179z m447 148 c65 -25 137 -52 159 -60 l41 -15 52 -137 c28 -76 51 -142 51 -148 0 -5 -49 -58 -108 -117 l-108 -108 -124 3 -124 3 -57 130 -56 130 13 35 c23 56 139 330 141 330 0 0 54 -21 120 -46z m-8271 -152 c39 -34 75 -62 81 -62 5 0 60 20 121 44 62 24 112 41 112 38 0 -3 -21 -62 -47 -130 l-46 -123 99 -100 99 -99 -173 -1 c-94 -1 -178 -2 -184 -3 l-13 -1 -3 -81 -3 -81 -44 -49 -44 -49 -51 50 -52 50 7 103 6 102 -88 0 -89 0 -47 48 -47 48 45 44 45 44 87 0 88 1 6 155 c3 85 7 157 7 159 1 3 14 -7 30 -20 15 -14 59 -53 98 -87z m9043 -53 l6 -152 87 -1 87 -1 46 -45 45 -44 -47 -48 -47 -48 -89 0 -88 0 6 -102 7 -103 -52 -50 -51 -50 -44 50 -44 50 -1 76 0 77 -22 6 -23 6 -165 0 -165 0 99 99 99 99 -47 126 c-25 69 -46 128 -46 130 0 2 50 -16 112 -40 61 -24 116 -44 122 -44 6 0 54 38 106 84 52 46 97 82 99 80 2 -2 6 -72 10 -155z m-6979 -142 c3 -3 75 -41 160 -86 85 -44 153 -81 150 -82 -3 0 -102 -8 -220 -17 l-215 -17 -40 -117 c-22 -65 -42 -118 -46 -118 -3 0 -21 44 -40 98 l-34 97 -132 5 -133 5 85 85 85 85 6 20 5 21 -45 119 c-25 66 -44 121 -42 122 1 1 58 -19 127 -46 l124 -49 59 52 c32 28 75 65 95 83 l36 32 5 -144 c3 -79 7 -146 10 -148z m4905 196 l80 -70 110 42 c61 24 119 46 129 51 l19 7 -7 -19 c-35 -86 -86 -227 -86 -237 l0 -12 89 -95 89 -95 -131 -5 -132 -5 -34 -97 c-19 -54 -38 -98 -41 -98 -4 0 -24 53 -46 118 l-39 117 -207 15 c-113 8 -209 18 -212 21 l-6 6 155 82 155 82 0 146 0 146 18 -14 c9 -8 53 -47 97 -86z m-5952 -413 l44 -105 113 -3 114 -3 -119 -119 -120 -120 120 -120 119 -119 -114 -3 -113 -3 -44 -105 c-24 -57 -47 -108 -51 -112 l-8 -8 -49 115 -48 114 -108 3 -107 3 113 118 113 117 -113 118 -113 117 107 3 107 3 49 114 49 115 8 -8 c4 -4 27 -55 51 -112z m6982 5 l47 -114 108 -3 108 -3 -113 -118 -114 -118 114 -117 114 -117 -108 -3 -109 -3 -48 -115 -47 -115 -8 8 c-4 4 -28 55 -52 113 l-45 105 -111 5 -110 5 116 118 115 117 -116 118 -116 117 111 5 111 5 44 103 c24 57 44 107 44 112 0 6 4 10 9 10 l8 0 48 -115z m-1835 -26 l25 -4 -263 -138 -263 -139 -137 61 -137 60 2 8 c2 4 38 51 82 103 l80 96 293 -22 c161 -12 304 -24 318 -25z m-2740 -36 c36 -42 73 -87 82 -99 l17 -21 -139 -63 -139 -62 -263 139 -262 138 16 3 c32 6 486 40 553 41 l71 1 64 -77z m-588 -135 c158 -84 288 -155 288 -158 0 -4 -132 -76 -294 -161 l-294 -154 -264 19 -265 20 -45 138 -46 138 46 139 46 138 190 13 c105 6 196 13 201 15 6 2 41 4 79 4 l70 1 288 -152z m3829 135 l236 -17 45 -138 46 -138 -46 -138 -45 -138 -236 -17 c-130 -10 -251 -17 -270 -17 l-34 0 -136 72 c-75 40 -185 98 -246 130 -60 32 -129 68 -152 80 -24 12 -43 25 -43 28 0 3 129 74 288 158 l287 151 35 1 c19 0 141 -7 271 -17z m-4997 -61 l49 -7 38 -112 38 -113 -38 -112 -38 -113 -148 -9 -149 -8 -113 115 c-62 64 -113 121 -113 127 0 5 50 62 111 125 l112 115 101 -1 c56 0 123 -4 150 -7z m5934 -106 c62 -64 112 -120 112 -125 0 -5 -51 -62 -112 -126 l-113 -117 -145 7 -145 6 -6 7 c-4 4 -22 55 -42 115 l-36 107 36 108 35 107 14 11 14 11 138 2 138 2 112 -115z m1164 91 l8 -12 0 -43 0 -43 57 -60 57 -60 -56 -57 -56 -57 -7 -57 -7 -58 -162 -1 c-88 0 -170 -2 -181 -4 l-20 -4 -112 117 c-62 64 -113 119 -113 122 0 3 51 57 113 120 l112 115 180 -3 179 -3 8 -12z m-8141 -98 c57 -61 104 -114 104 -119 0 -5 -47 -58 -104 -119 l-105 -111 -188 0 -188 0 0 24 c0 13 -3 37 -6 54 l-6 31 -21 23 c-11 13 -36 40 -55 60 l-35 37 57 63 56 63 2 40 c0 22 1 46 1 53 l-1 12 193 0 192 0 104 -111z m2759 -228 c74 -33 134 -63 133 -66 -1 -4 -36 -49 -79 -101 l-77 -94 -43 0 c-47 0 -573 39 -588 43 l-9 3 259 137 c142 75 261 136 264 137 3 0 66 -27 140 -59z m2542 -77 c142 -75 257 -138 255 -140 -4 -4 -534 -44 -589 -44 l-44 0 -77 93 c-43 50 -77 96 -78 101 l0 8 128 58 c70 32 132 58 137 59 5 1 126 -60 268 -135z m-5925 71 l38 -45 5 -82 5 -82 25 -1 c14 -1 97 -2 185 -3 l160 -2 -99 -99 -99 -100 46 -123 c26 -68 47 -127 47 -130 0 -4 -49 14 -110 38 -60 24 -115 44 -121 44 -6 0 -56 -38 -110 -86 l-99 -85 -1 18 c-1 10 -4 81 -8 157 l-6 139 -85 -1 -85 -1 -48 47 -47 46 47 48 47 48 89 0 89 0 -8 101 -7 101 49 49 c26 27 51 49 55 49 4 0 25 -20 46 -45z m9006 -3 l47 -48 -6 -102 -7 -102 89 0 90 0 47 -48 47 -48 -44 -43 -45 -44 -85 1 -86 0 -4 -6 c-2 -4 -5 -72 -7 -152 -2 -80 -5 -148 -7 -153 l-3 -7 -97 85 -97 85 -13 0 c-7 0 -62 -20 -122 -44 -61 -24 -110 -42 -110 -38 0 3 21 62 47 130 l46 123 -99 100 -99 99 105 0 c58 0 142 3 188 7 l82 6 0 76 0 76 42 48 c23 26 44 47 48 47 3 0 27 -22 53 -48z m-7109 -129 l37 -112 17 -5 c9 -2 98 -10 197 -16 99 -6 191 -13 204 -16 l24 -5 -79 -41 c-43 -23 -115 -60 -159 -84 l-80 -43 -5 -145 -5 -145 -95 83 -95 84 -45 -18 c-143 -56 -204 -79 -206 -77 -2 1 17 56 42 121 24 65 44 124 44 131 l0 13 -91 96 -91 96 134 0 134 0 34 104 35 104 6 -6 c4 -4 23 -57 43 -119z m5196 22 l34 -105 135 0 134 0 -92 -95 -91 -94 0 -15 c0 -8 20 -67 45 -132 24 -65 43 -119 41 -121 -1 -2 -30 8 -64 22 -35 14 -91 36 -126 49 l-63 24 -94 -85 -94 -84 -5 146 -5 146 -70 38 c-38 20 -107 57 -153 81 l-82 44 12 7 13 6 193 13 193 13 13 12 12 12 34 111 c19 62 37 112 40 112 3 0 21 -48 40 -105z m-6239 -239 l56 -134 -24 -59 c-78 -187 -126 -298 -128 -301 -1 -2 -75 25 -163 60 l-160 62 -51 137 c-28 75 -51 140 -51 145 0 5 48 57 107 116 l108 108 125 0 125 0 56 -134z m630 22 l104 -111 -3 -14 c-2 -7 -25 -70 -51 -140 l-48 -128 -124 -47 c-68 -27 -140 -54 -160 -62 l-36 -15 -77 179 -77 179 57 136 57 135 127 0 127 0 104 -112z m6353 -23 l57 -134 -76 -179 -76 -180 -142 55 c-78 30 -151 58 -162 63 l-20 8 -22 58 c-11 33 -35 96 -51 140 l-31 82 106 111 105 111 127 0 128 0 57 -135z m628 28 c60 -59 108 -112 108 -117 0 -5 -23 -70 -51 -145 l-51 -137 -160 -63 c-88 -34 -161 -61 -162 -59 -2 2 -37 83 -78 181 l-76 178 50 116 c27 63 53 124 59 134 l10 19 122 0 122 0 107 -107z m-5497 -4 c165 -12 302 -23 304 -25 2 -1 -102 -128 -231 -281 l-234 -278 -194 -67 c-107 -37 -204 -67 -215 -67 l-20 0 -45 42 c-25 23 -79 71 -119 107 l-74 65 7 160 c4 88 8 161 10 162 1 2 92 50 202 108 l199 106 55 -5 c30 -3 190 -15 355 -27z m3580 -75 l202 -106 7 -105 c3 -59 6 -132 6 -163 l0 -56 -123 -111 -123 -110 -208 70 -208 71 -231 274 c-128 150 -233 277 -235 281 l-3 8 328 25 c180 14 341 26 357 27 l29 1 202 -106z m-2992 30 l68 -6 -6 -27 c-3 -16 -20 -79 -38 -141 l-32 -112 -35 -14 c-19 -7 -146 -51 -282 -97 l-246 -83 6 11 c3 5 96 117 206 248 l199 237 46 -5 c25 -2 77 -7 114 -11z m2029 -74 c40 -47 107 -126 148 -175 41 -50 101 -120 133 -157 l59 -68 -13 1 c-8 0 -135 42 -284 92 l-269 92 -39 138 -40 137 6 6 c5 5 167 20 209 19 l17 0 73 -85z m-4562 -303 c29 -70 51 -128 49 -130 -2 -2 -30 -13 -61 -25 l-58 -21 -54 20 -55 21 17 42 c9 23 35 85 57 138 l40 97 6 -7 c3 -4 30 -64 59 -135z m6968 36 c22 -54 47 -114 56 -134 l15 -37 -55 -21 -55 -21 -52 21 c-28 11 -55 24 -60 28 l-7 7 52 127 c29 70 56 127 59 127 3 0 24 -44 47 -97z m-4064 -83 l15 -145 -27 -22 c-15 -11 -126 -107 -247 -211 -121 -104 -221 -189 -222 -188 -1 1 37 141 86 311 l89 310 14 8 c7 4 72 27 143 51 l130 43 2 -6 c1 -3 9 -71 17 -151z m1350 59 l10 -9 87 -307 c49 -169 87 -308 86 -309 -1 -1 -113 93 -249 210 l-247 211 4 40 c3 22 10 90 16 151 l11 112 137 -45 c75 -25 140 -49 145 -54z m-4945 -47 l33 -17 35 -95 c19 -52 46 -125 60 -163 15 -37 24 -68 22 -70 -2 -2 -76 -35 -163 -74 l-159 -71 -76 33 c-42 18 -106 47 -143 64 l-68 30 0 134 0 133 111 96 110 96 102 -40 c56 -21 117 -47 136 -56z m1616 2 l105 -97 0 -139 0 -139 -82 -38 c-46 -20 -108 -48 -139 -60 l-56 -23 -164 72 c-90 40 -167 75 -170 79 l-7 6 62 164 62 164 135 52 c74 29 137 53 141 54 4 0 55 -42 113 -95z m5259 42 l140 -53 62 -164 62 -164 -7 -6 c-9 -9 -327 -149 -338 -149 -6 0 -68 26 -139 58 l-129 58 -3 141 -3 142 106 95 c59 53 107 96 108 96 1 0 65 -24 141 -54z m1719 -48 l108 -92 -3 -135 -3 -135 -140 -62 -140 -62 -30 13 c-40 16 -289 128 -293 131 -2 1 15 53 38 116 23 62 49 133 57 158 9 25 21 50 27 57 13 14 233 102 256 102 l16 1 107 -92z m-5417 -5 c-3 -10 -49 -169 -101 -353 -53 -183 -97 -335 -98 -335 -1 -1 -68 -59 -149 -128 l-147 -126 -157 55 c-87 30 -159 56 -159 57 -1 1 -27 68 -59 150 l-58 147 35 43 c19 23 82 98 139 166 l104 124 315 108 c173 59 320 108 327 108 l13 1 -5 -17z m2218 -91 l318 -109 139 -164 139 -164 -7 -20 c-3 -11 -29 -79 -57 -152 l-51 -132 -158 -55 -158 -56 -147 127 c-81 69 -148 126 -149 127 -1 1 -45 152 -98 336 -52 184 -98 343 -101 353 l-5 17 8 0 c4 0 151 -49 327 -108z m-1395 -20 l62 -113 -3 -18 c-3 -20 -281 -552 -285 -547 -3 3 -63 561 -63 588 l0 17 111 96 c61 53 112 95 114 93 1 -2 30 -54 64 -116z m429 18 l100 -85 1 -21 c1 -25 -58 -586 -62 -590 -4 -4 -282 528 -285 547 l-3 17 62 116 63 115 12 -7 c6 -4 57 -45 112 -92z m-4145 -6 l97 -37 0 -12 c0 -7 -9 -32 -20 -57 l-19 -44 -51 -24 c-27 -13 -51 -22 -53 -19 -2 3 -65 171 -85 228 l-5 14 19 -6 c10 -3 63 -22 117 -43z m780 -71 c-25 -65 -46 -119 -47 -121 -2 -1 -24 7 -50 19 l-48 21 -24 55 c-14 31 -23 57 -21 59 6 6 211 83 223 84 l11 0 -44 -117z m6197 76 c58 -22 106 -42 108 -44 2 -1 -8 -28 -22 -59 l-25 -56 -47 -20 c-26 -11 -48 -19 -50 -18 -5 5 -84 221 -84 229 0 14 8 12 120 -32z m830 36 c0 -6 -82 -229 -87 -234 -2 -3 -26 6 -53 19 l-51 24 -19 44 c-11 25 -20 50 -20 57 l0 13 18 5 c9 3 58 21 107 41 91 36 105 40 105 31z m-7523 -154 l53 -21 76 30 77 29 7 -4 c4 -3 20 -36 36 -75 l29 -70 63 -27 c35 -14 65 -30 68 -34 l4 -7 -26 -71 -26 -70 26 -77 c14 -43 24 -80 21 -83 -3 -2 -33 -17 -68 -32 l-62 -27 -37 -68 -37 -69 -13 2 c-7 2 -39 14 -71 27 l-58 23 -71 -28 c-38 -16 -71 -29 -73 -29 -1 0 -17 33 -34 73 l-32 74 -74 32 -74 33 27 75 26 75 -26 71 -26 72 72 35 71 36 29 71 29 71 21 -8 c12 -4 45 -17 73 -29z m1360 -58 l106 -97 155 52 c85 29 156 51 158 49 1 -1 -44 -57 -102 -124 l-104 -122 51 -128 c28 -70 53 -134 56 -140 l5 -13 -126 43 -125 43 -88 -88 c-48 -48 -91 -88 -95 -88 l-8 0 0 118 -1 117 -112 49 c-62 27 -116 52 -120 56 l-8 7 120 54 121 54 0 128 0 127 5 0 c3 0 53 -44 112 -97z m4618 -208 l115 -50 -2 -10 -3 -10 -110 -51 -110 -50 -3 -117 -3 -117 -7 0 c-4 0 -45 38 -92 85 l-85 85 -15 0 c-8 0 -64 -18 -125 -40 -60 -21 -110 -38 -111 -37 -1 1 22 64 52 140 l54 138 -105 122 c-57 66 -103 123 -100 125 2 2 73 -20 158 -49 l154 -54 109 100 109 100 3 -131 3 -130 114 -49z m998 275 l77 -30 73 29 72 29 7 -16 c5 -10 19 -43 33 -74 l25 -58 69 -31 69 -31 -25 -73 -26 -74 25 -75 26 -75 -73 -32 -74 -32 -32 -74 c-17 -40 -32 -73 -33 -73 0 0 -33 13 -73 29 l-71 29 -59 -23 c-32 -13 -64 -25 -71 -27 l-13 -3 -37 69 -37 68 -62 27 c-35 15 -65 30 -68 32 -3 3 7 40 21 83 l26 77 -22 62 c-13 34 -25 68 -27 75 l-5 12 71 32 c39 17 71 34 71 39 0 9 58 139 62 139 2 0 38 -13 81 -30z m-3882 -431 l31 -316 -117 -221 -118 -222 -151 0 -151 0 -109 109 -109 110 64 220 64 219 275 236 275 236 7 -27 c4 -16 21 -170 39 -344z m1272 106 l246 -210 62 -218 62 -218 -109 -110 -109 -109 -153 2 -153 3 -116 220 -116 220 32 310 c18 171 35 325 38 342 l5 33 33 -28 c18 -15 143 -121 278 -237z m-716 7 c51 -97 125 -237 164 -311 l71 -134 -26 -245 -26 -246 -7 -7 c-13 -12 -256 -109 -273 -109 -17 0 -260 97 -273 109 l-7 7 -26 245 -25 244 68 130 c37 72 111 212 163 313 52 100 97 182 100 182 3 0 47 -80 97 -178z m-4012 43 l19 -55 -18 -52 c-11 -29 -20 -54 -21 -56 -1 -1 -40 15 -86 36 -46 21 -99 44 -116 51 -18 8 -33 16 -33 20 0 5 214 108 231 110 3 1 14 -24 24 -54z m888 48 c4 -3 53 -27 110 -52 l103 -46 0 -10 0 -10 -118 -52 c-65 -29 -120 -53 -122 -53 -2 0 -11 27 -20 60 l-17 61 12 37 c21 67 35 83 52 65z m6101 -54 l17 -46 -16 -59 c-10 -32 -19 -60 -20 -62 -1 -2 -56 21 -122 50 l-119 53 -3 9 -3 10 119 52 118 53 6 -7 c4 -4 14 -28 23 -53z m985 6 c61 -27 111 -52 111 -55 0 -4 -74 -39 -230 -108 -3 -1 -14 23 -25 53 l-18 55 18 55 19 55 7 -2 c3 -2 56 -25 118 -53z m-8188 -181 c79 -36 148 -69 152 -73 l8 -8 -57 -164 c-31 -90 -58 -165 -59 -166 -5 -8 -272 -113 -285 -113 l-15 0 -98 98 -98 98 3 139 3 139 128 57 c71 31 131 60 134 63 l7 6 16 -5 c9 -3 82 -35 161 -71z m8584 3 l120 -54 3 -138 3 -139 -102 -102 -101 -101 -147 58 -146 59 -58 167 -57 167 9 9 c5 5 77 39 162 77 l152 68 21 -8 c12 -5 75 -33 141 -63z m-6990 4 l130 -58 3 -136 3 -137 -101 -97 c-56 -54 -105 -99 -110 -101 -12 -4 -291 107 -307 122 l-11 11 -47 148 -47 149 8 8 c12 11 326 150 339 150 6 0 69 -27 140 -59z m5378 -12 c89 -39 166 -74 171 -79 l8 -8 -47 -149 -47 -148 -11 -12 c-12 -11 -289 -123 -304 -123 -4 1 -54 45 -111 99 l-103 98 3 138 3 138 130 58 c72 32 134 59 138 59 5 0 81 -32 170 -71z m-6661 -134 l46 -19 21 -51 c12 -28 21 -53 21 -57 0 -5 -222 -98 -235 -98 -4 0 43 141 74 223 l11 29 8 -4 c4 -2 28 -12 54 -23z m7744 -103 c24 -67 41 -122 39 -122 -13 0 -235 93 -235 98 0 4 9 29 21 57 l21 50 46 22 c26 11 51 20 56 19 l9 -2 43 -122z m-6999 4 c19 -59 33 -110 30 -112 -3 -4 -206 73 -215 81 -2 1 7 24 20 50 l23 47 45 24 c25 12 49 22 53 21 l9 -3 35 -108z m6239 92 l46 -23 25 -48 c13 -27 23 -50 21 -51 -12 -9 -212 -85 -215 -82 -5 4 66 226 72 226 3 0 25 -10 51 -22z m-5116 -59 l126 -42 48 -125 49 -124 -122 -122 -121 -121 -161 2 c-89 1 -163 3 -165 5 -2 2 -4 86 -4 187 l-2 184 104 104 103 103 10 -4 c5 -3 66 -23 135 -47z m4147 -51 l103 -103 0 -186 0 -186 -77 -7 c-42 -3 -115 -6 -162 -6 l-86 0 -124 124 -124 124 49 123 49 124 130 47 c72 25 132 47 135 47 2 1 51 -45 107 -101z m-3431 -99 c-24 -85 -46 -162 -48 -171 l-3 -17 94 -95 94 -96 -9 0 c-5 -1 -65 -2 -134 -3 l-124 -2 -50 -122 -50 -123 -6 8 c-4 4 -28 58 -55 120 l-48 112 -128 0 -129 0 0 7 c0 4 47 55 106 114 l105 105 -41 108 c-23 59 -40 109 -38 112 3 2 63 -16 133 -41 71 -25 134 -45 140 -45 l12 0 109 94 c60 52 110 93 112 92 1 -2 -18 -72 -42 -157z m2587 24 l69 -57 136 47 c74 26 137 45 140 43 2 -3 -15 -53 -38 -112 l-41 -108 105 -105 c59 -59 106 -109 106 -113 l0 -6 -127 -1 -128 -2 -6 -7 c-3 -4 -25 -54 -48 -112 -24 -58 -46 -108 -50 -112 l-7 -8 -50 123 -50 122 -124 2 c-69 1 -129 2 -135 2 l-10 1 97 98 96 97 -43 150 c-24 83 -47 161 -50 174 l-6 24 48 -41 c26 -23 79 -68 116 -99z m-4745 12 c5 -4 -102 -215 -108 -215 -4 0 -27 48 -53 106 l-46 105 52 24 52 23 50 -20 c28 -11 51 -21 53 -23z m6989 0 c5 -3 -90 -215 -96 -215 -7 0 -114 211 -109 215 2 2 25 12 53 23 l49 19 50 -20 c28 -11 52 -21 53 -22z m-7216 -189 c32 -75 59 -142 59 -150 0 -7 -38 -93 -85 -190 l-86 -177 -96 3 -96 3 -86 88 c-47 49 -92 99 -100 112 l-14 23 53 152 53 152 31 14 c17 8 90 39 161 68 l130 53 8 -7 c4 -4 35 -69 68 -144z m505 79 c51 -20 99 -42 107 -48 l15 -12 52 -163 c28 -90 50 -167 48 -173 -2 -5 -39 -49 -83 -98 l-80 -90 -121 0 -120 -1 -78 179 -77 178 75 152 76 151 47 -19 c27 -10 89 -35 139 -56z m6492 -78 l73 -152 -78 -178 -77 -177 -117 0 -117 0 -86 92 c-47 51 -86 96 -86 101 0 18 102 332 111 342 8 8 287 124 299 124 3 0 38 -68 78 -152z m632 16 c4 -4 33 -77 63 -162 l55 -154 -85 -88 c-47 -48 -91 -96 -98 -106 l-13 -17 -101 -4 -101 -4 -85 177 c-47 98 -85 184 -85 192 0 14 82 208 116 274 l13 27 157 -63 c86 -35 160 -67 164 -72z m598 -304 c4 -4 45 -23 92 -42 l85 -35 -25 -10 c-14 -6 -64 -28 -112 -50 l-86 -40 -6 -29 c-3 -15 -10 -102 -17 -193 -7 -91 -15 -174 -19 -185 l-7 -20 -94 187 -93 187 -26 5 c-14 2 -73 3 -132 2 -60 -1 -108 0 -108 2 0 3 38 45 85 93 47 49 85 92 85 97 0 5 -22 71 -49 148 -28 76 -49 139 -48 140 1 1 56 -20 122 -46 66 -27 127 -49 135 -50 l15 0 90 90 90 91 8 -168 7 -167 8 -7z m-9098 246 l85 -85 15 0 c8 1 69 23 135 50 65 27 120 48 122 47 1 -2 -20 -65 -48 -141 -27 -75 -49 -142 -49 -147 0 -5 38 -49 85 -98 47 -48 85 -90 85 -92 0 -2 -57 -4 -126 -4 -69 0 -129 -2 -134 -5 -4 -3 -50 -90 -103 -195 l-95 -190 -6 45 c-3 25 -10 108 -16 185 -6 77 -13 155 -16 173 l-5 34 -87 40 c-48 22 -98 45 -112 50 l-25 9 90 38 90 37 6 70 c4 38 7 113 8 167 l1 97 8 0 c4 0 45 -38 92 -85z m2100 -100 l0 -185 162 0 163 0 -90 -90 -89 -89 36 -88 c20 -48 44 -105 52 -125 9 -21 15 -38 13 -38 -2 0 -59 23 -127 50 l-124 50 -71 -70 c-39 -38 -74 -70 -78 -70 l-7 0 0 145 0 145 -192 0 -192 0 44 48 c25 26 60 63 77 82 l32 35 -50 159 c-27 87 -48 160 -46 162 2 2 65 -21 140 -51 75 -30 140 -55 145 -55 4 0 48 38 97 85 50 46 93 84 98 85 l7 0 0 -185z m2005 -46 l18 -176 118 -49 c65 -26 118 -49 116 -50 -1 -1 -54 -22 -117 -47 l-115 -44 -6 -29 c-4 -16 -7 -89 -8 -162 l-1 -134 -87 81 c-49 44 -93 81 -99 81 -6 0 -61 -18 -123 -40 -61 -22 -114 -40 -116 -40 -2 0 8 28 22 63 14 34 40 99 58 144 l33 83 -85 89 -84 90 127 3 128 3 95 181 96 182 6 -27 c4 -14 15 -105 24 -202z m1119 -139 l127 -5 -85 -88 -85 -88 8 -22 c5 -12 32 -78 60 -146 l51 -123 -13 4 c-6 3 -62 22 -123 44 l-112 39 -91 -84 -91 -83 -1 134 c-1 73 -4 146 -8 163 l-6 29 -108 41 -109 41 2 9 1 10 108 43 108 44 17 171 c9 95 20 187 23 205 l6 34 97 -184 97 -183 127 -5z m1761 285 c50 -46 93 -85 98 -85 4 0 69 25 144 55 75 30 138 53 141 51 2 -2 -19 -75 -47 -162 l-50 -158 75 -83 76 -83 -191 0 -191 0 0 -145 0 -145 -7 0 c-4 0 -39 32 -78 70 l-71 70 -124 -50 c-68 -27 -125 -50 -126 -50 -1 0 20 57 48 126 l51 126 -89 89 -89 89 163 0 162 0 1 163 c1 89 1 172 1 185 l-1 22 7 0 c4 0 48 -38 97 -85z m-5922 -396 l73 -164 97 0 97 0 0 -7 c0 -4 -36 -47 -80 -95 l-80 -87 0 -13 c0 -7 18 -61 40 -119 22 -59 40 -110 40 -115 l0 -8 -42 18 c-24 9 -87 33 -140 51 l-97 34 -28 -25 c-100 -91 -206 -180 -210 -176 -2 3 19 77 46 164 28 87 51 165 51 172 l0 13 -87 92 -87 91 83 3 82 3 81 169 c45 94 83 168 85 167 2 -2 36 -78 76 -168z m7177 -171 l81 -3 -85 -92 -86 -91 0 -13 c0 -6 23 -84 51 -171 28 -88 49 -162 46 -164 -3 -3 -56 40 -118 95 -63 56 -119 101 -125 101 -6 0 -71 -22 -143 -49 l-131 -49 0 8 c0 5 20 60 44 123 l43 115 -83 91 c-46 50 -84 95 -84 99 l0 7 97 0 98 0 75 169 75 169 82 -171 82 -171 81 -3z m-5326 143 l58 -139 -68 -163 c-37 -90 -71 -168 -75 -173 l-8 -9 -168 68 c-92 37 -173 72 -179 79 -6 6 -35 70 -64 143 l-54 132 99 100 99 101 151 0 151 0 58 -139z m678 35 l97 -102 -64 -154 -64 -155 -166 -59 -165 -59 -6 5 c-3 3 -38 84 -78 179 l-73 174 38 90 c20 49 46 111 58 138 l20 47 153 -1 153 -1 97 -102z m2208 94 c0 -6 24 -68 53 -139 l54 -129 -75 -176 -74 -176 -12 0 c-6 1 -82 27 -170 58 l-158 57 -63 155 -64 155 77 80 c42 43 88 89 102 102 l25 22 153 1 152 0 0 -10z m725 -90 l99 -100 -53 -132 c-30 -73 -59 -138 -65 -145 -6 -6 -87 -42 -179 -79 l-168 -67 -8 9 c-5 5 -39 82 -76 172 l-68 163 59 140 58 139 151 0 150 0 100 -100z m-1894 -141 l136 -51 7 -82 c3 -44 6 -122 6 -172 l0 -91 -142 -132 -141 -132 -8 3 c-5 2 -72 61 -149 131 l-140 128 0 92 c0 51 3 129 6 173 l7 81 131 51 c72 28 136 51 141 51 6 1 71 -22 146 -50z m-2783 -184 l3 -149 -132 -132 -132 -132 -101 35 c-56 20 -105 40 -110 44 -5 4 -30 65 -56 135 l-48 128 24 30 c14 16 60 67 101 113 l77 83 185 -2 186 -3 3 -150z m5760 44 l101 -110 -28 -77 c-16 -42 -39 -103 -50 -134 l-22 -57 -72 -27 c-40 -15 -88 -33 -107 -41 l-34 -14 -133 133 -133 133 0 146 0 146 7 6 6 7 182 0 181 0 102 -111z m-7033 49 c27 -29 72 -78 102 -108 l53 -56 -72 -230 -73 -230 -85 -75 c-46 -41 -168 -147 -270 -236 l-185 -163 -3 10 c-2 5 -16 156 -31 336 l-27 327 121 239 120 238 151 0 151 0 48 -52z m8301 -191 l122 -242 -28 -322 c-15 -177 -30 -327 -32 -333 l-3 -11 -135 119 c-74 65 -193 170 -265 233 l-130 115 -12 25 c-7 14 -42 119 -78 234 l-64 207 101 109 101 109 151 0 151 0 121 -243z m-5746 -133 l0 -11 -43 -17 c-23 -9 -52 -16 -62 -16 -25 0 -105 36 -105 47 0 4 23 63 51 131 l52 123 53 -123 c29 -68 53 -128 54 -134z m2879 132 c28 -69 51 -128 51 -133 l0 -8 -49 -18 c-60 -21 -70 -21 -122 -1 l-41 17 5 17 c4 17 101 249 103 250 1 0 25 -56 53 -124z m-3752 28 c76 -31 139 -57 141 -58 8 -9 141 -342 139 -349 -3 -9 -295 -135 -332 -144 l-20 -4 -115 49 -115 49 -3 174 -2 173 82 83 c45 46 83 83 84 83 2 0 65 -25 141 -56z m4691 -27 l82 -83 -2 -174 -3 -173 -115 -49 c-63 -26 -118 -48 -123 -48 -12 0 -330 131 -341 141 l-8 7 50 124 c28 68 60 146 72 174 l21 51 137 56 c75 31 139 56 142 57 3 0 43 -37 88 -83z m-2905 -97 l57 -54 0 -96 0 -95 -183 -94 -182 -94 -117 63 c-65 34 -118 65 -118 69 0 5 27 75 61 157 34 82 63 154 66 161 l5 12 41 16 c23 8 85 30 137 49 l95 34 40 -36 c22 -20 66 -61 98 -92z m1370 -130 l68 -162 -4 -12 -5 -11 -115 -59 -115 -58 -181 93 -181 94 0 97 0 96 96 90 97 90 136 -48 136 -47 68 -163z m-2737 85 c59 -24 108 -46 110 -48 2 -2 -6 -28 -18 -57 l-22 -53 -54 -24 -54 -24 -6 6 c-7 7 -102 237 -102 248 l0 8 20 -6 c11 -3 68 -26 126 -50z m3774 47 c0 -10 -95 -240 -102 -247 l-6 -6 -54 24 -54 24 -22 53 c-12 29 -20 55 -18 58 6 6 239 101 249 102 4 0 7 -4 7 -8z m-2960 -71 c-38 -98 -72 -176 -79 -183 l-7 -8 -51 27 -51 27 -21 50 c-11 27 -20 51 -18 52 7 7 214 82 229 83 l18 1 -20 -49z m2110 9 c62 -22 114 -41 116 -43 2 -1 -7 -26 -20 -53 l-24 -51 -48 -27 -47 -27 -8 8 c-7 8 -40 84 -79 184 l-20 49 9 0 c5 0 60 -18 121 -40z m-3740 -183 l0 -154 107 -43 106 -44 -19 -8 c-10 -4 -66 -28 -124 -51 l-105 -44 -3 -133 -3 -134 -87 87 -87 86 -155 -49 c-85 -28 -159 -50 -163 -50 -4 0 37 54 92 121 l100 120 -28 77 c-16 42 -39 103 -51 135 -12 32 -20 60 -18 63 3 2 46 -11 96 -30 l91 -34 118 119 c65 66 121 119 126 119 l7 0 0 -153z m5393 36 l117 -118 92 32 c51 18 94 30 96 28 2 -2 -18 -64 -46 -137 l-50 -133 26 -35 c14 -19 59 -74 100 -122 40 -49 70 -88 65 -88 -4 0 -78 23 -163 50 l-155 49 -87 -86 -87 -87 -3 133 -3 134 -124 52 -123 52 106 43 106 42 0 154 0 154 7 0 c4 0 61 -53 126 -117z m-6011 15 l56 -19 57 -155 57 -154 -38 -47 c-21 -27 -80 -98 -131 -160 l-94 -112 -57 -16 c-31 -9 -185 -57 -341 -107 -155 -49 -285 -88 -287 -86 -3 4 11 52 147 480 l59 186 52 44 c29 24 101 87 160 140 l109 97 97 -36 c53 -19 123 -44 154 -55z m6914 -58 l158 -140 103 -327 c56 -180 101 -329 99 -331 -2 -2 -120 34 -262 78 -143 45 -297 94 -342 108 l-84 26 -116 140 c-63 78 -122 149 -130 158 l-14 17 56 154 57 153 152 56 c84 30 155 54 159 51 4 -2 78 -66 164 -143z m-5189 89 l61 -23 64 22 c34 12 68 22 74 22 l11 0 27 -68 26 -68 70 -34 70 -34 0 -8 c0 -5 -11 -36 -25 -70 l-25 -61 20 -65 c11 -35 20 -68 20 -73 l0 -9 -61 -30 -61 -31 -30 -67 c-17 -37 -31 -68 -32 -69 -2 -2 -37 9 -78 23 l-76 25 -63 -25 c-34 -15 -65 -26 -69 -26 -3 0 -21 31 -40 69 l-33 69 -69 27 -69 27 5 17 c3 9 14 43 24 76 l18 60 -28 69 c-15 38 -28 72 -28 75 0 3 34 19 75 36 l74 29 28 74 28 73 15 -5 c8 -2 43 -15 77 -27z m3166 -42 l28 -72 70 -29 c38 -16 72 -32 74 -36 l5 -8 -29 -68 -28 -69 17 -50 c9 -28 20 -62 23 -77 l7 -26 -69 -27 -68 -27 -33 -69 c-19 -38 -37 -69 -41 -69 -4 0 -35 12 -68 26 l-60 26 -77 -26 c-43 -14 -78 -25 -80 -23 -1 1 -15 32 -32 69 l-30 67 -61 31 -61 30 0 9 c0 5 9 38 20 74 l20 66 -25 57 c-14 31 -25 62 -25 68 l0 12 70 34 70 34 26 68 27 68 13 0 c8 0 37 -9 66 -20 66 -25 80 -25 148 5 30 13 60 24 65 24 l10 1 28 -73z m-1739 -121 l96 -88 86 78 c47 44 111 102 142 131 31 28 58 50 60 48 5 -4 10 -60 11 -112 l1 -42 18 -5 c9 -4 88 -44 174 -89 l157 -83 -172 -88 c-95 -49 -174 -91 -177 -93 -3 -3 -7 -42 -10 -89 l-5 -84 -140 135 c-77 74 -142 134 -145 134 -3 0 -68 -60 -145 -134 -76 -74 -140 -133 -142 -132 -1 2 -3 40 -4 85 l-2 82 -178 92 -179 92 158 83 c86 45 165 85 175 89 l17 5 1 47 c1 26 2 52 4 57 1 6 3 20 3 33 l2 24 49 -44 c27 -24 92 -83 145 -132z m-4463 -285 l23 -284 -40 -34 c-21 -19 -60 -52 -86 -74 l-46 -40 -66 110 c-36 61 -66 115 -66 121 0 5 55 120 122 255 l123 244 6 -7 6 -7 24 -284z m9398 -200 l1 -14 -66 -108 -66 -109 -47 40 c-25 21 -64 54 -85 73 l-39 33 22 280 c13 153 25 286 28 294 l5 15 123 -245 c68 -135 124 -251 124 -259z m-6722 374 l21 -56 -18 -52 -18 -52 -13 3 c-27 7 -260 105 -256 108 8 8 233 102 247 103 l15 1 22 -55z m3929 4 c69 -28 123 -53 121 -55 -2 -2 -63 -28 -135 -58 l-133 -55 -4 12 c-3 7 -11 31 -19 53 l-14 42 21 56 22 56 8 0 c5 0 65 -23 133 -51z m-2986 -9 c44 -22 80 -42 80 -44 0 -3 -39 -25 -87 -50 l-86 -47 -7 8 c-4 4 -13 25 -20 46 l-12 37 18 45 17 45 9 0 c4 0 44 -18 88 -40z m1993 -5 l19 -44 -12 -38 c-7 -21 -16 -42 -20 -46 l-7 -8 -86 47 c-48 25 -87 47 -87 50 0 5 153 83 165 83 l10 1 18 -45z m-5103 -354 c-48 -155 -90 -284 -92 -286 -7 -8 -270 -87 -274 -83 -2 2 -8 55 -14 118 l-11 114 18 17 c32 33 458 407 460 405 1 -1 -38 -129 -87 -285z m8259 71 l231 -203 0 -13 c0 -28 -21 -221 -25 -224 -2 -2 -57 13 -122 33 -65 20 -126 39 -135 41 l-18 5 -46 147 c-25 81 -65 209 -89 285 l-43 138 8 -3 c5 -2 113 -94 239 -206z m-6323 117 c93 -39 173 -74 177 -78 l8 -8 -53 -159 -53 -159 -165 -67 -165 -68 -69 68 c-38 37 -87 85 -107 107 l-38 40 -1 141 0 141 133 56 c72 31 139 56 148 57 9 0 93 -32 185 -71z m1545 -21 l177 -93 7 -102 7 -102 -77 -73 c-43 -40 -80 -74 -84 -75 -3 -2 -91 25 -195 60 l-189 62 -43 135 c-24 74 -44 138 -44 142 0 4 51 32 113 63 61 32 116 61 122 66 5 5 13 9 18 9 6 0 90 -42 188 -92z m1450 26 c71 -36 129 -69 129 -72 0 -4 -20 -67 -44 -141 l-43 -135 -19 -7 c-10 -4 -97 -33 -192 -64 l-173 -56 -80 73 -79 73 6 105 6 105 6 3 c4 1 84 43 177 92 94 49 171 90 173 90 2 0 62 -30 133 -66z m1562 10 l137 -57 0 -139 0 -140 -17 -22 c-10 -12 -59 -60 -109 -108 l-90 -87 -165 67 -164 67 -52 160 -53 159 8 8 c10 10 334 146 352 147 8 1 77 -24 153 -55z m-2294 -242 l143 -137 -7 -160 -7 -160 -75 4 -75 3 -64 -63 -64 -63 -64 63 -65 64 -74 -6 -74 -5 -7 161 -7 162 143 137 c79 75 145 137 148 137 3 0 70 -62 149 -137z m-1213 20 c17 -53 30 -98 29 -100 -2 -3 -175 55 -181 61 -3 2 4 25 15 50 l20 46 38 20 c21 11 40 20 43 21 3 0 19 -44 36 -98z m2204 78 l40 -20 14 -28 c7 -15 16 -37 20 -49 l7 -21 -83 -28 c-46 -15 -88 -29 -94 -31 l-12 -4 32 100 c17 56 32 101 34 101 1 0 21 -9 42 -20z m-2908 -16 l28 -14 25 -50 25 -50 -22 -9 c-13 -5 -61 -25 -107 -45 -47 -20 -87 -34 -89 -31 -4 4 36 143 59 202 l9 24 23 -7 c12 -3 34 -13 49 -20z m3645 -80 c18 -54 32 -104 31 -111 l-3 -12 -85 35 c-47 19 -95 40 -108 45 l-22 9 25 51 26 50 42 19 c23 11 46 18 51 17 l10 -3 33 -100z m-4645 -51 l98 -98 0 -171 0 -172 -182 -101 -181 -101 -45 0 c-49 0 -654 49 -659 53 -1 2 25 37 60 78 34 42 98 120 142 174 44 54 119 146 168 204 l87 106 198 62 c108 34 201 62 207 62 l10 1 97 -97z m5809 46 c90 -29 181 -57 202 -63 l38 -12 202 -245 c111 -135 214 -262 229 -281 l28 -36 -58 -6 c-98 -11 -565 -46 -608 -46 l-40 0 -182 101 -182 101 0 171 0 172 97 97 c54 54 100 98 103 98 4 0 80 -23 171 -51z m-4453 -55 c32 -9 58 -18 60 -19 2 -2 -18 -53 -44 -114 l-47 -112 -49 93 c-27 50 -51 102 -54 113 l-5 22 38 16 c47 20 35 20 101 1z m2925 -3 l45 -19 -56 -111 c-31 -60 -58 -108 -61 -106 -6 6 -91 218 -88 220 4 3 102 34 109 34 3 1 27 -8 51 -18z m-2638 -90 l120 -39 12 -24 c15 -29 113 -340 113 -359 l0 -15 -73 -72 -72 -72 -100 0 -100 0 -82 159 -83 159 49 113 c27 63 54 131 62 152 l13 37 11 0 c5 0 64 -18 130 -39z m2451 -114 l63 -147 -82 -160 -82 -160 -100 0 -100 0 -76 78 -76 77 58 180 c32 99 62 186 66 193 l8 13 115 39 c63 21 121 38 129 37 l14 -2 63 -148z m-2892 -5 l74 -148 -62 -150 -62 -149 -155 -3 -156 -2 -49 53 c-27 29 -57 63 -67 74 l-19 21 53 166 53 165 90 37 c50 20 114 47 141 59 28 13 58 24 67 24 l18 1 74 -148z m3377 87 l146 -61 53 -164 52 -165 -18 -22 c-11 -12 -41 -45 -68 -75 l-50 -52 -155 2 -155 3 -62 150 -62 149 74 148 75 148 12 0 c6 0 77 -27 158 -61z m-5268 39 c-5 -7 -86 -105 -179 -218 -93 -113 -181 -220 -195 -238 l-26 -33 -146 12 -147 12 0 10 c0 5 19 69 41 142 l42 133 216 67 c119 37 254 80 301 95 47 16 89 29 94 29 l8 1 -9 -12z m7228 -88 l296 -92 43 -140 c23 -76 41 -141 39 -142 -2 -2 -69 -9 -147 -16 l-144 -11 -11 15 c-13 16 -119 145 -272 330 -55 67 -107 130 -115 140 l-15 20 15 -6 c8 -3 148 -47 311 -98z m-4466 -59 l180 -58 60 58 c33 33 64 59 68 59 l7 0 0 -62 c0 -35 3 -107 7 -160 l6 -98 106 0 107 0 43 -44 43 -43 -49 -46 -48 -47 -102 0 -103 0 0 -120 0 -119 -47 -51 -47 -51 -48 48 -48 47 0 123 0 123 -160 0 -160 0 0 7 c0 4 25 33 56 64 l56 57 -60 186 c-32 102 -57 186 -53 186 3 0 87 -26 186 -59z m1158 -9 l49 -49 166 53 c92 30 177 57 189 60 l21 6 -60 -187 -60 -187 56 -57 c31 -31 56 -60 56 -64 l0 -7 -160 0 -160 0 0 -123 0 -123 -48 -47 -48 -48 -47 52 -47 52 0 118 0 119 -102 0 -103 1 -49 45 -49 45 44 45 43 44 107 0 106 0 6 68 c4 37 7 109 7 160 l0 93 18 -10 c9 -5 39 -32 65 -59z m-2945 -33 c44 -42 84 -79 89 -82 l10 -6 154 64 c85 35 155 62 156 61 2 -1 -13 -49 -32 -107 -20 -57 -42 -125 -49 -150 l-14 -46 54 -59 54 -59 -99 -3 -99 -3 -10 -12 c-6 -7 -27 -64 -47 -127 -20 -63 -40 -118 -44 -122 l-6 -7 -48 123 -48 123 -147 13 c-81 6 -173 15 -204 18 l-57 7 144 79 145 79 0 149 0 150 9 -4 c5 -1 45 -37 89 -79z m5062 -66 l0 -148 145 -80 c79 -43 143 -80 142 -82 -2 -1 -93 -10 -202 -18 l-200 -16 -6 -11 c-4 -6 -26 -62 -50 -125 l-42 -114 -7 8 c-4 4 -20 46 -34 93 -15 47 -34 104 -42 128 l-16 42 -105 0 -105 0 55 61 55 62 -24 76 c-13 42 -35 109 -49 150 -14 41 -24 76 -22 77 1 2 72 -26 156 -61 l154 -64 31 25 c17 13 58 51 91 84 33 33 63 60 68 60 l7 0 0 -147z m-6068 -356 c152 -13 279 -25 282 -27 2 -3 -119 -74 -271 -158 l-274 -154 -17 7 c-9 3 -65 33 -124 66 l-108 61 8 13 c4 7 45 58 91 114 l83 101 27 -1 c14 0 151 -10 303 -22z m7398 -88 l92 -111 -9 -8 c-4 -5 -59 -36 -121 -70 l-113 -63 -18 9 c-10 5 -136 74 -279 154 l-260 145 11 6 c7 3 122 14 257 24 135 10 247 19 249 21 2 2 26 4 52 4 l47 0 92 -111z"></path></g></g></svg>