<?xml version="1.0" encoding="UTF-8"?>
<svg enable-background="new 0 0 864 864" version="1.1" viewBox="0 0 484.14 441.58" xml:space="preserve" xmlns="http://www.w3.org/2000/svg">
<style type="text/css">
	.st0{fill:#EA92A9;}
	.st1{fill:#7A3C3C;}
</style>























































<g transform="translate(-90.1 -228.89)"><path class="st0" d="m162.3 346.6c-1.1-4.7-5.5-9.2-11.7-11.4-2.3-0.8-4.5-1.2-6.7-1.2 1.7-1.2 3.3-2.7 4.7-4.5 4-5.2 5.3-11.4 3.6-15.9 0-0.1-0.1-0.2-0.2-0.2-0.1-0.1-0.2-0.1-0.4-0.1l-4.5 0.3c-0.7 0-1.4-0.5-1.5-1.2l-0.7-4.1c0-0.2-0.2-0.4-0.3-0.5s-0.3-0.2-0.4-0.2c-4.8-0.4-10.5 2.4-14.4 7.6-1.5 1.9-2.5 3.9-3.3 6-0.6-2-1.6-4-2.9-5.8-3.7-5.4-9.2-8.6-14-8.4-0.1 0-0.2 0-0.3 0.1s-0.2 0.2-0.2 0.3l-1.1 4.4c-0.2 0.7-0.9 1.2-1.6 1l-4.1-0.6c-0.2 0-0.4 0-0.6 0.1-0.1 0.1-0.2 0.2-0.3 0.4-1.9 4.4-1 10.7 2.7 16.1 1.4 2 3 3.6 4.7 4.9-2.1 0-4.3 0.3-6.4 0.9-6.3 1.9-11 6.1-12.3 10.7v0.3c0 0.1 0.1 0.2 0.2 0.3l3.8 2.4c0.6 0.4 0.8 1.2 0.5 1.8l-1.9 3.7c-0.1 0.2-0.1 0.4-0.1 0.6s0.1 0.3 0.3 0.4c3.6 3.1 9.9 4.2 16.1 2.4 2.3-0.7 4.4-1.7 6.2-2.9-0.7 2-1.1 4.1-1.1 6.4-0.2 6.6 2.4 12.3 6.4 15 0.1 0.1 0.2 0.1 0.3 0.1s0.3 0 0.4-0.1l3.5-2.9c0.6-0.5 1.4-0.4 1.9 0.1l2.9 2.9c0.2 0.2 0.4 0.2 0.6 0.3 0.2 0 0.3 0 0.5-0.1 4.1-2.5 7.1-8.1 7.2-14.6 0.1-2.4-0.3-4.7-0.9-6.8 1.7 1.2 3.6 2.3 5.7 3.1 6.2 2.2 12.5 1.5 16.3-1.5 0.1-0.1 0.1-0.2 0.2-0.3v-0.4l-1.7-4.2c-0.3-0.7 0-1.4 0.7-1.8l3.7-1.9c0.2-0.1 0.3-0.3 0.4-0.5 0.1-0.1 0.1-0.3 0.1-0.5zm-22-2.1c-1.1 0.8-2.7 0.5-3.5-0.6l-0.3-0.6-5.1-1.5c-0.7 0.8-1.6 1.4-2.7 1.7l-0.5 5c0.1 0 0.1 0.1 0.2 0.1 1 1 1 2.5 0 3.5s-2.5 1-3.5 0-1-2.5 0-3.5c0.2-0.2 0.5-0.4 0.7-0.5l0.5-4.8c-1-0.4-1.9-1.1-2.5-2.1l-5 1.6c0 0.1-0.1 0.3-0.1 0.4-0.5 1.3-2 1.9-3.2 1.4-1.3-0.5-1.9-2-1.4-3.2 0.5-1.3 2-1.9 3.2-1.4l0.6 0.3 5.3-1.7c0-1 0.4-1.9 0.9-2.6l-3-3.7h-0.4c-1.4 0-2.5-1.1-2.5-2.5s1.1-2.5 2.5-2.5 2.5 1.1 2.5 2.5c0 0.2 0 0.5-0.1 0.7l3.1 3.8c0.5-0.2 1.1-0.3 1.7-0.3 0.5 0 1 0.1 1.4 0.2l2.9-4.2c-0.1-0.1-0.1-0.2-0.2-0.4-0.4-1.3 0.4-2.7 1.7-3.1s2.7 0.4 3.1 1.7-0.4 2.7-1.7 3.1c-0.2 0.1-0.4 0.1-0.7 0.1l-3 4.3c0.7 0.8 1.1 1.9 1.1 3v0.5l4.7 1.4 0.3-0.3c1.1-0.8 2.7-0.5 3.5 0.6 0.9 1.2 0.7 2.8-0.5 3.6z"/><path class="st0" d="m338.1 514.9c3.4-3.7 4.8-10.1 3.1-16.8-0.6-2.4-1.6-4.7-2.8-6.6 2 0.8 4.3 1.3 6.7 1.4 6.9 0.4 13-2 16-6.1 0.1-0.1 0.1-0.2 0.1-0.3s0-0.3-0.1-0.4l-2.9-3.8c-0.5-0.6-0.4-1.5 0.2-2l3.2-3c0.2-0.2 0.3-0.4 0.3-0.6s0-0.3-0.1-0.5c-2.4-4.4-8.2-7.7-15-8.2-2.5-0.2-4.9 0.1-7.1 0.7 1.4-1.7 2.5-3.7 3.4-5.9 2.6-6.4 2.1-13-0.9-17.1-0.1-0.1-0.2-0.2-0.3-0.2-0.1-0.1-0.3-0.1-0.4 0l-4.5 1.6c-0.7 0.3-1.5-0.1-1.8-0.8l-1.8-3.9c-0.1-0.2-0.3-0.4-0.5-0.5s-0.3-0.1-0.5 0c-4.9 1-9.9 5.4-12.4 11.7-0.9 2.3-1.4 4.7-1.6 7-1.2-1.8-2.7-3.6-4.5-5.1-5.3-4.4-11.7-6-16.5-4.4-0.1 0-0.2 0.1-0.3 0.2s-0.1 0.2-0.1 0.4l0.1 4.8c0 0.8-0.5 1.4-1.3 1.5l-4.3 0.5c-0.2 0-0.4 0.1-0.6 0.3-0.1 0.1-0.2 0.3-0.2 0.5-0.6 5 2.1 11 7.3 15.4 1.9 1.6 4 2.8 6.1 3.7-2.1 0.6-4.2 1.5-6.2 2.8-5.8 3.7-9.3 9.3-9.3 14.3 0 0.1 0 0.2 0.1 0.3s0.2 0.2 0.3 0.2l4.6 1.3c0.7 0.2 1.2 0.9 1 1.7l-0.8 4.3c0 0.2 0 0.5 0.1 0.7 0.1 0.1 0.2 0.3 0.4 0.3 4.6 2.1 11.1 1.5 16.9-2.2 2.1-1.3 3.9-3 5.4-4.7-0.1 2.2 0.1 4.5 0.7 6.8 1.7 6.7 5.9 11.7 10.7 13.3h0.3c0.1 0 0.3-0.1 0.3-0.2l2.7-3.9c0.4-0.6 1.3-0.8 1.9-0.5l3.8 2.1c0.2 0.1 0.4 0.1 0.7 0.1 0.1 0.1 0.3 0 0.4-0.2zm-10.9-20.3c-1.3-0.5-2-2-1.5-3.4 0.1-0.2 0.2-0.4 0.4-0.6l-1.7-5.3c-1.1-0.1-2.2-0.6-3-1.4l-4.7 2.5v0.2c-0.3 1.4-1.6 2.3-3.1 2-1.4-0.3-2.3-1.6-2-3.1 0.3-1.4 1.6-2.3 3.1-2 0.3 0.1 0.6 0.2 0.9 0.3l4.5-2.4c-0.3-1.1-0.1-2.3 0.4-3.4l-4.3-3.5c-0.1 0.1-0.3 0.1-0.4 0.1-1.4 0.3-2.8-0.6-3.1-2s0.6-2.8 2-3.1 2.8 0.6 3.1 2c0.1 0.2 0.1 0.5 0 0.7l4.5 3.7c0.9-0.5 1.9-0.8 2.8-0.7l1.5-4.7-0.3-0.3c-0.8-1.2-0.5-2.8 0.7-3.6s2.8-0.5 3.6 0.7 0.5 2.8-0.7 3.6l-0.6 0.3-1.5 4.9c0.5 0.3 0.9 0.8 1.3 1.3 0.3 0.4 0.5 0.9 0.6 1.4l5.3 0.1c0.1-0.1 0.1-0.2 0.2-0.4 0.9-1.1 2.6-1.2 3.7-0.3s1.2 2.6 0.3 3.7-2.6 1.2-3.7 0.3l-0.5-0.5-5.4-0.1c-0.3 1.1-1 2.1-2 2.7-0.1 0.1-0.3 0.2-0.4 0.3l1.6 4.9c0.1 0 0.3 0.1 0.4 0.1 1.3 0.5 2 2 1.5 3.4-0.7 1.4-2.2 2.1-3.5 1.6z"/><path class="st0" d="m492.2 284.6c2.6-2.7 3.6-7.6 2.3-12.5-0.5-1.8-1.2-3.5-2.1-4.9 1.5 0.6 3.2 1 5 1.1 5.1 0.3 9.7-1.5 11.9-4.6 0-0.1 0.1-0.1 0.1-0.2s0-0.2-0.1-0.3l-2.2-2.8c-0.3-0.4-0.3-1.1 0.1-1.5l2.4-2.2c0.1-0.1 0.2-0.3 0.2-0.4s0-0.3-0.1-0.4c-1.8-3.3-6.1-5.8-11.2-6.1-1.9-0.1-3.7 0.1-5.3 0.5 1-1.3 1.9-2.7 2.6-4.4 1.9-4.8 1.6-9.7-0.7-12.7 0-0.1-0.1-0.1-0.2-0.1h-0.3l-3.3 1.2c-0.5 0.2-1.1-0.1-1.4-0.6l-1.4-2.9c-0.1-0.2-0.2-0.3-0.4-0.3-0.1 0-0.2-0.1-0.4 0-3.7 0.7-7.4 4-9.3 8.8-0.7 1.7-1.1 3.5-1.2 5.2-0.9-1.4-2-2.6-3.4-3.8-4-3.3-8.7-4.5-12.3-3.3-0.1 0-0.1 0.1-0.2 0.1-0.1 0.1-0.1 0.2-0.1 0.3l0.1 3.5c0 0.6-0.4 1-1 1.1l-3.2 0.4c-0.2 0-0.3 0.1-0.4 0.2s-0.1 0.2-0.1 0.3c-0.5 3.7 1.5 8.2 5.5 11.5 1.4 1.2 3 2.1 4.6 2.7-1.6 0.4-3.1 1.1-4.7 2.1-4.4 2.8-7 6.9-7 10.7 0 0.1 0 0.2 0.1 0.2 0.1 0.1 0.1 0.2 0.2 0.2l3.4 1c0.5 0.2 0.9 0.7 0.8 1.3l-0.6 3.2c0 0.2 0 0.3 0.1 0.5 0.1 0.1 0.2 0.2 0.3 0.2 3.4 1.6 8.3 1.1 12.6-1.6 1.6-1 2.9-2.2 4-3.5-0.1 1.6 0.1 3.3 0.5 5.1 1.3 5 4.4 8.8 8 9.9h0.2c0.1 0 0.2-0.1 0.3-0.2l2-2.9c0.3-0.5 0.9-0.6 1.4-0.3l2.8 1.6c0.1 0.1 0.3 0.1 0.5 0.1 0.4-0.4 0.5-0.4 0.6-0.5zm-8.1-15.2c-1-0.4-1.5-1.5-1.1-2.5 0.1-0.2 0.2-0.3 0.3-0.5l-1.3-4c-0.8-0.1-1.6-0.4-2.3-1l-3.5 1.8v0.2c-0.2 1.1-1.2 1.7-2.3 1.5s-1.7-1.2-1.5-2.3 1.2-1.7 2.3-1.5c0.2 0 0.4 0.1 0.6 0.3l3.3-1.8c-0.2-0.8-0.1-1.7 0.3-2.5l-3.2-2.6c-0.1 0-0.2 0.1-0.3 0.1-1 0.2-2.1-0.4-2.3-1.5s0.4-2.1 1.5-2.3c1-0.2 2.1 0.4 2.3 1.5v0.5l3.4 2.7c0.7-0.4 1.4-0.6 2.1-0.5l1.1-3.5c-0.1-0.1-0.1-0.2-0.2-0.2-0.6-0.9-0.4-2.1 0.5-2.7s2.1-0.4 2.7 0.5 0.4 2.1-0.5 2.7c-0.2 0.1-0.3 0.2-0.5 0.2l-1.1 3.7c0.4 0.3 0.7 0.6 0.9 1 0.2 0.3 0.4 0.7 0.5 1l4 0.1c0.1-0.1 0.1-0.2 0.2-0.3 0.7-0.8 1.9-0.9 2.7-0.2s0.9 1.9 0.2 2.7-1.9 0.9-2.7 0.2c-0.1-0.1-0.2-0.3-0.3-0.4l-4.1-0.1c-0.2 0.8-0.7 1.5-1.5 2-0.1 0.1-0.2 0.1-0.3 0.2l1.2 3.7c0.1 0 0.2 0 0.3 0.1 1 0.4 1.5 1.5 1.1 2.5-0.4 1.1-1.5 1.6-2.5 1.2z"/><path class="st0" d="m226.4 487.7c-0.2 0.2-0.5 0.3-0.8 0.2-2.9-0.8-5.8-1.3-8.8-1.5 1.1 3 2.2 5.9 3.2 8.8 0.2 0.7-0.5 1.1-1 1-11.9-1.6-21.3-13.5-20.1-25.5 0-0.5 0.4-0.7 0.8-0.8 0.1-0.2 0.3-0.3 0.6-0.4 6.2-0.5 12.5 1.1 17.7 4.4 2.6 1.6 4.9 3.7 6.9 6 1.7 2.3 3.4 5.3 1.5 7.8z"/><path class="st0" d="m247.6 529.9c-3 1.8-3.2 5.8-2.8 8.9 0.5 4 2.1 8.2 0.6 12.2-1.6 4.4-5.8 5.5-10 6.2-1.3 0.2-4.7 1.5-5.9 1.2-1.8-0.4-1-2.7-1.1-4.1-0.2-2.2-0.3-4.4-0.2-6.6 0.1-4.3 0.9-8.8 3.3-12.5 3.3-5.2 9.6-9 15.8-7.1 0.9 0.2 1 1.3 0.3 1.8z"/><path class="st0" d="m186.3 628c0.8-0.3 1.7-0.4 2.5-0.3 1.5 0.2 2.9 1 4.2 1.9 5.8 4.5 7.9 12.7 6.1 19.7-1.2 4.7-3.9 9-7.3 12.4-2.1 2.1-4.6 3.8-7.1 5.4-0.7 0.4-6.4 5.2-6.1 2.6 0.1-1.3 1.8-2.9 2.4-4.1 1.5-3 2.4-6.9 1.6-10.2-0.7-2.7-2.1-5.2-2.8-7.9-0.4-1.6-0.4-3.4 0.5-4.8s3.1-1.9 4.3-0.8c-0.7-2.8-1.1-5.7-1-8.6 0-1.5 0.2-3.1 1.2-4.2 0.3-0.5 0.9-0.9 1.5-1.1z"/><path class="st0" d="m147.9 525.1c0 0.9-0.3 1.7-0.7 2.5-0.8 1.3-2 2.3-3.4 3.1-6.3 3.6-14.7 2.5-20.6-1.8-3.9-2.9-6.8-7-8.7-11.4-1.1-2.8-1.7-5.7-2.3-8.6-0.2-0.8-2.4-7.8-0.1-6.6 1.2 0.6 2 2.7 2.9 3.7 2.2 2.5 5.4 4.8 8.9 5.3 2.8 0.4 5.6 0 8.4 0.4 1.6 0.2 3.3 0.9 4.3 2.3 0.9 1.4 0.6 3.6-0.9 4.2 2.9 0.4 5.7 1.1 8.3 2.3 1.4 0.6 2.8 1.4 3.5 2.7 0.3 0.5 0.5 1.2 0.4 1.9z"/><path class="st0" d="m562.4 338.3c-1-4.3-5.1-8.6-10.8-10.6-2.1-0.7-4.2-1.1-6.2-1.2 1.6-1.1 3.1-2.5 4.3-4.2 3.7-4.9 4.9-10.6 3.4-14.8 0-0.1-0.1-0.2-0.2-0.2-0.1-0.1-0.2-0.1-0.4-0.1l-4.2 0.3c-0.7 0-1.3-0.4-1.4-1.1l-0.6-3.8c0-0.2-0.1-0.4-0.3-0.5-0.1-0.1-0.3-0.1-0.4-0.2-4.4-0.4-9.7 2.2-13.4 7-1.4 1.8-2.4 3.7-3 5.6-0.6-1.8-1.5-3.7-2.7-5.4-3.5-5-8.5-8-13-7.8-0.1 0-0.2 0-0.3 0.1s-0.2 0.2-0.2 0.3l-1 4.1c-0.2 0.7-0.8 1.1-1.5 1l-3.8-0.6c-0.2 0-0.4 0-0.6 0.1l-0.3 0.3c-1.7 4.1-0.9 9.9 2.5 14.9 1.3 1.8 2.8 3.4 4.4 4.6-1.9 0-3.9 0.2-6 0.8-5.9 1.7-10.2 5.7-11.4 10v0.3c0 0.1 0.1 0.2 0.2 0.3l3.6 2.2c0.6 0.4 0.8 1.1 0.5 1.7l-1.7 3.4c-0.1 0.2-0.1 0.4-0.1 0.6 0 0.1 0.1 0.3 0.2 0.4 3.4 2.9 9.1 3.9 15 2.2 2.1-0.6 4.1-1.6 5.7-2.7-0.6 1.8-1 3.8-1 6-0.2 6.1 2.2 11.5 6 13.9 0.1 0.1 0.2 0.1 0.3 0.1s0.2 0 0.3-0.1l3.2-2.7c0.5-0.4 1.3-0.4 1.8 0.1l2.7 2.7c0.1 0.1 0.3 0.2 0.5 0.2 0.1 0 0.3 0 0.4-0.1 3.8-2.3 6.6-7.5 6.7-13.6 0.1-2.2-0.2-4.4-0.8-6.3 1.5 1.2 3.3 2.1 5.3 2.8 5.8 2 11.6 1.4 15.1-1.4l0.2-0.2v-0.4l-1.6-3.9c-0.2-0.6 0-1.3 0.6-1.6l3.4-1.8c0.2-0.1 0.3-0.3 0.4-0.4 0.3 0 0.3-0.2 0.2-0.3zm-20.4-2c-1 0.7-2.5 0.5-3.2-0.6l-0.3-0.6-4.8-1.4c-0.6 0.8-1.5 1.3-2.5 1.6l-0.5 4.6 0.1 0.1c0.9 0.9 0.9 2.4 0 3.3s-2.4 0.9-3.3 0-0.9-2.4 0-3.3c0.2-0.2 0.4-0.3 0.7-0.5l0.5-4.5c-1-0.4-1.8-1-2.3-1.9l-4.7 1.5c0 0.1-0.1 0.2-0.1 0.4-0.5 1.2-1.8 1.8-3 1.3s-1.8-1.8-1.3-3 1.8-1.8 3-1.3c0.2 0.1 0.4 0.2 0.5 0.3l4.9-1.5c0-0.9 0.4-1.7 0.9-2.4l-2.7-3.4h-0.4c-1.3 0-2.3-1-2.3-2.3s1-2.3 2.3-2.3 2.3 1 2.3 2.3c0 0.2 0 0.4-0.1 0.6l2.9 3.6c0.5-0.2 1-0.3 1.6-0.3 0.5 0 0.9 0.1 1.3 0.2l2.7-3.9c-0.1-0.1-0.1-0.2-0.1-0.4-0.4-1.2 0.3-2.5 1.6-2.9 1.2-0.4 2.5 0.3 2.9 1.6 0.4 1.2-0.3 2.5-1.6 2.9-0.2 0.1-0.4 0.1-0.6 0.1l-2.8 4c0.6 0.8 1 1.7 1 2.8v0.4l4.4 1.3c0.1-0.1 0.2-0.2 0.3-0.2 1-0.7 2.5-0.5 3.2 0.6 0.8 1 0.6 2.4-0.5 3.2z"/><path class="st0" d="m185.1 461.4c-1.2-5-5.8-9.8-12.4-12.1-2.4-0.8-4.8-1.3-7.1-1.3 1.8-1.3 3.5-2.9 5-4.8 4.3-5.6 5.6-12.1 3.8-16.9 0-0.1-0.1-0.2-0.2-0.3s-0.3-0.1-0.4-0.1l-4.8 0.3c-0.8 0.1-1.4-0.5-1.6-1.2l-0.7-4.3c0-0.2-0.2-0.4-0.3-0.6-0.1-0.1-0.3-0.2-0.5-0.2-5.1-0.4-11.1 2.5-15.3 8-1.6 2-2.7 4.2-3.5 6.4-0.6-2.1-1.7-4.2-3-6.2-4-5.8-9.8-9.1-14.9-8.9-0.1 0-0.2 0-0.3 0.1s-0.2 0.2-0.2 0.3l-1.2 4.7c-0.2 0.7-0.9 1.2-1.7 1.1l-4.4-0.7c-0.2 0-0.5 0-0.7 0.1-0.1 0.1-0.3 0.2-0.3 0.4-2 4.7-1 11.3 2.9 17.1 1.4 2.1 3.1 3.9 5 5.2-2.2 0-4.5 0.3-6.8 1-6.7 2-11.7 6.5-13 11.4v0.3c0 0.1 0.1 0.3 0.3 0.3l4.1 2.6c0.6 0.4 0.9 1.2 0.5 1.9l-2 3.9c-0.1 0.2-0.1 0.4-0.1 0.7 0 0.2 0.1 0.3 0.3 0.4 3.9 3.3 10.5 4.5 17.1 2.5 2.4-0.7 4.6-1.8 6.5-3.1-0.7 2.1-1.1 4.4-1.2 6.8-0.2 7 2.5 13.1 6.8 15.9 0.1 0.1 0.2 0.1 0.3 0.1s0.3 0 0.4-0.1l3.7-3.1c0.6-0.5 1.5-0.5 2 0.1l3.1 3.1c0.2 0.2 0.4 0.3 0.6 0.3s0.3 0 0.5-0.1c4.4-2.6 7.5-8.6 7.7-15.5 0.1-2.5-0.3-5-0.9-7.2 1.8 1.3 3.8 2.4 6.1 3.2 6.6 2.3 13.2 1.6 17.2-1.6 0.1-0.1 0.2-0.2 0.2-0.3v-0.4l-1.8-4.5c-0.3-0.7 0-1.5 0.7-1.9l3.9-2c0.2-0.1 0.4-0.3 0.4-0.5 0.2 0 0.2-0.2 0.2-0.3zm-23.3-2.3c-1.2 0.8-2.8 0.5-3.7-0.7l-0.3-0.6-5.4-1.6c-0.7 0.9-1.7 1.5-2.8 1.8l-0.5 5.3c0.1 0 0.1 0.1 0.2 0.1 1 1 1 2.7 0 3.7s-2.7 1-3.7 0-1-2.7 0-3.7c0.2-0.2 0.5-0.4 0.8-0.5l0.5-5.1c-1.1-0.4-2-1.2-2.6-2.2l-5.3 1.7c0 0.1-0.1 0.3-0.1 0.4-0.5 1.4-2.1 2-3.4 1.5-1.4-0.5-2-2.1-1.5-3.4 0.5-1.4 2.1-2 3.4-1.5 0.2 0.1 0.4 0.2 0.6 0.4l5.6-1.8c0-1 0.4-2 1-2.8l-3.1-3.9h-0.4c-1.5 0-2.6-1.2-2.6-2.6 0-1.5 1.2-2.6 2.6-2.6 1.5 0 2.6 1.2 2.6 2.6 0 0.2 0 0.5-0.1 0.7l3.3 4.1c0.6-0.2 1.2-0.3 1.8-0.3 0.5 0 1 0.1 1.5 0.2l3.1-4.4c-0.1-0.1-0.1-0.3-0.2-0.4-0.4-1.4 0.4-2.9 1.8-3.3s2.9 0.4 3.3 1.8-0.4 2.9-1.8 3.3c-0.2 0.1-0.5 0.1-0.7 0.1l-3.1 4.5c0.7 0.9 1.2 2 1.2 3.2v0.5l5 1.5 0.3-0.3c1.2-0.8 2.8-0.5 3.7 0.7 0.5 1.1 0.2 2.7-1 3.6z"/><path class="st0" d="m332.5 267.2c-0.9-3.8-4.4-7.5-9.5-9.2-1.8-0.6-3.7-1-5.4-1 1.4-1 2.7-2.2 3.8-3.7 3.3-4.2 4.3-9.2 2.9-12.9 0-0.1-0.1-0.1-0.2-0.2s-0.2-0.1-0.3-0.1l-3.7 0.2c-0.6 0-1.1-0.4-1.2-1l-0.5-3.3c0-0.2-0.1-0.3-0.3-0.4-0.1-0.1-0.2-0.1-0.4-0.1-3.9-0.3-8.5 1.9-11.7 6.1-1.2 1.5-2.1 3.2-2.6 4.9-0.5-1.6-1.3-3.2-2.3-4.7-3-4.4-7.4-6.9-11.4-6.8-0.1 0-0.2 0-0.2 0.1-0.1 0.1-0.2 0.2-0.2 0.3l-0.9 3.6c-0.1 0.6-0.7 0.9-1.3 0.8l-3.3-0.5c-0.2 0-0.4 0-0.5 0.1s-0.2 0.2-0.2 0.3c-1.5 3.6-0.8 8.7 2.2 13 1.1 1.6 2.4 3 3.8 4-1.7 0-3.4 0.2-5.2 0.7-5.1 1.5-8.9 4.9-10 8.7v0.3c0 0.1 0.1 0.2 0.2 0.3l3.1 2c0.5 0.3 0.7 1 0.4 1.5l-1.5 3c-0.1 0.2-0.1 0.3 0 0.5 0 0.1 0.1 0.2 0.2 0.3 2.9 2.6 8 3.4 13.1 1.9 1.9-0.6 3.5-1.4 5-2.4-0.5 1.6-0.9 3.3-0.9 5.2-0.1 5.3 1.9 10 5.2 12.2 0.1 0 0.2 0.1 0.2 0.1 0.1 0 0.2 0 0.3-0.1l2.8-2.4c0.5-0.4 1.1-0.3 1.5 0.1l2.4 2.4c0.1 0.1 0.3 0.2 0.5 0.2 0.1 0 0.3 0 0.4-0.1 3.3-2 5.7-6.5 5.9-11.8 0-1.9-0.2-3.8-0.7-5.5 1.3 1 2.9 1.9 4.7 2.5 5 1.8 10.1 1.2 13.2-1.2 0.1-0.1 0.1-0.1 0.1-0.2v-0.3l-1.4-3.4c-0.2-0.5 0-1.2 0.5-1.4l3-1.5c0.2-0.1 0.3-0.2 0.3-0.4 0.1-0.5 0.1-0.6 0.1-0.7zm-17.8-1.8c-0.9 0.6-2.2 0.4-2.8-0.5-0.1-0.2-0.2-0.3-0.2-0.5l-4.2-1.2c-0.5 0.7-1.3 1.2-2.2 1.4l-0.4 4.1 0.1 0.1c0.8 0.8 0.8 2.1 0 2.8s-2.1 0.8-2.8 0-0.8-2.1 0-2.8c0.2-0.2 0.4-0.3 0.6-0.4l0.4-3.9c-0.8-0.3-1.6-0.9-2-1.7l-4.1 1.3c0 0.1 0 0.2-0.1 0.3-0.4 1-1.6 1.5-2.6 1.1s-1.5-1.6-1.1-2.6 1.6-1.5 2.6-1.1c0.2 0.1 0.3 0.2 0.5 0.3l4.3-1.3c0-0.8 0.3-1.5 0.8-2.1l-2.4-3h-0.3c-1.1 0-2-0.9-2-2s0.9-2 2-2 2 0.9 2 2c0 0.2 0 0.4-0.1 0.5l2.5 3.1c0.4-0.2 0.9-0.3 1.4-0.3 0.4 0 0.8 0.1 1.2 0.2l2.4-3.4c0-0.1-0.1-0.2-0.1-0.3-0.3-1.1 0.3-2.2 1.4-2.5s2.2 0.3 2.5 1.4-0.3 2.2-1.4 2.5c-0.2 0.1-0.4 0.1-0.5 0.1l-2.4 3.5c0.6 0.7 0.9 1.5 0.9 2.5v0.4l3.8 1.1c0.1-0.1 0.2-0.2 0.3-0.2 0.9-0.6 2.2-0.4 2.8 0.5 0.3 0.7 0.1 2-0.8 2.6z"/><path class="st0" d="m310.2 403.5c-2.8-2.7-7.7-3.9-12.9-2.8-1.9 0.4-3.6 1.1-5.1 2 0.6-1.5 1.1-3.3 1.3-5.1 0.5-5.3-1.3-10.1-4.4-12.5-0.1-0.1-0.1-0.1-0.2-0.1s-0.2 0-0.3 0.1l-3 2.2c-0.5 0.3-1.1 0.3-1.5-0.2l-2.2-2.5c-0.1-0.1-0.3-0.2-0.5-0.2-0.1 0-0.3 0-0.4 0.1-3.5 1.8-6.1 6.1-6.6 11.4-0.2 1.9 0 3.8 0.4 5.5-1.3-1.1-2.8-2-4.5-2.8-4.9-2.1-10-1.9-13.2 0.3-0.1 0-0.1 0.1-0.2 0.2v0.3l1.1 3.5c0.2 0.6-0.1 1.2-0.6 1.4l-3.1 1.3c-0.2 0.1-0.3 0.2-0.4 0.4-0.1 0.1-0.1 0.3 0 0.4 0.6 3.8 3.9 7.7 8.8 9.8 1.8 0.8 3.6 1.2 5.4 1.4-1.4 0.9-2.8 2-4 3.4-3.5 4-4.9 8.9-3.8 12.7 0 0.1 0.1 0.2 0.1 0.2 0.1 0.1 0.2 0.1 0.3 0.1h3.7c0.6 0 1.1 0.4 1.1 1l0.3 3.4c0 0.2 0.1 0.3 0.2 0.5 0.1 0.1 0.2 0.1 0.3 0.2 3.9 0.6 8.6-1.4 12.1-5.3 1.3-1.5 2.3-3.1 3-4.7 0.4 1.6 1.1 3.3 2 4.9 2.7 4.6 7 7.4 10.9 7.5 0.1 0 0.2 0 0.2-0.1 0.1-0.1 0.2-0.1 0.2-0.3l1.1-3.5c0.2-0.6 0.8-0.9 1.3-0.8l3.3 0.7c0.2 0 0.4 0 0.5-0.1l0.3-0.3c1.7-3.5 1.4-8.6-1.4-13.1-1-1.7-2.2-3.1-3.5-4.3 1.7 0.1 3.5 0 5.3-0.4 5.2-1.2 9.2-4.3 10.5-8v-0.3c0-0.1-0.1-0.2-0.2-0.3l-3-2.2c-0.5-0.3-0.6-1-0.3-1.5l1.7-2.9c0.1-0.2 0.1-0.3 0.1-0.5 0 0.1-0.1 0-0.2-0.1zm-16 8c-0.4 1-1.6 1.5-2.6 1.1-0.2-0.1-0.3-0.2-0.5-0.3l-4.2 1.2c-0.1 0.9-0.5 1.7-1.1 2.3l1.8 3.7h0.2c1.1 0.2 1.8 1.3 1.5 2.4-0.2 1.1-1.3 1.8-2.4 1.5-1.1-0.2-1.8-1.3-1.5-2.4 0.1-0.2 0.2-0.5 0.3-0.7l-1.7-3.5c-0.9 0.2-1.8 0.1-2.6-0.4l-2.8 3.2c0 0.1 0.1 0.2 0.1 0.3 0.2 1.1-0.5 2.1-1.6 2.3s-2.1-0.5-2.3-1.6 0.5-2.1 1.6-2.3h0.5l2.9-3.4c-0.4-0.7-0.6-1.5-0.5-2.2l-3.6-1.2c-0.1 0.1-0.2 0.1-0.3 0.2-0.9 0.6-2.2 0.3-2.8-0.6s-0.3-2.2 0.6-2.8 2.2-0.3 2.8 0.6c0.1 0.2 0.2 0.3 0.2 0.5l3.8 1.3c0.3-0.4 0.6-0.7 1-0.9 0.3-0.2 0.7-0.4 1.1-0.5l0.2-4.1c-0.1-0.1-0.2-0.1-0.3-0.2-0.8-0.7-0.9-2-0.2-2.8s2-0.9 2.8-0.2 0.9 2 0.2 2.8c-0.1 0.1-0.3 0.3-0.4 0.3l-0.2 4.2c0.8 0.3 1.6 0.8 2.1 1.6 0.1 0.1 0.1 0.2 0.2 0.3l3.8-1.1c0-0.1 0.1-0.2 0.1-0.3 0.4-1 1.6-1.5 2.6-1.1 1.2 0.6 1.6 1.8 1.2 2.8z"/><path class="st0" d="m235.4 409.3c-0.9-3.8-4.4-7.5-9.5-9.2-1.8-0.6-3.7-1-5.4-1 1.4-1 2.7-2.2 3.8-3.7 3.3-4.2 4.3-9.2 2.9-12.9 0-0.1-0.1-0.1-0.2-0.2s-0.2-0.1-0.3-0.1l-3.7 0.2c-0.6 0-1.1-0.4-1.2-1l-0.5-3.3c0-0.2-0.1-0.3-0.3-0.4-0.1-0.1-0.2-0.1-0.4-0.1-3.9-0.3-8.5 1.9-11.7 6.1-1.2 1.5-2.1 3.2-2.6 4.9-0.5-1.6-1.3-3.2-2.3-4.7-3-4.4-7.4-6.9-11.4-6.8-0.1 0-0.2 0-0.2 0.1-0.1 0.1-0.2 0.2-0.2 0.3l-0.9 3.6c-0.1 0.6-0.7 0.9-1.3 0.8l-3.3-0.5c-0.2 0-0.4 0-0.5 0.1s-0.2 0.2-0.2 0.3c-1.5 3.6-0.8 8.7 2.2 13 1.1 1.6 2.4 3 3.8 4-1.7 0-3.4 0.2-5.2 0.7-5.1 1.5-8.9 4.9-10 8.7v0.3c0 0.1 0.1 0.2 0.2 0.3l3.1 2c0.5 0.3 0.7 1 0.4 1.5l-1.5 3c-0.1 0.2-0.1 0.3 0 0.5 0 0.1 0.1 0.2 0.2 0.3 2.9 2.6 8 3.4 13.1 1.9 1.9-0.6 3.5-1.4 5-2.4-0.5 1.6-0.9 3.3-0.9 5.2-0.1 5.3 1.9 10 5.2 12.2 0.1 0 0.2 0.1 0.2 0.1 0.1 0 0.2 0 0.3-0.1l2.8-2.4c0.5-0.4 1.1-0.3 1.5 0.1l2.4 2.4c0.1 0.1 0.3 0.2 0.5 0.2 0.1 0 0.3 0 0.4-0.1 3.3-2 5.7-6.5 5.9-11.8 0-1.9-0.2-3.8-0.7-5.5 1.3 1 2.9 1.9 4.7 2.5 5 1.8 10.1 1.2 13.2-1.2 0.1-0.1 0.1-0.1 0.1-0.2v-0.3l-1.4-3.4c-0.2-0.5 0-1.2 0.5-1.4l3-1.5c0.2-0.1 0.3-0.2 0.3-0.4 0.1-0.5 0.2-0.6 0.1-0.7zm-17.8-1.8c-0.9 0.6-2.2 0.4-2.8-0.5-0.1-0.2-0.2-0.3-0.2-0.5l-4.2-1.2c-0.5 0.7-1.3 1.2-2.2 1.4l-0.4 4.1 0.1 0.1c0.8 0.8 0.8 2.1 0 2.8s-2.1 0.8-2.8 0c-0.8-0.8-0.8-2.1 0-2.8 0.2-0.2 0.4-0.3 0.6-0.4l0.4-3.9c-0.8-0.3-1.6-0.9-2-1.7l-4.1 1.3c0 0.1 0 0.2-0.1 0.3-0.4 1-1.6 1.5-2.6 1.1s-1.5-1.6-1.1-2.6 1.6-1.5 2.6-1.1c0.2 0.1 0.3 0.2 0.5 0.3l4.3-1.3c0-0.8 0.3-1.5 0.8-2.1l-2.4-3h-0.3c-1.1 0-2-0.9-2-2s0.9-2 2-2 2 0.9 2 2c0 0.2 0 0.4-0.1 0.5l2.5 3.1c0.4-0.2 0.9-0.3 1.4-0.3 0.4 0 0.8 0.1 1.2 0.2l2.4-3.4c0-0.1-0.1-0.2-0.1-0.3-0.3-1.1 0.3-2.2 1.4-2.5s2.2 0.3 2.5 1.4-0.3 2.2-1.4 2.5c-0.2 0.1-0.4 0.1-0.5 0.1l-2.4 3.5c0.6 0.7 0.9 1.5 0.9 2.5v0.4l3.8 1.1c0.1-0.1 0.2-0.2 0.3-0.2 0.9-0.6 2.2-0.4 2.8 0.5 0.4 0.7 0.1 2-0.8 2.6z"/><path class="st0" d="m228 303.1c0.8-3.8-0.8-8.6-4.6-12.4-1.4-1.4-2.9-2.4-4.5-3.2 1.7-0.3 3.3-0.9 5-1.7 4.7-2.5 7.8-6.5 8.1-10.4 0-0.1 0-0.2-0.1-0.2-0.1-0.1-0.1-0.2-0.2-0.2l-3.4-1.3c-0.5-0.2-0.8-0.8-0.7-1.4l0.9-3.2c0-0.2 0-0.4-0.1-0.5l-0.3-0.3c-3.4-2-8.5-1.9-13.2 0.6-1.7 0.9-3.2 2-4.5 3.3 0.2-1.7 0.2-3.4-0.1-5.3-0.9-5.3-3.8-9.5-7.4-11h-0.3c-0.1 0-0.2 0.1-0.3 0.2l-2.3 2.8c-0.4 0.5-1 0.5-1.5 0.2l-2.8-1.9c-0.1-0.1-0.3-0.1-0.5-0.1-0.1 0-0.3 0.1-0.3 0.2-2.9 2.6-4.4 7.5-3.5 12.7 0.3 1.9 0.9 3.7 1.7 5.2-1.5-0.7-3.2-1.3-5-1.6-5.3-0.8-10.2 0.7-12.7 3.6-0.1 0.1-0.1 0.1-0.1 0.2s0 0.2 0.1 0.3l2 3.1c0.3 0.5 0.2 1.1-0.3 1.5l-2.7 2.1c-0.1 0.1-0.2 0.3-0.3 0.4v0.4c1.6 3.6 5.8 6.5 11 7.3 1.9 0.3 3.8 0.3 5.5 0-1.2 1.2-2.2 2.7-3 4.3-2.4 4.8-2.5 9.9-0.5 13.2 0 0.1 0.1 0.1 0.2 0.2 0.1 0 0.2 0.1 0.3 0l3.6-0.9c0.6-0.1 1.2 0.2 1.4 0.7l1.1 3.2c0.1 0.2 0.2 0.3 0.3 0.4s0.2 0.1 0.4 0.1c3.9-0.4 8-3.5 10.3-8.2 0.9-1.7 1.4-3.5 1.7-5.3 0.8 1.5 1.8 2.9 3.2 4.2 3.8 3.8 8.6 5.4 12.4 4.5 0.1 0 0.2-0.1 0.2-0.1 0.1-0.1 0.1-0.2 0.1-0.3l0.2-3.7c0-0.6 0.5-1 1.1-1.1l3.4-0.1c0.2 0 0.3-0.1 0.5-0.2 0.4 0 0.5-0.2 0.5-0.3zm-15.4-9.1c-1.1 0.2-2.1-0.6-2.3-1.6v-0.5l-3.3-2.9c-0.8 0.4-1.7 0.5-2.5 0.3l-2.1 3.5c0 0.1 0.1 0.1 0.1 0.1 0.4 1-0.2 2.2-1.2 2.6s-2.2-0.2-2.6-1.2 0.2-2.2 1.2-2.6c0.2-0.1 0.5-0.1 0.7-0.1l2-3.4c-0.6-0.6-1-1.5-1.1-2.4l-4.2-0.6c-0.1 0.1-0.1 0.2-0.2 0.2-0.8 0.8-2.1 0.7-2.8-0.1-0.8-0.8-0.7-2.1 0.1-2.8 0.8-0.8 2.1-0.7 2.8 0.1 0.1 0.1 0.2 0.3 0.3 0.5l4.5 0.6c0.4-0.7 0.9-1.3 1.6-1.6l-0.9-3.7c-0.1 0-0.2-0.1-0.3-0.1-1-0.5-1.4-1.7-1-2.7 0.5-1 1.7-1.4 2.7-1 1 0.5 1.4 1.7 1 2.7-0.1 0.2-0.2 0.3-0.3 0.5l1 3.9c0.5 0 0.9 0.1 1.3 0.4 0.4 0.2 0.7 0.4 1 0.7l3.6-2.1v-0.3c0.2-1.1 1.2-1.8 2.3-1.7 1.1 0.2 1.8 1.2 1.7 2.3-0.2 1.1-1.2 1.8-2.3 1.7-0.2 0-0.4-0.1-0.5-0.2l-3.6 2.1c0.2 0.8 0.2 1.8-0.2 2.6-0.1 0.1-0.1 0.2-0.2 0.3l3 2.6c0.1 0 0.2-0.1 0.3-0.1 1.1-0.2 2.1 0.6 2.3 1.6 0 1.1-0.8 2.2-1.9 2.4z"/><path class="st0" d="m355 378.4c-0.9 0-1.8-0.1-2.8-0.2-1.6-0.2-3.3-0.7-4.7-1.7s-2.3-2.6-2.8-4.3-0.5-3.4-0.3-5.1c0.6-6.5 4.3-12.7 10-15.8 2-1.1 4.2-1.8 6.5-1.8 1 0 5.9 0 4.8 2.2-0.3 0.5-0.9 0.9-1.4 1.1-1.6 0.8-3.3 1.5-4.7 2.5s-2.6 2.6-2.8 4.4c3.1-2.7 6.7-4.8 10.5-6.1 0.7-0.2 1.4-0.5 2.1-0.4 1 0.2 1.8 0.9 2.4 1.7 0.7 0.9 1.2 1.9 1.5 3 0.2 0.6 0.3 1.2 0.1 1.7s-0.6 0.9-1 1.3c-3 2.9-6.6 5.3-10.4 7-0.4 0.2-0.8 0.6-0.5 0.9 0.1 0.1 0.3 0.1 0.5 0.1 2.4-0.4 4.7-1.3 6.8-2.7 1.2-0.8 2.4-1.8 3.8-2 0.6-0.1 1.2 0 1.5 0.5 0.2 0.3 0.1 0.7 0.1 1.1-0.5 2.1-1.6 3.9-3 5.5-4 4.5-10.1 7.2-16.2 7.1z"/><path class="st0" d="m340.7 341.3c0.4-3.9-1.7-8.5-5.8-11.9-1.5-1.2-3.1-2.2-4.8-2.8 1.6-0.4 3.2-1.2 4.8-2.2 4.5-2.9 7.2-7.2 7.1-11.2 0-0.1 0-0.2-0.1-0.2-0.1-0.1-0.2-0.2-0.3-0.2l-3.5-1c-0.6-0.2-0.9-0.7-0.8-1.3l0.6-3.3c0-0.2 0-0.4-0.1-0.5l-0.3-0.3c-3.5-1.6-8.6-1.1-13.1 1.8-1.6 1.1-3 2.3-4.1 3.7 0.1-1.7-0.1-3.5-0.6-5.2-1.4-5.2-4.7-9.1-8.4-10.2h-0.3c-0.1 0-0.2 0.1-0.3 0.2l-2.1 3.1c-0.3 0.5-1 0.6-1.5 0.4l-3-1.6c-0.2-0.1-0.3-0.1-0.5-0.1-0.1 0-0.2 0.1-0.3 0.2-2.6 2.9-3.7 7.9-2.3 13 0.5 1.9 1.3 3.6 2.2 5.1-1.6-0.6-3.3-1-5.2-1.1-5.3-0.3-10.1 1.6-12.3 4.8 0 0.1-0.1 0.2-0.1 0.2 0 0.1 0 0.2 0.1 0.3l2.3 2.9c0.4 0.5 0.3 1.1-0.1 1.5l-2.4 2.3c-0.1 0.1-0.2 0.3-0.2 0.5 0 0.1 0 0.3 0.1 0.4 1.9 3.4 6.4 5.9 11.7 6.2 1.9 0.1 3.8-0.1 5.5-0.6-1 1.3-1.9 2.9-2.6 4.6-1.9 5-1.5 10.1 0.8 13.2l0.2 0.2h0.3l3.5-1.3c0.6-0.2 1.2 0.1 1.4 0.6l1.4 3c0.1 0.2 0.2 0.3 0.4 0.4 0.1 0 0.3 0.1 0.4 0 3.8-0.8 7.6-4.2 9.5-9.2 0.7-1.8 1.1-3.6 1.2-5.4 0.9 1.4 2.1 2.7 3.6 3.9 4.1 3.4 9.1 4.6 12.8 3.3 0.1 0 0.2-0.1 0.2-0.1 0.1-0.1 0.1-0.2 0.1-0.3l-0.1-3.7c0-0.6 0.4-1.1 1-1.2l3.3-0.4c0.2 0 0.3-0.1 0.4-0.3 0.2 0 0.3-0.1 0.3-0.2zm-16.2-7.7c-1.1 0.3-2.2-0.3-2.5-1.4 0-0.2-0.1-0.4-0.1-0.5l-3.5-2.5c-0.7 0.5-1.6 0.7-2.5 0.5l-1.8 3.7 0.1 0.1c0.5 1 0 2.2-1 2.7s-2.2 0-2.7-1 0-2.2 1-2.7c0.2-0.1 0.5-0.2 0.7-0.2l1.7-3.5c-0.7-0.6-1.2-1.4-1.3-2.3l-4.3-0.2c-0.1 0.1-0.1 0.2-0.2 0.3-0.7 0.8-2 0.9-2.8 0.2s-0.9-2-0.2-2.8 2-0.9 2.8-0.2l0.4 0.4 4.5 0.2c0.3-0.7 0.8-1.3 1.4-1.7l-1.3-3.6c-0.1 0-0.2 0-0.3-0.1-1-0.4-1.6-1.5-1.2-2.6s1.5-1.6 2.6-1.2c1 0.4 1.6 1.5 1.2 2.6-0.1 0.2-0.2 0.3-0.3 0.5l1.3 3.8c0.5 0 0.9 0.1 1.4 0.2 0.4 0.1 0.7 0.3 1 0.6l3.4-2.4v-0.3c0.1-1.1 1-2 2.1-1.9s2 1 1.9 2.1-1 2-2.1 1.9c-0.2 0-0.4-0.1-0.5-0.1l-3.4 2.4c0.3 0.8 0.3 1.7 0 2.6 0 0.1-0.1 0.2-0.1 0.4l3.2 2.3c0.1 0 0.2-0.1 0.3-0.1 1.1-0.3 2.2 0.3 2.5 1.4 0.3 1-0.3 2.1-1.4 2.4z"/><path class="st0" d="m449.6 339.9c1.4-3.1 0.9-7.4-1.6-11.2-0.9-1.4-2-2.6-3.2-3.5 1.4 0.1 3-0.1 4.5-0.5 4.4-1.2 7.8-4 8.8-7.3v-0.2c0-0.1-0.1-0.2-0.2-0.2l-2.6-1.8c-0.4-0.3-0.6-0.8-0.3-1.3l1.4-2.5c0.1-0.1 0.1-0.3 0.1-0.4s-0.1-0.2-0.2-0.3c-2.5-2.3-6.8-3.1-11.2-1.9-1.6 0.4-3.1 1.1-4.3 1.9 0.5-1.4 0.8-2.9 0.9-4.4 0.2-4.6-1.4-8.6-4.2-10.6-0.1 0-0.1-0.1-0.2-0.1s-0.2 0-0.3 0.1l-2.5 2c-0.4 0.3-1 0.3-1.3-0.1l-2-2.1c-0.1-0.1-0.2-0.2-0.4-0.2-0.1 0-0.2 0-0.3 0.1-2.9 1.7-5.1 5.5-5.3 10-0.1 1.7 0.1 3.3 0.5 4.7-1.1-0.9-2.5-1.7-3.9-2.2-4.3-1.6-8.7-1.3-11.3 0.7-0.1 0-0.1 0.1-0.1 0.2v0.3l1.1 3c0.2 0.5 0 1-0.5 1.2l-2.6 1.2-0.3 0.3c0 0.1-0.1 0.2 0 0.3 0.7 3.3 3.6 6.5 7.9 8.1 1.6 0.6 3.1 0.9 4.6 1-1.2 0.8-2.3 1.8-3.3 3.1-2.9 3.6-3.9 7.8-2.8 11 0 0.1 0.1 0.1 0.1 0.2 0.1 0.1 0.2 0.1 0.3 0.1l3.2-0.1c0.5 0 0.9 0.3 1 0.8l0.4 2.9c0 0.2 0.1 0.3 0.2 0.4s0.2 0.1 0.3 0.1c3.3 0.4 7.3-1.5 10.2-5 1.1-1.3 1.8-2.7 2.4-4.1 0.4 1.4 1 2.8 1.9 4.1 2.5 3.8 6.2 6.1 9.6 6.1 0.1 0 0.1 0 0.2-0.1l0.2-0.2 0.9-3c0.1-0.5 0.6-0.8 1.1-0.7l2.8 0.5c0.2 0 0.3 0 0.4-0.1-0.2-0.2-0.1-0.2-0.1-0.3zm-11.2-10.5c-1 0-1.7-0.9-1.6-1.8 0-0.2 0-0.3 0.1-0.5l-2.2-3c-0.7 0.2-1.5 0.1-2.2-0.2l-2.4 2.5v0.1c0.1 0.9-0.5 1.8-1.5 1.9-0.9 0.1-1.8-0.5-1.9-1.5-0.1-0.9 0.5-1.8 1.5-1.9h0.6l2.3-2.5c-0.4-0.7-0.6-1.4-0.5-2.2l-3.4-1.3-0.2 0.2c-0.8 0.5-1.9 0.2-2.4-0.6s-0.2-1.9 0.6-2.4 1.9-0.2 2.4 0.6c0.1 0.1 0.1 0.3 0.2 0.4l3.6 1.3c0.4-0.5 1-0.9 1.6-1.1l-0.1-3.3c-0.1 0-0.2-0.1-0.2-0.1-0.8-0.6-0.9-1.7-0.3-2.4 0.6-0.8 1.7-0.9 2.4-0.3s0.9 1.7 0.3 2.4l-0.3 0.3 0.1 3.4c0.4 0.1 0.7 0.3 1.1 0.5 0.3 0.2 0.5 0.5 0.7 0.7l3.4-1.1c0-0.1 0-0.2 0.1-0.3 0.3-0.9 1.3-1.3 2.2-1s1.3 1.3 1 2.2-1.3 1.3-2.2 1c-0.2-0.1-0.3-0.1-0.4-0.2l-3.5 1.1c0 0.7-0.2 1.5-0.7 2.1-0.1 0.1-0.1 0.2-0.2 0.3l2 2.8h0.3c1 0 1.7 0.9 1.6 1.8-0.1 1.4-0.9 2.1-1.9 2.1z"/><path class="st0" d="m271.3 598.9c0.4-1.3 0.3-2.5-0.6-3.5-1.1-1.3-2.6-1.9-4.1-2.3-3.4-0.9-6.8-0.6-10.1-0.2-4.3 0.5-8.3 2-12.2 3.8-4.5 2.2-8.5 4.7-12.5 7.8-0.6-5.5-1.9-10.7-3.9-15.9-2.1-5.3-4.9-9.9-9-13.9-1.7-1.6-3.5-3-5.8-3.8-2-0.7-3.8-0.2-4.9 1.4-0.5 0.7-0.8 1.6-1 2.5-0.5 2.1-0.6 4.3-0.7 6.3-0.1 2.9-0.2 5.8-1.1 8.7-0.4 1.4-0.6 3.1-0.2 4.6 0.3 1.5 1.2 2.5 2.5 3.1 0.7 0.2 1.3 0.6 2.1 1-0.2 0-0.3 0.1-0.4 0.1-1.8 0.4-3.5 1-5.1 2-0.8 0.4-1.3 1.1-1.7 2s-0.7 1.8-1.1 2.5c-0.5 0.9-0.6 1.7-0.6 2.6 0.1 0.3 0.1 0.6-0.1 0.9-0.3 0.8-0.5 1.5-0.8 2.3-0.4 0.9-0.3 1.7 0.5 2.4 0.8 0.8 1.3 1.8 1.4 2.9 0.1 1.2 0.6 2 1.5 2.7 0.5 0.4 0.9 0.8 1.2 1.3 0.6 1.3 1.6 1.9 2.9 2.2 0.5 0.1 1 0.2 1.4 0.6 0.8 0.6 1.8 0.7 2.8 0.7 0.8 0.1 1.6 0 2.4-0.1 1.2-0.1 2.2-0.5 3.2-1.1 3.5-2.3 6.9-4.8 10.2-7.3 0.7 4 1.2 8 2 12 0.1 0.4 0.2 1 0.4 1.4 0.7 1.6 1.9 2.9 3.3 4 0.4 0.3 0.9 0.5 1.3 0.8 0.6 0.3 1.2 0.5 1.8 0.8 1.1 0.5 2.1 0.9 3.4 0.5 0.6-0.2 1.3-0.2 2-0.2 1.2 0.1 2.1-0.2 3.1-0.9 0.5-0.4 0.9-0.6 1.5-0.8s1.2-0.2 1.8-0.3c0.7 0 1.1-0.3 1.4-0.9 0.4-0.8 0.7-1.5 1.2-2.3 0.2-0.4 0.5-0.9 0.8-1.1 0.9-0.6 1.3-1.4 1.6-2.5 0.2-0.6 0.4-1.3 0.8-1.9 0.4-0.7 0.6-1.3 0.5-2.1-0.3-2-1-3.9-2.1-5.5-0.1-0.2-0.2-0.4-0.4-0.7 1 0.3 1.8 0.6 2.6 0.8 1.1 0.3 2 0.2 3-0.2 1.9-0.9 3.1-2.6 4.1-4.4 0.8-1.4 1.7-2.7 2.8-3.9 1.5-1.7 3-3.3 4.5-5 1-0.9 1.8-2.4 2.4-3.9z"/><path class="st0" d="m573.3 281.1c-0.5-0.4-0.5-0.9-0.3-1.4 0.3-1-0.1-1.7-0.8-2.3-0.6-0.5-0.9-1-1-1.8-0.2-1.1-0.8-1.8-1.8-2.1-1.2-0.4-2.3-0.8-3.6-1-1.8-0.4-3.6-0.6-5.4-0.4-0.7 0.1-1.5 0.1-2.4 0.3l0.4-0.4c2.7-2.2 4.1-5.2 4.6-8.5 0.6-3.9-0.1-7.6-1.2-11.3-1-3.3-2-6.7-3.5-9.9-0.8-1.9-1.8-4.1-4.2-3.9-1.1 0.1-2.1 0.6-2.9 1.4-1.2 1-2.1 2.2-2.9 3.5-1.2 2-2.1 4.2-2.7 6.5-0.1 0.3-0.2 0.5-0.3 0.8-1.6-1.6-3.2-3.3-5.2-4.4-0.5-0.3-1-0.5-1.6-0.5-0.7 0-1.4 0.3-1.8 0.8-1 1-1.5 2.3-1.8 3.7-0.5 2.5-0.5 5-0.2 7.6 0.4 3 1.2 5.9 2.2 8.7 1.5 4.1 3.5 8 5.6 11.8 0.5 0.8 1 1.6 1.5 2.5 0.1 0.1 0.1 0.1 0.2 0.3 0.4 0.7 0.8 1.3 1.2 2l1.2 2.1c0.1 0.2 0.3 0.5 0.3 0.7 1.9 0.9 4.2 1.2 6.1 1.8 2.1 0.7 4 1.6 5.9 2.5 1.5 0.5 3 0.8 4.6 0.5 0.5-0.1 1-0.3 1.4-0.6 0.2-0.1 0.3-0.3 0.5-0.3 0.3-0.1 0.6 0.1 0.8 0.1 0.3 0.1 0.7 0.1 1 0.1 0.7 0 1.4-0.1 2.2-0.3 1.6-0.5 2.8-1.6 3.7-2.9 0.5-0.7 0.5-0.6 0.6-1 0.1-0.5 0.3-0.8 0.3-1 0.4-1.6 0.4-2.8-0.7-3.7z"/><path class="st0" d="m239.9 496.1c0.1 0.2 0.2 0.5 0.3 0.9 0.1 0.3 0.1 0.3 0.5 0.8 0.8 1.1 1.7 2 3.1 2.4 0.6 0.2 1.2 0.2 1.8 0.2 0.3 0 0.5-0.1 0.8-0.1 0.2-0.1 0.5-0.2 0.7-0.1s0.3 0.2 0.4 0.3c0.4 0.3 0.8 0.4 1.2 0.5 1.4 0.2 2.6 0 3.9-0.4 1.6-0.8 3.2-1.5 4.9-2.1 1.6-0.5 3.5-0.7 5.1-1.5 0.1-0.2 0.2-0.4 0.3-0.5 0.3-0.6 0.7-1.1 1-1.7 0.3-0.5 0.7-1.1 1-1.6 0.1-0.1 0.1-0.2 0.2-0.2 0.4-0.7 0.9-1.4 1.3-2.1 1.8-3.2 3.4-6.4 4.7-9.8 0.8-2.4 1.5-4.8 1.8-7.3 0.3-2.1 0.3-4.2-0.2-6.3-0.2-1.1-0.7-2.2-1.5-3-0.4-0.4-0.9-0.7-1.5-0.7-0.5 0-0.9 0.2-1.4 0.4-1.7 0.9-3 2.4-4.4 3.7-0.1-0.2-0.2-0.4-0.3-0.7-0.5-1.9-1.3-3.7-2.3-5.4-0.7-1.1-1.4-2.1-2.4-2.9-0.7-0.7-1.5-1.1-2.4-1.1-2-0.2-2.8 1.7-3.5 3.3-1.3 2.7-2 5.5-2.9 8.3-1 3.1-1.5 6.2-1 9.4 0.4 2.8 1.6 5.3 3.9 7.1l0.3 0.3c-0.8-0.1-1.4-0.2-2-0.2-1.5-0.2-3 0-4.5 0.3-1 0.2-2 0.5-3 0.9-0.8 0.3-1.4 0.8-1.5 1.7-0.1 0.6-0.4 1.1-0.9 1.5-0.6 0.5-0.9 1.1-0.7 1.9 0.2 0.4 0.1 0.9-0.3 1.2-0.9 0.6-1 1.5-0.5 2.6z"/><path class="st0" d="m356.6 275.3c0.1 0.3 0.2 0.6 0.3 1s0.1 0.3 0.6 1c0.9 1.3 2.1 2.3 3.7 2.9 0.7 0.2 1.4 0.3 2.2 0.3 0.3 0 0.7-0.1 1-0.1 0.3-0.1 0.6-0.2 0.8-0.1s0.3 0.2 0.5 0.3c0.5 0.3 0.9 0.5 1.4 0.6 1.6 0.3 3.1 0 4.6-0.5 2-0.9 3.9-1.8 5.9-2.5 2-0.6 4.2-0.8 6.1-1.8 0.1-0.2 0.2-0.5 0.3-0.7l1.2-2.1c0.4-0.7 0.8-1.3 1.2-2 0.1-0.1 0.1-0.2 0.2-0.3 0.5-0.8 1-1.6 1.5-2.5 2.2-3.8 4.1-7.7 5.6-11.8 1-2.9 1.8-5.7 2.2-8.7 0.3-2.5 0.3-5-0.2-7.6-0.3-1.3-0.8-2.7-1.8-3.7-0.5-0.5-1.1-0.8-1.8-0.8-0.6 0-1.1 0.3-1.6 0.5-2 1.1-3.6 2.9-5.2 4.4-0.1-0.3-0.3-0.5-0.3-0.8-0.7-2.3-1.6-4.4-2.7-6.5-0.8-1.3-1.7-2.5-2.9-3.5-0.8-0.8-1.8-1.3-2.9-1.4-2.4-0.2-3.4 2-4.2 3.9-1.5 3.2-2.4 6.6-3.5 9.9-1.2 3.7-1.8 7.4-1.2 11.3 0.5 3.4 1.9 6.4 4.6 8.5l0.4 0.4c-0.9-0.1-1.7-0.2-2.4-0.3-1.8-0.2-3.7 0-5.4 0.4-1.2 0.3-2.4 0.7-3.6 1-1 0.3-1.6 1-1.8 2.1-0.1 0.7-0.5 1.3-1 1.8-0.7 0.6-1 1.3-0.8 2.3 0.2 0.5 0.1 1-0.3 1.4-1.2 1.2-1.2 2.4-0.7 3.7z"/><path class="st0" d="m243.4 362.1c1.1-3.7-0.2-8.7-3.7-12.7-1.3-1.5-2.7-2.6-4.2-3.5 1.7-0.2 3.4-0.6 5.1-1.4 4.9-2.1 8.3-6 8.9-9.8v-0.2c0-0.1-0.1-0.2-0.2-0.2l-3.3-1.6c-0.5-0.3-0.8-0.9-0.6-1.4l1.2-3.2c0.1-0.2 0.1-0.4 0-0.5s-0.1-0.2-0.2-0.3c-3.2-2.2-8.3-2.5-13.2-0.4-1.8 0.8-3.4 1.8-4.7 3 0.3-1.6 0.5-3.4 0.3-5.3-0.5-5.3-3.1-9.7-6.6-11.5-0.1 0-0.2-0.1-0.2 0-0.1 0-0.2 0.1-0.3 0.1l-2.5 2.7c-0.4 0.4-1.1 0.5-1.5 0.1l-2.6-2.1c-0.1-0.1-0.3-0.2-0.5-0.1-0.1 0-0.3 0.1-0.4 0.1-3.1 2.4-4.9 7.2-4.4 12.5 0.2 1.9 0.7 3.7 1.4 5.4-1.5-0.8-3.1-1.5-4.9-1.9-5.2-1.2-10.2 0-12.9 2.7-0.1 0.1-0.1 0.1-0.1 0.2v0.3l1.8 3.2c0.3 0.5 0.1 1.2-0.4 1.5l-2.8 1.9c-0.1 0.1-0.3 0.3-0.3 0.4v0.4c1.3 3.7 5.3 6.9 10.5 8.1 1.9 0.4 3.8 0.5 5.5 0.4-1.2 1.1-2.4 2.5-3.3 4.1-2.7 4.6-3.2 9.7-1.4 13.2 0 0.1 0.1 0.1 0.2 0.2s0.2 0.1 0.3 0.1l3.6-0.7c0.6-0.1 1.1 0.2 1.3 0.8l0.9 3.2c0 0.2 0.2 0.3 0.3 0.4s0.2 0.1 0.4 0.1c3.9-0.1 8.2-2.9 10.9-7.5 1-1.7 1.7-3.4 2-5.1 0.7 1.5 1.6 3 2.9 4.4 3.5 4 8.2 6 12.1 5.4 0.1 0 0.2-0.1 0.2-0.1 0.1-0.1 0.1-0.2 0.2-0.3l0.5-3.6c0.1-0.6 0.6-1 1.2-1l3.4 0.1c0.2 0 0.4-0.1 0.5-0.2-0.5-0.1-0.4-0.2-0.4-0.4zm-14.6-10.2c-1.1 0.1-2.1-0.7-2.2-1.8v-0.5l-3-3.1c-0.8 0.3-1.7 0.4-2.6 0.1l-2.3 3.3c0 0.1 0 0.1 0.1 0.2 0.3 1.1-0.3 2.2-1.4 2.5s-2.2-0.3-2.5-1.4 0.3-2.2 1.4-2.5c0.2-0.1 0.5-0.1 0.7-0.1l2.3-3.2c-0.6-0.7-0.9-1.5-0.9-2.4l-4.2-0.9c-0.1 0.1-0.1 0.2-0.2 0.2-0.9 0.7-2.1 0.6-2.8-0.3s-0.6-2.1 0.3-2.8 2.1-0.6 2.8 0.3c0.1 0.1 0.2 0.3 0.3 0.5l4.4 0.9c0.4-0.7 1-1.2 1.7-1.5l-0.7-3.8c-0.1 0-0.2-0.1-0.3-0.1-1-0.5-1.3-1.8-0.8-2.7 0.5-1 1.8-1.3 2.7-0.8s1.3 1.8 0.8 2.7c-0.1 0.2-0.2 0.3-0.3 0.4l0.7 3.9c0.5 0.1 0.9 0.2 1.3 0.4s0.7 0.4 0.9 0.7l3.7-1.8v-0.3c0.2-1.1 1.3-1.8 2.4-1.5 1.1 0.2 1.8 1.3 1.5 2.4-0.2 1.1-1.3 1.8-2.4 1.5-0.2 0-0.4-0.1-0.5-0.2l-3.8 1.9c0.2 0.9 0 1.8-0.4 2.6-0.1 0.1-0.1 0.2-0.2 0.3l2.8 2.8c0.1 0 0.2-0.1 0.3-0.1 1.1-0.1 2.1 0.7 2.2 1.8 0.1 1.3-0.7 2.3-1.8 2.4z"/><path class="st1" d="m492.3 320.7c-0.5 0.1-1-0.4-1.3-0.9-2.7-3.8-5.4-7.6-8.2-11.4-3.2-4.5-8.4-8.1-13.2-10.9-5.1-3-10.7-5.2-16.4-6.3s-11.5 0-17.2 0.6c-5.5 0.5-10.7-0.5-15.8-2.5-2.1-0.8-4.1-1.7-6.1-2.5-3.8-1.5-7.5-2.6-11.6-1.7-3.4 0.7-6.4 2.5-9.2 4.4-5.7 4.1-10.3 9.4-15.3 14.3-3.9 3.9-7.9 8-12 11.9 4.3-0.7 8.9-0.3 13.9 1.3 10.3 3.3 20.5 6.8 31.1 9.2 0.5 0.1 0.5 0.9 0 1-9 1.6-17.7-0.6-26.4-3.2-5.4-1.7-10.9-3.7-16.7-3.2-4 0.4-7.8 2.2-11.7 3.1-1.6 1.2-3.2 2.3-4.9 3.3-0.5 0.2-0.9 0.4-1.4 0.6-1.1 0.5-2.2 1.1-3.3 1.7s-2.1 1.4-3 2.2c-0.6 0.6-1.2 1.3-1.5 2-0.3-0.8-0.6-1.5-1-2.2-1-2.1-2.4-4.4-4.4-5.8 1.1-0.6 2.1-1.2 3.1-2 2-1.5 4-3.4 4.1-6v-0.1c3.8-2 7.4-4.4 10.9-7.1 10.2-7.9 19-17.6 29.3-25.5 2.2-1.7 4.6-3.4 7.1-4.8 8-6 17.1-7.1 27-7.8 9.7-0.7 20.9 0 29.8-4.6 1.1-0.6 1.9 1.1 1 1.8-7.1 5.8-16.3 7.3-25.1 8.9-1.7 0.3-3.4 0.6-5 0.8 1.4 0.6 2.8 1.2 4.2 1.7 4.7 1.9 9.7 1.5 14.6 2.1 5.3 0.6 10.7 1.6 15.9 2.9 4.3 1.1 9 2 13 3.9 5.1 2.4 10.1 6.1 14.3 9.7 2.3 2 4.4 4.2 6.1 6.7 1.2 1.7 2.2 3.6 3 5.5 1.2 2.9 1.8 5.9 2.3 8.9zm-301.5 23.2c-4 3.4-7.8 7-11.6 10.6 1.2-2.1 2.3-4.3 3.4-6.5v-0.2c0.5-1.3 1-2.6 1.4-3.9 0.8-2.8 1.1-5.7 1.7-8.5 1.3-6.5 2.8-12.8 4.7-19.1 0.3-1.5 0.8-3 1.3-4.4-0.3 0.1-0.7 0.1-1 0.2-0.9 0.2-1.7 0.5-2.6 0.8-3.1 5.1-5.7 10.5-7.8 16.1-2.3 6-4.2 12.1-7.3 17.7-1.1 3.5-2.4 6.9-4 10.1-3.1 6.5-7.5 12-13.8 15.6-3 1.7-6.2 3-9.4 4.2-1.6 0.6-3.3 1.2-4.9 1.7-1.8 0.5-3.7 0.7-5.6 0.8s-3.8 0.4-5.6 1.1c-1.7 0.7-3.3 1.5-4.8 2.3-3.1 1.6-6.1 3.6-8.8 5.7-3.2 2.5-6.1 5.3-8.8 8.3-3.8 5.5-6.7 11.6-8.3 18-2.7 11-0.7 23 2.3 33.7 0.8 2.8 5.6 2.2 5.7-0.7 0.3-9.7 2.6-18.7 5.8-27.8 3.1-8.5 6.8-16.4 13.9-22.2 5.4-4.4 11.2-6.3 17.3-7.7 0.5-0.2 1.1-0.5 1.6-0.7 6.7-2.9 13.5-5.4 20-8.5 3.1-1.5 6.2-3.1 9.1-5 1.9-1.2 3.6-2.7 5.2-4.3 1.7-1 3.4-2 5-3.1 3.3-2.2 6.2-4.8 9.3-7.3 0.3-0.1 0.6-0.1 0.9-0.2 1.1-0.8 2.3-1.6 3.6-2.2 0.2-1.2 0.5-2.4 1-3.5 0.4-1.1 1-2.2 1.6-3.2-4.8-1-8.8-3.6-10.5-7.9zm147 29.9c-7 1.6-14-0.3-20.9-1.5-5.6-1-11.1-2-16.5-3.8-6.8-2.3-13.2-5.4-19.8-8.3 0.5 0 1 0.1 1.6 0.1 10.8 0.5 21.2 2.1 32 0.4 0.3-0.1 0.2-0.5-0.1-0.6-11-0.7-21.7-4.2-32.8-5-5.8-0.4-11.4-0.8-17-2.4-2.7-0.8-5.4-1.4-8.2-1.2-1.8 0.1-4.7-1.5-6.5-2.1-2.4-0.8-4.9-1.5-7.3-2.2-0.6-0.2-1.3-0.3-1.9-0.5 2.8 3.1 4.7 7.1 6 11.2 9.5 1.4 18.9 2.6 28.2 5.8 10.6 3.6 20.7 8.7 31.8 10.6 9.9 1.7 22.1 3.8 31.8 0.6 0.6-0.3 0.3-1.3-0.4-1.1zm-89.4-48.2c1 0.3 1.6 1.5 1.3 2.5-0.3 1.1-0.7 2.1-1 3.2 0.4 0.2 0.7 0.5 1.1 0.7 10.8-2.8 21.5-4.1 32.3-4.2 0.2-0.1 0.3-0.2 0.5-0.3 0.1-0.1 0.2-0.1 0.3-0.2 0 0 0.1 0 0.1-0.1 0.2-0.1 0.3-0.3 0.5-0.4l0.5-0.5c0.1-0.1 0.1-0.2 0.2-0.3l0.1-0.1c0.1-0.1 0.1-0.2 0.2-0.3v-0.3c0-0.8-0.6-1.5-0.8-2.2-0.2-0.8-0.1-1.7 0.2-2.4 1-3.1 4.1-5.1 7.1-6.1 0.4-0.2 0.8-0.3 1.3-0.5-2.2-0.3-4.5-0.7-6.7-0.9-3.8-0.3-7.7-0.1-11.4 0.5-3.3 0.5-6.5 1.3-9.6 2.3s-6.1 2.1-9.3 2.8l0.1-0.1c4.1-3.5 7.8-7.4 10.9-11.8 4-3.3 7.9-6.9 11.3-10.9 3.9-4.5 6.4-9.7 9.7-14.6 0.4-0.6-0.5-1.2-1-0.7-4 4-7.3 8.7-11.3 12.7-4.4 4.3-9.3 8.3-14.3 11.9-9 6.7-18.5 12.9-28.1 18.6 5-1.4 10.7-1.7 15.3 0.9 0.1 0.4 0.3 0.6 0.5 0.8z"/></g></svg>
