<?xml version="1.0" standalone="no"?>
<!DOCTYPE svg PUBLIC "-//W3C//DTD SVG 1.1//EN" "http://www.w3.org/Graphics/SVG/1.1/DTD/svg11.dtd">
<svg width="260mm" height="711mm" viewBox="300 -711 260 711" xmlns="http://www.w3.org/2000/svg" version="1.1">
<title>OpenSCAD Model</title>
<path d="
M 417.835,-66.3285 L 419.693,-66.3314 L 421.397,-66.3392 L 422.961,-66.3544 L 424.399,-66.3795 L 425.726,-66.417
 L 426.957,-66.4693 L 428.105,-66.5388 L 429.185,-66.6281 L 430.212,-66.7397 L 431.201,-66.8759 L 432.165,-67.0393
 L 433.119,-67.2323 L 434.078,-67.4575 L 435.056,-67.7172 L 436.067,-68.0139 L 437.127,-68.3502 L 438.248,-68.7284
 L 439.447,-69.1511 L 440.737,-69.6207 L 442.278,-70.2592 L 443.797,-70.9043 L 445.291,-71.5558 L 446.758,-72.2134
 L 448.197,-72.8765 L 449.606,-73.545 L 450.983,-74.2184 L 452.327,-74.8964 L 453.635,-75.5786 L 454.907,-76.2647
 L 456.14,-76.9543 L 457.332,-77.6471 L 458.481,-78.3427 L 459.587,-79.0408 L 460.647,-79.741 L 461.659,-80.443
 L 462.622,-81.1463 L 463.534,-81.8508 L 464.392,-82.5559 L 465.196,-83.2614 L 471.268,-88.6635 L 476.921,-94.5024
 L 482.124,-100.746 L 486.848,-107.359 L 491.067,-114.306 L 494.127,-120.396 L 496.616,-126.741 L 498.513,-133.287
 L 499.803,-139.979 L 500.474,-146.761 L 502.11,-160.636 L 502.02,-174.606 L 500.205,-188.459 L 496.693,-201.981
 L 491.537,-214.965 L 490.126,-218.728 L 494.404,-214.329 L 498.352,-209.632 L 501.95,-204.661 L 505.178,-199.443
 L 510.822,-190.506 L 514.585,-184.861 L 515.21,-183.828 L 515.813,-182.842 L 516.397,-181.904 L 516.96,-181.012
 L 517.503,-180.165 L 518.027,-179.362 L 518.532,-178.603 L 519.018,-177.885 L 519.486,-177.208 L 519.936,-176.571
 L 520.368,-175.973 L 520.783,-175.413 L 521.181,-174.889 L 521.562,-174.401 L 521.927,-173.947 L 522.277,-173.527
 L 522.61,-173.14 L 522.929,-172.784 L 523.233,-172.458 L 523.522,-172.161 L 523.845,-171.869 L 524.243,-171.56
 L 524.707,-171.237 L 525.227,-170.905 L 525.793,-170.567 L 526.397,-170.227 L 527.028,-169.889 L 527.677,-169.557
 L 528.334,-169.236 L 528.99,-168.928 L 529.636,-168.637 L 530.262,-168.368 L 530.858,-168.125 L 531.415,-167.911
 L 531.923,-167.73 L 532.373,-167.586 L 532.755,-167.483 L 533.06,-167.424 L 533.278,-167.415 L 533.4,-167.458
 L 533.467,-167.599 L 533.526,-167.744 L 533.575,-167.894 L 533.614,-168.052 L 533.643,-168.222 L 533.658,-168.406
 L 533.661,-168.607 L 533.648,-168.827 L 533.621,-169.071 L 533.576,-169.339 L 533.514,-169.636 L 533.434,-169.964
 L 533.333,-170.326 L 533.212,-170.724 L 533.069,-171.162 L 532.903,-171.642 L 532.713,-172.168 L 532.498,-172.741
 L 532.257,-173.365 L 531.989,-174.043 L 527.756,-190.976 L 526.815,-196.621 L 526.815,-216.376 L 529.167,-234.25
 L 529.435,-236.214 L 529.677,-238.022 L 529.893,-239.689 L 530.085,-241.227 L 530.254,-242.651 L 530.403,-243.974
 L 530.531,-245.211 L 530.642,-246.375 L 530.735,-247.479 L 530.813,-248.538 L 530.877,-249.565 L 530.928,-250.574
 L 530.967,-251.579 L 530.997,-252.593 L 531.019,-253.631 L 531.033,-254.706 L 531.042,-255.831 L 531.046,-257.021
 L 531.048,-258.29 L 531.048,-259.65 L 531.256,-265.845 L 530.98,-272.038 L 530.223,-278.19 L 528.989,-284.265
 L 527.285,-290.224 L 525.404,-295.869 L 525.104,-296.736 L 524.773,-297.639 L 524.413,-298.572 L 524.026,-299.53
 L 523.618,-300.506 L 523.19,-301.495 L 522.745,-302.49 L 522.288,-303.485 L 521.821,-304.475 L 521.347,-305.453
 L 520.869,-306.413 L 520.391,-307.35 L 519.916,-308.257 L 519.447,-309.128 L 518.988,-309.958 L 518.54,-310.74
 L 518.108,-311.469 L 517.695,-312.138 L 517.303,-312.741 L 516.937,-313.273 L 515.996,-315.154 L 515.924,-315.35
 L 515.715,-315.649 L 515.38,-316.041 L 514.931,-316.516 L 514.379,-317.065 L 513.736,-317.677 L 513.012,-318.343
 L 512.218,-319.052 L 511.367,-319.796 L 510.469,-320.563 L 509.536,-321.345 L 508.579,-322.131 L 507.61,-322.911
 L 506.639,-323.675 L 505.678,-324.414 L 504.738,-325.118 L 503.83,-325.777 L 502.966,-326.381 L 502.157,-326.92
 L 501.415,-327.384 L 501.069,-327.599 L 500.738,-327.82 L 500.423,-328.046 L 500.124,-328.275 L 499.842,-328.508
 L 499.578,-328.743 L 499.331,-328.978 L 499.104,-329.212 L 498.897,-329.446 L 498.71,-329.677 L 498.544,-329.904
 L 498.401,-330.127 L 498.279,-330.344 L 498.181,-330.554 L 498.108,-330.757 L 498.058,-330.951 L 498.034,-331.135
 L 498.037,-331.308 L 498.066,-331.469 L 498.122,-331.617 L 500.638,-332.819 L 503.124,-334.083 L 505.579,-335.407
 L 508,-336.791 L 508.685,-337.137 L 509.331,-337.471 L 509.94,-337.794 L 510.517,-338.108 L 511.065,-338.415
 L 511.586,-338.717 L 512.083,-339.016 L 512.561,-339.312 L 513.021,-339.609 L 513.468,-339.907 L 513.904,-340.209
 L 514.333,-340.516 L 514.758,-340.831 L 515.181,-341.154 L 515.607,-341.487 L 516.038,-341.833 L 516.477,-342.194
 L 516.928,-342.57 L 517.394,-342.963 L 517.878,-343.376 L 521.641,-347.61 L 526.815,-355.606 L 527.033,-355.909
 L 527.264,-356.251 L 527.505,-356.63 L 527.756,-357.043 L 528.013,-357.487 L 528.275,-357.96 L 528.541,-358.457
 L 528.809,-358.977 L 529.077,-359.517 L 529.343,-360.074 L 529.606,-360.645 L 529.863,-361.228 L 530.113,-361.819
 L 530.354,-362.415 L 530.585,-363.014 L 530.804,-363.613 L 531.008,-364.21 L 531.196,-364.801 L 531.367,-365.383
 L 531.519,-365.954 L 532.069,-367.532 L 532.59,-369.153 L 533.08,-370.803 L 533.539,-372.468 L 533.966,-374.134
 L 534.359,-375.788 L 534.718,-377.416 L 535.041,-379.004 L 535.327,-380.538 L 535.575,-382.005 L 535.785,-383.391
 L 535.955,-384.682 L 536.084,-385.865 L 536.171,-386.925 L 536.215,-387.848 L 536.215,-388.622 L 536.169,-389.232
 L 536.078,-389.665 L 535.939,-389.906 L 535.752,-389.943 L 535.614,-389.929 L 535.482,-389.886 L 535.354,-389.813
 L 535.229,-389.71 L 535.105,-389.575 L 534.981,-389.41 L 534.856,-389.211 L 534.728,-388.98 L 534.596,-388.714
 L 534.458,-388.414 L 534.313,-388.079 L 534.16,-387.708 L 533.997,-387.3 L 533.822,-386.854 L 533.635,-386.371
 L 533.434,-385.849 L 533.217,-385.287 L 532.983,-384.685 L 532.731,-384.042 L 532.459,-383.358 L 532.177,-382.391
 L 531.895,-381.465 L 531.613,-380.58 L 531.33,-379.734 L 531.048,-378.926 L 530.766,-378.155 L 530.484,-377.42
 L 530.201,-376.72 L 529.919,-376.054 L 529.637,-375.42 L 529.355,-374.819 L 529.073,-374.248 L 528.79,-373.706
 L 528.508,-373.193 L 528.226,-372.708 L 527.944,-372.249 L 527.661,-371.816 L 527.379,-371.407 L 527.097,-371.021
 L 526.815,-370.658 L 523.522,-366.895 L 523.317,-366.556 L 523.126,-366.244 L 522.946,-365.959 L 522.777,-365.698
 L 522.618,-365.462 L 522.468,-365.248 L 522.326,-365.056 L 522.19,-364.885 L 522.06,-364.734 L 521.935,-364.602
 L 521.813,-364.487 L 521.693,-364.389 L 521.575,-364.306 L 521.458,-364.238 L 521.339,-364.183 L 521.219,-364.14
 L 521.096,-364.109 L 520.97,-364.088 L 520.838,-364.076 L 520.7,-364.073 L 517.878,-362.661 L 517.522,-362.45
 L 517.16,-362.24 L 516.794,-362.031 L 516.425,-361.826 L 516.055,-361.625 L 515.685,-361.43 L 515.316,-361.24
 L 514.95,-361.058 L 514.588,-360.885 L 514.232,-360.721 L 513.883,-360.568 L 513.543,-360.426 L 513.212,-360.297
 L 512.893,-360.182 L 512.586,-360.082 L 512.294,-359.997 L 512.016,-359.93 L 511.756,-359.88 L 511.515,-359.85
 L 511.293,-359.839 L 508.47,-358.428 L 508.255,-358.287 L 508.034,-358.147 L 507.808,-358.01 L 507.579,-357.875
 L 507.346,-357.745 L 507.111,-357.62 L 506.876,-357.501 L 506.642,-357.39 L 506.408,-357.287 L 506.177,-357.193
 L 505.95,-357.111 L 505.727,-357.04 L 505.51,-356.981 L 505.3,-356.937 L 505.097,-356.907 L 504.903,-356.893
 L 504.719,-356.896 L 504.546,-356.917 L 504.385,-356.957 L 504.237,-357.017 L 504.096,-357.031 L 503.956,-357.071
 L 503.817,-357.134 L 503.68,-357.22 L 503.546,-357.326 L 503.416,-357.449 L 503.29,-357.587 L 503.168,-357.739
 L 503.053,-357.903 L 502.944,-358.075 L 502.841,-358.255 L 502.747,-358.439 L 502.661,-358.627 L 502.584,-358.815
 L 502.517,-359.001 L 502.461,-359.184 L 502.416,-359.362 L 502.383,-359.532 L 502.362,-359.691 L 502.356,-359.839
 L 502.345,-360.037 L 502.313,-360.207 L 502.259,-360.35 L 502.182,-360.468 L 502.084,-360.559 L 501.962,-360.627
 L 501.817,-360.67 L 501.648,-360.69 L 501.455,-360.687 L 501.238,-360.662 L 500.997,-360.617 L 500.73,-360.55
 L 500.438,-360.464 L 500.12,-360.359 L 499.776,-360.236 L 499.405,-360.095 L 499.008,-359.937 L 498.584,-359.763
 L 498.132,-359.573 L 497.652,-359.369 L 496.724,-359.02 L 495.775,-358.678 L 494.803,-358.344 L 493.81,-358.018
 L 492.794,-357.7 L 491.755,-357.392 L 490.693,-357.092 L 489.607,-356.802 L 488.497,-356.522 L 487.362,-356.253
 L 486.204,-355.993 L 485.02,-355.745 L 483.81,-355.508 L 482.575,-355.283 L 481.314,-355.069 L 480.026,-354.868
 L 478.712,-354.68 L 477.37,-354.505 L 476.001,-354.343 L 474.604,-354.195 L 466.607,-353.254 L 456.73,-353.254
 L 456.599,-353.392 L 456.492,-353.523 L 456.408,-353.647 L 456.35,-353.766 L 456.318,-353.879 L 456.315,-353.986
 L 456.341,-354.089 L 456.398,-354.187 L 456.488,-354.281 L 456.612,-354.371 L 456.771,-354.458 L 456.967,-354.541
 L 457.2,-354.621 L 457.474,-354.699 L 457.788,-354.775 L 458.145,-354.85 L 458.545,-354.922 L 458.99,-354.994
 L 459.482,-355.065 L 460.022,-355.135 L 460.913,-355.304 L 461.885,-355.526 L 462.927,-355.797 L 464.03,-356.114
 L 465.182,-356.473 L 466.372,-356.871 L 467.591,-357.305 L 468.828,-357.77 L 470.071,-358.263 L 471.311,-358.781
 L 472.537,-359.32 L 473.738,-359.877 L 474.904,-360.448 L 476.024,-361.029 L 477.088,-361.618 L 478.084,-362.21
 L 479.003,-362.802 L 479.834,-363.391 L 480.566,-363.972 L 481.189,-364.543 L 481.827,-365.05 L 482.47,-365.583
 L 483.115,-366.137 L 483.759,-366.71 L 484.401,-367.299 L 485.037,-367.9 L 485.666,-368.51 L 486.284,-369.126
 L 486.89,-369.745 L 487.48,-370.364 L 488.053,-370.979 L 488.606,-371.587 L 489.136,-372.186 L 489.641,-372.771
 L 490.119,-373.34 L 490.566,-373.89 L 490.981,-374.417 L 491.362,-374.919 L 491.704,-375.391 L 492.007,-375.832
 L 494.83,-379.595 L 495.129,-380.02 L 495.459,-380.581 L 495.818,-381.267 L 496.199,-382.067 L 496.601,-382.968
 L 497.018,-383.959 L 497.448,-385.029 L 497.885,-386.165 L 498.327,-387.356 L 498.769,-388.591 L 499.208,-389.857
 L 499.639,-391.143 L 500.059,-392.438 L 500.463,-393.73 L 500.849,-395.007 L 501.212,-396.257 L 501.548,-397.469
 L 501.853,-398.632 L 502.123,-399.733 L 502.356,-400.761 L 502.624,-402.15 L 502.864,-403.627 L 503.075,-405.185
 L 503.259,-406.812 L 503.414,-408.5 L 503.541,-410.24 L 503.64,-412.021 L 503.71,-413.834 L 503.753,-415.67
 L 503.767,-417.518 L 503.753,-419.371 L 503.71,-421.217 L 503.64,-423.048 L 503.541,-424.853 L 503.414,-426.624
 L 503.259,-428.351 L 503.075,-430.025 L 502.864,-431.635 L 502.624,-433.173 L 502.356,-434.628 L 502.285,-435.034
 L 502.214,-435.405 L 502.142,-435.741 L 502.07,-436.043 L 501.995,-436.311 L 501.92,-436.546 L 501.841,-436.747
 L 501.761,-436.916 L 501.678,-437.052 L 501.591,-437.156 L 501.501,-437.229 L 501.407,-437.27 L 501.309,-437.28
 L 501.206,-437.259 L 501.099,-437.208 L 500.986,-437.127 L 500.867,-437.016 L 500.743,-436.876 L 500.612,-436.707
 L 500.474,-436.51 L 499.063,-436.039 L 498.901,-436.012 L 498.702,-435.933 L 498.47,-435.807 L 498.209,-435.64
 L 497.924,-435.437 L 497.619,-435.201 L 497.3,-434.939 L 496.971,-434.654 L 496.636,-434.353 L 496.3,-434.04
 L 495.967,-433.72 L 495.642,-433.398 L 495.331,-433.078 L 495.036,-432.766 L 494.763,-432.467 L 494.517,-432.186
 L 494.302,-431.927 L 494.123,-431.696 L 493.983,-431.497 L 493.889,-431.335 L 493.719,-431.136 L 493.363,-430.829
 L 492.841,-430.426 L 492.169,-429.939 L 491.368,-429.381 L 490.456,-428.762 L 489.451,-428.095 L 488.372,-427.392
 L 487.239,-426.665 L 486.069,-425.926 L 484.881,-425.187 L 483.695,-424.461 L 482.528,-423.758 L 481.4,-423.091
 L 480.329,-422.472 L 479.334,-421.913 L 478.433,-421.426 L 477.646,-421.023 L 476.99,-420.716 L 476.485,-420.517
 L 467.548,-419.106 L 464.792,-418.87 L 462.165,-418.727 L 459.663,-418.678 L 457.279,-418.726 L 455.01,-418.871
 L 452.85,-419.114 L 450.795,-419.458 L 448.839,-419.904 L 446.977,-420.452 L 445.206,-421.105 L 443.518,-421.864
 L 441.911,-422.73 L 440.378,-423.704 L 438.916,-424.789 L 437.518,-425.985 L 436.18,-427.294 L 434.897,-428.717
 L 433.665,-430.256 L 432.477,-431.913 L 431.33,-433.687 L 429.448,-436.51 L 426.459,-442.408 L 424.052,-448.567
 L 422.248,-454.929 L 421.064,-461.435 L 420.511,-468.024 L 420.515,-468.977 L 420.525,-469.858 L 420.543,-470.667
 L 420.568,-471.404 L 420.599,-472.067 L 420.638,-472.656 L 420.684,-473.17 L 420.737,-473.609 L 420.797,-473.971
 L 420.864,-474.257 L 420.938,-474.465 L 421.019,-474.595 L 421.107,-474.645 L 421.203,-474.616 L 421.305,-474.507
 L 421.414,-474.316 L 421.531,-474.044 L 421.654,-473.689 L 421.785,-473.25 L 421.922,-472.728 L 424.274,-467.554
 L 427.74,-463.169 L 431.327,-458.882 L 435.033,-454.699 L 438.856,-450.621 L 439.795,-449.682 L 440.644,-448.838
 L 441.411,-448.086 L 442.103,-447.422 L 442.729,-446.843 L 443.296,-446.345 L 443.814,-445.925 L 444.289,-445.578
 L 444.731,-445.303 L 445.147,-445.094 L 445.545,-444.949 L 445.934,-444.863 L 446.321,-444.835 L 446.715,-444.859
 L 447.124,-444.932 L 447.556,-445.051 L 448.018,-445.213 L 448.52,-445.414 L 449.069,-445.649 L 449.674,-445.917
 L 449.946,-446.118 L 450.197,-446.301 L 450.429,-446.466 L 450.641,-446.617 L 450.835,-446.755 L 451.012,-446.882
 L 451.171,-447.001 L 451.315,-447.114 L 451.443,-447.222 L 451.556,-447.328 L 451.654,-447.434 L 451.74,-447.543
 L 451.813,-447.655 L 451.874,-447.774 L 451.923,-447.901 L 451.962,-448.039 L 451.991,-448.19 L 452.011,-448.355
 L 452.022,-448.538 L 452.026,-448.739 L 448.733,-456.736 L 445.911,-463.791 L 444.379,-467.946 L 443.229,-472.223
 L 442.47,-476.586 L 442.109,-481 L 442.148,-485.428 L 442.152,-486.714 L 442.162,-487.895 L 442.18,-488.98
 L 442.205,-489.978 L 442.236,-490.896 L 442.275,-491.744 L 442.321,-492.53 L 442.374,-493.263 L 442.434,-493.95
 L 442.501,-494.6 L 442.575,-495.223 L 442.656,-495.825 L 442.744,-496.416 L 442.84,-497.005 L 442.942,-497.599
 L 443.051,-498.207 L 443.168,-498.838 L 443.291,-499.5 L 443.422,-500.201 L 443.559,-500.95 L 445.441,-507.065
 L 445.911,-508.476 L 446.049,-508.804 L 446.179,-509.083 L 446.303,-509.314 L 446.419,-509.496 L 446.528,-509.63
 L 446.631,-509.717 L 446.726,-509.756 L 446.814,-509.748 L 446.895,-509.694 L 446.969,-509.593 L 447.036,-509.447
 L 447.096,-509.255 L 447.149,-509.018 L 447.195,-508.736 L 447.234,-508.41 L 447.266,-508.04 L 447.29,-507.626
 L 447.308,-507.168 L 447.319,-506.668 L 447.322,-506.124 L 447.407,-505.405 L 447.519,-504.657 L 447.659,-503.881
 L 447.826,-503.076 L 448.02,-502.244 L 448.241,-501.383 L 448.487,-500.494 L 448.76,-499.577 L 449.057,-498.631
 L 449.38,-497.658 L 449.728,-496.656 L 450.099,-495.626 L 450.495,-494.567 L 450.914,-493.481 L 451.357,-492.366
 L 451.823,-491.223 L 452.311,-490.052 L 452.821,-488.852 L 453.354,-487.625 L 453.907,-486.369 L 454.525,-485.278
 L 455.112,-484.26 L 455.67,-483.311 L 456.203,-482.425 L 456.715,-481.599 L 457.209,-480.827 L 457.69,-480.106
 L 458.16,-479.43 L 458.622,-478.795 L 459.081,-478.196 L 459.541,-477.629 L 460.003,-477.089 L 460.473,-476.572
 L 460.954,-476.073 L 461.448,-475.587 L 461.96,-475.11 L 462.493,-474.637 L 463.051,-474.164 L 463.638,-473.686
 L 464.256,-473.198 L 467.078,-470.847 L 470.37,-472.258 L 473.193,-473.198 L 473.193,-477.432 L 471.311,-487.31
 L 470.972,-489.186 L 470.662,-491.006 L 470.378,-492.767 L 470.122,-494.47 L 469.893,-496.114 L 469.69,-497.698
 L 469.513,-499.221 L 469.362,-500.683 L 469.236,-502.083 L 469.136,-503.42 L 469.06,-504.693 L 469.008,-505.902
 L 468.981,-507.047 L 468.977,-508.125 L 468.996,-509.138 L 469.038,-510.083 L 469.103,-510.961 L 469.19,-511.77
 L 469.299,-512.51 L 469.43,-513.18 L 469.726,-514.104 L 470.05,-515.041 L 470.4,-515.99 L 470.777,-516.95
 L 471.179,-517.92 L 471.606,-518.899 L 472.056,-519.886 L 472.53,-520.879 L 473.027,-521.878 L 473.545,-522.881
 L 474.085,-523.888 L 474.645,-524.898 L 475.225,-525.909 L 475.824,-526.92 L 476.441,-527.93 L 477.076,-528.939
 L 477.728,-529.945 L 478.396,-530.947 L 479.079,-531.944 L 479.778,-532.936 L 480.369,-533.657 L 481.009,-534.407
 L 481.689,-535.176 L 482.401,-535.957 L 483.137,-536.743 L 483.888,-537.524 L 484.648,-538.295 L 485.407,-539.047
 L 486.158,-539.771 L 486.892,-540.461 L 487.602,-541.109 L 488.278,-541.707 L 488.914,-542.247 L 489.501,-542.721
 L 490.03,-543.122 L 490.495,-543.442 L 490.886,-543.673 L 491.195,-543.807 L 491.415,-543.836 L 491.537,-543.754
 L 491.664,-543.676 L 491.763,-543.583 L 491.833,-543.473 L 491.876,-543.344 L 491.89,-543.195 L 491.876,-543.026
 L 491.833,-542.834 L 491.763,-542.618 L 491.664,-542.376 L 491.537,-542.108 L 491.382,-541.811 L 491.198,-541.485
 L 490.987,-541.128 L 490.747,-540.738 L 490.479,-540.314 L 490.182,-539.856 L 489.858,-539.36 L 489.505,-538.826
 L 489.124,-538.253 L 488.715,-537.639 L 488.13,-536.731 L 487.509,-535.709 L 486.858,-534.585 L 486.182,-533.372
 L 485.488,-532.083 L 484.782,-530.73 L 484.069,-529.327 L 483.356,-527.886 L 482.649,-526.419 L 481.953,-524.939
 L 481.275,-523.46 L 480.621,-521.993 L 479.996,-520.551 L 479.407,-519.148 L 478.859,-517.795 L 478.359,-516.506
 L 477.913,-515.294 L 477.526,-514.17 L 477.205,-513.147 L 476.956,-512.239 L 476.825,-511.698 L 476.715,-511.067
 L 476.626,-510.357 L 476.557,-509.579 L 476.507,-508.741 L 476.477,-507.853 L 476.466,-506.927 L 476.474,-505.97
 L 476.5,-504.994 L 476.544,-504.008 L 476.606,-503.022 L 476.685,-502.045 L 476.781,-501.089 L 476.893,-500.162
 L 477.022,-499.275 L 477.166,-498.437 L 477.326,-497.658 L 477.502,-496.948 L 477.692,-496.318 L 477.896,-495.776
 L 478.108,-495.407 L 478.318,-495.006 L 478.527,-494.578 L 478.732,-494.128 L 478.933,-493.66 L 479.128,-493.177
 L 479.317,-492.684 L 479.499,-492.186 L 479.673,-491.687 L 479.837,-491.19 L 479.99,-490.7 L 480.131,-490.222
 L 480.26,-489.759 L 480.376,-489.316 L 480.476,-488.897 L 480.56,-488.506 L 480.628,-488.148 L 480.678,-487.826
 L 480.708,-487.545 L 480.719,-487.31 L 481.659,-483.547 L 482.6,-478.843 L 484.011,-475.08 L 484.082,-474.808
 L 484.152,-474.557 L 484.223,-474.325 L 484.293,-474.113 L 484.364,-473.919 L 484.434,-473.742 L 484.505,-473.583
 L 484.576,-473.439 L 484.646,-473.311 L 484.717,-473.198 L 484.787,-473.1 L 484.858,-473.014 L 484.928,-472.941
 L 484.999,-472.88 L 485.069,-472.831 L 485.14,-472.792 L 485.211,-472.763 L 485.281,-472.743 L 485.352,-472.732
 L 485.422,-472.728 L 485.493,-472.792 L 485.563,-472.842 L 485.632,-472.879 L 485.701,-472.905 L 485.768,-472.919
 L 485.833,-472.923 L 485.896,-472.917 L 485.957,-472.901 L 486.014,-472.877 L 486.069,-472.846 L 486.12,-472.807
 L 486.167,-472.762 L 486.21,-472.711 L 486.249,-472.656 L 486.282,-472.596 L 486.31,-472.532 L 486.333,-472.466
 L 486.349,-472.398 L 486.359,-472.328 L 486.363,-472.258 L 486.44,-471.905 L 486.53,-471.554 L 486.632,-471.206
 L 486.743,-470.862 L 486.863,-470.523 L 486.989,-470.192 L 487.122,-469.869 L 487.259,-469.556 L 487.398,-469.254
 L 487.539,-468.965 L 487.68,-468.69 L 487.819,-468.431 L 487.956,-468.188 L 488.088,-467.964 L 488.215,-467.76
 L 488.335,-467.577 L 488.446,-467.416 L 488.547,-467.279 L 488.637,-467.168 L 488.715,-467.084 L 488.715,-466.143
 L 489.185,-466.143 L 490.126,-467.084 L 490.264,-467.521 L 490.394,-467.983 L 490.518,-468.47 L 490.634,-468.976
 L 490.743,-469.502 L 490.846,-470.043 L 490.941,-470.597 L 491.029,-471.163 L 491.11,-471.737 L 491.184,-472.317
 L 491.251,-472.9 L 491.311,-473.484 L 491.364,-474.068 L 491.41,-474.647 L 491.449,-475.22 L 491.481,-475.784
 L 491.505,-476.336 L 491.523,-476.875 L 491.534,-477.398 L 491.537,-477.902 L 492.586,-484.892 L 494.206,-491.773
 L 496.384,-498.498 L 499.107,-505.021 L 502.356,-511.298 L 504.237,-514.121 L 506.119,-517.413 L 507.349,-519.684
 L 508.622,-521.93 L 509.936,-524.153 L 511.293,-526.35 L 513.644,-531.524 L 515.996,-535.758 L 515.996,-531.524
 L 515.986,-530.544 L 515.955,-529.578 L 515.906,-528.628 L 515.838,-527.694 L 515.754,-526.777 L 515.653,-525.877
 L 515.538,-524.996 L 515.409,-524.134 L 515.268,-523.292 L 515.114,-522.47 L 514.95,-521.669 L 514.777,-520.89
 L 514.595,-520.134 L 514.406,-519.401 L 514.21,-518.692 L 514.009,-518.008 L 513.804,-517.349 L 513.596,-516.716
 L 513.386,-516.11 L 513.174,-515.532 L 511.763,-511.298 L 510.352,-508.006 L 505.648,-495.776 L 502.826,-485.428
 L 502.356,-480.254 L 502.292,-479.954 L 502.243,-479.62 L 502.207,-479.253 L 502.186,-478.854 L 502.179,-478.424
 L 502.186,-477.964 L 502.207,-477.475 L 502.243,-476.958 L 502.292,-476.414 L 502.356,-475.844 L 502.433,-475.25
 L 502.525,-474.632 L 502.631,-473.992 L 502.751,-473.33 L 502.885,-472.647 L 503.033,-471.945 L 503.195,-471.225
 L 503.372,-470.488 L 503.562,-469.734 L 503.767,-468.965 L 505.178,-461.439 L 505.379,-459.633 L 505.562,-458.014
 L 505.729,-456.562 L 505.881,-455.26 L 506.023,-454.09 L 506.156,-453.032 L 506.282,-452.068 L 506.404,-451.181
 L 506.526,-450.352 L 506.648,-449.562 L 506.773,-448.794 L 506.905,-448.028 L 507.045,-447.247 L 507.196,-446.432
 L 507.361,-445.564 L 507.541,-444.626 L 507.74,-443.599 L 507.959,-442.465 L 508.202,-441.206 L 508.47,-439.802
 L 508.541,-439.379 L 508.611,-438.957 L 508.679,-438.539 L 508.745,-438.124 L 508.808,-437.715 L 508.868,-437.313
 L 508.924,-436.92 L 508.975,-436.536 L 509.02,-436.164 L 509.058,-435.804 L 509.09,-435.459 L 509.114,-435.129
 L 509.129,-434.816 L 509.135,-434.521 L 509.132,-434.246 L 509.118,-433.992 L 509.092,-433.761 L 509.055,-433.554
 L 509.004,-433.372 L 508.941,-433.217 L 508.941,-431.806 L 508,-432.747 L 507.414,-433.402 L 506.923,-433.827
 L 506.524,-434.038 L 506.213,-434.052 L 505.986,-433.886 L 505.841,-433.555 L 505.773,-433.077 L 505.78,-432.468
 L 505.857,-431.745 L 506.001,-430.924 L 506.208,-430.022 L 506.476,-429.055 L 506.8,-428.04 L 507.177,-426.994
 L 507.603,-425.934 L 508.075,-424.874 L 508.59,-423.834 L 509.143,-422.828 L 509.732,-421.874 L 510.352,-420.987
 L 514.585,-414.402 L 516.937,-411.58 L 517.427,-410.97 L 517.911,-410.408 L 518.389,-409.896 L 518.86,-409.431
 L 519.326,-409.015 L 519.786,-408.646 L 520.242,-408.325 L 520.692,-408.05 L 521.139,-407.822 L 521.582,-407.641
 L 522.021,-407.505 L 522.457,-407.414 L 522.891,-407.369 L 523.321,-407.369 L 523.75,-407.413 L 524.177,-407.501
 L 524.602,-407.633 L 525.027,-407.808 L 525.451,-408.026 L 525.874,-408.287 L 527.756,-408.758 L 525.848,-416.973
 L 524.581,-425.31 L 523.961,-433.721 L 523.993,-442.154 L 523.929,-443.705 L 523.879,-445.118 L 523.843,-446.406
 L 523.819,-447.58 L 523.809,-448.651 L 523.811,-449.63 L 523.824,-450.529 L 523.85,-451.358 L 523.886,-452.13
 L 523.934,-452.855 L 523.992,-453.545 L 524.06,-454.211 L 524.139,-454.864 L 524.226,-455.515 L 524.323,-456.177
 L 524.429,-456.86 L 524.543,-457.575 L 524.666,-458.334 L 524.796,-459.148 L 524.933,-460.028 L 527.285,-468.024
 L 531.025,-477.361 L 535.017,-486.593 L 539.26,-495.712 L 543.748,-504.713 L 543.9,-504.96 L 544.07,-505.273
 L 544.259,-505.648 L 544.463,-506.083 L 544.682,-506.573 L 544.912,-507.114 L 545.154,-507.702 L 545.404,-508.333
 L 545.661,-509.004 L 545.924,-509.711 L 546.19,-510.449 L 546.457,-511.216 L 546.725,-512.006 L 546.991,-512.816
 L 547.254,-513.643 L 547.511,-514.482 L 547.761,-515.329 L 548.003,-516.181 L 548.233,-517.034 L 548.452,-517.884
 L 550.788,-532.323 L 551.436,-546.935 L 550.387,-561.524 L 547.656,-575.894 L 543.278,-589.85 L 543.194,-590.026
 L 543.084,-590.265 L 542.953,-590.563 L 542.804,-590.911 L 542.638,-591.306 L 542.461,-591.738 L 542.274,-592.204
 L 542.081,-592.695 L 541.886,-593.206 L 541.69,-593.731 L 541.499,-594.263 L 541.314,-594.795 L 541.138,-595.322
 L 540.976,-595.836 L 540.83,-596.333 L 540.704,-596.804 L 540.6,-597.245 L 540.522,-597.648 L 540.473,-598.008
 L 540.456,-598.317 L 540.392,-598.522 L 540.343,-598.714 L 540.307,-598.895 L 540.286,-599.066 L 540.279,-599.228
 L 540.286,-599.384 L 540.307,-599.534 L 540.343,-599.679 L 540.392,-599.822 L 540.456,-599.963 L 540.533,-600.105
 L 540.625,-600.247 L 540.731,-600.393 L 540.851,-600.543 L 540.985,-600.698 L 541.133,-600.861 L 541.295,-601.032
 L 541.472,-601.213 L 541.662,-601.405 L 541.867,-601.61 L 542.206,-601.956 L 542.517,-602.289 L 542.803,-602.612
 L 543.063,-602.927 L 543.3,-603.234 L 543.513,-603.536 L 543.705,-603.834 L 543.876,-604.131 L 544.027,-604.427
 L 544.16,-604.726 L 544.275,-605.028 L 544.373,-605.335 L 544.456,-605.649 L 544.524,-605.972 L 544.579,-606.306
 L 544.621,-606.652 L 544.652,-607.012 L 544.673,-607.388 L 544.685,-607.782 L 544.689,-608.195 L 544.685,-608.609
 L 544.674,-609.007 L 544.654,-609.396 L 544.625,-609.783 L 544.586,-610.172 L 544.536,-610.57 L 544.476,-610.982
 L 544.403,-611.416 L 544.317,-611.876 L 544.219,-612.369 L 544.105,-612.901 L 543.978,-613.478 L 543.834,-614.105
 L 543.675,-614.79 L 543.498,-615.537 L 543.304,-616.353 L 543.092,-617.244 L 542.86,-618.215 L 542.609,-619.273
 L 542.337,-620.424 L 541.917,-621.869 L 541.499,-623.243 L 541.081,-624.555 L 540.659,-625.813 L 540.228,-627.024
 L 539.784,-628.197 L 539.325,-629.338 L 538.845,-630.456 L 538.341,-631.559 L 537.81,-632.654 L 537.246,-633.749
 L 536.647,-634.852 L 536.009,-635.97 L 535.327,-637.111 L 534.598,-638.284 L 533.818,-639.495 L 532.982,-640.753
 L 532.088,-642.065 L 531.131,-643.439 L 530.107,-644.884 L 525.576,-649.656 L 520.845,-654.231 L 515.924,-658.601
 L 510.822,-662.758 L 508.47,-664.639 L 505.178,-666.991 L 504.571,-667.464 L 504.02,-667.896 L 503.525,-668.289
 L 503.086,-668.643 L 502.701,-668.961 L 502.371,-669.243 L 502.095,-669.492 L 501.874,-669.708 L 501.706,-669.893
 L 501.591,-670.048 L 501.529,-670.176 L 501.52,-670.276 L 501.563,-670.351 L 501.658,-670.402 L 501.804,-670.431
 L 502.002,-670.438 L 502.25,-670.425 L 502.549,-670.395 L 502.898,-670.347 L 503.296,-670.284 L 503.501,-670.217
 L 503.691,-670.157 L 503.868,-670.105 L 504.03,-670.062 L 504.178,-670.026 L 504.312,-670 L 504.432,-669.983
 L 504.538,-669.975 L 504.63,-669.977 L 504.707,-669.99 L 504.771,-670.013 L 504.82,-670.047 L 504.856,-670.092
 L 504.877,-670.149 L 504.884,-670.217 L 504.877,-670.299 L 504.856,-670.393 L 504.82,-670.5 L 504.771,-670.62
 L 504.707,-670.754 L 504.577,-670.885 L 504.468,-670.995 L 504.381,-671.085 L 504.316,-671.157 L 504.274,-671.21
 L 504.254,-671.245 L 504.258,-671.264 L 504.286,-671.266 L 504.338,-671.253 L 504.413,-671.224 L 504.514,-671.182
 L 504.64,-671.127 L 504.791,-671.058 L 504.968,-670.978 L 505.17,-670.886 L 505.4,-670.784 L 505.656,-670.672
 L 505.939,-670.551 L 506.25,-670.421 L 506.589,-670.284 L 509.411,-668.873 L 509.858,-668.831 L 510.349,-668.71
 L 510.878,-668.515 L 511.439,-668.252 L 512.028,-667.924 L 512.637,-667.539 L 513.262,-667.101 L 513.897,-666.615
 L 514.536,-666.086 L 515.173,-665.521 L 515.804,-664.924 L 516.422,-664.301 L 517.021,-663.656 L 517.596,-662.995
 L 518.142,-662.324 L 518.653,-661.648 L 519.123,-660.971 L 519.546,-660.3 L 519.917,-659.639 L 520.23,-658.995
 L 520.452,-658.575 L 520.694,-658.162 L 520.957,-657.757 L 521.238,-657.358 L 521.538,-656.966 L 521.855,-656.582
 L 522.19,-656.204 L 522.54,-655.834 L 522.906,-655.471 L 523.287,-655.114 L 523.682,-654.765 L 524.09,-654.423
 L 524.512,-654.088 L 524.945,-653.76 L 525.389,-653.439 L 525.844,-653.125 L 526.309,-652.818 L 526.783,-652.518
 L 527.265,-652.225 L 527.756,-651.939 L 531.048,-649.587 L 532.93,-648.176 L 536.222,-651.939 L 536.691,-652.544
 L 537.112,-653.092 L 537.483,-653.59 L 537.806,-654.046 L 538.082,-654.467 L 538.309,-654.86 L 538.49,-655.232
 L 538.623,-655.589 L 538.71,-655.94 L 538.75,-656.29 L 538.745,-656.648 L 538.694,-657.019 L 538.599,-657.412
 L 538.458,-657.833 L 538.273,-658.289 L 538.043,-658.788 L 537.77,-659.336 L 537.454,-659.94 L 537.095,-660.608
 L 536.693,-661.347 L 534.811,-664.639 L 532.545,-667.617 L 530.083,-670.435 L 527.437,-673.082 L 524.619,-675.543
 L 521.641,-677.81 L 516.937,-681.573 L 514.585,-682.984 L 508,-685.806 L 502.826,-688.158 L 496.299,-691.114
 L 489.56,-693.546 L 482.649,-695.44 L 475.611,-696.782 L 468.489,-697.565 L 463.315,-698.976 L 462.959,-698.983
 L 462.597,-699.003 L 462.231,-699.035 L 461.862,-699.078 L 461.492,-699.131 L 461.122,-699.192 L 460.753,-699.261
 L 460.387,-699.337 L 460.026,-699.419 L 459.669,-699.505 L 459.32,-699.595 L 458.98,-699.687 L 458.649,-699.781
 L 458.33,-699.875 L 458.023,-699.968 L 457.731,-700.06 L 457.454,-700.149 L 457.193,-700.234 L 456.952,-700.313
 L 456.73,-700.387 L 449.674,-701.798 L 435.563,-705.561 L 435.228,-705.699 L 434.927,-705.83 L 434.659,-705.953
 L 434.423,-706.069 L 434.218,-706.179 L 434.043,-706.281 L 433.897,-706.376 L 433.779,-706.465 L 433.688,-706.546
 L 433.623,-706.62 L 433.582,-706.687 L 433.565,-706.747 L 433.57,-706.8 L 433.597,-706.846 L 433.645,-706.884
 L 433.712,-706.916 L 433.797,-706.941 L 433.899,-706.958 L 434.018,-706.969 L 434.152,-706.973 L 439.326,-706.973
 L 444.03,-707.443 L 447.322,-708.384 L 447.661,-708.525 L 447.971,-708.665 L 448.254,-708.805 L 448.508,-708.944
 L 448.733,-709.082 L 448.931,-709.218 L 449.1,-709.351 L 449.241,-709.482 L 449.354,-709.611 L 449.439,-709.736
 L 449.495,-709.858 L 449.524,-709.975 L 449.524,-710.089 L 449.495,-710.198 L 449.439,-710.302 L 449.354,-710.401
 L 449.241,-710.494 L 449.1,-710.581 L 448.931,-710.661 L 448.733,-710.736 L 436.974,-710.736 L 436.688,-710.729
 L 436.396,-710.708 L 436.099,-710.675 L 435.796,-710.63 L 435.489,-710.574 L 435.179,-710.507 L 434.866,-710.43
 L 434.551,-710.344 L 434.234,-710.25 L 433.917,-710.148 L 433.599,-710.038 L 433.283,-709.923 L 432.967,-709.801
 L 432.654,-709.675 L 432.344,-709.545 L 432.037,-709.411 L 431.734,-709.274 L 431.437,-709.135 L 431.145,-708.995
 L 430.859,-708.854 L 421.922,-705.561 L 417.219,-703.21 L 413.456,-700.858 L 413.314,-700.847 L 413.173,-700.817
 L 413.032,-700.769 L 412.891,-700.703 L 412.75,-700.623 L 412.609,-700.528 L 412.468,-700.42 L 412.327,-700.301
 L 412.186,-700.172 L 412.044,-700.035 L 411.903,-699.89 L 411.762,-699.74 L 411.621,-699.586 L 411.48,-699.429
 L 411.198,-699.112 L 411.057,-698.955 L 410.916,-698.8 L 410.774,-698.65 L 410.633,-698.506 L 408.752,-696.624
 L 408.752,-699.447 L 408.748,-699.919 L 408.737,-700.351 L 408.719,-700.741 L 408.692,-701.091 L 408.656,-701.402
 L 408.612,-701.673 L 408.559,-701.907 L 408.496,-702.103 L 408.423,-702.263 L 408.34,-702.386 L 408.247,-702.475
 L 408.142,-702.528 L 408.026,-702.548 L 407.899,-702.535 L 407.76,-702.489 L 407.608,-702.412 L 407.443,-702.303
 L 407.266,-702.164 L 407.075,-701.996 L 406.87,-701.798 L 400.756,-701.328 L 399.372,-701.314 L 398.044,-701.272
 L 396.768,-701.201 L 395.544,-701.102 L 394.369,-700.975 L 393.241,-700.82 L 392.16,-700.637 L 391.122,-700.425
 L 390.127,-700.185 L 389.173,-699.917 L 388.257,-699.621 L 387.378,-699.296 L 386.535,-698.943 L 385.725,-698.562
 L 384.947,-698.153 L 384.199,-697.716 L 383.479,-697.25 L 382.785,-696.756 L 382.116,-696.234 L 381.47,-695.684
 L 378.178,-692.861 L 374.415,-687.217 L 374.404,-686.72 L 374.374,-686.217 L 374.326,-685.712 L 374.261,-685.204
 L 374.18,-684.696 L 374.085,-684.19 L 373.977,-683.688 L 373.858,-683.191 L 373.729,-682.701 L 373.592,-682.219
 L 373.447,-681.749 L 373.297,-681.29 L 373.143,-680.846 L 372.986,-680.418 L 372.827,-680.007 L 372.669,-679.616
 L 372.512,-679.246 L 372.357,-678.898 L 372.207,-678.576 L 372.063,-678.28 L 371.865,-677.871 L 371.695,-677.491
 L 371.552,-677.14 L 371.435,-676.82 L 371.343,-676.531 L 371.276,-676.273 L 371.232,-676.048 L 371.213,-675.857
 L 371.215,-675.699 L 371.24,-675.575 L 371.286,-675.487 L 371.352,-675.435 L 371.438,-675.42 L 371.543,-675.442
 L 371.666,-675.502 L 371.807,-675.601 L 371.965,-675.739 L 372.139,-675.918 L 372.329,-676.137 L 372.533,-676.398
 L 373.417,-677.61 L 374.244,-678.707 L 375.025,-679.697 L 375.773,-680.587 L 376.502,-681.381 L 377.224,-682.088
 L 377.951,-682.713 L 378.697,-683.262 L 379.474,-683.742 L 380.294,-684.16 L 381.171,-684.52 L 382.118,-684.831
 L 383.146,-685.098 L 384.268,-685.328 L 385.498,-685.527 L 386.848,-685.701 L 388.33,-685.856 L 389.958,-686
 L 391.743,-686.138 L 393.7,-686.276 L 394.321,-686.28 L 394.914,-686.29 L 395.481,-686.306 L 396.022,-686.329
 L 396.537,-686.357 L 397.027,-686.391 L 397.494,-686.429 L 397.937,-686.472 L 398.358,-686.519 L 398.756,-686.57
 L 399.134,-686.625 L 399.491,-686.683 L 399.829,-686.743 L 400.147,-686.806 L 400.447,-686.872 L 400.729,-686.939
 L 400.995,-687.007 L 401.244,-687.076 L 401.477,-687.146 L 401.696,-687.217 L 404.048,-688.158 L 404.213,-688.137
 L 404.423,-688.078 L 404.671,-687.983 L 404.955,-687.857 L 405.268,-687.702 L 405.606,-687.523 L 405.964,-687.322
 L 406.336,-687.104 L 406.718,-686.872 L 407.106,-686.629 L 407.493,-686.379 L 407.875,-686.126 L 408.247,-685.872
 L 408.605,-685.622 L 408.943,-685.38 L 409.256,-685.147 L 409.54,-684.929 L 409.789,-684.729 L 409.998,-684.549
 L 410.163,-684.395 L 410.234,-684.261 L 410.306,-684.14 L 410.383,-684.032 L 410.464,-683.936 L 410.552,-683.851
 L 410.65,-683.777 L 410.758,-683.712 L 410.878,-683.657 L 411.012,-683.611 L 411.162,-683.572 L 411.33,-683.54
 L 411.518,-683.514 L 411.726,-683.494 L 411.957,-683.479 L 412.213,-683.469 L 412.496,-683.462 L 412.807,-683.457
 L 413.147,-683.455 L 413.52,-683.454 L 413.926,-683.454 L 414.51,-683.444 L 415.131,-683.413 L 415.781,-683.364
 L 416.455,-683.296 L 417.145,-683.211 L 417.846,-683.111 L 418.551,-682.996 L 419.254,-682.867 L 419.949,-682.725
 L 420.629,-682.572 L 421.287,-682.408 L 421.918,-682.235 L 422.516,-682.053 L 423.073,-681.864 L 423.583,-681.668
 L 424.041,-681.467 L 424.439,-681.262 L 424.772,-681.054 L 425.032,-680.843 L 425.215,-680.632 L 427.982,-679.606
 L 430.71,-678.479 L 433.395,-677.252 L 436.033,-675.928 L 437.591,-675.112 L 439.023,-674.354 L 440.34,-673.647
 L 441.55,-672.985 L 442.663,-672.364 L 443.687,-671.775 L 444.633,-671.214 L 445.508,-670.675 L 446.324,-670.151
 L 447.087,-669.637 L 447.808,-669.126 L 448.496,-668.613 L 449.16,-668.091 L 449.81,-667.555 L 450.453,-666.998
 L 451.1,-666.415 L 451.76,-665.8 L 452.442,-665.146 L 453.154,-664.447 L 453.907,-663.698 L 454.515,-663.028
 L 455.073,-662.424 L 455.587,-661.883 L 456.064,-661.403 L 456.509,-660.979 L 456.93,-660.608 L 457.333,-660.287
 L 457.723,-660.011 L 458.108,-659.777 L 458.494,-659.583 L 458.886,-659.423 L 459.292,-659.296 L 459.718,-659.196
 L 460.17,-659.122 L 460.654,-659.068 L 461.177,-659.032 L 461.746,-659.011 L 462.366,-658.999 L 463.043,-658.995
 L 463.785,-658.995 L 464.195,-659.062 L 464.577,-659.121 L 464.935,-659.173 L 465.268,-659.217 L 465.578,-659.252
 L 465.868,-659.278 L 466.138,-659.296 L 466.389,-659.303 L 466.624,-659.301 L 466.843,-659.289 L 467.047,-659.266
 L 467.24,-659.232 L 467.42,-659.187 L 467.591,-659.13 L 467.754,-659.061 L 467.909,-658.98 L 468.059,-658.886
 L 468.205,-658.779 L 468.348,-658.659 L 468.489,-658.524 L 469.073,-658.17 L 469.694,-657.68 L 470.344,-657.065
 L 471.018,-656.338 L 471.708,-655.511 L 472.409,-654.596 L 473.114,-653.604 L 473.817,-652.549 L 474.512,-651.441
 L 475.192,-650.293 L 475.85,-649.117 L 476.481,-647.924 L 477.079,-646.727 L 477.636,-645.538 L 478.146,-644.369
 L 478.604,-643.232 L 479.002,-642.138 L 479.335,-641.1 L 479.595,-640.13 L 479.778,-639.239 L 479.915,-638.509
 L 480.046,-637.732 L 480.169,-636.91 L 480.286,-636.044 L 480.395,-635.138 L 480.497,-634.193 L 480.593,-633.211
 L 480.681,-632.195 L 480.762,-631.146 L 480.836,-630.067 L 480.903,-628.96 L 480.963,-627.826 L 481.016,-626.669
 L 481.062,-625.489 L 481.101,-624.29 L 481.132,-623.074 L 481.157,-621.841 L 481.175,-620.596 L 481.185,-619.339
 L 481.189,-618.073 L 481.189,-610.076 L 478.367,-610.076 L 477.689,-610.072 L 477.063,-610.06 L 476.487,-610.037
 L 475.955,-610.001 L 475.464,-609.951 L 475.01,-609.886 L 474.589,-609.803 L 474.197,-609.7 L 473.831,-609.576
 L 473.487,-609.429 L 473.16,-609.258 L 472.846,-609.06 L 472.543,-608.834 L 472.246,-608.578 L 471.951,-608.29
 L 471.654,-607.969 L 471.351,-607.612 L 471.039,-607.219 L 470.713,-606.786 L 470.37,-606.313 L 468.489,-603.491
 L 468.516,-603.333 L 468.595,-603.144 L 468.721,-602.928 L 468.888,-602.69 L 469.092,-602.433 L 469.327,-602.162
 L 469.589,-601.881 L 469.874,-601.595 L 470.175,-601.307 L 470.488,-601.022 L 470.808,-600.744 L 471.13,-600.477
 L 471.45,-600.226 L 471.762,-599.994 L 472.061,-599.787 L 472.342,-599.608 L 472.601,-599.461 L 472.832,-599.351
 L 473.031,-599.282 L 473.193,-599.258 L 473.468,-599.247 L 473.73,-599.214 L 473.981,-599.156 L 474.22,-599.073
 L 474.449,-598.964 L 474.67,-598.826 L 474.883,-598.658 L 475.089,-598.46 L 475.29,-598.229 L 475.486,-597.964
 L 475.678,-597.664 L 475.868,-597.327 L 476.057,-596.952 L 476.245,-596.538 L 476.434,-596.083 L 476.624,-595.585
 L 476.818,-595.044 L 477.015,-594.457 L 477.218,-593.824 L 477.426,-593.143 L 477.627,-592.391 L 477.807,-591.684
 L 477.966,-591.018 L 478.103,-590.388 L 478.22,-589.792 L 478.315,-589.223 L 478.389,-588.678 L 478.442,-588.153
 L 478.474,-587.644 L 478.484,-587.146 L 478.474,-586.655 L 478.442,-586.166 L 478.389,-585.677 L 478.315,-585.181
 L 478.22,-584.676 L 478.103,-584.157 L 477.966,-583.619 L 477.807,-583.059 L 477.627,-582.472 L 477.426,-581.854
 L 477.133,-581.029 L 476.821,-580.246 L 476.489,-579.508 L 476.139,-578.814 L 475.772,-578.165 L 475.39,-577.561
 L 474.992,-577.005 L 474.581,-576.496 L 474.157,-576.034 L 473.722,-575.622 L 473.276,-575.258 L 472.82,-574.945
 L 472.356,-574.683 L 471.884,-574.472 L 471.407,-574.313 L 470.924,-574.208 L 470.436,-574.156 L 469.946,-574.158
 L 469.453,-574.215 L 468.959,-574.328 L 468.07,-574.488 L 467.232,-574.69 L 466.443,-574.94 L 465.697,-575.246
 L 464.991,-575.614 L 464.32,-576.051 L 463.68,-576.563 L 463.066,-577.158 L 462.476,-577.841 L 461.904,-578.62
 L 461.346,-579.502 L 460.797,-580.492 L 460.255,-581.598 L 459.714,-582.826 L 459.17,-584.184 L 458.619,-585.677
 L 458.056,-587.313 L 457.478,-589.098 L 456.881,-591.039 L 456.259,-593.143 L 455.885,-594.614 L 455.47,-596.064
 L 455.014,-597.493 L 454.517,-598.9 L 453.981,-600.287 L 453.406,-601.652 L 452.793,-602.996 L 452.143,-604.319
 L 451.455,-605.621 L 450.732,-606.901 L 449.974,-608.161 L 449.181,-609.399 L 448.354,-610.616 L 447.494,-611.812
 L 446.602,-612.987 L 445.678,-614.14 L 444.723,-615.273 L 443.737,-616.384 L 442.722,-617.474 L 441.678,-618.543
 L 440.774,-619.432 L 439.898,-620.266 L 439.047,-621.045 L 438.22,-621.772 L 437.415,-622.446 L 436.632,-623.068
 L 435.868,-623.641 L 435.123,-624.165 L 434.394,-624.641 L 433.681,-625.069 L 432.983,-625.452 L 432.297,-625.79
 L 431.622,-626.085 L 430.957,-626.336 L 430.301,-626.547 L 429.651,-626.716 L 429.008,-626.846 L 428.368,-626.938
 L 427.732,-626.992 L 427.096,-627.01 L 423.333,-627.48 L 424.274,-627.48 L 426.626,-627.95 L 425.685,-628.421
 L 420.981,-629.832 L 420.498,-630.033 L 420.031,-630.215 L 419.579,-630.378 L 419.138,-630.524 L 418.703,-630.655
 L 418.272,-630.772 L 417.841,-630.876 L 417.407,-630.968 L 416.965,-631.051 L 416.513,-631.125 L 416.047,-631.193
 L 415.563,-631.254 L 415.058,-631.312 L 414.528,-631.366 L 413.97,-631.419 L 413.38,-631.472 L 412.755,-631.527
 L 412.091,-631.584 L 411.385,-631.646 L 410.633,-631.713 L 409.416,-631.784 L 408.299,-631.855 L 407.281,-631.927
 L 406.355,-631.999 L 405.518,-632.073 L 404.766,-632.149 L 404.094,-632.227 L 403.499,-632.308 L 402.975,-632.391
 L 402.519,-632.478 L 402.127,-632.568 L 401.794,-632.662 L 401.516,-632.76 L 401.289,-632.862 L 401.108,-632.97
 L 400.97,-633.083 L 400.87,-633.202 L 400.804,-633.326 L 400.767,-633.457 L 400.756,-633.595 L 404.048,-639.239
 L 410.163,-648.647 L 412.985,-653.35 L 415.337,-657.584 L 415.887,-658.81 L 416.408,-660.081 L 416.897,-661.388
 L 417.354,-662.72 L 417.777,-664.066 L 418.165,-665.415 L 418.516,-666.758 L 418.829,-668.082 L 419.103,-669.379
 L 419.335,-670.636 L 419.525,-671.845 L 419.672,-672.993 L 419.773,-674.071 L 419.828,-675.067 L 419.835,-675.972
 L 419.792,-676.775 L 419.699,-677.464 L 419.553,-678.031 L 419.354,-678.463 L 419.1,-678.75 L 418.966,-678.75
 L 418.845,-678.747 L 418.735,-678.739 L 418.637,-678.724 L 418.549,-678.699 L 418.469,-678.661 L 418.397,-678.609
 L 418.332,-678.54 L 418.273,-678.45 L 418.218,-678.339 L 418.167,-678.203 L 418.118,-678.039 L 418.07,-677.846
 L 418.023,-677.621 L 417.976,-677.361 L 417.926,-677.065 L 417.874,-676.728 L 417.817,-676.35 L 417.756,-675.927
 L 417.689,-675.458 L 416.278,-671.695 L 415.807,-670.284 L 412.515,-663.228 L 408.752,-658.054 L 402.167,-649.587
 L 401.73,-649.158 L 401.269,-648.717 L 400.789,-648.27 L 400.293,-647.819 L 399.785,-647.368 L 399.271,-646.92
 L 398.754,-646.48 L 398.238,-646.05 L 397.728,-645.634 L 397.228,-645.236 L 396.742,-644.86 L 396.274,-644.507
 L 395.829,-644.183 L 395.41,-643.891 L 395.023,-643.634 L 394.671,-643.416 L 394.358,-643.24 L 394.089,-643.11
 L 393.869,-643.03 L 393.7,-643.002 L 387.115,-638.769 L 386.604,-638.346 L 386.059,-637.924 L 385.484,-637.505
 L 384.88,-637.091 L 384.248,-636.682 L 383.593,-636.28 L 382.914,-635.886 L 382.215,-635.503 L 381.498,-635.13
 L 380.765,-634.771 L 380.017,-634.425 L 379.258,-634.095 L 378.488,-633.782 L 377.711,-633.488 L 376.928,-633.213
 L 376.142,-632.959 L 375.354,-632.728 L 374.567,-632.52 L 373.783,-632.339 L 373.004,-632.184 L 363.596,-627.48
 L 360.304,-625.598 L 359.628,-625.504 L 358.88,-625.364 L 358.07,-625.184 L 357.211,-624.966 L 356.313,-624.717
 L 355.389,-624.439 L 354.45,-624.137 L 353.508,-623.815 L 352.574,-623.478 L 351.661,-623.129 L 350.779,-622.773
 L 349.94,-622.415 L 349.157,-622.058 L 348.44,-621.707 L 347.802,-621.365 L 347.254,-621.038 L 346.807,-620.729
 L 346.473,-620.442 L 346.265,-620.183 L 346.193,-619.954 L 344.311,-619.013 L 341.019,-617.132 L 340.884,-616.927
 L 340.764,-616.734 L 340.657,-616.551 L 340.563,-616.375 L 340.482,-616.206 L 340.413,-616.04 L 340.356,-615.875
 L 340.311,-615.709 L 340.277,-615.541 L 340.254,-615.368 L 340.242,-615.188 L 340.24,-614.998 L 340.247,-614.797
 L 340.265,-614.583 L 340.291,-614.354 L 340.326,-614.106 L 340.37,-613.839 L 340.422,-613.55 L 340.481,-613.237
 L 340.548,-612.898 L 340.612,-612.397 L 340.662,-611.75 L 340.699,-610.974 L 340.725,-610.088 L 340.739,-609.106
 L 340.743,-608.047 L 340.737,-606.927 L 340.721,-605.764 L 340.697,-604.574 L 340.666,-603.373 L 340.627,-602.18
 L 340.582,-601.011 L 340.531,-599.883 L 340.476,-598.813 L 340.416,-597.817 L 340.352,-596.913 L 340.286,-596.118
 L 340.218,-595.449 L 340.148,-594.922 L 340.078,-594.554 L 339.607,-589.85 L 339.607,-586.558 L 336.315,-584.206
 L 335.969,-583.994 L 335.638,-583.783 L 335.322,-583.574 L 335.02,-583.367 L 334.735,-583.162 L 334.465,-582.961
 L 334.211,-582.765 L 333.974,-582.573 L 333.754,-582.387 L 333.551,-582.207 L 333.366,-582.034 L 333.199,-581.869
 L 333.05,-581.713 L 332.92,-581.565 L 332.809,-581.428 L 332.717,-581.301 L 332.646,-581.185 L 332.594,-581.082
 L 332.562,-580.991 L 332.552,-580.913 L 330.2,-580.443 L 329.932,-580.443 L 329.69,-580.444 L 329.474,-580.446
 L 329.282,-580.45 L 329.112,-580.458 L 328.964,-580.468 L 328.835,-580.483 L 328.725,-580.503 L 328.632,-580.529
 L 328.554,-580.561 L 328.49,-580.599 L 328.439,-580.646 L 328.399,-580.701 L 328.369,-580.766 L 328.348,-580.84
 L 328.334,-580.925 L 328.325,-581.021 L 328.32,-581.129 L 328.319,-581.249 L 328.319,-581.384 L 329.259,-583.265
 L 330.2,-585.617 L 330.2,-585.687 L 330.2,-585.757 L 330.198,-585.825 L 330.196,-585.892 L 330.193,-585.955
 L 330.187,-586.015 L 330.18,-586.071 L 330.17,-586.121 L 330.157,-586.166 L 330.141,-586.205 L 330.122,-586.237
 L 330.098,-586.26 L 330.071,-586.276 L 330.039,-586.282 L 330.002,-586.278 L 329.959,-586.264 L 329.911,-586.239
 L 329.857,-586.201 L 329.797,-586.151 L 329.73,-586.087 L 329.259,-585.617 L 326.437,-584.206 L 326.071,-583.927
 L 325.679,-583.656 L 325.266,-583.394 L 324.834,-583.141 L 324.387,-582.898 L 323.927,-582.665 L 323.458,-582.444
 L 322.983,-582.234 L 322.505,-582.037 L 322.027,-581.854 L 321.553,-581.685 L 321.086,-581.53 L 320.629,-581.392
 L 320.184,-581.269 L 319.756,-581.163 L 319.348,-581.075 L 318.961,-581.005 L 318.601,-580.955 L 318.27,-580.924
 L 317.97,-580.913 L 313.737,-581.854 L 310.444,-582.795 L 308.563,-578.561 L 308.362,-578.148 L 308.181,-577.756
 L 308.018,-577.382 L 307.874,-577.026 L 307.747,-576.687 L 307.636,-576.364 L 307.539,-576.056 L 307.457,-575.762
 L 307.387,-575.48 L 307.328,-575.21 L 307.28,-574.951 L 307.242,-574.701 L 307.212,-574.459 L 307.19,-574.225
 L 307.174,-573.997 L 307.163,-573.775 L 307.157,-573.557 L 307.153,-573.342 L 307.152,-573.129 L 307.152,-572.917
 L 307.229,-572.564 L 307.321,-572.212 L 307.427,-571.86 L 307.547,-571.51 L 307.681,-571.16 L 307.829,-570.813
 L 307.991,-570.468 L 308.168,-570.125 L 308.358,-569.785 L 308.563,-569.448 L 308.782,-569.115 L 309.015,-568.785
 L 309.261,-568.46 L 309.523,-568.139 L 309.798,-567.824 L 310.087,-567.513 L 310.39,-567.209 L 310.708,-566.91
 L 311.039,-566.617 L 311.385,-566.332 L 311.59,-566.258 L 311.781,-566.177 L 311.96,-566.088 L 312.126,-565.993
 L 312.282,-565.891 L 312.427,-565.781 L 312.561,-565.665 L 312.687,-565.542 L 312.804,-565.411 L 312.914,-565.273
 L 313.016,-565.129 L 313.112,-564.977 L 313.203,-564.818 L 313.288,-564.653 L 313.37,-564.48 L 313.447,-564.3
 L 313.522,-564.113 L 313.595,-563.919 L 313.666,-563.718 L 313.737,-563.51 L 316.089,-559.747 L 316.314,-559.602
 L 316.566,-559.452 L 316.841,-559.298 L 317.139,-559.141 L 317.456,-558.982 L 317.791,-558.824 L 318.141,-558.667
 L 318.505,-558.512 L 318.88,-558.362 L 319.264,-558.218 L 319.655,-558.081 L 320.051,-557.952 L 320.45,-557.833
 L 320.85,-557.725 L 321.248,-557.63 L 321.643,-557.549 L 322.032,-557.484 L 322.413,-557.435 L 322.785,-557.405
 L 323.144,-557.395 L 323.507,-557.402 L 323.888,-557.422 L 324.284,-557.455 L 324.691,-557.5 L 325.107,-557.556
 L 325.528,-557.623 L 325.951,-557.7 L 326.373,-557.786 L 326.791,-557.881 L 327.201,-557.983 L 327.601,-558.092
 L 327.987,-558.208 L 328.357,-558.329 L 328.706,-558.455 L 329.031,-558.585 L 329.331,-558.719 L 329.6,-558.856
 L 329.837,-558.995 L 330.038,-559.135 L 330.2,-559.276 L 331.611,-560.687 L 329.73,-562.098 L 329.525,-562.24
 L 329.334,-562.381 L 329.157,-562.522 L 328.992,-562.663 L 328.84,-562.804 L 328.701,-562.945 L 328.574,-563.086
 L 328.458,-563.227 L 328.353,-563.368 L 328.26,-563.51 L 328.177,-563.651 L 328.104,-563.792 L 328.041,-563.933
 L 327.988,-564.074 L 327.944,-564.215 L 327.908,-564.356 L 327.881,-564.497 L 327.863,-564.638 L 327.852,-564.78
 L 327.848,-564.921 L 327.859,-565.136 L 327.889,-565.356 L 327.939,-565.579 L 328.006,-565.805 L 328.091,-566.03
 L 328.191,-566.254 L 328.306,-566.474 L 328.435,-566.689 L 328.577,-566.897 L 328.73,-567.096 L 328.894,-567.285
 L 329.067,-567.461 L 329.249,-567.623 L 329.438,-567.769 L 329.634,-567.897 L 329.835,-568.006 L 330.04,-568.094
 L 330.248,-568.159 L 330.459,-568.199 L 330.67,-568.213 L 330.902,-568.23 L 331.172,-568.28 L 331.474,-568.359
 L 331.803,-568.465 L 332.155,-568.595 L 332.525,-568.747 L 332.907,-568.916 L 333.297,-569.101 L 333.69,-569.299
 L 334.081,-569.507 L 334.464,-569.722 L 334.836,-569.94 L 335.191,-570.161 L 335.524,-570.38 L 335.83,-570.595
 L 336.104,-570.802 L 336.342,-571 L 336.538,-571.185 L 336.687,-571.355 L 336.785,-571.506 L 336.849,-571.714
 L 336.898,-571.915 L 336.932,-572.108 L 336.951,-572.292 L 336.954,-572.469 L 336.942,-572.636 L 336.913,-572.795
 L 336.868,-572.943 L 336.806,-573.082 L 336.726,-573.211 L 336.629,-573.329 L 336.514,-573.436 L 336.381,-573.532
 L 336.229,-573.616 L 336.058,-573.689 L 335.867,-573.749 L 335.657,-573.796 L 335.426,-573.83 L 335.175,-573.851
 L 334.904,-573.858 L 334.525,-573.895 L 334.234,-574.004 L 334.026,-574.175 L 333.895,-574.403 L 333.838,-574.681
 L 333.85,-575.001 L 333.925,-575.356 L 334.061,-575.739 L 334.251,-576.144 L 334.492,-576.562 L 334.779,-576.988
 L 335.107,-577.414 L 335.472,-577.832 L 335.868,-578.237 L 336.293,-578.62 L 336.74,-578.975 L 337.206,-579.295
 L 337.685,-579.573 L 338.174,-579.801 L 338.667,-579.973 L 341.489,-580.913 L 345.252,-581.384 L 349.015,-582.324
 L 350.426,-582.324 L 349.485,-580.913 L 345.997,-576.06 L 342.714,-571.065 L 339.641,-565.938 L 336.785,-560.687
 L 331.611,-552.691 L 327.848,-547.987 L 327.301,-546.967 L 326.787,-546.02 L 326.304,-545.143 L 325.85,-544.33
 L 325.423,-543.578 L 325.02,-542.882 L 324.64,-542.238 L 324.281,-541.643 L 323.94,-541.091 L 323.615,-540.579
 L 323.304,-540.102 L 323.005,-539.656 L 322.716,-539.237 L 322.435,-538.841 L 322.16,-538.462 L 321.888,-538.098
 L 321.617,-537.744 L 321.346,-537.396 L 321.072,-537.048 L 320.793,-536.698 L 317.5,-532.936 L 317.363,-532.654
 L 317.233,-532.373 L 317.112,-532.095 L 317,-531.822 L 316.897,-531.554 L 316.806,-531.293 L 316.725,-531.041
 L 316.657,-530.798 L 316.601,-530.567 L 316.559,-530.348 L 316.531,-530.144 L 316.518,-529.955 L 316.52,-529.783
 L 316.539,-529.63 L 316.574,-529.496 L 316.627,-529.383 L 316.698,-529.293 L 316.789,-529.227 L 316.899,-529.186
 L 317.03,-529.173 L 317.202,-529.214 L 317.434,-529.336 L 317.721,-529.534 L 318.061,-529.805 L 318.448,-530.143
 L 318.88,-530.544 L 319.351,-531.005 L 319.859,-531.521 L 320.4,-532.087 L 320.969,-532.7 L 321.563,-533.356
 L 322.177,-534.049 L 322.809,-534.777 L 323.453,-535.534 L 324.107,-536.316 L 324.766,-537.12 L 325.427,-537.94
 L 326.085,-538.774 L 326.736,-539.615 L 327.378,-540.461 L 331.611,-545.635 L 333.022,-546.576 L 335.374,-545.165
 L 335.66,-545.084 L 335.951,-544.984 L 336.248,-544.865 L 336.548,-544.729 L 336.851,-544.577 L 337.156,-544.412
 L 337.462,-544.233 L 337.767,-544.044 L 338.071,-543.844 L 338.373,-543.636 L 338.671,-543.421 L 338.964,-543.201
 L 339.252,-542.976 L 339.533,-542.748 L 339.806,-542.519 L 340.07,-542.29 L 340.325,-542.063 L 340.568,-541.838
 L 340.8,-541.617 L 341.019,-541.402 L 344.781,-539.05 L 345.003,-539.068 L 345.243,-539.118 L 345.499,-539.198
 L 345.767,-539.306 L 346.046,-539.44 L 346.331,-539.596 L 346.62,-539.773 L 346.911,-539.968 L 347.201,-540.179
 L 347.486,-540.403 L 347.764,-540.637 L 348.033,-540.879 L 348.288,-541.127 L 348.528,-541.378 L 348.75,-541.63
 L 348.951,-541.88 L 349.127,-542.126 L 349.277,-542.365 L 349.397,-542.595 L 349.485,-542.813 L 350.896,-547.987
 L 350.977,-548.7 L 351.078,-549.423 L 351.198,-550.156 L 351.337,-550.896 L 351.492,-551.64 L 351.663,-552.386
 L 351.848,-553.131 L 352.048,-553.873 L 352.26,-554.609 L 352.484,-555.337 L 352.718,-556.054 L 352.962,-556.759
 L 353.215,-557.448 L 353.474,-558.119 L 353.741,-558.769 L 354.012,-559.397 L 354.288,-559.999 L 354.567,-560.573
 L 354.848,-561.117 L 355.13,-561.628 L 356.541,-564.45 L 358.213,-566.507 L 360.11,-568.357 L 362.208,-569.978
 L 364.477,-571.347 L 366.889,-572.447 L 367.934,-572.923 L 368.952,-573.364 L 369.948,-573.771 L 370.923,-574.144
 L 371.879,-574.482 L 372.82,-574.788 L 373.747,-575.06 L 374.663,-575.299 L 375.571,-575.506 L 376.473,-575.68
 L 377.371,-575.823 L 378.268,-575.935 L 379.167,-576.015 L 380.069,-576.065 L 380.978,-576.085 L 381.896,-576.074
 L 382.824,-576.034 L 383.767,-575.965 L 384.726,-575.866 L 385.704,-575.739 L 386.949,-575.598 L 388.144,-575.457
 L 389.287,-575.316 L 390.377,-575.175 L 391.414,-575.034 L 392.397,-574.893 L 393.323,-574.751 L 394.193,-574.61
 L 395.005,-574.469 L 395.758,-574.328 L 396.451,-574.187 L 397.083,-574.046 L 397.653,-573.905 L 398.16,-573.764
 L 398.602,-573.623 L 398.979,-573.481 L 399.29,-573.34 L 399.534,-573.199 L 399.709,-573.058 L 399.815,-572.917
 L 400.756,-571.976 L 400.984,-571.997 L 401.244,-572.057 L 401.53,-572.152 L 401.839,-572.281 L 402.167,-572.439
 L 402.508,-572.624 L 402.86,-572.832 L 403.217,-573.06 L 403.575,-573.305 L 403.931,-573.564 L 404.279,-573.833
 L 404.616,-574.11 L 404.938,-574.391 L 405.24,-574.673 L 405.518,-574.953 L 405.768,-575.227 L 405.985,-575.494
 L 406.166,-575.748 L 406.305,-575.988 L 406.4,-576.21 L 406.39,-576.371 L 406.359,-576.572 L 406.31,-576.808
 L 406.242,-577.075 L 406.157,-577.371 L 406.057,-577.691 L 405.942,-578.033 L 405.813,-578.392 L 405.671,-578.765
 L 405.518,-579.149 L 405.354,-579.54 L 405.181,-579.935 L 404.999,-580.329 L 404.81,-580.72 L 404.614,-581.104
 L 404.413,-581.478 L 404.208,-581.837 L 404,-582.179 L 403.789,-582.499 L 403.578,-582.795 L 402.637,-584.676
 L 402.721,-584.81 L 402.832,-584.93 L 402.968,-585.034 L 403.126,-585.124 L 403.306,-585.198 L 403.505,-585.256
 L 403.722,-585.298 L 403.954,-585.323 L 404.201,-585.332 L 404.46,-585.323 L 404.729,-585.296 L 405.008,-585.252
 L 405.293,-585.189 L 405.584,-585.108 L 405.878,-585.007 L 406.174,-584.887 L 406.47,-584.747 L 406.765,-584.587
 L 407.055,-584.407 L 407.341,-584.206 L 410.633,-583.265 L 414.867,-582.324 L 415.156,-582.099 L 415.456,-581.847
 L 415.767,-581.572 L 416.086,-581.275 L 416.41,-580.957 L 416.738,-580.623 L 417.067,-580.272 L 417.395,-579.909
 L 417.721,-579.534 L 418.042,-579.149 L 418.355,-578.758 L 418.66,-578.362 L 418.953,-577.963 L 419.233,-577.563
 L 419.497,-577.165 L 419.743,-576.77 L 419.97,-576.381 L 420.175,-576 L 420.356,-575.628 L 420.511,-575.269
 L 422.863,-572.447 L 422.997,-572.242 L 423.118,-572.05 L 423.226,-571.869 L 423.322,-571.698 L 423.407,-571.535
 L 423.481,-571.38 L 423.545,-571.23 L 423.6,-571.084 L 423.647,-570.942 L 423.686,-570.8 L 423.718,-570.659
 L 423.743,-570.516 L 423.763,-570.371 L 423.778,-570.221 L 423.789,-570.065 L 423.796,-569.903 L 423.801,-569.732
 L 423.803,-569.551 L 423.804,-569.359 L 423.804,-569.154 L 423.468,-567.607 L 423.161,-566.202 L 422.877,-564.927
 L 422.611,-563.769 L 422.356,-562.716 L 422.106,-561.754 L 421.856,-560.872 L 421.599,-560.055 L 421.329,-559.292
 L 421.04,-558.571 L 420.727,-557.877 L 420.383,-557.199 L 420.003,-556.524 L 419.579,-555.839 L 419.107,-555.131
 L 418.581,-554.388 L 417.993,-553.597 L 417.339,-552.746 L 416.613,-551.821 L 415.807,-550.81 L 415.115,-550.054
 L 414.445,-549.334 L 413.791,-548.645 L 413.147,-547.98 L 412.507,-547.333 L 411.866,-546.699 L 411.217,-546.071
 L 410.554,-545.444 L 409.872,-544.81 L 409.163,-544.166 L 408.423,-543.503 L 407.646,-542.817 L 406.824,-542.101
 L 405.953,-541.35 L 405.026,-540.557 L 404.037,-539.716 L 402.98,-538.822 L 401.85,-537.868 L 400.64,-536.849
 L 399.344,-535.758 L 394.17,-531.054 L 389.177,-527.281 L 384.442,-523.189 L 379.985,-518.796 L 375.826,-514.121
 L 372.063,-509.887 L 366.419,-504.243 L 364.607,-502.415 L 362.939,-500.454 L 361.425,-498.372 L 360.074,-496.182
 L 358.893,-493.895 L 355.13,-487.31 L 352.778,-484.487 L 352.556,-484.154 L 352.316,-483.723 L 352.06,-483.206
 L 351.792,-482.61 L 351.514,-481.944 L 351.228,-481.219 L 350.939,-480.443 L 350.648,-479.626 L 350.358,-478.776
 L 350.073,-477.902 L 349.795,-477.015 L 349.527,-476.122 L 349.271,-475.234 L 349.031,-474.359 L 348.809,-473.507
 L 348.608,-472.687 L 348.432,-471.907 L 348.282,-471.178 L 348.162,-470.508 L 348.074,-469.906 L 346.166,-462.497
 L 344.665,-454.995 L 343.575,-447.423 L 342.9,-439.802 L 343.841,-426.632 L 343.982,-425.041 L 344.123,-423.514
 L 344.264,-422.052 L 344.405,-420.656 L 344.546,-419.326 L 344.687,-418.064 L 344.829,-416.868 L 344.97,-415.742
 L 345.111,-414.684 L 345.252,-413.697 L 345.393,-412.78 L 345.534,-411.934 L 345.675,-411.16 L 345.816,-410.459
 L 345.957,-409.831 L 346.099,-409.277 L 346.24,-408.798 L 346.381,-408.395 L 346.522,-408.067 L 346.663,-407.817
 L 347.604,-404.995 L 348.074,-402.643 L 348.078,-402.167 L 348.088,-401.725 L 348.106,-401.317 L 348.131,-400.942
 L 348.162,-400.6 L 348.201,-400.289 L 348.247,-400.01 L 348.3,-399.76 L 348.36,-399.541 L 348.427,-399.35
 L 348.501,-399.188 L 348.582,-399.053 L 348.67,-398.945 L 348.766,-398.863 L 348.868,-398.806 L 348.977,-398.775
 L 349.094,-398.767 L 349.217,-398.782 L 349.348,-398.82 L 349.485,-398.88 L 349.619,-398.951 L 349.74,-399.024
 L 349.848,-399.101 L 349.944,-399.185 L 350.029,-399.277 L 350.103,-399.379 L 350.168,-399.495 L 350.223,-399.625
 L 350.269,-399.772 L 350.308,-399.938 L 350.34,-400.126 L 350.366,-400.336 L 350.386,-400.572 L 350.401,-400.836
 L 350.411,-401.129 L 350.418,-401.454 L 350.423,-401.813 L 350.425,-402.207 L 350.426,-402.64 L 350.426,-403.113
 L 352.307,-418.165 L 352.529,-419.451 L 352.77,-420.762 L 353.027,-422.088 L 353.297,-423.418 L 353.579,-424.743
 L 353.87,-426.052 L 354.166,-427.335 L 354.467,-428.581 L 354.77,-429.781 L 355.071,-430.924 L 355.369,-432
 L 355.66,-432.999 L 355.943,-433.91 L 356.216,-434.724 L 356.475,-435.429 L 356.718,-436.017 L 356.942,-436.476
 L 357.146,-436.796 L 357.327,-436.968 L 357.481,-436.98 L 358.3,-429.409 L 359.676,-421.919 L 361.602,-414.552
 L 364.067,-407.347 L 365.007,-405.936 L 366.889,-401.232 L 367.101,-400.815 L 367.313,-400.412 L 367.527,-400.021
 L 367.743,-399.64 L 367.962,-399.269 L 368.184,-398.908 L 368.411,-398.554 L 368.642,-398.206 L 368.88,-397.865
 L 369.123,-397.528 L 369.374,-397.194 L 369.632,-396.863 L 369.899,-396.533 L 370.175,-396.204 L 370.461,-395.874
 L 370.757,-395.542 L 371.065,-395.208 L 371.385,-394.869 L 371.717,-394.526 L 372.063,-394.176 L 373.019,-393.206
 L 373.912,-392.271 L 374.742,-391.372 L 375.51,-390.507 L 376.215,-389.678 L 376.859,-388.885 L 377.442,-388.126
 L 377.963,-387.403 L 378.424,-386.715 L 378.825,-386.062 L 379.165,-385.445 L 379.446,-384.863 L 379.667,-384.316
 L 379.83,-383.805 L 379.934,-383.328 L 379.98,-382.887 L 379.968,-382.482 L 379.899,-382.111 L 379.772,-381.776
 L 379.589,-381.476 L 375.826,-379.595 L 375.155,-379.256 L 374.55,-378.943 L 374.008,-378.655 L 373.523,-378.391
 L 373.092,-378.147 L 372.71,-377.923 L 372.374,-377.716 L 372.078,-377.525 L 371.819,-377.348 L 371.593,-377.184
 L 371.394,-377.03 L 371.22,-376.885 L 371.066,-376.748 L 370.927,-376.615 L 370.799,-376.486 L 370.678,-376.359
 L 370.56,-376.231 L 370.441,-376.102 L 370.316,-375.97 L 370.181,-375.832 L 368.3,-373.48 L 365.948,-369.717
 L 364.067,-366.424 L 363.926,-366.344 L 363.785,-366.243 L 363.645,-366.125 L 363.506,-365.992 L 363.368,-365.844
 L 363.233,-365.684 L 363.099,-365.513 L 362.968,-365.333 L 362.84,-365.146 L 362.714,-364.954 L 362.593,-364.759
 L 362.475,-364.562 L 362.361,-364.364 L 362.252,-364.169 L 362.148,-363.977 L 362.05,-363.79 L 361.957,-363.611
 L 361.87,-363.44 L 361.789,-363.28 L 361.715,-363.132 L 361.641,-362.917 L 361.56,-362.695 L 361.471,-362.468
 L 361.376,-362.236 L 361.274,-362 L 361.164,-361.76 L 361.048,-361.518 L 360.925,-361.273 L 360.794,-361.027
 L 360.656,-360.78 L 360.512,-360.533 L 360.36,-360.287 L 360.201,-360.042 L 360.036,-359.8 L 359.863,-359.56
 L 359.683,-359.324 L 359.496,-359.092 L 359.302,-358.865 L 359.101,-358.643 L 358.893,-358.428 L 356.541,-355.135
 L 356.333,-354.73 L 356.133,-354.092 L 355.944,-353.243 L 355.766,-352.204 L 355.6,-350.998 L 355.449,-349.645
 L 355.313,-348.167 L 355.194,-346.586 L 355.093,-344.923 L 355.012,-343.2 L 354.952,-341.438 L 354.915,-339.658
 L 354.902,-337.883 L 354.914,-336.134 L 354.953,-334.432 L 355.02,-332.799 L 355.117,-331.256 L 355.245,-329.824
 L 355.406,-328.527 L 355.6,-327.384 L 356.07,-320.328 L 357.481,-314.684 L 357.65,-314.156 L 357.869,-313.567
 L 358.133,-312.924 L 358.437,-312.238 L 358.775,-311.516 L 359.141,-310.768 L 359.529,-310.002 L 359.935,-309.227
 L 360.352,-308.453 L 360.774,-307.687 L 361.196,-306.939 L 361.613,-306.217 L 362.019,-305.531 L 362.407,-304.888
 L 362.773,-304.299 L 363.111,-303.771 L 363.415,-303.314 L 363.679,-302.936 L 363.898,-302.647 L 364.067,-302.454
 L 366.419,-299.161 L 367.007,-298.382 L 367.641,-297.599 L 368.318,-296.814 L 369.034,-296.031 L 369.785,-295.251
 L 370.567,-294.479 L 371.378,-293.717 L 372.213,-292.968 L 373.07,-292.234 L 373.944,-291.518 L 374.833,-290.823
 L 375.732,-290.153 L 376.638,-289.509 L 377.547,-288.895 L 378.457,-288.314 L 379.363,-287.767 L 380.262,-287.259
 L 381.151,-286.792 L 382.025,-286.368 L 382.881,-285.991 L 383.829,-285.589 L 384.701,-285.226 L 385.51,-284.902
 L 386.264,-284.614 L 386.975,-284.359 L 387.652,-284.137 L 388.306,-283.944 L 388.947,-283.778 L 389.585,-283.638
 L 390.231,-283.522 L 390.894,-283.426 L 391.585,-283.349 L 392.314,-283.29 L 393.092,-283.245 L 393.928,-283.213
 L 394.833,-283.191 L 395.816,-283.178 L 396.89,-283.172 L 398.062,-283.169 L 399.344,-283.169 L 400.707,-283.105
 L 401.977,-283.057 L 403.159,-283.024 L 404.259,-283.007 L 405.283,-283.007 L 406.236,-283.025 L 407.125,-283.061
 L 407.954,-283.116 L 408.73,-283.191 L 409.457,-283.286 L 410.143,-283.403 L 410.791,-283.541 L 411.409,-283.702
 L 412.001,-283.887 L 412.574,-284.095 L 413.132,-284.328 L 413.682,-284.586 L 414.229,-284.871 L 414.779,-285.182
 L 415.337,-285.521 L 416.063,-285.911 L 416.823,-286.372 L 417.611,-286.897 L 418.419,-287.477 L 419.24,-288.108
 L 420.066,-288.78 L 420.89,-289.488 L 421.704,-290.224 L 422.501,-290.982 L 423.275,-291.753 L 424.016,-292.532
 L 424.718,-293.31 L 425.374,-294.081 L 425.975,-294.839 L 426.516,-295.575 L 426.987,-296.283 L 427.382,-296.955
 L 427.694,-297.586 L 427.915,-298.167 L 428.037,-298.691 L 431.33,-305.276 L 432.741,-309.039 L 432.936,-308.964
 L 433.233,-308.748 L 433.618,-308.406 L 434.08,-307.952 L 434.608,-307.4 L 435.188,-306.766 L 435.809,-306.063
 L 436.459,-305.306 L 437.125,-304.51 L 437.797,-303.689 L 438.462,-302.857 L 439.108,-302.029 L 439.722,-301.219
 L 440.294,-300.442 L 440.811,-299.713 L 441.26,-299.045 L 441.631,-298.453 L 441.91,-297.952 L 442.087,-297.556
 L 442.148,-297.28 L 445.911,-291.635 L 449.204,-289.284 L 449.573,-289.048 L 449.973,-288.769 L 450.397,-288.45
 L 450.841,-288.098 L 451.298,-287.718 L 451.765,-287.315 L 452.235,-286.894 L 452.703,-286.461 L 453.165,-286.021
 L 453.613,-285.579 L 454.045,-285.141 L 454.453,-284.712 L 454.833,-284.296 L 455.18,-283.9 L 455.488,-283.529
 L 455.751,-283.188 L 455.966,-282.882 L 456.125,-282.616 L 456.225,-282.397 L 456.259,-282.228 L 458.44,-277.604
 L 460.271,-272.831 L 461.742,-267.935 L 462.844,-262.943 L 462.979,-262.459 L 463.099,-261.992 L 463.206,-261.539
 L 463.3,-261.095 L 463.381,-260.657 L 463.45,-260.221 L 463.507,-259.782 L 463.552,-259.338 L 463.586,-258.884
 L 463.609,-258.416 L 463.621,-257.93 L 463.623,-257.423 L 463.616,-256.89 L 463.598,-256.328 L 463.572,-255.733
 L 463.537,-255.101 L 463.493,-254.428 L 463.441,-253.71 L 463.382,-252.943 L 463.315,-252.124 L 463.785,-244.128
 L 464.256,-242.247 L 460.022,-243.187 L 453.907,-243.187 L 453.692,-243.113 L 453.472,-243.033 L 453.247,-242.946
 L 453.019,-242.852 L 452.79,-242.754 L 452.561,-242.65 L 452.334,-242.541 L 452.109,-242.427 L 451.888,-242.309
 L 451.673,-242.188 L 451.465,-242.063 L 451.266,-241.934 L 451.076,-241.803 L 450.898,-241.669 L 450.732,-241.534
 L 450.581,-241.396 L 450.445,-241.257 L 450.326,-241.117 L 450.225,-240.977 L 450.144,-240.835 L 444.97,-239.424
 L 444.332,-239.414 L 443.688,-239.383 L 443.04,-239.332 L 442.389,-239.263 L 441.737,-239.174 L 441.084,-239.069
 L 440.433,-238.946 L 439.785,-238.807 L 439.141,-238.653 L 438.503,-238.484 L 437.872,-238.3 L 437.249,-238.104
 L 436.636,-237.894 L 436.034,-237.673 L 435.445,-237.44 L 434.871,-237.197 L 434.311,-236.944 L 433.769,-236.681
 L 433.245,-236.41 L 432.741,-236.132 L 429.448,-235.191 L 429.374,-235.187 L 429.294,-235.176 L 429.208,-235.158
 L 429.117,-235.131 L 429.022,-235.096 L 428.923,-235.051 L 428.822,-234.998 L 428.718,-234.935 L 428.613,-234.862
 L 428.507,-234.779 L 428.402,-234.686 L 428.297,-234.581 L 428.193,-234.466 L 428.092,-234.338 L 427.993,-234.199
 L 427.898,-234.047 L 427.807,-233.883 L 427.721,-233.705 L 427.641,-233.514 L 427.567,-233.31 L 425.049,-229.598
 L 422.269,-226.079 L 419.243,-222.769 L 415.986,-219.686 L 412.515,-216.847 L 412.35,-216.771 L 412.142,-216.556
 L 411.896,-216.215 L 411.619,-215.763 L 411.317,-215.215 L 410.995,-214.586 L 410.66,-213.891 L 410.317,-213.144
 L 409.973,-212.36 L 409.634,-211.555 L 409.305,-210.742 L 408.993,-209.938 L 408.703,-209.156 L 408.442,-208.411
 L 408.215,-207.718 L 408.029,-207.093 L 407.89,-206.549 L 407.803,-206.102 L 407.775,-205.767 L 407.811,-205.558
 L 409.222,-205.558 L 409.222,-204.617 L 409.145,-204.361 L 409.056,-204.023 L 408.957,-203.614 L 408.85,-203.142
 L 408.737,-202.618 L 408.621,-202.052 L 408.504,-201.453 L 408.387,-200.831 L 408.273,-200.197 L 408.164,-199.561
 L 408.062,-198.931 L 407.969,-198.318 L 407.888,-197.732 L 407.82,-197.182 L 407.767,-196.679 L 407.732,-196.233
 L 407.717,-195.853 L 407.724,-195.549 L 407.754,-195.331 L 407.811,-195.21 L 407.896,-195.083 L 408.007,-194.984
 L 408.145,-194.913 L 408.308,-194.871 L 408.495,-194.857 L 408.704,-194.871 L 408.936,-194.913 L 409.188,-194.984
 L 409.461,-195.083 L 409.751,-195.21 L 410.06,-195.365 L 410.385,-195.548 L 410.726,-195.76 L 411.081,-196
 L 411.449,-196.268 L 411.83,-196.564 L 412.222,-196.889 L 412.624,-197.242 L 413.036,-197.623 L 413.456,-198.032
 L 414.471,-199.072 L 415.539,-200.076 L 416.657,-201.043 L 417.821,-201.972 L 419.027,-202.86 L 420.271,-203.709
 L 421.551,-204.515 L 422.863,-205.279 L 424.203,-205.999 L 425.568,-206.675 L 426.953,-207.304 L 428.357,-207.887
 L 429.774,-208.422 L 431.203,-208.907 L 432.638,-209.343 L 434.077,-209.727 L 435.515,-210.059 L 436.951,-210.338
 L 438.379,-210.563 L 439.796,-210.732 L 440.273,-210.732 L 440.717,-210.731 L 441.13,-210.729 L 441.516,-210.724
 L 441.876,-210.717 L 442.214,-210.706 L 442.53,-210.691 L 442.829,-210.672 L 443.113,-210.646 L 443.383,-210.614
 L 443.643,-210.575 L 443.894,-210.529 L 444.14,-210.473 L 444.383,-210.409 L 444.625,-210.335 L 444.869,-210.25
 L 445.117,-210.154 L 445.372,-210.046 L 445.636,-209.925 L 445.911,-209.791 L 446.401,-209.569 L 446.885,-209.326
 L 447.361,-209.062 L 447.83,-208.779 L 448.292,-208.475 L 448.747,-208.153 L 449.195,-207.811 L 449.636,-207.451
 L 450.07,-207.072 L 450.497,-206.675 L 450.917,-206.26 L 451.33,-205.829 L 451.735,-205.38 L 452.134,-204.915
 L 452.526,-204.433 L 452.91,-203.936 L 453.288,-203.423 L 453.658,-202.895 L 454.021,-202.352 L 454.378,-201.795
 L 462.374,-190.976 L 462.723,-190.61 L 463.065,-190.217 L 463.397,-189.799 L 463.721,-189.358 L 464.035,-188.896
 L 464.338,-188.415 L 464.63,-187.916 L 464.91,-187.401 L 465.178,-186.873 L 465.431,-186.331 L 465.671,-185.78
 L 465.896,-185.219 L 466.106,-184.651 L 466.299,-184.078 L 466.475,-183.502 L 466.634,-182.924 L 466.774,-182.345
 L 466.895,-181.769 L 466.997,-181.196 L 467.078,-180.628 L 467.342,-178.877 L 467.572,-177.021 L 467.767,-175.075
 L 467.928,-173.053 L 468.055,-170.971 L 468.149,-168.842 L 468.209,-166.683 L 468.237,-164.508 L 468.232,-162.331
 L 468.195,-160.167 L 468.126,-158.032 L 468.026,-155.939 L 467.895,-153.905 L 467.733,-151.943 L 467.541,-150.069
 L 467.319,-148.297 L 467.067,-146.642 L 466.786,-145.119 L 466.476,-143.743 L 466.137,-142.528 L 464.256,-135.473
 L 463.043,-131.308 L 461.536,-127.24 L 459.742,-123.291 L 457.67,-119.48 L 454.848,-113.835 L 452.496,-108.661
 L 450.615,-105.369 L 450.559,-105.133 L 450.396,-104.852 L 450.131,-104.529 L 449.768,-104.168 L 449.314,-103.774
 L 448.773,-103.35 L 448.152,-102.899 L 447.454,-102.426 L 446.686,-101.935 L 445.852,-101.429 L 444.959,-100.913
 L 444.011,-100.39 L 443.013,-99.8647 L 441.972,-99.3401 L 440.891,-98.8204 L 439.777,-98.3095 L 438.635,-97.8113
 L 437.47,-97.3297 L 436.288,-96.8686 L 435.093,-96.4318 L 430.859,-94.0799 L 425.215,-92.1985 L 424.866,-92.1917
 L 424.525,-92.1721 L 424.193,-92.1413 L 423.871,-92.1006 L 423.561,-92.0515 L 423.263,-91.9953 L 422.979,-91.9334
 L 422.709,-91.8673 L 422.454,-91.7984 L 422.216,-91.7281 L 421.996,-91.6578 L 421.794,-91.5889 L 421.612,-91.5228
 L 421.451,-91.4609 L 421.312,-91.4047 L 421.196,-91.3556 L 421.104,-91.3149 L 421.037,-91.2841 L 420.995,-91.2645
 L 420.981,-91.2577 L 412.985,-90.7874 L 412.166,-90.8546 L 411.401,-90.9158 L 410.024,-91.0244 L 409.406,-91.074
 L 408.832,-91.1218 L 408.3,-91.1689 L 407.807,-91.2163 L 407.351,-91.2652 L 406.929,-91.3165 L 406.539,-91.3714
 L 406.178,-91.4308 L 405.844,-91.4959 L 405.534,-91.5677 L 405.246,-91.6472 L 404.978,-91.7356 L 404.726,-91.8339
 L 404.489,-91.9431 L 404.264,-92.0642 L 404.048,-92.1985 L 402.582,-92.9303 L 401.28,-93.5799 L 400.13,-94.1569
 L 399.119,-94.6707 L 398.235,-95.1309 L 397.465,-95.547 L 396.798,-95.9286 L 396.221,-96.285 L 395.722,-96.626
 L 395.287,-96.961 L 394.906,-97.2995 L 394.565,-97.651 L 394.253,-98.0251 L 393.956,-98.4313 L 393.663,-98.8792
 L 393.361,-99.3782 L 393.038,-99.9379 L 392.682,-100.568 L 392.279,-101.277 L 391.819,-102.076 L 391.339,-102.836
 L 390.885,-103.566 L 390.457,-104.273 L 390.054,-104.962 L 389.672,-105.641 L 389.312,-106.314 L 388.972,-106.988
 L 388.65,-107.668 L 388.345,-108.361 L 388.056,-109.073 L 387.78,-109.81 L 387.517,-110.577 L 387.266,-111.381
 L 387.024,-112.227 L 386.791,-113.123 L 386.565,-114.073 L 386.345,-115.083 L 386.129,-116.161 L 385.916,-117.311
 L 385.704,-118.539 L 385.704,-127.476 L 385.778,-128.366 L 385.858,-129.202 L 385.946,-129.987 L 386.039,-130.724
 L 386.137,-131.416 L 386.241,-132.065 L 386.35,-132.675 L 386.464,-133.249 L 386.582,-133.788 L 386.703,-134.297
 L 386.828,-134.777 L 386.957,-135.232 L 387.088,-135.664 L 387.222,-136.076 L 387.357,-136.472 L 387.495,-136.854
 L 387.634,-137.224 L 387.774,-137.585 L 387.914,-137.942 L 388.056,-138.295 L 388.996,-140.176 L 393.23,-140.176
 L 393.773,-140.176 L 394.279,-140.178 L 394.748,-140.181 L 395.186,-140.188 L 395.596,-140.198 L 395.981,-140.214
 L 396.345,-140.237 L 396.692,-140.267 L 397.024,-140.305 L 397.345,-140.353 L 397.66,-140.411 L 397.971,-140.481
 L 398.282,-140.564 L 398.597,-140.66 L 398.918,-140.772 L 399.25,-140.899 L 399.597,-141.043 L 399.961,-141.205
 L 400.346,-141.386 L 400.756,-141.587 L 401.246,-141.81 L 401.73,-142.053 L 402.207,-142.316 L 402.678,-142.6
 L 403.144,-142.903 L 403.605,-143.226 L 404.06,-143.567 L 404.511,-143.928 L 404.958,-144.307 L 405.4,-144.704
 L 405.84,-145.118 L 406.276,-145.55 L 406.709,-145.998 L 407.14,-146.464 L 407.569,-146.945 L 407.995,-147.443
 L 408.421,-147.955 L 408.845,-148.483 L 409.269,-149.026 L 409.693,-149.584 L 410.106,-150.194 L 410.499,-150.758
 L 410.875,-151.276 L 411.235,-151.751 L 411.581,-152.185 L 411.915,-152.581 L 412.238,-152.94 L 412.552,-153.264
 L 412.86,-153.556 L 413.162,-153.817 L 413.46,-154.05 L 413.757,-154.257 L 414.053,-154.44 L 414.352,-154.602
 L 414.654,-154.743 L 414.961,-154.867 L 415.275,-154.975 L 415.598,-155.07 L 415.932,-155.154 L 416.278,-155.228
 L 416.641,-155.292 L 417.022,-155.341 L 417.42,-155.378 L 417.832,-155.401 L 418.255,-155.412 L 418.687,-155.41
 L 419.125,-155.396 L 419.567,-155.371 L 420.01,-155.334 L 420.452,-155.287 L 420.891,-155.229 L 421.324,-155.16
 L 421.748,-155.082 L 422.162,-154.994 L 422.562,-154.897 L 422.946,-154.792 L 423.312,-154.677 L 423.656,-154.555
 L 423.978,-154.425 L 424.274,-154.287 L 424.768,-154.065 L 425.265,-153.819 L 425.767,-153.549 L 426.276,-153.253
 L 426.795,-152.928 L 427.326,-152.573 L 427.872,-152.186 L 428.436,-151.766 L 429.019,-151.311 L 429.625,-150.818
 L 430.255,-150.287 L 430.912,-149.715 L 431.599,-149.101 L 432.318,-148.443 L 433.071,-147.739 L 433.862,-146.987
 L 434.692,-146.186 L 435.564,-145.334 L 436.481,-144.429 L 438.394,-142.523 L 439.269,-141.659 L 440.074,-140.874
 L 440.812,-140.165 L 441.487,-139.529 L 442.101,-138.965 L 442.659,-138.467 L 443.164,-138.035 L 443.62,-137.665
 L 444.03,-137.354 L 444.397,-137.1 L 444.726,-136.899 L 445.019,-136.749 L 445.281,-136.647 L 445.514,-136.59
 L 445.723,-136.575 L 445.911,-136.6 L 446.08,-136.662 L 446.236,-136.757 L 446.381,-136.884 L 446.448,-136.954
 L 446.508,-137.026 L 446.56,-137.1 L 446.603,-137.177 L 446.639,-137.258 L 446.665,-137.345 L 446.682,-137.438
 L 446.69,-137.538 L 446.688,-137.647 L 446.675,-137.766 L 446.652,-137.895 L 446.619,-138.035 L 446.573,-138.188
 L 446.516,-138.355 L 446.448,-138.537 L 446.366,-138.735 L 446.273,-138.95 L 446.166,-139.182 L 446.045,-139.434
 L 445.911,-139.706 L 443.559,-144.88 L 443.263,-145.726 L 442.94,-146.571 L 442.59,-147.414 L 442.216,-148.252
 L 441.817,-149.084 L 441.396,-149.909 L 440.953,-150.726 L 440.489,-151.533 L 440.005,-152.328 L 439.502,-153.111
 L 438.982,-153.88 L 438.445,-154.634 L 437.893,-155.37 L 437.326,-156.088 L 436.746,-156.786 L 436.154,-157.463
 L 435.55,-158.118 L 434.936,-158.748 L 434.313,-159.353 L 433.681,-159.932 L 428.507,-164.165 L 425.685,-165.576
 L 425.302,-165.795 L 424.863,-166.025 L 424.374,-166.264 L 423.845,-166.509 L 423.282,-166.76 L 422.692,-167.011
 L 422.083,-167.262 L 421.463,-167.51 L 420.839,-167.753 L 420.217,-167.987 L 419.606,-168.21 L 419.013,-168.421
 L 418.446,-168.616 L 417.911,-168.793 L 417.417,-168.95 L 416.97,-169.083 L 416.578,-169.192 L 416.249,-169.272
 L 415.99,-169.322 L 415.807,-169.339 L 411.104,-170.75 L 405.459,-172.632 L 405.187,-172.699 L 404.935,-172.758
 L 404.701,-172.809 L 404.485,-172.85 L 404.283,-172.882 L 404.096,-172.903 L 403.922,-172.912 L 403.758,-172.91
 L 403.605,-172.895 L 403.46,-172.867 L 403.322,-172.825 L 403.19,-172.767 L 403.062,-172.694 L 402.937,-172.605
 L 402.813,-172.5 L 402.69,-172.376 L 402.565,-172.234 L 402.437,-172.073 L 402.304,-171.892 L 402.167,-171.691
 L 401.226,-170.28 L 402.637,-170.75 L 403.578,-170.75 L 404.048,-169.81 L 398.404,-167.458 L 392.759,-164.635
 L 391.149,-163.19 L 389.592,-161.688 L 388.09,-160.131 L 386.644,-158.521 L 386.278,-158.098 L 385.887,-157.677
 L 385.475,-157.262 L 385.045,-156.854 L 384.601,-156.455 L 384.147,-156.07 L 383.685,-155.699 L 383.22,-155.345
 L 382.755,-155.011 L 382.294,-154.699 L 381.839,-154.412 L 381.395,-154.152 L 380.965,-153.922 L 380.553,-153.723
 L 380.162,-153.56 L 379.796,-153.433 L 379.458,-153.346 L 379.151,-153.301 L 378.88,-153.3 L 378.648,-153.347
 L 378.578,-153.41 L 378.507,-153.46 L 378.436,-153.498 L 378.366,-153.523 L 378.295,-153.538 L 378.225,-153.541
 L 378.154,-153.535 L 378.084,-153.52 L 378.013,-153.496 L 377.943,-153.464 L 377.872,-153.426 L 377.801,-153.38
 L 377.731,-153.33 L 377.66,-153.274 L 377.59,-153.214 L 377.519,-153.151 L 377.449,-153.085 L 377.378,-153.016
 L 377.308,-152.947 L 377.237,-152.876 L 377.177,-152.665 L 377.138,-152.453 L 377.119,-152.243 L 377.12,-152.033
 L 377.141,-151.825 L 377.182,-151.619 L 377.242,-151.415 L 377.32,-151.213 L 377.416,-151.014 L 377.531,-150.818
 L 377.663,-150.626 L 377.813,-150.438 L 377.979,-150.254 L 378.162,-150.074 L 378.362,-149.9 L 378.577,-149.73
 L 378.807,-149.567 L 379.053,-149.409 L 379.314,-149.258 L 379.589,-149.113 L 381.47,-147.232 L 381.604,-147.097
 L 381.724,-146.975 L 381.83,-146.864 L 381.922,-146.761 L 382,-146.666 L 382.063,-146.576 L 382.112,-146.489
 L 382.148,-146.404 L 382.169,-146.319 L 382.176,-146.232 L 382.169,-146.142 L 382.148,-146.046 L 382.112,-145.944
 L 382.063,-145.832 L 382,-145.71 L 381.922,-145.576 L 381.83,-145.428 L 381.724,-145.263 L 381.604,-145.081
 L 381.47,-144.88 L 380.059,-143.469 L 381.941,-144.41 L 383.352,-145.821 L 383.352,-144.88 L 383.335,-144.644
 L 383.285,-144.365 L 383.206,-144.047 L 383.1,-143.695 L 382.97,-143.314 L 382.818,-142.911 L 382.649,-142.491
 L 382.464,-142.058 L 382.266,-141.618 L 382.058,-141.176 L 381.844,-140.737 L 381.625,-140.308 L 381.404,-139.893
 L 381.185,-139.497 L 380.971,-139.125 L 380.763,-138.784 L 380.565,-138.478 L 380.38,-138.212 L 380.21,-137.993
 L 380.059,-137.824 L 377.237,-133.121 L 372.063,-125.124 L 367.83,-119.48 L 366.889,-113.835 L 366.419,-108.191
 L 366.724,-105.257 L 366.982,-102.319 L 367.194,-99.3768 L 367.359,-96.4318 L 368.3,-89.8466 L 368.486,-89.4561
 L 368.758,-88.9943 L 369.109,-88.4676 L 369.534,-87.8823 L 370.027,-87.2449 L 370.582,-86.5615 L 371.192,-85.8387
 L 371.852,-85.0827 L 372.556,-84.2999 L 373.298,-83.4966 L 374.071,-82.6792 L 374.87,-81.8541 L 375.689,-81.0275
 L 376.522,-80.2059 L 377.362,-79.3956 L 378.204,-78.6029 L 379.042,-77.8342 L 379.87,-77.0958 L 380.681,-76.3941
 L 381.47,-75.7355 L 382.434,-75.0542 L 383.354,-74.4194 L 384.234,-73.8284 L 385.079,-73.2783 L 385.895,-72.7663
 L 386.686,-72.2896 L 387.457,-71.8453 L 388.214,-71.4307 L 388.96,-71.0428 L 389.702,-70.679 L 390.443,-70.3363
 L 391.19,-70.012 L 391.947,-69.7032 L 392.718,-69.4071 L 393.509,-69.1209 L 394.325,-68.8418 L 395.17,-68.5668
 L 396.05,-68.2933 L 396.969,-68.0184 L 397.933,-67.7392 L 403.107,-66.3281 L 415.807,-66.3281 z
M 352.487,-601.353 L 352.39,-601.429 L 352.312,-601.545 L 352.252,-601.7 L 352.212,-601.896 L 352.191,-602.133
 L 352.189,-602.41 L 352.208,-602.729 L 352.247,-603.089 L 352.307,-603.491 L 352.396,-604.066 L 352.52,-604.661
 L 352.679,-605.276 L 352.876,-605.911 L 353.109,-606.563 L 353.378,-607.233 L 353.686,-607.92 L 354.031,-608.624
 L 354.414,-609.343 L 354.836,-610.076 L 355.296,-610.824 L 355.796,-611.585 L 356.335,-612.359 L 356.914,-613.145
 L 357.533,-613.942 L 358.193,-614.75 L 358.893,-615.567 L 359.635,-616.394 L 360.419,-617.23 L 361.244,-618.073
 L 361.389,-618.277 L 361.54,-618.467 L 361.696,-618.642 L 361.858,-618.803 L 362.023,-618.947 L 362.193,-619.076
 L 362.365,-619.188 L 362.539,-619.284 L 362.714,-619.363 L 362.891,-619.425 L 363.067,-619.469 L 363.243,-619.495
 L 363.417,-619.503 L 363.589,-619.492 L 363.758,-619.462 L 363.924,-619.412 L 364.085,-619.343 L 364.242,-619.254
 L 364.393,-619.144 L 364.537,-619.013 L 364.067,-618.543 L 363.596,-617.602 L 363.126,-615.721 L 363.052,-615.714
 L 362.972,-615.693 L 362.886,-615.659 L 362.795,-615.612 L 362.7,-615.552 L 362.601,-615.479 L 362.499,-615.395
 L 362.396,-615.299 L 362.291,-615.192 L 362.185,-615.074 L 362.079,-614.945 L 361.974,-614.806 L 361.871,-614.657
 L 361.769,-614.499 L 361.671,-614.332 L 361.576,-614.155 L 361.485,-613.971 L 361.399,-613.778 L 361.318,-613.577
 L 361.244,-613.369 L 361.157,-613.073 L 361.036,-612.751 L 360.885,-612.406 L 360.706,-612.041 L 360.502,-611.656
 L 360.275,-611.256 L 360.027,-610.843 L 359.762,-610.419 L 359.481,-609.986 L 359.187,-609.547 L 358.882,-609.105
 L 358.569,-608.661 L 358.25,-608.219 L 357.929,-607.781 L 357.606,-607.35 L 357.286,-606.927 L 356.969,-606.515
 L 356.66,-606.117 L 356.359,-605.735 L 356.07,-605.373 L 354.659,-603.021 L 354.384,-602.686 L 354.124,-602.386
 L 353.878,-602.123 L 353.647,-601.896 L 353.432,-601.705 L 353.233,-601.552 L 353.05,-601.436 L 352.883,-601.357
 L 352.734,-601.317 L 352.601,-601.316 z
M 326.437,-579.502 L 326.907,-579.973 L 327.848,-579.502 L 327.378,-579.032 z
M 341.959,-562.098 L 343.841,-566.332 L 346.193,-571.036 L 346.351,-571.331 L 346.541,-571.651 L 346.76,-571.992
 L 347.005,-572.349 L 347.273,-572.719 L 347.56,-573.097 L 347.863,-573.481 L 348.179,-573.865 L 348.506,-574.247
 L 348.838,-574.622 L 349.175,-574.987 L 349.512,-575.337 L 349.845,-575.668 L 350.173,-575.978 L 350.492,-576.261
 L 350.798,-576.514 L 351.089,-576.734 L 351.361,-576.916 L 351.612,-577.056 L 351.837,-577.15 L 352.038,-577.217
 L 352.219,-577.276 L 352.382,-577.327 L 352.526,-577.369 L 352.653,-577.4 L 352.764,-577.421 L 352.861,-577.431
 L 352.943,-577.429 L 353.013,-577.414 L 353.072,-577.385 L 353.12,-577.343 L 353.158,-577.286 L 353.188,-577.213
 L 353.21,-577.124 L 353.226,-577.018 L 353.237,-576.894 L 353.243,-576.753 L 353.247,-576.592 L 353.248,-576.411
 L 353.248,-576.21 L 352.307,-571.976 L 352.23,-571.415 L 352.139,-570.863 L 352.037,-570.319 L 351.924,-569.786
 L 351.8,-569.264 L 351.668,-568.755 L 351.528,-568.258 L 351.382,-567.777 L 351.229,-567.311 L 351.073,-566.861
 L 350.912,-566.429 L 350.75,-566.016 L 350.585,-565.622 L 350.421,-565.249 L 350.257,-564.899 L 350.095,-564.571
 L 349.936,-564.267 L 349.78,-563.988 L 349.63,-563.735 L 349.485,-563.51 L 349.246,-563.288 L 348.957,-563.048
 L 348.623,-562.794 L 348.251,-562.527 L 347.846,-562.253 L 347.415,-561.973 L 346.963,-561.691 L 346.497,-561.41
 L 346.023,-561.133 L 345.546,-560.864 L 345.072,-560.605 L 344.608,-560.36 L 344.16,-560.132 L 343.733,-559.924
 L 343.334,-559.739 L 342.968,-559.581 L 342.641,-559.452 L 342.36,-559.357 L 342.131,-559.297 L 341.959,-559.276
 z
M 445.324,-380.624 L 439.796,-381.006 L 432.27,-384.298 L 422.863,-388.532 L 422.463,-388.781 L 421.974,-389.1
 L 421.409,-389.481 L 420.778,-389.917 L 420.092,-390.399 L 419.362,-390.919 L 418.599,-391.471 L 417.813,-392.046
 L 417.016,-392.637 L 416.219,-393.236 L 415.432,-393.834 L 414.667,-394.425 L 413.935,-395 L 413.245,-395.552
 L 412.61,-396.072 L 412.041,-396.554 L 411.547,-396.99 L 411.141,-397.371 L 410.833,-397.69 L 410.633,-397.939
 L 407.922,-400.285 L 405.365,-402.799 L 402.973,-405.47 L 400.756,-408.287 L 396.894,-413.894 L 393.327,-419.694
 L 390.064,-425.669 L 387.115,-431.806 L 383.352,-441.684 L 383.359,-441.811 L 383.38,-441.91 L 383.414,-441.982
 L 383.461,-442.026 L 383.521,-442.044 L 383.593,-442.035 L 383.677,-442 L 383.773,-441.94 L 383.88,-441.854
 L 383.999,-441.742 L 384.127,-441.607 L 384.266,-441.447 L 384.415,-441.262 L 384.573,-441.055 L 384.741,-440.824
 L 384.917,-440.57 L 385.102,-440.293 L 385.295,-439.995 L 385.496,-439.674 L 385.704,-439.332 L 388.996,-434.158
 L 389.299,-433.721 L 389.638,-433.261 L 390.01,-432.783 L 390.407,-432.291 L 390.826,-431.791 L 391.261,-431.288
 L 391.706,-430.785 L 392.157,-430.289 L 392.608,-429.805 L 393.053,-429.336 L 393.488,-428.889 L 393.907,-428.468
 L 394.305,-428.078 L 394.676,-427.724 L 395.016,-427.411 L 395.318,-427.144 L 395.578,-426.927 L 395.791,-426.766
 L 395.95,-426.666 L 396.052,-426.632 L 397.885,-425.38 L 399.751,-424.178 L 401.649,-423.027 L 403.578,-421.928
 L 404.259,-421.515 L 404.893,-421.12 L 405.483,-420.742 L 406.031,-420.378 L 406.54,-420.025 L 407.011,-419.68
 L 407.448,-419.342 L 407.852,-419.008 L 408.228,-418.675 L 408.575,-418.342 L 408.899,-418.004 L 409.2,-417.661
 L 409.481,-417.309 L 409.745,-416.946 L 409.994,-416.57 L 410.231,-416.178 L 410.458,-415.768 L 410.677,-415.337
 L 410.892,-414.882 L 411.104,-414.402 L 412.985,-412.05 L 414.867,-409.228 L 415.173,-408.724 L 415.526,-408.202
 L 415.921,-407.665 L 416.357,-407.117 L 416.829,-406.56 L 417.335,-405.998 L 417.871,-405.434 L 418.434,-404.871
 L 419.021,-404.312 L 419.629,-403.76 L 420.255,-403.219 L 420.895,-402.692 L 421.546,-402.182 L 422.206,-401.691
 L 422.87,-401.224 L 423.537,-400.784 L 424.201,-400.373 L 424.862,-399.995 L 425.514,-399.653 L 426.156,-399.35
 L 428.507,-397.939 L 436.974,-395.117 L 437.585,-394.983 L 438.154,-394.862 L 438.685,-394.754 L 439.187,-394.658
 L 439.664,-394.573 L 440.124,-394.499 L 440.572,-394.435 L 441.015,-394.379 L 441.46,-394.333 L 441.913,-394.294
 L 442.38,-394.262 L 442.867,-394.236 L 443.381,-394.217 L 443.928,-394.202 L 444.515,-394.191 L 445.147,-394.184
 L 445.832,-394.179 L 446.575,-394.177 L 447.383,-394.176 L 448.263,-394.176 L 455.238,-394.778 L 462.126,-396.034
 L 468.865,-397.932 L 475.395,-400.456 L 481.659,-403.584 L 483.541,-404.054 L 483.07,-402.173 L 482.13,-398.88
 L 481.189,-396.998 L 480.248,-396.058 L 479.307,-394.176 L 476.015,-390.884 L 471.311,-386.65 L 461.904,-381.476
 L 456.397,-380.86 L 450.864,-380.576 z
M 509.725,-235.535 L 506.457,-242.552 L 503.373,-249.651 L 500.474,-256.828 L 496.17,-267.276 L 491.11,-277.38
 L 485.322,-287.085 L 478.837,-296.339 L 475.544,-300.102 L 470.421,-306.315 L 464.81,-312.092 L 458.749,-317.395
 L 452.279,-322.189 L 445.441,-326.443 L 436.974,-331.617 L 436.869,-331.765 L 436.699,-331.925 L 436.469,-332.096
 L 436.184,-332.275 L 435.85,-332.462 L 435.471,-332.654 L 435.054,-332.85 L 434.603,-333.047 L 434.124,-333.244
 L 433.623,-333.44 L 433.103,-333.632 L 432.571,-333.818 L 432.033,-333.998 L 431.492,-334.169 L 430.955,-334.329
 L 430.427,-334.477 L 429.912,-334.611 L 429.418,-334.728 L 428.947,-334.829 L 428.507,-334.91 L 412.985,-339.143
 L 412.227,-339.404 L 411.506,-339.623 L 410.824,-339.801 L 410.182,-339.937 L 409.582,-340.032 L 409.027,-340.087
 L 408.518,-340.101 L 408.056,-340.076 L 407.643,-340.011 L 407.282,-339.907 L 406.974,-339.764 L 406.72,-339.583
 L 406.523,-339.364 L 406.384,-339.107 L 406.304,-338.812 L 406.287,-338.481 L 406.333,-338.112 L 406.445,-337.708
 L 406.623,-337.267 L 406.87,-336.791 L 408.752,-334.439 L 408.896,-334.429 L 409.047,-334.399 L 409.204,-334.35
 L 409.365,-334.285 L 409.531,-334.204 L 409.7,-334.109 L 409.872,-334.001 L 410.046,-333.882 L 410.222,-333.753
 L 410.398,-333.616 L 410.574,-333.472 L 410.75,-333.322 L 410.924,-333.167 L 411.096,-333.01 L 411.265,-332.852
 L 411.431,-332.693 L 411.593,-332.536 L 411.749,-332.382 L 411.9,-332.232 L 412.044,-332.087 L 412.517,-331.597
 L 412.95,-331.11 L 413.344,-330.625 L 413.7,-330.138 L 414.021,-329.647 L 414.309,-329.149 L 414.565,-328.642
 L 414.791,-328.121 L 414.989,-327.585 L 415.161,-327.031 L 415.307,-326.455 L 415.431,-325.856 L 415.534,-325.23
 L 415.617,-324.574 L 415.682,-323.885 L 415.732,-323.162 L 415.768,-322.4 L 415.791,-321.597 L 415.804,-320.751
 L 415.807,-319.858 L 415.337,-314.213 L 412.515,-311.861 L 409.693,-309.98 L 406.87,-309.039 L 404.989,-308.098
 L 401.696,-309.51 L 397.463,-312.802 L 397.174,-313.176 L 396.873,-313.589 L 396.561,-314.04 L 396.24,-314.526
 L 395.912,-315.044 L 395.579,-315.592 L 395.243,-316.168 L 394.904,-316.768 L 394.566,-317.392 L 394.229,-318.035
 L 393.896,-318.696 L 393.568,-319.372 L 393.248,-320.061 L 392.936,-320.76 L 392.634,-321.467 L 392.345,-322.179
 L 392.07,-322.895 L 391.811,-323.61 L 391.57,-324.323 L 391.348,-325.032 L 391.214,-325.576 L 391.093,-326.083
 L 390.985,-326.557 L 390.889,-327.004 L 390.804,-327.428 L 390.73,-327.834 L 390.666,-328.228 L 390.611,-328.614
 L 390.564,-328.997 L 390.525,-329.383 L 390.493,-329.775 L 390.468,-330.18 L 390.448,-330.601 L 390.433,-331.044
 L 390.422,-331.514 L 390.415,-332.016 L 390.411,-332.554 L 390.408,-333.134 L 390.408,-333.761 L 390.407,-334.439
 L 390.478,-335.258 L 390.55,-336.025 L 390.625,-336.744 L 390.705,-337.419 L 390.79,-338.055 L 390.882,-338.656
 L 390.982,-339.225 L 391.092,-339.768 L 391.214,-340.288 L 391.348,-340.789 L 391.497,-341.277 L 391.66,-341.754
 L 391.841,-342.226 L 392.041,-342.697 L 392.259,-343.17 L 392.5,-343.651 L 392.762,-344.143 L 393.049,-344.65
 L 393.361,-345.177 L 393.7,-345.728 L 395.111,-348.08 L 395.149,-348.174 L 395.258,-348.313 L 395.432,-348.492
 L 395.664,-348.705 L 395.949,-348.947 L 396.28,-349.214 L 396.65,-349.502 L 397.053,-349.803 L 397.483,-350.115
 L 397.933,-350.432 L 398.398,-350.748 L 398.87,-351.06 L 399.344,-351.362 L 399.813,-351.649 L 400.27,-351.916
 L 400.71,-352.159 L 401.126,-352.372 L 401.512,-352.55 L 401.861,-352.689 L 402.167,-352.784 L 405.93,-353.724
 L 406.205,-353.657 L 406.467,-353.596 L 406.718,-353.538 L 406.957,-353.484 L 407.186,-353.43 L 407.407,-353.377
 L 407.62,-353.323 L 407.826,-353.265 L 408.027,-353.204 L 408.223,-353.136 L 408.415,-353.062 L 408.605,-352.979
 L 408.794,-352.887 L 408.982,-352.783 L 409.171,-352.666 L 409.361,-352.535 L 409.555,-352.389 L 409.752,-352.226
 L 409.955,-352.044 L 410.163,-351.843 L 410.307,-351.699 L 410.458,-351.548 L 410.615,-351.394 L 410.776,-351.237
 L 410.942,-351.079 L 411.111,-350.92 L 411.283,-350.763 L 411.457,-350.609 L 411.633,-350.459 L 411.809,-350.314
 L 411.986,-350.177 L 412.161,-350.048 L 412.335,-349.929 L 412.507,-349.821 L 412.676,-349.726 L 412.842,-349.645
 L 413.004,-349.58 L 413.16,-349.532 L 413.311,-349.501 L 413.456,-349.491 L 416.522,-347.625 L 419.583,-345.748
 L 422.637,-343.862 L 425.685,-341.965 L 429.375,-340.048 L 433.115,-338.233 L 436.903,-336.519 L 440.737,-334.91
 L 445.098,-332.466 L 449.534,-330.161 L 454.04,-327.995 L 458.611,-325.973 L 460.299,-325.093 L 461.842,-324.284
 L 463.25,-323.54 L 464.534,-322.853 L 465.703,-322.217 L 466.769,-321.625 L 467.74,-321.07 L 468.628,-320.546
 L 469.443,-320.046 L 470.194,-319.564 L 470.892,-319.092 L 471.548,-318.623 L 472.171,-318.152 L 472.773,-317.672
 L 473.362,-317.175 L 473.949,-316.655 L 474.545,-316.106 L 475.159,-315.52 L 475.803,-314.892 L 476.485,-314.213
 L 477.016,-313.658 L 477.615,-312.991 L 478.27,-312.225 L 478.973,-311.376 L 479.712,-310.458 L 480.477,-309.485
 L 481.259,-308.471 L 482.047,-307.432 L 482.83,-306.382 L 483.6,-305.335 L 484.344,-304.306 L 485.053,-303.308
 L 485.718,-302.357 L 486.327,-301.468 L 486.87,-300.653 L 487.338,-299.929 L 487.719,-299.309 L 488.004,-298.808
 L 488.183,-298.441 L 488.244,-298.221 L 491.067,-293.047 L 491.406,-292.506 L 491.72,-292.012 L 492.011,-291.561
 L 492.282,-291.15 L 492.537,-290.776 L 492.777,-290.435 L 493.006,-290.124 L 493.227,-289.841 L 493.442,-289.581
 L 493.654,-289.342 L 493.866,-289.121 L 494.081,-288.915 L 494.301,-288.72 L 494.53,-288.532 L 494.771,-288.35
 L 495.025,-288.17 L 495.297,-287.988 L 495.588,-287.802 L 495.902,-287.607 L 496.241,-287.402 L 496.717,-287.19
 L 497.16,-286.976 L 497.572,-286.758 L 497.953,-286.533 L 498.306,-286.3 L 498.633,-286.056 L 498.934,-285.799
 L 499.213,-285.528 L 499.471,-285.24 L 499.71,-284.933 L 499.93,-284.604 L 500.135,-284.253 L 500.326,-283.875
 L 500.505,-283.471 L 500.673,-283.037 L 500.832,-282.571 L 500.984,-282.071 L 501.13,-281.535 L 501.273,-280.961
 L 501.415,-280.347 L 503.767,-274.232 L 504.18,-273.307 L 504.572,-272.367 L 504.946,-271.41 L 505.302,-270.435
 L 505.641,-269.44 L 505.964,-268.424 L 506.272,-267.385 L 506.566,-266.322 L 506.848,-265.234 L 507.118,-264.119
 L 507.378,-262.976 L 507.627,-261.803 L 507.869,-260.599 L 508.103,-259.362 L 508.331,-258.092 L 508.553,-256.787
 L 508.771,-255.445 L 508.986,-254.064 L 509.199,-252.644 L 509.411,-251.184 L 510.638,-245.59 L 511.675,-239.958
 L 512.52,-234.295 L 513.174,-228.606 z
M 312.546,-535.618 L 312.702,-535.652 L 312.872,-535.71 L 313.06,-535.795 L 313.268,-535.909 L 313.502,-536.052
 L 313.763,-536.227 L 314.057,-536.435 L 314.386,-536.679 L 314.753,-536.96 L 315.163,-537.279 L 315.619,-537.639
 L 316.124,-538.042 L 316.682,-538.488 L 317.296,-538.981 L 317.97,-539.521 L 322.204,-542.343 L 322.553,-542.558
 L 322.894,-542.779 L 323.226,-543.006 L 323.547,-543.238 L 323.857,-543.475 L 324.155,-543.715 L 324.44,-543.957
 L 324.71,-544.202 L 324.964,-544.448 L 325.202,-544.695 L 325.423,-544.942 L 325.624,-545.188 L 325.806,-545.432
 L 325.967,-545.675 L 326.106,-545.915 L 326.223,-546.151 L 326.315,-546.383 L 326.382,-546.61 L 326.423,-546.832
 L 326.437,-547.047 L 325.967,-547.517 L 325.838,-547.493 L 325.602,-547.424 L 325.269,-547.314 L 324.853,-547.167
 L 324.364,-546.988 L 323.816,-546.78 L 323.22,-546.549 L 322.588,-546.298 L 321.931,-546.031 L 321.263,-545.753
 L 320.595,-545.468 L 319.938,-545.18 L 319.306,-544.894 L 318.71,-544.613 L 318.161,-544.342 L 317.673,-544.085
 L 317.257,-543.847 L 316.924,-543.631 L 316.688,-543.442 L 316.559,-543.284 L 315.148,-542.813 L 311.385,-537.169
 L 311.856,-535.758 L 311.994,-535.695 L 312.128,-535.647 L 312.263,-535.617 L 312.401,-535.607 z
M 560,-0.00587463 L 300,-0.00587463 L 300,-0 L 560,-0 z
" stroke="black" fill="lightgray" stroke-width="0.5"/>
</svg>
