<?xml version="1.0" standalone="no"?>
<!DOCTYPE svg PUBLIC "-//W3C//DTD SVG 20010904//EN"
 "http://www.w3.org/TR/2001/REC-SVG-20010904/DTD/svg10.dtd">
<svg version="1.0" xmlns="http://www.w3.org/2000/svg"
 width="1200.000000pt" height="1580.000000pt" viewBox="0 0 1200.000000 1580.000000"
 preserveAspectRatio="xMidYMid meet">

<g transform="translate(0.000000,1580.000000) scale(0.100000,-0.100000)"
fill="#000000" stroke="none">
<path d="M0 7900 l0 -7900 6000 0 6000 0 0 7900 0 7900 -6000 0 -6000 0 0
-7900z m3316 7266 c13 -21 14 -42 9 -118 -9 -121 -33 -173 -128 -269 -93 -95
-244 -275 -263 -314 -8 -16 -30 -48 -49 -69 -19 -22 -35 -45 -35 -51 0 -6 -21
-44 -46 -85 -87 -141 -175 -366 -219 -563 -14 -61 -33 -133 -42 -159 -9 -26
-14 -50 -11 -54 14 -14 51 10 64 42 18 44 234 256 292 288 10 5 33 22 53 37
61 48 153 95 197 103 23 3 71 20 107 36 77 35 92 37 100 10 12 -39 7 -165 -9
-209 -9 -24 -45 -76 -79 -115 -89 -99 -123 -153 -180 -280 -110 -246 -152
-396 -168 -604 -14 -165 -7 -231 42 -436 25 -103 45 -155 95 -253 86 -169 105
-193 289 -362 141 -129 149 -134 302 -210 138 -68 177 -82 423 -153 160 -45
200 -53 300 -58 l115 -5 3 -41 c3 -39 0 -44 -40 -76 -24 -19 -70 -50 -103 -69
-33 -19 -73 -43 -90 -53 -16 -9 -53 -28 -81 -41 -28 -13 -72 -37 -99 -54 -27
-17 -56 -31 -65 -31 -8 0 -21 -9 -28 -20 -10 -17 -5 -30 43 -104 52 -79 103
-181 120 -237 16 -56 89 -245 98 -254 6 -6 6 7 1 35 -19 105 -1 285 36 365 5
11 23 55 40 98 59 152 100 209 200 276 58 38 98 51 213 66 58 8 60 24 7 59
-22 14 -47 37 -56 51 -9 13 -25 27 -37 31 -32 10 -115 92 -159 157 -53 77
-145 355 -158 477 -5 47 -16 107 -25 134 -8 27 -15 62 -15 78 0 15 -4 28 -10
28 -5 0 -10 16 -10 35 0 19 2 35 4 35 2 0 11 3 20 6 15 6 53 -57 71 -116 21
-71 121 -257 185 -342 81 -111 106 -124 96 -52 -3 25 -12 60 -20 77 -18 40
-46 286 -46 395 0 75 18 181 41 237 4 11 11 46 14 77 6 55 17 78 29 60 7 -12
43 -234 51 -317 10 -104 52 -319 80 -410 23 -76 61 -152 70 -143 3 2 0 29 -7
59 -17 80 9 233 63 380 24 63 45 116 49 119 3 3 12 20 19 38 31 76 44 25 71
-278 31 -360 45 -432 111 -563 57 -114 109 -184 223 -295 121 -119 183 -197
227 -284 18 -38 37 -68 41 -68 4 0 19 -37 34 -82 37 -115 37 -189 0 -300 -16
-49 -33 -88 -37 -88 -4 0 -13 -25 -20 -55 -10 -43 -9 -75 1 -160 8 -58 17
-105 22 -105 10 0 11 -174 1 -184 -5 -4 -13 -24 -19 -44 -9 -33 -14 -37 -39
-35 -35 3 -54 25 -95 108 -18 38 -45 74 -72 95 -52 42 -107 80 -115 80 -4 0
-16 9 -27 19 -12 11 -64 45 -116 77 -52 31 -97 60 -100 64 -3 4 -39 35 -81 68
-69 54 -81 69 -127 160 -29 55 -59 103 -68 106 -32 12 -61 5 -86 -21 -40 -42
-50 -78 -51 -183 -1 -140 36 -260 125 -408 21 -34 38 -65 38 -69 0 -10 132
-237 141 -244 12 -7 111 -246 154 -371 57 -164 115 -479 115 -626 0 -175 -50
-373 -141 -555 -47 -95 -100 -182 -123 -202 -7 -5 -46 -55 -89 -111 -78 -102
-168 -190 -309 -299 -43 -33 -107 -82 -142 -110 -36 -27 -86 -61 -113 -75
-151 -78 -347 -255 -482 -433 -67 -89 -95 -146 -115 -234 -30 -132 -14 -254
44 -338 30 -43 146 -155 162 -155 4 0 29 -15 55 -34 27 -18 82 -51 123 -71 41
-21 77 -41 80 -45 3 -4 45 -28 95 -54 49 -26 134 -80 188 -119 55 -40 122 -88
151 -109 48 -34 118 -108 180 -190 48 -64 96 -195 127 -347 16 -79 29 -159 29
-176 0 -32 1 -32 58 -39 31 -4 75 -15 97 -26 22 -11 86 -35 143 -55 127 -44
208 -80 292 -131 36 -22 76 -47 90 -55 81 -46 260 -222 330 -325 17 -24 41
-55 53 -68 25 -27 146 -264 176 -347 28 -75 71 -238 71 -271 0 -17 -5 -28 -13
-28 -14 0 -193 188 -212 221 -13 23 -192 178 -272 235 -34 25 -88 59 -120 76
-32 16 -65 36 -73 43 -52 44 -273 131 -500 196 -156 44 -187 54 -330 104 -58
20 -109 40 -115 45 -5 4 -102 45 -215 90 -195 78 -548 242 -560 259 -8 13
-169 121 -180 121 -12 0 -12 1 76 -210 40 -96 82 -211 94 -255 30 -111 72
-239 80 -245 4 -3 19 -32 33 -64 36 -85 106 -179 152 -200 52 -25 128 -18 158
14 28 31 37 135 13 165 -9 11 -33 48 -54 82 -20 34 -76 105 -124 158 -87 95
-108 138 -74 151 20 8 186 -34 216 -54 14 -9 41 -24 60 -33 52 -25 185 -143
238 -212 26 -33 55 -69 64 -79 26 -26 93 -173 116 -253 32 -111 82 -473 82
-595 0 -41 -12 -163 -26 -270 -35 -265 -45 -729 -19 -932 23 -186 50 -318 91
-455 37 -121 101 -273 115 -273 4 0 11 -10 15 -22 3 -12 20 -43 35 -69 29 -46
37 -83 20 -93 -18 -11 -118 52 -205 130 -194 174 -332 351 -443 568 -32 64
-83 207 -99 280 -3 17 -10 33 -14 36 -30 19 -94 632 -88 830 l3 95 -115 6
c-127 6 -169 19 -235 73 -112 92 -192 244 -231 438 -14 73 -30 142 -35 153 -4
11 -15 65 -24 120 -9 55 -23 127 -32 160 -25 94 -114 325 -126 325 -7 0 -8
-54 -3 -167 4 -93 9 -310 11 -483 3 -173 7 -343 10 -377 3 -35 1 -64 -4 -67
-9 -6 -53 50 -93 119 -47 79 -99 200 -129 295 -30 97 -106 280 -157 375 -29
55 -28 29 8 -145 31 -151 51 -328 70 -610 20 -295 66 -504 134 -604 14 -21 26
-47 26 -56 0 -43 135 -296 217 -405 48 -64 220 -232 270 -262 16 -10 61 -39
99 -64 39 -26 79 -49 91 -53 11 -4 28 -15 38 -26 10 -11 28 -20 41 -20 30 0
49 -33 34 -60 -10 -18 -21 -20 -134 -20 -132 0 -201 9 -311 42 -85 25 -300
127 -342 162 -17 14 -34 26 -37 26 -4 0 -50 28 -104 63 -100 65 -230 177 -273
235 -13 19 -41 54 -61 78 -25 29 -38 55 -38 74 0 33 -12 44 -39 35 -22 -7 -34
-33 -72 -148 -37 -113 -71 -184 -106 -224 -63 -71 -130 -242 -222 -568 -59
-209 -62 -239 -70 -580 -4 -176 -11 -328 -15 -338 -5 -11 -19 -17 -41 -17 -26
0 -42 11 -87 58 -71 75 -142 183 -202 307 -63 130 -62 128 -75 210 -10 66 -23
339 -14 285 9 -50 19 -38 36 43 10 45 25 102 33 127 9 25 17 57 18 71 4 38 54
130 85 156 17 15 40 22 68 23 47 0 69 21 79 76 3 17 23 53 45 79 22 26 42 59
45 74 2 14 12 40 21 56 8 17 52 100 95 185 44 85 93 175 108 200 16 25 36 65
45 90 9 25 33 78 52 118 32 64 35 75 24 96 -7 13 -24 30 -38 37 -34 19 -46 45
-48 110 -1 45 -8 65 -37 110 l-36 54 5 125 c4 105 2 139 -16 212 -29 122 -84
261 -129 323 -70 99 -308 348 -399 418 -48 36 -53 51 -22 68 16 8 32 8 58 1
81 -24 201 -52 279 -66 95 -17 191 -58 245 -106 22 -19 43 -30 52 -26 29 11
15 64 -53 197 -37 74 -73 157 -80 184 -57 237 -82 417 -82 605 0 181 30 376
91 586 28 99 37 164 22 164 -5 0 -26 -26 -47 -58 -70 -100 -108 -141 -201
-210 -49 -37 -96 -72 -103 -79 -48 -46 -266 -134 -292 -118 -18 11 14 39 83
73 95 47 275 232 331 341 10 18 20 59 23 90 5 65 23 130 62 221 16 36 36 94
45 130 10 36 22 79 27 95 6 17 16 55 23 85 6 30 26 76 44 102 18 26 32 50 32
53 0 9 77 121 121 175 47 58 79 122 79 158 0 15 13 49 29 74 32 50 54 115 44
130 -3 6 3 27 13 49 12 28 35 51 78 79 34 22 67 44 73 50 7 6 47 23 90 39 151
56 240 108 219 128 -4 4 -35 -1 -70 -10 -79 -21 -200 -22 -285 -2 -165 39
-331 166 -392 301 -29 65 -61 276 -53 359 9 98 31 107 80 32 51 -79 98 -137
111 -137 7 0 13 -4 13 -10 0 -14 85 -55 154 -75 44 -13 84 -16 160 -13 89 4
108 8 161 35 64 33 132 93 182 158 31 40 83 170 83 206 0 25 -12 24 -106 -10
-275 -99 -503 -112 -699 -41 -66 24 -209 90 -215 99 -3 4 -30 22 -61 39 -31
17 -76 50 -101 72 -93 81 -203 259 -242 390 -18 59 -21 136 -7 145 6 3 38 -21
73 -53 117 -108 197 -153 352 -197 84 -24 262 -18 328 12 60 27 136 98 195
182 68 97 140 177 178 201 19 12 71 34 116 49 135 45 118 61 -71 68 -231 10
-320 -44 -365 -219 -19 -75 -37 -106 -71 -118 -63 -24 -288 0 -413 44 -51 19
-149 72 -172 95 -9 9 -52 41 -95 71 -85 59 -194 164 -236 227 -31 47 -126 202
-161 263 -70 121 -148 307 -155 368 -6 57 14 56 68 -5 22 -26 80 -80 128 -121
48 -40 92 -79 97 -85 52 -60 246 -155 384 -187 65 -15 267 -8 351 13 30 8 111
41 180 75 69 33 144 66 168 73 23 7 42 15 42 19 0 4 28 13 63 20 34 6 77 18
96 26 34 14 34 15 14 29 -22 15 -205 50 -313 60 -36 3 -150 10 -255 15 -299
17 -661 96 -790 175 -22 13 -60 35 -85 48 -173 91 -363 230 -500 367 -143 142
-280 290 -289 310 -3 8 -45 67 -93 131 -48 64 -99 141 -113 170 -15 30 -33 66
-41 81 -25 46 -11 84 21 58 8 -7 15 -9 15 -4 0 5 4 4 8 -1 4 -6 30 -24 57 -40
28 -15 52 -31 55 -35 21 -30 379 -164 597 -224 138 -38 245 -59 388 -75 50 -6
117 -18 150 -26 32 -9 68 -14 80 -12 18 3 18 4 -5 14 -14 6 -86 39 -160 73
-191 87 -186 85 -285 118 -82 28 -212 83 -275 117 -211 114 -348 206 -422 282
-50 52 -187 243 -220 307 -11 22 -26 45 -33 52 -20 20 -110 240 -133 324 -41
151 -55 266 -48 400 8 148 28 292 48 340 8 19 23 67 32 106 14 57 22 74 42 83
13 6 29 23 35 38 6 16 16 35 23 43 7 8 20 35 29 60 56 161 124 320 137 320 4
0 18 -32 30 -70 20 -64 22 -83 16 -193 -24 -451 -18 -580 40 -795 27 -101 81
-248 99 -272 7 -8 31 -51 55 -95 96 -180 211 -326 300 -384 32 -21 213 -161
220 -171 7 -9 119 -80 127 -80 10 0 105 -61 150 -97 63 -50 61 -40 -4 25 -75
73 -224 236 -258 282 -61 82 -157 288 -210 450 -10 30 -24 64 -31 75 -21 32
-73 253 -94 397 -11 73 -23 217 -26 320 -7 175 -6 189 14 230 30 65 74 108
110 108 16 0 35 7 42 15 20 24 31 113 20 162 -7 29 -7 57 1 86 25 94 56 303
51 342 -3 30 2 53 17 84 12 23 31 72 42 109 34 110 161 383 177 380 8 -2 30
-43 50 -91 l36 -88 -18 -82 c-69 -322 -69 -715 -1 -1135 43 -263 165 -584 276
-728 21 -28 39 -54 39 -59 0 -17 146 -205 245 -316 61 -68 124 -124 131 -116
7 7 -39 87 -82 144 -40 53 -130 218 -156 287 -94 246 -127 360 -169 581 -15
77 -19 145 -19 297 0 217 6 259 66 461 41 135 62 183 98 222 31 34 146 202
146 214 0 5 18 33 39 62 22 30 48 65 58 79 10 14 27 45 39 70 11 25 54 80 95
122 62 64 83 79 126 92 67 19 129 62 184 126 24 29 69 77 99 108 30 32 67 71
81 87 33 37 132 115 147 115 6 0 34 25 63 55 57 60 128 110 172 120 15 4 27
11 27 16 0 18 30 8 46 -15z m6219 -56 c37 -14 27 -32 -26 -49 -24 -8 -54 -18
-66 -24 -12 -5 -59 -8 -105 -5 -46 3 -94 2 -107 -1 -20 -6 -17 -9 30 -28 80
-32 184 -60 300 -83 57 -11 124 -27 149 -35 25 -8 87 -22 138 -30 51 -8 100
-19 110 -24 19 -10 165 -37 250 -46 72 -8 265 -67 379 -116 51 -21 98 -39 103
-39 6 0 55 -22 110 -49 54 -28 117 -55 139 -61 23 -6 47 -18 53 -26 28 -34 74
-76 93 -84 36 -15 170 -137 228 -208 31 -38 57 -72 57 -75 0 -3 18 -35 40 -71
64 -104 63 -110 -15 -199 l-67 -77 -39 33 c-21 18 -51 39 -66 47 -73 36 -133
91 -160 146 -44 90 -177 214 -229 214 -11 0 -39 11 -63 25 -49 29 -58 31 -42
11 10 -12 5 -13 -30 -9 -54 8 -48 -2 41 -63 38 -26 70 -51 70 -55 0 -4 21 -21
48 -37 26 -17 118 -91 204 -165 121 -104 170 -153 210 -212 146 -212 195 -315
254 -528 46 -166 53 -201 54 -259 0 -63 -12 -90 -60 -137 -35 -33 -40 -44 -34
-68 9 -40 54 -164 69 -188 31 -51 108 -327 124 -445 65 -470 59 -790 -19
-1086 -29 -111 -81 -246 -105 -274 -18 -22 -223 -443 -252 -520 -14 -36 -38
-103 -54 -150 -16 -47 -35 -96 -43 -110 -8 -14 -27 -88 -42 -165 -27 -132 -29
-154 -28 -380 0 -206 4 -266 27 -425 15 -102 34 -207 43 -234 8 -26 14 -49 12
-51 -2 -1 -17 -10 -35 -19 -67 -34 -120 -15 -191 69 -29 33 -52 63 -52 68 0 8
-56 96 -90 139 -87 114 -141 359 -54 251 l21 -27 7 36 c4 23 -1 76 -14 140
-41 207 -38 191 -69 463 -5 44 -19 114 -31 155 -31 107 -42 198 -29 238 6 18
12 67 14 110 2 60 14 109 53 227 49 148 88 245 102 255 13 9 30 49 30 70 0 12
13 52 29 88 35 80 58 198 66 342 6 95 5 103 -9 86 -9 -10 -27 -49 -41 -85 -14
-36 -36 -84 -50 -106 -13 -22 -36 -62 -51 -90 -15 -27 -44 -76 -65 -107 -22
-31 -39 -60 -39 -63 0 -3 -17 -32 -39 -63 -56 -83 -77 -128 -127 -275 -54
-157 -92 -321 -99 -432 -5 -71 -18 -172 -31 -231 -2 -12 -11 -25 -20 -28 -11
-4 -15 -2 -11 8 3 8 1 16 -5 18 -10 4 -34 60 -45 104 -3 15 -11 20 -23 17 -14
-4 -21 6 -33 44 -9 26 -19 66 -22 88 -4 22 -15 64 -26 93 -10 29 -19 66 -19
83 0 30 -29 127 -55 184 -31 70 -45 272 -24 350 31 115 174 417 253 533 60 89
73 119 58 134 -15 15 -173 -135 -252 -236 -102 -133 -182 -284 -216 -411 -26
-95 -12 -283 41 -550 14 -71 29 -168 32 -215 l6 -86 -67 -28 -66 -28 -63 48
c-91 70 -128 121 -212 289 -89 179 -134 311 -142 418 -6 79 -17 98 -29 50 -4
-16 -11 -30 -15 -34 -5 -3 -21 -61 -36 -130 -25 -113 -28 -143 -28 -329 0
-192 2 -213 29 -327 16 -68 33 -123 38 -123 4 0 8 -5 8 -10 0 -6 29 -73 65
-149 36 -78 65 -153 65 -171 0 -28 -6 -34 -52 -55 -89 -41 -92 -40 -227 98
-66 67 -132 138 -148 157 -15 20 -47 55 -70 79 -24 24 -43 47 -43 51 0 4 -20
37 -45 74 -24 37 -50 85 -56 106 -23 77 -32 44 -26 -102 5 -151 27 -273 73
-418 25 -80 96 -238 112 -250 4 -3 23 -30 42 -60 162 -262 371 -346 767 -311
85 8 161 21 198 34 57 20 356 208 364 229 7 21 95 98 111 98 10 0 23 7 30 15
21 25 27 18 38 -42 38 -198 39 -533 3 -723 -28 -143 -121 -399 -163 -448 -8
-9 -34 -45 -57 -80 -41 -61 -142 -169 -227 -243 -85 -74 -330 -182 -453 -200
-76 -11 -86 -16 -70 -35 15 -18 86 -18 209 0 52 8 131 17 175 21 196 16 352
51 490 109 69 29 95 32 95 11 0 -25 22 -64 39 -68 23 -5 59 10 93 38 16 14 42
25 56 25 31 0 91 28 141 65 19 14 46 25 60 25 20 0 35 13 66 57 22 31 52 70
66 87 40 47 76 125 124 270 31 92 49 132 61 135 38 7 -9 -285 -81 -504 -28
-85 -74 -182 -106 -224 -32 -42 -109 -163 -109 -171 0 -4 -38 -44 -84 -88 -70
-65 -106 -90 -203 -139 -65 -33 -137 -67 -161 -76 -23 -9 -45 -24 -49 -33 -10
-26 18 -63 71 -95 94 -58 306 -238 306 -261 0 -5 11 -24 25 -42 48 -63 134
-245 171 -362 20 -65 40 -121 44 -124 10 -7 46 -166 67 -300 14 -88 18 -168
17 -345 -1 -209 -5 -259 -42 -545 -23 -173 -46 -342 -52 -375 -12 -75 -12
-365 0 -425 6 -25 16 -79 24 -121 25 -134 55 -251 91 -356 37 -107 39 -120 27
-141 -12 -17 -172 58 -215 102 -35 35 -92 116 -188 266 -34 52 -71 106 -83
120 -24 27 -70 101 -118 189 -46 85 -143 225 -197 283 -26 29 -64 71 -84 93
-19 22 -37 38 -40 35 -3 -3 12 -39 32 -81 99 -209 120 -271 160 -472 49 -239
62 -364 62 -556 -1 -163 -6 -229 -30 -422 -34 -264 -89 -499 -121 -519 -10 -6
-80 -150 -80 -165 0 -15 -119 -190 -195 -288 -59 -77 -246 -273 -358 -376
-111 -103 -295 -206 -517 -290 -186 -70 -231 -76 -530 -76 l-265 0 -119 33
c-139 37 -207 72 -343 175 -110 84 -260 245 -279 301 -7 20 -18 82 -23 138 -6
57 -16 130 -21 162 -7 39 -8 69 -1 85 5 14 11 69 14 121 2 53 10 107 17 120 7
14 48 68 90 120 42 52 94 130 115 173 21 42 46 85 55 95 25 27 70 123 70 151
l0 25 -30 -29 c-16 -16 -33 -26 -36 -22 -3 3 6 17 22 30 27 24 27 24 8 49 -10
14 -31 31 -45 37 -39 17 -62 56 -49 80 6 13 17 17 29 14 30 -8 123 51 167 104
22 26 57 63 78 83 22 19 47 43 56 52 8 9 64 37 124 62 59 24 110 47 114 50 3
4 0 12 -6 18 -9 9 -15 9 -24 0 -7 -7 -19 -12 -27 -12 -10 0 -5 10 15 31 27 28
33 30 74 24 25 -4 80 -22 123 -41 43 -19 87 -34 98 -34 23 0 157 -51 209 -80
19 -11 49 -26 65 -34 17 -8 66 -48 110 -89 87 -80 161 -194 203 -312 12 -33
34 -83 49 -112 21 -39 25 -55 16 -64 -21 -21 -54 3 -197 145 -137 136 -210
197 -272 229 -39 19 -120 28 -171 18 -49 -10 -78 -34 -138 -117 -61 -84 -125
-140 -198 -175 -54 -25 -73 -29 -153 -29 l-90 0 -21 -37 c-26 -48 -39 -102
-53 -228 -10 -85 -10 -114 4 -195 31 -176 54 -243 122 -353 70 -112 49 -95
264 -208 28 -14 67 -19 194 -24 96 -3 162 -2 165 4 4 5 44 17 91 26 47 9 101
27 120 39 19 12 62 33 95 46 162 64 325 160 325 191 0 5 18 35 39 67 22 31 46
82 55 112 9 31 35 87 57 125 48 82 109 209 109 227 0 7 13 56 29 108 16 52 36
120 45 150 45 158 53 570 17 811 -13 84 -50 166 -97 215 -58 61 -127 153 -172
231 -47 80 -115 146 -181 176 -38 16 -59 19 -130 14 -197 -12 -420 -118 -565
-267 -60 -61 -102 -83 -115 -61 -8 12 19 168 34 205 7 16 5 18 -8 13 -9 -3
-19 -2 -22 2 -13 22 75 241 97 241 15 0 190 170 206 200 7 14 29 41 48 60 19
20 34 39 34 43 0 4 12 25 26 47 18 27 34 40 49 40 12 0 43 11 68 24 70 38 164
64 258 71 67 6 89 12 109 30 14 13 48 31 76 41 48 17 55 17 134 1 46 -9 85
-15 87 -13 2 2 -1 16 -8 32 -7 20 -9 76 -4 174 5 116 3 163 -10 235 -20 106
-72 261 -115 342 -16 32 -30 63 -30 68 0 18 -104 120 -150 147 -25 14 -54 37
-65 50 -28 32 -85 115 -85 123 0 21 -179 245 -195 245 -6 0 -23 -38 -38 -84
-15 -46 -34 -89 -42 -96 -7 -6 -17 -25 -20 -41 -16 -71 -170 -233 -270 -282
-88 -43 -146 -52 -340 -51 -192 0 -210 4 -355 65 -124 53 -266 168 -350 283
-19 27 -42 56 -51 65 -23 23 -114 195 -140 266 -13 34 -23 86 -24 120 -1 33
-8 98 -16 145 -25 153 -10 546 24 591 6 9 30 41 52 70 23 30 49 74 60 99 10
25 29 56 43 69 13 13 33 44 43 70 11 25 34 60 51 78 17 17 36 42 42 54 12 24
21 30 121 76 33 15 66 35 73 43 33 40 -18 127 -156 267 -53 54 -80 91 -111
156 -23 47 -41 90 -41 95 0 5 -9 21 -20 35 -38 48 -129 451 -130 574 0 28 -4
54 -9 57 -17 11 -82 -221 -113 -404 -31 -187 -37 -241 -38 -322 0 -65 -3 -79
-19 -87 -23 -13 -31 8 -31 82 0 26 -4 47 -10 47 -5 0 -10 13 -10 28 0 15 -4
32 -9 37 -23 27 -44 166 -57 395 -7 135 -16 260 -20 279 -9 56 74 557 96 571
4 3 11 37 15 75 8 75 65 261 95 310 10 17 33 44 50 60 17 17 53 75 80 131 27
56 65 119 85 140 21 21 53 59 72 84 19 25 72 80 119 123 46 43 84 84 84 90 0
16 231 239 272 262 58 33 117 79 118 92 0 6 51 54 114 105 189 156 244 208
344 323 123 143 127 152 168 386 5 28 1 41 -19 65 -13 16 -32 46 -42 66 -22
48 -86 121 -129 147 -21 14 -50 21 -81 21 -32 0 -56 7 -77 21 -38 28 -91 31
-96 6 -2 -11 5 -29 16 -40 28 -33 64 -113 60 -138 -3 -25 -89 -89 -118 -89
-10 0 -20 8 -22 18 -6 20 -113 43 -299 63 -141 16 -247 -2 -397 -69 -84 -38
-117 -59 -164 -104 -32 -32 -58 -62 -58 -68 0 -5 -13 -31 -29 -57 -42 -68 -80
-190 -92 -290 -5 -47 -16 -97 -24 -112 -16 -33 -77 -81 -100 -81 -9 0 -45 24
-80 53 -35 28 -89 65 -120 82 l-55 29 -25 -26 c-14 -15 -55 -65 -92 -111 -92
-113 -207 -237 -221 -237 -19 0 -14 39 10 79 12 20 42 59 67 86 42 45 67 83
154 235 14 25 49 69 77 99 35 37 68 89 108 170 31 64 75 149 99 189 24 41 43
76 43 79 0 9 63 98 84 119 12 12 32 34 45 49 l23 28 -28 -7 c-16 -3 -54 -9
-84 -12 -30 -3 -64 -9 -75 -14 -11 -4 -39 -13 -62 -19 -75 -20 -143 -131 -79
-131 34 0 50 -23 36 -50 -12 -22 -102 -70 -132 -70 -27 0 -58 -37 -58 -67 1
-20 13 -38 40 -62 l39 -35 -24 -22 c-25 -23 -101 -44 -159 -44 -45 0 -116 26
-149 55 -16 14 -35 46 -44 71 -11 32 -26 53 -52 69 -47 32 -81 84 -88 134 -4
32 2 59 28 122 19 45 38 83 44 85 6 3 37 -5 69 -16 33 -11 71 -20 85 -20 37 0
127 34 184 70 27 17 52 30 57 30 5 0 11 6 13 13 3 6 6 0 6 -16 1 -16 -7 -34
-19 -44 -11 -10 -20 -28 -20 -40 0 -20 5 -23 40 -23 26 0 43 5 46 14 3 8 39
38 80 66 l74 51 0 74 c0 41 4 85 10 99 12 32 16 323 6 391 -7 46 -6 54 17 81
14 17 44 36 66 43 23 6 41 16 41 21 0 27 207 112 299 123 31 4 52 14 73 36 16
16 41 32 56 36 15 3 43 16 62 28 19 12 55 27 80 33 110 29 232 87 300 141 59
47 126 93 137 93 24 0 120 76 181 144 35 38 97 116 138 175 42 58 81 111 88
116 14 12 66 127 66 145 0 8 6 21 14 29 8 9 19 45 25 80 11 68 14 76 29 67 43
-27 -1 -278 -79 -446 -23 -50 -45 -90 -48 -90 -4 0 -31 -45 -61 -101 -30 -55
-87 -144 -127 -197 -40 -53 -72 -107 -73 -118 0 -27 27 -33 210 -44 111 -7
151 -14 223 -39 48 -17 94 -31 102 -31 8 0 15 -5 15 -11 0 -8 -16 -9 -47 -5
-39 4 -43 4 -18 -4 16 -5 50 -9 76 -9 85 2 178 -53 311 -184 147 -146 255
-331 313 -537 85 -307 134 -380 269 -404 69 -13 134 49 180 169 31 83 31 122
-3 232 -32 103 -52 133 -89 133 -20 0 -102 72 -102 89 0 4 18 33 40 63 46 65
74 78 169 78 l66 0 -2 172 c-3 181 -16 352 -35 453 -22 118 -162 362 -235 410
-20 14 -40 15 -107 10 -102 -9 -117 -2 -206 92 -111 117 -149 143 -375 259
-60 31 -134 65 -163 75 -29 10 -59 25 -67 32 -23 24 -165 57 -243 57 -57 0
-73 4 -84 18 -20 27 -106 82 -129 82 -11 0 -34 -7 -52 -17 -22 -11 -74 -19
-165 -24 -289 -18 -323 -33 -448 -205 -33 -44 -41 -20 -11 33 21 40 45 128 51
194 2 19 65 119 75 119 3 0 35 27 71 60 92 84 213 120 409 120 79 0 112 4 127
15 39 30 47 20 41 -50 -4 -37 -2 -65 3 -65 5 0 24 18 42 40 17 23 42 46 54 53
12 7 52 29 89 51 36 21 81 42 98 46 47 13 106 35 183 71 42 20 94 35 134 39
101 11 216 11 245 0z m-2595 -3484 c0 -23 -40 -65 -88 -93 -26 -14 -67 -43
-91 -62 -101 -83 -114 -91 -128 -80 -7 6 -13 17 -13 24 0 16 73 125 84 125 5
0 17 6 25 14 15 13 187 85 204 86 4 0 7 -6 7 -14z"/>
<path d="M2520 12135 c0 -4 7 -19 15 -33 8 -15 28 -61 45 -102 36 -90 123
-226 189 -295 26 -27 59 -64 73 -81 72 -91 275 -243 382 -288 20 -8 56 -29 79
-45 23 -17 76 -43 117 -60 77 -30 187 -65 178 -56 -2 3 -49 28 -104 55 -139
71 -348 202 -462 290 -213 166 -311 281 -426 497 -34 64 -68 119 -74 121 -7 2
-12 1 -12 -3z"/>
<path d="M1870 11737 c0 -26 138 -184 203 -233 72 -54 77 -57 243 -148 59 -32
113 -64 119 -70 6 -6 36 -22 66 -34 98 -43 193 -94 294 -160 140 -91 218 -144
230 -158 14 -15 182 -134 190 -134 10 0 285 -212 285 -220 0 -4 26 -27 59 -52
54 -43 212 -218 307 -340 41 -55 74 -73 74 -43 0 10 -11 31 -25 49 -60 73
-284 333 -304 350 -11 11 -21 24 -22 30 -1 23 -311 286 -374 319 -16 8 -42 26
-56 39 -26 24 -272 178 -284 178 -4 0 -25 13 -48 29 -23 15 -85 52 -137 81
-52 29 -102 59 -111 67 -9 7 -90 51 -180 96 -261 133 -339 185 -453 305 -59
62 -76 73 -76 49z"/>
<path d="M5240 10851 c0 -49 50 -197 70 -211 4 -3 24 -32 43 -66 20 -33 45
-71 56 -85 l20 -24 9 25 c6 17 5 39 -4 70 -8 25 -14 59 -14 76 0 58 -28 117
-69 147 -22 15 -44 27 -49 27 -6 0 -19 11 -30 25 -21 26 -32 32 -32 16z"/>
<path d="M2040 10493 c0 -29 266 -110 535 -163 55 -11 141 -31 190 -44 126
-33 182 -46 205 -46 11 0 20 -4 20 -8 0 -5 24 -14 53 -21 146 -37 365 -140
484 -228 24 -18 47 -33 51 -33 33 0 332 -371 388 -482 27 -53 31 -110 9 -128
-11 -9 -22 -4 -56 29 -24 23 -52 44 -63 47 -12 4 -38 21 -58 38 -81 68 -106
82 -231 129 -117 43 -143 49 -278 62 -203 20 -430 0 -437 -37 -2 -13 7 -18 41
-23 25 -4 55 -4 66 0 80 25 450 -25 481 -65 3 -3 34 -17 70 -30 85 -31 133
-54 202 -101 59 -41 240 -204 247 -223 2 -6 12 -20 22 -31 47 -52 117 -252
145 -415 18 -103 14 -277 -7 -337 -9 -28 -16 -33 -44 -33 -18 0 -55 9 -82 21
-26 11 -80 23 -120 26 -60 5 -75 3 -100 -14 -20 -14 -39 -19 -69 -15 -36 3
-44 0 -68 -28 -15 -19 -26 -42 -24 -54 3 -19 11 -22 74 -26 85 -6 101 -17 137
-98 46 -103 52 -164 29 -288 -31 -165 -36 -218 -22 -259 25 -77 122 -80 200
-6 l40 38 0 91 c0 88 -1 92 -49 187 -43 85 -48 101 -39 126 6 19 19 31 36 36
31 7 35 11 114 83 33 30 67 67 74 83 19 36 54 173 54 213 0 16 5 35 11 41 15
15 18 431 3 441 -9 6 -48 140 -61 212 -7 37 -53 134 -67 142 -7 4 -21 29 -31
55 -23 62 -118 206 -173 261 -49 49 -172 212 -196 258 -15 31 -152 164 -168
164 -4 0 -35 20 -67 45 -33 25 -100 65 -148 88 -48 23 -99 49 -113 58 -14 9
-54 24 -90 33 -36 10 -114 33 -175 51 -125 38 -368 100 -435 110 -25 3 -114
20 -198 36 -175 33 -312 47 -312 32z"/>
<path d="M3360 9040 c-19 -5 -66 -22 -105 -38 -54 -22 -78 -38 -102 -71 -41
-53 -41 -77 -4 -119 26 -28 36 -32 79 -32 63 0 109 16 147 52 17 15 37 30 46
33 8 3 26 23 38 45 26 47 36 50 46 13 8 -33 8 -174 0 -195 -10 -24 20 -29 76
-12 29 9 82 16 118 17 60 2 72 -1 118 -31 29 -19 57 -31 62 -28 14 9 -52 154
-98 214 -72 93 -178 143 -326 156 -33 3 -76 1 -95 -4z"/>
<path d="M4560 8293 c-11 -33 -52 -117 -98 -198 -7 -13 -37 -47 -67 -76 -30
-29 -57 -61 -60 -70 -3 -10 4 -37 16 -60 12 -24 23 -69 26 -103 6 -84 9 -89
32 -77 21 12 42 48 97 161 51 106 71 168 84 257 21 145 0 259 -30 166z"/>
<path d="M3263 6724 c-10 -14 -49 -62 -88 -105 -124 -140 -175 -212 -226 -315
-27 -56 -49 -108 -49 -116 0 -8 -7 -30 -16 -48 -13 -25 -16 -53 -12 -129 4
-84 9 -105 39 -166 74 -151 213 -192 279 -82 27 43 26 140 -1 283 -28 148 -28
303 0 408 12 44 26 83 31 86 12 7 80 173 80 195 0 23 -17 18 -37 -11z"/>
<path d="M3810 5627 c0 -7 33 -29 73 -49 42 -21 136 -87 229 -162 86 -69 161
-126 167 -126 5 0 14 -6 18 -14 37 -66 503 -306 593 -306 42 0 6 84 -62 145
-24 21 -75 68 -114 105 -39 37 -102 87 -140 111 -188 116 -230 140 -311 174
-49 20 -149 52 -223 71 -74 18 -147 40 -162 49 -32 18 -68 20 -68 2z"/>
<path d="M7678 13143 c-120 -128 -183 -233 -190 -318 -4 -52 14 -54 47 -3 15
23 32 47 37 52 39 46 94 129 110 166 11 25 26 49 34 53 8 4 14 19 14 32 0 14
5 25 11 25 5 0 7 5 4 10 -11 18 -41 10 -67 -17z"/>
<path d="M6940 12320 c0 -5 7 -10 16 -10 8 0 12 5 9 10 -3 6 -10 10 -16 10 -5
0 -9 -4 -9 -10z"/>
<path d="M7475 12270 c-26 -11 -98 -87 -117 -125 -9 -16 -28 -61 -43 -100 -15
-38 -34 -79 -41 -90 -17 -24 -18 -65 -3 -65 23 0 131 64 154 92 26 30 50 100
65 183 5 28 12 65 16 83 7 33 3 36 -31 22z"/>
<path d="M8150 9395 c0 -5 42 -125 76 -218 20 -55 108 -226 154 -302 22 -36
40 -70 40 -75 0 -6 4 -10 8 -10 5 0 45 -49 90 -110 45 -60 108 -131 139 -157
31 -26 63 -56 72 -66 25 -29 211 -171 261 -199 25 -15 115 -54 200 -89 85 -35
158 -68 162 -73 11 -17 440 -15 446 2 2 6 10 12 18 12 23 0 145 65 200 106 28
22 73 64 99 94 27 30 59 63 72 73 13 10 23 25 23 32 0 8 9 19 20 25 12 7 20
21 20 38 0 15 9 46 20 69 10 24 15 45 11 47 -4 3 -23 -4 -42 -14 -59 -34 -180
-90 -221 -102 -21 -6 -38 -14 -38 -18 0 -9 -147 -46 -240 -60 -36 -5 -130 -13
-210 -16 -134 -5 -152 -4 -235 19 -144 40 -180 51 -185 58 -3 3 -25 17 -50 29
-87 44 -195 140 -243 215 -17 28 -35 51 -39 53 -4 2 -19 27 -34 55 -35 71 -65
100 -164 160 -47 28 -99 61 -116 74 -17 13 -36 23 -42 23 -15 0 -111 97 -153
156 -20 27 -51 77 -70 112 -29 53 -49 76 -49 57z"/>
<path d="M8546 7505 c-41 -16 -146 -92 -146 -106 0 -4 -13 -27 -29 -51 -52
-78 -63 -116 -69 -235 -4 -98 -1 -121 21 -200 31 -106 82 -216 122 -262 17
-19 60 -48 97 -66 l68 -33 37 19 c21 10 48 19 61 19 14 0 40 17 66 44 24 24
49 45 55 47 8 3 12 41 13 115 2 139 -16 196 -82 260 -25 24 -55 50 -67 59 -12
8 -31 31 -43 50 -42 68 16 90 130 49 103 -35 241 -73 326 -89 64 -12 171 -56
184 -76 7 -11 169 -109 180 -109 12 0 188 -117 245 -163 120 -98 328 -305 396
-395 24 -31 54 -68 68 -82 45 -46 187 -274 279 -447 54 -101 126 -260 177
-390 109 -277 205 -504 221 -523 7 -8 16 -27 19 -43 7 -26 22 -44 30 -35 6 5
-43 322 -55 363 -5 17 -14 68 -20 115 -27 211 -64 362 -120 490 -16 36 -36 96
-46 134 -21 83 -44 112 -118 149 -51 26 -61 37 -111 122 -30 51 -55 97 -55
101 0 23 -180 271 -247 340 -101 105 -135 127 -387 252 -116 57 -213 108 -216
112 -3 4 -77 40 -165 80 -87 40 -176 83 -197 96 -21 13 -41 24 -46 24 -5 0
-35 14 -68 31 -32 17 -98 52 -146 77 -49 24 -88 49 -88 53 0 5 -15 16 -32 25
-18 9 -50 32 -70 52 -30 28 -46 35 -85 38 -27 2 -65 -3 -87 -11z"/>
</g>
</svg>
