<svg version="1.0" xmlns="http://www.w3.org/2000/svg" width="1600" height="2106.7" viewBox="0 0 1200 1580"><path d="M0 790v790h1200V0H0v790zM332 63l1 12c-1 12-4 17-13 27a262 262 0 0 0-40 52c-8 14-17 37-22 56a214 214 0 0 1-5 22c2 1 5-1 7-5a154 154 0 0 1 34-32c6-5 15-10 20-10l11-4c7-3 9-4 10-1 1 4 0 17-1 21l-8 11a164 164 0 0 0-35 88c-1 17-1 24 4 44 3 11 5 16 10 26 8 17 10 19 29 36 14 13 14 13 30 21 13 7 17 8 42 15 16 5 20 6 30 6l12 1v4c0 4 0 4-4 7l-10 7-9 5-9 5-10 5-6 3-3 2c-1 2 0 3 4 10 6 8 11 19 13 24 1 6 8 25 9 26v-4a78 78 0 0 1 8-46c6-15 10-21 20-28 6-4 10-5 21-6 6-1 6-3 1-6l-6-5c0-2-2-3-3-4-3-1-12-9-16-15-5-8-15-36-16-48l-2-13-2-8-1-3-1-3v-4l2-1c2 0 6 6 8 12 2 7 12 26 18 34 8 11 11 13 10 5l-2-7c-2-4-5-29-5-40 0-7 2-18 4-23l2-8c0-6 1-8 2-6l6 32c1 10 5 31 8 41 2 7 6 15 7 14l-1-6c-2-8 1-23 6-38a110 110 0 0 1 7-16c3-7 4-2 7 28 3 36 5 43 11 56 6 12 11 19 22 30 12 12 19 20 23 28l4 7 4 8c3 12 3 19 0 30l-4 9-2 6v16l2 10v18l-2 5c0 3-1 3-3 3-4 0-6-2-10-11-2-3-4-7-7-9l-12-8-2-2-12-8a112 112 0 0 1-18-13c-7-5-8-7-13-16l-7-10c-3-2-6-1-8 2-4 4-5 8-5 18 0 14 3 26 12 41l4 7 14 24 15 37c6 17 12 48 12 63 0 17-5 37-14 55l-12 20-9 12c-8 10-17 19-31 30l-14 11-12 7c-15 8-34 26-48 43-7 9-9 15-11 24-3 13-2 25 4 33a77 77 0 0 0 22 19l12 7 8 5 10 5 18 12 15 11c5 4 12 11 18 19 5 7 10 20 13 35l3 17c0 4 0 4 6 4l10 3 14 5c12 5 21 8 29 14l9 5a148 148 0 0 1 38 39 157 157 0 0 1 25 62l-1 3c-2 0-20-19-21-22a233 233 0 0 0-47-36c-5-4-27-13-50-19a414 414 0 0 1-66-24 560 560 0 0 1-74-38l8 21a290 290 0 0 1 17 50l3 6c4 9 11 18 16 20 5 3 12 2 15-1s4-14 2-17l-6-8-12-16c-9-9-11-13-8-15 2 0 19 4 22 6l6 3a105 105 0 0 1 42 55c3 11 8 47 8 59l-3 27c-3 27-4 73-1 93 2 19 5 32 9 46a104 104 0 0 0 13 29l3 7c3 5 4 8 2 9-2 2-12-5-20-13-20-17-34-35-45-56a163 163 0 0 1-11-32c-3-2-9-63-9-83l1-9-12-1c-13-1-17-2-23-7-12-10-20-25-24-44l-3-15-2-12-4-16c-2-10-11-33-12-33l-1 17a2005 2005 0 0 1 2 92c-1 1-5-5-9-11-5-8-10-20-13-30s-11-28-16-37a457 457 0 0 1 8 76 138 138 0 0 0 16 65c0 4 14 30 22 41a183 183 0 0 0 37 32l9 5 4 3 4 2c3 0 5 3 3 6-1 2-2 2-13 2-14 0-20-1-31-4a174 174 0 0 1-49-25 135 135 0 0 1-33-32c-3-2-4-5-4-7 0-3-1-4-4-3-2 0-3 3-7 14-4 12-7 19-11 23-6 7-13 24-22 57-6 20-6 23-7 58l-1 33-4 2c-3 0-5-1-9-6-7-7-14-18-20-30-7-13-7-13-8-21l-1-29c1 5 2 4 3-4a183 183 0 0 1 5-20c1-4 6-13 9-16l7-2c4 0 7-2 8-8l4-7 5-8 2-5 9-19a548 548 0 0 1 21-41c3-6 3-7 2-9l-4-4c-3-2-4-5-4-11-1-5-1-7-4-11l-4-5 1-13c0-10 0-14-2-21-3-12-8-26-13-32-7-10-31-35-40-42-4-4-5-5-2-7h6l28 6c9 2 19 6 24 11l6 3c2-1 1-7-6-20l-8-18a211 211 0 0 1 1-119c3-10 4-17 2-17l-4 6c-7 10-11 14-20 21l-11 8c-5 4-26 13-29 12-2-2 1-4 8-8 10-4 28-23 33-34l3-9c0-6 2-13 6-22a482 482 0 0 1 17-46l12-18c5-6 8-12 8-16 0-1 1-5 3-7 3-5 5-12 4-13l2-5c1-3 3-5 7-8l8-5 9-4c15-5 24-11 22-13l-7 1c-8 2-20 3-29 1-16-4-33-17-39-31-3-6-6-27-5-35 1-10 3-11 8-4 5 8 9 14 11 14l1 1c0 1 9 6 15 8l16 1c9-1 11-1 17-4s13-9 18-15c3-4 8-17 8-21 0-3-1-2-11 1-27 10-50 11-69 4a157 157 0 0 1-38-21c-9-8-20-26-24-39-2-6-2-14-1-14 1-1 4 2 7 5 12 11 20 15 35 20 9 2 27 1 33-2 6-2 14-9 20-18 7-10 14-18 18-20l11-5c14-4 12-6-7-7-23-1-32 5-36 22-2 8-4 11-8 12-6 2-28 0-41-4l-17-10-10-7c-8-6-19-16-23-23l-16-26c-7-12-15-31-16-37 0-5 2-5 7 1l13 12 10 8c5 6 24 16 38 19 6 2 27 1 35-1l18-8a181 181 0 0 1 37-14c3-1 3-1 1-2-2-2-20-5-31-6l-25-2a222 222 0 0 1-88-22c-17-9-36-23-50-37a363 363 0 0 1-49-61l-5-8c-2-5-1-9 3-6h1l1 1 6 4 5 3a313 313 0 0 0 114 33l8 1c1-1 1-1-1-2l-16-7-28-12a230 230 0 0 1-70-40 229 229 0 0 1-25-36c-2-2-11-24-14-32a146 146 0 0 1 3-85c2-5 3-7 5-8 1 0 3-2 3-4l2-4 3-6 14-32 3 7c2 6 2 8 2 19-3 45-2 58 4 80a151 151 0 0 0 15 37c10 18 21 32 30 38l22 17 13 8 15 10a402 402 0 0 1-26-31 199 199 0 0 1-25-52 207 207 0 0 1-12-72c0-18 0-19 2-23 3-7 7-11 11-11l4-1c2-3 3-12 2-17v-8c3-10 6-31 5-34 0-3 0-6 2-9l4-11c4-11 16-38 18-38l5 9 3 9-1 8c-7 33-7 72 0 114a192 192 0 0 0 31 79 242 242 0 0 0 38 43c0-1-4-9-9-15-4-5-13-21-15-28-10-25-13-36-17-58-2-8-2-15-2-30 0-22 1-26 7-46 4-14 6-19 9-22a168 168 0 0 0 19-28l6-8 4-7 9-12c6-7 8-8 13-9 6-2 13-7 18-13l10-11 8-8c3-4 13-12 15-12l6-5c6-6 13-11 17-12l3-2c0-2 3-1 5 1zm622 6c3 1 2 3-3 5l-7 2-10 1h-11c-2 0-2 1 3 3l30 8 15 3c3 1 9 3 14 3l11 3a193 193 0 0 1 73 20l11 5 14 6 5 3 10 8a118 118 0 0 1 28 28l4 7c6 11 6 11-1 20l-7 8-4-3-7-5c-7-4-13-9-16-15-4-9-17-21-23-21l-6-3c-5-2-6-3-4-1 1 2 0 2-3 1-6-1-5 0 4 7l7 5 5 4a329 329 0 0 1 41 38c15 21 20 31 26 52 4 17 5 20 5 26s-1 9-6 14c-3 3-4 4-3 7 0 4 5 16 6 18a268 268 0 0 1 11 153c-3 12-8 25-10 28a786 786 0 0 0-35 78l-5 17c-2 13-3 15-2 38a232 232 0 0 0 8 71l-4 1c-6 4-12 2-19-7l-5-6-9-14c-9-12-14-36-5-25l2 2v-3c1-2 0-8-1-14-4-21-4-19-7-46l-3-16c-3-11-4-20-3-24l1-11 6-22 10-26 3-7 3-9c3-8 6-20 6-34v-9l-5 9-5 11a292 292 0 0 0-11 19l-4 7-4 6a183 183 0 0 0-23 71c0 7-1 17-3 23l-2 2h-1v-2c-1-1-4-6-5-11 0-1-1-2-2-1-1 0-2-1-3-5l-3-8-2-10-2-8c0-3-3-13-6-18-3-7-4-28-2-35 3-12 17-42 25-54 6-9 8-12 6-13-1-2-17 13-25 23-10 14-18 29-22 42-2 9-1 28 4 55l4 21v9l-6 2-7 3-6-5c-9-7-13-12-22-28-8-18-13-32-14-42 0-8-1-10-3-5l-1 3-4 13c-2 11-3 14-3 33a104 104 0 0 0 8 46l6 15 7 17c0 3-1 3-5 6-9 4-9 4-23-10a423 423 0 0 1-31-36l-5-11c-2-8-3-4-3 10a146 146 0 0 0 19 67l4 6c16 26 37 35 77 31l19-3c6-2 36-21 37-23s9-10 11-10l3-1c2-3 3-2 4 4 4 20 4 53 0 72-3 14-12 40-16 45l-6 8c-4 6-14 17-23 24-8 8-33 18-45 20-8 1-9 2-7 4h21l17-2c20-2 36-6 49-11 7-3 10-4 10-1 0 2 2 6 4 6 2 1 6-1 9-3l6-3c3 0 9-3 14-6l6-3c2 0 3-1 6-6l7-8c4-5 8-13 12-27 4-10 5-14 7-14 3-1-1 29-9 51-2 8-7 18-10 22l-11 17-8 9c-7 6-11 9-21 14a242 242 0 0 1-21 11c-1 2 2 6 7 9 10 6 31 24 31 26l2 4c5 7 14 25 18 37l4 12a169 169 0 0 1 8 65c0 20 0 25-4 54l-5 38v42l2 12 9 36c4 10 4 12 3 14-1 1-17-6-21-10s-10-12-19-27l-8-12-12-19a180 180 0 0 0-32-41l3 8a240 240 0 0 1 19 145 158 158 0 0 1-20 69 232 232 0 0 1-55 66c-11 10-30 20-52 29-19 7-23 7-53 7h-27l-11-3c-14-4-21-7-35-17-11-9-26-25-28-30l-2-14a395 395 0 0 0-2-25l1-12 2-12 9-12 11-17 6-10c2-2 7-12 7-15v-2l-3 3-4 2 3-3c2-3 2-3 0-5l-4-4c-4-2-6-5-5-8 1-1 2-2 3-1 3 1 12-5 17-11a128 128 0 0 1 13-13l12-6 12-5-1-2h-2l-3 1 2-3c2-3 3-3 7-2l12 4 10 3c2 0 16 5 21 8l6 3 11 9c9 8 17 20 21 32l5 11c2 4 2 5 1 6-2 2-5 0-19-14s-21-20-28-23c-4-2-12-3-17-2s-8 3-14 12c-6 8-12 14-19 17-6 3-8 3-16 3h-9l-2 4c-2 5-4 10-5 23v19c3 18 6 24 13 35 7 12 4 10 26 21 3 2 7 2 19 3l17-1s4-2 9-2l12-4 9-5c17-6 33-16 33-19l4-7 5-11 6-12a129 129 0 0 0 14-34l4-15c5-16 6-57 2-81-1-8-5-17-10-22l-17-23c-5-8-11-14-18-17-4-2-6-2-13-2-20 2-42 12-56 27-6 6-11 8-12 6-1-1 2-17 3-20v-2h-3c-1-2 8-24 10-24a132 132 0 0 0 32-35c1-3 3-4 4-4l7-2c7-4 17-7 26-7l11-3c1-2 5-4 8-5h13l9 2-1-4-1-17c1-12 1-16-1-23a146 146 0 0 0-14-41c0-2-10-12-15-15l-7-5-8-12c0-3-18-25-20-25l-3 8-5 10-2 4c-1 7-17 23-27 28-8 5-14 6-34 5-19 0-21 0-35-6-12-5-27-17-35-28l-5-7c-2-2-12-19-14-26l-3-12-1-15c-3-15-1-55 2-59l5-7c3-3 5-7 6-10 1-2 3-6 5-7l4-7 5-8 4-5c2-2 2-3 12-8l8-4c3-4-2-13-16-27-5-5-8-9-11-15l-4-10-2-3a219 219 0 0 1-14-63c-2-1-8 22-11 40l-4 32c0 7 0 8-2 9s-3-1-3-8l-1-5-1-3-1-3c-2-3-4-17-6-40l-2-28a298 298 0 0 1 11-64c1-8 7-27 10-31l5-6 8-14a72 72 0 0 1 16-22l12-12 8-9a203 203 0 0 1 39-36l11-10c19-16 25-21 35-32 12-15 12-16 17-39 0-3 0-4-2-7l-5-6c-2-5-8-12-12-15l-9-2-7-2c-4-3-9-3-10-1l2 4c3 4 6 12 6 14-1 3-9 9-12 9l-2-2c-1-2-12-4-30-6-14-2-25 0-40 7a49 49 0 0 0-22 17l-3 6c-4 7-8 19-9 29l-3 11c-1 3-7 8-10 8l-8-5c-3-3-8-7-12-8l-5-3-3 2-9 11c-9 12-20 24-22 24s-1-4 1-8l7-8c4-5 7-9 15-24l8-10 11-17a305 305 0 0 1 27-43l2-3h-3l-8 2-8 1-6 2c-7 2-14 13-8 13 4 0 5 2 4 5-1 2-10 7-13 7s-6 4-6 7c0 2 1 4 4 6l4 3-3 3c-2 2-10 4-15 4s-12-3-15-5l-5-8c-1-3-2-5-5-6-5-4-8-9-9-14 0-3 0-6 3-12l4-9 7 2 9 2c4 0 13-3 18-7l6-3 1-1c1-1 1 0 1 1l-2 5-2 4c0 2 0 2 4 2l5-1c0-1 3-4 8-7l7-5v-7l1-10c1-4 2-33 1-39-1-5-1-6 1-9l7-4 4-2c0-3 21-11 30-12l7-4 6-3 6-3 8-4c11-2 23-8 30-14l14-9c2 0 12-8 18-14l14-18 8-11 7-15 1-3 3-8c1-7 1-7 3-7 4 3 0 28-8 45l-5 9-6 10-13 20-7 12c0 2 3 3 21 4 11 1 15 1 22 4l10 3 2 1-5 1h-2l8 1c9 0 18 5 31 18 15 15 26 33 31 54 9 31 14 38 27 40 7 2 14-4 18-16 3-9 3-13 0-24-3-10-5-13-9-13-2 0-10-7-10-9l4-6c5-7 7-8 17-8h6v-17c0-18-1-35-3-45-2-12-16-37-24-41-2-2-4-2-10-1-11 0-12 0-21-10-11-11-15-14-38-26a171 171 0 0 0-23-10c-2-3-16-6-24-6-6 0-7 0-8-2-2-2-11-8-13-8l-5 2c-3 1-8 2-17 2-29 2-32 3-45 21-3 4-4 2-1-4 2-4 5-12 5-19l8-12 7-6c9-8 21-12 41-12l13-1c3-3 4-2 4 5v6l4-4c2-2 4-5 6-5l8-5 10-5 19-7c4-2 9-4 13-4h24zM694 417c0 3-4 7-9 10l-9 6c-10 8-11 9-13 8l-1-3 8-12 3-1c1-2 19-9 20-9l1 1z"/><path d="m252 367 2 3 4 10a113 113 0 0 0 26 38c7 9 28 24 38 28l8 5 12 6 18 6-11-6c-14-7-34-20-46-29-21-17-31-28-42-50l-8-12-1 1zM187 406a93 93 0 0 0 45 38l12 7 6 4a242 242 0 0 1 52 32l20 13a347 347 0 0 1 34 27l31 34c4 6 7 8 7 5a1085 1085 0 0 0-35-43 246 246 0 0 0-43-36 290 290 0 0 0-33-21 305 305 0 0 0-25-15l-18-9c-26-14-34-19-45-31-6-6-8-7-8-5zM524 495a55 55 0 0 0 11 28l6 8 2 2 1-2-1-7-1-8c0-5-3-11-7-14l-5-3-3-3c-2-2-3-3-3-1zM204 531c0 3 27 11 54 16a384 384 0 0 1 95 35l5 3c3 0 33 37 39 48 2 5 3 11 1 13-2 1-3 0-6-3l-6-5-6-3c-8-7-11-9-23-13-12-5-15-5-28-7-20-2-43 0-44 4 0 1 1 2 4 2h7a112 112 0 0 1 55 10c9 3 13 5 20 10a197 197 0 0 1 27 25c5 6 12 26 15 42 1 10 1 28-1 34-1 2-2 3-4 3l-9-2-12-3c-6 0-7 0-10 2-2 1-4 2-7 1-3 0-4 0-6 3l-3 5c1 2 1 3 8 3 8 1 10 2 13 10 5 10 6 16 3 29-3 16-3 21-2 25 3 8 12 8 20 1l4-4v-9c0-9 0-9-5-19-4-8-5-10-4-12l4-4c3 0 3-1 11-8l8-8c2-4 5-18 5-22l1-4c2-1 2-43 0-44l-6-21c0-4-5-13-6-14l-3-6c-3-6-12-20-18-26-5-5-17-21-19-26a80 80 0 0 0-24-21l-15-8-11-6a1596 1596 0 0 1-70-19l-20-4c-17-3-31-5-31-3z"/><path d="m336 676-10 4c-6 2-8 4-11 7-4 5-4 8 0 12 3 3 4 3 8 3 6 0 11-2 15-5l4-4 4-4c3-5 4-5 5-1v19c-1 3 2 3 7 1l12-1c6 0 7 0 12 3l6 3c1-1-5-16-10-22-7-9-18-14-32-15h-10zM456 751l-10 19-7 8-5 7c-1 1 0 4 1 6l3 10c0 9 1 9 3 8s4-5 10-16c5-11 7-17 8-26 2-14 0-26-3-16zM326 908l-8 10a131 131 0 0 0-30 48l-1 13c1 8 1 10 4 16 7 16 21 20 28 9 3-5 3-14 0-29-3-14-3-30 0-40l3-9 8-19c0-3-2-2-4 1zM381 1017l7 5c5 2 14 9 23 16a181 181 0 0 0 19 14c3 7 50 31 59 31 4 0 1-8-6-15a493 493 0 0 1-26-21c-18-12-23-14-31-18l-22-7c-7-1-15-4-16-5-3-1-7-2-7 0zM768 266c-12 12-18 23-19 31-1 6 1 6 5 1l3-5c4-5 10-13 11-17 1-3 3-5 4-5l1-4 1-2 1-1c-2-2-5-1-7 2zM694 348l2 1 1-1-2-1-1 1zM748 353c-3 1-10 9-12 13l-5 10-4 9v6c2 0 13-6 16-9 2-3 5-10 6-18l2-9c0-3 0-3-3-2zM815 641l8 21a280 280 0 0 0 29 50 120 120 0 0 0 21 22c2 3 21 17 26 20l20 9 16 7a196 196 0 0 0 47-1l20-11 10-9 7-7 2-4 2-2 2-4 2-7 1-4-4 1a158 158 0 0 1-71 20c-13 0-15 0-24-2l-18-6-5-3c-9-4-20-14-24-21l-4-6-4-5c-3-7-6-10-16-16a175 175 0 0 1-16-10c-1 0-11-10-15-16l-7-11c-3-5-5-7-5-5zM855 830c-4 1-15 9-15 10l-3 5c-5 8-6 12-7 24 0 10 0 12 2 20 3 10 9 21 13 26l9 7 7 3 4-2 6-2 6-4 6-5 1-12c0-13-1-19-8-26-2-2-5-5-7-5l-4-5c-4-7 2-9 13-5l33 9c6 1 17 5 18 7l18 11a211 211 0 0 1 64 56l7 8a327 327 0 0 1 46 84 633 633 0 0 0 27 60 360 360 0 0 0-8-48c-3-21-6-36-12-49l-5-13c-2-9-4-12-11-15-5-3-6-4-11-12l-6-11c0-2-18-27-25-34-10-10-13-12-38-25a339 339 0 0 1-38-19 325 325 0 0 1-32-15 2327 2327 0 0 0-26-16c-2 0-5-3-7-5-3-3-5-3-9-4l-8 2z"/></svg>