<?xml version="1.0" standalone="no"?>
<!DOCTYPE svg PUBLIC "-//W3C//DTD SVG 1.1//EN" "http://www.w3.org/Graphics/SVG/1.1/DTD/svg11.dtd">
<svg width="300mm" height="715mm" viewBox="0 -715 300 715" xmlns="http://www.w3.org/2000/svg" version="1.1">
<title>OpenSCAD Model</title>
<path d="
M 104.893,-34.3429 L 105.363,-49.8651 L 105.43,-52.2246 L 105.493,-54.3755 L 105.554,-56.3353 L 105.615,-58.1211
 L 105.679,-59.7503 L 105.748,-61.2401 L 105.825,-62.6079 L 105.912,-63.8709 L 106.012,-65.0464 L 106.127,-66.1517
 L 106.26,-67.2041 L 106.413,-68.2209 L 106.588,-69.2193 L 106.789,-70.2166 L 107.017,-71.2302 L 107.275,-72.2773
 L 107.565,-73.3752 L 107.89,-74.5412 L 108.253,-75.7926 L 108.656,-77.1466 L 109.284,-79.4189 L 109.898,-81.5803
 L 110.499,-83.6331 L 111.086,-85.5794 L 111.662,-87.4213 L 112.224,-89.1608 L 112.775,-90.8002 L 113.314,-92.3415
 L 113.842,-93.7868 L 114.359,-95.1383 L 114.865,-96.3981 L 115.361,-97.5682 L 115.847,-98.6509 L 116.324,-99.6482
 L 116.791,-100.562 L 117.25,-101.395 L 117.7,-102.149 L 118.142,-102.826 L 118.577,-103.428 L 119.004,-103.958
 L 119.283,-104.251 L 119.555,-104.565 L 119.822,-104.903 L 120.084,-105.263 L 120.341,-105.648 L 120.595,-106.057
 L 120.847,-106.492 L 121.096,-106.953 L 121.344,-107.441 L 121.591,-107.956 L 121.838,-108.499 L 122.086,-109.072
 L 122.335,-109.674 L 122.586,-110.306 L 122.84,-110.969 L 123.098,-111.664 L 123.36,-112.392 L 123.626,-113.153
 L 123.899,-113.947 L 124.178,-114.776 L 124.45,-115.524 L 124.702,-116.218 L 124.936,-116.859 L 125.152,-117.448
 L 125.354,-117.988 L 125.541,-118.48 L 125.715,-118.927 L 125.879,-119.329 L 126.032,-119.69 L 126.177,-120.009
 L 126.315,-120.29 L 126.447,-120.534 L 126.575,-120.742 L 126.7,-120.917 L 126.824,-121.06 L 126.947,-121.173
 L 127.072,-121.258 L 127.2,-121.317 L 127.333,-121.351 L 127.47,-121.361 L 127.675,-121.425 L 127.866,-121.474
 L 128.043,-121.51 L 128.208,-121.531 L 128.36,-121.538 L 128.499,-121.531 L 128.626,-121.51 L 128.742,-121.474
 L 128.847,-121.425 L 128.94,-121.361 L 129.023,-121.284 L 129.096,-121.192 L 129.159,-121.086 L 129.212,-120.966
 L 129.256,-120.832 L 129.292,-120.684 L 129.319,-120.522 L 129.337,-120.345 L 129.348,-120.155 L 129.352,-119.95
 L 129.355,-119.806 L 129.366,-119.655 L 129.385,-119.498 L 129.412,-119.337 L 129.447,-119.171 L 129.492,-119.002
 L 129.545,-118.83 L 129.608,-118.656 L 129.68,-118.48 L 129.763,-118.304 L 129.857,-118.128 L 129.961,-117.952
 L 130.077,-117.778 L 130.205,-117.606 L 130.344,-117.437 L 130.496,-117.271 L 130.66,-117.11 L 130.838,-116.953
 L 131.029,-116.802 L 131.233,-116.658 L 133.911,-113.236 L 136.815,-110.005 L 139.934,-106.981 L 143.253,-104.177
 L 146.756,-101.606 L 151.047,-98.6774 L 155.517,-96.0271 L 160.145,-93.6657 L 164.914,-91.6028 L 169.804,-89.8466
 L 170.563,-89.6419 L 171.291,-89.451 L 171.994,-89.2735 L 172.675,-89.1091 L 173.339,-88.9573 L 173.99,-88.8179
 L 174.634,-88.6905 L 175.275,-88.5747 L 175.917,-88.4702 L 176.565,-88.3767 L 177.224,-88.2937 L 177.898,-88.221
 L 178.591,-88.1582 L 179.309,-88.1048 L 180.056,-88.0607 L 180.837,-88.0253 L 181.655,-87.9985 L 182.516,-87.9797
 L 183.425,-87.9687 L 184.385,-87.9651 L 185.127,-87.9653 L 185.801,-87.9661 L 186.412,-87.9683 L 186.963,-87.9727
 L 187.457,-87.9798 L 187.899,-87.9905 L 188.291,-88.0055 L 188.637,-88.0253 L 188.941,-88.0509 L 189.206,-88.0827
 L 189.436,-88.1216 L 189.635,-88.1683 L 189.804,-88.2235 L 189.95,-88.2878 L 190.074,-88.362 L 190.18,-88.4468
 L 190.272,-88.5429 L 190.354,-88.6509 L 190.429,-88.7717 L 190.5,-88.9059 L 190.627,-89.1174 L 190.727,-89.3278
 L 190.801,-89.5361 L 190.85,-89.7413 L 190.875,-89.9422 L 190.877,-90.1378 L 190.857,-90.327 L 190.816,-90.5089
 L 190.756,-90.6823 L 190.676,-90.8461 L 190.58,-90.9994 L 190.466,-91.1411 L 190.337,-91.27 L 190.194,-91.3852
 L 190.037,-91.4856 L 189.868,-91.5701 L 189.687,-91.6376 L 189.497,-91.6872 L 189.297,-91.7177 L 189.089,-91.7281
 L 187.207,-92.6688 L 185.326,-94.0799 L 181.093,-96.4318 L 176.373,-99.7483 L 171.886,-103.374 L 167.651,-107.291
 L 163.689,-111.484 L 163.104,-112.311 L 162.485,-113.23 L 161.837,-114.229 L 161.168,-115.296 L 160.484,-116.415
 L 159.794,-117.575 L 159.104,-118.763 L 158.421,-119.965 L 157.752,-121.169 L 157.104,-122.361 L 156.484,-123.528
 L 155.9,-124.658 L 155.357,-125.737 L 154.865,-126.751 L 154.428,-127.689 L 154.056,-128.537 L 153.753,-129.282
 L 153.529,-129.911 L 153.389,-130.411 L 153.341,-130.769 L 150.648,-136.529 L 148.531,-142.524 L 147.012,-148.698
 L 146.103,-154.991 L 145.815,-161.343 L 145.436,-170.331 L 144.682,-179.296 L 143.553,-188.221 L 142.052,-197.091
 L 142.415,-196.425 L 142.796,-195.702 L 143.193,-194.927 L 143.602,-194.107 L 144.022,-193.247 L 144.448,-192.354
 L 144.879,-191.433 L 145.311,-190.491 L 145.741,-189.533 L 146.168,-188.566 L 146.587,-187.595 L 146.996,-186.626
 L 147.393,-185.666 L 147.774,-184.721 L 148.137,-183.796 L 148.479,-182.897 L 148.797,-182.031 L 149.088,-181.203
 L 149.349,-180.42 L 149.578,-179.687 L 149.796,-178.975 L 150.028,-178.251 L 150.273,-177.517 L 150.53,-176.775
 L 150.798,-176.027 L 151.076,-175.276 L 151.365,-174.524 L 151.662,-173.772 L 151.969,-173.023 L 152.282,-172.279
 L 152.603,-171.542 L 152.931,-170.814 L 153.263,-170.098 L 153.601,-169.395 L 153.943,-168.707 L 154.289,-168.037
 L 154.637,-167.387 L 154.988,-166.759 L 155.34,-166.154 L 155.693,-165.576 L 155.975,-165.153 L 156.256,-164.733
 L 156.534,-164.317 L 156.81,-163.909 L 157.082,-163.511 L 157.348,-163.125 L 157.608,-162.754 L 157.86,-162.4
 L 158.104,-162.066 L 158.338,-161.754 L 158.562,-161.467 L 158.774,-161.207 L 158.974,-160.977 L 159.16,-160.779
 L 159.331,-160.615 L 159.486,-160.489 L 159.624,-160.402 L 159.744,-160.357 L 159.845,-160.356 L 159.926,-160.402
 L 159.877,-171.224 L 159.704,-182.045 L 159.407,-192.862 L 158.985,-203.676 L 159.456,-211.673 L 159.553,-211.594
 L 159.702,-211.365 L 159.897,-210.999 L 160.133,-210.51 L 160.404,-209.909 L 160.704,-209.209 L 161.03,-208.423
 L 161.375,-207.563 L 161.734,-206.643 L 162.101,-205.675 L 162.473,-204.672 L 162.842,-203.646 L 163.205,-202.61
 L 163.555,-201.577 L 163.887,-200.56 L 164.197,-199.571 L 164.478,-198.623 L 164.726,-197.728 L 164.935,-196.9
 L 165.1,-196.15 L 166.981,-188.624 L 167.922,-182.98 L 169.333,-175.924 L 169.63,-174.598 L 169.954,-173.3
 L 170.307,-172.031 L 170.688,-170.792 L 171.097,-169.582 L 171.535,-168.402 L 172,-167.252 L 172.494,-166.133
 L 173.016,-165.045 L 173.567,-163.989 L 174.145,-162.964 L 174.752,-161.971 L 175.387,-161.011 L 176.05,-160.084
 L 176.742,-159.189 L 177.461,-158.329 L 178.209,-157.502 L 178.985,-156.709 L 179.79,-155.951 L 180.622,-155.228
 L 181.039,-154.889 L 181.446,-154.577 L 181.846,-154.29 L 182.244,-154.028 L 182.643,-153.788 L 183.048,-153.569
 L 183.462,-153.369 L 183.888,-153.189 L 184.332,-153.025 L 184.797,-152.876 L 185.286,-152.742 L 185.804,-152.62
 L 186.354,-152.51 L 186.941,-152.41 L 187.568,-152.318 L 188.238,-152.233 L 188.957,-152.154 L 189.728,-152.078
 L 190.555,-152.006 L 191.441,-151.936 L 197.085,-151.465 L 196.615,-147.232 L 196.635,-145.682 L 196.695,-143.878
 L 196.791,-141.855 L 196.92,-139.649 L 197.078,-137.295 L 197.263,-134.828 L 197.47,-132.283 L 197.699,-129.696
 L 197.944,-127.102 L 198.202,-124.536 L 198.472,-122.034 L 198.748,-119.63 L 199.029,-117.361 L 199.311,-115.261
 L 199.591,-113.365 L 199.866,-111.709 L 200.132,-110.329 L 200.387,-109.259 L 200.626,-108.534 L 200.848,-108.191
 L 201.846,-104.332 L 203.044,-100.531 L 204.437,-96.7961 L 206.022,-93.1392 L 206.809,-91.668 L 207.618,-90.2173
 L 208.451,-88.7863 L 209.307,-87.3743 L 210.189,-85.9808 L 211.098,-84.6048 L 212.034,-83.2458 L 212.999,-81.903
 L 213.993,-80.5757 L 215.018,-79.2633 L 216.075,-77.9649 L 217.164,-76.68 L 218.288,-75.4078 L 219.446,-74.1475
 L 220.64,-72.8986 L 221.872,-71.6602 L 223.141,-70.4317 L 224.45,-69.2124 L 225.799,-68.0016 L 227.189,-66.7985
 L 227.76,-66.238 L 228.341,-65.6875 L 228.93,-65.1496 L 229.522,-64.6272 L 230.114,-64.1232 L 230.703,-63.6404
 L 231.284,-63.1815 L 231.855,-62.7495 L 232.412,-62.3471 L 232.951,-61.9772 L 233.469,-61.6425 L 233.962,-61.3459
 L 234.427,-61.0903 L 234.861,-60.8784 L 235.259,-60.713 L 235.618,-60.5971 L 235.935,-60.5334 L 236.206,-60.5247
 L 236.428,-60.5738 L 236.596,-60.6837 L 236.727,-60.7613 L 236.837,-60.853 L 236.926,-60.9588 L 236.995,-61.0788
 L 237.045,-61.2128 L 237.075,-61.361 L 237.086,-61.5233 L 237.078,-61.6996 L 237.052,-61.8902 L 237.008,-62.0948
 L 236.946,-62.3135 L 236.867,-62.5463 L 236.771,-62.7933 L 236.659,-63.0543 L 236.53,-63.3295 L 236.386,-63.6188
 L 236.225,-63.9221 L 236.05,-64.2397 L 235.86,-64.5713 L 235.656,-64.917 L 234.244,-68.2096 L 232.327,-71.4336
 L 230.663,-74.795 L 229.261,-78.2741 L 228.13,-81.8503 L 227.851,-82.835 L 227.579,-83.815 L 227.315,-84.793
 L 227.057,-85.7713 L 226.807,-86.7525 L 226.563,-87.7389 L 226.327,-88.7331 L 226.098,-89.7375 L 225.875,-90.7546
 L 225.66,-91.7869 L 225.452,-92.8368 L 225.251,-93.9068 L 225.057,-94.9995 L 224.87,-96.1171 L 224.69,-97.2623
 L 224.517,-98.4375 L 224.351,-99.6451 L 224.193,-100.888 L 224.041,-102.168 L 223.896,-103.487 L 223.699,-104.988
 L 223.528,-106.655 L 223.385,-108.475 L 223.268,-110.43 L 223.176,-112.505 L 223.109,-114.685 L 223.066,-116.952
 L 223.046,-119.292 L 223.049,-121.688 L 223.073,-124.125 L 223.119,-126.586 L 223.185,-129.057 L 223.271,-131.52
 L 223.376,-133.96 L 223.499,-136.362 L 223.64,-138.709 L 223.798,-140.985 L 223.972,-143.175 L 224.162,-145.262
 L 224.367,-147.232 L 225.778,-159.932 L 225.761,-160.86 L 225.711,-161.941 L 225.63,-163.156 L 225.522,-164.489
 L 225.388,-165.922 L 225.232,-167.438 L 225.055,-169.019 L 224.86,-170.649 L 224.649,-172.31 L 224.425,-173.984
 L 224.191,-175.655 L 223.949,-177.305 L 223.701,-178.918 L 223.45,-180.474 L 223.198,-181.958 L 222.948,-183.352
 L 222.702,-184.639 L 222.463,-185.802 L 222.233,-186.822 L 222.015,-187.684 L 220.005,-192.831 L 217.432,-197.721
 L 214.33,-202.293 L 210.736,-206.49 L 206.695,-210.26 L 202.259,-213.554 L 199.437,-214.965 L 199.178,-215.113
 L 198.83,-215.273 L 198.404,-215.442 L 197.909,-215.62 L 197.357,-215.803 L 196.757,-215.99 L 196.12,-216.178
 L 195.456,-216.365 L 194.775,-216.549 L 194.087,-216.729 L 193.402,-216.902 L 192.731,-217.065 L 192.085,-217.217
 L 191.472,-217.356 L 190.904,-217.479 L 190.391,-217.584 L 189.942,-217.67 L 189.569,-217.734 L 189.281,-217.774
 L 189.089,-217.787 L 188.895,-217.639 L 188.737,-217.475 L 188.616,-217.296 L 188.532,-217.099 L 188.486,-216.883
 L 188.479,-216.649 L 188.512,-216.393 L 188.585,-216.117 L 188.698,-215.817 L 188.854,-215.494 L 189.051,-215.147
 L 189.292,-214.773 L 189.577,-214.373 L 189.905,-213.945 L 190.28,-213.488 L 190.699,-213.001 L 191.166,-212.483
 L 191.68,-211.933 L 192.241,-211.349 L 192.852,-210.732 L 201.319,-199.443 L 201.449,-199.204 L 201.559,-198.914
 L 201.648,-198.579 L 201.717,-198.205 L 201.767,-197.797 L 201.797,-197.36 L 201.808,-196.901 L 201.8,-196.425
 L 201.774,-195.938 L 201.73,-195.445 L 201.668,-194.952 L 201.589,-194.465 L 201.494,-193.988 L 201.381,-193.529
 L 201.252,-193.093 L 201.108,-192.685 L 200.948,-192.31 L 200.772,-191.975 L 200.582,-191.686 L 200.378,-191.447
 L 200.152,-191.242 L 199.901,-191.052 L 199.625,-190.878 L 199.328,-190.72 L 199.011,-190.579 L 198.676,-190.456
 L 198.326,-190.351 L 197.962,-190.265 L 197.587,-190.199 L 197.203,-190.153 L 196.812,-190.129 L 196.415,-190.126
 L 196.016,-190.146 L 195.617,-190.189 L 195.218,-190.256 L 194.824,-190.348 L 194.435,-190.465 L 194.053,-190.608
 L 193.682,-190.779 L 193.322,-190.976 L 192.963,-191.142 L 192.591,-191.354 L 192.208,-191.611 L 191.817,-191.909
 L 191.419,-192.248 L 191.015,-192.623 L 190.608,-193.033 L 190.199,-193.475 L 189.79,-193.946 L 189.383,-194.445
 L 188.979,-194.969 L 188.581,-195.514 L 188.19,-196.08 L 187.807,-196.663 L 187.435,-197.26 L 187.076,-197.87
 L 186.73,-198.49 L 186.401,-199.117 L 186.089,-199.749 L 185.796,-200.384 L 184.385,-203.206 L 182.79,-209.216
 L 180.924,-215.148 L 178.788,-220.988 L 176.389,-226.724 L 172.626,-236.602 L 181.073,-231.651 L 189.697,-227.018
 L 198.488,-222.708 L 207.433,-218.728 L 215.008,-215.414 L 222.716,-212.424 L 230.544,-209.764 L 238.478,-207.439
 L 240.096,-207.006 L 241.702,-206.554 L 243.289,-206.087 L 244.852,-205.607 L 246.386,-205.117 L 247.884,-204.62
 L 249.342,-204.119 L 250.753,-203.616 L 252.111,-203.115 L 253.412,-202.618 L 254.649,-202.128 L 255.818,-201.648
 L 256.911,-201.181 L 257.924,-200.729 L 258.851,-200.295 L 259.686,-199.883 L 260.424,-199.495 L 261.058,-199.133
 L 261.584,-198.802 L 261.996,-198.502 L 267.917,-194.806 L 273.59,-190.741 L 278.993,-186.322 L 284.104,-181.569
 L 284.232,-181.303 L 284.469,-180.936 L 284.803,-180.481 L 285.221,-179.951 L 285.713,-179.357 L 286.267,-178.711
 L 286.871,-178.027 L 287.513,-177.317 L 288.182,-176.592 L 288.866,-175.866 L 289.554,-175.15 L 290.234,-174.457
 L 290.893,-173.799 L 291.522,-173.189 L 292.107,-172.639 L 292.638,-172.161 L 293.103,-171.768 L 293.489,-171.472
 L 293.786,-171.286 L 293.981,-171.221 L 294.452,-172.632 L 293.121,-178.826 L 291.264,-184.883 L 288.895,-190.759
 L 286.031,-196.41 L 282.693,-201.795 L 279.681,-205.974 L 276.37,-209.918 L 272.775,-213.607 L 268.918,-217.021
 L 264.819,-220.139 L 260.585,-222.491 L 260.017,-222.904 L 259.441,-223.298 L 258.857,-223.674 L 258.263,-224.034
 L 257.66,-224.38 L 257.046,-224.714 L 256.421,-225.037 L 255.784,-225.351 L 255.134,-225.658 L 254.47,-225.96
 L 253.793,-226.258 L 253.101,-226.555 L 252.393,-226.852 L 251.669,-227.15 L 250.928,-227.452 L 250.169,-227.759
 L 249.392,-228.073 L 248.596,-228.397 L 247.781,-228.73 L 246.944,-229.076 L 240.359,-231.428 L 235.656,-232.839
 L 235.253,-232.839 L 234.891,-232.841 L 234.567,-232.846 L 234.278,-232.854 L 234.024,-232.869 L 233.801,-232.89
 L 233.608,-232.92 L 233.443,-232.96 L 233.303,-233.011 L 233.186,-233.074 L 233.09,-233.152 L 233.014,-233.246
 L 232.954,-233.356 L 232.91,-233.485 L 232.877,-233.633 L 232.856,-233.803 L 232.843,-233.995 L 232.836,-234.211
 L 232.834,-234.452 L 232.833,-234.721 L 231.422,-242.717 L 231.204,-243.768 L 230.972,-244.804 L 230.727,-245.822
 L 230.47,-246.822 L 230.202,-247.803 L 229.924,-248.762 L 229.635,-249.699 L 229.338,-250.612 L 229.031,-251.499
 L 228.718,-252.36 L 228.397,-253.192 L 228.069,-253.995 L 227.737,-254.766 L 227.399,-255.505 L 227.057,-256.211
 L 226.711,-256.881 L 226.363,-257.514 L 226.012,-258.109 L 225.66,-258.665 L 225.307,-259.18 L 224.881,-259.741
 L 224.448,-260.294 L 224.01,-260.838 L 223.569,-261.374 L 223.125,-261.899 L 222.678,-262.414 L 222.232,-262.918
 L 221.785,-263.41 L 221.34,-263.888 L 220.898,-264.354 L 220.459,-264.805 L 220.024,-265.242 L 219.595,-265.663
 L 219.173,-266.068 L 218.759,-266.456 L 218.353,-266.826 L 217.958,-267.178 L 217.573,-267.511 L 217.2,-267.824
 L 216.841,-268.117 L 209.785,-273.291 L 201.319,-278.936 L 196.615,-281.287 L 192.852,-283.639 L 187.207,-286.932
 L 184.878,-288.394 L 182.666,-290.028 L 180.584,-291.826 L 178.645,-293.777 L 176.859,-295.869 L 176.453,-296.447
 L 176.083,-297.053 L 175.746,-297.684 L 175.444,-298.341 L 175.176,-299.022 L 174.942,-299.725 L 174.74,-300.451
 L 174.571,-301.197 L 174.435,-301.963 L 174.331,-302.748 L 174.259,-303.55 L 174.218,-304.369 L 174.208,-305.204
 L 174.228,-306.053 L 174.28,-306.915 L 174.361,-307.79 L 174.471,-308.676 L 174.611,-309.572 L 174.78,-310.478
 L 174.978,-311.391 L 175.119,-312.016 L 175.262,-312.622 L 175.409,-313.21 L 175.561,-313.784 L 175.72,-314.346
 L 175.888,-314.896 L 176.066,-315.438 L 176.257,-315.974 L 176.462,-316.506 L 176.683,-317.036 L 176.921,-317.565
 L 177.179,-318.097 L 177.458,-318.633 L 177.76,-319.175 L 178.087,-319.725 L 178.44,-320.287 L 178.821,-320.861
 L 179.232,-321.449 L 179.675,-322.055 L 180.152,-322.68 L 181.157,-323.882 L 182.194,-325.088 L 183.26,-326.293
 L 184.351,-327.493 L 185.466,-328.685 L 186.599,-329.864 L 187.749,-331.027 L 188.912,-332.17 L 190.085,-333.289
 L 191.264,-334.38 L 192.447,-335.44 L 193.631,-336.464 L 194.811,-337.448 L 195.986,-338.389 L 197.151,-339.283
 L 198.304,-340.125 L 199.442,-340.913 L 200.561,-341.641 L 201.658,-342.307 L 202.73,-342.906 L 208.374,-346.198
 L 214.959,-351.373 L 215.93,-352.142 L 216.866,-352.898 L 217.77,-353.642 L 218.643,-354.375 L 219.487,-355.099
 L 220.302,-355.813 L 221.09,-356.52 L 221.853,-357.22 L 222.592,-357.915 L 223.308,-358.604 L 224.004,-359.291
 L 224.679,-359.975 L 225.336,-360.657 L 225.976,-361.339 L 226.601,-362.022 L 227.211,-362.707 L 227.809,-363.394
 L 228.396,-364.085 L 228.973,-364.781 L 229.541,-365.484 L 233.774,-371.128 L 239.419,-380.536 L 240.039,-381.812
 L 240.632,-383.101 L 241.195,-384.401 L 241.729,-385.71 L 242.233,-387.025 L 242.708,-388.346 L 243.152,-389.67
 L 243.565,-390.997 L 243.948,-392.323 L 244.299,-393.647 L 244.618,-394.968 L 244.905,-396.284 L 245.16,-397.592
 L 245.381,-398.892 L 245.57,-400.181 L 245.725,-401.458 L 245.847,-402.72 L 245.934,-403.967 L 245.986,-405.196
 L 246.004,-406.406 L 245.983,-407.519 L 245.922,-408.734 L 245.823,-410.041 L 245.688,-411.429 L 245.519,-412.888
 L 245.318,-414.407 L 245.088,-415.975 L 244.83,-417.582 L 244.546,-419.217 L 244.24,-420.87 L 243.912,-422.53
 L 243.565,-424.186 L 243.202,-425.828 L 242.823,-427.446 L 242.432,-429.028 L 242.03,-430.564 L 241.62,-432.044
 L 241.203,-433.457 L 240.782,-434.792 L 240.359,-436.039 L 233.304,-453.443 L 226.719,-464.732 L 224.837,-468.024
 L 224.223,-469.072 L 223.65,-470.101 L 223.118,-471.112 L 222.624,-472.107 L 222.169,-473.088 L 221.751,-474.057
 L 221.369,-475.015 L 221.021,-475.964 L 220.708,-476.906 L 220.427,-477.843 L 220.178,-478.777 L 219.96,-479.708
 L 219.772,-480.64 L 219.612,-481.573 L 219.479,-482.51 L 219.373,-483.453 L 219.293,-484.402 L 219.236,-485.36
 L 219.203,-486.329 L 219.193,-487.31 L 219.196,-487.994 L 219.208,-488.639 L 219.228,-489.245 L 219.257,-489.816
 L 219.295,-490.352 L 219.345,-490.857 L 219.406,-491.332 L 219.479,-491.78 L 219.564,-492.202 L 219.663,-492.601
 L 219.776,-492.979 L 219.904,-493.338 L 220.047,-493.68 L 220.207,-494.007 L 220.383,-494.321 L 220.577,-494.625
 L 220.79,-494.92 L 221.021,-495.209 L 221.273,-495.494 L 221.544,-495.776 L 221.689,-495.981 L 221.84,-496.171
 L 221.998,-496.346 L 222.162,-496.506 L 222.331,-496.651 L 222.505,-496.78 L 222.685,-496.892 L 222.869,-496.988
 L 223.057,-497.067 L 223.25,-497.129 L 223.445,-497.173 L 223.644,-497.199 L 223.846,-497.206 L 224.05,-497.195
 L 224.256,-497.165 L 224.464,-497.116 L 224.674,-497.047 L 224.885,-496.957 L 225.096,-496.848 L 225.307,-496.717
 L 228.6,-492.013 L 228.939,-491.402 L 229.254,-490.837 L 229.547,-490.315 L 229.823,-489.831 L 230.085,-489.382
 L 230.336,-488.965 L 230.58,-488.577 L 230.82,-488.213 L 231.061,-487.87 L 231.305,-487.545 L 231.556,-487.234
 L 231.817,-486.933 L 232.093,-486.64 L 232.386,-486.35 L 232.701,-486.06 L 233.04,-485.767 L 233.408,-485.466
 L 233.807,-485.155 L 234.242,-484.83 L 234.715,-484.487 L 236.715,-482.803 L 238.796,-481.22 L 240.954,-479.742
 L 243.181,-478.373 L 248.826,-474.61 L 249.767,-473.669 L 255.411,-469.906 L 255.619,-469.758 L 255.821,-469.597
 L 256.016,-469.424 L 256.205,-469.24 L 256.389,-469.046 L 256.567,-468.843 L 256.74,-468.633 L 256.909,-468.416
 L 257.073,-468.193 L 257.234,-467.966 L 257.391,-467.735 L 257.545,-467.501 L 257.696,-467.267 L 257.844,-467.031
 L 257.991,-466.797 L 258.135,-466.564 L 258.279,-466.335 L 258.421,-466.109 L 258.563,-465.888 L 258.704,-465.673
 L 258.979,-465.062 L 259.242,-464.499 L 259.493,-463.982 L 259.735,-463.509 L 259.968,-463.078 L 260.194,-462.688
 L 260.414,-462.337 L 260.63,-462.022 L 260.844,-461.743 L 261.056,-461.498 L 261.267,-461.284 L 261.481,-461.101
 L 261.697,-460.945 L 261.917,-460.816 L 262.143,-460.712 L 262.376,-460.63 L 262.618,-460.57 L 262.869,-460.529
 L 263.132,-460.506 L 263.407,-460.498 L 263.545,-460.499 L 263.676,-460.5 L 263.799,-460.503 L 263.915,-460.51
 L 264.025,-460.521 L 264.127,-460.537 L 264.222,-460.559 L 264.311,-460.589 L 264.392,-460.627 L 264.466,-460.675
 L 264.533,-460.733 L 264.593,-460.803 L 264.646,-460.886 L 264.692,-460.982 L 264.73,-461.094 L 264.762,-461.221
 L 264.787,-461.365 L 264.804,-461.527 L 264.815,-461.708 L 264.819,-461.91 L 265.759,-464.261 L 265.759,-472.728
 L 264.819,-477.432 L 264.819,-484.958 L 265.759,-487.78 L 267.641,-492.013 L 267.842,-492.776 L 268.022,-493.513
 L 268.18,-494.229 L 268.318,-494.926 L 268.434,-495.607 L 268.53,-496.276 L 268.604,-496.936 L 268.657,-497.59
 L 268.688,-498.241 L 268.699,-498.892 L 268.688,-499.547 L 268.657,-500.209 L 268.604,-500.881 L 268.53,-501.565
 L 268.434,-502.266 L 268.318,-502.986 L 268.18,-503.729 L 268.022,-504.497 L 267.842,-505.295 L 267.641,-506.124
 L 265.759,-509.887 L 263.878,-513.18 L 263.585,-513.745 L 263.27,-514.311 L 262.933,-514.88 L 262.572,-515.453
 L 262.187,-516.032 L 261.778,-516.617 L 261.343,-517.212 L 260.882,-517.816 L 260.395,-518.431 L 259.88,-519.06
 L 259.336,-519.702 L 258.764,-520.36 L 258.162,-521.034 L 257.53,-521.728 L 256.866,-522.44 L 256.171,-523.174
 L 255.444,-523.931 L 254.683,-524.712 L 253.888,-525.518 L 253.059,-526.35 L 252.304,-527.113 L 251.588,-527.85
 L 250.91,-528.566 L 250.267,-529.263 L 249.656,-529.944 L 249.076,-530.613 L 248.522,-531.273 L 247.994,-531.927
 L 247.489,-532.578 L 247.003,-533.229 L 246.535,-533.884 L 246.083,-534.546 L 245.643,-535.218 L 245.213,-535.902
 L 244.791,-536.603 L 244.374,-537.323 L 243.96,-538.066 L 243.547,-538.834 L 243.131,-539.632 L 242.711,-540.461
 L 242.302,-541.36 L 241.919,-542.228 L 241.56,-543.078 L 241.225,-543.923 L 240.91,-544.776 L 240.616,-545.647
 L 240.338,-546.551 L 240.077,-547.498 L 239.83,-548.502 L 239.595,-549.575 L 239.371,-550.729 L 239.155,-551.976
 L 238.947,-553.329 L 238.744,-554.801 L 238.544,-556.403 L 238.346,-558.147 L 238.148,-560.047 L 237.949,-562.115
 L 237.745,-564.362 L 237.537,-566.802 L 237.332,-568.831 L 237.14,-570.689 L 236.959,-572.379 L 236.788,-573.907
 L 236.626,-575.276 L 236.47,-576.492 L 236.32,-577.559 L 236.175,-578.482 L 236.032,-579.266 L 235.891,-579.914
 L 235.749,-580.431 L 235.607,-580.823 L 235.461,-581.093 L 235.311,-581.247 L 235.156,-581.288 L 234.993,-581.222
 L 234.822,-581.053 L 234.641,-580.785 L 234.449,-580.423 L 234.244,-579.973 L 233.31,-578.142 L 232.449,-576.275
 L 231.662,-574.376 L 230.952,-572.447 L 230.606,-571.389 L 230.276,-570.333 L 229.962,-569.283 L 229.665,-568.24
 L 229.386,-567.206 L 229.127,-566.186 L 228.889,-565.179 L 228.671,-564.191 L 228.477,-563.222 L 228.306,-562.275
 L 228.16,-561.353 L 228.039,-560.458 L 227.946,-559.593 L 227.88,-558.759 L 227.843,-557.961 L 227.836,-557.199
 L 227.86,-556.477 L 227.917,-555.797 L 228.006,-555.161 L 228.13,-554.573 L 228.6,-551.75 L 228.519,-551.711
 L 228.419,-551.732 L 228.301,-551.809 L 228.167,-551.938 L 228.019,-552.118 L 227.859,-552.343 L 227.688,-552.611
 L 227.509,-552.917 L 227.322,-553.258 L 227.13,-553.632 L 226.935,-554.033 L 226.737,-554.46 L 226.54,-554.907
 L 226.345,-555.372 L 226.153,-555.851 L 225.966,-556.341 L 225.786,-556.838 L 225.615,-557.338 L 225.455,-557.839
 L 225.307,-558.335 L 225.092,-559.079 L 224.872,-559.891 L 224.647,-560.766 L 224.419,-561.696 L 224.19,-562.672
 L 223.961,-563.686 L 223.734,-564.732 L 223.509,-565.801 L 223.288,-566.886 L 223.073,-567.978 L 222.865,-569.07
 L 222.666,-570.155 L 222.476,-571.224 L 222.298,-572.27 L 222.132,-573.284 L 221.981,-574.26 L 221.845,-575.19
 L 221.726,-576.065 L 221.625,-576.878 L 221.544,-577.621 L 218.722,-592.673 L 218.652,-592.8 L 218.582,-592.898
 L 218.512,-592.969 L 218.444,-593.011 L 218.377,-593.025 L 218.312,-593.011 L 218.248,-592.969 L 218.188,-592.898
 L 218.13,-592.8 L 218.075,-592.673 L 218.024,-592.517 L 217.977,-592.334 L 217.934,-592.122 L 217.896,-591.882
 L 217.862,-591.614 L 217.834,-591.318 L 217.812,-590.993 L 217.795,-590.641 L 217.785,-590.26 L 217.781,-589.85
 L 216.841,-586.087 L 216.7,-585.714 L 216.559,-585.302 L 216.421,-584.854 L 216.284,-584.375 L 216.15,-583.868
 L 216.019,-583.336 L 215.893,-582.782 L 215.772,-582.212 L 215.656,-581.626 L 215.547,-581.031 L 215.445,-580.428
 L 215.351,-579.822 L 215.265,-579.216 L 215.188,-578.613 L 215.121,-578.018 L 215.065,-577.433 L 215.02,-576.862
 L 214.987,-576.308 L 214.966,-575.776 L 214.959,-575.269 L 214.97,-574.445 L 215,-573.536 L 215.048,-572.552
 L 215.114,-571.506 L 215.194,-570.411 L 215.289,-569.279 L 215.397,-568.122 L 215.516,-566.953 L 215.645,-565.784
 L 215.782,-564.627 L 215.927,-563.495 L 216.077,-562.4 L 216.231,-561.354 L 216.388,-560.37 L 216.547,-559.46
 L 216.705,-558.637 L 216.862,-557.912 L 217.017,-557.298 L 217.167,-556.808 L 217.311,-556.454 L 218.252,-553.161
 L 218.308,-552.632 L 218.336,-552.173 L 218.335,-551.784 L 218.305,-551.464 L 218.244,-551.214 L 218.154,-551.032
 L 218.034,-550.919 L 217.883,-550.874 L 217.701,-550.896 L 217.487,-550.986 L 217.242,-551.143 L 216.965,-551.367
 L 216.655,-551.656 L 216.312,-552.012 L 215.937,-552.434 L 215.527,-552.921 L 215.084,-553.472 L 214.607,-554.089
 L 214.095,-554.769 L 213.548,-555.513 L 213.111,-556.115 L 212.651,-556.787 L 212.17,-557.519 L 211.674,-558.305
 L 211.167,-559.137 L 210.653,-560.005 L 210.135,-560.902 L 209.62,-561.82 L 209.109,-562.751 L 208.609,-563.686
 L 208.123,-564.618 L 207.655,-565.538 L 207.21,-566.438 L 206.792,-567.311 L 206.404,-568.147 L 206.052,-568.94
 L 205.74,-569.68 L 205.471,-570.36 L 205.25,-570.971 L 205.081,-571.506 L 204.934,-571.929 L 204.773,-572.35
 L 204.601,-572.766 L 204.419,-573.177 L 204.229,-573.578 L 204.032,-573.97 L 203.829,-574.348 L 203.621,-574.712
 L 203.411,-575.059 L 203.2,-575.386 L 202.989,-575.693 L 202.779,-575.976 L 202.571,-576.234 L 202.368,-576.465
 L 202.171,-576.665 L 201.981,-576.834 L 201.799,-576.969 L 201.627,-577.068 L 201.466,-577.13 L 201.319,-577.15
 L 200.378,-576.68 L 200.378,-574.798 L 201.319,-571.976 L 202.259,-568.213 L 203.2,-562.098 L 203.301,-561.197
 L 203.462,-560.196 L 203.675,-559.108 L 203.938,-557.944 L 204.244,-556.719 L 204.589,-555.444 L 204.967,-554.132
 L 205.375,-552.796 L 205.807,-551.45 L 206.257,-550.104 L 206.722,-548.773 L 207.196,-547.468 L 207.675,-546.203
 L 208.152,-544.99 L 208.624,-543.842 L 209.085,-542.772 L 209.531,-541.792 L 209.956,-540.915 L 210.356,-540.154
 L 210.726,-539.521 L 211.025,-539.091 L 211.356,-538.65 L 211.714,-538.201 L 212.096,-537.748 L 212.497,-537.294
 L 212.915,-536.841 L 213.344,-536.393 L 213.781,-535.953 L 214.223,-535.525 L 214.665,-535.111 L 215.104,-534.715
 L 215.535,-534.339 L 215.955,-533.988 L 216.36,-533.663 L 216.745,-533.369 L 217.108,-533.109 L 217.444,-532.885
 L 217.749,-532.701 L 218.02,-532.56 L 218.252,-532.465 L 218.326,-532.395 L 218.406,-532.324 L 218.49,-532.252
 L 218.579,-532.179 L 218.671,-532.105 L 218.764,-532.029 L 218.858,-531.951 L 218.952,-531.871 L 219.044,-531.787
 L 219.134,-531.701 L 219.22,-531.611 L 219.302,-531.517 L 219.378,-531.419 L 219.447,-531.316 L 219.509,-531.208
 L 219.561,-531.095 L 219.604,-530.977 L 219.636,-530.852 L 219.656,-530.721 L 219.663,-530.584 L 222.485,-528.232
 L 222.82,-528.024 L 223.12,-527.823 L 223.383,-527.629 L 223.61,-527.442 L 223.801,-527.262 L 223.954,-527.089
 L 224.07,-526.923 L 224.148,-526.764 L 224.189,-526.613 L 224.19,-526.468 L 224.153,-526.33 L 224.077,-526.2
 L 223.961,-526.076 L 223.806,-525.96 L 223.61,-525.851 L 223.373,-525.748 L 223.096,-525.653 L 222.777,-525.565
 L 222.417,-525.484 L 222.015,-525.41 L 221.263,-525.339 L 220.557,-525.267 L 219.894,-525.193 L 219.272,-525.116
 L 218.685,-525.035 L 218.133,-524.948 L 217.611,-524.855 L 217.115,-524.755 L 216.644,-524.646 L 216.194,-524.528
 L 215.761,-524.399 L 215.343,-524.258 L 214.936,-524.105 L 214.537,-523.938 L 214.143,-523.756 L 213.751,-523.558
 L 213.358,-523.344 L 212.96,-523.111 L 212.554,-522.859 L 212.137,-522.587 L 211.452,-522.096 L 210.807,-521.609
 L 210.198,-521.122 L 209.623,-520.631 L 209.08,-520.133 L 208.564,-519.624 L 208.074,-519.101 L 207.606,-518.561
 L 207.159,-517.999 L 206.728,-517.413 L 206.311,-516.799 L 205.906,-516.153 L 205.509,-515.471 L 205.117,-514.751
 L 204.729,-513.988 L 204.34,-513.18 L 203.949,-512.322 L 203.552,-511.411 L 203.146,-510.444 L 202.73,-509.417
 L 200.931,-505.338 L 199.64,-501.071 L 198.876,-496.679 L 198.651,-492.227 L 198.967,-487.78 L 198.967,-485.898
 L 198.876,-486.031 L 198.747,-486.279 L 198.584,-486.632 L 198.391,-487.08 L 198.173,-487.611 L 197.934,-488.214
 L 197.678,-488.879 L 197.409,-489.594 L 197.132,-490.348 L 196.85,-491.131 L 196.568,-491.932 L 196.291,-492.74
 L 196.022,-493.543 L 195.766,-494.331 L 195.527,-495.093 L 195.309,-495.818 L 195.116,-496.495 L 194.953,-497.113
 L 194.824,-497.661 L 194.733,-498.128 L 194.582,-498.502 L 194.41,-498.914 L 194.218,-499.363 L 194.007,-499.844
 L 193.778,-500.355 L 193.531,-500.892 L 193.267,-501.453 L 192.987,-502.034 L 192.692,-502.632 L 192.381,-503.243
 L 192.057,-503.865 L 191.719,-504.495 L 191.369,-505.129 L 191.006,-505.764 L 190.632,-506.396 L 190.248,-507.024
 L 189.854,-507.643 L 189.45,-508.25 L 189.038,-508.842 L 188.619,-509.417 L 188.347,-509.89 L 188.096,-510.323
 L 187.866,-510.719 L 187.655,-511.08 L 187.465,-511.409 L 187.293,-511.707 L 187.141,-511.978 L 187.008,-512.224
 L 186.893,-512.448 L 186.796,-512.651 L 186.716,-512.836 L 186.654,-513.007 L 186.609,-513.165 L 186.58,-513.312
 L 186.568,-513.452 L 186.571,-513.586 L 186.59,-513.718 L 186.625,-513.849 L 186.674,-513.983 L 186.737,-514.121
 L 188.148,-515.061 L 195.674,-518.824 L 204.141,-523.528 L 208.844,-526.821 L 209.113,-527.022 L 209.354,-527.205
 L 209.57,-527.372 L 209.763,-527.524 L 209.932,-527.666 L 210.081,-527.799 L 210.209,-527.925 L 210.32,-528.047
 L 210.413,-528.168 L 210.491,-528.291 L 210.554,-528.416 L 210.605,-528.548 L 210.645,-528.688 L 210.675,-528.839
 L 210.697,-529.003 L 210.711,-529.184 L 210.72,-529.383 L 210.724,-529.602 L 210.726,-529.845 L 210.726,-530.113
 L 210.726,-531.995 L 205.081,-532.465 L 204.396,-532.469 L 203.747,-532.481 L 203.127,-532.502 L 202.53,-532.533
 L 201.951,-532.575 L 201.382,-532.63 L 200.817,-532.698 L 200.25,-532.781 L 199.674,-532.879 L 199.084,-532.994
 L 198.473,-533.127 L 197.834,-533.278 L 197.161,-533.449 L 196.448,-533.641 L 195.689,-533.854 L 194.876,-534.091
 L 194.005,-534.351 L 193.067,-534.637 L 192.058,-534.949 L 190.97,-535.287 L 189.279,-535.761 L 187.725,-536.196
 L 186.298,-536.598 L 184.987,-536.969 L 183.783,-537.316 L 182.673,-537.641 L 181.648,-537.949 L 180.697,-538.245
 L 179.81,-538.532 L 178.976,-538.815 L 178.184,-539.098 L 177.424,-539.385 L 176.685,-539.681 L 175.956,-539.989
 L 175.228,-540.314 L 174.489,-540.661 L 173.728,-541.033 L 172.936,-541.434 L 172.102,-541.869 L 171.215,-542.343
 L 170.141,-542.88 L 169.169,-543.369 L 168.289,-543.816 L 167.489,-544.228 L 166.761,-544.614 L 166.092,-544.98
 L 165.473,-545.335 L 164.893,-545.684 L 164.341,-546.037 L 163.806,-546.4 L 163.279,-546.78 L 162.748,-547.186
 L 162.203,-547.624 L 161.633,-548.102 L 161.028,-548.627 L 160.377,-549.207 L 159.67,-549.848 L 158.896,-550.56
 L 158.044,-551.348 L 157.104,-552.221 L 155.822,-553.369 L 154.652,-554.422 L 153.585,-555.39 L 152.614,-556.285
 L 151.731,-557.115 L 150.927,-557.893 L 150.195,-558.629 L 149.525,-559.333 L 148.911,-560.015 L 148.343,-560.687
 L 147.814,-561.359 L 147.316,-562.042 L 146.841,-562.746 L 146.38,-563.481 L 145.925,-564.259 L 145.469,-565.09
 L 145.002,-565.984 L 144.518,-566.953 L 144.008,-568.006 L 143.463,-569.154 L 143.121,-569.843 L 142.798,-570.5
 L 142.494,-571.129 L 142.206,-571.735 L 141.934,-572.322 L 141.676,-572.892 L 141.431,-573.45 L 141.198,-574.001
 L 140.974,-574.547 L 140.758,-575.092 L 140.55,-575.642 L 140.347,-576.198 L 140.149,-576.766 L 139.953,-577.349
 L 139.759,-577.951 L 139.565,-578.576 L 139.369,-579.228 L 139.17,-579.911 L 138.968,-580.628 L 138.759,-581.384
 L 138.424,-582.75 L 138.122,-584.033 L 137.853,-585.241 L 137.615,-586.381 L 137.407,-587.462 L 137.227,-588.491
 L 137.073,-589.478 L 136.946,-590.43 L 136.842,-591.355 L 136.76,-592.261 L 136.7,-593.157 L 136.66,-594.05
 L 136.637,-594.949 L 136.632,-595.861 L 136.643,-596.796 L 136.667,-597.76 L 136.704,-598.763 L 136.753,-599.811
 L 136.811,-600.914 L 136.878,-602.08 L 138.176,-611.019 L 140.51,-619.745 L 143.848,-628.138 L 148.145,-636.084
 L 153.341,-643.473 L 157.104,-648.647 L 157.174,-648.96 L 157.244,-649.33 L 157.312,-649.75 L 157.378,-650.216
 L 157.442,-650.719 L 157.502,-651.254 L 157.557,-651.815 L 157.608,-652.395 L 157.653,-652.987 L 157.692,-653.585
 L 157.723,-654.184 L 157.747,-654.776 L 157.763,-655.356 L 157.769,-655.917 L 157.765,-656.452 L 157.751,-656.955
 L 157.725,-657.421 L 157.688,-657.841 L 157.638,-658.211 L 157.574,-658.524 L 157.5,-658.722 L 157.417,-658.892
 L 157.324,-659.036 L 157.22,-659.153 L 157.104,-659.245 L 156.973,-659.312 L 156.827,-659.355 L 156.663,-659.375
 L 156.482,-659.372 L 156.281,-659.348 L 156.058,-659.302 L 155.813,-659.236 L 155.544,-659.15 L 155.249,-659.045
 L 154.928,-658.921 L 154.579,-658.78 L 154.2,-658.622 L 153.789,-658.448 L 153.347,-658.259 L 152.87,-658.054
 L 147.696,-656.173 L 147.33,-656.155 L 146.938,-656.104 L 146.522,-656.022 L 146.086,-655.909 L 145.631,-655.768
 L 145.161,-655.601 L 144.677,-655.409 L 144.182,-655.194 L 143.678,-654.958 L 143.169,-654.703 L 142.656,-654.43
 L 142.142,-654.141 L 141.63,-653.837 L 141.121,-653.522 L 140.619,-653.196 L 140.125,-652.861 L 139.643,-652.519
 L 139.175,-652.172 L 138.722,-651.821 L 138.289,-651.469 L 133.872,-648.174 L 129.719,-644.553 L 125.853,-640.626
 L 122.296,-636.417 L 122.152,-636.142 L 122.001,-635.881 L 121.844,-635.635 L 121.683,-635.405 L 121.517,-635.19
 L 121.348,-634.99 L 121.176,-634.807 L 121.002,-634.641 L 120.826,-634.491 L 120.65,-634.359 L 120.474,-634.245
 L 120.298,-634.148 L 120.124,-634.07 L 119.952,-634.01 L 119.783,-633.97 L 119.617,-633.948 L 119.456,-633.947
 L 119.299,-633.966 L 119.148,-634.005 L 119.004,-634.065 L 119.694,-636.628 L 120.316,-639.208 L 120.87,-641.804
 L 121.356,-644.413 L 121.722,-645.767 L 122.115,-647.145 L 122.533,-648.541 L 122.974,-649.952 L 123.435,-651.373
 L 123.917,-652.8 L 124.416,-654.226 L 124.93,-655.649 L 125.459,-657.064 L 126,-658.466 L 126.552,-659.849
 L 127.113,-661.211 L 127.681,-662.546 L 128.254,-663.849 L 128.83,-665.117 L 129.408,-666.344 L 129.987,-667.526
 L 130.563,-668.658 L 131.136,-669.735 L 131.704,-670.754 L 135.822,-677.3 L 140.342,-683.575 L 145.248,-689.554
 L 150.519,-695.213 L 151.133,-695.902 L 151.706,-696.559 L 152.239,-697.19 L 152.735,-697.798 L 153.194,-698.388
 L 153.617,-698.964 L 154.007,-699.53 L 154.364,-700.09 L 154.69,-700.649 L 154.987,-701.21 L 155.255,-701.779
 L 155.497,-702.359 L 155.713,-702.955 L 155.905,-703.57 L 156.075,-704.209 L 156.223,-704.877 L 156.352,-705.576
 L 156.462,-706.313 L 156.555,-707.091 L 156.633,-707.913 L 156.163,-713.558 L 156.019,-713.695 L 155.868,-713.825
 L 155.714,-713.946 L 155.557,-714.058 L 155.399,-714.16 L 155.24,-714.252 L 155.083,-714.332 L 154.929,-714.401
 L 154.779,-714.456 L 154.634,-714.498 L 154.497,-714.527 L 154.368,-714.54 L 154.249,-714.538 L 154.141,-714.519
 L 154.046,-714.484 L 153.965,-714.431 L 153.9,-714.359 L 153.852,-714.269 L 153.821,-714.159 L 153.811,-714.028
 L 152.4,-713.087 L 152.107,-713.003 L 151.795,-712.891 L 151.464,-712.753 L 151.117,-712.591 L 150.754,-712.404
 L 150.376,-712.194 L 149.987,-711.963 L 149.585,-711.71 L 149.174,-711.438 L 148.755,-711.147 L 148.328,-710.839
 L 147.896,-710.513 L 147.459,-710.173 L 147.02,-709.818 L 146.579,-709.449 L 146.138,-709.069 L 145.699,-708.676
 L 145.263,-708.274 L 144.83,-707.863 L 144.404,-707.443 L 141.581,-705.091 L 141.413,-705.064 L 141.193,-704.984
 L 140.928,-704.856 L 140.622,-704.685 L 140.281,-704.474 L 139.909,-704.227 L 139.513,-703.95 L 139.098,-703.646
 L 138.668,-703.319 L 138.23,-702.974 L 137.788,-702.615 L 137.348,-702.246 L 136.915,-701.872 L 136.494,-701.496
 L 136.091,-701.122 L 135.711,-700.756 L 135.359,-700.401 L 135.041,-700.062 L 134.761,-699.742 L 134.526,-699.447
 L 130.763,-695.684 L 126.059,-690.51 L 125.7,-690.09 L 125.327,-689.678 L 124.942,-689.275 L 124.547,-688.88
 L 124.141,-688.496 L 123.727,-688.122 L 123.305,-687.759 L 122.876,-687.409 L 122.441,-687.071 L 122.002,-686.747
 L 121.56,-686.436 L 121.115,-686.141 L 120.668,-685.861 L 120.221,-685.597 L 119.775,-685.35 L 119.331,-685.121
 L 118.89,-684.91 L 118.452,-684.718 L 118.019,-684.546 L 117.593,-684.395 L 117.25,-684.324 L 116.926,-684.251
 L 116.618,-684.174 L 116.324,-684.09 L 116.042,-683.998 L 115.768,-683.895 L 115.501,-683.78 L 115.237,-683.65
 L 114.975,-683.503 L 114.712,-683.336 L 114.445,-683.149 L 114.172,-682.938 L 113.891,-682.702 L 113.599,-682.439
 L 113.293,-682.146 L 112.972,-681.821 L 112.632,-681.462 L 112.271,-681.067 L 111.887,-680.635 L 111.478,-680.161
 L 107.244,-674.517 L 105.363,-671.224 L 102.541,-667.461 L 100.559,-664.004 L 98.4046,-660.651 L 96.0844,-657.41
 L 93.6037,-654.291 L 93.3954,-654.072 L 93.1931,-653.836 L 92.9957,-653.581 L 92.8022,-653.305 L 92.6115,-653.005
 L 92.4226,-652.678 L 92.2344,-652.322 L 92.0458,-651.935 L 91.8559,-651.515 L 91.6634,-651.057 L 91.4675,-650.561
 L 91.2669,-650.024 L 91.0607,-649.443 L 90.8478,-648.815 L 90.6271,-648.139 L 90.3976,-647.412 L 90.1583,-646.632
 L 89.908,-645.795 L 89.6457,-644.899 L 89.3704,-643.943 L 88.9644,-642.586 L 88.5924,-641.33 L 88.2528,-640.164
 L 87.9442,-639.074 L 87.6653,-638.049 L 87.4146,-637.076 L 87.1907,-636.145 L 86.9922,-635.243 L 86.8177,-634.358
 L 86.6657,-633.477 L 86.535,-632.59 L 86.424,-631.683 L 86.3313,-630.746 L 86.2556,-629.765 L 86.1954,-628.729
 L 86.1493,-627.627 L 86.1159,-626.445 L 86.0938,-625.172 L 86.0815,-623.797 L 86.0778,-622.306 L 86.0779,-621.275
 L 86.0787,-620.298 L 86.0809,-619.371 L 86.0853,-618.49 L 86.0925,-617.654 L 86.1032,-616.858 L 86.1181,-616.099
 L 86.138,-615.374 L 86.1635,-614.681 L 86.1954,-614.016 L 86.2343,-613.375 L 86.281,-612.755 L 86.3361,-612.155
 L 86.4005,-611.569 L 86.4746,-610.995 L 86.5594,-610.43 L 86.6555,-609.871 L 86.7636,-609.314 L 86.8843,-608.756
 L 87.0185,-608.195 L 87.2977,-606.68 L 87.5726,-605.234 L 87.8461,-603.848 L 88.1211,-602.513 L 88.4002,-601.22
 L 88.6864,-599.961 L 88.9825,-598.727 L 89.2913,-597.508 L 89.6157,-596.296 L 89.9583,-595.083 L 90.3222,-593.859
 L 90.71,-592.616 L 91.1246,-591.345 L 91.5689,-590.036 L 92.0456,-588.682 L 92.5576,-587.273 L 93.1077,-585.8
 L 93.6987,-584.255 L 94.3335,-582.629 L 95.0148,-580.913 L 95.1799,-580.389 L 95.3902,-579.808 L 95.6413,-579.178
 L 95.9292,-578.505 L 96.2495,-577.797 L 96.5981,-577.061 L 96.9706,-576.304 L 97.3629,-575.532 L 97.7707,-574.754
 L 98.1898,-573.975 L 98.616,-573.204 L 99.0449,-572.447 L 99.4725,-571.71 L 99.8944,-571.003 L 100.306,-570.33
 L 100.704,-569.7 L 101.084,-569.119 L 101.441,-568.594 L 101.771,-568.133 L 102.07,-567.743 L 102.419,-567.313
 L 102.76,-566.872 L 103.092,-566.424 L 103.414,-565.971 L 103.724,-565.516 L 104.022,-565.063 L 104.306,-564.615
 L 104.576,-564.176 L 104.831,-563.747 L 105.069,-563.333 L 105.289,-562.937 L 105.491,-562.561 L 105.673,-562.21
 L 105.834,-561.885 L 105.973,-561.591 L 106.089,-561.331 L 106.181,-561.107 L 106.249,-560.923 L 106.29,-560.782
 L 106.304,-560.687 L 101.392,-565.336 L 96.765,-570.269 L 92.4391,-575.467 L 88.4296,-580.913 L 84.2082,-587.765
 L 80.6134,-594.964 L 77.6738,-602.456 L 75.4127,-610.179 L 73.8481,-618.073 L 73.379,-621.025 L 72.9591,-623.955
 L 72.5887,-626.863 L 72.2677,-629.745 L 71.9961,-632.603 L 71.7738,-635.433 L 71.601,-638.237 L 71.4775,-641.012
 L 71.4034,-643.757 L 71.3787,-646.471 L 71.4034,-649.154 L 71.4775,-651.804 L 71.601,-654.42 L 71.7738,-657.001
 L 71.9961,-659.546 L 72.2677,-662.054 L 72.5887,-664.524 L 72.9591,-666.955 L 73.379,-669.345 L 73.8481,-671.695
 L 74.3185,-675.458 L 72.9074,-679.691 L 70.5555,-683.924 L 70.3802,-683.832 L 70.1407,-683.564 L 69.8433,-683.135
 L 69.4944,-682.562 L 69.1003,-681.859 L 68.6675,-681.041 L 68.2022,-680.124 L 67.7108,-679.123 L 67.1996,-678.052
 L 66.675,-676.928 L 66.1434,-675.764 L 65.611,-674.577 L 65.0843,-673.382 L 64.5696,-672.193 L 64.0733,-671.026
 L 63.6016,-669.896 L 63.161,-668.818 L 62.7578,-667.808 L 62.3983,-666.88 L 62.0889,-666.05 L 60.2074,-660.876
 L 60.0732,-660.665 L 59.9525,-660.453 L 59.8444,-660.241 L 59.7483,-660.03 L 59.6635,-659.818 L 59.5893,-659.606
 L 59.525,-659.395 L 59.4699,-659.183 L 59.4232,-658.971 L 59.3842,-658.76 L 59.3524,-658.548 L 59.3269,-658.336
 L 59.307,-658.125 L 59.2921,-657.913 L 59.2814,-657.701 L 59.2742,-657.49 L 59.2698,-657.278 L 59.2676,-657.066
 L 59.2668,-656.855 L 59.2667,-656.643 L 59.3233,-656.369 L 59.3532,-655.979 L 59.3577,-655.482 L 59.3382,-654.889
 L 59.2961,-654.21 L 59.2328,-653.455 L 59.1498,-652.635 L 59.0484,-651.759 L 58.9301,-650.837 L 58.7963,-649.881
 L 58.6484,-648.901 L 58.4877,-647.905 L 58.3158,-646.906 L 58.134,-645.912 L 57.9437,-644.935 L 57.7464,-643.984
 L 57.5435,-643.07 L 57.3363,-642.203 L 57.1262,-641.393 L 56.9148,-640.65 L 56.9148,-636.887 L 56.9784,-636.521
 L 57.0282,-636.13 L 57.0646,-635.718 L 57.0879,-635.288 L 57.0985,-634.844 L 57.0968,-634.39 L 57.0831,-633.928
 L 57.0578,-633.463 L 57.0212,-632.998 L 56.9736,-632.536 L 56.9155,-632.082 L 56.8471,-631.638 L 56.7688,-631.208
 L 56.681,-630.796 L 56.5841,-630.405 L 56.4783,-630.039 L 56.3641,-629.701 L 56.2417,-629.394 L 56.1116,-629.123
 L 55.9741,-628.891 L 54.0926,-628.421 L 53.8104,-628.407 L 53.5286,-628.365 L 53.2475,-628.295 L 52.9675,-628.199
 L 52.6888,-628.075 L 52.412,-627.925 L 52.1372,-627.749 L 51.8649,-627.548 L 51.5954,-627.321 L 51.3292,-627.068
 L 51.0664,-626.792 L 50.8075,-626.49 L 50.5529,-626.165 L 50.3028,-625.816 L 50.0577,-625.444 L 49.8179,-625.049
 L 49.5837,-624.631 L 49.3555,-624.192 L 49.1337,-623.73 L 48.9185,-623.247 L 48.7843,-622.974 L 48.6636,-622.715
 L 48.5555,-622.463 L 48.4594,-622.212 L 48.3746,-621.953 L 48.3004,-621.68 L 48.2361,-621.386 L 48.181,-621.064
 L 48.1343,-620.707 L 48.0954,-620.307 L 48.0635,-619.858 L 48.038,-619.352 L 48.0181,-618.783 L 48.0032,-618.143
 L 47.9925,-617.426 L 47.9853,-616.624 L 47.9809,-615.73 L 47.9787,-614.738 L 47.9779,-613.639 L 47.9778,-612.428
 L 48.139,-605.529 L 48.7885,-598.658 L 49.9231,-591.85 L 51.537,-585.14 L 53.6222,-578.561 L 55.8862,-572.142
 L 58.6107,-565.903 L 61.7814,-559.88 L 65.3815,-554.102 L 68.3002,-550.342 L 71.3127,-546.657 L 74.417,-543.049
 L 77.6111,-539.521 L 70.5555,-544.224 L 64.4407,-547.987 L 54.0926,-555.984 L 53.4507,-556.435 L 52.7958,-556.941
 L 52.1288,-557.501 L 51.451,-558.113 L 50.7632,-558.776 L 50.0667,-559.489 L 49.3624,-560.249 L 48.6513,-561.056
 L 47.9347,-561.908 L 47.2134,-562.804 L 46.4886,-563.742 L 45.7614,-564.721 L 45.0327,-565.74 L 44.3037,-566.797
 L 43.5754,-567.89 L 42.8488,-569.019 L 42.1251,-570.181 L 41.4053,-571.376 L 40.6904,-572.602 L 39.9815,-573.858
 L 37.7883,-578.023 L 35.876,-582.325 L 34.2528,-586.744 L 32.9259,-591.261 L 32.5202,-592.784 L 32.1493,-594.258
 L 31.8131,-595.697 L 31.511,-597.117 L 31.2429,-598.53 L 31.0082,-599.952 L 30.8067,-601.398 L 30.638,-602.881
 L 30.5018,-604.417 L 30.3977,-606.019 L 30.3253,-607.703 L 30.2843,-609.482 L 30.2744,-611.371 L 30.2951,-613.384
 L 30.3462,-615.537 L 30.4273,-617.843 L 30.538,-620.317 L 30.678,-622.973 L 30.8469,-625.827 L 31.0444,-628.891
 L 31.0443,-629.636 L 31.0435,-630.322 L 31.0413,-630.954 L 31.0369,-631.536 L 31.0297,-632.073 L 31.019,-632.57
 L 31.0041,-633.03 L 30.9842,-633.459 L 30.9587,-633.862 L 30.9268,-634.242 L 30.8879,-634.604 L 30.8412,-634.953
 L 30.7861,-635.294 L 30.7218,-635.631 L 30.6476,-635.969 L 30.5628,-636.312 L 30.4667,-636.664 L 30.3586,-637.032
 L 30.2379,-637.418 L 30.1037,-637.828 L 28.6926,-641.121 L 22.1074,-626.069 L 19.7556,-621.365 L 19.7487,-621.224
 L 19.7287,-621.084 L 19.6968,-620.945 L 19.6539,-620.808 L 19.6012,-620.674 L 19.5396,-620.544 L 19.4703,-620.418
 L 19.3943,-620.296 L 19.3126,-620.181 L 19.2264,-620.072 L 19.1366,-619.969 L 19.0443,-619.875 L 18.9507,-619.789
 L 18.8567,-619.712 L 18.7634,-619.645 L 18.6718,-619.589 L 18.5831,-619.544 L 18.4982,-619.511 L 18.4184,-619.491
 L 18.3444,-619.484 L 18.2067,-619.409 L 18.0754,-619.327 L 17.9497,-619.237 L 17.8289,-619.137 L 17.7124,-619.028
 L 17.5994,-618.908 L 17.4892,-618.777 L 17.3811,-618.633 L 17.2745,-618.477 L 17.1685,-618.308 L 17.0626,-618.124
 L 16.9559,-617.926 L 16.8478,-617.712 L 16.7377,-617.482 L 16.6246,-617.235 L 16.5081,-616.97 L 16.3873,-616.687
 L 16.2616,-616.385 L 16.1303,-616.063 L 15.9926,-615.721 L 13.8147,-607.904 L 12.5741,-599.885 L 12.2879,-591.776
 L 12.9601,-583.69 L 14.5815,-575.739 L 14.8135,-575.127 L 15.0834,-574.429 L 15.3863,-573.655 L 15.7179,-572.819
 L 16.0734,-571.932 L 16.4484,-571.006 L 16.8381,-570.054 L 17.2381,-569.086 L 17.6438,-568.116 L 18.0505,-567.155
 L 18.4536,-566.215 L 18.8487,-565.308 L 19.231,-564.447 L 19.5961,-563.642 L 19.9393,-562.907 L 20.256,-562.253
 L 20.5417,-561.692 L 20.7918,-561.236 L 21.0016,-560.897 L 21.1667,-560.687 L 23.7986,-556.247 L 26.6402,-551.939
 L 29.685,-547.771 L 32.9259,-543.754 L 38.9471,-539.08 L 45.2824,-534.842 L 51.9004,-531.06 L 58.7682,-527.754
 L 65.8518,-524.939 L 79.0222,-519.295 L 86.5481,-516.002 L 86.6823,-515.935 L 86.8026,-515.874 L 86.9096,-515.819
 L 87.0035,-515.769 L 87.0847,-515.723 L 87.1535,-515.68 L 87.2104,-515.641 L 87.2556,-515.603 L 87.2895,-515.567
 L 87.3125,-515.532 L 87.3249,-515.496 L 87.3271,-515.46 L 87.3194,-515.423 L 87.3021,-515.383 L 87.2757,-515.341
 L 87.2405,-515.295 L 87.1968,-515.245 L 87.145,-515.189 L 87.0855,-515.129 L 87.0185,-515.061 L 83.2556,-515.532
 L 72.1191,-516.978 L 61.1254,-519.27 L 50.3382,-522.392 L 39.8205,-526.328 L 29.6333,-531.054 L 27.2815,-532.465
 L 24.4593,-534.347 L 23.9889,-534.817 L 23.5185,-534.817 L 23.2469,-535.004 L 22.9964,-535.144 L 22.7671,-535.239
 L 22.559,-535.291 L 22.372,-535.302 L 22.2062,-535.274 L 22.0615,-535.21 L 21.9381,-535.11 L 21.8358,-534.979
 L 21.7546,-534.817 L 21.6947,-534.627 L 21.6558,-534.411 L 21.6382,-534.17 L 21.6417,-533.908 L 21.6664,-533.626
 L 21.7123,-533.327 L 21.7793,-533.012 L 21.8675,-532.683 L 21.9769,-532.344 L 22.1074,-531.995 L 24.4593,-528.232
 L 29.6315,-520.602 L 35.208,-513.263 L 41.1724,-506.235 L 47.5074,-499.539 L 48.5124,-498.552 L 49.5502,-497.566
 L 50.6184,-496.584 L 51.7144,-495.607 L 52.8358,-494.637 L 53.9802,-493.676 L 55.145,-492.726 L 56.3278,-491.788
 L 57.5261,-490.864 L 58.7375,-489.955 L 59.9595,-489.065 L 61.1895,-488.194 L 62.4253,-487.344 L 63.6642,-486.517
 L 64.9037,-485.715 L 66.1416,-484.939 L 67.3752,-484.191 L 68.6021,-483.474 L 69.8198,-482.788 L 71.0259,-482.135
 L 78.9067,-478.714 L 87.0421,-475.952 L 95.3769,-473.869 L 103.855,-472.477 L 112.419,-471.787 L 124.178,-470.847
 L 124.977,-470.769 L 125.818,-470.679 L 126.692,-470.576 L 127.591,-470.463 L 128.507,-470.339 L 129.431,-470.207
 L 130.357,-470.068 L 131.275,-469.921 L 132.177,-469.769 L 133.056,-469.612 L 133.903,-469.452 L 134.71,-469.289
 L 135.47,-469.125 L 136.173,-468.96 L 136.812,-468.796 L 137.378,-468.634 L 137.864,-468.475 L 138.262,-468.319
 L 138.563,-468.169 L 138.759,-468.024 L 138.893,-467.957 L 139.013,-467.896 L 139.117,-467.841 L 139.207,-467.791
 L 139.281,-467.745 L 139.339,-467.703 L 139.381,-467.663 L 139.406,-467.626 L 139.415,-467.589 L 139.406,-467.554
 L 139.38,-467.519 L 139.335,-467.483 L 139.272,-467.445 L 139.191,-467.405 L 139.09,-467.363 L 138.97,-467.317
 L 138.83,-467.267 L 138.67,-467.212 L 138.49,-467.151 L 138.289,-467.084 L 133.809,-465.797 L 129.407,-464.268
 L 125.094,-462.5 L 120.885,-460.498 L 112.419,-456.736 L 111.81,-456.598 L 111.119,-456.468 L 110.357,-456.347
 L 109.532,-456.235 L 108.656,-456.133 L 107.736,-456.041 L 106.785,-455.961 L 105.811,-455.893 L 104.824,-455.837
 L 103.834,-455.795 L 102.852,-455.767 L 101.886,-455.753 L 100.947,-455.756 L 100.045,-455.774 L 99.1893,-455.809
 L 98.3902,-455.862 L 97.6573,-455.934 L 97.0007,-456.024 L 96.4301,-456.134 L 95.9556,-456.265 L 94.9512,-456.501
 L 93.9184,-456.782 L 92.8636,-457.105 L 91.7937,-457.466 L 90.7153,-457.86 L 89.6352,-458.284 L 88.56,-458.735
 L 87.4964,-459.208 L 86.4512,-459.699 L 85.431,-460.204 L 84.4426,-460.721 L 83.4926,-461.244 L 82.5878,-461.769
 L 81.7348,-462.294 L 80.9404,-462.814 L 80.2113,-463.324 L 79.5541,-463.823 L 78.9756,-464.304 L 78.4825,-464.765
 L 78.0815,-465.202 L 73.3778,-468.965 L 67.263,-474.61 L 66.9207,-475.012 L 66.5993,-475.372 L 66.2983,-475.691
 L 66.0174,-475.968 L 65.7563,-476.204 L 65.5146,-476.4 L 65.2919,-476.556 L 65.088,-476.672 L 64.9023,-476.748
 L 64.7347,-476.785 L 64.5847,-476.783 L 64.452,-476.743 L 64.3363,-476.665 L 64.2371,-476.549 L 64.1541,-476.396
 L 64.087,-476.205 L 64.0354,-475.978 L 63.9991,-475.714 L 63.9775,-475.415 L 63.9704,-475.08 L 64.0651,-474.612
 L 64.2065,-474.059 L 64.3916,-473.429 L 64.6176,-472.728 L 64.8817,-471.964 L 65.1811,-471.143 L 65.5129,-470.273
 L 65.8744,-469.36 L 66.2627,-468.412 L 66.675,-467.436 L 67.1084,-466.439 L 67.5602,-465.428 L 68.0275,-464.41
 L 68.5076,-463.391 L 68.9975,-462.38 L 69.4944,-461.383 L 69.9956,-460.407 L 70.4982,-459.459 L 70.9993,-458.546
 L 71.4963,-457.676 L 79.0222,-445.447 L 79.3285,-444.943 L 79.6807,-444.42 L 80.0753,-443.881 L 80.5086,-443.328
 L 80.9772,-442.764 L 81.4776,-442.191 L 82.0061,-441.612 L 82.5594,-441.029 L 83.1338,-440.444 L 83.7259,-439.861
 L 84.3321,-439.281 L 84.9489,-438.707 L 85.5727,-438.142 L 86.2001,-437.587 L 86.8274,-437.046 L 87.4512,-436.521
 L 88.068,-436.014 L 88.6742,-435.528 L 89.2663,-435.065 L 89.8407,-434.628 L 94.5444,-431.335 L 102.541,-426.632
 L 103.488,-426.357 L 104.49,-426.097 L 105.538,-425.852 L 106.624,-425.623 L 107.737,-425.412 L 108.87,-425.218
 L 110.013,-425.042 L 111.158,-424.886 L 112.296,-424.749 L 113.418,-424.633 L 114.515,-424.538 L 115.579,-424.464
 L 116.601,-424.414 L 117.571,-424.386 L 118.482,-424.383 L 119.324,-424.404 L 120.088,-424.451 L 120.765,-424.524
 L 121.348,-424.623 L 121.826,-424.75 L 122.101,-424.828 L 122.363,-424.921 L 122.612,-425.03 L 122.849,-425.157
 L 123.075,-425.302 L 123.291,-425.466 L 123.496,-425.65 L 123.692,-425.857 L 123.88,-426.085 L 124.06,-426.338
 L 124.233,-426.615 L 124.4,-426.918 L 124.561,-427.247 L 124.717,-427.605 L 124.869,-427.991 L 125.017,-428.408
 L 125.162,-428.855 L 125.306,-429.335 L 125.448,-429.848 L 125.589,-430.395 L 125.889,-431.556 L 126.228,-432.64
 L 126.609,-433.65 L 127.034,-434.587 L 127.507,-435.451 L 128.032,-436.245 L 128.61,-436.97 L 129.246,-437.627
 L 129.943,-438.218 L 130.704,-438.744 L 131.532,-439.206 L 132.43,-439.606 L 133.401,-439.946 L 134.449,-440.226
 L 135.577,-440.449 L 136.787,-440.615 L 138.084,-440.726 L 139.47,-440.783 L 140.948,-440.789 L 142.522,-440.743
 L 143.803,-440.669 L 144.964,-440.587 L 146.006,-440.498 L 146.929,-440.4 L 147.733,-440.295 L 148.419,-440.18
 L 148.988,-440.056 L 149.439,-439.923 L 149.772,-439.779 L 149.989,-439.626 L 150.09,-439.462 L 150.074,-439.287
 L 149.943,-439.1 L 149.697,-438.902 L 149.335,-438.692 L 148.859,-438.47 L 148.269,-438.235 L 147.564,-437.987
 L 146.746,-437.726 L 145.815,-437.45 L 140.641,-435.098 L 140.348,-434.936 L 140.035,-434.733 L 139.704,-434.491
 L 139.354,-434.21 L 138.987,-433.893 L 138.604,-433.541 L 138.207,-433.154 L 137.796,-432.735 L 137.372,-432.285
 L 136.937,-431.806 L 136.49,-431.298 L 136.035,-430.764 L 135.571,-430.204 L 135.099,-429.62 L 134.621,-429.013
 L 134.138,-428.385 L 133.651,-427.738 L 133.16,-427.072 L 132.668,-426.389 L 132.174,-425.691 L 131.744,-425.063
 L 131.301,-424.451 L 130.847,-423.854 L 130.383,-423.275 L 129.91,-422.714 L 129.431,-422.173 L 128.946,-421.652
 L 128.456,-421.153 L 127.964,-420.676 L 127.47,-420.223 L 126.977,-419.795 L 126.484,-419.392 L 125.995,-419.016
 L 125.51,-418.668 L 125.03,-418.349 L 124.558,-418.06 L 124.094,-417.802 L 123.64,-417.576 L 123.197,-417.383
 L 122.767,-417.224 L 122.302,-417.02 L 121.761,-416.83 L 121.149,-416.654 L 120.475,-416.494 L 119.746,-416.35
 L 118.969,-416.221 L 118.152,-416.109 L 117.303,-416.013 L 116.428,-415.934 L 115.535,-415.872 L 114.631,-415.828
 L 113.724,-415.802 L 112.822,-415.794 L 111.931,-415.805 L 111.059,-415.835 L 110.213,-415.885 L 109.402,-415.954
 L 108.632,-416.043 L 107.91,-416.153 L 107.244,-416.284 L 106.21,-416.633 L 105.221,-416.979 L 104.274,-417.323
 L 103.365,-417.668 L 102.489,-418.018 L 101.644,-418.375 L 100.824,-418.742 L 100.027,-419.121 L 99.2482,-419.516
 L 98.4838,-419.929 L 97.73,-420.363 L 96.9828,-420.822 L 96.2385,-421.307 L 95.4932,-421.822 L 94.7429,-422.369
 L 93.9837,-422.952 L 93.2119,-423.572 L 92.4235,-424.234 L 91.6147,-424.939 L 90.7815,-425.691 L 90.5699,-425.902
 L 90.3591,-426.113 L 90.1496,-426.32 L 89.9423,-426.523 L 89.7378,-426.72 L 89.5369,-426.91 L 89.3401,-427.092
 L 89.1483,-427.264 L 88.9622,-427.425 L 88.7824,-427.573 L 88.6096,-427.706 L 88.4447,-427.825 L 88.2882,-427.926
 L 88.1408,-428.009 L 88.0033,-428.072 L 87.8765,-428.114 L 87.7609,-428.134 L 87.6573,-428.129 L 87.5664,-428.1
 L 87.4889,-428.043 L 87.4219,-428.015 L 87.3624,-427.935 L 87.3105,-427.805 L 87.2669,-427.629 L 87.2316,-427.411
 L 87.2052,-427.154 L 87.188,-426.862 L 87.1803,-426.538 L 87.1825,-426.186 L 87.1949,-425.809 L 87.2179,-425.411
 L 87.2518,-424.995 L 87.297,-424.565 L 87.3539,-424.125 L 87.4227,-423.677 L 87.5039,-423.226 L 87.5978,-422.775
 L 87.7048,-422.328 L 87.8251,-421.888 L 87.9593,-421.458 L 88.2656,-420.524 L 88.6182,-419.56 L 89.0139,-418.571
 L 89.4494,-417.563 L 89.9216,-416.541 L 90.4273,-415.51 L 90.9633,-414.475 L 91.5265,-413.443 L 92.1137,-412.417
 L 92.7218,-411.404 L 93.3474,-410.408 L 93.9875,-409.435 L 94.6389,-408.49 L 95.2984,-407.579 L 95.9629,-406.707
 L 96.6291,-405.879 L 97.2939,-405.1 L 97.9541,-404.376 L 98.6066,-403.712 L 99.2481,-403.113 L 103.449,-400.184
 L 107.842,-397.554 L 112.407,-395.234 L 117.122,-393.236 L 118.477,-392.77 L 119.86,-392.361 L 121.271,-392.009
 L 122.71,-391.715 L 124.178,-391.479 L 125.674,-391.301 L 127.198,-391.181 L 128.75,-391.121 L 130.33,-391.119
 L 131.939,-391.178 L 133.576,-391.296 L 135.241,-391.474 L 136.934,-391.714 L 138.656,-392.014 L 140.406,-392.376
 L 142.184,-392.799 L 143.99,-393.284 L 145.824,-393.832 L 147.687,-394.443 L 149.578,-395.117 L 150.252,-395.321
 L 150.866,-395.511 L 151.421,-395.685 L 151.922,-395.843 L 152.371,-395.984 L 152.77,-396.108 L 153.122,-396.213
 L 153.431,-396.299 L 153.699,-396.365 L 153.929,-396.411 L 154.123,-396.435 L 154.285,-396.438 L 154.418,-396.418
 L 154.523,-396.375 L 154.605,-396.308 L 154.665,-396.216 L 154.707,-396.099 L 154.734,-395.955 L 154.748,-395.785
 L 154.752,-395.587 L 154.735,-395.274 L 154.685,-394.904 L 154.604,-394.484 L 154.496,-394.018 L 154.362,-393.515
 L 154.206,-392.98 L 154.029,-392.419 L 153.834,-391.839 L 153.623,-391.247 L 153.4,-390.648 L 153.165,-390.05
 L 152.923,-389.457 L 152.675,-388.878 L 152.424,-388.317 L 152.172,-387.782 L 151.922,-387.279 L 151.676,-386.813
 L 151.437,-386.393 L 151.207,-386.022 L 150.989,-385.71 L 150.629,-385.286 L 150.257,-384.864 L 149.872,-384.444
 L 149.476,-384.028 L 149.071,-383.615 L 148.656,-383.208 L 148.234,-382.807 L 147.805,-382.413 L 147.371,-382.028
 L 146.932,-381.653 L 146.489,-381.288 L 146.044,-380.934 L 145.598,-380.594 L 145.151,-380.267 L 144.705,-379.955
 L 144.261,-379.659 L 143.819,-379.38 L 143.382,-379.118 L 142.949,-378.876 L 142.522,-378.654 L 142.112,-378.453
 L 141.727,-378.271 L 141.362,-378.108 L 141.013,-377.962 L 140.677,-377.831 L 140.351,-377.714 L 140.028,-377.61
 L 139.708,-377.518 L 139.384,-377.435 L 139.053,-377.361 L 138.712,-377.293 L 138.357,-377.232 L 137.983,-377.174
 L 137.587,-377.12 L 137.164,-377.067 L 136.712,-377.013 L 136.226,-376.959 L 135.702,-376.901 L 135.137,-376.84
 L 134.526,-376.773 L 127,-377.243 L 126.567,-377.394 L 126.117,-377.564 L 125.654,-377.75 L 125.182,-377.95
 L 124.707,-378.162 L 124.231,-378.382 L 123.76,-378.608 L 123.297,-378.838 L 122.847,-379.07 L 122.414,-379.301
 L 122.002,-379.528 L 121.615,-379.749 L 121.258,-379.962 L 120.935,-380.163 L 120.65,-380.352 L 120.407,-380.524
 L 120.211,-380.678 L 120.066,-380.812 L 119.975,-380.922 L 119.944,-381.006 L 119.474,-381.476 L 119.326,-381.497
 L 119.164,-381.559 L 118.989,-381.66 L 118.8,-381.8 L 118.599,-381.976 L 118.386,-382.187 L 118.161,-382.433
 L 117.924,-382.71 L 117.675,-383.019 L 117.416,-383.358 L 117.146,-383.724 L 116.866,-384.118 L 116.576,-384.537
 L 116.277,-384.98 L 115.968,-385.445 L 115.651,-385.932 L 115.325,-386.438 L 114.991,-386.963 L 114.649,-387.504
 L 114.3,-388.061 L 113.958,-388.527 L 113.636,-388.936 L 113.334,-389.288 L 113.051,-389.582 L 112.786,-389.818
 L 112.539,-389.996 L 112.309,-390.116 L 112.095,-390.176 L 111.897,-390.178 L 111.713,-390.119 L 111.544,-390.001
 L 111.387,-389.822 L 111.244,-389.583 L 111.113,-389.283 L 110.993,-388.921 L 110.883,-388.498 L 110.784,-388.012
 L 110.693,-387.465 L 110.611,-386.854 L 110.537,-386.18 L 110.48,-385.571 L 110.45,-384.881 L 110.446,-384.118
 L 110.466,-383.294 L 110.508,-382.417 L 110.571,-381.498 L 110.654,-380.546 L 110.755,-379.572 L 110.874,-378.585
 L 111.007,-377.596 L 111.155,-376.613 L 111.316,-375.647 L 111.488,-374.709 L 111.67,-373.806 L 111.86,-372.951
 L 112.057,-372.152 L 112.26,-371.419 L 112.467,-370.762 L 112.677,-370.192 L 112.889,-369.717 L 113.35,-368.733
 L 113.885,-367.759 L 114.489,-366.798 L 115.158,-365.852 L 115.887,-364.925 L 116.673,-364.019 L 117.512,-363.137
 L 118.398,-362.281 L 119.328,-361.456 L 120.297,-360.662 L 121.302,-359.904 L 122.338,-359.184 L 123.4,-358.505
 L 124.485,-357.87 L 125.589,-357.282 L 126.706,-356.742 L 127.834,-356.255 L 128.967,-355.823 L 130.102,-355.449
 L 131.233,-355.135 L 131.878,-355.005 L 132.542,-354.895 L 133.222,-354.804 L 133.916,-354.733 L 134.621,-354.68
 L 135.335,-354.644 L 136.056,-354.626 L 136.78,-354.624 L 137.506,-354.637 L 138.23,-354.665 L 138.951,-354.707
 L 139.666,-354.763 L 140.373,-354.831 L 141.068,-354.912 L 141.751,-355.003 L 142.417,-355.105 L 143.065,-355.217
 L 143.692,-355.339 L 144.296,-355.468 L 144.874,-355.606 L 148.167,-356.076 L 148.269,-355.921 L 148.296,-355.74
 L 148.249,-355.534 L 148.129,-355.305 L 147.939,-355.055 L 147.68,-354.785 L 147.354,-354.498 L 146.963,-354.195
 L 146.508,-353.878 L 145.991,-353.548 L 145.415,-353.208 L 144.78,-352.859 L 144.089,-352.503 L 143.343,-352.142
 L 142.544,-351.777 L 141.694,-351.41 L 140.795,-351.044 L 139.848,-350.679 L 138.855,-350.317 L 137.819,-349.961
 L 133.585,-348.08 L 129.822,-345.728 L 129.547,-345.52 L 129.286,-345.318 L 129.037,-345.122 L 128.802,-344.93
 L 128.58,-344.743 L 128.37,-344.56 L 128.172,-344.379 L 127.986,-344.2 L 127.811,-344.023 L 127.647,-343.847
 L 127.493,-343.67 L 127.35,-343.493 L 127.217,-343.314 L 127.093,-343.134 L 126.978,-342.95 L 126.872,-342.763
 L 126.775,-342.572 L 126.685,-342.375 L 126.604,-342.173 L 126.53,-341.965 L 125.589,-339.613 L 125.649,-339.522
 L 125.689,-339.391 L 125.708,-339.224 L 125.709,-339.022 L 125.692,-338.79 L 125.657,-338.53 L 125.605,-338.244
 L 125.536,-337.935 L 125.452,-337.607 L 125.354,-337.261 L 125.241,-336.902 L 125.115,-336.531 L 124.976,-336.152
 L 124.825,-335.768 L 124.663,-335.38 L 124.49,-334.992 L 124.307,-334.608 L 124.116,-334.228 L 123.915,-333.858
 L 123.707,-333.498 L 123.57,-333.351 L 123.439,-333.19 L 123.316,-333.02 L 123.199,-332.84 L 123.09,-332.653
 L 122.988,-332.461 L 122.892,-332.266 L 122.804,-332.069 L 122.723,-331.871 L 122.649,-331.676 L 122.582,-331.484
 L 122.522,-331.297 L 122.469,-331.118 L 122.423,-330.947 L 122.384,-330.786 L 122.353,-330.639 L 122.328,-330.505
 L 122.31,-330.387 L 122.3,-330.287 L 122.296,-330.206 L 122.286,-329.917 L 122.254,-329.614 L 122.203,-329.299
 L 122.131,-328.972 L 122.039,-328.633 L 121.928,-328.284 L 121.798,-327.925 L 121.649,-327.557 L 121.482,-327.18
 L 121.297,-326.796 L 121.094,-326.404 L 120.874,-326.006 L 120.637,-325.603 L 120.383,-325.195 L 120.113,-324.782
 L 119.828,-324.366 L 119.527,-323.947 L 119.21,-323.526 L 118.879,-323.103 L 118.533,-322.68 L 112.889,-314.213
 L 110.684,-308.882 L 108.615,-303.497 L 106.685,-298.06 L 104.893,-292.576 L 104.617,-291.948 L 104.356,-291.334
 L 104.109,-290.733 L 103.877,-290.145 L 103.658,-289.57 L 103.453,-289.008 L 103.263,-288.457 L 103.086,-287.918
 L 102.924,-287.39 L 102.776,-286.873 L 102.642,-286.367 L 102.522,-285.871 L 102.416,-285.384 L 102.324,-284.908
 L 102.247,-284.44 L 102.183,-283.982 L 102.134,-283.531 L 102.099,-283.089 L 102.077,-282.655 L 102.07,-282.228
 L 100.659,-277.995 L 100.262,-277.192 L 99.7801,-276.34 L 99.2215,-275.449 L 98.5934,-274.525 L 97.9032,-273.578
 L 97.1583,-272.614 L 96.3661,-271.643 L 95.5341,-270.672 L 94.6696,-269.71 L 93.7801,-268.764 L 92.8729,-267.843
 L 91.9555,-266.954 L 91.0353,-266.107 L 90.1197,-265.308 L 89.216,-264.567 L 88.3318,-263.891 L 87.4744,-263.289
 L 86.6512,-262.767 L 85.8696,-262.336 L 85.137,-262.002 L 84.6573,-261.727 L 84.2062,-261.465 L 83.784,-261.216
 L 83.391,-260.979 L 83.0277,-260.753 L 82.6944,-260.537 L 82.3914,-260.332 L 82.1191,-260.136 L 81.8779,-259.948
 L 81.668,-259.768 L 81.49,-259.595 L 81.344,-259.428 L 81.2304,-259.267 L 81.1497,-259.111 L 81.1021,-258.959
 L 81.0881,-258.811 L 81.1079,-258.666 L 81.1619,-258.522 L 81.2505,-258.38 L 81.3741,-258.239 L 81.6472,-258.203
 L 82.0354,-258.232 L 82.5266,-258.321 L 83.1088,-258.465 L 83.77,-258.658 L 84.4983,-258.895 L 85.2816,-259.171
 L 86.1079,-259.481 L 86.9652,-259.819 L 87.8417,-260.179 L 88.7251,-260.558 L 89.6037,-260.949 L 90.4653,-261.346
 L 91.2979,-261.746 L 92.0897,-262.142 L 92.8285,-262.529 L 93.5024,-262.902 L 94.0995,-263.256 L 94.6076,-263.585
 L 95.0148,-263.884 L 100.189,-267.647 L 100.807,-268.13 L 101.392,-268.596 L 101.948,-269.047 L 102.477,-269.487
 L 102.982,-269.918 L 103.465,-270.343 L 103.931,-270.767 L 104.381,-271.191 L 104.818,-271.62 L 105.245,-272.056
 L 105.666,-272.503 L 106.082,-272.964 L 106.496,-273.441 L 106.912,-273.939 L 107.333,-274.46 L 107.76,-275.007
 L 108.197,-275.584 L 108.647,-276.194 L 109.113,-276.839 L 109.596,-277.524 L 111.478,-280.347 L 111.608,-280.322
 L 111.718,-280.25 L 111.807,-280.131 L 111.877,-279.967 L 111.926,-279.759 L 111.956,-279.508 L 111.967,-279.217
 L 111.959,-278.887 L 111.933,-278.518 L 111.889,-278.112 L 111.828,-277.672 L 111.749,-277.197 L 111.653,-276.69
 L 111.54,-276.152 L 111.412,-275.584 L 111.267,-274.988 L 111.107,-274.365 L 110.932,-273.717 L 110.742,-273.045
 L 110.537,-272.35 L 107.873,-261.325 L 106.484,-250.067 L 106.388,-238.724 L 107.588,-227.445 L 110.067,-216.376
 L 113.83,-207.91 L 114.303,-207.017 L 114.734,-206.173 L 115.126,-205.377 L 115.478,-204.628 L 115.792,-203.926
 L 116.069,-203.27 L 116.31,-202.659 L 116.516,-202.092 L 116.689,-201.569 L 116.828,-201.089 L 116.936,-200.652
 L 117.013,-200.256 L 117.061,-199.901 L 117.079,-199.586 L 117.071,-199.311 L 117.036,-199.074 L 116.975,-198.876
 L 116.89,-198.715 L 116.782,-198.59 L 116.652,-198.502 L 113.83,-199.913 L 113.46,-200.262 L 113.056,-200.604
 L 112.622,-200.938 L 112.159,-201.264 L 111.669,-201.582 L 111.154,-201.89 L 110.617,-202.19 L 110.059,-202.48
 L 109.483,-202.76 L 108.891,-203.029 L 108.284,-203.289 L 107.666,-203.537 L 107.038,-203.774 L 106.402,-203.999
 L 105.76,-204.213 L 105.115,-204.414 L 104.468,-204.602 L 103.822,-204.777 L 103.179,-204.939 L 102.541,-205.087
 L 89.3704,-207.91 L 86.5481,-207.91 L 86.3505,-207.772 L 86.1808,-207.64 L 86.0386,-207.512 L 85.9235,-207.387
 L 85.8352,-207.263 L 85.7734,-207.139 L 85.7377,-207.014 L 85.7278,-206.886 L 85.7433,-206.754 L 85.7838,-206.616
 L 85.849,-206.471 L 85.9385,-206.318 L 86.0521,-206.155 L 86.1893,-205.98 L 86.3497,-205.793 L 86.5331,-205.592
 L 86.7391,-205.375 L 86.9672,-205.141 L 87.2173,-204.889 L 87.4889,-204.617 L 88.1749,-204.062 L 88.9555,-203.391
 L 89.8193,-202.616 L 90.7551,-201.75 L 91.7516,-200.803 L 92.7975,-199.787 L 93.8815,-198.714 L 94.9922,-197.595
 L 96.1185,-196.443 L 97.2491,-195.268 L 98.3725,-194.083 L 99.4777,-192.899 L 100.553,-191.728 L 101.588,-190.581
 L 102.57,-189.47 L 103.489,-188.406 L 104.333,-187.402 L 105.091,-186.469 L 105.752,-185.618 L 106.304,-184.861
 L 106.656,-184.41 L 107.008,-183.907 L 107.359,-183.353 L 107.707,-182.754 L 108.053,-182.113 L 108.395,-181.432
 L 108.733,-180.717 L 109.066,-179.97 L 109.393,-179.194 L 109.714,-178.394 L 110.028,-177.572 L 110.334,-176.733
 L 110.631,-175.88 L 110.92,-175.017 L 111.198,-174.146 L 111.466,-173.271 L 111.723,-172.397 L 111.968,-171.526
 L 112.2,-170.663 L 112.419,-169.81 L 112.553,-169.326 L 112.673,-168.86 L 112.782,-168.409 L 112.878,-167.969
 L 112.962,-167.539 L 113.037,-167.113 L 113.101,-166.689 L 113.156,-166.265 L 113.203,-165.836 L 113.242,-165.4
 L 113.274,-164.953 L 113.299,-164.493 L 113.319,-164.015 L 113.334,-163.517 L 113.345,-162.997 L 113.352,-162.449
 L 113.356,-161.872 L 113.358,-161.262 L 113.359,-160.617 L 113.359,-159.932 L 112.889,-153.817 L 114.77,-151.465
 L 114.972,-151.19 L 115.153,-150.927 L 115.316,-150.674 L 115.463,-150.43 L 115.594,-150.194 L 115.71,-149.962
 L 115.814,-149.734 L 115.907,-149.508 L 115.99,-149.282 L 116.064,-149.054 L 116.131,-148.823 L 116.193,-148.586
 L 116.25,-148.343 L 116.305,-148.09 L 116.358,-147.827 L 116.411,-147.552 L 116.466,-147.262 L 116.523,-146.957
 L 116.585,-146.634 L 116.652,-146.291 L 116.655,-145.878 L 116.666,-145.486 L 116.685,-145.113 L 116.712,-144.76
 L 116.747,-144.424 L 116.792,-144.107 L 116.845,-143.806 L 116.908,-143.522 L 116.98,-143.253 L 117.063,-142.998
 L 117.157,-142.758 L 117.261,-142.532 L 117.377,-142.318 L 117.505,-142.116 L 117.644,-141.925 L 117.796,-141.745
 L 117.96,-141.575 L 118.138,-141.414 L 118.329,-141.262 L 118.533,-141.117 L 120.415,-139.236 L 120.482,-139.098
 L 120.541,-138.965 L 120.592,-138.834 L 120.633,-138.705 L 120.665,-138.574 L 120.686,-138.44 L 120.695,-138.3
 L 120.693,-138.152 L 120.678,-137.994 L 120.65,-137.824 L 120.608,-137.641 L 120.55,-137.441 L 120.477,-137.222
 L 120.388,-136.983 L 120.283,-136.722 L 120.159,-136.436 L 120.017,-136.123 L 119.856,-135.781 L 119.675,-135.408
 L 119.474,-135.002 L 116.853,-130.26 L 114.332,-125.463 L 111.913,-120.615 L 109.596,-115.717 L 105.363,-106.78
 L 104.422,-104.428 L 102.07,-100.665 L 100.189,-97.3725 L 100.111,-96.9632 L 100.02,-96.5814 L 99.9153,-96.2264
 L 99.7975,-95.8975 L 99.6671,-95.5939 L 99.5242,-95.3151 L 99.3694,-95.0603 L 99.203,-94.8288 L 99.0252,-94.6198
 L 98.8366,-94.4327 L 98.6373,-94.2668 L 98.4278,-94.1213 L 98.2085,-93.9956 L 97.9796,-93.889 L 97.7415,-93.8007
 L 97.4946,-93.73 L 97.2392,-93.6763 L 96.9758,-93.6387 L 96.7046,-93.6167 L 96.4259,-93.6096 L 93.1333,-92.6688
 L 92.915,-92.4366 L 92.6846,-92.166 L 92.4444,-91.8608 L 92.1964,-91.5249 L 91.9427,-91.1622 L 91.6855,-90.7765
 L 91.4269,-90.3718 L 91.1691,-89.952 L 90.914,-89.5208 L 90.6639,-89.0823 L 90.4208,-88.6402 L 90.1869,-88.1984
 L 89.9643,-87.7609 L 89.7551,-87.3315 L 89.5614,-86.9142 L 89.3854,-86.5126 L 89.2291,-86.1309 L 89.0947,-85.7727
 L 88.9843,-85.4421 L 88.9,-85.1429 L 88.2128,-82.8168 L 87.5915,-80.4724 L 87.0364,-78.1113 L 86.5481,-75.7355
 L 86.4776,-75.1957 L 86.407,-74.7049 L 86.3365,-74.2628 L 86.2659,-73.8691 L 86.1954,-73.5233 L 86.1248,-73.2251
 L 86.0542,-72.9743 L 85.9837,-72.7703 L 85.9131,-72.6129 L 85.8426,-72.5017 L 85.772,-72.4364 L 85.7015,-72.4166
 L 85.6309,-72.4419 L 85.5604,-72.5121 L 85.4898,-72.6266 L 85.4193,-72.7853 L 85.3487,-72.9878 L 85.2781,-73.2336
 L 85.2076,-73.5225 L 85.137,-73.854 L 85.6074,-60.2133 L 85.6749,-59.6758 L 85.7382,-59.1874 L 85.8,-58.7406
 L 85.8633,-58.328 L 85.9308,-57.9423 L 86.0053,-57.5759 L 86.0898,-57.2215 L 86.1869,-56.8718 L 86.2995,-56.5192
 L 86.4305,-56.1563 L 86.5827,-55.7759 L 86.7589,-55.3703 L 86.9618,-54.9324 L 87.1944,-54.4545 L 87.4595,-53.9294
 L 87.7598,-53.3496 L 88.0983,-52.7077 L 88.4776,-51.9964 L 88.9007,-51.2081 L 89.3704,-50.3355 L 89.7972,-49.4925
 L 90.2307,-48.6577 L 90.6705,-47.832 L 91.1164,-47.0166 L 91.5679,-46.2124 L 92.0247,-45.4206 L 92.4864,-44.6422
 L 92.9527,-43.8783 L 93.4232,-43.1298 L 93.8977,-42.398 L 94.3756,-41.6838 L 94.8568,-40.9883 L 95.3407,-40.3126
 L 95.8271,-39.6576 L 96.3157,-39.0246 L 96.806,-38.4144 L 97.2977,-37.8283 L 97.7905,-37.2672 L 98.2839,-36.7322
 L 98.7778,-36.2244 L 99.0531,-35.8855 L 99.3154,-35.5739 L 99.5657,-35.2883 L 99.8051,-35.0278 L 100.035,-34.7912
 L 100.255,-34.5776 L 100.468,-34.3859 L 100.674,-34.215 L 100.875,-34.0638 L 101.071,-33.9313 L 101.263,-33.8165
 L 101.453,-33.7183 L 101.642,-33.6355 L 101.83,-33.5673 L 102.019,-33.5124 L 102.21,-33.4699 L 102.403,-33.4387
 L 102.6,-33.4177 L 102.803,-33.4059 L 103.011,-33.4022 z
M 160.867,-528.232 L 155.222,-531.054 L 151.459,-533.406 L 150.716,-533.726 L 149.905,-534.118 L 149.033,-534.575
 L 148.11,-535.092 L 147.145,-535.662 L 146.146,-536.28 L 145.123,-536.94 L 144.084,-537.635 L 143.038,-538.36
 L 141.993,-539.109 L 140.959,-539.875 L 139.945,-540.653 L 138.958,-541.437 L 138.009,-542.22 L 137.106,-542.997
 L 136.257,-543.762 L 135.472,-544.508 L 134.759,-545.23 L 134.127,-545.921 L 133.585,-546.576 L 130.568,-549.725
 L 127.818,-553.11 L 125.356,-556.709 L 123.197,-560.497 L 121.356,-564.45 L 119.474,-569.154 L 118.533,-570.565
 L 119.004,-571.036 L 122.767,-565.391 L 123.54,-563.877 L 124.31,-562.434 L 125.082,-561.057 L 125.86,-559.739
 L 126.647,-558.475 L 127.449,-557.259 L 128.269,-556.084 L 129.111,-554.945 L 129.98,-553.836 L 130.881,-552.75
 L 131.816,-551.682 L 132.791,-550.625 L 133.81,-549.574 L 134.877,-548.523 L 135.996,-547.466 L 137.171,-546.396
 L 138.407,-545.307 L 139.708,-544.195 L 141.079,-543.052 L 142.522,-541.873 L 143.396,-541.224 L 144.322,-540.551
 L 145.294,-539.856 L 146.308,-539.144 L 147.358,-538.418 L 148.44,-537.682 L 149.549,-536.938 L 150.68,-536.19
 L 151.828,-535.443 L 152.988,-534.699 L 154.155,-533.963 L 155.324,-533.237 L 156.49,-532.525 L 157.648,-531.83
 L 158.794,-531.157 L 159.922,-530.508 L 161.028,-529.888 L 162.106,-529.3 L 163.151,-528.746 L 164.159,-528.232
 L 169.333,-525.41 z
M 184.848,-476.324 L 184.709,-476.367 L 184.554,-476.442 L 184.385,-476.55 L 184.202,-476.689 L 184.005,-476.86
 L 183.796,-477.062 L 183.574,-477.294 L 183.342,-477.557 L 183.098,-477.849 L 182.845,-478.172 L 182.583,-478.524
 L 182.312,-478.904 L 182.033,-479.313 L 167.452,-495.306 L 163.605,-498.667 L 159.654,-501.906 L 155.605,-505.02
 L 151.459,-508.006 L 142.052,-514.121 L 136.307,-518.457 L 130.299,-522.421 L 124.052,-525.998 L 117.593,-529.173
 L 114.77,-531.054 L 109.126,-534.347 L 104.863,-536.316 L 100.836,-538.731 L 97.0902,-541.564 L 93.6702,-544.782
 L 90.6148,-548.348 L 87.9593,-552.221 L 87.9664,-552.351 L 87.9884,-552.46 L 88.0259,-552.546 L 88.0797,-552.608
 L 88.1503,-552.647 L 88.2386,-552.661 L 88.3453,-552.65 L 88.471,-552.612 L 88.6165,-552.548 L 88.7824,-552.456
 L 88.9695,-552.336 L 89.1785,-552.187 L 89.41,-552.008 L 89.6648,-551.799 L 89.9436,-551.559 L 90.2471,-551.287
 L 90.576,-550.983 L 90.931,-550.646 L 91.3129,-550.275 L 91.7222,-549.869 L 92.489,-549.046 L 93.242,-548.267
 L 93.9886,-547.526 L 94.7363,-546.817 L 95.4925,-546.135 L 96.2646,-545.475 L 97.0599,-544.83 L 97.8859,-544.194
 L 98.7501,-543.563 L 99.6597,-542.931 L 100.622,-542.291 L 101.645,-541.639 L 102.736,-540.969 L 103.902,-540.274
 L 105.15,-539.55 L 106.488,-538.791 L 107.924,-537.99 L 109.464,-537.143 L 111.117,-536.244 L 112.889,-535.287
 L 121.356,-531.054 L 124.358,-529.396 L 127.32,-527.667 L 130.239,-525.867 L 133.115,-523.998 L 137.118,-521.727
 L 141.043,-519.322 L 144.884,-516.785 L 148.637,-514.121 L 154.048,-510.328 L 159.234,-506.232 L 164.178,-501.847
 L 168.863,-497.187 L 173.075,-492.21 L 177.224,-487.18 L 181.307,-482.096 L 185.326,-476.961 L 185.315,-476.767
 L 185.285,-476.608 L 185.234,-476.484 L 185.164,-476.393 L 185.076,-476.337 L 184.97,-476.314 z
M 254.47,-493.424 L 251.648,-497.187 L 250.04,-499.559 L 248.704,-502.093 L 247.656,-504.76 L 246.91,-507.526
 L 246.474,-510.358 L 246.478,-510.488 L 246.488,-510.599 L 246.506,-510.689 L 246.531,-510.76 L 246.562,-510.813
 L 246.601,-510.849 L 246.647,-510.867 L 246.7,-510.869 L 246.76,-510.856 L 246.827,-510.828 L 246.901,-510.786
 L 246.982,-510.73 L 247.07,-510.662 L 247.166,-510.582 L 247.268,-510.49 L 247.377,-510.388 L 247.494,-510.276
 L 247.617,-510.155 L 247.748,-510.025 L 247.885,-509.887 L 249.296,-508.476 L 251.648,-507.065 L 251.927,-506.843
 L 252.198,-506.601 L 252.46,-506.341 L 252.713,-506.064 L 252.956,-505.772 L 253.189,-505.465 L 253.411,-505.146
 L 253.62,-504.815 L 253.817,-504.474 L 254,-504.125 L 254.169,-503.769 L 254.324,-503.408 L 254.462,-503.042
 L 254.585,-502.673 L 254.691,-502.303 L 254.779,-501.932 L 254.849,-501.564 L 254.899,-501.198 L 254.93,-500.836
 L 254.941,-500.48 L 255.411,-496.717 L 255.881,-493.424 L 255.411,-492.484 z
M 183.471,-355.591 L 182.989,-355.689 L 182.53,-355.84 L 182.095,-356.045 L 181.688,-356.304 L 181.311,-356.618
 L 180.966,-356.987 L 180.657,-357.412 L 180.384,-357.892 L 180.152,-358.428 L 180.085,-358.714 L 180.026,-359.011
 L 179.975,-359.322 L 179.934,-359.651 L 179.902,-360.001 L 179.881,-360.375 L 179.871,-360.778 L 179.873,-361.213
 L 179.888,-361.682 L 179.917,-362.191 L 179.959,-362.742 L 180.016,-363.339 L 180.089,-363.985 L 180.178,-364.684
 L 180.284,-365.44 L 180.408,-366.255 L 180.55,-367.134 L 180.711,-368.08 L 180.891,-369.097 L 181.093,-370.187
 L 181.29,-371.081 L 181.459,-371.928 L 181.601,-372.734 L 181.713,-373.503 L 181.798,-374.237 L 181.855,-374.941
 L 181.883,-375.62 L 181.883,-376.276 L 181.855,-376.914 L 181.798,-377.537 L 181.713,-378.15 L 181.601,-378.756
 L 181.459,-379.359 L 181.29,-379.963 L 181.093,-380.572 L 180.867,-381.19 L 180.613,-381.821 L 180.331,-382.468
 L 180.02,-383.136 L 179.681,-383.828 L 179.473,-384.368 L 179.269,-384.861 L 179.067,-385.31 L 178.865,-385.717
 L 178.66,-386.084 L 178.45,-386.415 L 178.231,-386.71 L 178.003,-386.974 L 177.762,-387.208 L 177.506,-387.415
 L 177.232,-387.597 L 176.938,-387.757 L 176.622,-387.897 L 176.28,-388.02 L 175.911,-388.128 L 175.512,-388.223
 L 175.081,-388.309 L 174.614,-388.387 L 174.11,-388.461 L 173.567,-388.532 L 173.097,-388.535 L 172.674,-388.546
 L 172.295,-388.564 L 171.956,-388.588 L 171.656,-388.62 L 171.391,-388.659 L 171.158,-388.705 L 170.955,-388.758
 L 170.779,-388.818 L 170.627,-388.885 L 170.496,-388.959 L 170.383,-389.04 L 170.286,-389.128 L 170.202,-389.223
 L 170.127,-389.326 L 170.06,-389.435 L 169.996,-389.551 L 169.934,-389.675 L 169.871,-389.805 L 169.804,-389.943
 L 171.215,-392.295 L 171.353,-392.496 L 171.484,-392.677 L 171.611,-392.839 L 171.734,-392.983 L 171.854,-393.111
 L 171.973,-393.222 L 172.09,-393.318 L 172.208,-393.401 L 172.328,-393.471 L 172.45,-393.529 L 172.575,-393.577
 L 172.705,-393.616 L 172.841,-393.645 L 172.983,-393.668 L 173.133,-393.684 L 173.292,-393.695 L 173.461,-393.701
 L 173.641,-393.704 L 173.832,-393.706 L 174.037,-393.706 L 174.245,-393.642 L 174.447,-393.592 L 174.642,-393.555
 L 174.831,-393.529 L 175.015,-393.515 L 175.193,-393.511 L 175.366,-393.517 L 175.535,-393.533 L 175.699,-393.557
 L 175.86,-393.588 L 176.017,-393.627 L 176.171,-393.672 L 176.322,-393.723 L 176.47,-393.778 L 176.617,-393.838
 L 176.761,-393.902 L 176.905,-393.968 L 177.047,-394.036 L 177.188,-394.106 L 177.33,-394.176 L 177.535,-394.31
 L 177.728,-394.431 L 177.912,-394.539 L 178.09,-394.635 L 178.263,-394.72 L 178.435,-394.794 L 178.607,-394.859
 L 178.782,-394.914 L 178.963,-394.96 L 179.152,-394.999 L 179.352,-395.031 L 179.565,-395.057 L 179.793,-395.077
 L 180.039,-395.092 L 180.306,-395.102 L 180.596,-395.109 L 180.911,-395.114 L 181.254,-395.116 L 181.627,-395.117
 L 182.033,-395.117 L 187.678,-393.706 L 191.911,-392.765 L 192.049,-392.769 L 192.18,-392.779 L 192.304,-392.797
 L 192.423,-392.822 L 192.536,-392.853 L 192.643,-392.892 L 192.746,-392.938 L 192.844,-392.991 L 192.938,-393.051
 L 193.028,-393.118 L 193.115,-393.192 L 193.198,-393.273 L 193.279,-393.361 L 193.357,-393.457 L 193.432,-393.559
 L 193.507,-393.668 L 193.579,-393.785 L 193.651,-393.908 L 193.722,-394.039 L 193.793,-394.176 L 193.927,-394.641
 L 194.047,-395.183 L 194.154,-395.795 L 194.248,-396.472 L 194.329,-397.204 L 194.398,-397.986 L 194.455,-398.811
 L 194.5,-399.67 L 194.534,-400.558 L 194.557,-401.467 L 194.569,-402.39 L 194.572,-403.32 L 194.564,-404.25
 L 194.547,-405.174 L 194.52,-406.082 L 194.485,-406.97 L 194.441,-407.83 L 194.389,-408.654 L 194.33,-409.436
 L 194.263,-410.169 L 194.038,-411.311 L 193.786,-412.475 L 193.51,-413.654 L 193.213,-414.842 L 192.896,-416.034
 L 192.561,-417.222 L 192.211,-418.399 L 191.847,-419.561 L 191.472,-420.7 L 191.088,-421.811 L 190.697,-422.885
 L 190.301,-423.919 L 189.902,-424.904 L 189.502,-425.835 L 189.104,-426.705 L 188.709,-427.509 L 188.32,-428.238
 L 187.938,-428.889 L 187.567,-429.453 L 187.207,-429.924 L 184.242,-433.084 L 181.133,-436.101 L 177.885,-438.97
 L 174.507,-441.684 L 174.024,-442.026 L 173.558,-442.349 L 173.108,-442.653 L 172.671,-442.94 L 172.244,-443.212
 L 171.823,-443.47 L 171.407,-443.715 L 170.993,-443.949 L 170.577,-444.173 L 170.156,-444.388 L 169.729,-444.597
 L 169.292,-444.799 L 168.842,-444.998 L 168.377,-445.194 L 167.893,-445.388 L 167.388,-445.582 L 166.859,-445.778
 L 166.303,-445.976 L 165.718,-446.179 L 165.1,-446.387 L 160.169,-448.366 L 155.065,-449.838 L 149.837,-450.788
 L 144.541,-451.208 L 139.23,-451.091 L 135.937,-451.091 L 135.732,-451.095 L 135.541,-451.105 L 135.364,-451.121
 L 135.199,-451.144 L 135.048,-451.172 L 134.908,-451.205 L 134.781,-451.244 L 134.665,-451.287 L 134.561,-451.334
 L 134.467,-451.385 L 134.384,-451.44 L 134.311,-451.497 L 134.249,-451.558 L 134.195,-451.621 L 134.151,-451.686
 L 134.116,-451.753 L 134.089,-451.822 L 134.07,-451.891 L 134.059,-451.961 L 134.056,-452.032 L 134.202,-452.307
 L 134.495,-452.567 L 134.926,-452.812 L 135.485,-453.04 L 136.165,-453.252 L 136.955,-453.446 L 137.848,-453.621
 L 138.835,-453.778 L 139.905,-453.915 L 141.052,-454.031 L 142.266,-454.126 L 143.538,-454.199 L 144.86,-454.25
 L 146.222,-454.277 L 147.615,-454.281 L 149.032,-454.259 L 150.463,-454.213 L 151.899,-454.14 L 153.332,-454.04
 L 154.752,-453.913 L 155.635,-453.779 L 156.454,-453.656 L 157.216,-453.542 L 157.928,-453.435 L 158.596,-453.333
 L 159.226,-453.232 L 159.827,-453.13 L 160.404,-453.025 L 160.964,-452.915 L 161.513,-452.796 L 162.06,-452.667
 L 162.609,-452.525 L 163.168,-452.367 L 163.744,-452.191 L 164.343,-451.995 L 164.972,-451.776 L 165.638,-451.531
 L 166.347,-451.259 L 167.106,-450.956 L 167.922,-450.621 L 168.738,-450.345 L 169.495,-450.081 L 170.199,-449.826
 L 170.854,-449.578 L 171.465,-449.335 L 172.037,-449.092 L 172.575,-448.85 L 173.085,-448.604 L 173.571,-448.352
 L 174.037,-448.092 L 174.489,-447.822 L 174.933,-447.539 L 175.372,-447.24 L 175.811,-446.923 L 176.257,-446.586
 L 176.712,-446.226 L 177.184,-445.84 L 177.676,-445.426 L 178.193,-444.983 L 178.741,-444.506 L 181.563,-443.095
 L 184.385,-440.743 L 184.59,-440.538 L 184.782,-440.348 L 184.961,-440.171 L 185.13,-440.009 L 185.289,-439.861
 L 185.439,-439.727 L 185.582,-439.607 L 185.717,-439.501 L 185.847,-439.409 L 185.973,-439.332 L 186.095,-439.268
 L 186.214,-439.219 L 186.332,-439.184 L 186.45,-439.162 L 186.568,-439.155 L 186.688,-439.162 L 186.811,-439.184
 L 186.938,-439.219 L 187.07,-439.268 L 187.207,-439.332 L 187.338,-439.487 L 187.448,-439.668 L 187.539,-439.874
 L 187.61,-440.103 L 187.663,-440.353 L 187.698,-440.623 L 187.717,-440.91 L 187.719,-441.213 L 187.706,-441.53
 L 187.678,-441.86 L 187.636,-442.2 L 187.58,-442.549 L 187.512,-442.905 L 187.431,-443.266 L 187.34,-443.631
 L 187.238,-443.998 L 187.125,-444.364 L 187.004,-444.729 L 186.874,-445.091 L 186.737,-445.447 L 186.232,-446.311
 L 185.576,-447.336 L 184.786,-448.5 L 183.881,-449.782 L 182.879,-451.157 L 181.797,-452.605 L 180.654,-454.103
 L 179.467,-455.629 L 178.255,-457.161 L 177.036,-458.676 L 175.827,-460.152 L 174.647,-461.567 L 173.513,-462.899
 L 172.444,-464.125 L 171.457,-465.224 L 170.571,-466.173 L 169.804,-466.95 L 169.173,-467.532 L 168.697,-467.898
 L 168.393,-468.024 L 166.041,-469.436 L 155.302,-474.651 L 144.243,-479.146 L 132.911,-482.901 L 121.356,-485.898
 L 119.452,-486.261 L 117.558,-486.643 L 115.683,-487.039 L 113.837,-487.449 L 112.029,-487.868 L 110.268,-488.295
 L 108.565,-488.725 L 106.928,-489.157 L 105.368,-489.588 L 103.893,-490.014 L 102.514,-490.434 L 101.239,-490.843
 L 100.078,-491.24 L 99.0416,-491.621 L 98.1384,-491.984 L 97.3779,-492.326 L 96.7699,-492.643 L 96.3239,-492.934
 L 96.0492,-493.196 L 95.9556,-493.424 L 96.0043,-493.552 L 96.1479,-493.652 L 96.3826,-493.725 L 96.7044,-493.774
 L 97.1094,-493.799 L 97.5938,-493.801 L 98.1538,-493.781 L 98.7853,-493.74 L 99.4846,-493.68 L 100.248,-493.601
 L 101.071,-493.504 L 101.95,-493.391 L 102.881,-493.262 L 103.861,-493.118 L 104.885,-492.961 L 105.95,-492.792
 L 107.051,-492.612 L 108.186,-492.421 L 109.349,-492.221 L 110.537,-492.013 L 119.944,-490.132 L 128.137,-487.757
 L 136.357,-485.476 L 144.601,-483.289 L 152.87,-481.195 L 158.044,-478.373 L 165.1,-474.61 L 167.661,-473.01
 L 170.085,-471.21 L 172.358,-469.222 L 174.464,-467.058 L 176.389,-464.732 L 176.564,-464.342 L 176.804,-463.881
 L 177.103,-463.359 L 177.454,-462.783 L 177.851,-462.159 L 178.29,-461.498 L 178.762,-460.805 L 179.264,-460.088
 L 179.788,-459.357 L 180.328,-458.617 L 180.879,-457.877 L 181.435,-457.146 L 181.989,-456.429 L 182.536,-455.736
 L 183.07,-455.075 L 183.584,-454.451 L 184.072,-453.875 L 184.53,-453.353 L 184.949,-452.892 L 185.326,-452.502
 L 185.759,-452.052 L 186.211,-451.55 L 186.677,-451.004 L 187.155,-450.417 L 187.641,-449.798 L 188.133,-449.149
 L 188.626,-448.479 L 189.119,-447.791 L 189.607,-447.092 L 190.088,-446.387 L 190.559,-445.683 L 191.016,-444.984
 L 191.455,-444.296 L 191.875,-443.625 L 192.271,-442.977 L 192.641,-442.357 L 192.981,-441.771 L 193.289,-441.225
 L 193.56,-440.723 L 193.793,-440.273 L 195.204,-437.45 L 195.288,-437.352 L 195.397,-437.202 L 195.528,-437.005
 L 195.678,-436.765 L 195.843,-436.488 L 196.021,-436.176 L 196.208,-435.836 L 196.4,-435.471 L 196.596,-435.087
 L 196.791,-434.687 L 196.983,-434.277 L 197.168,-433.86 L 197.343,-433.443 L 197.505,-433.028 L 197.651,-432.622
 L 197.778,-432.227 L 197.881,-431.85 L 197.96,-431.494 L 198.009,-431.164 L 198.026,-430.865 L 200.848,-420.987
 L 200.982,-420.777 L 201.102,-420.306 L 201.208,-419.604 L 201.3,-418.699 L 201.377,-417.621 L 201.441,-416.398
 L 201.49,-415.06 L 201.525,-413.635 L 201.547,-412.151 L 201.554,-410.639 L 201.547,-409.127 L 201.525,-407.644
 L 201.49,-406.219 L 201.441,-404.88 L 201.377,-403.657 L 201.3,-402.579 L 201.208,-401.674 L 201.102,-400.972
 L 200.982,-400.501 L 200.848,-400.291 L 200.378,-398.41 L 200.367,-398.093 L 200.337,-397.713 L 200.289,-397.277
 L 200.223,-396.792 L 200.143,-396.264 L 200.048,-395.7 L 199.94,-395.109 L 199.821,-394.496 L 199.692,-393.869
 L 199.555,-393.236 L 199.41,-392.602 L 199.26,-391.975 L 199.106,-391.362 L 198.949,-390.771 L 198.79,-390.207
 L 198.632,-389.68 L 198.475,-389.194 L 198.32,-388.758 L 198.17,-388.378 L 198.026,-388.061 L 194.263,-384.298
 L 193.726,-383.825 L 193.242,-383.393 L 192.806,-382.999 L 192.415,-382.643 L 192.065,-382.321 L 191.753,-382.034
 L 191.473,-381.778 L 191.222,-381.551 L 190.997,-381.354 L 190.794,-381.182 L 190.608,-381.036 L 190.436,-380.912
 L 190.274,-380.809 L 190.118,-380.726 L 189.963,-380.66 L 189.808,-380.611 L 189.646,-380.575 L 189.475,-380.552
 L 189.291,-380.539 L 189.089,-380.536 L 187.207,-378.654 L 187.144,-378.513 L 187.095,-378.369 L 187.061,-378.221
 L 187.042,-378.067 L 187.038,-377.904 L 187.051,-377.731 L 187.079,-377.545 L 187.125,-377.345 L 187.187,-377.127
 L 187.266,-376.89 L 187.363,-376.632 L 187.478,-376.351 L 187.612,-376.045 L 187.764,-375.71 L 187.935,-375.347
 L 188.126,-374.951 L 188.336,-374.522 L 188.566,-374.057 L 188.817,-373.553 L 189.089,-373.01 L 189.424,-372.338
 L 189.726,-371.731 L 189.996,-371.18 L 190.237,-370.68 L 190.449,-370.224 L 190.634,-369.805 L 190.795,-369.416
 L 190.933,-369.051 L 191.049,-368.703 L 191.147,-368.365 L 191.226,-368.03 L 191.29,-367.693 L 191.34,-367.345
 L 191.377,-366.981 L 191.404,-366.593 L 191.422,-366.176 L 191.433,-365.722 L 191.438,-365.224 L 191.44,-364.677
 L 191.441,-364.073 L 191.441,-359.839 L 189.559,-357.958 L 188.992,-357.489 L 188.42,-357.069 L 187.845,-356.7
 L 187.271,-356.381 L 186.7,-356.113 L 186.134,-355.896 L 185.576,-355.731 L 185.029,-355.617 L 184.494,-355.556
 L 183.974,-355.547 z
M 179.681,-409.228 L 179.342,-409.429 L 179.028,-409.611 L 178.736,-409.773 L 178.462,-409.917 L 178.204,-410.044
 L 177.959,-410.155 L 177.722,-410.252 L 177.491,-410.334 L 177.264,-410.404 L 177.036,-410.463 L 176.804,-410.511
 L 176.566,-410.549 L 176.318,-410.579 L 176.056,-410.601 L 175.779,-410.617 L 175.482,-410.628 L 175.163,-410.634
 L 174.817,-410.638 L 174.443,-410.639 L 174.037,-410.639 L 168.393,-410.169 L 168.047,-410.035 L 167.716,-409.915
 L 167.401,-409.811 L 167.102,-409.721 L 166.82,-409.647 L 166.555,-409.589 L 166.309,-409.547 L 166.082,-409.522
 L 165.875,-409.513 L 165.688,-409.522 L 165.522,-409.549 L 165.378,-409.593 L 165.257,-409.656 L 165.159,-409.738
 L 165.085,-409.838 L 165.036,-409.958 L 165.012,-410.098 L 165.014,-410.258 L 165.043,-410.438 L 165.1,-410.639
 L 165.1,-419.576 L 165.029,-419.844 L 164.958,-420.084 L 164.885,-420.294 L 164.81,-420.476 L 164.733,-420.627
 L 164.651,-420.749 L 164.566,-420.84 L 164.475,-420.901 L 164.379,-420.93 L 164.277,-420.929 L 164.167,-420.895
 L 164.05,-420.829 L 163.924,-420.731 L 163.79,-420.6 L 163.645,-420.436 L 163.489,-420.239 L 163.323,-420.007
 L 163.144,-419.741 L 162.953,-419.441 L 162.748,-419.106 L 158.985,-415.343 L 158.699,-415.135 L 158.407,-414.934
 L 158.107,-414.741 L 157.8,-414.556 L 157.486,-414.38 L 157.165,-414.213 L 156.837,-414.054 L 156.502,-413.905
 L 156.159,-413.767 L 155.81,-413.638 L 155.454,-413.52 L 155.091,-413.413 L 154.72,-413.317 L 154.343,-413.232
 L 153.958,-413.16 L 153.567,-413.1 L 153.168,-413.053 L 152.762,-413.019 L 152.349,-412.998 L 151.93,-412.991
 L 151.658,-412.991 L 151.405,-412.992 L 151.17,-412.996 L 150.951,-413.002 L 150.746,-413.013 L 150.554,-413.029
 L 150.372,-413.052 L 150.199,-413.081 L 150.033,-413.12 L 149.872,-413.167 L 149.714,-413.226 L 149.559,-413.296
 L 149.403,-413.379 L 149.246,-413.475 L 149.085,-413.586 L 148.919,-413.714 L 148.746,-413.858 L 148.564,-414.02
 L 148.372,-414.201 L 148.167,-414.402 L 147.899,-414.681 L 147.659,-414.954 L 147.447,-415.222 L 147.264,-415.486
 L 147.108,-415.747 L 146.981,-416.007 L 146.883,-416.265 L 146.812,-416.524 L 146.77,-416.785 L 146.756,-417.048
 L 146.77,-417.315 L 146.812,-417.586 L 146.883,-417.862 L 146.981,-418.146 L 147.108,-418.437 L 147.264,-418.737
 L 147.447,-419.047 L 147.659,-419.368 L 147.899,-419.701 L 148.167,-420.047 L 148.375,-420.255 L 148.578,-420.456
 L 148.778,-420.651 L 148.976,-420.841 L 149.174,-421.024 L 149.373,-421.202 L 149.576,-421.376 L 149.785,-421.544
 L 150,-421.709 L 150.225,-421.869 L 150.459,-422.026 L 150.707,-422.18 L 150.968,-422.331 L 151.245,-422.48
 L 151.54,-422.626 L 151.854,-422.771 L 152.19,-422.914 L 152.548,-423.057 L 152.931,-423.198 L 153.341,-423.339
 L 158.044,-425.221 L 162.748,-425.221 L 163.725,-425.136 L 164.681,-425.023 L 165.615,-424.882 L 166.526,-424.713
 L 167.415,-424.515 L 168.281,-424.289 L 169.124,-424.035 L 169.943,-423.753 L 170.738,-423.443 L 171.509,-423.104
 L 172.255,-422.737 L 172.976,-422.342 L 173.671,-421.919 L 174.341,-421.467 L 174.985,-420.987 L 175.602,-420.479
 L 176.193,-419.943 L 176.756,-419.379 L 177.292,-418.786 L 177.8,-418.165 L 178.156,-417.711 L 178.516,-417.202
 L 178.877,-416.646 L 179.237,-416.05 L 179.593,-415.424 L 179.942,-414.774 L 180.281,-414.11 L 180.607,-413.439
 L 180.918,-412.769 L 181.21,-412.109 L 181.481,-411.467 L 181.729,-410.85 L 181.949,-410.267 L 182.14,-409.726
 L 182.298,-409.235 L 182.421,-408.803 L 182.506,-408.437 L 182.55,-408.145 L 182.55,-407.936 L 182.504,-407.817
 z
M 206.714,-362.467 L 206.618,-362.502 L 206.53,-362.564 L 206.449,-362.655 L 206.375,-362.779 L 206.308,-362.938
 L 206.248,-363.136 L 206.195,-363.374 L 206.149,-363.656 L 206.11,-363.984 L 206.079,-364.362 L 206.054,-364.792
 L 206.036,-365.278 L 206.026,-365.821 L 206.022,-366.424 L 204.611,-371.128 L 204.541,-371.273 L 204.471,-371.423
 L 204.403,-371.578 L 204.336,-371.738 L 204.273,-371.9 L 204.213,-372.064 L 204.158,-372.228 L 204.107,-372.392
 L 204.062,-372.555 L 204.023,-372.716 L 203.992,-372.872 L 203.968,-373.025 L 203.952,-373.171 L 203.946,-373.311
 L 203.95,-373.443 L 203.964,-373.566 L 203.989,-373.68 L 204.027,-373.782 L 204.077,-373.873 L 204.141,-373.95
 L 206.493,-377.243 L 209.785,-381.006 L 214.489,-389.943 L 214.697,-390.572 L 214.897,-391.053 L 215.087,-391.393
 L 215.268,-391.599 L 215.437,-391.677 L 215.594,-391.636 L 215.737,-391.482 L 215.866,-391.222 L 215.98,-390.864
 L 216.076,-390.413 L 216.156,-389.878 L 216.216,-389.266 L 216.257,-388.582 L 216.277,-387.836 L 216.275,-387.032
 L 216.25,-386.18 L 216.201,-385.285 L 216.127,-384.355 L 216.027,-383.397 L 215.9,-382.417 L 215.826,-381.792
 L 215.744,-381.186 L 215.653,-380.595 L 215.554,-380.016 L 215.444,-379.448 L 215.324,-378.886 L 215.193,-378.329
 L 215.05,-377.773 L 214.894,-377.216 L 214.724,-376.655 L 214.54,-376.087 L 214.342,-375.508 L 214.128,-374.917
 L 213.898,-374.311 L 213.651,-373.686 L 213.386,-373.04 L 213.103,-372.37 L 212.801,-371.673 L 212.479,-370.946
 L 212.137,-370.187 L 211.728,-369.436 L 211.345,-368.732 L 210.988,-368.075 L 210.654,-367.463 L 210.344,-366.895
 L 210.054,-366.369 L 209.784,-365.884 L 209.533,-365.438 L 209.299,-365.031 L 209.08,-364.661 L 208.875,-364.325
 L 208.683,-364.024 L 208.502,-363.755 L 208.331,-363.517 L 208.168,-363.308 L 208.013,-363.128 L 207.863,-362.975
 L 207.717,-362.847 L 207.575,-362.743 L 207.433,-362.661 L 207.296,-362.595 L 207.165,-362.538 L 207.042,-362.494
 L 206.925,-362.466 L 206.816,-362.456 z
M 144.203,-268.112 L 143.463,-268.293 L 142.723,-268.57 L 141.988,-268.941 L 141.263,-269.405 L 140.552,-269.961
 L 139.862,-270.608 L 139.196,-271.346 L 138.559,-272.172 L 137.958,-273.086 L 137.396,-274.086 L 136.878,-275.173
 L 136.676,-275.582 L 136.495,-275.967 L 136.332,-276.331 L 136.185,-276.678 L 136.055,-277.01 L 135.938,-277.332
 L 135.834,-277.646 L 135.741,-277.957 L 135.659,-278.268 L 135.584,-278.583 L 135.517,-278.904 L 135.455,-279.237
 L 135.398,-279.583 L 135.343,-279.947 L 135.29,-280.332 L 135.237,-280.742 L 135.183,-281.18 L 135.125,-281.65
 L 135.064,-282.155 L 134.996,-282.698 L 135.467,-288.813 L 137.479,-293.787 L 139.916,-298.567 L 142.76,-303.117
 L 145.988,-307.403 L 149.578,-311.391 L 153.341,-316.095 L 153.482,-316.299 L 153.622,-316.489 L 153.761,-316.663
 L 153.898,-316.821 L 154.032,-316.962 L 154.162,-317.085 L 154.288,-317.19 L 154.409,-317.276 L 154.525,-317.343
 L 154.634,-317.388 L 154.736,-317.413 L 154.831,-317.416 L 154.917,-317.396 L 154.994,-317.353 L 155.061,-317.285
 L 155.117,-317.194 L 155.162,-317.076 L 155.195,-316.933 L 155.215,-316.763 L 155.222,-316.565 L 151.459,-307.628
 L 150.048,-303.395 L 149.847,-302.669 L 149.667,-301.903 L 149.508,-301.1 L 149.371,-300.264 L 149.254,-299.397
 L 149.159,-298.501 L 149.085,-297.58 L 149.032,-296.636 L 149,-295.673 L 148.99,-294.693 L 149,-293.699
 L 149.032,-292.693 L 149.085,-291.679 L 149.159,-290.659 L 149.254,-289.636 L 149.371,-288.614 L 149.508,-287.594
 L 149.667,-286.58 L 149.847,-285.574 L 150.048,-284.58 L 150.249,-283.543 L 150.429,-282.547 L 150.588,-281.592
 L 150.725,-280.678 L 150.842,-279.803 L 150.937,-278.967 L 151.011,-278.168 L 151.064,-277.408 L 151.096,-276.684
 L 151.106,-275.996 L 151.096,-275.343 L 151.064,-274.725 L 151.011,-274.14 L 150.937,-273.589 L 150.842,-273.071
 L 150.725,-272.584 L 150.588,-272.128 L 150.429,-271.702 L 150.249,-271.306 L 150.048,-270.939 L 149.53,-270.216
 L 148.968,-269.597 L 148.366,-269.082 L 147.73,-268.67 L 147.064,-268.36 L 146.374,-268.149 L 145.663,-268.039
 L 144.938,-268.027 z
M 229.247,-233.862 L 228.243,-234.099 L 227.03,-234.477 L 225.635,-234.98 L 224.087,-235.595 L 222.417,-236.307
 L 220.651,-237.102 L 218.82,-237.964 L 216.952,-238.881 L 215.077,-239.836 L 213.223,-240.816 L 211.418,-241.806
 L 209.693,-242.792 L 208.076,-243.76 L 206.595,-244.694 L 205.281,-245.581 L 204.161,-246.405 L 203.265,-247.153
 L 202.621,-247.81 L 202.259,-248.361 L 199.946,-249.897 L 197.683,-251.508 L 195.475,-253.192 L 193.322,-254.947
 L 192.687,-255.44 L 192.054,-255.932 L 191.424,-256.42 L 190.797,-256.903 L 190.177,-257.379 L 189.563,-257.846
 L 188.958,-258.303 L 188.363,-258.747 L 187.779,-259.177 L 187.207,-259.592 L 186.65,-259.988 L 186.109,-260.365
 L 185.584,-260.721 L 185.078,-261.054 L 184.591,-261.363 L 184.126,-261.645 L 183.683,-261.898 L 183.264,-262.122
 L 182.87,-262.314 L 182.504,-262.473 L 179.211,-264.824 L 179.225,-264.955 L 179.265,-265.066 L 179.33,-265.157
 L 179.418,-265.231 L 179.527,-265.287 L 179.656,-265.328 L 179.802,-265.354 L 179.964,-265.366 L 180.14,-265.366
 L 180.328,-265.354 L 180.527,-265.331 L 180.735,-265.299 L 180.95,-265.258 L 181.17,-265.21 L 181.394,-265.155
 L 181.619,-265.095 L 181.845,-265.031 L 182.069,-264.964 L 182.289,-264.895 L 182.504,-264.824 L 182.598,-264.747
 L 182.74,-264.657 L 182.925,-264.556 L 183.151,-264.444 L 183.415,-264.325 L 183.714,-264.198 L 184.046,-264.065
 L 184.408,-263.929 L 184.796,-263.789 L 185.208,-263.648 L 185.642,-263.508 L 186.094,-263.368 L 186.561,-263.231
 L 187.041,-263.099 L 187.531,-262.972 L 188.028,-262.853 L 188.529,-262.741 L 189.031,-262.64 L 189.533,-262.55
 L 190.03,-262.473 L 200.378,-259.18 L 200.933,-258.904 L 201.472,-258.638 L 202.001,-258.378 L 202.526,-258.119
 L 203.053,-257.857 L 203.587,-257.588 L 204.133,-257.308 L 204.698,-257.012 L 205.286,-256.697 L 205.905,-256.358
 L 206.558,-255.99 L 207.253,-255.59 L 207.994,-255.153 L 208.787,-254.676 L 209.638,-254.153 L 210.553,-253.581
 L 211.537,-252.955 L 212.595,-252.271 L 213.734,-251.525 L 214.959,-250.713 L 217.953,-248.166 L 220.99,-245.671
 L 224.069,-243.227 L 227.189,-240.835 L 227.668,-240.339 L 228.119,-239.838 L 228.539,-239.336 L 228.927,-238.837
 L 229.283,-238.344 L 229.606,-237.859 L 229.894,-237.387 L 230.147,-236.93 L 230.362,-236.491 L 230.54,-236.073
 L 230.679,-235.68 L 230.779,-235.315 L 230.837,-234.981 L 230.854,-234.682 L 230.827,-234.419 L 230.756,-234.198
 L 230.64,-234.02 L 230.478,-233.889 L 230.269,-233.808 L 230.011,-233.78 z
M 300,-0.00587463 L 0,-0.00587463 L 0,-0 L 300,-0 z
" stroke="black" fill="lightgray" stroke-width="0.5"/>
</svg>
