<svg xmlns="http://www.w3.org/2000/svg" version="1.0" viewBox="0 0 2052 2052"><path d="M603.5 552.6c-25.3 5.3-46.1 26.9-51.1 53.1-2.2 11.5-2.1 147.1.2 158.1 5.2 25.8 26.6 46.7 53.1 51.8 11.5 2.2 147.1 2.1 158.1-.2 25.8-5.2 46.7-26.6 51.8-53.1 2.2-11.5 2.1-147.1-.2-158.1-5.2-25.8-26.6-46.7-53.1-51.8-11.1-2.1-148.5-1.9-158.8.2zm139.8 37.9c17 4.4 29.6 17.1 34.2 34.6 2.2 8.1 2.2 109.9 0 118.2-4.4 17-17.1 29.6-34.6 34.2-8.1 2.2-109.9 2.2-118.2 0-17-4.4-29.6-17.1-34.2-34.6-2.2-8.1-2.2-109.9 0-118.2 4.4-16.8 17-29.5 34.2-34.2 7.5-2.1 110.7-2.1 118.6 0z"/><path d="M646.4 628.8c-6.2 2.2-10.3 5.4-13.8 10.7-5.3 8-5.7 11.4-5.4 47.2.3 31 .4 33 2.4 37.3 2.9 6.1 7.8 10.8 14.4 13.9l5.5 2.6h35c33.6 0 35.2-.1 39.5-2.1 6.1-2.9 10.8-7.8 13.9-14.4l2.6-5.5v-35c0-33.6-.1-35.2-2.1-39.5-2.9-6.1-7.8-10.8-14.4-13.9l-5.5-2.6-33.5-.2c-30-.3-34-.1-38.6 1.5zm641.1-76.2c-25.3 5.3-46.1 26.9-51.1 53.1-2.2 11.5-2.1 147.1.2 158.1 5.2 25.8 26.6 46.7 53.1 51.8 11.5 2.2 147.1 2.1 158.1-.2 25.8-5.2 46.7-26.6 51.8-53.1 2.2-11.5 2.1-147.1-.2-158.1-5.2-25.8-26.6-46.7-53.1-51.8-11.1-2.1-148.5-1.9-158.8.2zm139.8 37.9c17 4.4 29.6 17.1 34.2 34.6 2.2 8.1 2.2 109.9 0 118.2-4.4 17-17.1 29.6-34.6 34.2-8.1 2.2-109.9 2.2-118.2 0-17-4.4-29.6-17.1-34.2-34.6-2.2-8.1-2.2-109.9 0-118.2 4.4-16.8 17-29.5 34.2-34.2 7.5-2.1 110.7-2.1 118.6 0z"/><path d="M1330.4 628.8c-6.2 2.2-10.3 5.4-13.8 10.7-5.3 8-5.7 11.4-5.4 47.2.3 31 .4 33 2.4 37.3 2.9 6.1 7.8 10.8 14.4 13.9l5.5 2.6h35c33.6 0 35.2-.1 39.5-2.1 6.1-2.9 10.8-7.8 13.9-14.4l2.6-5.5v-35c0-33.6-.1-35.2-2.1-39.5-2.9-6.1-7.8-10.8-14.4-13.9l-5.5-2.6-33.5-.2c-30-.3-34-.1-38.6 1.5zm-348.9-74.4c-6.7 2.9-11.4 12-10 19.2 1.4 7.9 11.8 14.5 20.1 12.9 7.8-1.4 14.5-11.8 13-19.9-1.8-9.6-14.2-16.1-23.1-12.2zm38 0c-6.7 2.9-11.4 12-10 19.2 1.4 7.9 11.8 14.5 20.1 12.9 7.8-1.4 14.5-11.8 13-19.9-1.8-9.6-14.2-16.1-23.1-12.2zm38 0c-6.7 2.9-11.4 12-10 19.2 1.4 7.9 11.8 14.5 20.1 12.9 7.8-1.4 14.5-11.8 13-19.9-1.8-9.6-14.2-16.1-23.1-12.2zm38 0c-6.7 2.9-11.4 12-10 19.2 1.4 7.9 11.8 14.5 20.1 12.9 7.8-1.4 14.5-11.8 13-19.9-1.8-9.6-14.2-16.1-23.1-12.2zm-190 38c-6.7 2.9-11.4 12-10 19.2 1.4 7.9 11.8 14.5 20.1 12.9 7.8-1.4 14.5-11.8 13-19.9-1.8-9.6-14.2-16.1-23.1-12.2zm38 0c-6.7 2.9-11.4 12-10 19.2 1.4 7.9 11.8 14.5 20.1 12.9 7.8-1.4 14.5-11.8 13-19.9-1.8-9.6-14.2-16.1-23.1-12.2zm114 0c-6.7 2.9-11.4 12-10 19.2 1.4 7.9 11.8 14.5 20.1 12.9 7.8-1.4 14.5-11.8 13-19.9-1.8-9.6-14.2-16.1-23.1-12.2zm114 0c-6.7 2.9-11.4 12-10 19.2 1.4 7.9 11.8 14.5 20.1 12.9 7.8-1.4 14.5-11.8 13-19.9-1.8-9.6-14.2-16.1-23.1-12.2zm-152 38c-6.7 2.9-11.4 12-10 19.2 1.4 7.9 11.8 14.5 20.1 12.9 7.8-1.4 14.5-11.8 13-19.9-1.8-9.6-14.2-16.1-23.1-12.2zm114 0c-6.7 2.9-11.4 12-10 19.2 1.4 7.9 11.8 14.5 20.1 12.9 7.8-1.4 14.5-11.8 13-19.9-1.8-9.6-14.2-16.1-23.1-12.2zm38 0c-6.7 2.9-11.4 12-10 19.2 1.4 7.9 11.8 14.5 20.1 12.9 7.8-1.4 14.5-11.8 13-19.9-1.8-9.6-14.2-16.1-23.1-12.2zm-304 38c-6.7 2.9-11.4 12-10 19.2 1.4 7.9 11.8 14.5 20.1 12.9 7.8-1.4 14.5-11.8 13-19.9-1.8-9.6-14.2-16.1-23.1-12.2zm152 0c-6.7 2.9-11.4 12-10 19.2 1.4 7.9 11.8 14.5 20.1 12.9 7.8-1.4 14.5-11.8 13-19.9-1.8-9.6-14.2-16.1-23.1-12.2zm38 0c-6.7 2.9-11.4 12-10 19.2 1.4 7.9 11.8 14.5 20.1 12.9 7.8-1.4 14.5-11.8 13-19.9-1.8-9.6-14.2-16.1-23.1-12.2zm38 0c-6.7 2.9-11.4 12-10 19.2 1.4 7.9 11.8 14.5 20.1 12.9 7.8-1.4 14.5-11.8 13-19.9-1.8-9.6-14.2-16.1-23.1-12.2zm-228 38c-6.7 2.9-11.4 12-10 19.2 1.4 7.9 11.8 14.5 20.1 12.9 7.8-1.4 14.5-11.8 13-19.9-1.8-9.6-14.2-16.1-23.1-12.2zm38 0c-6.7 2.9-11.4 12-10 19.2 1.4 7.9 11.8 14.5 20.1 12.9 7.8-1.4 14.5-11.8 13-19.9-1.8-9.6-14.2-16.1-23.1-12.2zm152 0c-6.7 2.9-11.4 12-10 19.2 1.4 7.9 11.8 14.5 20.1 12.9 7.8-1.4 14.5-11.8 13-19.9-1.8-9.6-14.2-16.1-23.1-12.2zm114 0c-6.7 2.9-11.4 12-10 19.2 1.4 7.9 11.8 14.5 20.1 12.9 7.8-1.4 14.5-11.8 13-19.9-1.8-9.6-14.2-16.1-23.1-12.2zm-190 38c-6.7 2.9-11.4 12-10 19.2 1.4 7.9 11.8 14.5 20.1 12.9 7.8-1.4 14.5-11.8 13-19.9-1.8-9.6-14.2-16.1-23.1-12.2zm38 0c-6.7 2.9-11.4 12-10 19.2 1.4 7.9 11.8 14.5 20.1 12.9 7.8-1.4 14.5-11.8 13-19.9-1.8-9.6-14.2-16.1-23.1-12.2zm38 0c-6.7 2.9-11.4 12-10 19.2 1.4 7.9 11.8 14.5 20.1 12.9 7.8-1.4 14.5-11.8 13-19.9-1.8-9.6-14.2-16.1-23.1-12.2zm38 0c-6.7 2.9-11.4 12-10 19.2 1.4 7.9 11.8 14.5 20.1 12.9 7.8-1.4 14.5-11.8 13-19.9-1.8-9.6-14.2-16.1-23.1-12.2zm-228 38c-6.7 2.9-11.4 12-10 19.2 1.4 7.9 11.8 14.5 20.1 12.9 7.8-1.4 14.5-11.8 13-19.9-1.8-9.6-14.2-16.1-23.1-12.2zm76 0c-6.7 2.9-11.4 12-10 19.2 1.4 7.9 11.8 14.5 20.1 12.9 7.8-1.4 14.5-11.8 13-19.9-1.8-9.6-14.2-16.1-23.1-12.2zm76 0c-6.7 2.9-11.4 12-10 19.2 1.4 7.9 11.8 14.5 20.1 12.9 7.8-1.4 14.5-11.8 13-19.9-1.8-9.6-14.2-16.1-23.1-12.2zm76 0c-6.7 2.9-11.4 12-10 19.2 1.4 7.9 11.8 14.5 20.1 12.9 7.8-1.4 14.5-11.8 13-19.9-1.8-9.6-14.2-16.1-23.1-12.2zm76 0c-6.7 2.9-11.4 12-10 19.2 1.4 7.9 11.8 14.5 20.1 12.9 7.8-1.4 14.5-11.8 13-19.9-1.8-9.6-14.2-16.1-23.1-12.2zm-228 38c-6.7 2.9-11.4 12-10 19.2 1.4 7.9 11.8 14.5 20.1 12.9 7.8-1.4 14.5-11.8 13-19.9-1.8-9.6-14.2-16.1-23.1-12.2zm38 0c-6.7 2.9-11.4 12-10 19.2 1.4 7.9 11.8 14.5 20.1 12.9 7.8-1.4 14.5-11.8 13-19.9-1.8-9.6-14.2-16.1-23.1-12.2zm114 0c-6.7 2.9-11.4 12-10 19.2 1.4 7.9 11.8 14.5 20.1 12.9 7.8-1.4 14.5-11.8 13-19.9-1.8-9.6-14.2-16.1-23.1-12.2zm76 0c-6.7 2.9-11.4 12-10 19.2 1.4 7.9 11.8 14.5 20.1 12.9 7.8-1.4 14.5-11.8 13-19.9-1.8-9.6-14.2-16.1-23.1-12.2zm-608 38c-6.7 2.9-11.4 12-10 19.2 1.4 7.9 11.8 14.5 20.1 12.9 7.8-1.4 14.5-11.8 13-19.9-1.8-9.6-14.2-16.1-23.1-12.2zm38 0c-6.7 2.9-11.4 12-10 19.2 1.4 7.9 11.8 14.5 20.1 12.9 7.8-1.4 14.5-11.8 13-19.9-1.8-9.6-14.2-16.1-23.1-12.2zm152 0c-6.7 2.9-11.4 12-10 19.2 1.4 7.9 11.8 14.5 20.1 12.9 7.8-1.4 14.5-11.8 13-19.9-1.8-9.6-14.2-16.1-23.1-12.2zm38 0c-6.7 2.9-11.4 12-10 19.2 1.4 7.9 11.8 14.5 20.1 12.9 7.8-1.4 14.5-11.8 13-19.9-1.8-9.6-14.2-16.1-23.1-12.2zm38 0c-6.7 2.9-11.4 12-10 19.2 1.4 7.9 11.8 14.5 20.1 12.9 7.8-1.4 14.5-11.8 13-19.9-1.8-9.6-14.2-16.1-23.1-12.2zm76 0c-6.7 2.9-11.4 12-10 19.2 1.4 7.9 11.8 14.5 20.1 12.9 7.8-1.4 14.5-11.8 13-19.9-1.8-9.6-14.2-16.1-23.1-12.2zm76 0c-6.7 2.9-11.4 12-10 19.2 1.4 7.9 11.8 14.5 20.1 12.9 7.8-1.4 14.5-11.8 13-19.9-1.8-9.6-14.2-16.1-23.1-12.2zm38 0c-6.7 2.9-11.4 12-10 19.2 1.4 7.9 11.8 14.5 20.1 12.9 7.8-1.4 14.5-11.8 13-19.9-1.8-9.6-14.2-16.1-23.1-12.2zm38 0c-6.7 2.9-11.4 12-10 19.2 1.4 7.9 11.8 14.5 20.1 12.9 7.8-1.4 14.5-11.8 13-19.9-1.8-9.6-14.2-16.1-23.1-12.2zm38 0c-6.7 2.9-11.4 12-10 19.2 1.4 7.9 11.8 14.5 20.1 12.9 7.8-1.4 14.5-11.8 13-19.9-1.8-9.6-14.2-16.1-23.1-12.2zm228 0c-6.7 2.9-11.4 12-10 19.2 1.4 7.9 11.8 14.5 20.1 12.9 7.8-1.4 14.5-11.8 13-19.9-1.8-9.6-14.2-16.1-23.1-12.2zm38 0c-6.7 2.9-11.4 12-10 19.2 1.4 7.9 11.8 14.5 20.1 12.9 7.8-1.4 14.5-11.8 13-19.9-1.8-9.6-14.2-16.1-23.1-12.2zm-760 38c-6.7 2.9-11.4 12-10 19.2 1.4 7.9 11.8 14.5 20.1 12.9 7.8-1.4 14.5-11.8 13-19.9-1.8-9.6-14.2-16.1-23.1-12.2zm38 0c-6.7 2.9-11.4 12-10 19.2 1.4 7.9 11.8 14.5 20.1 12.9 7.8-1.4 14.5-11.8 13-19.9-1.8-9.6-14.2-16.1-23.1-12.2zm38 0c-6.7 2.9-11.4 12-10 19.2 1.4 7.9 11.8 14.5 20.1 12.9 7.8-1.4 14.5-11.8 13-19.9-1.8-9.6-14.2-16.1-23.1-12.2zm38 0c-6.7 2.9-11.4 12-10 19.2 1.4 7.9 11.8 14.5 20.1 12.9 7.8-1.4 14.5-11.8 13-19.9-1.8-9.6-14.2-16.1-23.1-12.2zm38 0c-6.7 2.9-11.4 12-10 19.2 1.4 7.9 11.8 14.5 20.1 12.9 7.8-1.4 14.5-11.8 13-19.9-1.8-9.6-14.2-16.1-23.1-12.2zm114 0c-6.7 2.9-11.4 12-10 19.2 1.4 7.9 11.8 14.5 20.1 12.9 7.8-1.4 14.5-11.8 13-19.9-1.8-9.6-14.2-16.1-23.1-12.2zm38 0c-6.7 2.9-11.4 12-10 19.2 1.4 7.9 11.8 14.5 20.1 12.9 7.8-1.4 14.5-11.8 13-19.9-1.8-9.6-14.2-16.1-23.1-12.2zm114 0c-6.7 2.9-11.4 12-10 19.2 1.4 7.9 11.8 14.5 20.1 12.9 7.8-1.4 14.5-11.8 13-19.9-1.8-9.6-14.2-16.1-23.1-12.2zm76 0c-6.7 2.9-11.4 12-10 19.2 1.4 7.9 11.8 14.5 20.1 12.9 7.8-1.4 14.5-11.8 13-19.9-1.8-9.6-14.2-16.1-23.1-12.2zm38 0c-6.7 2.9-11.4 12-10 19.2 1.4 7.9 11.8 14.5 20.1 12.9 7.8-1.4 14.5-11.8 13-19.9-1.8-9.6-14.2-16.1-23.1-12.2zm152 0c-6.7 2.9-11.4 12-10 19.2 1.4 7.9 11.8 14.5 20.1 12.9 7.8-1.4 14.5-11.8 13-19.9-1.8-9.6-14.2-16.1-23.1-12.2zm38 0c-6.7 2.9-11.4 12-10 19.2 1.4 7.9 11.8 14.5 20.1 12.9 7.8-1.4 14.5-11.8 13-19.9-1.8-9.6-14.2-16.1-23.1-12.2zm38 0c-6.7 2.9-11.4 12-10 19.2 1.4 7.9 11.8 14.5 20.1 12.9 7.8-1.4 14.5-11.8 13-19.9-1.8-9.6-14.2-16.1-23.1-12.2zm38 0c-6.7 2.9-11.4 12-10 19.2 1.4 7.9 11.8 14.5 20.1 12.9 7.8-1.4 14.5-11.8 13-19.9-1.8-9.6-14.2-16.1-23.1-12.2zm38 0c-6.7 2.9-11.4 12-10 19.2 1.4 7.9 11.8 14.5 20.1 12.9 7.8-1.4 14.5-11.8 13-19.9-1.8-9.6-14.2-16.1-23.1-12.2zm-836 38c-6.7 2.9-11.4 12-10 19.2 1.4 7.9 11.8 14.5 20.1 12.9 7.8-1.4 14.5-11.8 13-19.9-1.8-9.6-14.2-16.1-23.1-12.2zm38 0c-6.7 2.9-11.4 12-10 19.2 1.4 7.9 11.8 14.5 20.1 12.9 7.8-1.4 14.5-11.8 13-19.9-1.8-9.6-14.2-16.1-23.1-12.2zm38 0c-6.7 2.9-11.4 12-10 19.2 1.4 7.9 11.8 14.5 20.1 12.9 7.8-1.4 14.5-11.8 13-19.9-1.8-9.6-14.2-16.1-23.1-12.2zm114 0c-6.7 2.9-11.4 12-10 19.2 1.4 7.9 11.8 14.5 20.1 12.9 7.8-1.4 14.5-11.8 13-19.9-1.8-9.6-14.2-16.1-23.1-12.2zm152 0c-6.7 2.9-11.4 12-10 19.2 1.4 7.9 11.8 14.5 20.1 12.9 7.8-1.4 14.5-11.8 13-19.9-1.8-9.6-14.2-16.1-23.1-12.2zm76 0c-6.7 2.9-11.4 12-10 19.2 1.4 7.9 11.8 14.5 20.1 12.9 7.8-1.4 14.5-11.8 13-19.9-1.8-9.6-14.2-16.1-23.1-12.2zm38 0c-6.7 2.9-11.4 12-10 19.2 1.4 7.9 11.8 14.5 20.1 12.9 7.8-1.4 14.5-11.8 13-19.9-1.8-9.6-14.2-16.1-23.1-12.2zm76 0c-6.7 2.9-11.4 12-10 19.2 1.4 7.9 11.8 14.5 20.1 12.9 7.8-1.4 14.5-11.8 13-19.9-1.8-9.6-14.2-16.1-23.1-12.2zm38 0c-6.7 2.9-11.4 12-10 19.2 1.4 7.9 11.8 14.5 20.1 12.9 7.8-1.4 14.5-11.8 13-19.9-1.8-9.6-14.2-16.1-23.1-12.2zm76 0c-6.7 2.9-11.4 12-10 19.2 1.4 7.9 11.8 14.5 20.1 12.9 7.8-1.4 14.5-11.8 13-19.9-1.8-9.6-14.2-16.1-23.1-12.2zm76 0c-6.7 2.9-11.4 12-10 19.2 1.4 7.9 11.8 14.5 20.1 12.9 7.8-1.4 14.5-11.8 13-19.9-1.8-9.6-14.2-16.1-23.1-12.2zm38 0c-6.7 2.9-11.4 12-10 19.2 1.4 7.9 11.8 14.5 20.1 12.9 7.8-1.4 14.5-11.8 13-19.9-1.8-9.6-14.2-16.1-23.1-12.2zm76 0c-6.7 2.9-11.4 12-10 19.2 1.4 7.9 11.8 14.5 20.1 12.9 7.8-1.4 14.5-11.8 13-19.9-1.8-9.6-14.2-16.1-23.1-12.2zm38 0c-6.7 2.9-11.4 12-10 19.2 1.4 7.9 11.8 14.5 20.1 12.9 7.8-1.4 14.5-11.8 13-19.9-1.8-9.6-14.2-16.1-23.1-12.2zm-912 38c-6.7 2.9-11.4 12-10 19.2 1.4 7.9 11.8 14.5 20.1 12.9 7.8-1.4 14.5-11.8 13-19.9-1.8-9.6-14.2-16.1-23.1-12.2zm76 0c-6.7 2.9-11.4 12-10 19.2 1.4 7.9 11.8 14.5 20.1 12.9 7.8-1.4 14.5-11.8 13-19.9-1.8-9.6-14.2-16.1-23.1-12.2zm38 0c-6.7 2.9-11.4 12-10 19.2 1.4 7.9 11.8 14.5 20.1 12.9 7.8-1.4 14.5-11.8 13-19.9-1.8-9.6-14.2-16.1-23.1-12.2zm38 0c-6.7 2.9-11.4 12-10 19.2 1.4 7.9 11.8 14.5 20.1 12.9 7.8-1.4 14.5-11.8 13-19.9-1.8-9.6-14.2-16.1-23.1-12.2zm38 0c-6.7 2.9-11.4 12-10 19.2 1.4 7.9 11.8 14.5 20.1 12.9 7.8-1.4 14.5-11.8 13-19.9-1.8-9.6-14.2-16.1-23.1-12.2zm76 0c-6.7 2.9-11.4 12-10 19.2 1.4 7.9 11.8 14.5 20.1 12.9 7.8-1.4 14.5-11.8 13-19.9-1.8-9.6-14.2-16.1-23.1-12.2zm76 0c-6.7 2.9-11.4 12-10 19.2 1.4 7.9 11.8 14.5 20.1 12.9 7.8-1.4 14.5-11.8 13-19.9-1.8-9.6-14.2-16.1-23.1-12.2zm190 0c-6.7 2.9-11.4 12-10 19.2 1.4 7.9 11.8 14.5 20.1 12.9 7.8-1.4 14.5-11.8 13-19.9-1.8-9.6-14.2-16.1-23.1-12.2zm38 0c-6.7 2.9-11.4 12-10 19.2 1.4 7.9 11.8 14.5 20.1 12.9 7.8-1.4 14.5-11.8 13-19.9-1.8-9.6-14.2-16.1-23.1-12.2zm76 0c-6.7 2.9-11.4 12-10 19.2 1.4 7.9 11.8 14.5 20.1 12.9 7.8-1.4 14.5-11.8 13-19.9-1.8-9.6-14.2-16.1-23.1-12.2zm38 0c-6.7 2.9-11.4 12-10 19.2 1.4 7.9 11.8 14.5 20.1 12.9 7.8-1.4 14.5-11.8 13-19.9-1.8-9.6-14.2-16.1-23.1-12.2zm114 0c-6.7 2.9-11.4 12-10 19.2 1.4 7.9 11.8 14.5 20.1 12.9 7.8-1.4 14.5-11.8 13-19.9-1.8-9.6-14.2-16.1-23.1-12.2zm114 0c-6.7 2.9-11.4 12-10 19.2 1.4 7.9 11.8 14.5 20.1 12.9 7.8-1.4 14.5-11.8 13-19.9-1.8-9.6-14.2-16.1-23.1-12.2zm-912 38c-6.7 2.9-11.4 12-10 19.2 1.4 7.9 11.8 14.5 20.1 12.9 7.8-1.4 14.5-11.8 13-19.9-1.8-9.6-14.2-16.1-23.1-12.2zm114 0c-6.7 2.9-11.4 12-10 19.2 1.4 7.9 11.8 14.5 20.1 12.9 7.8-1.4 14.5-11.8 13-19.9-1.8-9.6-14.2-16.1-23.1-12.2zm38 0c-6.7 2.9-11.4 12-10 19.2 1.4 7.9 11.8 14.5 20.1 12.9 7.8-1.4 14.5-11.8 13-19.9-1.8-9.6-14.2-16.1-23.1-12.2zm38 0c-6.7 2.9-11.4 12-10 19.2 1.4 7.9 11.8 14.5 20.1 12.9 7.8-1.4 14.5-11.8 13-19.9-1.8-9.6-14.2-16.1-23.1-12.2zm38 0c-6.7 2.9-11.4 12-10 19.2 1.4 7.9 11.8 14.5 20.1 12.9 7.8-1.4 14.5-11.8 13-19.9-1.8-9.6-14.2-16.1-23.1-12.2zm38 0c-6.7 2.9-11.4 12-10 19.2 1.4 7.9 11.8 14.5 20.1 12.9 7.8-1.4 14.5-11.8 13-19.9-1.8-9.6-14.2-16.1-23.1-12.2zm76 0c-6.7 2.9-11.4 12-10 19.2 1.4 7.9 11.8 14.5 20.1 12.9 7.8-1.4 14.5-11.8 13-19.9-1.8-9.6-14.2-16.1-23.1-12.2zm114 0c-6.7 2.9-11.4 12-10 19.2 1.4 7.9 11.8 14.5 20.1 12.9 7.8-1.4 14.5-11.8 13-19.9-1.8-9.6-14.2-16.1-23.1-12.2zm114 0c-6.7 2.9-11.4 12-10 19.2 1.4 7.9 11.8 14.5 20.1 12.9 7.8-1.4 14.5-11.8 13-19.9-1.8-9.6-14.2-16.1-23.1-12.2zm38 0c-6.7 2.9-11.4 12-10 19.2 1.4 7.9 11.8 14.5 20.1 12.9 7.8-1.4 14.5-11.8 13-19.9-1.8-9.6-14.2-16.1-23.1-12.2zm76 0c-6.7 2.9-11.4 12-10 19.2 1.4 7.9 11.8 14.5 20.1 12.9 7.8-1.4 14.5-11.8 13-19.9-1.8-9.6-14.2-16.1-23.1-12.2zm38 0c-6.7 2.9-11.4 12-10 19.2 1.4 7.9 11.8 14.5 20.1 12.9 7.8-1.4 14.5-11.8 13-19.9-1.8-9.6-14.2-16.1-23.1-12.2zm190 0c-6.7 2.9-11.4 12-10 19.2 1.4 7.9 11.8 14.5 20.1 12.9 7.8-1.4 14.5-11.8 13-19.9-1.8-9.6-14.2-16.1-23.1-12.2zm-912 38c-6.7 2.9-11.4 12-10 19.2 1.4 7.9 11.8 14.5 20.1 12.9 7.8-1.4 14.5-11.8 13-19.9-1.8-9.6-14.2-16.1-23.1-12.2zm38 0c-6.7 2.9-11.4 12-10 19.2 1.4 7.9 11.8 14.5 20.1 12.9 7.8-1.4 14.5-11.8 13-19.9-1.8-9.6-14.2-16.1-23.1-12.2zm114 0c-6.7 2.9-11.4 12-10 19.2 1.4 7.9 11.8 14.5 20.1 12.9 7.8-1.4 14.5-11.8 13-19.9-1.8-9.6-14.2-16.1-23.1-12.2zm38 0c-6.7 2.9-11.4 12-10 19.2 1.4 7.9 11.8 14.5 20.1 12.9 7.8-1.4 14.5-11.8 13-19.9-1.8-9.6-14.2-16.1-23.1-12.2zm76 0c-6.7 2.9-11.4 12-10 19.2 1.4 7.9 11.8 14.5 20.1 12.9 7.8-1.4 14.5-11.8 13-19.9-1.8-9.6-14.2-16.1-23.1-12.2zm152 0c-6.7 2.9-11.4 12-10 19.2 1.4 7.9 11.8 14.5 20.1 12.9 7.8-1.4 14.5-11.8 13-19.9-1.8-9.6-14.2-16.1-23.1-12.2zm76 0c-6.7 2.9-11.4 12-10 19.2 1.4 7.9 11.8 14.5 20.1 12.9 7.8-1.4 14.5-11.8 13-19.9-1.8-9.6-14.2-16.1-23.1-12.2zm76 0c-6.7 2.9-11.4 12-10 19.2 1.4 7.9 11.8 14.5 20.1 12.9 7.8-1.4 14.5-11.8 13-19.9-1.8-9.6-14.2-16.1-23.1-12.2zm38 0c-6.7 2.9-11.4 12-10 19.2 1.4 7.9 11.8 14.5 20.1 12.9 7.8-1.4 14.5-11.8 13-19.9-1.8-9.6-14.2-16.1-23.1-12.2zm114 0c-6.7 2.9-11.4 12-10 19.2 1.4 7.9 11.8 14.5 20.1 12.9 7.8-1.4 14.5-11.8 13-19.9-1.8-9.6-14.2-16.1-23.1-12.2zm152 0c-6.7 2.9-11.4 12-10 19.2 1.4 7.9 11.8 14.5 20.1 12.9 7.8-1.4 14.5-11.8 13-19.9-1.8-9.6-14.2-16.1-23.1-12.2zm-874 38c-6.7 2.9-11.4 12-10 19.2 1.4 7.9 11.8 14.5 20.1 12.9 7.8-1.4 14.5-11.8 13-19.9-1.8-9.6-14.2-16.1-23.1-12.2zm76 0c-6.7 2.9-11.4 12-10 19.2 1.4 7.9 11.8 14.5 20.1 12.9 7.8-1.4 14.5-11.8 13-19.9-1.8-9.6-14.2-16.1-23.1-12.2zm38 0c-6.7 2.9-11.4 12-10 19.2 1.4 7.9 11.8 14.5 20.1 12.9 7.8-1.4 14.5-11.8 13-19.9-1.8-9.6-14.2-16.1-23.1-12.2zm76 0c-6.7 2.9-11.4 12-10 19.2 1.4 7.9 11.8 14.5 20.1 12.9 7.8-1.4 14.5-11.8 13-19.9-1.8-9.6-14.2-16.1-23.1-12.2zm38 0c-6.7 2.9-11.4 12-10 19.2 1.4 7.9 11.8 14.5 20.1 12.9 7.8-1.4 14.5-11.8 13-19.9-1.8-9.6-14.2-16.1-23.1-12.2zm38 0c-6.7 2.9-11.4 12-10 19.2 1.4 7.9 11.8 14.5 20.1 12.9 7.8-1.4 14.5-11.8 13-19.9-1.8-9.6-14.2-16.1-23.1-12.2zm38 0c-6.7 2.9-11.4 12-10 19.2 1.4 7.9 11.8 14.5 20.1 12.9 7.8-1.4 14.5-11.8 13-19.9-1.8-9.6-14.2-16.1-23.1-12.2zm38 0c-6.7 2.9-11.4 12-10 19.2 1.4 7.9 11.8 14.5 20.1 12.9 7.8-1.4 14.5-11.8 13-19.9-1.8-9.6-14.2-16.1-23.1-12.2zm38 0c-6.7 2.9-11.4 12-10 19.2 1.4 7.9 11.8 14.5 20.1 12.9 7.8-1.4 14.5-11.8 13-19.9-1.8-9.6-14.2-16.1-23.1-12.2zm76 0c-6.7 2.9-11.4 12-10 19.2 1.4 7.9 11.8 14.5 20.1 12.9 7.8-1.4 14.5-11.8 13-19.9-1.8-9.6-14.2-16.1-23.1-12.2zm76 0c-6.7 2.9-11.4 12-10 19.2 1.4 7.9 11.8 14.5 20.1 12.9 7.8-1.4 14.5-11.8 13-19.9-1.8-9.6-14.2-16.1-23.1-12.2zm38 0c-6.7 2.9-11.4 12-10 19.2 1.4 7.9 11.8 14.5 20.1 12.9 7.8-1.4 14.5-11.8 13-19.9-1.8-9.6-14.2-16.1-23.1-12.2zm76 0c-6.7 2.9-11.4 12-10 19.2 1.4 7.9 11.8 14.5 20.1 12.9 7.8-1.4 14.5-11.8 13-19.9-1.8-9.6-14.2-16.1-23.1-12.2zm38 0c-6.7 2.9-11.4 12-10 19.2 1.4 7.9 11.8 14.5 20.1 12.9 7.8-1.4 14.5-11.8 13-19.9-1.8-9.6-14.2-16.1-23.1-12.2zm38 0c-6.7 2.9-11.4 12-10 19.2 1.4 7.9 11.8 14.5 20.1 12.9 7.8-1.4 14.5-11.8 13-19.9-1.8-9.6-14.2-16.1-23.1-12.2zm38 0c-6.7 2.9-11.4 12-10 19.2 1.4 7.9 11.8 14.5 20.1 12.9 7.8-1.4 14.5-11.8 13-19.9-1.8-9.6-14.2-16.1-23.1-12.2zm38 0c-6.7 2.9-11.4 12-10 19.2 1.4 7.9 11.8 14.5 20.1 12.9 7.8-1.4 14.5-11.8 13-19.9-1.8-9.6-14.2-16.1-23.1-12.2zm76 0c-6.7 2.9-11.4 12-10 19.2 1.4 7.9 11.8 14.5 20.1 12.9 7.8-1.4 14.5-11.8 13-19.9-1.8-9.6-14.2-16.1-23.1-12.2zm38 0c-6.7 2.9-11.4 12-10 19.2 1.4 7.9 11.8 14.5 20.1 12.9 7.8-1.4 14.5-11.8 13-19.9-1.8-9.6-14.2-16.1-23.1-12.2zm-912 38c-6.7 2.9-11.4 12-10 19.2 1.4 7.9 11.8 14.5 20.1 12.9 7.8-1.4 14.5-11.8 13-19.9-1.8-9.6-14.2-16.1-23.1-12.2zm76 0c-6.7 2.9-11.4 12-10 19.2 1.4 7.9 11.8 14.5 20.1 12.9 7.8-1.4 14.5-11.8 13-19.9-1.8-9.6-14.2-16.1-23.1-12.2zm76 0c-6.7 2.9-11.4 12-10 19.2 1.4 7.9 11.8 14.5 20.1 12.9 7.8-1.4 14.5-11.8 13-19.9-1.8-9.6-14.2-16.1-23.1-12.2zm38 0c-6.7 2.9-11.4 12-10 19.2 1.4 7.9 11.8 14.5 20.1 12.9 7.8-1.4 14.5-11.8 13-19.9-1.8-9.6-14.2-16.1-23.1-12.2zm76 0c-6.7 2.9-11.4 12-10 19.2 1.4 7.9 11.8 14.5 20.1 12.9 7.8-1.4 14.5-11.8 13-19.9-1.8-9.6-14.2-16.1-23.1-12.2zm76 0c-6.7 2.9-11.4 12-10 19.2 1.4 7.9 11.8 14.5 20.1 12.9 7.8-1.4 14.5-11.8 13-19.9-1.8-9.6-14.2-16.1-23.1-12.2zm190 0c-6.7 2.9-11.4 12-10 19.2 1.4 7.9 11.8 14.5 20.1 12.9 7.8-1.4 14.5-11.8 13-19.9-1.8-9.6-14.2-16.1-23.1-12.2zm38 0c-6.7 2.9-11.4 12-10 19.2 1.4 7.9 11.8 14.5 20.1 12.9 7.8-1.4 14.5-11.8 13-19.9-1.8-9.6-14.2-16.1-23.1-12.2zm114 0c-6.7 2.9-11.4 12-10 19.2 1.4 7.9 11.8 14.5 20.1 12.9 7.8-1.4 14.5-11.8 13-19.9-1.8-9.6-14.2-16.1-23.1-12.2zm38 0c-6.7 2.9-11.4 12-10 19.2 1.4 7.9 11.8 14.5 20.1 12.9 7.8-1.4 14.5-11.8 13-19.9-1.8-9.6-14.2-16.1-23.1-12.2zm76 0c-6.7 2.9-11.4 12-10 19.2 1.4 7.9 11.8 14.5 20.1 12.9 7.8-1.4 14.5-11.8 13-19.9-1.8-9.6-14.2-16.1-23.1-12.2zm38 0c-6.7 2.9-11.4 12-10 19.2 1.4 7.9 11.8 14.5 20.1 12.9 7.8-1.4 14.5-11.8 13-19.9-1.8-9.6-14.2-16.1-23.1-12.2zm76 0c-6.7 2.9-11.4 12-10 19.2 1.4 7.9 11.8 14.5 20.1 12.9 7.8-1.4 14.5-11.8 13-19.9-1.8-9.6-14.2-16.1-23.1-12.2zm-912 38c-6.7 2.9-11.4 12-10 19.2 1.4 7.9 11.8 14.5 20.1 12.9 7.8-1.4 14.5-11.8 13-19.9-1.8-9.6-14.2-16.1-23.1-12.2zm152 0c-6.7 2.9-11.4 12-10 19.2 1.4 7.9 11.8 14.5 20.1 12.9 7.8-1.4 14.5-11.8 13-19.9-1.8-9.6-14.2-16.1-23.1-12.2zm38 0c-6.7 2.9-11.4 12-10 19.2 1.4 7.9 11.8 14.5 20.1 12.9 7.8-1.4 14.5-11.8 13-19.9-1.8-9.6-14.2-16.1-23.1-12.2zm38 0c-6.7 2.9-11.4 12-10 19.2 1.4 7.9 11.8 14.5 20.1 12.9 7.8-1.4 14.5-11.8 13-19.9-1.8-9.6-14.2-16.1-23.1-12.2zm38 0c-6.7 2.9-11.4 12-10 19.2 1.4 7.9 11.8 14.5 20.1 12.9 7.8-1.4 14.5-11.8 13-19.9-1.8-9.6-14.2-16.1-23.1-12.2zm38 0c-6.7 2.9-11.4 12-10 19.2 1.4 7.9 11.8 14.5 20.1 12.9 7.8-1.4 14.5-11.8 13-19.9-1.8-9.6-14.2-16.1-23.1-12.2zm190 0c-6.7 2.9-11.4 12-10 19.2 1.4 7.9 11.8 14.5 20.1 12.9 7.8-1.4 14.5-11.8 13-19.9-1.8-9.6-14.2-16.1-23.1-12.2zm38 0c-6.7 2.9-11.4 12-10 19.2 1.4 7.9 11.8 14.5 20.1 12.9 7.8-1.4 14.5-11.8 13-19.9-1.8-9.6-14.2-16.1-23.1-12.2zm76 0c-6.7 2.9-11.4 12-10 19.2 1.4 7.9 11.8 14.5 20.1 12.9 7.8-1.4 14.5-11.8 13-19.9-1.8-9.6-14.2-16.1-23.1-12.2zm38 0c-6.7 2.9-11.4 12-10 19.2 1.4 7.9 11.8 14.5 20.1 12.9 7.8-1.4 14.5-11.8 13-19.9-1.8-9.6-14.2-16.1-23.1-12.2zm38 0c-6.7 2.9-11.4 12-10 19.2 1.4 7.9 11.8 14.5 20.1 12.9 7.8-1.4 14.5-11.8 13-19.9-1.8-9.6-14.2-16.1-23.1-12.2zm38 0c-6.7 2.9-11.4 12-10 19.2 1.4 7.9 11.8 14.5 20.1 12.9 7.8-1.4 14.5-11.8 13-19.9-1.8-9.6-14.2-16.1-23.1-12.2zm38 0c-6.7 2.9-11.4 12-10 19.2 1.4 7.9 11.8 14.5 20.1 12.9 7.8-1.4 14.5-11.8 13-19.9-1.8-9.6-14.2-16.1-23.1-12.2zm76 0c-6.7 2.9-11.4 12-10 19.2 1.4 7.9 11.8 14.5 20.1 12.9 7.8-1.4 14.5-11.8 13-19.9-1.8-9.6-14.2-16.1-23.1-12.2zm-532 38c-6.7 2.9-11.4 12-10 19.2 1.4 7.9 11.8 14.5 20.1 12.9 7.8-1.4 14.5-11.8 13-19.9-1.8-9.6-14.2-16.1-23.1-12.2zm38 0c-6.7 2.9-11.4 12-10 19.2 1.4 7.9 11.8 14.5 20.1 12.9 7.8-1.4 14.5-11.8 13-19.9-1.8-9.6-14.2-16.1-23.1-12.2zm76 0c-6.7 2.9-11.4 12-10 19.2 1.4 7.9 11.8 14.5 20.1 12.9 7.8-1.4 14.5-11.8 13-19.9-1.8-9.6-14.2-16.1-23.1-12.2zm114 0c-6.7 2.9-11.4 12-10 19.2 1.4 7.9 11.8 14.5 20.1 12.9 7.8-1.4 14.5-11.8 13-19.9-1.8-9.6-14.2-16.1-23.1-12.2zm76 0c-6.7 2.9-11.4 12-10 19.2 1.4 7.9 11.8 14.5 20.1 12.9 7.8-1.4 14.5-11.8 13-19.9-1.8-9.6-14.2-16.1-23.1-12.2zm152 0c-6.7 2.9-11.4 12-10 19.2 1.4 7.9 11.8 14.5 20.1 12.9 7.8-1.4 14.5-11.8 13-19.9-1.8-9.6-14.2-16.1-23.1-12.2zm-720 36.2c-25.3 5.3-46.1 26.9-51.1 53.1-2.2 11.5-2.1 147.1.2 158.1 5.2 25.8 26.6 46.7 53.1 51.8 11.5 2.2 147.1 2.1 158.1-.2 25.8-5.2 46.7-26.6 51.8-53.1 2.2-11.5 2.1-147.1-.2-158.1-5.2-25.8-26.6-46.7-53.1-51.8-11.1-2.1-148.5-1.9-158.8.2zm139.8 37.9c17 4.4 29.6 17.1 34.2 34.6 2.2 8.1 2.2 109.9 0 118.2-4.4 17-17.1 29.6-34.6 34.2-8.1 2.2-109.9 2.2-118.2 0-17-4.4-29.6-17.1-34.2-34.6-2.2-8.1-2.2-109.9 0-118.2 4.4-16.8 17-29.5 34.2-34.2 7.5-2.1 110.7-2.1 118.6 0z"/><path d="M646.4 1312.8c-6.2 2.2-10.3 5.4-13.8 10.7-5.3 8-5.7 11.4-5.4 47.2.3 31 .4 33 2.4 37.3 2.9 6.1 7.8 10.8 14.4 13.9l5.5 2.6h35c33.6 0 35.2-.1 39.5-2.1 6.1-2.9 10.8-7.8 13.9-14.4l2.6-5.5v-35c0-33.6-.1-35.2-2.1-39.5-2.9-6.1-7.8-10.8-14.4-13.9l-5.5-2.6-33.5-.2c-30-.3-34-.1-38.6 1.5zm221.1-74.4c-6.7 2.9-11.4 12-10 19.2 1.4 7.9 11.8 14.5 20.1 12.9 7.8-1.4 14.5-11.8 13-19.9-1.8-9.6-14.2-16.1-23.1-12.2zm76 0c-6.7 2.9-11.4 12-10 19.2 1.4 7.9 11.8 14.5 20.1 12.9 7.8-1.4 14.5-11.8 13-19.9-1.8-9.6-14.2-16.1-23.1-12.2zm38 0c-6.7 2.9-11.4 12-10 19.2 1.4 7.9 11.8 14.5 20.1 12.9 7.8-1.4 14.5-11.8 13-19.9-1.8-9.6-14.2-16.1-23.1-12.2zm76 0c-6.7 2.9-11.4 12-10 19.2 1.4 7.9 11.8 14.5 20.1 12.9 7.8-1.4 14.5-11.8 13-19.9-1.8-9.6-14.2-16.1-23.1-12.2zm114 0c-6.7 2.9-11.4 12-10 19.2 1.4 7.9 11.8 14.5 20.1 12.9 7.8-1.4 14.5-11.8 13-19.9-1.8-9.6-14.2-16.1-23.1-12.2zm76 0c-6.7 2.9-11.4 12-10 19.2 1.4 7.9 11.8 14.5 20.1 12.9 7.8-1.4 14.5-11.8 13-19.9-1.8-9.6-14.2-16.1-23.1-12.2zm76 0c-6.7 2.9-11.4 12-10 19.2 1.4 7.9 11.8 14.5 20.1 12.9 7.8-1.4 14.5-11.8 13-19.9-1.8-9.6-14.2-16.1-23.1-12.2zm152 0c-6.7 2.9-11.4 12-10 19.2 1.4 7.9 11.8 14.5 20.1 12.9 7.8-1.4 14.5-11.8 13-19.9-1.8-9.6-14.2-16.1-23.1-12.2zm-608 38c-6.7 2.9-11.4 12-10 19.2 1.4 7.9 11.8 14.5 20.1 12.9 7.8-1.4 14.5-11.8 13-19.9-1.8-9.6-14.2-16.1-23.1-12.2zm114 0c-6.7 2.9-11.4 12-10 19.2 1.4 7.9 11.8 14.5 20.1 12.9 7.8-1.4 14.5-11.8 13-19.9-1.8-9.6-14.2-16.1-23.1-12.2zm38 0c-6.7 2.9-11.4 12-10 19.2 1.4 7.9 11.8 14.5 20.1 12.9 7.8-1.4 14.5-11.8 13-19.9-1.8-9.6-14.2-16.1-23.1-12.2zm76 0c-6.7 2.9-11.4 12-10 19.2 1.4 7.9 11.8 14.5 20.1 12.9 7.8-1.4 14.5-11.8 13-19.9-1.8-9.6-14.2-16.1-23.1-12.2zm76 0c-6.7 2.9-11.4 12-10 19.2 1.4 7.9 11.8 14.5 20.1 12.9 7.8-1.4 14.5-11.8 13-19.9-1.8-9.6-14.2-16.1-23.1-12.2zm152 0c-6.7 2.9-11.4 12-10 19.2 1.4 7.9 11.8 14.5 20.1 12.9 7.8-1.4 14.5-11.8 13-19.9-1.8-9.6-14.2-16.1-23.1-12.2zm114 0c-6.7 2.9-11.4 12-10 19.2 1.4 7.9 11.8 14.5 20.1 12.9 7.8-1.4 14.5-11.8 13-19.9-1.8-9.6-14.2-16.1-23.1-12.2zm-494 38c-6.7 2.9-11.4 12-10 19.2 1.4 7.9 11.8 14.5 20.1 12.9 7.8-1.4 14.5-11.8 13-19.9-1.8-9.6-14.2-16.1-23.1-12.2zm114 0c-6.7 2.9-11.4 12-10 19.2 1.4 7.9 11.8 14.5 20.1 12.9 7.8-1.4 14.5-11.8 13-19.9-1.8-9.6-14.2-16.1-23.1-12.2zm38 0c-6.7 2.9-11.4 12-10 19.2 1.4 7.9 11.8 14.5 20.1 12.9 7.8-1.4 14.5-11.8 13-19.9-1.8-9.6-14.2-16.1-23.1-12.2zm38 0c-6.7 2.9-11.4 12-10 19.2 1.4 7.9 11.8 14.5 20.1 12.9 7.8-1.4 14.5-11.8 13-19.9-1.8-9.6-14.2-16.1-23.1-12.2zm38 0c-6.7 2.9-11.4 12-10 19.2 1.4 7.9 11.8 14.5 20.1 12.9 7.8-1.4 14.5-11.8 13-19.9-1.8-9.6-14.2-16.1-23.1-12.2zm38 0c-6.7 2.9-11.4 12-10 19.2 1.4 7.9 11.8 14.5 20.1 12.9 7.8-1.4 14.5-11.8 13-19.9-1.8-9.6-14.2-16.1-23.1-12.2zm38 0c-6.7 2.9-11.4 12-10 19.2 1.4 7.9 11.8 14.5 20.1 12.9 7.8-1.4 14.5-11.8 13-19.9-1.8-9.6-14.2-16.1-23.1-12.2zm38 0c-6.7 2.9-11.4 12-10 19.2 1.4 7.9 11.8 14.5 20.1 12.9 7.8-1.4 14.5-11.8 13-19.9-1.8-9.6-14.2-16.1-23.1-12.2zm38 0c-6.7 2.9-11.4 12-10 19.2 1.4 7.9 11.8 14.5 20.1 12.9 7.8-1.4 14.5-11.8 13-19.9-1.8-9.6-14.2-16.1-23.1-12.2zm76 0c-6.7 2.9-11.4 12-10 19.2 1.4 7.9 11.8 14.5 20.1 12.9 7.8-1.4 14.5-11.8 13-19.9-1.8-9.6-14.2-16.1-23.1-12.2zm-456 38c-6.7 2.9-11.4 12-10 19.2 1.4 7.9 11.8 14.5 20.1 12.9 7.8-1.4 14.5-11.8 13-19.9-1.8-9.6-14.2-16.1-23.1-12.2zm38 0c-6.7 2.9-11.4 12-10 19.2 1.4 7.9 11.8 14.5 20.1 12.9 7.8-1.4 14.5-11.8 13-19.9-1.8-9.6-14.2-16.1-23.1-12.2zm114 0c-6.7 2.9-11.4 12-10 19.2 1.4 7.9 11.8 14.5 20.1 12.9 7.8-1.4 14.5-11.8 13-19.9-1.8-9.6-14.2-16.1-23.1-12.2zm38 0c-6.7 2.9-11.4 12-10 19.2 1.4 7.9 11.8 14.5 20.1 12.9 7.8-1.4 14.5-11.8 13-19.9-1.8-9.6-14.2-16.1-23.1-12.2zm76 0c-6.7 2.9-11.4 12-10 19.2 1.4 7.9 11.8 14.5 20.1 12.9 7.8-1.4 14.5-11.8 13-19.9-1.8-9.6-14.2-16.1-23.1-12.2zm38 0c-6.7 2.9-11.4 12-10 19.2 1.4 7.9 11.8 14.5 20.1 12.9 7.8-1.4 14.5-11.8 13-19.9-1.8-9.6-14.2-16.1-23.1-12.2zm190 0c-6.7 2.9-11.4 12-10 19.2 1.4 7.9 11.8 14.5 20.1 12.9 7.8-1.4 14.5-11.8 13-19.9-1.8-9.6-14.2-16.1-23.1-12.2zm38 0c-6.7 2.9-11.4 12-10 19.2 1.4 7.9 11.8 14.5 20.1 12.9 7.8-1.4 14.5-11.8 13-19.9-1.8-9.6-14.2-16.1-23.1-12.2zm-418 38c-6.7 2.9-11.4 12-10 19.2 1.4 7.9 11.8 14.5 20.1 12.9 7.8-1.4 14.5-11.8 13-19.9-1.8-9.6-14.2-16.1-23.1-12.2zm76 0c-6.7 2.9-11.4 12-10 19.2 1.4 7.9 11.8 14.5 20.1 12.9 7.8-1.4 14.5-11.8 13-19.9-1.8-9.6-14.2-16.1-23.1-12.2zm38 0c-6.7 2.9-11.4 12-10 19.2 1.4 7.9 11.8 14.5 20.1 12.9 7.8-1.4 14.5-11.8 13-19.9-1.8-9.6-14.2-16.1-23.1-12.2zm38 0c-6.7 2.9-11.4 12-10 19.2 1.4 7.9 11.8 14.5 20.1 12.9 7.8-1.4 14.5-11.8 13-19.9-1.8-9.6-14.2-16.1-23.1-12.2zm152 0c-6.7 2.9-11.4 12-10 19.2 1.4 7.9 11.8 14.5 20.1 12.9 7.8-1.4 14.5-11.8 13-19.9-1.8-9.6-14.2-16.1-23.1-12.2zm38 0c-6.7 2.9-11.4 12-10 19.2 1.4 7.9 11.8 14.5 20.1 12.9 7.8-1.4 14.5-11.8 13-19.9-1.8-9.6-14.2-16.1-23.1-12.2zm76 0c-6.7 2.9-11.4 12-10 19.2 1.4 7.9 11.8 14.5 20.1 12.9 7.8-1.4 14.5-11.8 13-19.9-1.8-9.6-14.2-16.1-23.1-12.2zm-608 38c-6.7 2.9-11.4 12-10 19.2 1.4 7.9 11.8 14.5 20.1 12.9 7.8-1.4 14.5-11.8 13-19.9-1.8-9.6-14.2-16.1-23.1-12.2zm114 0c-6.7 2.9-11.4 12-10 19.2 1.4 7.9 11.8 14.5 20.1 12.9 7.8-1.4 14.5-11.8 13-19.9-1.8-9.6-14.2-16.1-23.1-12.2zm190 0c-6.7 2.9-11.4 12-10 19.2 1.4 7.9 11.8 14.5 20.1 12.9 7.8-1.4 14.5-11.8 13-19.9-1.8-9.6-14.2-16.1-23.1-12.2zm38 0c-6.7 2.9-11.4 12-10 19.2 1.4 7.9 11.8 14.5 20.1 12.9 7.8-1.4 14.5-11.8 13-19.9-1.8-9.6-14.2-16.1-23.1-12.2zm38 0c-6.7 2.9-11.4 12-10 19.2 1.4 7.9 11.8 14.5 20.1 12.9 7.8-1.4 14.5-11.8 13-19.9-1.8-9.6-14.2-16.1-23.1-12.2zm38 0c-6.7 2.9-11.4 12-10 19.2 1.4 7.9 11.8 14.5 20.1 12.9 7.8-1.4 14.5-11.8 13-19.9-1.8-9.6-14.2-16.1-23.1-12.2zm38 0c-6.7 2.9-11.4 12-10 19.2 1.4 7.9 11.8 14.5 20.1 12.9 7.8-1.4 14.5-11.8 13-19.9-1.8-9.6-14.2-16.1-23.1-12.2zm152 0c-6.7 2.9-11.4 12-10 19.2 1.4 7.9 11.8 14.5 20.1 12.9 7.8-1.4 14.5-11.8 13-19.9-1.8-9.6-14.2-16.1-23.1-12.2zm-608 38c-6.7 2.9-11.4 12-10 19.2 1.4 7.9 11.8 14.5 20.1 12.9 7.8-1.4 14.5-11.8 13-19.9-1.8-9.6-14.2-16.1-23.1-12.2zm76 0c-6.7 2.9-11.4 12-10 19.2 1.4 7.9 11.8 14.5 20.1 12.9 7.8-1.4 14.5-11.8 13-19.9-1.8-9.6-14.2-16.1-23.1-12.2zm76 0c-6.7 2.9-11.4 12-10 19.2 1.4 7.9 11.8 14.5 20.1 12.9 7.8-1.4 14.5-11.8 13-19.9-1.8-9.6-14.2-16.1-23.1-12.2zm76 0c-6.7 2.9-11.4 12-10 19.2 1.4 7.9 11.8 14.5 20.1 12.9 7.8-1.4 14.5-11.8 13-19.9-1.8-9.6-14.2-16.1-23.1-12.2zm76 0c-6.7 2.9-11.4 12-10 19.2 1.4 7.9 11.8 14.5 20.1 12.9 7.8-1.4 14.5-11.8 13-19.9-1.8-9.6-14.2-16.1-23.1-12.2zm76 0c-6.7 2.9-11.4 12-10 19.2 1.4 7.9 11.8 14.5 20.1 12.9 7.8-1.4 14.5-11.8 13-19.9-1.8-9.6-14.2-16.1-23.1-12.2zm114 0c-6.7 2.9-11.4 12-10 19.2 1.4 7.9 11.8 14.5 20.1 12.9 7.8-1.4 14.5-11.8 13-19.9-1.8-9.6-14.2-16.1-23.1-12.2zm114 0c-6.7 2.9-11.4 12-10 19.2 1.4 7.9 11.8 14.5 20.1 12.9 7.8-1.4 14.5-11.8 13-19.9-1.8-9.6-14.2-16.1-23.1-12.2z"/></svg>