<?xml version="1.0" encoding="UTF-8" standalone="no"?>
<!-- Created with Inkscape (http://www.inkscape.org/) -->

<svg
   version="1.1"
   id="svg115"
   width="3733.2788"
   height="383.51147"
   viewBox="0 0 3733.2788 383.51147"
   xmlns="http://www.w3.org/2000/svg"
   xmlns:svg="http://www.w3.org/2000/svg">
  <defs
     id="defs119" />
  <g
     id="g121"
     transform="translate(-30.425123,-1457.1158)">
    <path
       style="opacity:1;fill:none;stroke:#000000;stroke-width:5;stroke-dasharray:none;stroke-opacity:1"
       d="M 32.925657,1834.251 C 32.517182,1725.9033 265.32403,1707.3431 265.32403,1707.3431 l 67.17389,-90.7136 51.77434,62.1195 c 221.74962,-14.3336 546.97931,68.055 583.17294,76.0647 41.5105,9.1864 186.2338,14.8648 248.8961,14.8648 97.1905,0 187.0056,-19.3423 231.7644,-30.8517 42.8406,12.7882 161.4245,37.4349 233.6778,36.7659 65.8596,-0.6098 251.9516,-12.0954 291.6826,-13.906 76.3872,-3.481 276.3785,-22.5359 304.9627,-33.7251 61.0937,-21.0737 101.7631,-59.5799 152.1616,-102.9328 l 108.6865,92.8633 c 117.6481,40.6302 204.4322,32.2132 313.1146,-12.3072 l 71.6054,-111.8835 29.0898,-7.8319 114.1212,-125.3096 146.2238,120.7261 c 22.0319,-13.773 29.7999,-16.4101 48.8447,-27.9224 297.3018,-194.4702 500.7249,95.0655 498.9154,284.7615 0,0 -2668.4313,-2.3837 -3728.266143,-3.8741 z"
       id="path502" />
  </g>
</svg>
