solid OpenSCAD_Model
  facet normal 1 -0 0
    outer loop
      vertex 78 0 23.5
      vertex 78 38 0
      vertex 78 38 23.5
    endloop
  endfacet
  facet normal 1 0 0
    outer loop
      vertex 78 38 0
      vertex 78 0 23.5
      vertex 78 0 0
    endloop
  endfacet
  facet normal 0 0 1
    outer loop
      vertex 51.25 38 23.5
      vertex 1.5 36.5 23.5
      vertex 51.25 36.5 23.5
    endloop
  endfacet
  facet normal 0 0 1
    outer loop
      vertex 1.5 36.5 23.5
      vertex 0 38 23.5
      vertex 1.5 1.5 23.5
    endloop
  endfacet
  facet normal -0 0 1
    outer loop
      vertex 0 38 23.5
      vertex 1.5 36.5 23.5
      vertex 51.25 38 23.5
    endloop
  endfacet
  facet normal 0 0 1
    outer loop
      vertex 78 38 23.5
      vertex 76.5 36.5 23.5
      vertex 78 0 23.5
    endloop
  endfacet
  facet normal -0 0 1
    outer loop
      vertex 64.75 38 23.5
      vertex 76.5 36.5 23.5
      vertex 78 38 23.5
    endloop
  endfacet
  facet normal 0 0 1
    outer loop
      vertex 76.5 36.5 23.5
      vertex 64.75 38 23.5
      vertex 64.75 36.5 23.5
    endloop
  endfacet
  facet normal -0 0 1
    outer loop
      vertex 76.5 1.5 23.5
      vertex 78 0 23.5
      vertex 76.5 36.5 23.5
    endloop
  endfacet
  facet normal -0 0 1
    outer loop
      vertex 1.5 1.5 23.5
      vertex 78 0 23.5
      vertex 76.5 1.5 23.5
    endloop
  endfacet
  facet normal 0 0 1
    outer loop
      vertex 1.5 1.5 23.5
      vertex 0 0 23.5
      vertex 78 0 23.5
    endloop
  endfacet
  facet normal 0 0 1
    outer loop
      vertex 0 0 23.5
      vertex 1.5 1.5 23.5
      vertex 0 38 23.5
    endloop
  endfacet
  facet normal 0 0 -1
    outer loop
      vertex 0 0 0
      vertex 78 38 0
      vertex 78 0 0
    endloop
  endfacet
  facet normal -0 0 -1
    outer loop
      vertex 78 38 0
      vertex 0 0 0
      vertex 0 38 0
    endloop
  endfacet
  facet normal -1 0 0
    outer loop
      vertex 0 0 0
      vertex 0 38 23.5
      vertex 0 38 0
    endloop
  endfacet
  facet normal -1 -0 0
    outer loop
      vertex 0 38 23.5
      vertex 0 0 0
      vertex 0 0 23.5
    endloop
  endfacet
  facet normal 0 1 0
    outer loop
      vertex 78 38 23.5
      vertex 64.75 38 5.5
      vertex 64.75 38 23.5
    endloop
  endfacet
  facet normal 0 1 0
    outer loop
      vertex 64.75 38 5.5
      vertex 78 38 0
      vertex 51.25 38 5.5
    endloop
  endfacet
  facet normal 0 1 -0
    outer loop
      vertex 78 38 0
      vertex 64.75 38 5.5
      vertex 78 38 23.5
    endloop
  endfacet
  facet normal 0 1 -0
    outer loop
      vertex 51.25 38 5.5
      vertex 0 38 23.5
      vertex 51.25 38 23.5
    endloop
  endfacet
  facet normal 0 1 0
    outer loop
      vertex 51.25 38 5.5
      vertex 0 38 0
      vertex 0 38 23.5
    endloop
  endfacet
  facet normal 0 1 0
    outer loop
      vertex 0 38 0
      vertex 51.25 38 5.5
      vertex 78 38 0
    endloop
  endfacet
  facet normal 0 -1 0
    outer loop
      vertex 0 0 0
      vertex 78 0 23.5
      vertex 0 0 23.5
    endloop
  endfacet
  facet normal 0 -1 -0
    outer loop
      vertex 78 0 23.5
      vertex 0 0 0
      vertex 78 0 0
    endloop
  endfacet
  facet normal -1 0 0
    outer loop
      vertex 76.5 1.5 1.5
      vertex 76.5 36.5 23.5
      vertex 76.5 36.5 1.5
    endloop
  endfacet
  facet normal -1 -0 0
    outer loop
      vertex 76.5 36.5 23.5
      vertex 76.5 1.5 1.5
      vertex 76.5 1.5 23.5
    endloop
  endfacet
  facet normal -0 0 1
    outer loop
      vertex 1.5 36.5 1.5
      vertex 76.5 1.5 1.5
      vertex 76.5 36.5 1.5
    endloop
  endfacet
  facet normal 0 0 1
    outer loop
      vertex 76.5 1.5 1.5
      vertex 1.5 36.5 1.5
      vertex 1.5 1.5 1.5
    endloop
  endfacet
  facet normal 1 -0 0
    outer loop
      vertex 1.5 1.5 23.5
      vertex 1.5 36.5 1.5
      vertex 1.5 36.5 23.5
    endloop
  endfacet
  facet normal 1 0 0
    outer loop
      vertex 1.5 36.5 1.5
      vertex 1.5 1.5 23.5
      vertex 1.5 1.5 1.5
    endloop
  endfacet
  facet normal 0 -1 0
    outer loop
      vertex 1.5 36.5 23.5
      vertex 51.25 36.5 5.5
      vertex 51.25 36.5 23.5
    endloop
  endfacet
  facet normal 0 -1 0
    outer loop
      vertex 76.5 36.5 1.5
      vertex 51.25 36.5 5.5
      vertex 1.5 36.5 1.5
    endloop
  endfacet
  facet normal 0 -1 0
    outer loop
      vertex 1.5 36.5 1.5
      vertex 51.25 36.5 5.5
      vertex 1.5 36.5 23.5
    endloop
  endfacet
  facet normal 0 -1 0
    outer loop
      vertex 64.75 36.5 5.5
      vertex 76.5 36.5 23.5
      vertex 64.75 36.5 23.5
    endloop
  endfacet
  facet normal 0 -1 0
    outer loop
      vertex 64.75 36.5 5.5
      vertex 76.5 36.5 1.5
      vertex 76.5 36.5 23.5
    endloop
  endfacet
  facet normal 0 -1 0
    outer loop
      vertex 51.25 36.5 5.5
      vertex 76.5 36.5 1.5
      vertex 64.75 36.5 5.5
    endloop
  endfacet
  facet normal 0 1 -0
    outer loop
      vertex 76.5 1.5 1.5
      vertex 1.5 1.5 23.5
      vertex 76.5 1.5 23.5
    endloop
  endfacet
  facet normal 0 1 0
    outer loop
      vertex 1.5 1.5 23.5
      vertex 76.5 1.5 1.5
      vertex 1.5 1.5 1.5
    endloop
  endfacet
  facet normal -1 0 0
    outer loop
      vertex 64.75 36.5 5.5
      vertex 64.75 38 23.5
      vertex 64.75 38 5.5
    endloop
  endfacet
  facet normal -1 -0 0
    outer loop
      vertex 64.75 38 23.5
      vertex 64.75 36.5 5.5
      vertex 64.75 36.5 23.5
    endloop
  endfacet
  facet normal -0 0 1
    outer loop
      vertex 51.25 38 5.5
      vertex 64.75 36.5 5.5
      vertex 64.75 38 5.5
    endloop
  endfacet
  facet normal 0 0 1
    outer loop
      vertex 64.75 36.5 5.5
      vertex 51.25 38 5.5
      vertex 51.25 36.5 5.5
    endloop
  endfacet
  facet normal 1 -0 0
    outer loop
      vertex 51.25 36.5 23.5
      vertex 51.25 38 5.5
      vertex 51.25 38 23.5
    endloop
  endfacet
  facet normal 1 0 0
    outer loop
      vertex 51.25 38 5.5
      vertex 51.25 36.5 23.5
      vertex 51.25 36.5 5.5
    endloop
  endfacet
endsolid OpenSCAD_Model
