  0
SECTION
  2
HEADER
  9
$ACADVER
  1
AC1014
  9
$HANDSEED
  5
FFFF
  9
$MEASUREMENT
 70
     1
  0
ENDSEC
  0
SECTION
  2
TABLES
  0
TABLE
  2
VPORT
  5
8
330
0
100
AcDbSymbolTable
 70
     4
  0
VPORT
  5
2E
330
8
100
AcDbSymbolTableRecord
100
AcDbViewportTableRecord
  2
*ACTIVE
 70
     0
 10
0.0
 20
0.0
 11
1.0
 21
1.0
 12
210.0
 22
148.5
 13
0.0
 23
0.0
 14
10.0
 24
10.0
 15
10.0
 25
10.0
 16
0.0
 26
0.0
 36
1.0
 17
0.0
 27
0.0
 37
0.0
 40
341.0
 41
1.24
 42
50.0
 43
0.0
 44
0.0
 50
0.0
 51
0.0
 71
     0
 72
   100
 73
     1
 74
     3
 75
     0
 76
     0
 77
     0
 78
     0
  0
ENDTAB
  0
TABLE
  2
LTYPE
  5
5
330
0
100
AcDbSymbolTable
 70
     1
  0
LTYPE
  5
14
330
5
100
AcDbSymbolTableRecord
100
AcDbLinetypeTableRecord
  2
BYBLOCK
 70
     0
  3

 72
    65
 73
     0
 40
0.0
  0
LTYPE
  5
15
330
5
100
AcDbSymbolTableRecord
100
AcDbLinetypeTableRecord
  2
BYLAYER
 70
     0
  3

 72
    65
 73
     0
 40
0.0
  0
LTYPE
  5
16
330
5
100
AcDbSymbolTableRecord
100
AcDbLinetypeTableRecord
  2
CONTINUOUS
 70
     0
  3
Solid line
 72
    65
 73
     0
 40
0.0
  0
ENDTAB
  0
TABLE
  2
LAYER
  5
2
100
AcDbSymbolTable
 70
2
  0
LAYER
  5
50
100
AcDbSymbolTableRecord
100
AcDbLayerTableRecord
  2
0
 70
0
  6
CONTINUOUS
  0
LAYER
  5
51
100
AcDbSymbolTableRecord
100
AcDbLayerTableRecord
  2
outline_chunky
 70
0
  6
CONTINUOUS
  0
ENDTAB
  0
TABLE
  2
STYLE
  5
3
330
0
100
AcDbSymbolTable
 70
     1
  0
STYLE
  5
11
330
3
100
AcDbSymbolTableRecord
100
AcDbTextStyleTableRecord
  2
STANDARD
 70
     0
 40
0.0
 41
1.0
 50
0.0
 71
     0
 42
2.5
  3
txt
  4

  0
ENDTAB
  0
TABLE
  2
VIEW
  5
6
330
0
100
AcDbSymbolTable
 70
     0
  0
ENDTAB
  0
TABLE
  2
UCS
  5
7
330
0
100
AcDbSymbolTable
 70
     0
  0
ENDTAB
  0
TABLE
  2
APPID
  5
9
330
0
100
AcDbSymbolTable
 70
     2
  0
APPID
  5
12
330
9
100
AcDbSymbolTableRecord
100
AcDbRegAppTableRecord
  2
ACAD
 70
     0
  0
ENDTAB
  0
TABLE
  2
DIMSTYLE
  5
A
330
0
100
AcDbSymbolTable
 70
     1
  0
DIMSTYLE
105
27
330
A
100
AcDbSymbolTableRecord
100
AcDbDimStyleTableRecord
  2
ISO-25
 70
     0
  3

  4

  5

  6

  7

 40
1.0
 41
2.5
 42
0.625
 43
3.75
 44
1.25
 45
0.0
 46
0.0
 47
0.0
 48
0.0
140
2.5
141
2.5
142
0.0
143
0.03937007874016
144
1.0
145
0.0
146
1.0
147
0.625
 71
     0
 72
     0
 73
     0
 74
     0
 75
     0
 76
     0
 77
     1
 78
     8
170
     0
171
     3
172
     1
173
     0
174
     0
175
     0
176
     0
177
     0
178
     0
270
     2
271
     2
272
     2
273
     2
274
     3
340
11
275
     0
280
     0
281
     0
282
     0
283
     0
284
     8
285
     0
286
     0
287
     3
288
     0
  0
ENDTAB
  0
TABLE
  2
BLOCK_RECORD
  5
1
330
0
100
AcDbSymbolTable
 70
     1
  0
BLOCK_RECORD
  5
1F
330
1
100
AcDbSymbolTableRecord
100
AcDbBlockTableRecord
  2
*MODEL_SPACE
  0
BLOCK_RECORD
  5
1B
330
1
100
AcDbSymbolTableRecord
100
AcDbBlockTableRecord
  2
*PAPER_SPACE
  0
ENDTAB
  0
ENDSEC
  0
SECTION
  2
BLOCKS
  0
BLOCK
  5
20
330
1F
100
AcDbEntity
  8
0
100
AcDbBlockBegin
  2
*MODEL_SPACE
 70
     0
 10
0.0
 20
0.0
 30
0.0
  3
*MODEL_SPACE
  1

  0
ENDBLK
  5
21
330
1F
100
AcDbEntity
  8
0
100
AcDbBlockEnd
  0
BLOCK
  5
1C
330
1B
100
AcDbEntity
 67
     1
  8
0
100
AcDbBlockBegin
  2
*PAPER_SPACE
  1

  0
ENDBLK
  5
1D
330
1B
100
AcDbEntity
 67
     1
  8
0
100
AcDbBlockEnd
  0
ENDSEC
  0
SECTION
  2
ENTITIES
  0
LWPOLYLINE
  5
100
100
AcDbEntity
  8
outline_chunky
 62
5
100
AcDbPolyline
 90
58
 70
1
 10
16.082124
 20
33.435793
 30
0.0
 10
14.775444
 20
48.433884
 30
0.0
 10
15.030248
 20
66.316251
 30
0.0
 10
17.015592
 20
102.983691
 30
0.0
 10
17.215744
 20
116.998168
 30
0.0
 10
16.667773
 20
129.815087
 30
0.0
 10
15.206850
 20
142.695930
 30
0.0
 10
12.668141
 20
156.902124
 30
0.0
 10
3.698039
 20
194.336538
 30
0.0
 10
2.190072
 20
201.836046
 30
0.0
 10
1.068506
 20
210.992244
 30
0.0
 10
0.197481
 20
232.294880
 30
0.0
 10
0.554476
 20
243.451459
 30
0.0
 10
1.510779
 20
254.284930
 30
0.0
 10
3.119616
 20
264.300414
 30
0.0
 10
5.434215
 20
273.002904
 30
0.0
 10
8.464564
 20
279.976077
 30
0.0
 10
12.787219
 20
286.372565
 30
0.0
 10
18.471899
 20
291.605282
 30
0.0
 10
21.846787
 20
293.601749
 30
0.0
 10
25.588328
 20
295.087093
 30
0.0
 10
33.208140
 20
296.503011
 30
0.0
 10
41.015325
 20
296.524706
 30
0.0
 10
48.571007
 20
295.607211
 30
0.0
 10
55.436302
 20
294.205263
 30
0.0
 10
65.046770
 20
290.935463
 30
0.0
 10
74.944372
 20
285.702057
 30
0.0
 10
84.176534
 20
278.941398
 30
0.0
 10
91.790676
 20
271.089834
 30
0.0
 10
98.174913
 20
262.423698
 30
0.0
 10
103.058836
 20
254.520435
 30
0.0
 10
106.644625
 20
247.043072
 30
0.0
 10
109.134484
 20
239.654636
 30
0.0
 10
110.730596
 20
232.018099
 30
0.0
 10
111.635151
 20
223.796542
 30
0.0
 10
112.178327
 20
204.250237
 30
0.0
 10
111.415814
 20
188.650377
 30
0.0
 10
109.473635
 20
173.727295
 30
0.0
 10
105.019226
 20
144.247949
 30
0.0
 10
101.591256
 20
110.185200
 30
0.0
 10
99.486725
 20
76.328720
 30
0.0
 10
98.547026
 20
50.179287
 30
0.0
 10
97.383505
 20
37.185865
 30
0.0
 10
95.207561
 20
25.196668
 30
0.0
 10
92.851274
 20
18.222225
 30
0.0
 10
89.347799
 20
12.081960
 30
0.0
 10
84.532023
 20
6.954335
 30
0.0
 10
78.238855
 20
3.017890
 30
0.0
 10
69.041690
 20
-0.209709
 30
0.0
 10
59.321951
 20
-1.550935
 30
0.0
 10
48.890298
 20
-0.993378
 30
0.0
 10
37.557377
 20
1.475370
 30
0.0
 10
33.245242
 20
3.325654
 30
0.0
 10
29.318252
 20
6.154790
 30
0.0
 10
25.816364
 20
9.779741
 30
0.0
 10
22.779544
 20
14.017493
 30
0.0
 10
18.260940
 20
23.599219
 30
0.0
 10
16.082124
 20
33.435713
 30
0.0
  0
ENDSEC
  0
SECTION
  2
OBJECTS
  0
DICTIONARY
  5
C
330
0
100
AcDbDictionary
  3
ACAD_GROUP
350
D
  3
ACAD_MLINESTYLE
350
17
  0
DICTIONARY
  5
D
330
C
100
AcDbDictionary
  0
DICTIONARY
  5
1A
330
C
100
AcDbDictionary
  0
DICTIONARY
  5
17
330
C
100
AcDbDictionary
  3
STANDARD
350
18
  0
DICTIONARY
  5
19
330
C
100
AcDbDictionary
  0
ENDSEC
  0
EOF
