<?xml version="1.0" encoding="UTF-8" standalone="no"?>
<!-- Generator: Adobe Illustrator 27.5.0, SVG Export Plug-In . SVG Version: 6.00 Build 0)  -->

<svg
   version="1.1"
   id="Layer_1"
   x="0px"
   y="0px"
   viewBox="0 0 151.09605 72.849999"
   xml:space="preserve"
   sodipodi:docname="zonai zelda tabard vectors.svg"
   inkscape:version="1.1.2 (0a00cf5339, 2022-02-04)"
   width="151.09605"
   height="72.849998"
   xmlns:inkscape="http://www.inkscape.org/namespaces/inkscape"
   xmlns:sodipodi="http://sodipodi.sourceforge.net/DTD/sodipodi-0.dtd"
   xmlns="http://www.w3.org/2000/svg"
   xmlns:svg="http://www.w3.org/2000/svg"><defs
   id="defs619" /><sodipodi:namedview
   id="namedview617"
   pagecolor="#ffffff"
   bordercolor="#666666"
   borderopacity="1.0"
   inkscape:pageshadow="2"
   inkscape:pageopacity="0.0"
   inkscape:pagecheckerboard="0"
   showgrid="false"
   inkscape:zoom="1.5990001"
   inkscape:cx="353.03312"
   inkscape:cy="2069.1055"
   inkscape:window-width="1846"
   inkscape:window-height="1016"
   inkscape:window-x="1994"
   inkscape:window-y="27"
   inkscape:window-maximized="1"
   inkscape:current-layer="Layer_1"
   inkscape:showpageshadow="2"
   inkscape:deskcolor="#d1d1d1" />&#10;<style
   type="text/css"
   id="style336">&#10;	.st0{opacity:0.38;fill:#231F20;}&#10;	.st1{fill:none;stroke:#231F20;stroke-width:2;stroke-miterlimit:10;stroke-dasharray:10,8;}&#10;	.st2{fill:#231F20;}&#10;	.st3{font-family:'MyriadPro-Regular';}&#10;	.st4{font-size:13.1294px;}&#10;	.st5{fill:#B5B88E;}&#10;	.st6{fill:#B8CBD5;}&#10;	.st7{fill:none;stroke:#000000;stroke-width:1.98;stroke-linecap:round;stroke-linejoin:round;stroke-miterlimit:10;}&#10;	.st8{fill:none;stroke:#000000;stroke-miterlimit:10;}&#10;	.st9{opacity:0.38;enable-background:new    ;}&#10;</style>&#10;&#10;&#10;&#10;&#10;&#10;&#10;&#10;&#10;&#10;&#10;&#10;&#10;&#10;&#10;&#10;&#10;&#10;&#10;&#10;&#10;&#10;&#10;&#10;&#10;&#10;&#10;&#10;&#10;&#10;&#10;&#10;&#10;&#10;&#10;&#10;&#10;&#10;&#10;&#10;&#10;&#10;&#10;&#10;&#10;&#10;&#10;&#10;&#10;&#10;&#10;&#10;&#10;&#10;&#10;&#10;&#10;&#10;&#10;&#10;&#10;&#10;&#10;&#10;&#10;&#10;&#10;&#10;&#10;&#10;&#10;&#10;&#10;&#10;&#10;&#10;&#10;&#10;&#10;&#10;&#10;&#10;&#10;&#10;&#10;&#10;&#10;&#10;&#10;&#10;&#10;&#10;&#10;&#10;&#10;&#10;&#10;&#10;&#10;&#10;&#10;&#10;&#10;<path
   class="st7"
   d="m 53.015392,32.91 h -28.62 -0.03 c -10.14,0 -18.8700005,-7.16 -20.8600005,-17.1 h 0.01 l -2.46,-12.48 -0.03,-0.04 c -0.13999996,-0.68 0.14,-1.38 0.71,-1.79 0.57,-0.41 1.32,-0.44 1.92,-0.09 l -0.02,0.06 0.6,0.3 0.54,0.3 1.08,0.54 1.08,0.48 0.54,0.24 0.6,0.18 0.6,0.18 0.6,0.18 0.66,0.12 0.7200005,0.18 0.78,0.12 0.84,0.12 0.96,0.06 0.96,0.12 1.08,0.06 1.14,0.06 1.2,0.06 1.32,0.06 1.38,0.06 h 1.5 l 1.5,0.06 h 1.62 1.62 l 1.74,0.06 h 1.74 1.8 1.8 1.86 l 3.78,-0.06 h 3.72 l 1.86,-0.06 h 1.8 1.8 l 1.74,-0.06 h 1.68 l 1.68,-0.06 h 1.56 l 1.5,-0.06 h 1.44 l 1.38,-0.06 h 1.32 l 1.2,-0.06 h 1.14 l 1.02,-0.06 h 1.02 l 0.9,-0.06 h 0.84 l 0.84,-0.06 h 0.72 l 0.72,-0.06 h 0.66 0.66 l 2.46,-0.06 1.26,-0.06 h 0.66 0.66 v 0 c 3.38,0.01 6.28,2.4 6.95,5.72 l 0.02,-0.02 4.86,24.36 -0.04,-0.02 c 0.66,3.32 3.58,5.72 6.97,5.72 h 0.03 15.419998 -0.03 c 1.97,0 3.57,-1.6 3.57,-3.57 V 36.45 6.33 6.3 c 0,-2.93 2.38,-5.30999999 5.31,-5.30999999 h 0.03 26.22 -0.03 c 1.68,0 3.26,0.79999999 4.27,2.14999999 1,1.35 1.3,3.1 0.81,4.71 l 0.03,-0.01 c -5.29,17.38 -6.47,35.76 -3.45,53.68 l -0.02,0.01 c 0.43,2.57 -0.29,5.2 -1.97,7.19 -1.68,1.99 -4.15,3.14 -6.76,3.14 h 0.03 -63.479998 -0.03 c -9.79,0 -17.73,-7.94 -17.73,-17.73 l 0.06,0.03 v -17.7 -0.03 c 0,-1.97 -1.6,-3.57 -3.57,-3.57 z"
   id="path552" />&#10;&#10;&#10;&#10;&#10;&#10;&#10;&#10;&#10;&#10;&#10;&#10;&#10;&#10;</svg>
