<?xml version="1.0" encoding="UTF-8" standalone="no"?>
<!-- Generator: Adobe Illustrator 27.5.0, SVG Export Plug-In . SVG Version: 6.00 Build 0)  -->

<svg
   version="1.1"
   id="Layer_1"
   x="0px"
   y="0px"
   viewBox="0 0 92.635962 127.72431"
   xml:space="preserve"
   width="92.635963"
   height="127.7243"
   xmlns="http://www.w3.org/2000/svg"
   xmlns:svg="http://www.w3.org/2000/svg"><defs
   id="defs619" />&#10;<style
   type="text/css"
   id="style336">&#10;	.st0{opacity:0.38;fill:#231F20;}&#10;	.st1{fill:none;stroke:#231F20;stroke-width:2;stroke-miterlimit:10;stroke-dasharray:10,8;}&#10;	.st2{fill:#231F20;}&#10;	.st3{font-family:'MyriadPro-Regular';}&#10;	.st4{font-size:13.1294px;}&#10;	.st5{fill:#B5B88E;}&#10;	.st6{fill:#B8CBD5;}&#10;	.st7{fill:none;stroke:#000000;stroke-width:1.98;stroke-linecap:round;stroke-linejoin:round;stroke-miterlimit:10;}&#10;	.st8{fill:none;stroke:#000000;stroke-miterlimit:10;}&#10;	.st9{opacity:0.38;enable-background:new    ;}&#10;</style>&#10;&#10;&#10;&#10;&#10;&#10;&#10;&#10;&#10;&#10;&#10;&#10;&#10;&#10;&#10;&#10;&#10;&#10;&#10;&#10;&#10;&#10;&#10;&#10;&#10;&#10;&#10;&#10;&#10;&#10;&#10;&#10;&#10;&#10;&#10;&#10;&#10;&#10;&#10;&#10;&#10;&#10;&#10;&#10;&#10;&#10;&#10;&#10;&#10;&#10;&#10;&#10;&#10;&#10;&#10;&#10;&#10;&#10;&#10;&#10;&#10;&#10;&#10;&#10;&#10;<path
   class="st7"
   d="m 56.909974,102.38445 7.26,-14.520003 0.03,-0.03 c 1.56,-3.11 5.14,-4.64 8.47,-3.61 v 0.03 c 6.27,1.95 12.18,4.89 17.52,8.71 l -0.03,-0.05 c 1.03,0.74 1.59,1.97 1.47,3.23 -0.12,1.26 -0.9,2.37 -2.04,2.9 l -0.04,0.04 -0.54,0.24 -0.48,0.24 -1.02,0.480003 -0.9,0.48 -0.84,0.42 -0.84,0.48 -0.9,0.48 -0.84,0.54 -0.48,0.3 -0.48,0.36 -0.48,0.3 -0.54,0.36 -0.48,0.42 -0.6,0.42 -0.6,0.42 -0.6,0.42 -0.6,0.48 -0.66,0.54 -0.66,0.48 -0.72,0.54 -1.38,1.14 -1.5,1.14 -1.5,1.2 -1.44,1.2 -1.5,1.2 -1.38,1.14 -0.66,0.54 -0.66,0.54 -0.66,0.54 -0.6,0.48 -0.6,0.54 -0.54,0.48 -0.54,0.42 -0.48,0.48 -0.48,0.42 -0.48,0.36 -0.42,0.42 -0.42,0.36 -0.72,0.72 -0.72,0.66 -0.72,0.72 -0.66,0.66 -0.72,0.72 -0.78,0.78 -0.78,0.84 0.06,-0.05 c -1.96,2.01 -5.14,2.15 -7.27,0.32 l -0.05,0.02 -43.2,-37.080003 11.64,-16.26 -16.14000001,-19.26 6.96000001,-9.78 v 0 c 1.15,-1.6 3.38,-1.98 4.98,-0.83 v 0.06 l 21.9,15.66 14.16,-14.22 -7.08,-38.9399999 0.01,-0.07 c 8.79,-5.02000004 19.58,-5.02000004 28.37,0 l 0.01,0.07 V 57.984447 l -0.01,-0.07 c -15.08,6.32 -27.57,17.57 -35.45,31.9 v 0.03 l 19.5,13.200003 0.06,-0.06 c 0.42,0.29 0.95,0.37 1.44,0.25 0.49,-0.13 0.91,-0.46 1.13,-0.92 z"
   id="path476" />&#10;&#10;&#10;&#10;&#10;&#10;&#10;&#10;&#10;&#10;&#10;&#10;&#10;&#10;&#10;&#10;&#10;&#10;&#10;&#10;&#10;&#10;&#10;&#10;&#10;&#10;&#10;&#10;&#10;&#10;&#10;&#10;&#10;&#10;&#10;&#10;&#10;&#10;&#10;&#10;&#10;&#10;&#10;&#10;&#10;&#10;&#10;&#10;&#10;&#10;&#10;&#10;</svg>
