<?xml version="1.0" encoding="UTF-8" standalone="no"?>
<!-- Generator: Adobe Illustrator 27.5.0, SVG Export Plug-In . SVG Version: 6.00 Build 0)  -->

<svg
   version="1.1"
   id="Layer_1"
   x="0px"
   y="0px"
   viewBox="0 0 157.02998 106.93"
   xml:space="preserve"
   sodipodi:docname="zonai zelda tabard vectors.svg"
   inkscape:version="1.1.2 (0a00cf5339, 2022-02-04)"
   width="157.02998"
   height="106.93"
   xmlns:inkscape="http://www.inkscape.org/namespaces/inkscape"
   xmlns:sodipodi="http://sodipodi.sourceforge.net/DTD/sodipodi-0.dtd"
   xmlns="http://www.w3.org/2000/svg"
   xmlns:svg="http://www.w3.org/2000/svg"><defs
   id="defs619" /><sodipodi:namedview
   id="namedview617"
   pagecolor="#ffffff"
   bordercolor="#666666"
   borderopacity="1.0"
   inkscape:pageshadow="2"
   inkscape:pageopacity="0.0"
   inkscape:pagecheckerboard="0"
   showgrid="false"
   inkscape:zoom="1.5990001"
   inkscape:cx="353.03312"
   inkscape:cy="2069.1055"
   inkscape:window-width="1846"
   inkscape:window-height="1016"
   inkscape:window-x="1994"
   inkscape:window-y="27"
   inkscape:window-maximized="1"
   inkscape:current-layer="Layer_1"
   inkscape:showpageshadow="2"
   inkscape:deskcolor="#d1d1d1" />&#10;<style
   type="text/css"
   id="style336">&#10;	.st0{opacity:0.38;fill:#231F20;}&#10;	.st1{fill:none;stroke:#231F20;stroke-width:2;stroke-miterlimit:10;stroke-dasharray:10,8;}&#10;	.st2{fill:#231F20;}&#10;	.st3{font-family:'MyriadPro-Regular';}&#10;	.st4{font-size:13.1294px;}&#10;	.st5{fill:#B5B88E;}&#10;	.st6{fill:#B8CBD5;}&#10;	.st7{fill:none;stroke:#000000;stroke-width:1.98;stroke-linecap:round;stroke-linejoin:round;stroke-miterlimit:10;}&#10;	.st8{fill:none;stroke:#000000;stroke-miterlimit:10;}&#10;	.st9{opacity:0.38;enable-background:new    ;}&#10;</style>&#10;&#10;&#10;&#10;&#10;&#10;&#10;&#10;&#10;&#10;&#10;&#10;&#10;&#10;&#10;&#10;&#10;&#10;&#10;&#10;&#10;&#10;&#10;&#10;&#10;&#10;&#10;&#10;&#10;&#10;&#10;&#10;&#10;&#10;&#10;&#10;&#10;&#10;&#10;&#10;&#10;&#10;&#10;&#10;&#10;&#10;&#10;&#10;&#10;&#10;&#10;&#10;&#10;&#10;&#10;&#10;&#10;&#10;&#10;&#10;&#10;&#10;&#10;&#10;&#10;&#10;&#10;&#10;&#10;&#10;&#10;&#10;&#10;&#10;&#10;&#10;&#10;&#10;&#10;&#10;&#10;&#10;&#10;&#10;&#10;&#10;&#10;&#10;&#10;&#10;&#10;&#10;&#10;&#10;&#10;&#10;&#10;&#10;&#10;&#10;&#10;&#10;&#10;&#10;&#10;&#10;&#10;&#10;&#10;&#10;&#10;&#10;<path
   class="st7"
   d="m 152.6,53.54 -9.6,-8.82 -0.04,-0.01 c -0.99,-0.91 -2.27,-1.43 -3.61,-1.48 v 0 l -72.18,-2.7 v 0 c -2.59,-0.1 -4.79,-1.94 -5.33,-4.48 L 61.83,36.09 55.29,5.55 55.28,5.47 C 54.72,2.86 52.41,0.99000001 49.74,0.99000001 l 0.03,0.06 h -17.7 l -0.03,-0.06 C 28.91,0.99000001 26.37,3.53 26.37,6.66 v 0 c 0,4.74 0.33,9.48 0.98,14.18 l 0.04,0.07 H 6.69 L 6.66,20.85 c -3.13,0 -5.66999999,2.54 -5.66999999,5.67 l 0.06,0.03 v 11.1 l -0.06,-0.03 c 0,3.13 2.53999999,5.67 5.66999999,5.67 l 0.03,0.06 h 26.46 l 0.01,-0.07 c 3.09,8.04 7.19,15.65 12.2,22.66 l 0.03,0.03 7.92,1.74 -0.06,0.01 c 2.59,0.58 4.44,2.88 4.44,5.54 l 0.06,0.03 V 95.73 L 57.69,95.7 c 0,2.66 1.85,4.96 4.44,5.53 l 0.06,0.02 14.16,3.12 -0.06,-0.01 c 1.68,0.37 3.44,-0.04 4.78,-1.11 1.34,-1.08 2.12,-2.7 2.12,-4.42 l 0.06,0.03 V 78.34 l -0.06,-0.03 c 0,-1.63 0.7,-3.17 1.92,-4.25 1.22,-1.08 2.84,-1.58 4.46,-1.38 l 0.05,0.02 11.34,1.44 -0.05,-0.02 c 2.84,0.35 4.97,2.77 4.97,5.63 l 0.06,0.03 v 20.46 l -0.06,-0.03 c 0,3.13 2.54,5.67 5.67,5.67 l 0.03,0.06 h 19.86 v -25.5 -0.03 c 0,-3.13 2.54,-5.67 5.67,-5.67 h 0.03 13.26 -0.03 c 1.64,0 3.21,-0.71 4.28,-1.95 1.08,-1.24 1.56,-2.89 1.33,-4.52 l 0.06,-0.01 -1.62,-11.34 -0.06,-0.05 c -0.19,-1.3 -0.82,-2.5 -1.79,-3.38 z"
   id="path570" />&#10;&#10;&#10;&#10;&#10;</svg>
