<?xml version="1.0" encoding="UTF-8" standalone="no"?>
<!-- Generator: Adobe Illustrator 27.5.0, SVG Export Plug-In . SVG Version: 6.00 Build 0)  -->

<svg
   version="1.1"
   id="Layer_1"
   x="0px"
   y="0px"
   viewBox="0 0 705.39 2854.96"
   style="enable-background:new 0 0 705.39 2854.96;"
   xml:space="preserve"
   sodipodi:docname="zonai zelda tabard vectors.svg"
   inkscape:version="1.1.2 (0a00cf5339, 2022-02-04)"
   xmlns:inkscape="http://www.inkscape.org/namespaces/inkscape"
   xmlns:sodipodi="http://sodipodi.sourceforge.net/DTD/sodipodi-0.dtd"
   xmlns="http://www.w3.org/2000/svg"
   xmlns:svg="http://www.w3.org/2000/svg"><defs
   id="defs619" /><sodipodi:namedview
   id="namedview617"
   pagecolor="#ffffff"
   bordercolor="#666666"
   borderopacity="1.0"
   inkscape:pageshadow="2"
   inkscape:pageopacity="0.0"
   inkscape:pagecheckerboard="0"
   showgrid="false"
   inkscape:zoom="1.5990001"
   inkscape:cx="353.03312"
   inkscape:cy="2069.1055"
   inkscape:window-width="1846"
   inkscape:window-height="1016"
   inkscape:window-x="1994"
   inkscape:window-y="27"
   inkscape:window-maximized="1"
   inkscape:current-layer="Layer_1" />
<style
   type="text/css"
   id="style336">
	.st0{opacity:0.38;fill:#231F20;}
	.st1{fill:none;stroke:#231F20;stroke-width:2;stroke-miterlimit:10;stroke-dasharray:10,8;}
	.st2{fill:#231F20;}
	.st3{font-family:'MyriadPro-Regular';}
	.st4{font-size:13.1294px;}
	.st5{fill:#B5B88E;}
	.st6{fill:#B8CBD5;}
	.st7{fill:none;stroke:#000000;stroke-width:1.98;stroke-linecap:round;stroke-linejoin:round;stroke-miterlimit:10;}
	.st8{fill:none;stroke:#000000;stroke-miterlimit:10;}
	.st9{opacity:0.38;enable-background:new    ;}
</style>
<path
   class="st0"
   d="M340.69,2513.03c-86.2,0-168.29-2.68-255.04-8.03l1.75-28.29c172.32,10.63,326.25,10.63,531.31-0.01l1.47,28.31  C517.1,2510.36,426.85,2513.03,340.69,2513.03z"
   id="path338" />













<polygon
   class="st7"
   points="365.8,435.75 365.68,436.29 365.5,436.77 365.32,437.19 365.14,437.67 364.96,438.09 364.72,438.51   364.48,438.93 364.24,439.29 364,439.65 363.7,440.01 363.4,440.37 363.1,440.67 362.74,440.97 362.44,441.27 362.08,441.51   361.66,441.81 361.3,442.05 360.88,442.29 360.46,442.47 360.04,442.65 359.62,442.83 359.14,443.01 358.66,443.19 358.18,443.31   357.64,443.43 357.1,443.55 356.56,443.61 356.02,443.67 355.48,443.73 354.88,443.79 354.28,443.79 353.68,443.79 353.56,443.79   353.26,443.79 352.84,443.79 352.48,443.79 352.18,443.79 352.06,443.79 351.46,443.79 350.86,443.79 350.26,443.73 349.72,443.67   349.18,443.61 348.64,443.55 348.1,443.43 347.56,443.31 347.08,443.19 346.6,443.01 346.12,442.83 345.7,442.65 345.28,442.47   344.86,442.29 344.44,442.05 344.08,441.81 343.66,441.51 343.3,441.27 343,440.97 342.64,440.67 342.34,440.37 342.04,440.01   341.74,439.65 341.5,439.29 341.26,438.93 341.02,438.51 340.78,438.09 340.6,437.67 340.42,437.19 340.24,436.77 340.06,436.29   339.94,435.75 339.88,435.63 339.82,435.39 339.82,435.15 339.76,434.91 339.7,434.61 339.64,434.31 339.58,433.59 339.46,432.87   339.4,432.15 339.4,431.43 339.46,431.13 339.46,430.83 339.52,426.99 339.7,423.21 339.94,419.43 340.24,415.65 340.6,411.87   341.02,408.09 341.5,404.37 342.1,400.59 342.7,396.87 343.42,393.09 344.2,389.37 345.04,385.65 345.94,381.93 346.96,378.21   347.98,374.49 349.12,370.83 349.18,370.53 349.3,370.29 349.42,370.05 349.54,369.81 349.72,369.57 349.9,369.39 350.14,369.21   350.38,369.03 350.62,368.85 350.92,368.73 351.16,368.61 351.52,368.49 351.82,368.43 352.12,368.37 352.48,368.31 352.78,368.31   352.84,368.31 352.9,368.31 352.96,368.31 353.26,368.31 353.62,368.37 353.92,368.43 354.22,368.49 354.52,368.61 354.82,368.73   355.12,368.85 355.36,369.03 355.6,369.21 355.84,369.39 356.02,369.57 356.2,369.81 356.32,370.05 356.44,370.29 356.56,370.53   356.62,370.83 357.76,374.49 358.78,378.21 359.8,381.93 360.7,385.65 361.54,389.37 362.32,393.09 363.04,396.87 363.64,400.59   364.24,404.37 364.72,408.09 365.14,411.87 365.5,415.65 365.8,419.43 366.04,423.21 366.22,426.99 366.28,430.83 366.28,431.13   366.34,431.43 366.28,432.15 366.28,432.87 366.16,433.59 366.1,434.31 366.04,434.61 365.98,434.91 365.92,435.15 365.86,435.39   365.86,435.63 "
   id="polygon376" />
<path
   class="st7"
   d="M351.67,1509.97c0.4-0.06,0.81-0.09,1.22-0.1h-0.02c0.41,0.01,0.82,0.04,1.22,0.1l-0.04,0.02l0.78,0.18  l0.78,0.18l0.72,0.24l0.66,0.3l0.66,0.36l0.6,0.42l0.6,0.42l0.54,0.54l0.48,0.48l0.48,0.6l0.42,0.6l0.3,0.66l0.3,0.66l0.24,0.72  l0.18,0.72l0.12,0.72l22.92,190.5l0.18,1.86l0.18,1.8l0.06,1.86v1.8l-0.12,1.74l-0.12,1.74l-0.24,1.74l-0.24,1.74l-0.36,1.68  l-0.48,1.62l-0.48,1.62l-0.54,1.56l-0.66,1.56l-0.72,1.5l-0.72,1.44l-0.84,1.38l-0.9,1.32l-0.96,1.32l-0.54,0.66l-0.54,0.6  l-0.54,0.6l-0.54,0.6l-0.54,0.54l-0.6,0.54l-0.6,0.54l-0.66,0.54l-0.6,0.54l-0.66,0.48l-0.66,0.48l-0.66,0.42l-0.72,0.48l-0.72,0.42  l-0.72,0.42l-0.72,0.36l-0.78,0.36l-0.78,0.36l-0.78,0.36l-0.78,0.3l-0.84,0.3l-0.78,0.24l-0.84,0.24l-0.9,0.24l-0.84,0.24  l-0.9,0.18l-0.9,0.12l-0.9,0.18l-1.26,0.12l-1.26,0.12l-1.2,0.06l-1.2,0.06h-0.06h-0.06l-1.2-0.06l-1.26-0.06l-1.2-0.12l-1.26-0.12  l-0.9-0.18l-0.9-0.12l-0.9-0.18l-0.9-0.24l-0.84-0.24l-0.84-0.24l-0.84-0.24l-0.78-0.3l-0.84-0.3l-0.78-0.36l-0.78-0.36l-0.72-0.36  l-0.78-0.36l-0.72-0.42l-0.72-0.42l-0.66-0.48l-0.72-0.42l-0.66-0.48l-0.6-0.48l-0.66-0.54l-0.6-0.54l-0.6-0.54l-0.6-0.54l-0.6-0.54  l-0.54-0.6l-0.54-0.6l-0.54-0.6l-0.48-0.66l-0.96-1.32l-0.9-1.32l-0.84-1.38l-0.78-1.44l-0.72-1.5l-0.6-1.56l-0.6-1.56l-0.48-1.62  l-0.42-1.62l-0.36-1.68l-0.3-1.74l-0.24-1.74l-0.12-1.74l-0.06-1.74v-1.8l0.06-1.86l0.12-1.8l0.24-1.86l22.86-190.5l0.12-0.72  l0.18-0.72l0.24-0.72l0.3-0.66l0.36-0.66l0.42-0.6l0.42-0.6l0.48-0.48l0.54-0.54l0.6-0.42l0.6-0.42l0.66-0.36l0.72-0.3l0.72-0.24  l0.72-0.18l0.78-0.18L351.67,1509.97z"
   id="path378" />
<polygon
   class="st7"
   points="410.82,1497.59 409.04,1625.8 409.08,1627.18 409.12,1628.5 409.29,1629.88 409.51,1631.15   409.85,1632.47 410.2,1633.67 410.66,1634.94 411.13,1636.15 411.71,1637.29 412.36,1638.38 413,1639.53 413.77,1640.56   414.54,1641.59 415.36,1642.56 416.25,1643.47 417.2,1644.33 418.15,1645.18 419.16,1645.97 420.23,1646.71 421.3,1647.38   422.43,1647.99 423.57,1648.55 424.76,1649.1 425.95,1649.54 427.21,1649.92 428.46,1650.23 429.72,1650.49 430.98,1650.69   432.3,1650.82 433.62,1650.84 434.94,1650.8 436.26,1650.69 436.32,1650.69 436.38,1650.7 436.5,1650.7 437.82,1650.53   439.14,1650.25 440.41,1649.91 441.67,1649.56 442.88,1649.1 444.03,1648.57 445.23,1647.99 446.32,1647.34 447.41,1646.64   448.44,1645.93 449.47,1645.11 450.44,1644.28 451.35,1643.39 452.21,1642.44 453,1641.43 453.79,1640.42 454.53,1639.35   455.2,1638.28 455.82,1637.15 456.37,1635.95 456.87,1634.82 457.3,1633.57 457.62,1632.37 457.93,1631.11 458.19,1629.8   458.33,1628.54 458.47,1627.22 458.48,1625.9 458.44,1624.58 458.28,1623.26 458.11,1621.94 457.77,1620.55 428.85,1495.66   428.74,1495.18 428.56,1494.76 428.39,1494.28 428.21,1493.86 428.04,1493.49 427.8,1493.07 427.57,1492.71 427.33,1492.34   427.1,1492.04 426.86,1491.68 426.27,1491.13 425.68,1490.58 425.02,1490.15 424.31,1489.73 423.59,1489.42 422.88,1489.17   422.1,1488.98 421.38,1488.85 420.6,1488.78 419.82,1488.77 419.04,1488.82 418.98,1488.82 418.2,1488.93 417.42,1489.1   416.69,1489.33 415.97,1489.62 415.24,1489.97 414.58,1490.38 413.97,1490.85 413.37,1491.38 412.88,1491.98 412.39,1492.63   411.96,1493.29 411.78,1493.7 411.59,1494.06 411.41,1494.48 411.28,1494.84 411.15,1495.31 411.03,1495.73 410.96,1496.15   410.9,1496.63 410.83,1497.11 "
   id="polygon380" />
<polygon
   class="st7"
   points="467.66,1459.85 472.71,1587.97 472.82,1589.34 472.94,1590.66 473.17,1592.03 473.46,1593.28   473.88,1594.58 474.28,1595.77 474.81,1597.01 475.34,1598.19 475.99,1599.3 476.69,1600.36 477.4,1601.47 478.22,1602.46   479.04,1603.44 479.92,1604.37 480.85,1605.23 481.84,1606.03 482.84,1606.83 483.89,1607.57 485,1608.25 486.1,1608.86   487.26,1609.42 488.43,1609.91 489.65,1610.4 490.86,1610.77 492.14,1611.08 493.41,1611.33 494.68,1611.52 495.94,1611.65   497.27,1611.72 498.58,1611.66 499.9,1611.55 501.22,1611.38 501.28,1611.37 501.34,1611.37 501.46,1611.37 502.77,1611.13   504.07,1610.78 505.32,1610.37 506.56,1609.96 507.74,1609.43 508.86,1608.84 510.03,1608.2 511.09,1607.49 512.14,1606.73   513.13,1605.97 514.11,1605.09 515.04,1604.21 515.9,1603.28 516.7,1602.28 517.44,1601.23 518.18,1600.18 518.85,1599.07   519.47,1597.97 520.02,1596.8 520.51,1595.58 520.95,1594.43 521.32,1593.15 521.57,1591.94 521.82,1590.67 522,1589.34   522.07,1588.08 522.14,1586.75 522.09,1585.43 521.97,1584.12 521.74,1582.8 521.51,1581.49 521.09,1580.13 485.55,1456.96   485.41,1456.49 485.22,1456.07 485.02,1455.6 484.82,1455.19 484.63,1454.84 484.37,1454.43 484.12,1454.08 483.86,1453.73   483.61,1453.44 483.36,1453.09 482.73,1452.57 482.11,1452.06 481.44,1451.66 480.7,1451.27 479.97,1451 479.24,1450.79   478.45,1450.64 477.73,1450.55 476.95,1450.52 476.17,1450.55 475.39,1450.65 475.33,1450.65 474.56,1450.8 473.78,1451.01   473.07,1451.28 472.37,1451.61 471.66,1452 471.02,1452.44 470.44,1452.95 469.86,1453.51 469.41,1454.13 468.95,1454.81   468.56,1455.49 468.4,1455.91 468.23,1456.28 468.07,1456.71 467.96,1457.07 467.86,1457.56 467.76,1457.98 467.72,1458.4   467.68,1458.88 467.64,1459.37 "
   id="polygon382" />
<path
   class="st7"
   d="M399.59,1450.52c0,7.84,6.35,14.19,14.19,14.19s14.19-6.35,14.19-14.19s-6.35-14.19-14.19-14.19  S399.59,1442.69,399.59,1450.52"
   id="path384" />
<path
   class="st7"
   d="M338.93,1478.9c0,7.84,6.35,14.19,14.19,14.19s14.19-6.35,14.19-14.19s-6.35-14.19-14.19-14.19  S338.93,1471.07,338.93,1478.9"
   id="path386" />
<path
   class="st7"
   d="M453.45,1411.83c0,7.84,6.35,14.19,14.19,14.19s14.19-6.35,14.19-14.19s-6.35-14.19-14.19-14.19  S453.45,1404,453.45,1411.83"
   id="path388" />
<polyline
   class="st7"
   points="380.45,705.91 366.77,705.91 366.77,681.67 380.45,681.67 380.45,705.91 "
   id="polyline390" />
<polyline
   class="st7"
   points="359.93,672.01 359.93,720.25 387.29,720.25 387.29,672.01 359.93,672.01 "
   id="polyline392" />
<polyline
   class="st7"
   points="421.43,705.91 407.75,705.91 407.75,681.67 421.43,681.67 421.43,705.91 "
   id="polyline394" />
<polyline
   class="st7"
   points="400.55,672.01 400.55,720.25 427.91,720.25 427.91,672.01 400.55,672.01 "
   id="polyline396" />
<polyline
   class="st7"
   points="461.2,705.91 447.52,705.91 447.52,681.67 461.2,681.67 461.2,705.91 "
   id="polyline398" />
<polyline
   class="st7"
   points="440.68,672.01 440.68,720.25 468.04,720.25 468.04,672.01 440.68,672.01 "
   id="polyline400" />
<line
   class="st7"
   x1="294.83"
   y1="1340.03"
   x2="294.89"
   y2="1339.97"
   id="line402" />
<line
   class="st7"
   x1="388.67"
   y1="1323.05"
   x2="388.67"
   y2="1322.99"
   id="line404" />
<line
   class="st7"
   x1="410.99"
   y1="1339.97"
   x2="410.99"
   y2="1339.91"
   id="line406" />
<polyline
   class="st7"
   points="255.41,1369.91 352.91,1436.57 450.53,1369.91 450.59,1369.85 "
   id="polyline408" />
<polyline
   class="st7"
   points="450.53,1369.91 450.47,1369.91 450.35,1369.79 450.11,1369.61 449.81,1369.37 449.45,1369.13   449.03,1368.77 448.55,1368.41 448.07,1368.05 447.53,1367.69 431.39,1355.39 430.79,1354.97 430.25,1354.55 429.77,1354.19   429.29,1353.83 428.93,1353.53 428.69,1353.35 428.51,1353.23 428.45,1353.17 411.59,1340.45 411.05,1340.03 410.57,1339.61   410.03,1339.25 409.61,1338.89 409.25,1338.59 408.89,1338.35 408.71,1338.23 408.53,1338.11 408.47,1338.05 408.29,1337.93   408.05,1337.75 407.75,1337.51 407.39,1337.21 406.91,1336.91 406.43,1336.49 405.95,1336.13 405.41,1335.71 392.99,1326.35   392.51,1325.93 392.03,1325.57 391.61,1325.27 391.19,1324.97 390.83,1324.67 390.59,1324.49 390.35,1324.31 390.23,1324.19   390.17,1324.19 390.17,1324.13 389.99,1324.07 389.81,1323.89 389.51,1323.71 389.15,1323.41 388.79,1323.11 388.31,1322.75   387.83,1322.39 387.35,1322.03 378.53,1315.37 377.99,1314.95 377.45,1314.53 376.97,1314.17 376.49,1313.81 376.13,1313.57   375.89,1313.33 375.71,1313.21 375.65,1313.21 "
   id="polyline410" />
<line
   class="st7"
   x1="330.23"
   y1="1313.15"
   x2="330.23"
   y2="1313.15"
   id="line412" />
<line
   class="st7"
   x1="317.21"
   y1="1323.05"
   x2="317.21"
   y2="1323.05"
   id="line414" />
<polyline
   class="st7"
   points="330.23,1313.15 330.23,1313.21 330.05,1313.27 329.87,1313.45 329.57,1313.63 329.21,1313.93   328.85,1314.23 328.37,1314.59 327.89,1314.95 327.41,1315.31 318.59,1322.03 318.05,1322.39 317.63,1322.75 317.15,1323.11   316.73,1323.41 316.43,1323.65 316.13,1323.89 315.89,1324.01 315.77,1324.13 315.71,1324.19 315.59,1324.31 315.35,1324.43   315.11,1324.67 314.75,1324.91 314.33,1325.21 313.91,1325.57 313.43,1325.93 312.89,1326.29 299.93,1336.19 299.39,1336.61   298.85,1336.97 298.31,1337.39 297.89,1337.69 297.47,1337.99 297.17,1338.23 296.93,1338.41 296.81,1338.53 296.75,1338.53   296.69,1338.59 296.57,1338.71 296.33,1338.89 296.03,1339.13 295.61,1339.43 295.19,1339.73 294.71,1340.15 294.17,1340.51   293.63,1340.93 277.43,1353.23 277.25,1353.35 277.07,1353.53 276.77,1353.71 276.41,1354.01 275.99,1354.31 275.51,1354.67   275.03,1355.03 274.55,1355.45 258.41,1367.69 257.87,1368.05 257.39,1368.41 256.91,1368.77 256.49,1369.13 256.13,1369.37   255.83,1369.61 255.59,1369.79 255.47,1369.91 255.41,1369.91 "
   id="polyline416" />
<line
   class="st7"
   x1="356.45"
   y1="1330.37"
   x2="359.51"
   y2="1332.71"
   id="line418" />
<polyline
   class="st7"
   points="352.91,1295.93 352.91,1327.67 352.97,1327.73 353.15,1327.85 353.39,1328.03 353.75,1328.27   354.17,1328.63 354.71,1328.99 355.25,1329.41 355.85,1329.89 356.45,1330.37 "
   id="polyline420" />
<polyline
   class="st7"
   points="359.51,1332.71 359.99,1333.07 360.47,1333.43 360.95,1333.79 361.31,1334.09 361.67,1334.33   361.97,1334.57 362.15,1334.69 362.33,1334.81 362.33,1334.87 375.53,1313.09 "
   id="polyline422" />
<line
   class="st7"
   x1="352.91"
   y1="1328.03"
   x2="352.91"
   y2="1327.67"
   id="line424" />
<line
   class="st7"
   x1="381.29"
   y1="1349.63"
   x2="380.39"
   y2="1348.97"
   id="line426" />
<line
   class="st7"
   x1="332.21"
   y1="1343.87"
   x2="315.77"
   y2="1324.13"
   id="line428" />
<line
   class="st7"
   x1="330.23"
   y1="1313.15"
   x2="343.61"
   y2="1335.17"
   id="line430" />
<line
   class="st7"
   x1="375.65"
   y1="1313.21"
   x2="362.33"
   y2="1335.23"
   id="line432" />
<line
   class="st7"
   x1="390.17"
   y1="1324.19"
   x2="373.73"
   y2="1343.87"
   id="line434" />
<line
   class="st7"
   x1="383.45"
   y1="1351.31"
   x2="408.47"
   y2="1338.05"
   id="line436" />
<line
   class="st7"
   x1="408.89"
   y1="1368.11"
   x2="384.05"
   y2="1355.09"
   id="line438" />
<line
   class="st7"
   x1="374.27"
   y1="1362.53"
   x2="390.59"
   y2="1382.09"
   id="line440" />
<line
   class="st7"
   x1="376.07"
   y1="1393.13"
   x2="362.87"
   y2="1371.23"
   id="line442" />
<line
   class="st7"
   x1="343.07"
   y1="1371.29"
   x2="329.87"
   y2="1393.19"
   id="line444" />
<line
   class="st7"
   x1="315.35"
   y1="1382.09"
   x2="331.61"
   y2="1362.53"
   id="line446" />
<line
   class="st7"
   x1="321.95"
   y1="1355.09"
   x2="297.05"
   y2="1368.17"
   id="line448" />
<line
   class="st7"
   x1="296.75"
   y1="1338.53"
   x2="322.49"
   y2="1351.31"
   id="line450" />
<polyline
   class="st7"
   points="277.43,1353.23 293.93,1365.77 300.17,1370.51 312.53,1379.93 318.17,1384.25 326.99,1391.03   332.69,1395.35 349.37,1408.07 352.91,1410.77 356.45,1408.07 373.25,1395.29 378.89,1390.97 387.77,1384.19 393.41,1379.93   405.77,1370.51 411.95,1365.77 428.45,1353.17 "
   id="polyline452" />
<line
   class="st7"
   x1="352.91"
   y1="1378.85"
   x2="352.91"
   y2="1410.77"
   id="line454" />
<path
   class="st7"
   d="M246.89,1311.71l0.3-0.24l0.3-0.18l0.3-0.12l0.36-0.12l0.36-0.12l0.3-0.06h0.36h0.36l0.36,0.06l0.36,0.06  l0.3,0.06l0.36,0.18l0.3,0.18l0.3,0.18l0.3,0.24l0.24,0.24l12,13.56l-0.04-0.02c0.78,0.94,1.15,2.16,1.03,3.37  c-0.12,1.22-0.72,2.34-1.67,3.11l0.01,0.01l-22.32,16.62l0.36,0.48l111.66-82.86l111.72,82.86l0.18-0.36l-22.5-16.74l-0.02-0.02  c-0.92-0.75-1.49-1.84-1.58-3.02c-0.1-1.18,0.29-2.35,1.08-3.23l-0.01,0.09l12.24-13.86l0.24-0.24l0.3-0.24l0.3-0.24l0.3-0.12  l0.3-0.18l0.36-0.12l0.3-0.06l0.36-0.06h0.36l0.36,0.06l0.36,0.06l0.3,0.06l0.36,0.12l0.36,0.18l0.3,0.18l0.3,0.24l38.16,31.32  l0.3,0.24l0.24,0.3l0.18,0.3l0.24,0.3l0.12,0.3l0.12,0.36l0.06,0.3l0.06,0.36l0.06,0.36l-0.06,0.36v0.3l-0.12,0.36l-0.12,0.36  l-0.12,0.3l-0.18,0.36l-0.24,0.3l-26.22,33.06l-0.24,0.3l-0.3,0.24l-0.24,0.24l-0.3,0.18l-0.36,0.18l-0.3,0.12l-0.36,0.06  l-0.36,0.06l-0.36,0.06h-0.36l-0.36-0.06l-0.3-0.06l-0.36-0.12l-0.36-0.12l-0.3-0.18l-0.3-0.24h-0.06l-0.06-0.06l-0.18-0.12  l-0.18-0.12l-0.24-0.24l-0.36-0.18l-0.36-0.3l-0.42-0.3l-0.48-0.36l-0.54-0.42l-0.54-0.42l-0.66-0.48l-0.72-0.54l-0.72-0.54  l-0.84-0.66l-0.84-0.6l-0.96-0.72l-0.96-0.72l-1.02-0.78l-1.08-0.84l-1.14-0.84l-1.2-0.9l-1.26-0.96l-1.32-0.96l-1.38-1.02  l-1.38-1.08l-1.5-1.14l-1.5-1.14l-1.62-1.2l-1.62-1.26l-1.68-1.26l-1.74-1.32l-1.8-1.38l-1.86-1.38l-1.92-1.44l-1.98-1.5l-2.04-1.56  l-2.1-1.56l-2.1-1.62l-2.22-1.68l-2.22-1.68l-2.34-1.74l-2.34-1.8l-2.4-1.8l-2.46-1.86l-2.52-1.92l-2.58-1.98l-2.64-1.98l-2.7-2.04  l-2.76-2.04l-2.76-2.16l-2.88-2.16l-2.88-2.16l-3-2.28l-3-2.28l-3.06-2.34l-3.18-2.34l-3.18-2.46l-3.24-2.46l-3.3-2.46l-3.36-2.52  l-3.36-2.58l-3.48-2.64l-3.54-2.7l-113.34,85.98l-0.3,0.24l-0.3,0.18l-0.36,0.12l-0.36,0.12l-0.36,0.06l-0.3,0.06h-0.36l-0.36-0.06  l-0.36-0.06l-0.36-0.06l-0.3-0.12l-0.36-0.18l-0.3-0.18l-0.24-0.24l-0.3-0.24l-0.24-0.3l-26.22-33.06l-0.24-0.3l-0.18-0.36  l-0.12-0.3l-0.12-0.36l-0.12-0.36v-0.3l-0.06-0.36l0.06-0.36v-0.36l0.12-0.3l0.12-0.36l0.12-0.3l0.18-0.3l0.24-0.3l0.24-0.3  l0.3-0.24L246.89,1311.71z"
   id="path456" />
<polygon
   class="st7"
   points="381.29,1349.63 386.21,1353.41 380.93,1357.49 377.09,1360.43 371.45,1364.69 365.69,1369.07   360.05,1373.39 356.45,1376.15 352.91,1378.85 349.37,1376.09 345.89,1373.45 340.25,1369.13 334.43,1364.69 328.79,1360.37   325.01,1357.49 321.59,1354.85 319.73,1353.41 325.61,1348.91 329.39,1346.03 335.03,1341.71 340.73,1337.33 346.43,1333.01   349.37,1330.73 352.91,1328.03 365.15,1337.39 370.91,1341.71 376.55,1346.03 380.39,1348.97 "
   id="polygon458" />
<path
   class="st7"
   d="M384.41,653.12c0,2.93,2.38,5.31,5.31,5.31l-0.03,0.06h14.88l0.03-0.06c2.44,0,4.56-1.66,5.15-4.02l-0.02,0.06  l2.46-9.78l-0.01,0c0.33-1.34,1.41-2.36,2.76-2.64l0.01,0.05l46.5-9.3l0.04-0.02c2.69-0.54,4.84-2.58,5.5-5.25l-0.03-0.01  l4.92-19.56l0.01,0c0.27-1.07,0.03-2.2-0.65-3.06s-1.71-1.37-2.81-1.37l-0.03,0.06h-21.6l0.03-0.06c-1.35,0-2.59,0.76-3.19,1.97  l-0.02,0.01l-3.66,7.32l0.03-0.03c-1.5,3-4.56,4.89-7.92,4.89l-0.03,0.06h-15.78v-14.16l0.06-0.03c0-1.97-1.6-3.57-3.57-3.57h-0.03  h-21.3h0.03c-3.93,0-7.11,3.18-7.11,7.11v0.03v46.02L384.41,653.12z"
   id="path460" />
<path
   class="st7"
   d="M455.63,767.24h28.62h0.03c10.14,0,18.87-7.16,20.86-17.1l-0.01,0l2.46-12.48l0.03-0.04  c0.14-0.68-0.14-1.38-0.71-1.79c-0.57-0.41-1.32-0.44-1.92-0.09l0.02,0.06l-0.6,0.3l-0.54,0.3l-1.08,0.54l-1.08,0.48l-0.54,0.24  l-0.6,0.18l-0.6,0.18l-0.6,0.18l-0.66,0.12l-0.72,0.18l-0.78,0.12l-0.84,0.12l-0.96,0.06l-0.96,0.12l-1.08,0.06l-1.14,0.06  l-1.2,0.06l-1.32,0.06l-1.38,0.06h-1.5l-1.5,0.06h-1.62h-1.62l-1.74,0.06h-1.74h-1.8h-1.8h-1.86l-3.78-0.06h-3.72l-1.86-0.06h-1.8  h-1.8l-1.74-0.06h-1.68l-1.68-0.06h-1.56l-1.5-0.06h-1.44l-1.38-0.06h-1.32l-1.2-0.06h-1.14l-1.02-0.06h-1.02l-0.9-0.06h-0.84  l-0.84-0.06h-0.72l-0.72-0.06h-0.66h-0.66l-2.46-0.06l-1.26-0.06h-0.66h-0.66h0c-3.38,0.01-6.28,2.4-6.95,5.72l-0.02-0.02  l-4.86,24.36l0.04-0.02c-0.66,3.32-3.58,5.72-6.97,5.72l-0.03,0h-15.42h0.03c-1.97,0-3.57-1.6-3.57-3.57v0.03v-30.12v-0.03  c0-2.93-2.38-5.31-5.31-5.31h-0.03h-26.22h0.03c-1.68,0-3.26,0.8-4.27,2.15c-1,1.35-1.3,3.1-0.81,4.71l-0.03-0.01  c5.29,17.38,6.47,35.76,3.45,53.68l0.02,0.01c-0.43,2.57,0.29,5.2,1.97,7.19c1.68,1.99,4.15,3.14,6.76,3.14h-0.03h63.48h0.03  c9.79,0,17.73-7.94,17.73-17.73l-0.06,0.03v-17.7v-0.03c0-1.97,1.6-3.57,3.57-3.57L455.63,767.24z"
   id="path462" />
<path
   class="st7"
   d="M410.63,822.13c-2.62,0.37-4.56,2.61-4.56,5.26l-0.06,0.03v26.04v-0.03c0,2.73-2.07,5.01-4.78,5.28l-0.02,0.03  l-24.48,2.46l0.04-0.02c-3.5,0.35-6.22,3.21-6.39,6.73l0-0.04c-1.07,21.91-4.55,43.64-10.4,64.78l-0.05,0.01l0.84,0.12l0.78,0.06  l0.78,0.06h0.72l0.72,0.06l0.66,0.06l0.72,0.06h0.66l0.6,0.06h0.6l1.14,0.06l1.14,0.06h0.96h0.96h0.9l0.84-0.06h0.78l0.72-0.06  l0.72-0.06l0.66-0.12l0.66-0.06l0.6-0.12l0.6-0.12l1.2-0.3l0.54-0.12l0.6-0.24l0.54-0.18l0.6-0.24l0.54-0.3l0.6-0.3l0.54-0.36  l0.54-0.36l0.54-0.42l0.54-0.48l0.54-0.48l0.54-0.54l0.54-0.54l0.48-0.6l0.54-0.6l0.48-0.66l0.48-0.72l0.48-0.66l0.9-1.5l0.84-1.5  l0.84-1.5l0.72-1.56l0.66-1.56l0.6-1.62l0.3-0.78l0.24-0.84l0.3-0.84l0.18-0.84l0.24-0.9l0.18-0.96l0.18-0.96l0.18-1.02l0.12-1.08  l0.12-1.08l0.12-1.2l0.12-1.2l0.06-1.32l0.06-1.32l0-0.05c0.07-1.92,1.65-3.43,3.57-3.43l-0.03,0.06h41.1h0.03  c2.73,0,5.02-2.07,5.28-4.79l0.03-0.01l2.88-29.34l0.07-0.02c0.09-0.91,0.85-1.6,1.76-1.6h-0.03h4.2l0.03-0.06  c0.73,0,1.34,0.56,1.4,1.29l-0.05,0.03l2.7,32.1l0.01-0.05c0.12,1.38,1.27,2.45,2.66,2.45h-0.03h16.92h0.03  c1.37,0,2.52-1.04,2.66-2.41l-0.05,0.01l3.12-31.14l0.01-0.05c0.13-1.28,1.15-2.29,2.43-2.4l-0.05,0.05l13.68-1.14l0.03-0.05  c1.96-0.17,3.69,1.29,3.86,3.26l-0.05,0.03l1.32,16.08l0.08-0.01c0.25,2.92,2.81,5.09,5.74,4.85l-0.05,0.02l12.18-1.02l-0.01-0.02  c2.75-0.23,4.87-2.53,4.87-5.29v0.03v-31.08l0.06-0.03c0-1.64-1.12-3.07-2.71-3.47l-0.05,0.02l-0.72-0.18l-0.6-0.18l-0.66-0.24  l-0.54-0.24l-0.54-0.3l-0.54-0.3l-0.48-0.36l-0.48-0.36l-0.42-0.36l-0.42-0.48l-0.42-0.42l-0.36-0.54l-0.36-0.54l-0.36-0.54  l-0.36-0.6l-0.36-0.66l-0.3-0.66l-0.3-0.66l-0.3-0.72l-0.3-0.72l-0.24-0.78l-0.24-0.72l-0.18-0.78l-0.18-0.72l-0.12-0.78l-0.06-0.66  l-0.06-0.72l0.06-0.66l0.06-0.66l0.06-0.6l0.18-0.6l0.24-0.54l0.24-0.48l0.3-0.48l0.36-0.42l0.42-0.42l0.42-0.36l0.42-0.36  l0.96-0.66l0.96-0.66l0.96-0.66l0.42-0.36l0.42-0.42l0.36-0.36l0.3-0.42l0.3-0.42l0.24-0.48l0.18-0.42l0.18-0.48l0.06-0.48  l0.06-0.48v-0.42l-0.06-0.48l-0.12-0.42l-0.12-0.42l-0.24-0.42l-0.24-0.36l-0.24-0.3l-0.36-0.36l-0.36-0.24l-0.42-0.3l-0.48-0.24  l-0.54-0.24l-0.54-0.24l-0.54-0.18l-0.66-0.18l-0.66-0.18l-0.66-0.18l-0.72-0.18l-0.78-0.18l-0.78-0.18l-0.78-0.18l-0.84-0.18  l-1.74-0.36l-1.8-0.3l-1.8-0.24l-0.96-0.06l-0.9-0.06h-0.9h-0.9l-0.9,0.06l-0.84,0.12l-0.9,0.12l-0.84,0.24l-0.78,0.24l-0.78,0.3  l-0.78,0.36l-0.72,0.42l-0.72,0.48l-0.66,0.54l-0.66,0.54l-0.6,0.66l-0.6,0.66l-0.54,0.72l-0.48,0.78l-0.54,0.78l-0.42,0.78  l-0.48,0.84l-0.36,0.84l-0.42,0.9l-0.66,1.74l-0.66,1.68l-0.3,0.84l-0.3,0.84l-0.24,0.78l-0.3,0.72l-0.24,0.72l-0.3,0.72l-0.24,0.6  l-0.3,0.6l-0.3,0.54l-0.3,0.48l-0.3,0.48l-0.36,0.42l-0.3,0.3l-0.42,0.3l-0.36,0.24l-0.42,0.24l-0.48,0.12l-0.48,0.12h-53.16v-8.04  l0.06-0.03c0-1.54-0.67-3-1.83-4.01c-1.16-1.01-2.71-1.46-4.23-1.25l-0.06,0.01l-14.16,2.04L410.63,822.13z"
   id="path464" />
<path
   class="st7"
   d="M460.71,943.45c0.25,1.76,1.76,3.07,3.53,3.07h-0.03h13.8h0.03c1.85,0,3.4-1.42,3.56-3.26l-0.05,0.02l2.1-24.6  l0.05-0.02c0.09-1-0.25-1.98-0.93-2.72c-0.68-0.74-1.63-1.16-2.63-1.16l-0.03,0.06h-19.38l0.03-0.06c-1.03,0-2.02,0.45-2.7,1.23  c-0.68,0.78-0.98,1.82-0.84,2.84l-0.04,0.01l3.54,24.66L460.71,943.45z"
   id="path466" />
<path
   class="st7"
   d="M363.53,1028.06l3.18-56.4l0.01,0c0.2-3.54,2.97-6.4,6.51-6.69l-0.04,0.04l36.36-3l2.16-38.46l0.01,0  c0.21-3.77,3.33-6.72,7.1-6.72l-0.03,0.06h15.18l0.03-0.06c1.95,0,3.82,0.8,5.17,2.22s2.04,3.33,1.93,5.28l-0.05,0l-3,53.52l0.05,0  c-0.18,3.29-2.61,6.03-5.86,6.61l-0.01-0.01l-33.3,5.88l-9.36,35.94l0.07,0.02c-0.77,2.97-3.36,5.11-6.42,5.31l-0.01-0.04  l-14.04,0.96l0.02-0.07c-2.73,0.18-5.14-1.74-5.59-4.44L363.53,1028.06z"
   id="path468" />
<path
   class="st7"
   d="M435.95,1013.54h46.02v-20.1h-3.6V1010h-19.92h0.03c-3.93,0-7.11-3.18-7.11-7.11v0.03V974.6v-0.03  c0-3.93,3.18-7.11,7.11-7.11l-0.03,0.06h53.16l0.03-0.06c3.93,0,7.11,3.18,7.11,7.11l-0.06,0.03v60.24l0.06-0.03  c0,3.93-3.18,7.11-7.11,7.11h-0.03h-46.08l-6.18,40.08l0.1-0.03c-0.53,3.47-3.52,6.03-7.03,6.03h-0.03h-76.26h0.03  c-2.29,0-4.43-1.1-5.77-2.95c-1.34-1.85-1.7-4.24-0.98-6.41l0,0l4.8-14.4l0.04-0.05c1.63-4.89,6.11-8.25,11.26-8.46l-0.01-0.01  l36.96-1.44l6.54-34.92l0-0.03c0.63-3.36,3.57-5.79,6.99-5.79H435.95z"
   id="path470" />
<polyline
   class="st7"
   points="516.77,1061.48 516.47,1079.78 516.35,1081.4 516.23,1082.96 516.11,1084.52 515.99,1086.02   515.87,1087.52 515.69,1088.96 515.51,1090.4 515.33,1091.72 515.15,1092.98 514.97,1094.24 514.73,1095.38 514.49,1096.46   514.43,1096.94 514.31,1097.48 514.19,1097.9 514.01,1098.38 513.89,1098.8 513.77,1099.16 513.65,1099.52 513.53,1099.88   513.05,1100.96 512.63,1101.98 512.15,1102.94 511.73,1103.84 511.25,1104.68 510.77,1105.46 510.29,1106.18 509.87,1106.9   509.39,1107.5 508.91,1108.1 508.43,1108.64 507.95,1109.12 507.47,1109.54 506.99,1109.9 506.51,1110.2 506.03,1110.44   506.87,1103.78 507.05,1102.82 507.17,1101.86 507.23,1100.9 507.23,1099.88 507.17,1098.92 507.05,1097.96 506.93,1097   506.69,1096.04 506.39,1095.08 506.03,1094.18 505.61,1093.22 505.19,1092.26 504.65,1091.3 504.05,1090.34 503.45,1089.44   502.73,1088.48 496.37,1078.52 496.07,1078.04 495.83,1077.56 495.65,1077.08 495.47,1076.54 495.35,1076 495.23,1075.46   495.17,1074.86 495.17,1074.32 495.23,1061.78 495.23,1061.3 495.35,1060.88 495.41,1060.46 495.59,1060.04 495.71,1059.62   495.95,1059.26 496.19,1058.96 496.43,1058.6 496.67,1058.36 496.97,1058.06 497.33,1057.88 497.63,1057.7 497.99,1057.52   498.35,1057.4 498.71,1057.4 499.13,1057.34 513.59,1057.64 513.89,1057.7 514.25,1057.76 514.55,1057.88 514.79,1058   515.09,1058.18 515.33,1058.36 515.57,1058.54 515.81,1058.84 516.05,1059.08 516.23,1059.38 516.35,1059.68 516.47,1060.04   516.59,1060.34 516.71,1060.7 516.71,1061.12 516.77,1061.48 "
   id="polyline472" />
<polyline
   class="st7"
   points="493.67,1049.96 492.95,1049.96 492.23,1050.08 491.51,1050.26 490.91,1050.5 490.25,1050.8   489.65,1051.16 489.11,1051.52 488.63,1052 488.15,1052.48 487.73,1053.02 487.37,1053.62 487.07,1054.22 486.83,1054.88   486.59,1055.54 486.47,1056.26 486.47,1056.98 486.17,1076.72 486.17,1077.62 486.29,1078.52 486.47,1079.36 486.71,1080.2   487.01,1081.04 487.37,1081.82 487.79,1082.6 488.33,1083.32 499.97,1098.92 500.21,1099.82 500.33,1100.78 500.45,1101.74   500.45,1102.7 500.39,1103.72 500.21,1104.74 499.97,1105.76 499.73,1106.84 499.31,1107.92 498.89,1109.06 498.35,1110.2   497.75,1111.34 497.09,1112.54 496.37,1113.74 495.53,1115 494.63,1116.26 494.45,1126.04 495.23,1126.04 496.01,1125.98   496.73,1125.92 497.51,1125.8 498.23,1125.62 499.01,1125.44 499.73,1125.26 500.51,1125.02 501.23,1124.78 501.95,1124.48   502.73,1124.18 503.45,1123.82 504.17,1123.46 504.89,1123.04 505.61,1122.62 506.33,1122.14 507.11,1121.66 507.83,1121.18   508.55,1120.64 509.27,1120.04 509.99,1119.44 510.71,1118.78 511.37,1118.12 512.09,1117.46 512.81,1116.74 513.53,1116.02   514.25,1115.24 514.91,1114.4 515.63,1113.56 516.35,1112.72 517.01,1111.82 517.73,1110.92 518.39,1109.96 519.11,1108.94   519.71,1107.8 520.37,1106.66 520.91,1105.4 521.21,1104.8 521.51,1104.08 521.75,1103.42 521.99,1102.7 522.29,1101.98   522.53,1101.2 522.77,1100.42 523.01,1099.58 523.19,1098.74 523.43,1097.9 523.61,1097 523.79,1096.04 523.97,1095.14   524.15,1094.12 524.33,1093.1 524.51,1092.08 524.63,1091 524.75,1089.92 524.93,1088.72 525.05,1087.58 525.11,1086.38   525.23,1085.12 525.89,1056.26 525.89,1055.66 525.83,1055.06 525.65,1054.52 525.47,1053.92 525.23,1053.44 524.93,1052.96   524.63,1052.48 524.27,1052.06 523.85,1051.64 523.37,1051.34 522.89,1051.04 522.41,1050.74 521.87,1050.56 521.33,1050.38   520.73,1050.26 520.13,1050.26 493.67,1049.96 "
   id="polyline474" />
<path
   class="st7"
   d="M431.63,1267.54l7.26-14.52l0.03-0.03c1.56-3.11,5.14-4.64,8.47-3.61l0,0.03c6.27,1.95,12.18,4.89,17.52,8.71  l-0.03-0.05c1.03,0.74,1.59,1.97,1.47,3.23c-0.12,1.26-0.9,2.37-2.04,2.9l-0.04,0.04l-0.54,0.24l-0.48,0.24l-1.02,0.48l-0.9,0.48  l-0.84,0.42l-0.84,0.48l-0.9,0.48l-0.84,0.54l-0.48,0.3l-0.48,0.36l-0.48,0.3l-0.54,0.36l-0.48,0.42l-0.6,0.42l-0.6,0.42l-0.6,0.42  l-0.6,0.48l-0.66,0.54l-0.66,0.48l-0.72,0.54l-1.38,1.14l-1.5,1.14l-1.5,1.2l-1.44,1.2l-1.5,1.2l-1.38,1.14l-0.66,0.54l-0.66,0.54  l-0.66,0.54l-0.6,0.48l-0.6,0.54l-0.54,0.48l-0.54,0.42l-0.48,0.48l-0.48,0.42l-0.48,0.36l-0.42,0.42l-0.42,0.36l-0.72,0.72  l-0.72,0.66l-0.72,0.72l-0.66,0.66l-0.72,0.72l-0.78,0.78l-0.78,0.84l0.06-0.05c-1.96,2.01-5.14,2.15-7.27,0.32l-0.05,0.02  l-43.2-37.08l11.64-16.26l-16.14-19.26l6.96-9.78l0,0c1.15-1.6,3.38-1.98,4.98-0.83l0,0.06l21.9,15.66l14.16-14.22l-7.08-38.94  l0.01-0.07c8.79-5.02,19.58-5.02,28.37,0l0.01,0.07v53.16l-0.01-0.07c-15.08,6.32-27.57,17.57-35.45,31.9l0,0.03l19.5,13.2  l0.06-0.06c0.42,0.29,0.95,0.37,1.44,0.25c0.49-0.13,0.91-0.46,1.13-0.92L431.63,1267.54z"
   id="path476" />
<polygon
   class="st7"
   points="437.57,383.84 437.45,384.32 437.27,384.8 437.15,385.28 436.91,385.7 436.73,386.18 436.49,386.54   436.31,386.96 436.01,387.38 435.77,387.74 435.47,388.1 435.17,388.4 434.87,388.76 434.57,389.06 434.21,389.3 433.85,389.6   433.49,389.84 433.07,390.08 432.65,390.32 432.23,390.56 431.81,390.74 431.39,390.92 430.91,391.1 430.43,391.22 429.95,391.34   429.41,391.46 428.93,391.58 428.39,391.7 427.79,391.76 427.25,391.82 426.65,391.82 426.05,391.88 425.45,391.88 425.33,391.88   425.03,391.88 424.67,391.88 424.25,391.88 423.95,391.88 423.83,391.88 423.23,391.88 422.63,391.82 422.03,391.82 421.49,391.76   420.95,391.7 420.41,391.58 419.87,391.46 419.39,391.34 418.85,391.22 418.37,391.1 417.95,390.92 417.47,390.74 417.05,390.56   416.63,390.32 416.21,390.08 415.85,389.84 415.49,389.6 415.13,389.3 414.77,389.06 414.41,388.76 414.11,388.4 413.81,388.1   413.57,387.74 413.27,387.38 413.03,386.96 412.79,386.54 412.55,386.18 412.37,385.7 412.19,385.28 412.01,384.8 411.83,384.32   411.71,383.84 411.65,383.66 411.65,383.48 411.59,383.24 411.53,383 411.47,382.7 411.41,382.34 411.35,381.68 411.29,380.96   411.23,380.24 411.23,379.52 411.23,379.16 411.23,378.86 411.35,375.08 411.47,371.3 411.71,367.52 412.01,363.74 412.37,359.96   412.79,356.18 413.27,352.4 413.87,348.68 414.47,344.9 415.19,341.18 415.97,337.46 416.81,333.68 417.71,329.96 418.73,326.3   419.75,322.58 420.89,318.86 420.95,318.62 421.07,318.38 421.19,318.14 421.31,317.9 421.49,317.66 421.67,317.48 421.91,317.24   422.15,317.12 422.39,316.94 422.69,316.82 422.99,316.7 423.29,316.58 423.59,316.52 423.89,316.46 424.25,316.4 424.61,316.4   424.67,316.4 424.73,316.4 425.09,316.4 425.39,316.46 425.69,316.52 426.05,316.58 426.35,316.7 426.65,316.82 426.89,316.94   427.13,317.12 427.37,317.24 427.61,317.48 427.79,317.66 427.97,317.9 428.15,318.14 428.27,318.38 428.33,318.62 428.39,318.86   429.53,322.58 430.61,326.3 431.57,329.96 432.47,333.68 433.31,337.46 434.09,341.18 434.81,344.9 435.47,348.68 436.01,352.4   436.49,356.18 436.97,359.96 437.33,363.74 437.57,367.52 437.81,371.3 437.99,375.08 438.05,378.86 438.11,379.16 438.11,379.52   438.11,380.24 438.05,380.96 437.99,381.68 437.87,382.34 437.81,382.7 437.75,383 437.75,383.24 437.69,383.48 437.63,383.66 "
   id="polygon478" />
<path
   class="st7"
   d="M369.76,535.95l9.6-8.82l0.04-0.01c0.99-0.91,2.27-1.43,3.61-1.48l0,0l72.18-2.7l0,0  c2.59-0.1,4.79-1.94,5.33-4.48l0.01,0.04l6.54-30.54l0.01-0.08c0.56-2.61,2.87-4.48,5.54-4.48l-0.03,0.06h17.7l0.03-0.06  c3.13,0,5.67,2.54,5.67,5.67v0c0,4.74-0.33,9.48-0.98,14.18l-0.04,0.07h20.7l0.03-0.06c3.13,0,5.67,2.54,5.67,5.67l-0.06,0.03v11.1  l0.06-0.03c0,3.13-2.54,5.67-5.67,5.67l-0.03,0.06h-26.46l-0.01-0.07c-3.09,8.04-7.19,15.65-12.2,22.66l-0.03,0.03l-7.92,1.74  l0.06,0.01c-2.59,0.58-4.44,2.88-4.44,5.54l-0.06,0.03v22.44l0.06-0.03c0,2.66-1.85,4.96-4.44,5.53l-0.06,0.02l-14.16,3.12  l0.06-0.01c-1.68,0.37-3.44-0.04-4.78-1.11c-1.34-1.08-2.12-2.7-2.12-4.42l-0.06,0.03v-20.52l0.06-0.03c0-1.63-0.7-3.17-1.92-4.25  c-1.22-1.08-2.84-1.58-4.46-1.38l-0.05,0.02l-11.34,1.44l0.05-0.02c-2.84,0.35-4.97,2.77-4.97,5.63l-0.06,0.03v20.46l0.06-0.03  c0,3.13-2.54,5.67-5.67,5.67l-0.03,0.06h-19.86v-25.5v-0.03c0-3.13-2.54-5.67-5.67-5.67h-0.03h-13.26h0.03  c-1.64,0-3.21-0.71-4.28-1.95c-1.08-1.24-1.56-2.89-1.33-4.52l-0.06-0.01l1.62-11.34l0.06-0.05c0.19-1.3,0.82-2.5,1.79-3.38  L369.76,535.95z"
   id="path480" />
<path
   class="st7"
   d="M519.88,455.98l10.2-30.24l0.05-0.01c0.58-1.71,0.3-3.6-0.74-5.08c-1.04-1.48-2.72-2.37-4.53-2.4l-0.07-0.01  l-109.54-2l0.01,0.01c-2.73-0.05-5.11,1.86-5.66,4.54l0.01,0.02l-8.2,40.11l0.07-0.04c-0.55,2.69-2.95,4.61-5.7,4.54l-0.07,0  l-16.99-0.38l0.05-0.05c-3.04-0.08-5.6,2.26-5.8,5.3l-0.06,0.03l-1.64,25.27l0.06-0.03c-0.1,1.6,0.48,3.17,1.6,4.32  c1.12,1.15,2.68,1.77,4.28,1.71l-0.02,0.03l46.41-1.8l0.02-0.03c2.51-0.1,4.65-1.83,5.27-4.26l-0.03,0.06l9.26-36.08l0.04-0.05  c0.68-2.64,3.14-4.43,5.86-4.25l-0.03,0.06l70.17,4.56l0.03-0.06c2.56,0.17,4.92-1.41,5.74-3.85"
   id="path482" />
<path
   class="st7"
   d="M440.93,266.83l-2.64,5.04l-2.88,4.98l-3.12,4.8l-3.24,4.74l-3.48,4.56l-3.66,4.44l-3.84,4.26l-3.96,4.14  l-4.2,3.9l-4.32,3.78l-4.44,3.6l-4.62,3.42l0.04,0c-1.25,0.88-1.92,2.37-1.76,3.89l-0.02,0.01l2.04,19.68l0.04-0.05  c0.13,1.19-0.26,2.38-1.06,3.27c-0.8,0.89-1.94,1.4-3.14,1.4l-0.03,0.06h-15.36l0.03-0.06c-1.25,0-2.43-0.55-3.24-1.51  s-1.14-2.22-0.93-3.45l-0.05-0.01c2.16-12.37,2.14-25.02-0.06-37.38l0.05,0.05c-0.3-1.69,0.45-3.4,1.9-4.32l-0.05,0l6.18-4.08  l6-4.26l5.94-4.44l5.7-4.62l5.64-4.86l5.4-4.98l5.28-5.22l5.04-5.34l4.92-5.52l4.74-5.7l4.5-5.82l4.32-6l0.04-0.05  c1.26-1.8,3.68-2.34,5.58-1.24l0.02,0.03l6.42,3.6l6.6,3.42l6.66,3.18l6.78,3l6.84,2.76l6.9,2.58l7.02,2.34l0.06,0.02  c1.22,0.39,2.2,1.31,2.66,2.51c0.46,1.19,0.36,2.53-0.29,3.64l-0.05,0.01c-5.05,8.72-12.79,15.56-22.05,19.5l0-0.04  c-1.92,0.82-4.15,0.11-5.25-1.67l0.03-0.01c-4.8-7.75-11.69-13.99-19.89-17.98l-0.01,0.08c-2.08-1.01-4.59-0.16-5.63,1.9  L440.93,266.83z"
   id="path484" />
<line
   class="st7"
   x1="324.2"
   y1="231.34"
   x2="340.89"
   y2="198.94"
   id="line486" />
<line
   class="st7"
   x1="329.83"
   y1="185.63"
   x2="301.21"
   y2="205.77"
   id="line488" />
<polyline
   class="st7"
   points="269.29,205.66 272.5,211.14 275.91,216.52 279.49,221.77 283.32,226.85 287.27,231.88 291.41,236.67   295.72,241.34 300.23,245.84 304.92,250.22 309.67,254.37 314.67,258.4 319.73,262.19 324.98,265.81 330.35,269.25 335.79,272.52   341.41,275.54 347.1,278.39 352.91,281.01 358.68,278.4 364.4,275.54 370,272.51 375.48,269.29 380.86,265.83 386.05,262.24   391.19,258.42 396.16,254.41 400.95,250.27 405.56,245.89 410.06,241.38 414.39,236.75 418.59,231.88 422.56,226.94 426.36,221.82   429.92,216.57 433.36,211.2 436.56,205.7 "
   id="polyline490" />
<line
   class="st7"
   x1="381.63"
   y1="231.4"
   x2="364.96"
   y2="198.91"
   id="line492" />
<line
   class="st7"
   x1="376.05"
   y1="185.64"
   x2="404.63"
   y2="205.83"
   id="line494" />
<polyline
   class="st7"
   points="413.77,191.24 410.69,196.62 407.37,201.82 403.88,206.89 400.15,211.83 396.18,216.65 392.1,221.23   387.78,225.68 383.23,229.94 378.57,233.96 373.72,237.85 368.77,241.51 363.63,244.97 358.33,248.2 352.91,251.18 347.52,248.15   342.21,244.95 337.07,241.52 332.07,237.85 327.25,233.94 322.61,229.92 318.1,225.66 313.78,221.22 309.63,216.62 305.74,211.83   301.97,206.87 298.44,201.8 295.15,196.55 292.05,191.19 "
   id="polyline496" />
<polyline
   class="st7"
   points="384.64,171.46 382.24,175.9 379.67,180.15 376.92,184.34 373.99,188.4 370.89,192.35 367.61,196.1   364.15,199.73 360.58,203.24 356.83,206.5 352.91,209.7 349.03,206.54 345.28,203.2 341.71,199.75 338.26,196.12 335,192.31   331.86,188.39 328.96,184.35 326.19,180.13 323.6,175.87 321.26,171.42 "
   id="polyline498" />
<path
   class="st7"
   d="M415.25,152.85c-2.68-3.57-6.88-5.67-11.34-5.67l-0.03,0.05l-101.85-0.02l0.03-0.05  c-4.46,0-8.67,2.1-11.35,5.66l0.01,0.04l-27.42,36.44l0.03-0.05c-0.35,0.47-0.88,0.77-1.47,0.84l-0.02,0.02l-2.71,0.23l-2.76-0.13  l-2.75-0.31l-2.63-0.55l-2.62-0.85l0.01,0.01c-0.57-0.21-1.03-0.65-1.25-1.22c-0.22-0.57-0.2-1.2,0.08-1.74l0.04,0  c1.41-2.8,2.16-5.88,2.21-9.01l-0.06-0.02c0.01-0.68,0.34-1.31,0.89-1.7s1.25-0.5,1.9-0.29l-0.02,0.01c3.3,1.07,6.8,1.36,10.23,0.85  l-0.01,0.04l-0.38,2.93l-2.53,0.17l-2.52-0.13l-2.51-0.31l0.01-0.03c-0.57-0.11-1.15,0.02-1.62,0.36c-0.47,0.33-0.79,0.84-0.87,1.41  l0.04-0.02c-0.22,1.42-0.57,2.82-1.04,4.17l-0.04,0c-0.2,0.57-0.15,1.2,0.15,1.73c0.29,0.53,0.8,0.91,1.38,1.05l0-0.02  c2.55,0.59,5.18,0.81,7.79,0.64l0.01,0.04c0.62-0.04,1.19-0.35,1.57-0.85l-0.03-0.01l11.07-14.72l0-0.04c0.96-1.28,1.12-3,0.4-4.43  c-0.72-1.43-2.18-2.34-3.78-2.34l0.02,0l-5.16-0.13l-5.09-0.31l-5.15-0.61l-5.02-0.79l-5.07-1.03l0.08,0.02  c-1.29-0.29-2.64,0.04-3.65,0.89s-1.57,2.12-1.51,3.44l-0.07,0.01l0.03,3.3l-0.15,3.3l-0.32,3.23l-0.56,3.23l-0.74,3.22l-0.98,3.16  l-1.16,3.09l-1.34,2.97l0.08,0.02c-0.52,1.07-0.57,2.32-0.12,3.43c0.45,1.11,1.34,1.98,2.46,2.39l-0.05,0.04l5.41,1.82l5.48,1.64  l5.49,1.4l5.61,1.23l5.62,0.93l5.68,0.75l0.08-0.01c7.69-3.01,14.81-7.32,21.03-12.75l2.96-3.24l12-15.95l0.03-0.02  c1.07-1.43,2.75-2.26,4.53-2.26l-0.06,0l86.19,0.03l0,0c1.78,0,3.46,0.84,4.53,2.27l-0.03,0.01l12.01,15.98l-0.02-0.02  c0.89,1.19,1.91,2.28,3.03,3.26l-0.03,0.02l3.17,2.6l3.36,2.43l3.42,2.25l3.61,2.01l3.67,1.84l3.8,1.6l5.66-0.69l5.67-0.99  l5.55-1.18l5.56-1.42l5.5-1.6l5.39-1.9l0.03,0c1.12-0.41,2.02-1.28,2.46-2.39c0.45-1.11,0.4-2.35-0.12-3.43l-0.01-0.01l-1.36-2.98  l-1.18-3.09l-0.94-3.15l-0.76-3.2l-0.58-3.26l-0.34-3.25l-0.15-3.3l0.09-3.3l0,0.01c0.06-1.32-0.49-2.6-1.5-3.45  c-1.01-0.85-2.36-1.18-3.65-0.89l-0.07-0.01l-5.01,1.01l-5.06,0.77l-5.12,0.59l-5.11,0.35l-5.1,0.11l0.04,0  c-1.6,0-3.07,0.91-3.78,2.34c-0.72,1.43-0.56,3.15,0.4,4.43l-0.08,0.04l11.08,14.75l0.04-0.03c0.37,0.5,0.95,0.81,1.57,0.85  l-0.01,0.06l2.58,0.01l2.59-0.23l2.59-0.47l0.02-0.01c0.59-0.14,1.09-0.52,1.38-1.05c0.29-0.53,0.35-1.16,0.15-1.73l0.03,0.04  c-0.47-1.36-0.82-2.75-1.03-4.17l-0.04-0.03c-0.09-0.57-0.4-1.08-0.87-1.42c-0.47-0.33-1.06-0.46-1.62-0.36l0.03,0  c-2.49,0.46-5.04,0.55-7.56,0.26l-0.04,0.04l-0.4-2.89l2.58,0.19l2.58-0.05l2.59-0.35l2.48-0.66l0.04-0.06  c0.64-0.21,1.35-0.1,1.9,0.3s0.88,1.03,0.89,1.7l0.02,0.05c0.04,3.13,0.79,6.21,2.2,9.01l0-0.03c0.27,0.54,0.3,1.18,0.08,1.74  c-0.22,0.57-0.68,1.01-1.25,1.22l-0.03,0.01c-4.31,1.56-8.93,2.11-13.49,1.6l0.03-0.02c-0.58-0.07-1.11-0.37-1.47-0.84l-0.04,0.03  l-27.38-36.43L415.25,152.85z"
   id="path500" />
<line
   class="st7"
   x1="352.91"
   y1="209.7"
   x2="352.91"
   y2="251.18"
   id="line502" />
<polyline
   class="st7"
   points="380.45,1135.82 366.77,1135.82 366.77,1111.58 380.45,1111.58 380.45,1135.82 "
   id="polyline504" />
<polyline
   class="st7"
   points="359.93,1101.92 359.93,1150.16 387.29,1150.16 387.29,1101.92 359.93,1101.92 "
   id="polyline506" />
<polyline
   class="st7"
   points="421.43,1135.82 407.75,1135.82 407.75,1111.58 421.43,1111.58 421.43,1135.82 "
   id="polyline508" />
<polyline
   class="st7"
   points="400.55,1101.92 400.55,1150.16 427.91,1150.16 427.91,1101.92 400.55,1101.92 "
   id="polyline510" />
<polyline
   class="st7"
   points="461.2,1135.82 447.52,1135.82 447.52,1111.58 461.2,1111.58 461.2,1135.82 "
   id="polyline512" />
<polyline
   class="st7"
   points="440.68,1101.92 440.68,1150.16 468.04,1150.16 468.04,1101.92 440.68,1101.92 "
   id="polyline514" />
<polygon
   class="st7"
   points="340.02,435.75 340.14,436.29 340.32,436.77 340.5,437.19 340.68,437.67 340.86,438.09 341.1,438.51   341.34,438.93 341.58,439.29 341.82,439.65 342.12,440.01 342.42,440.37 342.72,440.67 343.08,440.97 343.38,441.27 343.74,441.51   344.16,441.81 344.52,442.05 344.94,442.29 345.36,442.47 345.78,442.65 346.2,442.83 346.68,443.01 347.16,443.19 347.64,443.31   348.18,443.43 348.72,443.55 349.26,443.61 349.8,443.67 350.34,443.73 350.94,443.79 351.54,443.79 352.14,443.79 352.26,443.79   352.56,443.79 352.98,443.79 353.34,443.79 353.64,443.79 353.76,443.79 354.36,443.79 354.96,443.79 355.56,443.73 356.1,443.67   356.64,443.61 357.18,443.55 357.72,443.43 358.26,443.31 358.74,443.19 359.22,443.01 359.7,442.83 360.12,442.65 360.54,442.47   360.96,442.29 361.38,442.05 361.74,441.81 362.16,441.51 362.52,441.27 362.82,440.97 363.18,440.67 363.48,440.37 363.78,440.01   364.08,439.65 364.32,439.29 364.56,438.93 364.8,438.51 365.04,438.09 365.22,437.67 365.4,437.19 365.58,436.77 365.76,436.29   365.88,435.75 365.94,435.63 366,435.39 366,435.15 366.06,434.91 366.12,434.61 366.18,434.31 366.24,433.59 366.36,432.87   366.42,432.15 366.42,431.43 366.36,431.13 366.36,430.83 366.3,426.99 366.12,423.21 365.88,419.43 365.58,415.65 365.22,411.87   364.8,408.09 364.32,404.37 363.72,400.59 363.12,396.87 362.4,393.09 361.62,389.37 360.78,385.65 359.88,381.93 358.86,378.21   357.84,374.49 356.7,370.83 356.64,370.53 356.52,370.29 356.4,370.05 356.28,369.81 356.1,369.57 355.92,369.39 355.68,369.21   355.44,369.03 355.2,368.85 354.9,368.73 354.66,368.61 354.3,368.49 354,368.43 353.7,368.37 353.34,368.31 353.04,368.31   352.98,368.31 352.92,368.31 352.86,368.31 352.56,368.31 352.2,368.37 351.9,368.43 351.6,368.49 351.3,368.61 351,368.73   350.7,368.85 350.46,369.03 350.22,369.21 349.98,369.39 349.8,369.57 349.62,369.81 349.5,370.05 349.38,370.29 349.26,370.53   349.2,370.83 348.06,374.49 347.04,378.21 346.02,381.93 345.12,385.65 344.28,389.37 343.5,393.09 342.78,396.87 342.18,400.59   341.58,404.37 341.1,408.09 340.68,411.87 340.32,415.65 340.02,419.43 339.78,423.21 339.6,426.99 339.54,430.83 339.54,431.13   339.48,431.43 339.54,432.15 339.54,432.87 339.66,433.59 339.72,434.31 339.78,434.61 339.84,434.91 339.9,435.15 339.96,435.39   339.96,435.63 "
   id="polygon516" />
<polygon
   class="st7"
   points="294.99,1497.59 296.78,1625.8 296.74,1627.18 296.69,1628.5 296.53,1629.88 296.31,1631.15   295.97,1632.47 295.62,1633.67 295.16,1634.94 294.69,1636.15 294.11,1637.29 293.46,1638.38 292.82,1639.53 292.05,1640.56   291.28,1641.59 290.46,1642.56 289.57,1643.47 288.62,1644.33 287.67,1645.18 286.66,1645.97 285.59,1646.71 284.52,1647.38   283.39,1647.99 282.25,1648.55 281.06,1649.1 279.87,1649.54 278.61,1649.92 277.36,1650.23 276.1,1650.49 274.84,1650.69   273.52,1650.82 272.2,1650.84 270.88,1650.8 269.56,1650.69 269.5,1650.69 269.44,1650.7 269.32,1650.7 268,1650.53 266.67,1650.25   265.41,1649.91 264.15,1649.56 262.94,1649.1 261.79,1648.57 260.58,1647.99 259.5,1647.34 258.41,1646.64 257.38,1645.93   256.35,1645.11 255.38,1644.28 254.46,1643.39 253.61,1642.44 252.82,1641.43 252.03,1640.42 251.29,1639.35 250.62,1638.28   250,1637.15 249.45,1635.95 248.95,1634.82 248.52,1633.57 248.2,1632.37 247.88,1631.11 247.63,1629.8 247.49,1628.54   247.35,1627.22 247.34,1625.9 247.38,1624.58 247.54,1623.26 247.71,1621.94 248.05,1620.55 276.97,1495.66 277.08,1495.18   277.26,1494.76 277.43,1494.28 277.6,1493.86 277.78,1493.49 278.01,1493.07 278.25,1492.71 278.49,1492.34 278.72,1492.04   278.96,1491.68 279.55,1491.13 280.14,1490.58 280.8,1490.15 281.51,1489.73 282.23,1489.42 282.94,1489.17 283.72,1488.98   284.44,1488.85 285.22,1488.78 286,1488.77 286.78,1488.82 286.84,1488.82 287.62,1488.93 288.4,1489.1 289.13,1489.33   289.85,1489.62 290.58,1489.97 291.24,1490.38 291.85,1490.85 292.45,1491.38 292.94,1491.98 293.43,1492.63 293.86,1493.29   294.04,1493.7 294.23,1494.06 294.41,1494.48 294.54,1494.84 294.67,1495.31 294.79,1495.73 294.86,1496.15 294.92,1496.63   294.99,1497.11 "
   id="polygon518" />
<polygon
   class="st7"
   points="238.16,1459.85 233.11,1587.97 233,1589.34 232.88,1590.66 232.65,1592.03 232.36,1593.28   231.94,1594.58 231.54,1595.77 231.01,1597.01 230.48,1598.19 229.83,1599.3 229.13,1600.36 228.42,1601.47 227.6,1602.46   226.78,1603.44 225.9,1604.37 224.97,1605.23 223.98,1606.03 222.98,1606.83 221.93,1607.57 220.82,1608.25 219.72,1608.86   218.55,1609.42 217.39,1609.91 216.17,1610.4 214.96,1610.77 213.68,1611.08 212.41,1611.33 211.14,1611.52 209.88,1611.65   208.55,1611.72 207.23,1611.66 205.92,1611.55 204.6,1611.38 204.54,1611.37 204.48,1611.37 204.36,1611.37 203.05,1611.13   201.75,1610.78 200.5,1610.37 199.26,1609.96 198.08,1609.43 196.96,1608.84 195.79,1608.2 194.73,1607.49 193.68,1606.73   192.69,1605.97 191.71,1605.09 190.78,1604.21 189.92,1603.28 189.12,1602.28 188.38,1601.23 187.64,1600.18 186.97,1599.07   186.35,1597.97 185.8,1596.8 185.31,1595.58 184.87,1594.43 184.5,1593.15 184.25,1591.94 184,1590.67 183.82,1589.34   183.75,1588.08 183.68,1586.75 183.73,1585.43 183.85,1584.12 184.08,1582.8 184.31,1581.49 184.73,1580.13 220.27,1456.96   220.41,1456.49 220.6,1456.07 220.8,1455.6 221,1455.19 221.19,1454.84 221.45,1454.43 221.7,1454.08 221.96,1453.73   222.21,1453.44 222.46,1453.09 223.09,1452.57 223.71,1452.06 224.38,1451.66 225.12,1451.27 225.85,1451 226.58,1450.79   227.37,1450.64 228.09,1450.55 228.87,1450.52 229.65,1450.55 230.43,1450.65 230.49,1450.65 231.26,1450.8 232.04,1451.01   232.75,1451.28 233.45,1451.61 234.16,1452 234.8,1452.44 235.38,1452.95 235.96,1453.51 236.41,1454.13 236.87,1454.81   237.26,1455.49 237.42,1455.91 237.59,1456.28 237.75,1456.71 237.86,1457.07 237.96,1457.56 238.06,1457.98 238.1,1458.4   238.14,1458.88 238.18,1459.37 "
   id="polygon520" />
<path
   class="st7"
   d="M306.23,1450.52c0,7.84-6.35,14.19-14.19,14.19s-14.19-6.35-14.19-14.19s6.35-14.19,14.19-14.19  S306.23,1442.69,306.23,1450.52"
   id="path522" />
<path
   class="st7"
   d="M252.37,1411.83c0,7.84-6.35,14.19-14.19,14.19s-14.19-6.35-14.19-14.19s6.35-14.19,14.19-14.19  S252.37,1404,252.37,1411.83"
   id="path524" />
<polyline
   class="st7"
   points="325.37,705.91 339.05,705.91 339.05,681.67 325.37,681.67 325.37,705.91 "
   id="polyline526" />
<polyline
   class="st7"
   points="345.89,672.01 345.89,720.25 318.53,720.25 318.53,672.01 345.89,672.01 "
   id="polyline528" />
<polyline
   class="st7"
   points="284.41,705.91 298.09,705.91 298.09,681.67 284.41,681.67 284.41,705.91 "
   id="polyline530" />
<polyline
   class="st7"
   points="305.29,672.01 305.29,720.25 277.93,720.25 277.93,672.01 305.29,672.01 "
   id="polyline532" />
<polyline
   class="st7"
   points="244.62,705.91 258.3,705.91 258.3,681.67 244.62,681.67 244.62,705.91 "
   id="polyline534" />
<polyline
   class="st7"
   points="265.14,672.01 265.14,720.25 237.78,720.25 237.78,672.01 265.14,672.01 "
   id="polyline536" />
<polyline
   class="st7"
   points="325.37,1135.82 339.05,1135.82 339.05,1111.58 325.37,1111.58 325.37,1135.82 "
   id="polyline538" />
<polyline
   class="st7"
   points="345.89,1101.92 345.89,1150.16 318.53,1150.16 318.53,1101.92 345.89,1101.92 "
   id="polyline540" />
<polyline
   class="st7"
   points="284.41,1135.82 298.09,1135.82 298.09,1111.58 284.41,1111.58 284.41,1135.82 "
   id="polyline542" />
<polyline
   class="st7"
   points="305.29,1101.92 305.29,1150.16 277.93,1150.16 277.93,1101.92 305.29,1101.92 "
   id="polyline544" />
<polyline
   class="st7"
   points="244.62,1135.82 258.3,1135.82 258.3,1111.58 244.62,1111.58 244.62,1135.82 "
   id="polyline546" />
<polyline
   class="st7"
   points="265.14,1101.92 265.14,1150.16 237.78,1150.16 237.78,1101.92 265.14,1101.92 "
   id="polyline548" />
<path
   class="st7"
   d="M321.41,653.12c0,2.93-2.38,5.31-5.31,5.31l0.03,0.06h-14.88l-0.03-0.06c-2.44,0-4.56-1.66-5.15-4.02l0.02,0.06  l-2.46-9.78l0.01,0c-0.33-1.34-1.41-2.36-2.76-2.64l-0.01,0.05l-46.5-9.3l-0.04-0.02c-2.69-0.54-4.84-2.58-5.5-5.25l0.03-0.01  l-4.92-19.56l-0.01,0c-0.27-1.07-0.03-2.2,0.65-3.06s1.71-1.37,2.81-1.37l0.03,0.06h21.6l-0.03-0.06c1.35,0,2.59,0.76,3.19,1.97  l0.02,0.01l3.66,7.32l-0.03-0.03c1.5,3,4.56,4.89,7.92,4.89l0.03,0.06h15.78v-14.16l-0.06-0.03c0-1.97,1.6-3.57,3.57-3.57h0.03h21.3  h-0.03c3.93,0,7.11,3.18,7.11,7.11v0.03v46.02L321.41,653.12z"
   id="path550" />
<path
   class="st7"
   d="M250.19,767.24h-28.62h-0.03c-10.14,0-18.87-7.16-20.86-17.1l0.01,0l-2.46-12.48l-0.03-0.04  c-0.14-0.68,0.14-1.38,0.71-1.79c0.57-0.41,1.32-0.44,1.92-0.09l-0.02,0.06l0.6,0.3l0.54,0.3l1.08,0.54l1.08,0.48l0.54,0.24  l0.6,0.18l0.6,0.18l0.6,0.18l0.66,0.12l0.72,0.18l0.78,0.12l0.84,0.12l0.96,0.06l0.96,0.12l1.08,0.06l1.14,0.06l1.2,0.06l1.32,0.06  l1.38,0.06h1.5l1.5,0.06h1.62h1.62l1.74,0.06h1.74h1.8h1.8h1.86l3.78-0.06h3.72l1.86-0.06h1.8h1.8l1.74-0.06h1.68l1.68-0.06h1.56  l1.5-0.06h1.44l1.38-0.06h1.32l1.2-0.06h1.14l1.02-0.06h1.02l0.9-0.06h0.84l0.84-0.06h0.72l0.72-0.06h0.66h0.66l2.46-0.06l1.26-0.06  h0.66h0.66h0c3.38,0.01,6.28,2.4,6.95,5.72l0.02-0.02l4.86,24.36l-0.04-0.02c0.66,3.32,3.58,5.72,6.97,5.72l0.03,0h15.42h-0.03  c1.97,0,3.57-1.6,3.57-3.57v0.03v-30.12v-0.03c0-2.93,2.38-5.31,5.31-5.31h0.03h26.22h-0.03c1.68,0,3.26,0.8,4.27,2.15  c1,1.35,1.3,3.1,0.81,4.71l0.03-0.01c-5.29,17.38-6.47,35.76-3.45,53.68l-0.02,0.01c0.43,2.57-0.29,5.2-1.97,7.19  c-1.68,1.99-4.15,3.14-6.76,3.14h0.03h-63.48h-0.03c-9.79,0-17.73-7.94-17.73-17.73l0.06,0.03v-17.7v-0.03  c0-1.97-1.6-3.57-3.57-3.57L250.19,767.24z"
   id="path552" />
<path
   class="st7"
   d="M295.19,822.13c2.62,0.37,4.56,2.61,4.56,5.26l0.06,0.03v26.04v-0.03c0,2.73,2.07,5.01,4.78,5.28l0.02,0.03  l24.48,2.46l-0.04-0.02c3.5,0.35,6.22,3.21,6.39,6.73l0-0.04c1.07,21.91,4.55,43.64,10.4,64.78l0.05,0.01l-0.84,0.12l-0.78,0.06  l-0.78,0.06h-0.72l-0.72,0.06l-0.66,0.06l-0.72,0.06h-0.66l-0.6,0.06h-0.6l-1.14,0.06l-1.14,0.06h-0.96h-0.96h-0.9l-0.84-0.06h-0.78  l-0.72-0.06l-0.72-0.06l-0.66-0.12l-0.66-0.06l-0.6-0.12l-0.6-0.12l-1.2-0.3l-0.54-0.12l-0.6-0.24l-0.54-0.18l-0.6-0.24l-0.54-0.3  l-0.6-0.3l-0.54-0.36l-0.54-0.36l-0.54-0.42l-0.54-0.48l-0.54-0.48l-0.54-0.54l-0.54-0.54l-0.48-0.6l-0.54-0.6l-0.48-0.66  l-0.48-0.72l-0.48-0.66l-0.9-1.5l-0.84-1.5l-0.84-1.5l-0.72-1.56l-0.66-1.56l-0.6-1.62l-0.3-0.78l-0.24-0.84l-0.3-0.84l-0.18-0.84  l-0.24-0.9l-0.18-0.96l-0.18-0.96l-0.18-1.02l-0.12-1.08l-0.12-1.08l-0.12-1.2l-0.12-1.2l-0.06-1.32l-0.06-1.32l0-0.05  c-0.07-1.92-1.65-3.43-3.57-3.43l0.03,0.06h-41.1h-0.03c-2.73,0-5.02-2.07-5.28-4.79l-0.03-0.01l-2.88-29.34l-0.07-0.02  c-0.09-0.91-0.85-1.6-1.76-1.6h0.03h-4.2l-0.03-0.06c-0.73,0-1.34,0.56-1.4,1.29l0.05,0.03l-2.7,32.1l-0.01-0.05  c-0.12,1.38-1.27,2.45-2.66,2.45h0.03h-16.92h-0.03c-1.37,0-2.52-1.04-2.66-2.41l0.05,0.01l-3.12-31.14l-0.01-0.05  c-0.13-1.28-1.15-2.29-2.43-2.4l0.05,0.05l-13.68-1.14l-0.03-0.05c-1.96-0.17-3.69,1.29-3.86,3.26l0.05,0.03l-1.32,16.08l-0.08-0.01  c-0.25,2.92-2.81,5.09-5.74,4.85l0.05,0.02l-12.18-1.02l0.01-0.02c-2.75-0.23-4.87-2.53-4.87-5.29v0.03v-31.08l-0.06-0.03  c0-1.64,1.12-3.07,2.71-3.47l0.05,0.02l0.72-0.18l0.6-0.18l0.66-0.24l0.54-0.24l0.54-0.3l0.54-0.3l0.48-0.36l0.48-0.36l0.42-0.36  l0.42-0.48l0.42-0.42l0.36-0.54l0.36-0.54l0.36-0.54l0.36-0.6l0.36-0.66l0.3-0.66l0.3-0.66l0.3-0.72l0.3-0.72l0.24-0.78l0.24-0.72  l0.18-0.78l0.18-0.72l0.12-0.78l0.06-0.66l0.06-0.72l-0.06-0.66l-0.06-0.66l-0.06-0.6l-0.18-0.6l-0.24-0.54l-0.24-0.48l-0.3-0.48  l-0.36-0.42l-0.42-0.42l-0.42-0.36l-0.42-0.36l-0.96-0.66l-0.96-0.66l-0.96-0.66l-0.42-0.36l-0.42-0.42l-0.36-0.36l-0.3-0.42  l-0.3-0.42l-0.24-0.48l-0.18-0.42l-0.18-0.48l-0.06-0.48l-0.06-0.48v-0.42l0.06-0.48l0.12-0.42l0.12-0.42l0.24-0.42l0.24-0.36  l0.24-0.3l0.36-0.36l0.36-0.24l0.42-0.3l0.48-0.24l0.54-0.24l0.54-0.24l0.54-0.18l0.66-0.18l0.66-0.18l0.66-0.18l0.72-0.18  l0.78-0.18l0.78-0.18l0.78-0.18l0.84-0.18l1.74-0.36l1.8-0.3l1.8-0.24l0.96-0.06l0.9-0.06h0.9h0.9l0.9,0.06l0.84,0.12l0.9,0.12  l0.84,0.24l0.78,0.24l0.78,0.3l0.78,0.36l0.72,0.42l0.72,0.48l0.66,0.54l0.66,0.54l0.6,0.66l0.6,0.66l0.54,0.72l0.48,0.78l0.54,0.78  l0.42,0.78l0.48,0.84l0.36,0.84l0.42,0.9l0.66,1.74l0.66,1.68l0.3,0.84l0.3,0.84l0.24,0.78l0.3,0.72l0.24,0.72l0.3,0.72l0.24,0.6  l0.3,0.6l0.3,0.54l0.3,0.48l0.3,0.48l0.36,0.42l0.3,0.3l0.42,0.3l0.36,0.24l0.42,0.24l0.48,0.12l0.48,0.12h53.16v-8.04l-0.06-0.03  c0-1.54,0.67-3,1.83-4.01c1.16-1.01,2.71-1.46,4.23-1.25l0.06,0.01l14.16,2.04L295.19,822.13z"
   id="path554" />
<path
   class="st7"
   d="M245.11,943.45c-0.25,1.76-1.76,3.07-3.53,3.07h0.03h-13.8h-0.03c-1.85,0-3.4-1.42-3.56-3.26l0.05,0.02  l-2.1-24.6l-0.05-0.02c-0.09-1,0.25-1.98,0.93-2.72c0.68-0.74,1.63-1.16,2.63-1.16l0.03,0.06h19.38l-0.03-0.06  c1.03,0,2.02,0.45,2.7,1.23c0.68,0.78,0.98,1.82,0.84,2.84l0.04,0.01l-3.54,24.66L245.11,943.45z"
   id="path556" />
<path
   class="st7"
   d="M342.29,1028.06l-3.18-56.4l-0.01,0c-0.2-3.54-2.97-6.4-6.51-6.69l0.04,0.04l-36.36-3l-2.16-38.46l-0.01,0  c-0.21-3.77-3.33-6.72-7.1-6.72l0.03,0.06h-15.18l-0.03-0.06c-1.95,0-3.82,0.8-5.17,2.22s-2.04,3.33-1.93,5.28l0.05,0l3,53.52  l-0.05,0c0.18,3.29,2.61,6.03,5.86,6.61l0.01-0.01l33.3,5.88l9.36,35.94l-0.07,0.02c0.77,2.97,3.36,5.11,6.42,5.31l0.01-0.04  l14.04,0.96l-0.02-0.07c2.73,0.18,5.14-1.74,5.59-4.44L342.29,1028.06z"
   id="path558" />
<path
   class="st7"
   d="M269.87,1013.54h-46.02v-20.1h3.6V1010h19.92h-0.03c3.93,0,7.11-3.18,7.11-7.11v0.03V974.6v-0.03  c0-3.93-3.18-7.11-7.11-7.11l0.03,0.06h-53.16l-0.03-0.06c-3.93,0-7.11,3.18-7.11,7.11l0.06,0.03v60.24l-0.06-0.03  c0,3.93,3.18,7.11,7.11,7.11h0.03h46.08l6.18,40.08l-0.1-0.03c0.53,3.47,3.52,6.03,7.03,6.03h0.03h76.26h-0.03  c2.29,0,4.43-1.1,5.77-2.95c1.34-1.85,1.7-4.24,0.98-6.41l0,0l-4.8-14.4l-0.04-0.05c-1.63-4.89-6.11-8.25-11.26-8.46l0.01-0.01  l-36.96-1.44l-6.54-34.92l0-0.03c-0.63-3.36-3.57-5.79-6.99-5.79H269.87z"
   id="path560" />
<polyline
   class="st7"
   points="189.05,1061.48 189.35,1079.78 189.47,1081.4 189.59,1082.96 189.71,1084.52 189.83,1086.02   189.95,1087.52 190.13,1088.96 190.31,1090.4 190.49,1091.72 190.67,1092.98 190.85,1094.24 191.09,1095.38 191.33,1096.46   191.39,1096.94 191.51,1097.48 191.63,1097.9 191.81,1098.38 191.93,1098.8 192.05,1099.16 192.17,1099.52 192.29,1099.88   192.77,1100.96 193.19,1101.98 193.67,1102.94 194.09,1103.84 194.57,1104.68 195.05,1105.46 195.53,1106.18 195.95,1106.9   196.43,1107.5 196.91,1108.1 197.39,1108.64 197.87,1109.12 198.35,1109.54 198.83,1109.9 199.31,1110.2 199.79,1110.44   198.95,1103.78 198.77,1102.82 198.65,1101.86 198.59,1100.9 198.59,1099.88 198.65,1098.92 198.77,1097.96 198.89,1097   199.13,1096.04 199.43,1095.08 199.79,1094.18 200.21,1093.22 200.63,1092.26 201.17,1091.3 201.77,1090.34 202.37,1089.44   203.09,1088.48 209.45,1078.52 209.75,1078.04 209.99,1077.56 210.17,1077.08 210.35,1076.54 210.47,1076 210.59,1075.46   210.65,1074.86 210.65,1074.32 210.59,1061.78 210.59,1061.3 210.47,1060.88 210.41,1060.46 210.23,1060.04 210.11,1059.62   209.87,1059.26 209.63,1058.96 209.39,1058.6 209.15,1058.36 208.85,1058.06 208.49,1057.88 208.19,1057.7 207.83,1057.52   207.47,1057.4 207.11,1057.4 206.69,1057.34 192.23,1057.64 191.93,1057.7 191.57,1057.76 191.27,1057.88 191.03,1058   190.73,1058.18 190.49,1058.36 190.25,1058.54 190.01,1058.84 189.77,1059.08 189.59,1059.38 189.47,1059.68 189.35,1060.04   189.23,1060.34 189.11,1060.7 189.11,1061.12 189.05,1061.48 "
   id="polyline562" />
<polyline
   class="st7"
   points="212.15,1049.96 212.87,1049.96 213.59,1050.08 214.31,1050.26 214.91,1050.5 215.57,1050.8   216.17,1051.16 216.71,1051.52 217.19,1052 217.67,1052.48 218.09,1053.02 218.45,1053.62 218.75,1054.22 218.99,1054.88   219.23,1055.54 219.35,1056.26 219.35,1056.98 219.65,1076.72 219.65,1077.62 219.53,1078.52 219.35,1079.36 219.11,1080.2   218.81,1081.04 218.45,1081.82 218.03,1082.6 217.49,1083.32 205.85,1098.92 205.61,1099.82 205.49,1100.78 205.37,1101.74   205.37,1102.7 205.43,1103.72 205.61,1104.74 205.85,1105.76 206.09,1106.84 206.51,1107.92 206.93,1109.06 207.47,1110.2   208.07,1111.34 208.73,1112.54 209.45,1113.74 210.29,1115 211.19,1116.26 211.37,1126.04 210.59,1126.04 209.81,1125.98   209.09,1125.92 208.31,1125.8 207.59,1125.62 206.81,1125.44 206.09,1125.26 205.31,1125.02 204.59,1124.78 203.87,1124.48   203.09,1124.18 202.37,1123.82 201.65,1123.46 200.93,1123.04 200.21,1122.62 199.49,1122.14 198.71,1121.66 197.99,1121.18   197.27,1120.64 196.55,1120.04 195.83,1119.44 195.11,1118.78 194.45,1118.12 193.73,1117.46 193.01,1116.74 192.29,1116.02   191.57,1115.24 190.91,1114.4 190.19,1113.56 189.47,1112.72 188.81,1111.82 188.09,1110.92 187.43,1109.96 186.71,1108.94   186.11,1107.8 185.45,1106.66 184.91,1105.4 184.61,1104.8 184.31,1104.08 184.07,1103.42 183.83,1102.7 183.53,1101.98   183.29,1101.2 183.05,1100.42 182.81,1099.58 182.63,1098.74 182.39,1097.9 182.21,1097 182.03,1096.04 181.85,1095.14   181.67,1094.12 181.49,1093.1 181.31,1092.08 181.19,1091 181.07,1089.92 180.89,1088.72 180.77,1087.58 180.71,1086.38   180.59,1085.12 179.93,1056.26 179.93,1055.66 179.99,1055.06 180.17,1054.52 180.35,1053.92 180.59,1053.44 180.89,1052.96   181.19,1052.48 181.55,1052.06 181.97,1051.64 182.45,1051.34 182.93,1051.04 183.41,1050.74 183.95,1050.56 184.49,1050.38   185.09,1050.26 185.69,1050.26 212.15,1049.96 "
   id="polyline564" />
<path
   class="st7"
   d="M274.19,1267.54l-7.26-14.52l-0.03-0.03c-1.56-3.11-5.14-4.64-8.47-3.61l0,0.03  c-6.27,1.95-12.18,4.89-17.52,8.71l0.03-0.05c-1.03,0.74-1.59,1.97-1.47,3.23c0.12,1.26,0.9,2.37,2.04,2.9l0.04,0.04l0.54,0.24  l0.48,0.24l1.02,0.48l0.9,0.48l0.84,0.42l0.84,0.48l0.9,0.48l0.84,0.54l0.48,0.3l0.48,0.36l0.48,0.3l0.54,0.36l0.48,0.42l0.6,0.42  l0.6,0.42l0.6,0.42l0.6,0.48l0.66,0.54l0.66,0.48l0.72,0.54l1.38,1.14l1.5,1.14l1.5,1.2l1.44,1.2l1.5,1.2l1.38,1.14l0.66,0.54  l0.66,0.54l0.66,0.54l0.6,0.48l0.6,0.54l0.54,0.48l0.54,0.42l0.48,0.48l0.48,0.42l0.48,0.36l0.42,0.42l0.42,0.36l0.72,0.72  l0.72,0.66l0.72,0.72l0.66,0.66l0.72,0.72l0.78,0.78l0.78,0.84l-0.06-0.05c1.96,2.01,5.14,2.15,7.27,0.32l0.05,0.02l43.2-37.08  l-11.64-16.26l16.14-19.26l-6.96-9.78l0,0c-1.15-1.6-3.38-1.98-4.98-0.83l0,0.06l-21.9,15.66l-14.16-14.22l7.08-38.94l-0.01-0.07  c-8.79-5.02-19.58-5.02-28.37,0l-0.01,0.07v53.16l0.01-0.07c15.08,6.32,27.57,17.57,35.45,31.9l0,0.03l-19.5,13.2l-0.06-0.06  c-0.42,0.29-0.95,0.37-1.44,0.25c-0.49-0.13-0.91-0.46-1.13-0.92L274.19,1267.54z"
   id="path566" />
<polygon
   class="st7"
   points="268.25,383.84 268.37,384.32 268.55,384.8 268.67,385.28 268.91,385.7 269.09,386.18 269.33,386.54   269.51,386.96 269.81,387.38 270.05,387.74 270.35,388.1 270.65,388.4 270.95,388.76 271.25,389.06 271.61,389.3 271.97,389.6   272.33,389.84 272.75,390.08 273.17,390.32 273.59,390.56 274.01,390.74 274.43,390.92 274.91,391.1 275.39,391.22 275.87,391.34   276.41,391.46 276.89,391.58 277.43,391.7 278.03,391.76 278.57,391.82 279.17,391.82 279.77,391.88 280.37,391.88 280.49,391.88   280.79,391.88 281.15,391.88 281.57,391.88 281.87,391.88 281.99,391.88 282.59,391.88 283.19,391.82 283.79,391.82 284.33,391.76   284.87,391.7 285.41,391.58 285.95,391.46 286.43,391.34 286.97,391.22 287.45,391.1 287.87,390.92 288.35,390.74 288.77,390.56   289.19,390.32 289.61,390.08 289.97,389.84 290.33,389.6 290.69,389.3 291.05,389.06 291.41,388.76 291.71,388.4 292.01,388.1   292.25,387.74 292.55,387.38 292.79,386.96 293.03,386.54 293.27,386.18 293.45,385.7 293.63,385.28 293.81,384.8 293.99,384.32   294.11,383.84 294.17,383.66 294.17,383.48 294.23,383.24 294.29,383 294.35,382.7 294.41,382.34 294.47,381.68 294.53,380.96   294.59,380.24 294.59,379.52 294.59,379.16 294.59,378.86 294.47,375.08 294.35,371.3 294.11,367.52 293.81,363.74 293.45,359.96   293.03,356.18 292.55,352.4 291.95,348.68 291.35,344.9 290.63,341.18 289.85,337.46 289.01,333.68 288.11,329.96 287.09,326.3   286.07,322.58 284.93,318.86 284.87,318.62 284.75,318.38 284.63,318.14 284.51,317.9 284.33,317.66 284.15,317.48 283.91,317.24   283.67,317.12 283.43,316.94 283.13,316.82 282.83,316.7 282.53,316.58 282.23,316.52 281.93,316.46 281.57,316.4 281.21,316.4   281.15,316.4 281.09,316.4 280.73,316.4 280.43,316.46 280.13,316.52 279.77,316.58 279.47,316.7 279.17,316.82 278.93,316.94   278.69,317.12 278.45,317.24 278.21,317.48 278.03,317.66 277.85,317.9 277.67,318.14 277.55,318.38 277.49,318.62 277.43,318.86   276.29,322.58 275.21,326.3 274.25,329.96 273.35,333.68 272.51,337.46 271.73,341.18 271.01,344.9 270.35,348.68 269.81,352.4   269.33,356.18 268.85,359.96 268.49,363.74 268.25,367.52 268.01,371.3 267.83,375.08 267.77,378.86 267.71,379.16 267.71,379.52   267.71,380.24 267.77,380.96 267.83,381.68 267.95,382.34 268.01,382.7 268.07,383 268.07,383.24 268.13,383.48 268.19,383.66 "
   id="polygon568" />
<path
   class="st7"
   d="M336.06,535.95l-9.6-8.82l-0.04-0.01c-0.99-0.91-2.27-1.43-3.61-1.48l0,0l-72.18-2.7l0,0  c-2.59-0.1-4.79-1.94-5.33-4.48l-0.01,0.04l-6.54-30.54l-0.01-0.08c-0.56-2.61-2.87-4.48-5.54-4.48l0.03,0.06h-17.7l-0.03-0.06  c-3.13,0-5.67,2.54-5.67,5.67v0c0,4.74,0.33,9.48,0.98,14.18l0.04,0.07h-20.7l-0.03-0.06c-3.13,0-5.67,2.54-5.67,5.67l0.06,0.03  v11.1l-0.06-0.03c0,3.13,2.54,5.67,5.67,5.67l0.03,0.06h26.46l0.01-0.07c3.09,8.04,7.19,15.65,12.2,22.66l0.03,0.03l7.92,1.74  l-0.06,0.01c2.59,0.58,4.44,2.88,4.44,5.54l0.06,0.03v22.44l-0.06-0.03c0,2.66,1.85,4.96,4.44,5.53l0.06,0.02l14.16,3.12l-0.06-0.01  c1.68,0.37,3.44-0.04,4.78-1.11c1.34-1.08,2.12-2.7,2.12-4.42l0.06,0.03v-20.52l-0.06-0.03c0-1.63,0.7-3.17,1.92-4.25  c1.22-1.08,2.84-1.58,4.46-1.38l0.05,0.02l11.34,1.44l-0.05-0.02c2.84,0.35,4.97,2.77,4.97,5.63l0.06,0.03v20.46l-0.06-0.03  c0,3.13,2.54,5.67,5.67,5.67l0.03,0.06h19.86v-25.5v-0.03c0-3.13,2.54-5.67,5.67-5.67h0.03h13.26h-0.03c1.64,0,3.21-0.71,4.28-1.95  c1.08-1.24,1.56-2.89,1.33-4.52l0.06-0.01l-1.62-11.34l-0.06-0.05c-0.19-1.3-0.82-2.5-1.79-3.38L336.06,535.95z"
   id="path570" />
<path
   class="st7"
   d="M185.94,455.98l-10.2-30.24l-0.05-0.01c-0.58-1.71-0.3-3.6,0.74-5.08c1.04-1.48,2.72-2.37,4.53-2.4l0.07-0.01  l109.54-2l-0.01,0.01c2.73-0.05,5.11,1.86,5.66,4.54l-0.01,0.02l8.2,40.11l-0.07-0.04c0.55,2.69,2.95,4.61,5.7,4.54l0.07,0  l16.99-0.38l-0.05-0.05c3.04-0.08,5.6,2.26,5.8,5.3l0.06,0.03l1.64,25.27l-0.06-0.03c0.1,1.6-0.48,3.17-1.6,4.32  c-1.12,1.15-2.68,1.77-4.28,1.71l0.02,0.03l-46.41-1.8l-0.02-0.03c-2.51-0.1-4.65-1.83-5.27-4.26l0.03,0.06l-9.26-36.08l-0.04-0.05  c-0.68-2.64-3.14-4.43-5.86-4.25l0.03,0.06l-70.17,4.56l-0.03-0.06c-2.56,0.17-4.92-1.41-5.74-3.85"
   id="path572" />
<path
   class="st7"
   d="M264.89,266.83l2.64,5.04l2.88,4.98l3.12,4.8l3.24,4.74l3.48,4.56l3.66,4.44l3.84,4.26l3.96,4.14l4.2,3.9  l4.32,3.78l4.44,3.6l4.62,3.42l-0.04,0c1.25,0.88,1.92,2.37,1.76,3.89l0.02,0.01l-2.04,19.68l-0.04-0.05  c-0.13,1.19,0.26,2.38,1.06,3.27c0.8,0.89,1.94,1.4,3.14,1.4l0.03,0.06h15.36l-0.03-0.06c1.25,0,2.43-0.55,3.24-1.51  s1.14-2.22,0.93-3.45l0.05-0.01c-2.16-12.37-2.14-25.02,0.06-37.38l-0.05,0.05c0.3-1.69-0.45-3.4-1.9-4.32l0.05,0l-6.18-4.08  l-6-4.26l-5.94-4.44l-5.7-4.62l-5.64-4.86l-5.4-4.98l-5.28-5.22l-5.04-5.34l-4.92-5.52l-4.74-5.7l-4.5-5.82l-4.32-6l-0.04-0.05  c-1.26-1.8-3.68-2.34-5.58-1.24l-0.02,0.03l-6.42,3.6l-6.6,3.42l-6.66,3.18l-6.78,3l-6.84,2.76l-6.9,2.58l-7.02,2.34l-0.06,0.02  c-1.22,0.39-2.2,1.31-2.66,2.51c-0.46,1.19-0.36,2.53,0.29,3.64l0.05,0.01c5.05,8.72,12.79,15.56,22.05,19.5l0-0.04  c1.92,0.82,4.15,0.11,5.25-1.67l-0.03-0.01c4.8-7.75,11.69-13.99,19.89-17.98l0.01,0.08c2.08-1.01,4.59-0.16,5.63,1.9L264.89,266.83  z"
   id="path574" />
<g
   id="g612">
	<path
   class="st8"
   d="M144.77,2575.55l-45.98,79.64c-3.3,5.71,0.82,12.84,7.42,12.84h91.96c6.59,0,10.71-7.14,7.42-12.84   l-45.98-79.64C156.3,2569.84,148.06,2569.84,144.77,2575.55z"
   id="path576" />
	<path
   class="st8"
   d="M77.67,2694.59l-45.98,79.64c-3.3,5.71,0.82,12.84,7.42,12.84h91.96c6.59,0,10.71-7.14,7.42-12.84   l-45.98-79.64C89.21,2688.88,80.97,2688.88,77.67,2694.59z"
   id="path578" />
	<path
   class="st8"
   d="M89.96,2685.58l8.2-14.2c2.16-3.75-0.54-8.43-4.87-8.43h-16.4c-4.33,0-7.03,4.68-4.87,8.43l8.2,14.2   C82.38,2689.33,87.79,2689.33,89.96,2685.58z"
   id="path580" />
	<path
   class="st8"
   d="M157.05,2566.55l8.2-14.2c2.16-3.75-0.54-8.43-4.87-8.43h-16.4c-4.33,0-7.03,4.68-4.87,8.43l8.2,14.2   C149.48,2570.3,154.89,2570.3,157.05,2566.55z"
   id="path582" />
	<path
   class="st8"
   d="M278.31,2575.55l-45.98,79.64c-3.3,5.71,0.82,12.84,7.42,12.84h91.96c6.59,0,10.71-7.14,7.42-12.84   l-45.98-79.64C289.85,2569.84,281.61,2569.84,278.31,2575.55z"
   id="path584" />
	<path
   class="st8"
   d="M211.22,2694.59l-45.98,79.64c-3.3,5.71,0.82,12.84,7.42,12.84h91.96c6.59,0,10.71-7.14,7.42-12.84   l-45.98-79.64C222.75,2688.88,214.52,2688.88,211.22,2694.59z"
   id="path586" />
	<path
   class="st8"
   d="M223.5,2685.58l8.2-14.2c2.16-3.75-0.54-8.43-4.87-8.43h-16.4c-4.33,0-7.03,4.68-4.87,8.43l8.2,14.2   C215.93,2689.33,221.34,2689.33,223.5,2685.58z"
   id="path588" />
	<path
   class="st8"
   d="M290.6,2566.55l8.2-14.2c2.16-3.75-0.54-8.43-4.87-8.43h-16.4c-4.33,0-7.03,4.68-4.87,8.43l8.2,14.2   C283.02,2570.3,288.43,2570.3,290.6,2566.55z"
   id="path590" />
	<path
   class="st8"
   d="M412.79,2575.55l-45.98,79.64c-3.3,5.71,0.82,12.84,7.42,12.84h91.96c6.59,0,10.71-7.14,7.42-12.84   l-45.98-79.64C424.32,2569.84,416.08,2569.84,412.79,2575.55z"
   id="path592" />
	<path
   class="st8"
   d="M345.69,2694.59l-45.98,79.64c-3.3,5.71,0.82,12.84,7.42,12.84h91.96c6.59,0,10.71-7.14,7.42-12.84   l-45.98-79.64C357.23,2688.88,348.99,2688.88,345.69,2694.59z"
   id="path594" />
	<path
   class="st8"
   d="M357.98,2685.58l8.2-14.2c2.16-3.75-0.54-8.43-4.87-8.43h-16.4c-4.33,0-7.03,4.68-4.87,8.43l8.2,14.2   C350.4,2689.33,355.81,2689.33,357.98,2685.58z"
   id="path596" />
	<path
   class="st8"
   d="M425.07,2566.55l8.2-14.2c2.16-3.75-0.54-8.43-4.87-8.43H412c-4.33,0-7.03,4.68-4.87,8.43l8.2,14.2   C417.5,2570.3,422.91,2570.3,425.07,2566.55z"
   id="path598" />
	<path
   class="st8"
   d="M546.33,2575.55l-45.98,79.64c-3.3,5.71,0.82,12.84,7.42,12.84h91.96c6.59,0,10.71-7.14,7.42-12.84   l-45.98-79.64C557.87,2569.84,549.63,2569.84,546.33,2575.55z"
   id="path600" />
	<path
   class="st8"
   d="M479.24,2694.59l-45.98,79.64c-3.3,5.71,0.82,12.84,7.42,12.84h91.96c6.59,0,10.71-7.14,7.42-12.84   l-45.98-79.64C490.77,2688.88,482.53,2688.88,479.24,2694.59z"
   id="path602" />
	<path
   class="st8"
   d="M491.52,2685.58l8.2-14.2c2.16-3.75-0.54-8.43-4.87-8.43h-16.4c-4.33,0-7.03,4.68-4.87,8.43l8.2,14.2   C483.95,2689.33,489.36,2689.33,491.52,2685.58z"
   id="path604" />
	<path
   class="st8"
   d="M613.28,2694.59l-45.98,79.64c-3.3,5.71,0.82,12.84,7.42,12.84h91.96c6.59,0,10.71-7.14,7.42-12.84   l-45.98-79.64C624.81,2688.88,616.57,2688.88,613.28,2694.59z"
   id="path606" />
	<path
   class="st8"
   d="M625.56,2685.58l8.2-14.2c2.16-3.75-0.54-8.43-4.87-8.43h-16.4c-4.33,0-7.03,4.68-4.87,8.43l8.2,14.2   C617.99,2689.33,623.4,2689.33,625.56,2685.58z"
   id="path608" />
	<path
   class="st8"
   d="M558.62,2566.55l8.2-14.2c2.16-3.75-0.54-8.43-4.87-8.43h-16.4c-4.33,0-7.03,4.68-4.87,8.43l8.2,14.2   C551.04,2570.3,556.45,2570.3,558.62,2566.55z"
   id="path610" />
</g>
<path
   class="st9"
   d="M340.68,2513.03c-86.2,0-168.29-2.68-255.04-8.03l1.75-28.29c172.32,10.63,326.25,10.63,531.31-0.01l1.47,28.31  C517.08,2510.35,426.83,2513.03,340.68,2513.03z"
   id="path614" />
</svg>
