<?xml version="1.0" encoding="UTF-8" standalone="no"?>
<!-- Generator: Adobe Illustrator 27.5.0, SVG Export Plug-In . SVG Version: 6.00 Build 0)  -->

<svg
   version="1.1"
   id="Layer_1"
   x="0px"
   y="0px"
   viewBox="0 0 123.41898 111.35452"
   xml:space="preserve"
   sodipodi:docname="zonai zelda tabard vectors.svg"
   inkscape:version="1.1.2 (0a00cf5339, 2022-02-04)"
   width="123.41898"
   height="111.35452"
   xmlns:inkscape="http://www.inkscape.org/namespaces/inkscape"
   xmlns:sodipodi="http://sodipodi.sourceforge.net/DTD/sodipodi-0.dtd"
   xmlns="http://www.w3.org/2000/svg"
   xmlns:svg="http://www.w3.org/2000/svg"><defs
   id="defs619" /><sodipodi:namedview
   id="namedview617"
   pagecolor="#ffffff"
   bordercolor="#666666"
   borderopacity="1.0"
   inkscape:pageshadow="2"
   inkscape:pageopacity="0.0"
   inkscape:pagecheckerboard="0"
   showgrid="false"
   inkscape:zoom="1.5990001"
   inkscape:cx="353.03312"
   inkscape:cy="2069.1055"
   inkscape:window-width="1846"
   inkscape:window-height="1016"
   inkscape:window-x="1994"
   inkscape:window-y="27"
   inkscape:window-maximized="1"
   inkscape:current-layer="Layer_1"
   inkscape:showpageshadow="2"
   inkscape:deskcolor="#d1d1d1" />&#10;<style
   type="text/css"
   id="style336">&#10;	.st0{opacity:0.38;fill:#231F20;}&#10;	.st1{fill:none;stroke:#231F20;stroke-width:2;stroke-miterlimit:10;stroke-dasharray:10,8;}&#10;	.st2{fill:#231F20;}&#10;	.st3{font-family:'MyriadPro-Regular';}&#10;	.st4{font-size:13.1294px;}&#10;	.st5{fill:#B5B88E;}&#10;	.st6{fill:#B8CBD5;}&#10;	.st7{fill:none;stroke:#000000;stroke-width:1.98;stroke-linecap:round;stroke-linejoin:round;stroke-miterlimit:10;}&#10;	.st8{fill:none;stroke:#000000;stroke-miterlimit:10;}&#10;	.st9{opacity:0.38;enable-background:new    ;}&#10;</style>&#10;&#10;&#10;&#10;&#10;&#10;&#10;&#10;&#10;&#10;&#10;&#10;&#10;&#10;&#10;&#10;&#10;&#10;&#10;&#10;&#10;&#10;&#10;&#10;&#10;&#10;&#10;&#10;&#10;&#10;&#10;&#10;&#10;&#10;&#10;&#10;&#10;&#10;&#10;&#10;&#10;&#10;&#10;&#10;&#10;&#10;&#10;&#10;&#10;&#10;&#10;&#10;&#10;&#10;&#10;&#10;&#10;&#10;&#10;&#10;&#10;&#10;&#10;&#10;&#10;&#10;&#10;&#10;&#10;&#10;&#10;&#10;&#10;&#10;&#10;&#10;&#10;&#10;&#10;&#10;&#10;&#10;&#10;&#10;&#10;&#10;&#10;&#10;&#10;&#10;&#10;&#10;&#10;&#10;&#10;&#10;&#10;&#10;&#10;&#10;&#10;&#10;&#10;&#10;&#10;&#10;&#10;&#10;&#10;&#10;&#10;&#10;&#10;&#10;<path
   class="st7"
   d="m 54.513788,30.444517 2.64,5.04 2.88,4.98 3.12,4.8 3.24,4.74 3.48,4.56 3.66,4.44 3.84,4.26 3.96,4.14 4.2,3.9 4.32,3.78 4.44,3.6 4.62,3.42 h -0.04 c 1.250002,0.88 1.920002,2.37 1.760002,3.89 l 0.02,0.01 -2.040002,19.680003 -0.04,-0.05 c -0.13,1.19 0.26,2.38 1.06,3.27 0.800002,0.89 1.940002,1.4 3.140002,1.4 l 0.03,0.06 h 15.36 l -0.03,-0.06 c 1.25,0 2.43,-0.55 3.24,-1.51 0.81,-0.96 1.14,-2.22 0.93,-3.45 l 0.05,-0.01 c -2.16,-12.370003 -2.14,-25.020003 0.06,-37.380003 l -0.05,0.05 c 0.3,-1.69 -0.45,-3.4 -1.9,-4.32 h 0.05 l -6.18,-4.08 -6,-4.26 -5.94,-4.44 -5.700002,-4.62 -5.64,-4.86 -5.4,-4.98 -5.28,-5.22 -5.04,-5.34 -4.92,-5.52 -4.74,-5.7 -4.5,-5.8200004 -4.32,-6 -0.04,-0.05 c -1.26,-1.80000003 -3.68,-2.34000003 -5.58,-1.24 l -0.02,0.03 -6.42,3.6 -6.6,3.42 -6.66,3.1800004 -6.78,3 -6.84,2.76 -6.9,2.58 -7.0199999,2.34 -0.06,0.02 c -1.22,0.39 -2.2,1.31 -2.66,2.51 -0.45999996,1.19 -0.35999996,2.53 0.29,3.64 l 0.05,0.01 c 5.05,8.72 12.7899999,15.56 22.0499999,19.5 v -0.04 c 1.92,0.82 4.15,0.11 5.25,-1.67 l -0.03,-0.01 c 4.8,-7.75 11.69,-13.99 19.89,-17.98 l 0.01,0.08 c 2.08,-1.01 4.59,-0.16 5.63,1.9 z"
   id="path574" />&#10;&#10;&#10;</svg>
