<?xml version="1.0" encoding="UTF-8" standalone="no"?>
<!-- Generator: Adobe Illustrator 27.5.0, SVG Export Plug-In . SVG Version: 6.00 Build 0)  -->

<svg
   version="1.1"
   id="Layer_1"
   x="0px"
   y="0px"
   viewBox="0 0 161.13733 87.359987"
   xml:space="preserve"
   sodipodi:docname="zonai zelda tabard vectors.svg"
   inkscape:version="1.1.2 (0a00cf5339, 2022-02-04)"
   width="161.13733"
   height="87.359985"
   xmlns:inkscape="http://www.inkscape.org/namespaces/inkscape"
   xmlns:sodipodi="http://sodipodi.sourceforge.net/DTD/sodipodi-0.dtd"
   xmlns="http://www.w3.org/2000/svg"
   xmlns:svg="http://www.w3.org/2000/svg"><defs
   id="defs619" /><sodipodi:namedview
   id="namedview617"
   pagecolor="#ffffff"
   bordercolor="#666666"
   borderopacity="1.0"
   inkscape:pageshadow="2"
   inkscape:pageopacity="0.0"
   inkscape:pagecheckerboard="0"
   showgrid="false"
   inkscape:zoom="1.5990001"
   inkscape:cx="353.03312"
   inkscape:cy="2069.1055"
   inkscape:window-width="1846"
   inkscape:window-height="1016"
   inkscape:window-x="1994"
   inkscape:window-y="27"
   inkscape:window-maximized="1"
   inkscape:current-layer="Layer_1"
   inkscape:showpageshadow="2"
   inkscape:deskcolor="#d1d1d1" />&#10;<style
   type="text/css"
   id="style336">&#10;	.st0{opacity:0.38;fill:#231F20;}&#10;	.st1{fill:none;stroke:#231F20;stroke-width:2;stroke-miterlimit:10;stroke-dasharray:10,8;}&#10;	.st2{fill:#231F20;}&#10;	.st3{font-family:'MyriadPro-Regular';}&#10;	.st4{font-size:13.1294px;}&#10;	.st5{fill:#B5B88E;}&#10;	.st6{fill:#B8CBD5;}&#10;	.st7{fill:none;stroke:#000000;stroke-width:1.98;stroke-linecap:round;stroke-linejoin:round;stroke-miterlimit:10;}&#10;	.st8{fill:none;stroke:#000000;stroke-miterlimit:10;}&#10;	.st9{opacity:0.38;enable-background:new    ;}&#10;</style>&#10;&#10;&#10;&#10;&#10;&#10;&#10;&#10;&#10;&#10;&#10;&#10;&#10;&#10;&#10;&#10;&#10;&#10;&#10;&#10;&#10;&#10;&#10;&#10;&#10;&#10;&#10;&#10;&#10;&#10;&#10;&#10;&#10;&#10;&#10;&#10;&#10;&#10;&#10;&#10;&#10;&#10;&#10;&#10;&#10;&#10;&#10;&#10;&#10;&#10;&#10;&#10;&#10;&#10;&#10;&#10;&#10;&#10;&#10;&#10;&#10;&#10;&#10;&#10;&#10;&#10;&#10;&#10;&#10;&#10;&#10;&#10;&#10;&#10;&#10;&#10;&#10;&#10;&#10;&#10;&#10;&#10;&#10;&#10;&#10;&#10;&#10;&#10;&#10;&#10;&#10;&#10;&#10;&#10;&#10;&#10;&#10;&#10;&#10;&#10;&#10;&#10;&#10;&#10;&#10;&#10;&#10;&#10;&#10;&#10;&#10;&#10;&#10;<path
   class="st7"
   d="m 11.537346,40.729996 -10.2000002,-30.24 -0.05,-0.01 c -0.57999995,-1.7100004 -0.29999995,-3.6000004 0.74,-5.0800004 1.04,-1.48 2.72,-2.37 4.53,-2.4 l 0.07,-0.01 109.5400042,-2.00000002 -0.01,0.01 c 2.73,-0.05 5.11,1.86000002 5.66,4.54000002 l -0.01,0.02 8.2,40.1100004 -0.07,-0.04 c 0.55,2.69 2.95,4.61 5.7,4.54 h 0.07 l 16.99,-0.38 -0.05,-0.05 c 3.04,-0.08 5.6,2.26 5.8,5.3 l 0.06,0.03 1.64,25.27 -0.06,-0.03 c 0.1,1.6 -0.48,3.17 -1.6,4.32 -1.12,1.15 -2.68,1.77 -4.28,1.71 l 0.02,0.03 -46.41,-1.8 -0.02,-0.03 c -2.51,-0.1 -4.65,-1.83 -5.27,-4.26 l 0.03,0.06 -9.260004,-36.08 -0.04,-0.05 c -0.68,-2.64 -3.14,-4.43 -5.86,-4.25 l 0.03,0.06 -70.17,4.56 -0.03,-0.06 c -2.56,0.17 -4.92,-1.41 -5.74,-3.85"
   id="path572" />&#10;&#10;&#10;&#10;</svg>
