<?xml version="1.0" encoding="UTF-8" standalone="no"?>
<!-- Generator: Adobe Illustrator 27.5.0, SVG Export Plug-In . SVG Version: 6.00 Build 0)  -->

<svg
   version="1.1"
   id="Layer_1"
   x="0px"
   y="0px"
   viewBox="0 0 169.91951 124.62"
   xml:space="preserve"
   sodipodi:docname="zonai zelda tabard vectors.svg"
   inkscape:version="1.1.2 (0a00cf5339, 2022-02-04)"
   width="169.91951"
   height="124.62"
   xmlns:inkscape="http://www.inkscape.org/namespaces/inkscape"
   xmlns:sodipodi="http://sodipodi.sourceforge.net/DTD/sodipodi-0.dtd"
   xmlns="http://www.w3.org/2000/svg"
   xmlns:svg="http://www.w3.org/2000/svg"><defs
   id="defs619" /><sodipodi:namedview
   id="namedview617"
   pagecolor="#ffffff"
   bordercolor="#666666"
   borderopacity="1.0"
   inkscape:pageshadow="2"
   inkscape:pageopacity="0.0"
   inkscape:pagecheckerboard="0"
   showgrid="false"
   inkscape:zoom="1.5990001"
   inkscape:cx="353.03312"
   inkscape:cy="2069.1055"
   inkscape:window-width="1846"
   inkscape:window-height="1016"
   inkscape:window-x="1994"
   inkscape:window-y="27"
   inkscape:window-maximized="1"
   inkscape:current-layer="Layer_1"
   inkscape:showpageshadow="2"
   inkscape:deskcolor="#d1d1d1" />&#10;<style
   type="text/css"
   id="style336">&#10;	.st0{opacity:0.38;fill:#231F20;}&#10;	.st1{fill:none;stroke:#231F20;stroke-width:2;stroke-miterlimit:10;stroke-dasharray:10,8;}&#10;	.st2{fill:#231F20;}&#10;	.st3{font-family:'MyriadPro-Regular';}&#10;	.st4{font-size:13.1294px;}&#10;	.st5{fill:#B5B88E;}&#10;	.st6{fill:#B8CBD5;}&#10;	.st7{fill:none;stroke:#000000;stroke-width:1.98;stroke-linecap:round;stroke-linejoin:round;stroke-miterlimit:10;}&#10;	.st8{fill:none;stroke:#000000;stroke-miterlimit:10;}&#10;	.st9{opacity:0.38;enable-background:new    ;}&#10;</style>&#10;&#10;&#10;&#10;&#10;&#10;&#10;&#10;&#10;&#10;&#10;&#10;&#10;&#10;&#10;&#10;&#10;&#10;&#10;&#10;&#10;&#10;&#10;&#10;&#10;&#10;&#10;&#10;&#10;&#10;&#10;&#10;&#10;&#10;&#10;&#10;&#10;&#10;&#10;&#10;&#10;&#10;&#10;&#10;&#10;&#10;&#10;&#10;&#10;&#10;&#10;&#10;&#10;&#10;&#10;&#10;&#10;&#10;&#10;&#10;&#10;&#10;&#10;&#10;&#10;&#10;&#10;&#10;&#10;&#10;&#10;&#10;&#10;&#10;&#10;&#10;&#10;&#10;&#10;&#10;&#10;&#10;&#10;&#10;&#10;&#10;&#10;&#10;&#10;&#10;&#10;&#10;&#10;&#10;&#10;&#10;&#10;&#10;&#10;&#10;&#10;&#10;&#10;&#10;<path
   class="st7"
   d="m 118.23,12.5 c 2.62,0.37 4.56,2.61 4.56,5.26 l 0.06,0.03 V 43.83 43.8 c 0,2.73 2.07,5.01 4.78,5.28 l 0.02,0.03 24.48,2.46 -0.04,-0.02 c 3.5,0.35 6.22,3.21 6.39,6.73 v -0.04 c 1.07,21.91 4.55,43.64 10.4,64.78 l 0.05,0.01 -0.84,0.12 -0.78,0.06 -0.78,0.06 h -0.72 l -0.72,0.06 -0.66,0.06 -0.72,0.06 h -0.66 l -0.6,0.06 h -0.6 l -1.14,0.06 -1.14,0.06 h -0.96 -0.96 -0.9 l -0.84,-0.06 h -0.78 l -0.72,-0.06 -0.72,-0.06 -0.66,-0.12 -0.66,-0.06 -0.6,-0.12 -0.6,-0.12 -1.2,-0.3 -0.54,-0.12 -0.6,-0.24 -0.54,-0.18 -0.6,-0.24 -0.54,-0.3 -0.6,-0.3 -0.54,-0.36 -0.54,-0.36 -0.54,-0.42 -0.54,-0.48 -0.54,-0.48 -0.54,-0.54 -0.54,-0.54 -0.48,-0.6 -0.54,-0.6 -0.48,-0.66 -0.48,-0.72 -0.48,-0.66 -0.9,-1.5 -0.84,-1.5 -0.84,-1.5 -0.72,-1.56 -0.66,-1.56 -0.6,-1.62 -0.3,-0.78 -0.24,-0.84 -0.3,-0.84 -0.18,-0.84 -0.24,-0.9 -0.18,-0.96 -0.18,-0.96 -0.18,-1.02 -0.12,-1.08 -0.12,-1.08 -0.12,-1.2 -0.12,-1.2 -0.06,-1.32 -0.06,-1.32 V 91.3 c -0.07,-1.92 -1.65,-3.43 -3.57,-3.43 l 0.03,0.06 h -41.1 -0.03 c -2.73,0 -5.02,-2.07 -5.28,-4.79 L 83.37,83.13 80.49,53.79 80.42,53.77 c -0.09,-0.91 -0.85,-1.6 -1.76,-1.6 h 0.03 -4.2 l -0.03,-0.06 c -0.73,0 -1.34,0.56 -1.4,1.29 l 0.05,0.03 -2.7,32.1 -0.01,-0.05 c -0.12,1.38 -1.27,2.45 -2.66,2.45 h 0.03 -16.92 -0.03 c -1.37,0 -2.52,-1.04 -2.66,-2.41 l 0.05,0.01 -3.12,-31.14 -0.01,-0.05 c -0.13,-1.28 -1.15,-2.29 -2.43,-2.4 L 42.7,51.99 29.02,50.85 28.99,50.8 c -1.96,-0.17 -3.69,1.29 -3.86,3.26 l 0.05,0.03 -1.32,16.08 -0.08,-0.01 c -0.25,2.92 -2.81,5.09 -5.74,4.85 L 18.09,75.03 5.91,74.01 5.92,73.99 C 3.17,73.76 1.05,71.46 1.05,68.7 v 0.03 -31.08 l -0.06,-0.03 C 0.99000001,35.98 2.11,34.55 3.7,34.15 l 0.05,0.02 0.72,-0.18 0.6,-0.18 0.66,-0.24 0.54,-0.24 0.54,-0.3 0.54,-0.3 0.48,-0.36 0.48,-0.36 0.42,-0.36 0.42,-0.48 0.42,-0.42 0.36,-0.54 0.36,-0.54 0.36,-0.54 0.36,-0.6 0.36,-0.66 0.3,-0.66 0.3,-0.66 0.3,-0.72 0.3,-0.72 0.24,-0.78 0.24,-0.72 0.18,-0.78 0.18,-0.72 0.12,-0.78 0.06,-0.66 0.06,-0.72 -0.06,-0.66 -0.06,-0.66 -0.06,-0.6 -0.18,-0.6 -0.24,-0.54 -0.24,-0.48 -0.3,-0.48 L 12.15,15.51 11.73,15.09 11.31,14.73 10.89,14.37 9.93,13.71 8.97,13.05 8.01,12.39 7.59,12.03 7.17,11.61 6.81,11.25 6.51,10.83 6.21,10.41 5.97,9.93 5.79,9.51 5.61,9.03 5.55,8.55 5.49,8.07 V 7.65 L 5.55,7.17 5.67,6.75 5.79,6.33 6.03,5.91 6.27,5.55 6.51,5.25 6.87,4.89 7.23,4.65 7.65,4.35 8.13,4.11 8.67,3.87 9.21,3.63 9.75,3.45 l 0.66,-0.18 0.66,-0.18 0.66,-0.18 0.72,-0.18 0.78,-0.18 0.78,-0.18 0.78,-0.18 0.84,-0.18 1.74,-0.36 1.8,-0.3 1.8,-0.24 0.96,-0.06 0.9,-0.06 h 0.9 0.9 l 0.9,0.06 0.84,0.12 0.9,0.12 0.84,0.24 0.78,0.24 0.78,0.3 0.78,0.36 0.72,0.42 0.72,0.48 0.66,0.54 0.66,0.54 0.6,0.66 0.6,0.66 0.54,0.72 0.48,0.78 0.54,0.78 0.42,0.78 0.48,0.84 0.36,0.84 0.42,0.9 0.66,1.74 0.66,1.68 0.3,0.84 0.3,0.84 0.24,0.78 0.3,0.72 0.24,0.72 0.3,0.72 0.24,0.6 0.3,0.6 0.3,0.54 0.3,0.48 0.3,0.48 0.36,0.42 0.3,0.3 0.42,0.3 0.36,0.24 0.42,0.24 0.48,0.12 0.48,0.12 h 53.16 v -8.04 l -0.06,-0.03 c 0,-1.54 0.67,-3 1.83,-4.01 1.16,-1.01 2.71,-1.46 4.23,-1.25 l 0.06,0.01 14.16,2.04 z"
   id="path554" />&#10;&#10;&#10;&#10;&#10;&#10;&#10;&#10;&#10;&#10;&#10;&#10;&#10;</svg>
