<?xml version="1.0" encoding="UTF-8" standalone="no"?>
<!-- Generator: Adobe Illustrator 27.5.0, SVG Export Plug-In . SVG Version: 6.00 Build 0)  -->

<svg
   version="1.1"
   id="Layer_1"
   x="0px"
   y="0px"
   viewBox="0 0 28.86 77.46"
   xml:space="preserve"
   sodipodi:docname="zonai zelda tabard vectors.svg"
   inkscape:version="1.1.2 (0a00cf5339, 2022-02-04)"
   width="28.860001"
   height="77.459999"
   xmlns:inkscape="http://www.inkscape.org/namespaces/inkscape"
   xmlns:sodipodi="http://sodipodi.sourceforge.net/DTD/sodipodi-0.dtd"
   xmlns="http://www.w3.org/2000/svg"
   xmlns:svg="http://www.w3.org/2000/svg"><defs
   id="defs619" /><sodipodi:namedview
   id="namedview617"
   pagecolor="#ffffff"
   bordercolor="#666666"
   borderopacity="1.0"
   inkscape:pageshadow="2"
   inkscape:pageopacity="0.0"
   inkscape:pagecheckerboard="0"
   showgrid="false"
   inkscape:zoom="1.5990001"
   inkscape:cx="353.03312"
   inkscape:cy="2069.1055"
   inkscape:window-width="1846"
   inkscape:window-height="1016"
   inkscape:window-x="1994"
   inkscape:window-y="27"
   inkscape:window-maximized="1"
   inkscape:current-layer="Layer_1"
   inkscape:showpageshadow="2"
   inkscape:deskcolor="#d1d1d1" />&#10;<style
   type="text/css"
   id="style336">&#10;	.st0{opacity:0.38;fill:#231F20;}&#10;	.st1{fill:none;stroke:#231F20;stroke-width:2;stroke-miterlimit:10;stroke-dasharray:10,8;}&#10;	.st2{fill:#231F20;}&#10;	.st3{font-family:'MyriadPro-Regular';}&#10;	.st4{font-size:13.1294px;}&#10;	.st5{fill:#B5B88E;}&#10;	.st6{fill:#B8CBD5;}&#10;	.st7{fill:none;stroke:#000000;stroke-width:1.98;stroke-linecap:round;stroke-linejoin:round;stroke-miterlimit:10;}&#10;	.st8{fill:none;stroke:#000000;stroke-miterlimit:10;}&#10;	.st9{opacity:0.38;enable-background:new    ;}&#10;</style>&#10;&#10;&#10;&#10;&#10;&#10;&#10;&#10;&#10;&#10;&#10;&#10;&#10;&#10;&#10;&#10;&#10;&#10;&#10;&#10;&#10;&#10;&#10;&#10;&#10;&#10;&#10;&#10;&#10;&#10;&#10;&#10;&#10;&#10;&#10;&#10;&#10;&#10;&#10;&#10;&#10;&#10;&#10;&#10;&#10;&#10;&#10;&#10;&#10;&#10;&#10;&#10;&#10;&#10;&#10;&#10;&#10;&#10;&#10;&#10;&#10;&#10;&#10;&#10;&#10;&#10;&#10;&#10;&#10;&#10;&#10;&#10;&#10;&#10;&#10;&#10;&#10;&#10;&#10;&#10;&#10;&#10;&#10;&#10;&#10;&#10;&#10;&#10;&#10;&#10;&#10;&#10;&#10;&#10;&#10;&#10;&#10;&#10;&#10;&#10;&#10;&#10;&#10;&#10;&#10;&#10;&#10;&#10;&#10;&#10;&#10;<polygon
   class="st7"
   points="268.55,384.8 268.67,385.28 268.91,385.7 269.09,386.18 269.33,386.54 269.51,386.96 269.81,387.38 270.05,387.74 270.35,388.1 270.65,388.4 270.95,388.76 271.25,389.06 271.61,389.3 271.97,389.6 272.33,389.84 272.75,390.08 273.17,390.32 273.59,390.56 274.01,390.74 274.43,390.92 274.91,391.1 275.39,391.22 275.87,391.34 276.41,391.46 276.89,391.58 277.43,391.7 278.03,391.76 278.57,391.82 279.17,391.82 279.77,391.88 280.37,391.88 280.49,391.88 280.79,391.88 281.15,391.88 281.57,391.88 281.87,391.88 281.99,391.88 282.59,391.88 283.19,391.82 283.79,391.82 284.33,391.76 284.87,391.7 285.41,391.58 285.95,391.46 286.43,391.34 286.97,391.22 287.45,391.1 287.87,390.92 288.35,390.74 288.77,390.56 289.19,390.32 289.61,390.08 289.97,389.84 290.33,389.6 290.69,389.3 291.05,389.06 291.41,388.76 291.71,388.4 292.01,388.1 292.25,387.74 292.55,387.38 292.79,386.96 293.03,386.54 293.27,386.18 293.45,385.7 293.63,385.28 293.81,384.8 293.99,384.32 294.11,383.84 294.17,383.66 294.17,383.48 294.23,383.24 294.29,383 294.35,382.7 294.41,382.34 294.47,381.68 294.53,380.96 294.59,380.24 294.59,379.52 294.59,379.16 294.59,378.86 294.47,375.08 294.35,371.3 294.11,367.52 293.81,363.74 293.45,359.96 293.03,356.18 292.55,352.4 291.95,348.68 291.35,344.9 290.63,341.18 289.85,337.46 289.01,333.68 288.11,329.96 287.09,326.3 286.07,322.58 284.93,318.86 284.87,318.62 284.75,318.38 284.63,318.14 284.51,317.9 284.33,317.66 284.15,317.48 283.91,317.24 283.67,317.12 283.43,316.94 283.13,316.82 282.83,316.7 282.53,316.58 282.23,316.52 281.93,316.46 281.57,316.4 281.21,316.4 281.15,316.4 281.09,316.4 280.73,316.4 280.43,316.46 280.13,316.52 279.77,316.58 279.47,316.7 279.17,316.82 278.93,316.94 278.69,317.12 278.45,317.24 278.21,317.48 278.03,317.66 277.85,317.9 277.67,318.14 277.55,318.38 277.49,318.62 277.43,318.86 276.29,322.58 275.21,326.3 274.25,329.96 273.35,333.68 272.51,337.46 271.73,341.18 271.01,344.9 270.35,348.68 269.81,352.4 269.33,356.18 268.85,359.96 268.49,363.74 268.25,367.52 268.01,371.3 267.83,375.08 267.77,378.86 267.71,379.16 267.71,379.52 267.71,380.24 267.77,380.96 267.83,381.68 267.95,382.34 268.01,382.7 268.07,383 268.07,383.24 268.13,383.48 268.19,383.66 268.25,383.84 268.37,384.32 "
   id="polygon568"
   transform="translate(-266.72,-315.41)" />&#10;&#10;&#10;&#10;&#10;&#10;</svg>
