<?xml version="1.0" encoding="UTF-8" standalone="no"?>
<!-- Generator: Adobe Illustrator 27.5.0, SVG Export Plug-In . SVG Version: 6.00 Build 0)  -->

<svg
   version="1.1"
   id="Layer_1"
   x="0px"
   y="0px"
   viewBox="0 0 79.561354 117.66999"
   xml:space="preserve"
   sodipodi:docname="zonai zelda tabard vectors.svg"
   inkscape:version="1.1.2 (0a00cf5339, 2022-02-04)"
   width="79.561356"
   height="117.66999"
   xmlns:inkscape="http://www.inkscape.org/namespaces/inkscape"
   xmlns:sodipodi="http://sodipodi.sourceforge.net/DTD/sodipodi-0.dtd"
   xmlns="http://www.w3.org/2000/svg"
   xmlns:svg="http://www.w3.org/2000/svg"><defs
   id="defs619" /><sodipodi:namedview
   id="namedview617"
   pagecolor="#ffffff"
   bordercolor="#666666"
   borderopacity="1.0"
   inkscape:pageshadow="2"
   inkscape:pageopacity="0.0"
   inkscape:pagecheckerboard="0"
   showgrid="false"
   inkscape:zoom="1.5990001"
   inkscape:cx="353.03312"
   inkscape:cy="2069.1055"
   inkscape:window-width="1846"
   inkscape:window-height="1016"
   inkscape:window-x="1994"
   inkscape:window-y="27"
   inkscape:window-maximized="1"
   inkscape:current-layer="Layer_1"
   inkscape:showpageshadow="2"
   inkscape:deskcolor="#d1d1d1" />&#10;<style
   type="text/css"
   id="style336">&#10;	.st0{opacity:0.38;fill:#231F20;}&#10;	.st1{fill:none;stroke:#231F20;stroke-width:2;stroke-miterlimit:10;stroke-dasharray:10,8;}&#10;	.st2{fill:#231F20;}&#10;	.st3{font-family:'MyriadPro-Regular';}&#10;	.st4{font-size:13.1294px;}&#10;	.st5{fill:#B5B88E;}&#10;	.st6{fill:#B8CBD5;}&#10;	.st7{fill:none;stroke:#000000;stroke-width:1.98;stroke-linecap:round;stroke-linejoin:round;stroke-miterlimit:10;}&#10;	.st8{fill:none;stroke:#000000;stroke-miterlimit:10;}&#10;	.st9{opacity:0.38;enable-background:new    ;}&#10;</style>&#10;&#10;&#10;&#10;&#10;&#10;&#10;&#10;&#10;&#10;&#10;&#10;&#10;&#10;&#10;&#10;&#10;&#10;&#10;&#10;&#10;&#10;&#10;&#10;&#10;&#10;&#10;&#10;&#10;&#10;&#10;&#10;&#10;&#10;&#10;&#10;&#10;&#10;&#10;&#10;&#10;&#10;&#10;&#10;&#10;&#10;&#10;&#10;&#10;&#10;&#10;&#10;&#10;&#10;&#10;&#10;&#10;&#10;&#10;&#10;&#10;&#10;&#10;&#10;&#10;&#10;&#10;&#10;&#10;&#10;&#10;&#10;&#10;&#10;&#10;&#10;&#10;&#10;&#10;&#10;&#10;&#10;&#10;&#10;&#10;&#10;&#10;&#10;&#10;&#10;&#10;&#10;&#10;&#10;&#10;&#10;&#10;&#10;&#10;&#10;&#10;&#10;&#10;&#10;&#10;&#10;<path
   class="st7"
   d="m 78.571364,112.22 -3.18,-56.4 h -0.01 c -0.2,-3.54 -2.97,-6.4 -6.51,-6.69 l 0.04,0.04 -36.36,-3 -2.16,-38.46 h -0.01 c -0.21,-3.77 -3.33,-6.71999999 -7.1,-6.71999999 l 0.03,0.06 H 8.1313645 l -0.03,-0.06 c -1.95,0 -3.82,0.79999999 -5.17,2.21999999 -1.35,1.42 -2.04,3.33 -1.93,5.28 h 0.05 l 3,53.52 h -0.05 c 0.18,3.29 2.61,6.03 5.86,6.61 l 0.01,-0.01 33.2999995,5.88 9.36,35.94 -0.07,0.02 c 0.77,2.97 3.36,5.11 6.42,5.31 l 0.01,-0.04 14.04,0.96 -0.02,-0.07 c 2.73,0.18 5.14,-1.74 5.59,-4.44 z"
   id="path558" />&#10;&#10;&#10;&#10;&#10;&#10;&#10;&#10;&#10;&#10;&#10;</svg>
