<?xml version="1.0" standalone="no"?>
<!DOCTYPE svg PUBLIC "-//W3C//DTD SVG 1.1//EN" "http://www.w3.org/Graphics/SVG/1.1/DTD/svg11.dtd">
<svg width="430mm" height="50mm" viewBox="0 -25 430 50" xmlns="http://www.w3.org/2000/svg" version="1.1">
<title>OpenSCAD Model</title>
<path d="
M 430,-24.8843 L 0,-24.8843 L 0,-14.9306 L 430,-14.9306 z
M 412.282,14.929 L 412.481,14.9245 L 412.681,14.9169 L 412.88,14.9063 L 413.079,14.8927 L 413.278,14.876
 L 413.477,14.8564 L 413.676,14.8337 L 413.875,14.808 L 414.074,14.7793 L 414.273,14.7477 L 414.472,14.713
 L 414.671,14.6754 L 414.87,14.6349 L 415.069,14.5914 L 415.269,14.545 L 415.468,14.4956 L 415.667,14.4434
 L 415.866,14.3883 L 416.065,14.3303 L 416.264,14.2694 L 416.463,14.2058 L 416.662,14.1393 L 416.861,14.07
 L 417.06,13.998 L 417.259,13.9232 L 417.458,13.8457 L 417.657,13.7654 L 417.856,13.6826 L 418.056,13.597
 L 418.255,13.5088 L 418.454,13.4181 L 418.653,13.3247 L 418.852,13.2288 L 419.051,13.1304 L 419.25,13.0296
 L 419.449,12.9262 L 419.648,12.8205 L 419.847,12.7123 L 420.046,12.6018 L 420.245,12.489 L 420.444,12.3739
 L 420.644,12.2565 L 420.843,12.1369 L 421.042,12.0152 L 421.241,11.8913 L 421.44,11.7653 L 421.639,11.6372
 L 421.838,11.5071 L 422.037,11.375 L 422.236,11.2409 L 422.435,11.105 L 422.634,10.9671 L 422.833,10.8275
 L 423.032,10.6861 L 423.231,10.5429 L 423.431,10.398 L 423.63,10.2515 L 423.829,10.1034 L 424.028,9.9537
 L 424.227,9.8025 L 424.426,9.64983 L 424.625,9.49574 L 424.824,9.34027 L 425.023,9.18347 L 425.222,9.02539
 L 425.421,8.86607 L 425.62,8.70557 L 425.819,8.54394 L 426.019,8.38122 L 426.218,8.21746 L 426.417,8.05271
 L 426.616,7.88703 L 426.815,7.72046 L 427.014,7.55306 L 427.213,7.38487 L 427.412,7.21595 L 427.611,7.04634
 L 427.81,6.87611 L 428.009,6.70529 L 428.208,6.53395 L 428.407,6.36214 L 428.606,6.1899 L 428.806,6.01729
 L 429.005,5.84437 L 429.204,5.67119 L 429.403,5.49779 L 429.602,5.32423 L 429.801,5.15057 L 430,4.97685
 L 430,-4.97685 L 429.801,-4.80313 L 429.602,-4.62947 L 429.403,-4.45591 L 429.204,-4.28251 L 429.005,-4.10933
 L 428.806,-3.93641 L 428.606,-3.7638 L 428.407,-3.59156 L 428.208,-3.41975 L 428.009,-3.24841 L 427.81,-3.0776
 L 427.611,-2.90736 L 427.412,-2.73775 L 427.213,-2.56883 L 427.014,-2.40064 L 426.815,-2.23324 L 426.616,-2.06667
 L 426.417,-1.90099 L 426.218,-1.73624 L 426.019,-1.57248 L 425.819,-1.40976 L 425.62,-1.24813 L 425.421,-1.08763
 L 425.222,-0.928315 L 425.023,-0.770233 L 424.824,-0.613434 L 424.625,-0.457962 L 424.426,-0.303869 L 424.227,-0.151198
 L 424.028,-0 L 423.829,0.149682 L 423.63,0.297806 L 423.431,0.444323 L 423.231,0.589188 L 423.032,0.732357
 L 422.833,0.873786 L 422.634,1.01344 L 422.435,1.15126 L 422.236,1.28722 L 422.037,1.42126 L 421.838,1.55336
 L 421.639,1.68348 L 421.44,1.81156 L 421.241,1.93757 L 421.042,2.06148 L 420.843,2.18324 L 420.644,2.30282
 L 420.444,2.42019 L 420.245,2.5353 L 420.046,2.64813 L 419.847,2.75863 L 419.648,2.86677 L 419.449,2.97253
 L 419.25,3.07586 L 419.051,3.17674 L 418.852,3.27514 L 418.653,3.37102 L 418.454,3.46437 L 418.255,3.55514
 L 418.056,3.64331 L 417.856,3.72885 L 417.657,3.81174 L 417.458,3.89196 L 417.259,3.96948 L 417.06,4.04427
 L 416.861,4.11631 L 416.662,4.18558 L 416.463,4.25206 L 416.264,4.31573 L 416.065,4.37657 L 415.866,4.43456
 L 415.667,4.48968 L 415.468,4.54192 L 415.269,4.59126 L 415.069,4.63769 L 414.87,4.68118 L 414.671,4.72174
 L 414.472,4.75934 L 414.273,4.79397 L 414.074,4.82563 L 413.875,4.8543 L 413.676,4.87998 L 413.477,4.90266
 L 413.278,4.92232 L 413.079,4.93897 L 412.88,4.9526 L 412.681,4.96321 L 412.481,4.97079 L 412.282,4.97533
 L 412.083,4.97685 L 411.884,4.97533 L 411.685,4.97079 L 411.486,4.96321 L 411.287,4.9526 L 411.088,4.93897
 L 410.889,4.92232 L 410.69,4.90266 L 410.491,4.87998 L 410.292,4.8543 L 410.093,4.82563 L 409.894,4.79397
 L 409.694,4.75934 L 409.495,4.72174 L 409.296,4.68118 L 409.097,4.63769 L 408.898,4.59126 L 408.699,4.54192
 L 408.5,4.48968 L 408.301,4.43456 L 408.102,4.37657 L 407.903,4.31573 L 407.704,4.25206 L 407.505,4.18558
 L 407.306,4.11631 L 407.106,4.04427 L 406.907,3.96948 L 406.708,3.89196 L 406.509,3.81174 L 406.31,3.72885
 L 406.111,3.64331 L 405.912,3.55514 L 405.713,3.46437 L 405.514,3.37102 L 405.315,3.27514 L 405.116,3.17674
 L 404.917,3.07586 L 404.718,2.97253 L 404.519,2.86677 L 404.319,2.75863 L 404.12,2.64813 L 403.921,2.5353
 L 403.722,2.42019 L 403.523,2.30282 L 403.324,2.18324 L 403.125,2.06148 L 402.926,1.93757 L 402.727,1.81156
 L 402.528,1.68348 L 402.329,1.55336 L 402.13,1.42126 L 401.931,1.28722 L 401.731,1.15126 L 401.532,1.01344
 L 401.333,0.873786 L 401.134,0.732357 L 400.935,0.589188 L 400.736,0.444323 L 400.537,0.297806 L 400.338,0.149682
 L 400.139,-0 L 399.94,-0.151198 L 399.741,-0.303869 L 399.542,-0.457962 L 399.343,-0.613434 L 399.144,-0.770233
 L 398.944,-0.928315 L 398.745,-1.08763 L 398.546,-1.24813 L 398.347,-1.40976 L 398.148,-1.57248 L 397.949,-1.73624
 L 397.75,-1.90099 L 397.551,-2.06667 L 397.352,-2.23324 L 397.153,-2.40064 L 396.954,-2.56883 L 396.755,-2.73775
 L 396.556,-2.90736 L 396.356,-3.0776 L 396.157,-3.24841 L 395.958,-3.41975 L 395.759,-3.59156 L 395.56,-3.7638
 L 395.361,-3.93641 L 395.162,-4.10933 L 394.963,-4.28251 L 394.764,-4.45591 L 394.565,-4.62947 L 394.366,-4.80313
 L 393.968,-5.15057 L 393.769,-5.32423 L 393.569,-5.49779 L 393.37,-5.67119 L 393.171,-5.84437 L 392.972,-6.01729
 L 392.773,-6.1899 L 392.574,-6.36214 L 392.375,-6.53395 L 392.176,-6.70529 L 391.977,-6.87611 L 391.778,-7.04634
 L 391.579,-7.21595 L 391.38,-7.38487 L 391.181,-7.55306 L 390.981,-7.72046 L 390.782,-7.88703 L 390.583,-8.05271
 L 390.384,-8.21746 L 390.185,-8.38122 L 389.986,-8.54394 L 389.787,-8.70557 L 389.588,-8.86607 L 389.389,-9.02539
 L 389.19,-9.18347 L 388.991,-9.34027 L 388.792,-9.49574 L 388.593,-9.64983 L 388.394,-9.8025 L 388.194,-9.9537
 L 387.995,-10.1034 L 387.796,-10.2515 L 387.597,-10.398 L 387.398,-10.5429 L 387.199,-10.6861 L 387,-10.8275
 L 386.801,-10.9671 L 386.602,-11.105 L 386.403,-11.2409 L 386.204,-11.375 L 386.005,-11.5071 L 385.806,-11.6372
 L 385.606,-11.7653 L 385.407,-11.8913 L 385.208,-12.0152 L 385.009,-12.1369 L 384.81,-12.2565 L 384.611,-12.3739
 L 384.412,-12.489 L 384.213,-12.6018 L 384.014,-12.7123 L 383.815,-12.8205 L 383.616,-12.9262 L 383.417,-13.0296
 L 383.218,-13.1304 L 383.019,-13.2288 L 382.819,-13.3247 L 382.62,-13.4181 L 382.421,-13.5088 L 382.222,-13.597
 L 382.023,-13.6826 L 381.824,-13.7654 L 381.625,-13.8457 L 381.426,-13.9232 L 381.227,-13.998 L 381.028,-14.07
 L 380.829,-14.1393 L 380.63,-14.2058 L 380.431,-14.2694 L 380.231,-14.3303 L 380.032,-14.3883 L 379.833,-14.4434
 L 379.634,-14.4956 L 379.435,-14.545 L 379.236,-14.5914 L 379.037,-14.6349 L 378.838,-14.6754 L 378.639,-14.713
 L 378.44,-14.7477 L 378.241,-14.7793 L 378.042,-14.808 L 377.843,-14.8337 L 377.644,-14.8564 L 377.444,-14.876
 L 377.245,-14.8927 L 377.046,-14.9063 L 376.847,-14.9169 L 376.648,-14.9245 L 376.449,-14.929 L 376.25,-14.9306
 L 376.051,-14.929 L 375.852,-14.9245 L 375.653,-14.9169 L 375.454,-14.9063 L 375.255,-14.8927 L 375.056,-14.876
 L 374.856,-14.8564 L 374.657,-14.8337 L 374.458,-14.808 L 374.259,-14.7793 L 374.06,-14.7477 L 373.861,-14.713
 L 373.662,-14.6754 L 373.463,-14.6349 L 373.264,-14.5914 L 373.065,-14.545 L 372.866,-14.4956 L 372.667,-14.4434
 L 372.468,-14.3883 L 372.269,-14.3303 L 372.069,-14.2694 L 371.87,-14.2058 L 371.671,-14.1393 L 371.472,-14.07
 L 371.273,-13.998 L 371.074,-13.9232 L 370.875,-13.8457 L 370.676,-13.7654 L 370.477,-13.6826 L 370.278,-13.597
 L 370.079,-13.5088 L 369.88,-13.4181 L 369.681,-13.3247 L 369.481,-13.2288 L 369.282,-13.1304 L 369.083,-13.0296
 L 368.884,-12.9262 L 368.685,-12.8205 L 368.486,-12.7123 L 368.287,-12.6018 L 368.088,-12.489 L 367.889,-12.3739
 L 367.69,-12.2565 L 367.491,-12.1369 L 367.292,-12.0152 L 367.093,-11.8913 L 366.894,-11.7653 L 366.694,-11.6372
 L 366.495,-11.5071 L 366.296,-11.375 L 366.097,-11.2409 L 365.898,-11.105 L 365.699,-10.9671 L 365.5,-10.8275
 L 365.301,-10.6861 L 365.102,-10.5429 L 364.903,-10.398 L 364.704,-10.2515 L 364.505,-10.1034 L 364.306,-9.9537
 L 364.106,-9.8025 L 363.907,-9.64983 L 363.708,-9.49574 L 363.509,-9.34027 L 363.31,-9.18347 L 363.111,-9.02539
 L 362.912,-8.86607 L 362.713,-8.70557 L 362.514,-8.54394 L 362.315,-8.38122 L 362.116,-8.21746 L 361.917,-8.05271
 L 361.718,-7.88703 L 361.519,-7.72046 L 361.319,-7.55306 L 361.12,-7.38487 L 360.921,-7.21595 L 360.722,-7.04634
 L 360.523,-6.87611 L 360.324,-6.70529 L 360.125,-6.53395 L 359.926,-6.36214 L 359.727,-6.1899 L 359.528,-6.01729
 L 359.329,-5.84437 L 359.13,-5.67119 L 358.931,-5.49779 L 358.731,-5.32423 L 358.532,-5.15057 L 358.134,-4.80313
 L 357.935,-4.62947 L 357.736,-4.45591 L 357.537,-4.28251 L 357.338,-4.10933 L 357.139,-3.93641 L 356.94,-3.7638
 L 356.741,-3.59156 L 356.542,-3.41975 L 356.343,-3.24841 L 356.144,-3.0776 L 355.944,-2.90736 L 355.745,-2.73775
 L 355.546,-2.56883 L 355.347,-2.40064 L 355.148,-2.23324 L 354.949,-2.06667 L 354.75,-1.90099 L 354.551,-1.73624
 L 354.352,-1.57248 L 354.153,-1.40976 L 353.954,-1.24813 L 353.755,-1.08763 L 353.556,-0.928315 L 353.356,-0.770233
 L 353.157,-0.613434 L 352.958,-0.457962 L 352.759,-0.303869 L 352.56,-0.151198 L 352.361,-0 L 352.162,0.149682
 L 351.963,0.297806 L 351.764,0.444323 L 351.565,0.589188 L 351.366,0.732357 L 351.167,0.873786 L 350.968,1.01344
 L 350.769,1.15126 L 350.569,1.28722 L 350.37,1.42126 L 350.171,1.55336 L 349.972,1.68348 L 349.773,1.81156
 L 349.574,1.93757 L 349.375,2.06148 L 349.176,2.18324 L 348.977,2.30282 L 348.778,2.42019 L 348.579,2.5353
 L 348.38,2.64813 L 348.181,2.75863 L 347.981,2.86677 L 347.782,2.97253 L 347.583,3.07586 L 347.384,3.17674
 L 347.185,3.27514 L 346.986,3.37102 L 346.787,3.46437 L 346.588,3.55514 L 346.389,3.64331 L 346.19,3.72885
 L 345.991,3.81174 L 345.792,3.89196 L 345.593,3.96948 L 345.394,4.04427 L 345.194,4.11631 L 344.995,4.18558
 L 344.796,4.25206 L 344.597,4.31573 L 344.398,4.37657 L 344.199,4.43456 L 344,4.48968 L 343.801,4.54192
 L 343.602,4.59126 L 343.403,4.63769 L 343.204,4.68118 L 343.005,4.72174 L 342.806,4.75934 L 342.606,4.79397
 L 342.407,4.82563 L 342.208,4.8543 L 342.009,4.87998 L 341.81,4.90266 L 341.611,4.92232 L 341.412,4.93897
 L 341.213,4.9526 L 341.014,4.96321 L 340.815,4.97079 L 340.616,4.97533 L 340.417,4.97685 L 340.218,4.97533
 L 340.019,4.97079 L 339.819,4.96321 L 339.62,4.9526 L 339.421,4.93897 L 339.222,4.92232 L 339.023,4.90266
 L 338.824,4.87998 L 338.625,4.8543 L 338.426,4.82563 L 338.227,4.79397 L 338.028,4.75934 L 337.829,4.72174
 L 337.63,4.68118 L 337.431,4.63769 L 337.231,4.59126 L 337.032,4.54192 L 336.833,4.48968 L 336.634,4.43456
 L 336.435,4.37657 L 336.236,4.31573 L 336.037,4.25206 L 335.838,4.18558 L 335.639,4.11631 L 335.44,4.04427
 L 335.241,3.96948 L 335.042,3.89196 L 334.843,3.81174 L 334.644,3.72885 L 334.444,3.64331 L 334.245,3.55514
 L 334.046,3.46437 L 333.847,3.37102 L 333.648,3.27514 L 333.449,3.17674 L 333.25,3.07586 L 333.051,2.97253
 L 332.852,2.86677 L 332.653,2.75863 L 332.454,2.64813 L 332.255,2.5353 L 332.056,2.42019 L 331.856,2.30282
 L 331.657,2.18324 L 331.458,2.06148 L 331.259,1.93757 L 331.06,1.81156 L 330.861,1.68348 L 330.662,1.55336
 L 330.463,1.42126 L 330.264,1.28722 L 330.065,1.15126 L 329.866,1.01344 L 329.667,0.873786 L 329.468,0.732357
 L 329.269,0.589188 L 329.069,0.444323 L 328.87,0.297806 L 328.671,0.149682 L 328.472,-0 L 328.273,-0.151198
 L 328.074,-0.303869 L 327.875,-0.457962 L 327.676,-0.613434 L 327.477,-0.770233 L 327.278,-0.928315 L 327.079,-1.08763
 L 326.88,-1.24813 L 326.681,-1.40976 L 326.481,-1.57248 L 326.282,-1.73624 L 326.083,-1.90099 L 325.884,-2.06667
 L 325.685,-2.23324 L 325.486,-2.40064 L 325.287,-2.56883 L 325.088,-2.73775 L 324.889,-2.90736 L 324.69,-3.0776
 L 324.491,-3.24841 L 324.292,-3.41975 L 324.093,-3.59156 L 323.894,-3.7638 L 323.694,-3.93641 L 323.495,-4.10933
 L 323.296,-4.28251 L 323.097,-4.45591 L 322.898,-4.62947 L 322.699,-4.80313 L 322.301,-5.15057 L 322.102,-5.32423
 L 321.903,-5.49779 L 321.704,-5.67119 L 321.505,-5.84437 L 321.306,-6.01729 L 321.106,-6.1899 L 320.907,-6.36214
 L 320.708,-6.53395 L 320.509,-6.70529 L 320.31,-6.87611 L 320.111,-7.04634 L 319.912,-7.21595 L 319.713,-7.38487
 L 319.514,-7.55306 L 319.315,-7.72046 L 319.116,-7.88703 L 318.917,-8.05271 L 318.718,-8.21746 L 318.519,-8.38122
 L 318.319,-8.54394 L 318.12,-8.70557 L 317.921,-8.86607 L 317.722,-9.02539 L 317.523,-9.18347 L 317.324,-9.34027
 L 317.125,-9.49574 L 316.926,-9.64983 L 316.727,-9.8025 L 316.528,-9.9537 L 316.329,-10.1034 L 316.13,-10.2515
 L 315.931,-10.398 L 315.731,-10.5429 L 315.532,-10.6861 L 315.333,-10.8275 L 315.134,-10.9671 L 314.935,-11.105
 L 314.736,-11.2409 L 314.537,-11.375 L 314.338,-11.5071 L 314.139,-11.6372 L 313.94,-11.7653 L 313.741,-11.8913
 L 313.542,-12.0152 L 313.343,-12.1369 L 313.144,-12.2565 L 312.944,-12.3739 L 312.745,-12.489 L 312.546,-12.6018
 L 312.347,-12.7123 L 312.148,-12.8205 L 311.949,-12.9262 L 311.75,-13.0296 L 311.551,-13.1304 L 311.352,-13.2288
 L 311.153,-13.3247 L 310.954,-13.4181 L 310.755,-13.5088 L 310.556,-13.597 L 310.356,-13.6826 L 310.157,-13.7654
 L 309.958,-13.8457 L 309.759,-13.9232 L 309.56,-13.998 L 309.361,-14.07 L 309.162,-14.1393 L 308.963,-14.2058
 L 308.764,-14.2694 L 308.565,-14.3303 L 308.366,-14.3883 L 308.167,-14.4434 L 307.968,-14.4956 L 307.769,-14.545
 L 307.569,-14.5914 L 307.37,-14.6349 L 307.171,-14.6754 L 306.972,-14.713 L 306.773,-14.7477 L 306.574,-14.7793
 L 306.375,-14.808 L 306.176,-14.8337 L 305.977,-14.8564 L 305.778,-14.876 L 305.579,-14.8927 L 305.38,-14.9063
 L 305.181,-14.9169 L 304.981,-14.9245 L 304.782,-14.929 L 304.583,-14.9306 L 304.384,-14.929 L 304.185,-14.9245
 L 303.986,-14.9169 L 303.787,-14.9063 L 303.588,-14.8927 L 303.389,-14.876 L 303.19,-14.8564 L 302.991,-14.8337
 L 302.792,-14.808 L 302.593,-14.7793 L 302.394,-14.7477 L 302.194,-14.713 L 301.995,-14.6754 L 301.796,-14.6349
 L 301.597,-14.5914 L 301.398,-14.545 L 301.199,-14.4956 L 301,-14.4434 L 300.801,-14.3883 L 300.602,-14.3303
 L 300.403,-14.2694 L 300.204,-14.2058 L 300.005,-14.1393 L 299.806,-14.07 L 299.606,-13.998 L 299.407,-13.9232
 L 299.208,-13.8457 L 299.009,-13.7654 L 298.81,-13.6826 L 298.611,-13.597 L 298.412,-13.5088 L 298.213,-13.4181
 L 298.014,-13.3247 L 297.815,-13.2288 L 297.616,-13.1304 L 297.417,-13.0296 L 297.218,-12.9262 L 297.019,-12.8205
 L 296.819,-12.7123 L 296.62,-12.6018 L 296.421,-12.489 L 296.222,-12.3739 L 296.023,-12.2565 L 295.824,-12.1369
 L 295.625,-12.0152 L 295.426,-11.8913 L 295.227,-11.7653 L 295.028,-11.6372 L 294.829,-11.5071 L 294.63,-11.375
 L 294.431,-11.2409 L 294.231,-11.105 L 294.032,-10.9671 L 293.833,-10.8275 L 293.634,-10.6861 L 293.435,-10.5429
 L 293.236,-10.398 L 293.037,-10.2515 L 292.838,-10.1034 L 292.639,-9.9537 L 292.44,-9.8025 L 292.241,-9.64983
 L 292.042,-9.49574 L 291.843,-9.34027 L 291.644,-9.18347 L 291.444,-9.02539 L 291.245,-8.86607 L 291.046,-8.70557
 L 290.847,-8.54394 L 290.648,-8.38122 L 290.449,-8.21746 L 290.25,-8.05271 L 290.051,-7.88703 L 289.852,-7.72046
 L 289.653,-7.55306 L 289.454,-7.38487 L 289.255,-7.21595 L 289.056,-7.04634 L 288.856,-6.87611 L 288.657,-6.70529
 L 288.458,-6.53395 L 288.259,-6.36214 L 288.06,-6.1899 L 287.861,-6.01729 L 287.662,-5.84437 L 287.463,-5.67119
 L 287.264,-5.49779 L 287.065,-5.32423 L 286.866,-5.15057 L 286.468,-4.80313 L 286.269,-4.62947 L 286.069,-4.45591
 L 285.87,-4.28251 L 285.671,-4.10933 L 285.472,-3.93641 L 285.273,-3.7638 L 285.074,-3.59156 L 284.875,-3.41975
 L 284.676,-3.24841 L 284.477,-3.0776 L 284.278,-2.90736 L 284.079,-2.73775 L 283.88,-2.56883 L 283.681,-2.40064
 L 283.481,-2.23324 L 283.282,-2.06667 L 283.083,-1.90099 L 282.884,-1.73624 L 282.685,-1.57248 L 282.486,-1.40976
 L 282.287,-1.24813 L 282.088,-1.08763 L 281.889,-0.928315 L 281.69,-0.770233 L 281.491,-0.613434 L 281.292,-0.457962
 L 281.093,-0.303869 L 280.894,-0.151198 L 280.694,-0 L 280.495,0.149682 L 280.296,0.297806 L 280.097,0.444323
 L 279.898,0.589188 L 279.699,0.732357 L 279.5,0.873786 L 279.301,1.01344 L 279.102,1.15126 L 278.903,1.28722
 L 278.704,1.42126 L 278.505,1.55336 L 278.306,1.68348 L 278.106,1.81156 L 277.907,1.93757 L 277.708,2.06148
 L 277.509,2.18324 L 277.31,2.30282 L 277.111,2.42019 L 276.912,2.5353 L 276.713,2.64813 L 276.514,2.75863
 L 276.315,2.86677 L 276.116,2.97253 L 275.917,3.07586 L 275.718,3.17674 L 275.519,3.27514 L 275.319,3.37102
 L 275.12,3.46437 L 274.921,3.55514 L 274.722,3.64331 L 274.523,3.72885 L 274.324,3.81174 L 274.125,3.89196
 L 273.926,3.96948 L 273.727,4.04427 L 273.528,4.11631 L 273.329,4.18558 L 273.13,4.25206 L 272.931,4.31573
 L 272.731,4.37657 L 272.532,4.43456 L 272.333,4.48968 L 272.134,4.54192 L 271.935,4.59126 L 271.736,4.63769
 L 271.537,4.68118 L 271.338,4.72174 L 271.139,4.75934 L 270.94,4.79397 L 270.741,4.82563 L 270.542,4.8543
 L 270.343,4.87998 L 270.144,4.90266 L 269.944,4.92232 L 269.745,4.93897 L 269.546,4.9526 L 269.347,4.96321
 L 269.148,4.97079 L 268.949,4.97533 L 268.75,4.97685 L 268.551,4.97533 L 268.352,4.97079 L 268.153,4.96321
 L 267.954,4.9526 L 267.755,4.93897 L 267.556,4.92232 L 267.356,4.90266 L 267.157,4.87998 L 266.958,4.8543
 L 266.759,4.82563 L 266.56,4.79397 L 266.361,4.75934 L 266.162,4.72174 L 265.963,4.68118 L 265.764,4.63769
 L 265.565,4.59126 L 265.366,4.54192 L 265.167,4.48968 L 264.968,4.43456 L 264.769,4.37657 L 264.569,4.31573
 L 264.37,4.25206 L 264.171,4.18558 L 263.972,4.11631 L 263.773,4.04427 L 263.574,3.96948 L 263.375,3.89196
 L 263.176,3.81174 L 262.977,3.72885 L 262.778,3.64331 L 262.579,3.55514 L 262.38,3.46437 L 262.181,3.37102
 L 261.981,3.27514 L 261.782,3.17674 L 261.583,3.07586 L 261.384,2.97253 L 261.185,2.86677 L 260.986,2.75863
 L 260.787,2.64813 L 260.588,2.5353 L 260.389,2.42019 L 260.19,2.30282 L 259.991,2.18324 L 259.792,2.06148
 L 259.593,1.93757 L 259.394,1.81156 L 259.194,1.68348 L 258.995,1.55336 L 258.796,1.42126 L 258.597,1.28722
 L 258.398,1.15126 L 258.199,1.01344 L 258,0.873786 L 257.801,0.732357 L 257.602,0.589188 L 257.403,0.444323
 L 257.204,0.297806 L 257.005,0.149682 L 256.806,-0 L 256.606,-0.151198 L 256.407,-0.303869 L 256.208,-0.457962
 L 256.009,-0.613434 L 255.81,-0.770233 L 255.611,-0.928315 L 255.412,-1.08763 L 255.213,-1.24813 L 255.014,-1.40976
 L 254.815,-1.57248 L 254.616,-1.73624 L 254.417,-1.90099 L 254.218,-2.06667 L 254.019,-2.23324 L 253.819,-2.40064
 L 253.62,-2.56883 L 253.421,-2.73775 L 253.222,-2.90736 L 253.023,-3.0776 L 252.824,-3.24841 L 252.625,-3.41975
 L 252.426,-3.59156 L 252.227,-3.7638 L 252.028,-3.93641 L 251.829,-4.10933 L 251.63,-4.28251 L 251.431,-4.45591
 L 251.231,-4.62947 L 251.032,-4.80313 L 250.634,-5.15057 L 250.435,-5.32423 L 250.236,-5.49779 L 250.037,-5.67119
 L 249.838,-5.84437 L 249.639,-6.01729 L 249.44,-6.1899 L 249.241,-6.36214 L 249.042,-6.53395 L 248.843,-6.70529
 L 248.644,-6.87611 L 248.444,-7.04634 L 248.245,-7.21595 L 248.046,-7.38487 L 247.847,-7.55306 L 247.648,-7.72046
 L 247.449,-7.88703 L 247.25,-8.05271 L 247.051,-8.21746 L 246.852,-8.38122 L 246.653,-8.54394 L 246.454,-8.70557
 L 246.255,-8.86607 L 246.056,-9.02539 L 245.856,-9.18347 L 245.657,-9.34027 L 245.458,-9.49574 L 245.259,-9.64983
 L 245.06,-9.8025 L 244.861,-9.9537 L 244.662,-10.1034 L 244.463,-10.2515 L 244.264,-10.398 L 244.065,-10.5429
 L 243.866,-10.6861 L 243.667,-10.8275 L 243.468,-10.9671 L 243.269,-11.105 L 243.069,-11.2409 L 242.87,-11.375
 L 242.671,-11.5071 L 242.472,-11.6372 L 242.273,-11.7653 L 242.074,-11.8913 L 241.875,-12.0152 L 241.676,-12.1369
 L 241.477,-12.2565 L 241.278,-12.3739 L 241.079,-12.489 L 240.88,-12.6018 L 240.681,-12.7123 L 240.481,-12.8205
 L 240.282,-12.9262 L 240.083,-13.0296 L 239.884,-13.1304 L 239.685,-13.2288 L 239.486,-13.3247 L 239.287,-13.4181
 L 239.088,-13.5088 L 238.889,-13.597 L 238.69,-13.6826 L 238.491,-13.7654 L 238.292,-13.8457 L 238.093,-13.9232
 L 237.894,-13.998 L 237.694,-14.07 L 237.495,-14.1393 L 237.296,-14.2058 L 237.097,-14.2694 L 236.898,-14.3303
 L 236.699,-14.3883 L 236.5,-14.4434 L 236.301,-14.4956 L 236.102,-14.545 L 235.903,-14.5914 L 235.704,-14.6349
 L 235.505,-14.6754 L 235.306,-14.713 L 235.106,-14.7477 L 234.907,-14.7793 L 234.708,-14.808 L 234.509,-14.8337
 L 234.31,-14.8564 L 234.111,-14.876 L 233.912,-14.8927 L 233.713,-14.9063 L 233.514,-14.9169 L 233.315,-14.9245
 L 233.116,-14.929 L 232.917,-14.9306 L 232.718,-14.929 L 232.519,-14.9245 L 232.319,-14.9169 L 232.12,-14.9063
 L 231.921,-14.8927 L 231.722,-14.876 L 231.523,-14.8564 L 231.324,-14.8337 L 231.125,-14.808 L 230.926,-14.7793
 L 230.727,-14.7477 L 230.528,-14.713 L 230.329,-14.6754 L 230.13,-14.6349 L 229.931,-14.5914 L 229.731,-14.545
 L 229.532,-14.4956 L 229.333,-14.4434 L 229.134,-14.3883 L 228.935,-14.3303 L 228.736,-14.2694 L 228.537,-14.2058
 L 228.338,-14.1393 L 228.139,-14.07 L 227.94,-13.998 L 227.741,-13.9232 L 227.542,-13.8457 L 227.343,-13.7654
 L 227.144,-13.6826 L 226.944,-13.597 L 226.745,-13.5088 L 226.546,-13.4181 L 226.347,-13.3247 L 226.148,-13.2288
 L 225.949,-13.1304 L 225.75,-13.0296 L 225.551,-12.9262 L 225.352,-12.8205 L 225.153,-12.7123 L 224.954,-12.6018
 L 224.755,-12.489 L 224.556,-12.3739 L 224.356,-12.2565 L 224.157,-12.1369 L 223.958,-12.0152 L 223.759,-11.8913
 L 223.56,-11.7653 L 223.361,-11.6372 L 223.162,-11.5071 L 222.963,-11.375 L 222.764,-11.2409 L 222.565,-11.105
 L 222.366,-10.9671 L 222.167,-10.8275 L 221.968,-10.6861 L 221.769,-10.5429 L 221.569,-10.398 L 221.37,-10.2515
 L 221.171,-10.1034 L 220.972,-9.9537 L 220.773,-9.8025 L 220.574,-9.64983 L 220.375,-9.49574 L 220.176,-9.34027
 L 219.977,-9.18347 L 219.778,-9.02539 L 219.579,-8.86607 L 219.38,-8.70557 L 219.181,-8.54394 L 218.981,-8.38122
 L 218.782,-8.21746 L 218.583,-8.05271 L 218.384,-7.88703 L 218.185,-7.72046 L 217.986,-7.55306 L 217.787,-7.38487
 L 217.588,-7.21595 L 217.389,-7.04634 L 217.19,-6.87611 L 216.991,-6.70529 L 216.792,-6.53395 L 216.593,-6.36214
 L 216.394,-6.1899 L 216.194,-6.01729 L 215.995,-5.84437 L 215.796,-5.67119 L 215.597,-5.49779 L 215.398,-5.32423
 L 215.199,-5.15057 L 214.801,-4.80313 L 214.602,-4.62947 L 214.403,-4.45591 L 214.204,-4.28251 L 214.005,-4.10933
 L 213.806,-3.93641 L 213.606,-3.7638 L 213.407,-3.59156 L 213.208,-3.41975 L 213.009,-3.24841 L 212.81,-3.0776
 L 212.611,-2.90736 L 212.412,-2.73775 L 212.213,-2.56883 L 212.014,-2.40064 L 211.815,-2.23324 L 211.616,-2.06667
 L 211.417,-1.90099 L 211.218,-1.73624 L 211.019,-1.57248 L 210.819,-1.40976 L 210.62,-1.24813 L 210.421,-1.08763
 L 210.222,-0.928315 L 210.023,-0.770233 L 209.824,-0.613434 L 209.625,-0.457962 L 209.426,-0.303869 L 209.227,-0.151198
 L 209.028,-0 L 208.829,0.149682 L 208.63,0.297806 L 208.431,0.444323 L 208.231,0.589188 L 208.032,0.732357
 L 207.833,0.873786 L 207.634,1.01344 L 207.435,1.15126 L 207.236,1.28722 L 207.037,1.42126 L 206.838,1.55336
 L 206.639,1.68348 L 206.44,1.81156 L 206.241,1.93757 L 206.042,2.06148 L 205.843,2.18324 L 205.644,2.30282
 L 205.444,2.42019 L 205.245,2.5353 L 205.046,2.64813 L 204.847,2.75863 L 204.648,2.86677 L 204.449,2.97253
 L 204.25,3.07586 L 204.051,3.17674 L 203.852,3.27514 L 203.653,3.37102 L 203.454,3.46437 L 203.255,3.55514
 L 203.056,3.64331 L 202.856,3.72885 L 202.657,3.81174 L 202.458,3.89196 L 202.259,3.96948 L 202.06,4.04427
 L 201.861,4.11631 L 201.662,4.18558 L 201.463,4.25206 L 201.264,4.31573 L 201.065,4.37657 L 200.866,4.43456
 L 200.667,4.48968 L 200.468,4.54192 L 200.269,4.59126 L 200.069,4.63769 L 199.87,4.68118 L 199.671,4.72174
 L 199.472,4.75934 L 199.273,4.79397 L 199.074,4.82563 L 198.875,4.8543 L 198.676,4.87998 L 198.477,4.90266
 L 198.278,4.92232 L 198.079,4.93897 L 197.88,4.9526 L 197.681,4.96321 L 197.481,4.97079 L 197.282,4.97533
 L 197.083,4.97685 L 196.884,4.97533 L 196.685,4.97079 L 196.486,4.96321 L 196.287,4.9526 L 196.088,4.93897
 L 195.889,4.92232 L 195.69,4.90266 L 195.491,4.87998 L 195.292,4.8543 L 195.093,4.82563 L 194.894,4.79397
 L 194.694,4.75934 L 194.495,4.72174 L 194.296,4.68118 L 194.097,4.63769 L 193.898,4.59126 L 193.699,4.54192
 L 193.5,4.48968 L 193.301,4.43456 L 193.102,4.37657 L 192.903,4.31573 L 192.704,4.25206 L 192.505,4.18558
 L 192.306,4.11631 L 192.106,4.04427 L 191.907,3.96948 L 191.708,3.89196 L 191.509,3.81174 L 191.31,3.72885
 L 191.111,3.64331 L 190.912,3.55514 L 190.713,3.46437 L 190.514,3.37102 L 190.315,3.27514 L 190.116,3.17674
 L 189.917,3.07586 L 189.718,2.97253 L 189.519,2.86677 L 189.319,2.75863 L 189.12,2.64813 L 188.921,2.5353
 L 188.722,2.42019 L 188.523,2.30282 L 188.324,2.18324 L 188.125,2.06148 L 187.926,1.93757 L 187.727,1.81156
 L 187.528,1.68348 L 187.329,1.55336 L 187.13,1.42126 L 186.931,1.28722 L 186.731,1.15126 L 186.532,1.01344
 L 186.333,0.873786 L 186.134,0.732357 L 185.935,0.589188 L 185.736,0.444323 L 185.537,0.297806 L 185.338,0.149682
 L 185.139,-0 L 184.94,-0.151198 L 184.741,-0.303869 L 184.542,-0.457962 L 184.343,-0.613434 L 184.144,-0.770233
 L 183.944,-0.928315 L 183.745,-1.08763 L 183.546,-1.24813 L 183.347,-1.40976 L 183.148,-1.57248 L 182.949,-1.73624
 L 182.75,-1.90099 L 182.551,-2.06667 L 182.352,-2.23324 L 182.153,-2.40064 L 181.954,-2.56883 L 181.755,-2.73775
 L 181.556,-2.90736 L 181.356,-3.0776 L 181.157,-3.24841 L 180.958,-3.41975 L 180.759,-3.59156 L 180.56,-3.7638
 L 180.361,-3.93641 L 180.162,-4.10933 L 179.963,-4.28251 L 179.764,-4.45591 L 179.565,-4.62947 L 179.366,-4.80313
 L 178.968,-5.15057 L 178.769,-5.32423 L 178.569,-5.49779 L 178.37,-5.67119 L 178.171,-5.84437 L 177.972,-6.01729
 L 177.773,-6.1899 L 177.574,-6.36214 L 177.375,-6.53395 L 177.176,-6.70529 L 176.977,-6.87611 L 176.778,-7.04634
 L 176.579,-7.21595 L 176.38,-7.38487 L 176.181,-7.55306 L 175.981,-7.72046 L 175.782,-7.88703 L 175.583,-8.05271
 L 175.384,-8.21746 L 175.185,-8.38122 L 174.986,-8.54394 L 174.787,-8.70557 L 174.588,-8.86607 L 174.389,-9.02539
 L 174.19,-9.18347 L 173.991,-9.34027 L 173.792,-9.49574 L 173.593,-9.64983 L 173.394,-9.8025 L 173.194,-9.9537
 L 172.995,-10.1034 L 172.796,-10.2515 L 172.597,-10.398 L 172.398,-10.5429 L 172.199,-10.6861 L 172,-10.8275
 L 171.801,-10.9671 L 171.602,-11.105 L 171.403,-11.2409 L 171.204,-11.375 L 171.005,-11.5071 L 170.806,-11.6372
 L 170.606,-11.7653 L 170.407,-11.8913 L 170.208,-12.0152 L 170.009,-12.1369 L 169.81,-12.2565 L 169.611,-12.3739
 L 169.412,-12.489 L 169.213,-12.6018 L 169.014,-12.7123 L 168.815,-12.8205 L 168.616,-12.9262 L 168.417,-13.0296
 L 168.218,-13.1304 L 168.019,-13.2288 L 167.819,-13.3247 L 167.62,-13.4181 L 167.421,-13.5088 L 167.222,-13.597
 L 167.023,-13.6826 L 166.824,-13.7654 L 166.625,-13.8457 L 166.426,-13.9232 L 166.227,-13.998 L 166.028,-14.07
 L 165.829,-14.1393 L 165.63,-14.2058 L 165.431,-14.2694 L 165.231,-14.3303 L 165.032,-14.3883 L 164.833,-14.4434
 L 164.634,-14.4956 L 164.435,-14.545 L 164.236,-14.5914 L 164.037,-14.6349 L 163.838,-14.6754 L 163.639,-14.713
 L 163.44,-14.7477 L 163.241,-14.7793 L 163.042,-14.808 L 162.843,-14.8337 L 162.644,-14.8564 L 162.444,-14.876
 L 162.245,-14.8927 L 162.046,-14.9063 L 161.847,-14.9169 L 161.648,-14.9245 L 161.449,-14.929 L 161.25,-14.9306
 L 161.051,-14.929 L 160.852,-14.9245 L 160.653,-14.9169 L 160.454,-14.9063 L 160.255,-14.8927 L 160.056,-14.876
 L 159.856,-14.8564 L 159.657,-14.8337 L 159.458,-14.808 L 159.259,-14.7793 L 159.06,-14.7477 L 158.861,-14.713
 L 158.662,-14.6754 L 158.463,-14.6349 L 158.264,-14.5914 L 158.065,-14.545 L 157.866,-14.4956 L 157.667,-14.4434
 L 157.468,-14.3883 L 157.269,-14.3303 L 157.069,-14.2694 L 156.87,-14.2058 L 156.671,-14.1393 L 156.472,-14.07
 L 156.273,-13.998 L 156.074,-13.9232 L 155.875,-13.8457 L 155.676,-13.7654 L 155.477,-13.6826 L 155.278,-13.597
 L 155.079,-13.5088 L 154.88,-13.4181 L 154.681,-13.3247 L 154.481,-13.2288 L 154.282,-13.1304 L 154.083,-13.0296
 L 153.884,-12.9262 L 153.685,-12.8205 L 153.486,-12.7123 L 153.287,-12.6018 L 153.088,-12.489 L 152.889,-12.3739
 L 152.69,-12.2565 L 152.491,-12.1369 L 152.292,-12.0152 L 152.093,-11.8913 L 151.894,-11.7653 L 151.694,-11.6372
 L 151.495,-11.5071 L 151.296,-11.375 L 151.097,-11.2409 L 150.898,-11.105 L 150.699,-10.9671 L 150.5,-10.8275
 L 150.301,-10.6861 L 150.102,-10.5429 L 149.903,-10.398 L 149.704,-10.2515 L 149.505,-10.1034 L 149.306,-9.9537
 L 149.106,-9.8025 L 148.907,-9.64983 L 148.708,-9.49574 L 148.509,-9.34027 L 148.31,-9.18347 L 148.111,-9.02539
 L 147.912,-8.86607 L 147.713,-8.70557 L 147.514,-8.54394 L 147.315,-8.38122 L 147.116,-8.21746 L 146.917,-8.05271
 L 146.718,-7.88703 L 146.519,-7.72046 L 146.319,-7.55306 L 146.12,-7.38487 L 145.921,-7.21595 L 145.722,-7.04634
 L 145.523,-6.87611 L 145.324,-6.70529 L 145.125,-6.53395 L 144.926,-6.36214 L 144.727,-6.1899 L 144.528,-6.01729
 L 144.329,-5.84437 L 144.13,-5.67119 L 143.931,-5.49779 L 143.731,-5.32423 L 143.532,-5.15057 L 143.134,-4.80313
 L 142.935,-4.62947 L 142.736,-4.45591 L 142.537,-4.28251 L 142.338,-4.10933 L 142.139,-3.93641 L 141.94,-3.7638
 L 141.741,-3.59156 L 141.542,-3.41975 L 141.343,-3.24841 L 141.144,-3.0776 L 140.944,-2.90736 L 140.745,-2.73775
 L 140.546,-2.56883 L 140.347,-2.40064 L 140.148,-2.23324 L 139.949,-2.06667 L 139.75,-1.90099 L 139.551,-1.73624
 L 139.352,-1.57248 L 139.153,-1.40976 L 138.954,-1.24813 L 138.755,-1.08763 L 138.556,-0.928315 L 138.356,-0.770233
 L 138.157,-0.613434 L 137.958,-0.457962 L 137.759,-0.303869 L 137.56,-0.151198 L 137.361,-0 L 137.162,0.149682
 L 136.963,0.297806 L 136.764,0.444323 L 136.565,0.589188 L 136.366,0.732357 L 136.167,0.873786 L 135.968,1.01344
 L 135.769,1.15126 L 135.569,1.28722 L 135.37,1.42126 L 135.171,1.55336 L 134.972,1.68348 L 134.773,1.81156
 L 134.574,1.93757 L 134.375,2.06148 L 134.176,2.18324 L 133.977,2.30282 L 133.778,2.42019 L 133.579,2.5353
 L 133.38,2.64813 L 133.181,2.75863 L 132.981,2.86677 L 132.782,2.97253 L 132.583,3.07586 L 132.384,3.17674
 L 132.185,3.27514 L 131.986,3.37102 L 131.787,3.46437 L 131.588,3.55514 L 131.389,3.64331 L 131.19,3.72885
 L 130.991,3.81174 L 130.792,3.89196 L 130.593,3.96948 L 130.394,4.04427 L 130.194,4.11631 L 129.995,4.18558
 L 129.796,4.25206 L 129.597,4.31573 L 129.398,4.37657 L 129.199,4.43456 L 129,4.48968 L 128.801,4.54192
 L 128.602,4.59126 L 128.403,4.63769 L 128.204,4.68118 L 128.005,4.72174 L 127.806,4.75934 L 127.606,4.79397
 L 127.407,4.82563 L 127.208,4.8543 L 127.009,4.87998 L 126.81,4.90266 L 126.611,4.92232 L 126.412,4.93897
 L 126.213,4.9526 L 126.014,4.96321 L 125.815,4.97079 L 125.616,4.97533 L 125.417,4.97685 L 125.218,4.97533
 L 125.019,4.97079 L 124.819,4.96321 L 124.62,4.9526 L 124.421,4.93897 L 124.222,4.92232 L 124.023,4.90266
 L 123.824,4.87998 L 123.625,4.8543 L 123.426,4.82563 L 123.227,4.79397 L 123.028,4.75934 L 122.829,4.72174
 L 122.63,4.68118 L 122.431,4.63769 L 122.231,4.59126 L 122.032,4.54192 L 121.833,4.48968 L 121.634,4.43456
 L 121.435,4.37657 L 121.236,4.31573 L 121.037,4.25206 L 120.838,4.18558 L 120.639,4.11631 L 120.44,4.04427
 L 120.241,3.96948 L 120.042,3.89196 L 119.843,3.81174 L 119.644,3.72885 L 119.444,3.64331 L 119.245,3.55514
 L 119.046,3.46437 L 118.847,3.37102 L 118.648,3.27514 L 118.449,3.17674 L 118.25,3.07586 L 118.051,2.97253
 L 117.852,2.86677 L 117.653,2.75863 L 117.454,2.64813 L 117.255,2.5353 L 117.056,2.42019 L 116.856,2.30282
 L 116.657,2.18324 L 116.458,2.06148 L 116.259,1.93757 L 116.06,1.81156 L 115.861,1.68348 L 115.662,1.55336
 L 115.463,1.42126 L 115.264,1.28722 L 115.065,1.15126 L 114.866,1.01344 L 114.667,0.873786 L 114.468,0.732357
 L 114.269,0.589188 L 114.069,0.444323 L 113.87,0.297806 L 113.671,0.149682 L 113.472,-0 L 113.273,-0.151198
 L 113.074,-0.303869 L 112.875,-0.457962 L 112.676,-0.613434 L 112.477,-0.770233 L 112.278,-0.928315 L 112.079,-1.08763
 L 111.88,-1.24813 L 111.681,-1.40976 L 111.481,-1.57248 L 111.282,-1.73624 L 111.083,-1.90099 L 110.884,-2.06667
 L 110.685,-2.23324 L 110.486,-2.40064 L 110.287,-2.56883 L 110.088,-2.73775 L 109.889,-2.90736 L 109.69,-3.0776
 L 109.491,-3.24841 L 109.292,-3.41975 L 109.093,-3.59156 L 108.894,-3.7638 L 108.694,-3.93641 L 108.495,-4.10933
 L 108.296,-4.28251 L 108.097,-4.45591 L 107.898,-4.62947 L 107.699,-4.80313 L 107.301,-5.15057 L 107.102,-5.32423
 L 106.903,-5.49779 L 106.704,-5.67119 L 106.505,-5.84437 L 106.306,-6.01729 L 106.106,-6.1899 L 105.907,-6.36214
 L 105.708,-6.53395 L 105.509,-6.70529 L 105.31,-6.87611 L 105.111,-7.04634 L 104.912,-7.21595 L 104.713,-7.38487
 L 104.514,-7.55306 L 104.315,-7.72046 L 104.116,-7.88703 L 103.917,-8.05271 L 103.718,-8.21746 L 103.519,-8.38122
 L 103.319,-8.54394 L 103.12,-8.70557 L 102.921,-8.86607 L 102.722,-9.02539 L 102.523,-9.18347 L 102.324,-9.34027
 L 102.125,-9.49574 L 101.926,-9.64983 L 101.727,-9.8025 L 101.528,-9.9537 L 101.329,-10.1034 L 101.13,-10.2515
 L 100.931,-10.398 L 100.731,-10.5429 L 100.532,-10.6861 L 100.333,-10.8275 L 100.134,-10.9671 L 99.9352,-11.105
 L 99.7361,-11.2409 L 99.537,-11.375 L 99.338,-11.5071 L 99.1389,-11.6372 L 98.9398,-11.7653 L 98.7407,-11.8913
 L 98.5417,-12.0152 L 98.3426,-12.1369 L 98.1435,-12.2565 L 97.9444,-12.3739 L 97.7454,-12.489 L 97.5463,-12.6018
 L 97.3472,-12.7123 L 97.1481,-12.8205 L 96.9491,-12.9262 L 96.75,-13.0296 L 96.5509,-13.1304 L 96.3519,-13.2288
 L 96.1528,-13.3247 L 95.9537,-13.4181 L 95.7546,-13.5088 L 95.5556,-13.597 L 95.3565,-13.6826 L 95.1574,-13.7654
 L 94.9583,-13.8457 L 94.7593,-13.9232 L 94.5602,-13.998 L 94.3611,-14.07 L 94.162,-14.1393 L 93.963,-14.2058
 L 93.7639,-14.2694 L 93.5648,-14.3303 L 93.3657,-14.3883 L 93.1667,-14.4434 L 92.9676,-14.4956 L 92.7685,-14.545
 L 92.5694,-14.5914 L 92.3704,-14.6349 L 92.1713,-14.6754 L 91.9722,-14.713 L 91.7731,-14.7477 L 91.5741,-14.7793
 L 91.375,-14.808 L 91.1759,-14.8337 L 90.9769,-14.8564 L 90.7778,-14.876 L 90.5787,-14.8927 L 90.3796,-14.9063
 L 90.1806,-14.9169 L 89.9815,-14.9245 L 89.7824,-14.929 L 89.5833,-14.9306 L 89.3843,-14.929 L 89.1852,-14.9245
 L 88.9861,-14.9169 L 88.787,-14.9063 L 88.588,-14.8927 L 88.3889,-14.876 L 88.1898,-14.8564 L 87.9907,-14.8337
 L 87.7917,-14.808 L 87.5926,-14.7793 L 87.3935,-14.7477 L 87.1944,-14.713 L 86.9954,-14.6754 L 86.7963,-14.6349
 L 86.5972,-14.5914 L 86.3981,-14.545 L 86.1991,-14.4956 L 86,-14.4434 L 85.8009,-14.3883 L 85.6019,-14.3303
 L 85.4028,-14.2694 L 85.2037,-14.2058 L 85.0046,-14.1393 L 84.8056,-14.07 L 84.6065,-13.998 L 84.4074,-13.9232
 L 84.2083,-13.8457 L 84.0093,-13.7654 L 83.8102,-13.6826 L 83.6111,-13.597 L 83.412,-13.5088 L 83.213,-13.4181
 L 83.0139,-13.3247 L 82.8148,-13.2288 L 82.6157,-13.1304 L 82.4167,-13.0296 L 82.2176,-12.9262 L 82.0185,-12.8205
 L 81.8194,-12.7123 L 81.6204,-12.6018 L 81.4213,-12.489 L 81.2222,-12.3739 L 81.0231,-12.2565 L 80.8241,-12.1369
 L 80.625,-12.0152 L 80.4259,-11.8913 L 80.2269,-11.7653 L 80.0278,-11.6372 L 79.8287,-11.5071 L 79.6296,-11.375
 L 79.4306,-11.2409 L 79.2315,-11.105 L 79.0324,-10.9671 L 78.8333,-10.8275 L 78.6343,-10.6861 L 78.4352,-10.5429
 L 78.2361,-10.398 L 78.037,-10.2515 L 77.838,-10.1034 L 77.6389,-9.9537 L 77.4398,-9.8025 L 77.2407,-9.64983
 L 77.0417,-9.49574 L 76.8426,-9.34027 L 76.6435,-9.18347 L 76.4444,-9.02539 L 76.2454,-8.86607 L 76.0463,-8.70557
 L 75.8472,-8.54394 L 75.6481,-8.38122 L 75.4491,-8.21746 L 75.25,-8.05271 L 75.0509,-7.88703 L 74.8519,-7.72046
 L 74.6528,-7.55306 L 74.4537,-7.38487 L 74.2546,-7.21595 L 74.0556,-7.04634 L 73.8565,-6.87611 L 73.6574,-6.70529
 L 73.4583,-6.53395 L 73.2593,-6.36214 L 73.0602,-6.1899 L 72.8611,-6.01729 L 72.662,-5.84437 L 72.463,-5.67119
 L 72.2639,-5.49779 L 72.0648,-5.32423 L 71.8657,-5.15057 L 71.4676,-4.80313 L 71.2685,-4.62947 L 71.0694,-4.45591
 L 70.8704,-4.28251 L 70.6713,-4.10933 L 70.4722,-3.93641 L 70.2731,-3.7638 L 70.0741,-3.59156 L 69.875,-3.41975
 L 69.6759,-3.24841 L 69.4769,-3.0776 L 69.2778,-2.90736 L 69.0787,-2.73775 L 68.8796,-2.56883 L 68.6806,-2.40064
 L 68.4815,-2.23324 L 68.2824,-2.06667 L 68.0833,-1.90099 L 67.8843,-1.73624 L 67.6852,-1.57248 L 67.4861,-1.40976
 L 67.287,-1.24813 L 67.088,-1.08763 L 66.8889,-0.928315 L 66.6898,-0.770233 L 66.4907,-0.613434 L 66.2917,-0.457962
 L 66.0926,-0.303869 L 65.8935,-0.151198 L 65.6944,-0 L 65.4954,0.149682 L 65.2963,0.297806 L 65.0972,0.444323
 L 64.8981,0.589188 L 64.6991,0.732357 L 64.5,0.873786 L 64.3009,1.01344 L 64.1019,1.15126 L 63.9028,1.28722
 L 63.7037,1.42126 L 63.5046,1.55336 L 63.3056,1.68348 L 63.1065,1.81156 L 62.9074,1.93757 L 62.7083,2.06148
 L 62.5093,2.18324 L 62.3102,2.30282 L 62.1111,2.42019 L 61.912,2.5353 L 61.713,2.64813 L 61.5139,2.75863
 L 61.3148,2.86677 L 61.1157,2.97253 L 60.9167,3.07586 L 60.7176,3.17674 L 60.5185,3.27514 L 60.3194,3.37102
 L 60.1204,3.46437 L 59.9213,3.55514 L 59.7222,3.64331 L 59.5231,3.72885 L 59.3241,3.81174 L 59.125,3.89196
 L 58.9259,3.96948 L 58.7269,4.04427 L 58.5278,4.11631 L 58.3287,4.18558 L 58.1296,4.25206 L 57.9306,4.31573
 L 57.7315,4.37657 L 57.5324,4.43456 L 57.3333,4.48968 L 57.1343,4.54192 L 56.9352,4.59126 L 56.7361,4.63769
 L 56.537,4.68118 L 56.338,4.72174 L 56.1389,4.75934 L 55.9398,4.79397 L 55.7407,4.82563 L 55.5417,4.8543
 L 55.3426,4.87998 L 55.1435,4.90266 L 54.9444,4.92232 L 54.7454,4.93897 L 54.5463,4.9526 L 54.3472,4.96321
 L 54.1481,4.97079 L 53.9491,4.97533 L 53.75,4.97685 L 53.5509,4.97533 L 53.3519,4.97079 L 53.1528,4.96321
 L 52.9537,4.9526 L 52.7546,4.93897 L 52.5556,4.92232 L 52.3565,4.90266 L 52.1574,4.87998 L 51.9583,4.8543
 L 51.7593,4.82563 L 51.5602,4.79397 L 51.3611,4.75934 L 51.162,4.72174 L 50.963,4.68118 L 50.7639,4.63769
 L 50.5648,4.59126 L 50.3657,4.54192 L 50.1667,4.48968 L 49.9676,4.43456 L 49.7685,4.37657 L 49.5694,4.31573
 L 49.3704,4.25206 L 49.1713,4.18558 L 48.9722,4.11631 L 48.7731,4.04427 L 48.5741,3.96948 L 48.375,3.89196
 L 48.1759,3.81174 L 47.9769,3.72885 L 47.7778,3.64331 L 47.5787,3.55514 L 47.3796,3.46437 L 47.1806,3.37102
 L 46.9815,3.27514 L 46.7824,3.17674 L 46.5833,3.07586 L 46.3843,2.97253 L 46.1852,2.86677 L 45.9861,2.75863
 L 45.787,2.64813 L 45.588,2.5353 L 45.3889,2.42019 L 45.1898,2.30282 L 44.9907,2.18324 L 44.7917,2.06148
 L 44.5926,1.93757 L 44.3935,1.81156 L 44.1944,1.68348 L 43.9954,1.55336 L 43.7963,1.42126 L 43.5972,1.28722
 L 43.3981,1.15126 L 43.1991,1.01344 L 43,0.873786 L 42.8009,0.732357 L 42.6019,0.589188 L 42.4028,0.444323
 L 42.2037,0.297806 L 42.0046,0.149682 L 41.8056,-0 L 41.6065,-0.151198 L 41.4074,-0.303869 L 41.2083,-0.457962
 L 41.0093,-0.613434 L 40.8102,-0.770233 L 40.6111,-0.928315 L 40.412,-1.08763 L 40.213,-1.24813 L 40.0139,-1.40976
 L 39.8148,-1.57248 L 39.6157,-1.73624 L 39.4167,-1.90099 L 39.2176,-2.06667 L 39.0185,-2.23324 L 38.8194,-2.40064
 L 38.6204,-2.56883 L 38.4213,-2.73775 L 38.2222,-2.90736 L 38.0231,-3.0776 L 37.8241,-3.24841 L 37.625,-3.41975
 L 37.4259,-3.59156 L 37.2269,-3.7638 L 37.0278,-3.93641 L 36.8287,-4.10933 L 36.6296,-4.28251 L 36.4306,-4.45591
 L 36.2315,-4.62947 L 36.0324,-4.80313 L 35.6343,-5.15057 L 35.4352,-5.32423 L 35.2361,-5.49779 L 35.037,-5.67119
 L 34.838,-5.84437 L 34.6389,-6.01729 L 34.4398,-6.1899 L 34.2407,-6.36214 L 34.0417,-6.53395 L 33.8426,-6.70529
 L 33.6435,-6.87611 L 33.4444,-7.04634 L 33.2454,-7.21595 L 33.0463,-7.38487 L 32.8472,-7.55306 L 32.6481,-7.72046
 L 32.4491,-7.88703 L 32.25,-8.05271 L 32.0509,-8.21746 L 31.8519,-8.38122 L 31.6528,-8.54394 L 31.4537,-8.70557
 L 31.2546,-8.86607 L 31.0556,-9.02539 L 30.8565,-9.18347 L 30.6574,-9.34027 L 30.4583,-9.49574 L 30.2593,-9.64983
 L 30.0602,-9.8025 L 29.8611,-9.9537 L 29.662,-10.1034 L 29.463,-10.2515 L 29.2639,-10.398 L 29.0648,-10.5429
 L 28.8657,-10.6861 L 28.6667,-10.8275 L 28.4676,-10.9671 L 28.2685,-11.105 L 28.0694,-11.2409 L 27.8704,-11.375
 L 27.6713,-11.5071 L 27.4722,-11.6372 L 27.2731,-11.7653 L 27.0741,-11.8913 L 26.875,-12.0152 L 26.6759,-12.1369
 L 26.4769,-12.2565 L 26.2778,-12.3739 L 26.0787,-12.489 L 25.8796,-12.6018 L 25.6806,-12.7123 L 25.4815,-12.8205
 L 25.2824,-12.9262 L 25.0833,-13.0296 L 24.8843,-13.1304 L 24.6852,-13.2288 L 24.4861,-13.3247 L 24.287,-13.4181
 L 24.088,-13.5088 L 23.8889,-13.597 L 23.6898,-13.6826 L 23.4907,-13.7654 L 23.2917,-13.8457 L 23.0926,-13.9232
 L 22.8935,-13.998 L 22.6944,-14.07 L 22.4954,-14.1393 L 22.2963,-14.2058 L 22.0972,-14.2694 L 21.8981,-14.3303
 L 21.6991,-14.3883 L 21.5,-14.4434 L 21.3009,-14.4956 L 21.1019,-14.545 L 20.9028,-14.5914 L 20.7037,-14.6349
 L 20.5046,-14.6754 L 20.3056,-14.713 L 20.1065,-14.7477 L 19.9074,-14.7793 L 19.7083,-14.808 L 19.5093,-14.8337
 L 19.3102,-14.8564 L 19.1111,-14.876 L 18.912,-14.8927 L 18.713,-14.9063 L 18.5139,-14.9169 L 18.3148,-14.9245
 L 18.1157,-14.929 L 17.9167,-14.9306 L 17.7176,-14.929 L 17.5185,-14.9245 L 17.3194,-14.9169 L 17.1204,-14.9063
 L 16.9213,-14.8927 L 16.7222,-14.876 L 16.5231,-14.8564 L 16.3241,-14.8337 L 16.125,-14.808 L 15.9259,-14.7793
 L 15.7269,-14.7477 L 15.5278,-14.713 L 15.3287,-14.6754 L 15.1296,-14.6349 L 14.9306,-14.5914 L 14.7315,-14.545
 L 14.5324,-14.4956 L 14.3333,-14.4434 L 14.1343,-14.3883 L 13.9352,-14.3303 L 13.7361,-14.2694 L 13.537,-14.2058
 L 13.338,-14.1393 L 13.1389,-14.07 L 12.9398,-13.998 L 12.7407,-13.9232 L 12.5417,-13.8457 L 12.3426,-13.7654
 L 12.1435,-13.6826 L 11.9444,-13.597 L 11.7454,-13.5088 L 11.5463,-13.4181 L 11.3472,-13.3247 L 11.1481,-13.2288
 L 10.9491,-13.1304 L 10.75,-13.0296 L 10.5509,-12.9262 L 10.3519,-12.8205 L 10.1528,-12.7123 L 9.9537,-12.6018
 L 9.75463,-12.489 L 9.55556,-12.3739 L 9.35648,-12.2565 L 9.15741,-12.1369 L 8.95833,-12.0152 L 8.75926,-11.8913
 L 8.56019,-11.7653 L 8.36111,-11.6372 L 8.16204,-11.5071 L 7.96296,-11.375 L 7.76389,-11.2409 L 7.56481,-11.105
 L 7.36574,-10.9671 L 7.16667,-10.8275 L 6.96759,-10.6861 L 6.76852,-10.5429 L 6.56944,-10.398 L 6.37037,-10.2515
 L 6.1713,-10.1034 L 5.97222,-9.9537 L 5.77315,-9.8025 L 5.57407,-9.64983 L 5.375,-9.49574 L 5.17593,-9.34027
 L 4.97685,-9.18347 L 4.77778,-9.02539 L 4.5787,-8.86607 L 4.37963,-8.70557 L 4.18056,-8.54394 L 3.98148,-8.38122
 L 3.78241,-8.21746 L 3.58333,-8.05271 L 3.38426,-7.88703 L 3.18519,-7.72046 L 2.98611,-7.55306 L 2.78704,-7.38487
 L 2.58796,-7.21595 L 2.38889,-7.04634 L 2.18981,-6.87611 L 1.99074,-6.70529 L 1.79167,-6.53395 L 1.59259,-6.36214
 L 1.39352,-6.1899 L 1.19444,-6.01729 L 0.99537,-5.84437 L 0.796296,-5.67119 L 0.597222,-5.49779 L 0.398148,-5.32423
 L 0.199074,-5.15057 L 0,-4.97685 L 0,4.97685 L 0.199074,4.80313 L 0.398148,4.62947 L 0.597222,4.45591
 L 0.796296,4.28251 L 0.99537,4.10933 L 1.19444,3.93641 L 1.39352,3.7638 L 1.59259,3.59156 L 1.79167,3.41975
 L 1.99074,3.24841 L 2.18981,3.0776 L 2.38889,2.90736 L 2.58796,2.73775 L 2.78704,2.56883 L 2.98611,2.40064
 L 3.18519,2.23324 L 3.38426,2.06667 L 3.58333,1.90099 L 3.78241,1.73624 L 3.98148,1.57248 L 4.18056,1.40976
 L 4.37963,1.24813 L 4.5787,1.08763 L 4.77778,0.928315 L 4.97685,0.770233 L 5.17593,0.613434 L 5.375,0.457962
 L 5.57407,0.303869 L 5.77315,0.151198 L 5.97222,-0 L 6.1713,-0.149682 L 6.37037,-0.297806 L 6.56944,-0.444323
 L 6.76852,-0.589188 L 6.96759,-0.732357 L 7.16667,-0.873786 L 7.36574,-1.01344 L 7.56481,-1.15126 L 7.76389,-1.28722
 L 7.96296,-1.42126 L 8.16204,-1.55336 L 8.36111,-1.68348 L 8.56019,-1.81156 L 8.75926,-1.93757 L 8.95833,-2.06148
 L 9.15741,-2.18324 L 9.35648,-2.30282 L 9.55556,-2.42019 L 9.75463,-2.5353 L 9.9537,-2.64813 L 10.1528,-2.75863
 L 10.3519,-2.86677 L 10.5509,-2.97253 L 10.75,-3.07586 L 10.9491,-3.17674 L 11.1481,-3.27514 L 11.3472,-3.37102
 L 11.5463,-3.46437 L 11.7454,-3.55514 L 11.9444,-3.64331 L 12.1435,-3.72885 L 12.3426,-3.81174 L 12.5417,-3.89196
 L 12.7407,-3.96948 L 12.9398,-4.04427 L 13.1389,-4.11631 L 13.338,-4.18558 L 13.537,-4.25206 L 13.7361,-4.31573
 L 13.9352,-4.37657 L 14.1343,-4.43456 L 14.3333,-4.48968 L 14.5324,-4.54192 L 14.7315,-4.59126 L 14.9306,-4.63769
 L 15.1296,-4.68118 L 15.3287,-4.72174 L 15.5278,-4.75934 L 15.7269,-4.79397 L 15.9259,-4.82563 L 16.125,-4.8543
 L 16.3241,-4.87998 L 16.5231,-4.90266 L 16.7222,-4.92232 L 16.9213,-4.93897 L 17.1204,-4.9526 L 17.3194,-4.96321
 L 17.5185,-4.97079 L 17.7176,-4.97533 L 17.9167,-4.97685 L 18.1157,-4.97533 L 18.3148,-4.97079 L 18.5139,-4.96321
 L 18.713,-4.9526 L 18.912,-4.93897 L 19.1111,-4.92232 L 19.3102,-4.90266 L 19.5093,-4.87998 L 19.7083,-4.8543
 L 19.9074,-4.82563 L 20.1065,-4.79397 L 20.3056,-4.75934 L 20.5046,-4.72174 L 20.7037,-4.68118 L 20.9028,-4.63769
 L 21.1019,-4.59126 L 21.3009,-4.54192 L 21.5,-4.48968 L 21.6991,-4.43456 L 21.8981,-4.37657 L 22.0972,-4.31573
 L 22.2963,-4.25206 L 22.4954,-4.18558 L 22.6944,-4.11631 L 22.8935,-4.04427 L 23.0926,-3.96948 L 23.2917,-3.89196
 L 23.4907,-3.81174 L 23.6898,-3.72885 L 23.8889,-3.64331 L 24.088,-3.55514 L 24.287,-3.46437 L 24.4861,-3.37102
 L 24.6852,-3.27514 L 24.8843,-3.17674 L 25.0833,-3.07586 L 25.2824,-2.97253 L 25.4815,-2.86677 L 25.6806,-2.75863
 L 25.8796,-2.64813 L 26.0787,-2.5353 L 26.2778,-2.42019 L 26.4769,-2.30282 L 26.6759,-2.18324 L 26.875,-2.06148
 L 27.0741,-1.93757 L 27.2731,-1.81156 L 27.4722,-1.68348 L 27.6713,-1.55336 L 27.8704,-1.42126 L 28.0694,-1.28722
 L 28.2685,-1.15126 L 28.4676,-1.01344 L 28.6667,-0.873786 L 28.8657,-0.732357 L 29.0648,-0.589188 L 29.2639,-0.444323
 L 29.463,-0.297806 L 29.662,-0.149682 L 29.8611,-0 L 30.0602,0.151198 L 30.2593,0.303869 L 30.4583,0.457962
 L 30.6574,0.613434 L 30.8565,0.770233 L 31.0556,0.928315 L 31.2546,1.08763 L 31.4537,1.24813 L 31.6528,1.40976
 L 31.8519,1.57248 L 32.0509,1.73624 L 32.25,1.90099 L 32.4491,2.06667 L 32.6481,2.23324 L 32.8472,2.40064
 L 33.0463,2.56883 L 33.2454,2.73775 L 33.4444,2.90736 L 33.6435,3.0776 L 33.8426,3.24841 L 34.0417,3.41975
 L 34.2407,3.59156 L 34.4398,3.7638 L 34.6389,3.93641 L 34.838,4.10933 L 35.037,4.28251 L 35.2361,4.45591
 L 35.4352,4.62947 L 35.6343,4.80313 L 36.0324,5.15057 L 36.2315,5.32423 L 36.4306,5.49779 L 36.6296,5.67119
 L 36.8287,5.84437 L 37.0278,6.01729 L 37.2269,6.1899 L 37.4259,6.36214 L 37.625,6.53395 L 37.8241,6.70529
 L 38.0231,6.87611 L 38.2222,7.04634 L 38.4213,7.21595 L 38.6204,7.38487 L 38.8194,7.55306 L 39.0185,7.72046
 L 39.2176,7.88703 L 39.4167,8.05271 L 39.6157,8.21746 L 39.8148,8.38122 L 40.0139,8.54394 L 40.213,8.70557
 L 40.412,8.86607 L 40.6111,9.02539 L 40.8102,9.18347 L 41.0093,9.34027 L 41.2083,9.49574 L 41.4074,9.64983
 L 41.6065,9.8025 L 41.8056,9.9537 L 42.0046,10.1034 L 42.2037,10.2515 L 42.4028,10.398 L 42.6019,10.5429
 L 42.8009,10.6861 L 43,10.8275 L 43.1991,10.9671 L 43.3981,11.105 L 43.5972,11.2409 L 43.7963,11.375
 L 43.9954,11.5071 L 44.1944,11.6372 L 44.3935,11.7653 L 44.5926,11.8913 L 44.7917,12.0152 L 44.9907,12.1369
 L 45.1898,12.2565 L 45.3889,12.3739 L 45.588,12.489 L 45.787,12.6018 L 45.9861,12.7123 L 46.1852,12.8205
 L 46.3843,12.9262 L 46.5833,13.0296 L 46.7824,13.1304 L 46.9815,13.2288 L 47.1806,13.3247 L 47.3796,13.4181
 L 47.5787,13.5088 L 47.7778,13.597 L 47.9769,13.6826 L 48.1759,13.7654 L 48.375,13.8457 L 48.5741,13.9232
 L 48.7731,13.998 L 48.9722,14.07 L 49.1713,14.1393 L 49.3704,14.2058 L 49.5694,14.2694 L 49.7685,14.3303
 L 49.9676,14.3883 L 50.1667,14.4434 L 50.3657,14.4956 L 50.5648,14.545 L 50.7639,14.5914 L 50.963,14.6349
 L 51.162,14.6754 L 51.3611,14.713 L 51.5602,14.7477 L 51.7593,14.7793 L 51.9583,14.808 L 52.1574,14.8337
 L 52.3565,14.8564 L 52.5556,14.876 L 52.7546,14.8927 L 52.9537,14.9063 L 53.1528,14.9169 L 53.3519,14.9245
 L 53.5509,14.929 L 53.75,14.9306 L 53.9491,14.929 L 54.1481,14.9245 L 54.3472,14.9169 L 54.5463,14.9063
 L 54.7454,14.8927 L 54.9444,14.876 L 55.1435,14.8564 L 55.3426,14.8337 L 55.5417,14.808 L 55.7407,14.7793
 L 55.9398,14.7477 L 56.1389,14.713 L 56.338,14.6754 L 56.537,14.6349 L 56.7361,14.5914 L 56.9352,14.545
 L 57.1343,14.4956 L 57.3333,14.4434 L 57.5324,14.3883 L 57.7315,14.3303 L 57.9306,14.2694 L 58.1296,14.2058
 L 58.3287,14.1393 L 58.5278,14.07 L 58.7269,13.998 L 58.9259,13.9232 L 59.125,13.8457 L 59.3241,13.7654
 L 59.5231,13.6826 L 59.7222,13.597 L 59.9213,13.5088 L 60.1204,13.4181 L 60.3194,13.3247 L 60.5185,13.2288
 L 60.7176,13.1304 L 60.9167,13.0296 L 61.1157,12.9262 L 61.3148,12.8205 L 61.5139,12.7123 L 61.713,12.6018
 L 61.912,12.489 L 62.1111,12.3739 L 62.3102,12.2565 L 62.5093,12.1369 L 62.7083,12.0152 L 62.9074,11.8913
 L 63.1065,11.7653 L 63.3056,11.6372 L 63.5046,11.5071 L 63.7037,11.375 L 63.9028,11.2409 L 64.1019,11.105
 L 64.3009,10.9671 L 64.5,10.8275 L 64.6991,10.6861 L 64.8981,10.5429 L 65.0972,10.398 L 65.2963,10.2515
 L 65.4954,10.1034 L 65.6944,9.9537 L 65.8935,9.8025 L 66.0926,9.64983 L 66.2917,9.49574 L 66.4907,9.34027
 L 66.6898,9.18347 L 66.8889,9.02539 L 67.088,8.86607 L 67.287,8.70557 L 67.4861,8.54394 L 67.6852,8.38122
 L 67.8843,8.21746 L 68.0833,8.05271 L 68.2824,7.88703 L 68.4815,7.72046 L 68.6806,7.55306 L 68.8796,7.38487
 L 69.0787,7.21595 L 69.2778,7.04634 L 69.4769,6.87611 L 69.6759,6.70529 L 69.875,6.53395 L 70.0741,6.36214
 L 70.2731,6.1899 L 70.4722,6.01729 L 70.6713,5.84437 L 70.8704,5.67119 L 71.0694,5.49779 L 71.2685,5.32423
 L 71.4676,5.15057 L 71.8657,4.80313 L 72.0648,4.62947 L 72.2639,4.45591 L 72.463,4.28251 L 72.662,4.10933
 L 72.8611,3.93641 L 73.0602,3.7638 L 73.2593,3.59156 L 73.4583,3.41975 L 73.6574,3.24841 L 73.8565,3.0776
 L 74.0556,2.90736 L 74.2546,2.73775 L 74.4537,2.56883 L 74.6528,2.40064 L 74.8519,2.23324 L 75.0509,2.06667
 L 75.25,1.90099 L 75.4491,1.73624 L 75.6481,1.57248 L 75.8472,1.40976 L 76.0463,1.24813 L 76.2454,1.08763
 L 76.4444,0.928315 L 76.6435,0.770233 L 76.8426,0.613434 L 77.0417,0.457962 L 77.2407,0.303869 L 77.4398,0.151198
 L 77.6389,-0 L 77.838,-0.149682 L 78.037,-0.297806 L 78.2361,-0.444323 L 78.4352,-0.589188 L 78.6343,-0.732357
 L 78.8333,-0.873786 L 79.0324,-1.01344 L 79.2315,-1.15126 L 79.4306,-1.28722 L 79.6296,-1.42126 L 79.8287,-1.55336
 L 80.0278,-1.68348 L 80.2269,-1.81156 L 80.4259,-1.93757 L 80.625,-2.06148 L 80.8241,-2.18324 L 81.0231,-2.30282
 L 81.2222,-2.42019 L 81.4213,-2.5353 L 81.6204,-2.64813 L 81.8194,-2.75863 L 82.0185,-2.86677 L 82.2176,-2.97253
 L 82.4167,-3.07586 L 82.6157,-3.17674 L 82.8148,-3.27514 L 83.0139,-3.37102 L 83.213,-3.46437 L 83.412,-3.55514
 L 83.6111,-3.64331 L 83.8102,-3.72885 L 84.0093,-3.81174 L 84.2083,-3.89196 L 84.4074,-3.96948 L 84.6065,-4.04427
 L 84.8056,-4.11631 L 85.0046,-4.18558 L 85.2037,-4.25206 L 85.4028,-4.31573 L 85.6019,-4.37657 L 85.8009,-4.43456
 L 86,-4.48968 L 86.1991,-4.54192 L 86.3981,-4.59126 L 86.5972,-4.63769 L 86.7963,-4.68118 L 86.9954,-4.72174
 L 87.1944,-4.75934 L 87.3935,-4.79397 L 87.5926,-4.82563 L 87.7917,-4.8543 L 87.9907,-4.87998 L 88.1898,-4.90266
 L 88.3889,-4.92232 L 88.588,-4.93897 L 88.787,-4.9526 L 88.9861,-4.96321 L 89.1852,-4.97079 L 89.3843,-4.97533
 L 89.5833,-4.97685 L 89.7824,-4.97533 L 89.9815,-4.97079 L 90.1806,-4.96321 L 90.3796,-4.9526 L 90.5787,-4.93897
 L 90.7778,-4.92232 L 90.9769,-4.90266 L 91.1759,-4.87998 L 91.375,-4.8543 L 91.5741,-4.82563 L 91.7731,-4.79397
 L 91.9722,-4.75934 L 92.1713,-4.72174 L 92.3704,-4.68118 L 92.5694,-4.63769 L 92.7685,-4.59126 L 92.9676,-4.54192
 L 93.1667,-4.48968 L 93.3657,-4.43456 L 93.5648,-4.37657 L 93.7639,-4.31573 L 93.963,-4.25206 L 94.162,-4.18558
 L 94.3611,-4.11631 L 94.5602,-4.04427 L 94.7593,-3.96948 L 94.9583,-3.89196 L 95.1574,-3.81174 L 95.3565,-3.72885
 L 95.5556,-3.64331 L 95.7546,-3.55514 L 95.9537,-3.46437 L 96.1528,-3.37102 L 96.3519,-3.27514 L 96.5509,-3.17674
 L 96.75,-3.07586 L 96.9491,-2.97253 L 97.1481,-2.86677 L 97.3472,-2.75863 L 97.5463,-2.64813 L 97.7454,-2.5353
 L 97.9444,-2.42019 L 98.1435,-2.30282 L 98.3426,-2.18324 L 98.5417,-2.06148 L 98.7407,-1.93757 L 98.9398,-1.81156
 L 99.1389,-1.68348 L 99.338,-1.55336 L 99.537,-1.42126 L 99.7361,-1.28722 L 99.9352,-1.15126 L 100.134,-1.01344
 L 100.333,-0.873786 L 100.532,-0.732357 L 100.731,-0.589188 L 100.931,-0.444323 L 101.13,-0.297806 L 101.329,-0.149682
 L 101.528,-0 L 101.727,0.151198 L 101.926,0.303869 L 102.125,0.457962 L 102.324,0.613434 L 102.523,0.770233
 L 102.722,0.928315 L 102.921,1.08763 L 103.12,1.24813 L 103.319,1.40976 L 103.519,1.57248 L 103.718,1.73624
 L 103.917,1.90099 L 104.116,2.06667 L 104.315,2.23324 L 104.514,2.40064 L 104.713,2.56883 L 104.912,2.73775
 L 105.111,2.90736 L 105.31,3.0776 L 105.509,3.24841 L 105.708,3.41975 L 105.907,3.59156 L 106.106,3.7638
 L 106.306,3.93641 L 106.505,4.10933 L 106.704,4.28251 L 106.903,4.45591 L 107.102,4.62947 L 107.301,4.80313
 L 107.699,5.15057 L 107.898,5.32423 L 108.097,5.49779 L 108.296,5.67119 L 108.495,5.84437 L 108.694,6.01729
 L 108.894,6.1899 L 109.093,6.36214 L 109.292,6.53395 L 109.491,6.70529 L 109.69,6.87611 L 109.889,7.04634
 L 110.088,7.21595 L 110.287,7.38487 L 110.486,7.55306 L 110.685,7.72046 L 110.884,7.88703 L 111.083,8.05271
 L 111.282,8.21746 L 111.481,8.38122 L 111.681,8.54394 L 111.88,8.70557 L 112.079,8.86607 L 112.278,9.02539
 L 112.477,9.18347 L 112.676,9.34027 L 112.875,9.49574 L 113.074,9.64983 L 113.273,9.8025 L 113.472,9.9537
 L 113.671,10.1034 L 113.87,10.2515 L 114.069,10.398 L 114.269,10.5429 L 114.468,10.6861 L 114.667,10.8275
 L 114.866,10.9671 L 115.065,11.105 L 115.264,11.2409 L 115.463,11.375 L 115.662,11.5071 L 115.861,11.6372
 L 116.06,11.7653 L 116.259,11.8913 L 116.458,12.0152 L 116.657,12.1369 L 116.856,12.2565 L 117.056,12.3739
 L 117.255,12.489 L 117.454,12.6018 L 117.653,12.7123 L 117.852,12.8205 L 118.051,12.9262 L 118.25,13.0296
 L 118.449,13.1304 L 118.648,13.2288 L 118.847,13.3247 L 119.046,13.4181 L 119.245,13.5088 L 119.444,13.597
 L 119.644,13.6826 L 119.843,13.7654 L 120.042,13.8457 L 120.241,13.9232 L 120.44,13.998 L 120.639,14.07
 L 120.838,14.1393 L 121.037,14.2058 L 121.236,14.2694 L 121.435,14.3303 L 121.634,14.3883 L 121.833,14.4434
 L 122.032,14.4956 L 122.231,14.545 L 122.431,14.5914 L 122.63,14.6349 L 122.829,14.6754 L 123.028,14.713
 L 123.227,14.7477 L 123.426,14.7793 L 123.625,14.808 L 123.824,14.8337 L 124.023,14.8564 L 124.222,14.876
 L 124.421,14.8927 L 124.62,14.9063 L 124.819,14.9169 L 125.019,14.9245 L 125.218,14.929 L 125.417,14.9306
 L 125.616,14.929 L 125.815,14.9245 L 126.014,14.9169 L 126.213,14.9063 L 126.412,14.8927 L 126.611,14.876
 L 126.81,14.8564 L 127.009,14.8337 L 127.208,14.808 L 127.407,14.7793 L 127.606,14.7477 L 127.806,14.713
 L 128.005,14.6754 L 128.204,14.6349 L 128.403,14.5914 L 128.602,14.545 L 128.801,14.4956 L 129,14.4434
 L 129.199,14.3883 L 129.398,14.3303 L 129.597,14.2694 L 129.796,14.2058 L 129.995,14.1393 L 130.194,14.07
 L 130.394,13.998 L 130.593,13.9232 L 130.792,13.8457 L 130.991,13.7654 L 131.19,13.6826 L 131.389,13.597
 L 131.588,13.5088 L 131.787,13.4181 L 131.986,13.3247 L 132.185,13.2288 L 132.384,13.1304 L 132.583,13.0296
 L 132.782,12.9262 L 132.981,12.8205 L 133.181,12.7123 L 133.38,12.6018 L 133.579,12.489 L 133.778,12.3739
 L 133.977,12.2565 L 134.176,12.1369 L 134.375,12.0152 L 134.574,11.8913 L 134.773,11.7653 L 134.972,11.6372
 L 135.171,11.5071 L 135.37,11.375 L 135.569,11.2409 L 135.769,11.105 L 135.968,10.9671 L 136.167,10.8275
 L 136.366,10.6861 L 136.565,10.5429 L 136.764,10.398 L 136.963,10.2515 L 137.162,10.1034 L 137.361,9.9537
 L 137.56,9.8025 L 137.759,9.64983 L 137.958,9.49574 L 138.157,9.34027 L 138.356,9.18347 L 138.556,9.02539
 L 138.755,8.86607 L 138.954,8.70557 L 139.153,8.54394 L 139.352,8.38122 L 139.551,8.21746 L 139.75,8.05271
 L 139.949,7.88703 L 140.148,7.72046 L 140.347,7.55306 L 140.546,7.38487 L 140.745,7.21595 L 140.944,7.04634
 L 141.144,6.87611 L 141.343,6.70529 L 141.542,6.53395 L 141.741,6.36214 L 141.94,6.1899 L 142.139,6.01729
 L 142.338,5.84437 L 142.537,5.67119 L 142.736,5.49779 L 142.935,5.32423 L 143.134,5.15057 L 143.532,4.80313
 L 143.731,4.62947 L 143.931,4.45591 L 144.13,4.28251 L 144.329,4.10933 L 144.528,3.93641 L 144.727,3.7638
 L 144.926,3.59156 L 145.125,3.41975 L 145.324,3.24841 L 145.523,3.0776 L 145.722,2.90736 L 145.921,2.73775
 L 146.12,2.56883 L 146.319,2.40064 L 146.519,2.23324 L 146.718,2.06667 L 146.917,1.90099 L 147.116,1.73624
 L 147.315,1.57248 L 147.514,1.40976 L 147.713,1.24813 L 147.912,1.08763 L 148.111,0.928315 L 148.31,0.770233
 L 148.509,0.613434 L 148.708,0.457962 L 148.907,0.303869 L 149.106,0.151198 L 149.306,-0 L 149.505,-0.149682
 L 149.704,-0.297806 L 149.903,-0.444323 L 150.102,-0.589188 L 150.301,-0.732357 L 150.5,-0.873786 L 150.699,-1.01344
 L 150.898,-1.15126 L 151.097,-1.28722 L 151.296,-1.42126 L 151.495,-1.55336 L 151.694,-1.68348 L 151.894,-1.81156
 L 152.093,-1.93757 L 152.292,-2.06148 L 152.491,-2.18324 L 152.69,-2.30282 L 152.889,-2.42019 L 153.088,-2.5353
 L 153.287,-2.64813 L 153.486,-2.75863 L 153.685,-2.86677 L 153.884,-2.97253 L 154.083,-3.07586 L 154.282,-3.17674
 L 154.481,-3.27514 L 154.681,-3.37102 L 154.88,-3.46437 L 155.079,-3.55514 L 155.278,-3.64331 L 155.477,-3.72885
 L 155.676,-3.81174 L 155.875,-3.89196 L 156.074,-3.96948 L 156.273,-4.04427 L 156.472,-4.11631 L 156.671,-4.18558
 L 156.87,-4.25206 L 157.069,-4.31573 L 157.269,-4.37657 L 157.468,-4.43456 L 157.667,-4.48968 L 157.866,-4.54192
 L 158.065,-4.59126 L 158.264,-4.63769 L 158.463,-4.68118 L 158.662,-4.72174 L 158.861,-4.75934 L 159.06,-4.79397
 L 159.259,-4.82563 L 159.458,-4.8543 L 159.657,-4.87998 L 159.856,-4.90266 L 160.056,-4.92232 L 160.255,-4.93897
 L 160.454,-4.9526 L 160.653,-4.96321 L 160.852,-4.97079 L 161.051,-4.97533 L 161.25,-4.97685 L 161.449,-4.97533
 L 161.648,-4.97079 L 161.847,-4.96321 L 162.046,-4.9526 L 162.245,-4.93897 L 162.444,-4.92232 L 162.644,-4.90266
 L 162.843,-4.87998 L 163.042,-4.8543 L 163.241,-4.82563 L 163.44,-4.79397 L 163.639,-4.75934 L 163.838,-4.72174
 L 164.037,-4.68118 L 164.236,-4.63769 L 164.435,-4.59126 L 164.634,-4.54192 L 164.833,-4.48968 L 165.032,-4.43456
 L 165.231,-4.37657 L 165.431,-4.31573 L 165.63,-4.25206 L 165.829,-4.18558 L 166.028,-4.11631 L 166.227,-4.04427
 L 166.426,-3.96948 L 166.625,-3.89196 L 166.824,-3.81174 L 167.023,-3.72885 L 167.222,-3.64331 L 167.421,-3.55514
 L 167.62,-3.46437 L 167.819,-3.37102 L 168.019,-3.27514 L 168.218,-3.17674 L 168.417,-3.07586 L 168.616,-2.97253
 L 168.815,-2.86677 L 169.014,-2.75863 L 169.213,-2.64813 L 169.412,-2.5353 L 169.611,-2.42019 L 169.81,-2.30282
 L 170.009,-2.18324 L 170.208,-2.06148 L 170.407,-1.93757 L 170.606,-1.81156 L 170.806,-1.68348 L 171.005,-1.55336
 L 171.204,-1.42126 L 171.403,-1.28722 L 171.602,-1.15126 L 171.801,-1.01344 L 172,-0.873786 L 172.199,-0.732357
 L 172.398,-0.589188 L 172.597,-0.444323 L 172.796,-0.297806 L 172.995,-0.149682 L 173.194,-0 L 173.394,0.151198
 L 173.593,0.303869 L 173.792,0.457962 L 173.991,0.613434 L 174.19,0.770233 L 174.389,0.928315 L 174.588,1.08763
 L 174.787,1.24813 L 174.986,1.40976 L 175.185,1.57248 L 175.384,1.73624 L 175.583,1.90099 L 175.782,2.06667
 L 175.981,2.23324 L 176.181,2.40064 L 176.38,2.56883 L 176.579,2.73775 L 176.778,2.90736 L 176.977,3.0776
 L 177.176,3.24841 L 177.375,3.41975 L 177.574,3.59156 L 177.773,3.7638 L 177.972,3.93641 L 178.171,4.10933
 L 178.37,4.28251 L 178.569,4.45591 L 178.769,4.62947 L 178.968,4.80313 L 179.366,5.15057 L 179.565,5.32423
 L 179.764,5.49779 L 179.963,5.67119 L 180.162,5.84437 L 180.361,6.01729 L 180.56,6.1899 L 180.759,6.36214
 L 180.958,6.53395 L 181.157,6.70529 L 181.356,6.87611 L 181.556,7.04634 L 181.755,7.21595 L 181.954,7.38487
 L 182.153,7.55306 L 182.352,7.72046 L 182.551,7.88703 L 182.75,8.05271 L 182.949,8.21746 L 183.148,8.38122
 L 183.347,8.54394 L 183.546,8.70557 L 183.745,8.86607 L 183.944,9.02539 L 184.144,9.18347 L 184.343,9.34027
 L 184.542,9.49574 L 184.741,9.64983 L 184.94,9.8025 L 185.139,9.9537 L 185.338,10.1034 L 185.537,10.2515
 L 185.736,10.398 L 185.935,10.5429 L 186.134,10.6861 L 186.333,10.8275 L 186.532,10.9671 L 186.731,11.105
 L 186.931,11.2409 L 187.13,11.375 L 187.329,11.5071 L 187.528,11.6372 L 187.727,11.7653 L 187.926,11.8913
 L 188.125,12.0152 L 188.324,12.1369 L 188.523,12.2565 L 188.722,12.3739 L 188.921,12.489 L 189.12,12.6018
 L 189.319,12.7123 L 189.519,12.8205 L 189.718,12.9262 L 189.917,13.0296 L 190.116,13.1304 L 190.315,13.2288
 L 190.514,13.3247 L 190.713,13.4181 L 190.912,13.5088 L 191.111,13.597 L 191.31,13.6826 L 191.509,13.7654
 L 191.708,13.8457 L 191.907,13.9232 L 192.106,13.998 L 192.306,14.07 L 192.505,14.1393 L 192.704,14.2058
 L 192.903,14.2694 L 193.102,14.3303 L 193.301,14.3883 L 193.5,14.4434 L 193.699,14.4956 L 193.898,14.545
 L 194.097,14.5914 L 194.296,14.6349 L 194.495,14.6754 L 194.694,14.713 L 194.894,14.7477 L 195.093,14.7793
 L 195.292,14.808 L 195.491,14.8337 L 195.69,14.8564 L 195.889,14.876 L 196.088,14.8927 L 196.287,14.9063
 L 196.486,14.9169 L 196.685,14.9245 L 196.884,14.929 L 197.083,14.9306 L 197.282,14.929 L 197.481,14.9245
 L 197.681,14.9169 L 197.88,14.9063 L 198.079,14.8927 L 198.278,14.876 L 198.477,14.8564 L 198.676,14.8337
 L 198.875,14.808 L 199.074,14.7793 L 199.273,14.7477 L 199.472,14.713 L 199.671,14.6754 L 199.87,14.6349
 L 200.069,14.5914 L 200.269,14.545 L 200.468,14.4956 L 200.667,14.4434 L 200.866,14.3883 L 201.065,14.3303
 L 201.264,14.2694 L 201.463,14.2058 L 201.662,14.1393 L 201.861,14.07 L 202.06,13.998 L 202.259,13.9232
 L 202.458,13.8457 L 202.657,13.7654 L 202.856,13.6826 L 203.056,13.597 L 203.255,13.5088 L 203.454,13.4181
 L 203.653,13.3247 L 203.852,13.2288 L 204.051,13.1304 L 204.25,13.0296 L 204.449,12.9262 L 204.648,12.8205
 L 204.847,12.7123 L 205.046,12.6018 L 205.245,12.489 L 205.444,12.3739 L 205.644,12.2565 L 205.843,12.1369
 L 206.042,12.0152 L 206.241,11.8913 L 206.44,11.7653 L 206.639,11.6372 L 206.838,11.5071 L 207.037,11.375
 L 207.236,11.2409 L 207.435,11.105 L 207.634,10.9671 L 207.833,10.8275 L 208.032,10.6861 L 208.231,10.5429
 L 208.431,10.398 L 208.63,10.2515 L 208.829,10.1034 L 209.028,9.9537 L 209.227,9.8025 L 209.426,9.64983
 L 209.625,9.49574 L 209.824,9.34027 L 210.023,9.18347 L 210.222,9.02539 L 210.421,8.86607 L 210.62,8.70557
 L 210.819,8.54394 L 211.019,8.38122 L 211.218,8.21746 L 211.417,8.05271 L 211.616,7.88703 L 211.815,7.72046
 L 212.014,7.55306 L 212.213,7.38487 L 212.412,7.21595 L 212.611,7.04634 L 212.81,6.87611 L 213.009,6.70529
 L 213.208,6.53395 L 213.407,6.36214 L 213.606,6.1899 L 213.806,6.01729 L 214.005,5.84437 L 214.204,5.67119
 L 214.403,5.49779 L 214.602,5.32423 L 214.801,5.15057 L 215.199,4.80313 L 215.398,4.62947 L 215.597,4.45591
 L 215.796,4.28251 L 215.995,4.10933 L 216.194,3.93641 L 216.394,3.7638 L 216.593,3.59156 L 216.792,3.41975
 L 216.991,3.24841 L 217.19,3.0776 L 217.389,2.90736 L 217.588,2.73775 L 217.787,2.56883 L 217.986,2.40064
 L 218.185,2.23324 L 218.384,2.06667 L 218.583,1.90099 L 218.782,1.73624 L 218.981,1.57248 L 219.181,1.40976
 L 219.38,1.24813 L 219.579,1.08763 L 219.778,0.928315 L 219.977,0.770233 L 220.176,0.613434 L 220.375,0.457962
 L 220.574,0.303869 L 220.773,0.151198 L 220.972,-0 L 221.171,-0.149682 L 221.37,-0.297806 L 221.569,-0.444323
 L 221.769,-0.589188 L 221.968,-0.732357 L 222.167,-0.873786 L 222.366,-1.01344 L 222.565,-1.15126 L 222.764,-1.28722
 L 222.963,-1.42126 L 223.162,-1.55336 L 223.361,-1.68348 L 223.56,-1.81156 L 223.759,-1.93757 L 223.958,-2.06148
 L 224.157,-2.18324 L 224.356,-2.30282 L 224.556,-2.42019 L 224.755,-2.5353 L 224.954,-2.64813 L 225.153,-2.75863
 L 225.352,-2.86677 L 225.551,-2.97253 L 225.75,-3.07586 L 225.949,-3.17674 L 226.148,-3.27514 L 226.347,-3.37102
 L 226.546,-3.46437 L 226.745,-3.55514 L 226.944,-3.64331 L 227.144,-3.72885 L 227.343,-3.81174 L 227.542,-3.89196
 L 227.741,-3.96948 L 227.94,-4.04427 L 228.139,-4.11631 L 228.338,-4.18558 L 228.537,-4.25206 L 228.736,-4.31573
 L 228.935,-4.37657 L 229.134,-4.43456 L 229.333,-4.48968 L 229.532,-4.54192 L 229.731,-4.59126 L 229.931,-4.63769
 L 230.13,-4.68118 L 230.329,-4.72174 L 230.528,-4.75934 L 230.727,-4.79397 L 230.926,-4.82563 L 231.125,-4.8543
 L 231.324,-4.87998 L 231.523,-4.90266 L 231.722,-4.92232 L 231.921,-4.93897 L 232.12,-4.9526 L 232.319,-4.96321
 L 232.519,-4.97079 L 232.718,-4.97533 L 232.917,-4.97685 L 233.116,-4.97533 L 233.315,-4.97079 L 233.514,-4.96321
 L 233.713,-4.9526 L 233.912,-4.93897 L 234.111,-4.92232 L 234.31,-4.90266 L 234.509,-4.87998 L 234.708,-4.8543
 L 234.907,-4.82563 L 235.106,-4.79397 L 235.306,-4.75934 L 235.505,-4.72174 L 235.704,-4.68118 L 235.903,-4.63769
 L 236.102,-4.59126 L 236.301,-4.54192 L 236.5,-4.48968 L 236.699,-4.43456 L 236.898,-4.37657 L 237.097,-4.31573
 L 237.296,-4.25206 L 237.495,-4.18558 L 237.694,-4.11631 L 237.894,-4.04427 L 238.093,-3.96948 L 238.292,-3.89196
 L 238.491,-3.81174 L 238.69,-3.72885 L 238.889,-3.64331 L 239.088,-3.55514 L 239.287,-3.46437 L 239.486,-3.37102
 L 239.685,-3.27514 L 239.884,-3.17674 L 240.083,-3.07586 L 240.282,-2.97253 L 240.481,-2.86677 L 240.681,-2.75863
 L 240.88,-2.64813 L 241.079,-2.5353 L 241.278,-2.42019 L 241.477,-2.30282 L 241.676,-2.18324 L 241.875,-2.06148
 L 242.074,-1.93757 L 242.273,-1.81156 L 242.472,-1.68348 L 242.671,-1.55336 L 242.87,-1.42126 L 243.069,-1.28722
 L 243.269,-1.15126 L 243.468,-1.01344 L 243.667,-0.873786 L 243.866,-0.732357 L 244.065,-0.589188 L 244.264,-0.444323
 L 244.463,-0.297806 L 244.662,-0.149682 L 244.861,-0 L 245.06,0.151198 L 245.259,0.303869 L 245.458,0.457962
 L 245.657,0.613434 L 245.856,0.770233 L 246.056,0.928315 L 246.255,1.08763 L 246.454,1.24813 L 246.653,1.40976
 L 246.852,1.57248 L 247.051,1.73624 L 247.25,1.90099 L 247.449,2.06667 L 247.648,2.23324 L 247.847,2.40064
 L 248.046,2.56883 L 248.245,2.73775 L 248.444,2.90736 L 248.644,3.0776 L 248.843,3.24841 L 249.042,3.41975
 L 249.241,3.59156 L 249.44,3.7638 L 249.639,3.93641 L 249.838,4.10933 L 250.037,4.28251 L 250.236,4.45591
 L 250.435,4.62947 L 250.634,4.80313 L 251.032,5.15057 L 251.231,5.32423 L 251.431,5.49779 L 251.63,5.67119
 L 251.829,5.84437 L 252.028,6.01729 L 252.227,6.1899 L 252.426,6.36214 L 252.625,6.53395 L 252.824,6.70529
 L 253.023,6.87611 L 253.222,7.04634 L 253.421,7.21595 L 253.62,7.38487 L 253.819,7.55306 L 254.019,7.72046
 L 254.218,7.88703 L 254.417,8.05271 L 254.616,8.21746 L 254.815,8.38122 L 255.014,8.54394 L 255.213,8.70557
 L 255.412,8.86607 L 255.611,9.02539 L 255.81,9.18347 L 256.009,9.34027 L 256.208,9.49574 L 256.407,9.64983
 L 256.606,9.8025 L 256.806,9.9537 L 257.005,10.1034 L 257.204,10.2515 L 257.403,10.398 L 257.602,10.5429
 L 257.801,10.6861 L 258,10.8275 L 258.199,10.9671 L 258.398,11.105 L 258.597,11.2409 L 258.796,11.375
 L 258.995,11.5071 L 259.194,11.6372 L 259.394,11.7653 L 259.593,11.8913 L 259.792,12.0152 L 259.991,12.1369
 L 260.19,12.2565 L 260.389,12.3739 L 260.588,12.489 L 260.787,12.6018 L 260.986,12.7123 L 261.185,12.8205
 L 261.384,12.9262 L 261.583,13.0296 L 261.782,13.1304 L 261.981,13.2288 L 262.181,13.3247 L 262.38,13.4181
 L 262.579,13.5088 L 262.778,13.597 L 262.977,13.6826 L 263.176,13.7654 L 263.375,13.8457 L 263.574,13.9232
 L 263.773,13.998 L 263.972,14.07 L 264.171,14.1393 L 264.37,14.2058 L 264.569,14.2694 L 264.769,14.3303
 L 264.968,14.3883 L 265.167,14.4434 L 265.366,14.4956 L 265.565,14.545 L 265.764,14.5914 L 265.963,14.6349
 L 266.162,14.6754 L 266.361,14.713 L 266.56,14.7477 L 266.759,14.7793 L 266.958,14.808 L 267.157,14.8337
 L 267.356,14.8564 L 267.556,14.876 L 267.755,14.8927 L 267.954,14.9063 L 268.153,14.9169 L 268.352,14.9245
 L 268.551,14.929 L 268.75,14.9306 L 268.949,14.929 L 269.148,14.9245 L 269.347,14.9169 L 269.546,14.9063
 L 269.745,14.8927 L 269.944,14.876 L 270.144,14.8564 L 270.343,14.8337 L 270.542,14.808 L 270.741,14.7793
 L 270.94,14.7477 L 271.139,14.713 L 271.338,14.6754 L 271.537,14.6349 L 271.736,14.5914 L 271.935,14.545
 L 272.134,14.4956 L 272.333,14.4434 L 272.532,14.3883 L 272.731,14.3303 L 272.931,14.2694 L 273.13,14.2058
 L 273.329,14.1393 L 273.528,14.07 L 273.727,13.998 L 273.926,13.9232 L 274.125,13.8457 L 274.324,13.7654
 L 274.523,13.6826 L 274.722,13.597 L 274.921,13.5088 L 275.12,13.4181 L 275.319,13.3247 L 275.519,13.2288
 L 275.718,13.1304 L 275.917,13.0296 L 276.116,12.9262 L 276.315,12.8205 L 276.514,12.7123 L 276.713,12.6018
 L 276.912,12.489 L 277.111,12.3739 L 277.31,12.2565 L 277.509,12.1369 L 277.708,12.0152 L 277.907,11.8913
 L 278.106,11.7653 L 278.306,11.6372 L 278.505,11.5071 L 278.704,11.375 L 278.903,11.2409 L 279.102,11.105
 L 279.301,10.9671 L 279.5,10.8275 L 279.699,10.6861 L 279.898,10.5429 L 280.097,10.398 L 280.296,10.2515
 L 280.495,10.1034 L 280.694,9.9537 L 280.894,9.8025 L 281.093,9.64983 L 281.292,9.49574 L 281.491,9.34027
 L 281.69,9.18347 L 281.889,9.02539 L 282.088,8.86607 L 282.287,8.70557 L 282.486,8.54394 L 282.685,8.38122
 L 282.884,8.21746 L 283.083,8.05271 L 283.282,7.88703 L 283.481,7.72046 L 283.681,7.55306 L 283.88,7.38487
 L 284.079,7.21595 L 284.278,7.04634 L 284.477,6.87611 L 284.676,6.70529 L 284.875,6.53395 L 285.074,6.36214
 L 285.273,6.1899 L 285.472,6.01729 L 285.671,5.84437 L 285.87,5.67119 L 286.069,5.49779 L 286.269,5.32423
 L 286.468,5.15057 L 286.866,4.80313 L 287.065,4.62947 L 287.264,4.45591 L 287.463,4.28251 L 287.662,4.10933
 L 287.861,3.93641 L 288.06,3.7638 L 288.259,3.59156 L 288.458,3.41975 L 288.657,3.24841 L 288.856,3.0776
 L 289.056,2.90736 L 289.255,2.73775 L 289.454,2.56883 L 289.653,2.40064 L 289.852,2.23324 L 290.051,2.06667
 L 290.25,1.90099 L 290.449,1.73624 L 290.648,1.57248 L 290.847,1.40976 L 291.046,1.24813 L 291.245,1.08763
 L 291.444,0.928315 L 291.644,0.770233 L 291.843,0.613434 L 292.042,0.457962 L 292.241,0.303869 L 292.44,0.151198
 L 292.639,-0 L 292.838,-0.149682 L 293.037,-0.297806 L 293.236,-0.444323 L 293.435,-0.589188 L 293.634,-0.732357
 L 293.833,-0.873786 L 294.032,-1.01344 L 294.231,-1.15126 L 294.431,-1.28722 L 294.63,-1.42126 L 294.829,-1.55336
 L 295.028,-1.68348 L 295.227,-1.81156 L 295.426,-1.93757 L 295.625,-2.06148 L 295.824,-2.18324 L 296.023,-2.30282
 L 296.222,-2.42019 L 296.421,-2.5353 L 296.62,-2.64813 L 296.819,-2.75863 L 297.019,-2.86677 L 297.218,-2.97253
 L 297.417,-3.07586 L 297.616,-3.17674 L 297.815,-3.27514 L 298.014,-3.37102 L 298.213,-3.46437 L 298.412,-3.55514
 L 298.611,-3.64331 L 298.81,-3.72885 L 299.009,-3.81174 L 299.208,-3.89196 L 299.407,-3.96948 L 299.606,-4.04427
 L 299.806,-4.11631 L 300.005,-4.18558 L 300.204,-4.25206 L 300.403,-4.31573 L 300.602,-4.37657 L 300.801,-4.43456
 L 301,-4.48968 L 301.199,-4.54192 L 301.398,-4.59126 L 301.597,-4.63769 L 301.796,-4.68118 L 301.995,-4.72174
 L 302.194,-4.75934 L 302.394,-4.79397 L 302.593,-4.82563 L 302.792,-4.8543 L 302.991,-4.87998 L 303.19,-4.90266
 L 303.389,-4.92232 L 303.588,-4.93897 L 303.787,-4.9526 L 303.986,-4.96321 L 304.185,-4.97079 L 304.384,-4.97533
 L 304.583,-4.97685 L 304.782,-4.97533 L 304.981,-4.97079 L 305.181,-4.96321 L 305.38,-4.9526 L 305.579,-4.93897
 L 305.778,-4.92232 L 305.977,-4.90266 L 306.176,-4.87998 L 306.375,-4.8543 L 306.574,-4.82563 L 306.773,-4.79397
 L 306.972,-4.75934 L 307.171,-4.72174 L 307.37,-4.68118 L 307.569,-4.63769 L 307.769,-4.59126 L 307.968,-4.54192
 L 308.167,-4.48968 L 308.366,-4.43456 L 308.565,-4.37657 L 308.764,-4.31573 L 308.963,-4.25206 L 309.162,-4.18558
 L 309.361,-4.11631 L 309.56,-4.04427 L 309.759,-3.96948 L 309.958,-3.89196 L 310.157,-3.81174 L 310.356,-3.72885
 L 310.556,-3.64331 L 310.755,-3.55514 L 310.954,-3.46437 L 311.153,-3.37102 L 311.352,-3.27514 L 311.551,-3.17674
 L 311.75,-3.07586 L 311.949,-2.97253 L 312.148,-2.86677 L 312.347,-2.75863 L 312.546,-2.64813 L 312.745,-2.5353
 L 312.944,-2.42019 L 313.144,-2.30282 L 313.343,-2.18324 L 313.542,-2.06148 L 313.741,-1.93757 L 313.94,-1.81156
 L 314.139,-1.68348 L 314.338,-1.55336 L 314.537,-1.42126 L 314.736,-1.28722 L 314.935,-1.15126 L 315.134,-1.01344
 L 315.333,-0.873786 L 315.532,-0.732357 L 315.731,-0.589188 L 315.931,-0.444323 L 316.13,-0.297806 L 316.329,-0.149682
 L 316.528,-0 L 316.727,0.151198 L 316.926,0.303869 L 317.125,0.457962 L 317.324,0.613434 L 317.523,0.770233
 L 317.722,0.928315 L 317.921,1.08763 L 318.12,1.24813 L 318.319,1.40976 L 318.519,1.57248 L 318.718,1.73624
 L 318.917,1.90099 L 319.116,2.06667 L 319.315,2.23324 L 319.514,2.40064 L 319.713,2.56883 L 319.912,2.73775
 L 320.111,2.90736 L 320.31,3.0776 L 320.509,3.24841 L 320.708,3.41975 L 320.907,3.59156 L 321.106,3.7638
 L 321.306,3.93641 L 321.505,4.10933 L 321.704,4.28251 L 321.903,4.45591 L 322.102,4.62947 L 322.301,4.80313
 L 322.699,5.15057 L 322.898,5.32423 L 323.097,5.49779 L 323.296,5.67119 L 323.495,5.84437 L 323.694,6.01729
 L 323.894,6.1899 L 324.093,6.36214 L 324.292,6.53395 L 324.491,6.70529 L 324.69,6.87611 L 324.889,7.04634
 L 325.088,7.21595 L 325.287,7.38487 L 325.486,7.55306 L 325.685,7.72046 L 325.884,7.88703 L 326.083,8.05271
 L 326.282,8.21746 L 326.481,8.38122 L 326.681,8.54394 L 326.88,8.70557 L 327.079,8.86607 L 327.278,9.02539
 L 327.477,9.18347 L 327.676,9.34027 L 327.875,9.49574 L 328.074,9.64983 L 328.273,9.8025 L 328.472,9.9537
 L 328.671,10.1034 L 328.87,10.2515 L 329.069,10.398 L 329.269,10.5429 L 329.468,10.6861 L 329.667,10.8275
 L 329.866,10.9671 L 330.065,11.105 L 330.264,11.2409 L 330.463,11.375 L 330.662,11.5071 L 330.861,11.6372
 L 331.06,11.7653 L 331.259,11.8913 L 331.458,12.0152 L 331.657,12.1369 L 331.856,12.2565 L 332.056,12.3739
 L 332.255,12.489 L 332.454,12.6018 L 332.653,12.7123 L 332.852,12.8205 L 333.051,12.9262 L 333.25,13.0296
 L 333.449,13.1304 L 333.648,13.2288 L 333.847,13.3247 L 334.046,13.4181 L 334.245,13.5088 L 334.444,13.597
 L 334.644,13.6826 L 334.843,13.7654 L 335.042,13.8457 L 335.241,13.9232 L 335.44,13.998 L 335.639,14.07
 L 335.838,14.1393 L 336.037,14.2058 L 336.236,14.2694 L 336.435,14.3303 L 336.634,14.3883 L 336.833,14.4434
 L 337.032,14.4956 L 337.231,14.545 L 337.431,14.5914 L 337.63,14.6349 L 337.829,14.6754 L 338.028,14.713
 L 338.227,14.7477 L 338.426,14.7793 L 338.625,14.808 L 338.824,14.8337 L 339.023,14.8564 L 339.222,14.876
 L 339.421,14.8927 L 339.62,14.9063 L 339.819,14.9169 L 340.019,14.9245 L 340.218,14.929 L 340.417,14.9306
 L 340.616,14.929 L 340.815,14.9245 L 341.014,14.9169 L 341.213,14.9063 L 341.412,14.8927 L 341.611,14.876
 L 341.81,14.8564 L 342.009,14.8337 L 342.208,14.808 L 342.407,14.7793 L 342.606,14.7477 L 342.806,14.713
 L 343.005,14.6754 L 343.204,14.6349 L 343.403,14.5914 L 343.602,14.545 L 343.801,14.4956 L 344,14.4434
 L 344.199,14.3883 L 344.398,14.3303 L 344.597,14.2694 L 344.796,14.2058 L 344.995,14.1393 L 345.194,14.07
 L 345.394,13.998 L 345.593,13.9232 L 345.792,13.8457 L 345.991,13.7654 L 346.19,13.6826 L 346.389,13.597
 L 346.588,13.5088 L 346.787,13.4181 L 346.986,13.3247 L 347.185,13.2288 L 347.384,13.1304 L 347.583,13.0296
 L 347.782,12.9262 L 347.981,12.8205 L 348.181,12.7123 L 348.38,12.6018 L 348.579,12.489 L 348.778,12.3739
 L 348.977,12.2565 L 349.176,12.1369 L 349.375,12.0152 L 349.574,11.8913 L 349.773,11.7653 L 349.972,11.6372
 L 350.171,11.5071 L 350.37,11.375 L 350.569,11.2409 L 350.769,11.105 L 350.968,10.9671 L 351.167,10.8275
 L 351.366,10.6861 L 351.565,10.5429 L 351.764,10.398 L 351.963,10.2515 L 352.162,10.1034 L 352.361,9.9537
 L 352.56,9.8025 L 352.759,9.64983 L 352.958,9.49574 L 353.157,9.34027 L 353.356,9.18347 L 353.556,9.02539
 L 353.755,8.86607 L 353.954,8.70557 L 354.153,8.54394 L 354.352,8.38122 L 354.551,8.21746 L 354.75,8.05271
 L 354.949,7.88703 L 355.148,7.72046 L 355.347,7.55306 L 355.546,7.38487 L 355.745,7.21595 L 355.944,7.04634
 L 356.144,6.87611 L 356.343,6.70529 L 356.542,6.53395 L 356.741,6.36214 L 356.94,6.1899 L 357.139,6.01729
 L 357.338,5.84437 L 357.537,5.67119 L 357.736,5.49779 L 357.935,5.32423 L 358.134,5.15057 L 358.532,4.80313
 L 358.731,4.62947 L 358.931,4.45591 L 359.13,4.28251 L 359.329,4.10933 L 359.528,3.93641 L 359.727,3.7638
 L 359.926,3.59156 L 360.125,3.41975 L 360.324,3.24841 L 360.523,3.0776 L 360.722,2.90736 L 360.921,2.73775
 L 361.12,2.56883 L 361.319,2.40064 L 361.519,2.23324 L 361.718,2.06667 L 361.917,1.90099 L 362.116,1.73624
 L 362.315,1.57248 L 362.514,1.40976 L 362.713,1.24813 L 362.912,1.08763 L 363.111,0.928315 L 363.31,0.770233
 L 363.509,0.613434 L 363.708,0.457962 L 363.907,0.303869 L 364.106,0.151198 L 364.306,-0 L 364.505,-0.149682
 L 364.704,-0.297806 L 364.903,-0.444323 L 365.102,-0.589188 L 365.301,-0.732357 L 365.5,-0.873786 L 365.699,-1.01344
 L 365.898,-1.15126 L 366.097,-1.28722 L 366.296,-1.42126 L 366.495,-1.55336 L 366.694,-1.68348 L 366.894,-1.81156
 L 367.093,-1.93757 L 367.292,-2.06148 L 367.491,-2.18324 L 367.69,-2.30282 L 367.889,-2.42019 L 368.088,-2.5353
 L 368.287,-2.64813 L 368.486,-2.75863 L 368.685,-2.86677 L 368.884,-2.97253 L 369.083,-3.07586 L 369.282,-3.17674
 L 369.481,-3.27514 L 369.681,-3.37102 L 369.88,-3.46437 L 370.079,-3.55514 L 370.278,-3.64331 L 370.477,-3.72885
 L 370.676,-3.81174 L 370.875,-3.89196 L 371.074,-3.96948 L 371.273,-4.04427 L 371.472,-4.11631 L 371.671,-4.18558
 L 371.87,-4.25206 L 372.069,-4.31573 L 372.269,-4.37657 L 372.468,-4.43456 L 372.667,-4.48968 L 372.866,-4.54192
 L 373.065,-4.59126 L 373.264,-4.63769 L 373.463,-4.68118 L 373.662,-4.72174 L 373.861,-4.75934 L 374.06,-4.79397
 L 374.259,-4.82563 L 374.458,-4.8543 L 374.657,-4.87998 L 374.856,-4.90266 L 375.056,-4.92232 L 375.255,-4.93897
 L 375.454,-4.9526 L 375.653,-4.96321 L 375.852,-4.97079 L 376.051,-4.97533 L 376.25,-4.97685 L 376.449,-4.97533
 L 376.648,-4.97079 L 376.847,-4.96321 L 377.046,-4.9526 L 377.245,-4.93897 L 377.444,-4.92232 L 377.644,-4.90266
 L 377.843,-4.87998 L 378.042,-4.8543 L 378.241,-4.82563 L 378.44,-4.79397 L 378.639,-4.75934 L 378.838,-4.72174
 L 379.037,-4.68118 L 379.236,-4.63769 L 379.435,-4.59126 L 379.634,-4.54192 L 379.833,-4.48968 L 380.032,-4.43456
 L 380.231,-4.37657 L 380.431,-4.31573 L 380.63,-4.25206 L 380.829,-4.18558 L 381.028,-4.11631 L 381.227,-4.04427
 L 381.426,-3.96948 L 381.625,-3.89196 L 381.824,-3.81174 L 382.023,-3.72885 L 382.222,-3.64331 L 382.421,-3.55514
 L 382.62,-3.46437 L 382.819,-3.37102 L 383.019,-3.27514 L 383.218,-3.17674 L 383.417,-3.07586 L 383.616,-2.97253
 L 383.815,-2.86677 L 384.014,-2.75863 L 384.213,-2.64813 L 384.412,-2.5353 L 384.611,-2.42019 L 384.81,-2.30282
 L 385.009,-2.18324 L 385.208,-2.06148 L 385.407,-1.93757 L 385.606,-1.81156 L 385.806,-1.68348 L 386.005,-1.55336
 L 386.204,-1.42126 L 386.403,-1.28722 L 386.602,-1.15126 L 386.801,-1.01344 L 387,-0.873786 L 387.199,-0.732357
 L 387.398,-0.589188 L 387.597,-0.444323 L 387.796,-0.297806 L 387.995,-0.149682 L 388.194,-0 L 388.394,0.151198
 L 388.593,0.303869 L 388.792,0.457962 L 388.991,0.613434 L 389.19,0.770233 L 389.389,0.928315 L 389.588,1.08763
 L 389.787,1.24813 L 389.986,1.40976 L 390.185,1.57248 L 390.384,1.73624 L 390.583,1.90099 L 390.782,2.06667
 L 390.981,2.23324 L 391.181,2.40064 L 391.38,2.56883 L 391.579,2.73775 L 391.778,2.90736 L 391.977,3.0776
 L 392.176,3.24841 L 392.375,3.41975 L 392.574,3.59156 L 392.773,3.7638 L 392.972,3.93641 L 393.171,4.10933
 L 393.37,4.28251 L 393.569,4.45591 L 393.769,4.62947 L 393.968,4.80313 L 394.366,5.15057 L 394.565,5.32423
 L 394.764,5.49779 L 394.963,5.67119 L 395.162,5.84437 L 395.361,6.01729 L 395.56,6.1899 L 395.759,6.36214
 L 395.958,6.53395 L 396.157,6.70529 L 396.356,6.87611 L 396.556,7.04634 L 396.755,7.21595 L 396.954,7.38487
 L 397.153,7.55306 L 397.352,7.72046 L 397.551,7.88703 L 397.75,8.05271 L 397.949,8.21746 L 398.148,8.38122
 L 398.347,8.54394 L 398.546,8.70557 L 398.745,8.86607 L 398.944,9.02539 L 399.144,9.18347 L 399.343,9.34027
 L 399.542,9.49574 L 399.741,9.64983 L 399.94,9.8025 L 400.139,9.9537 L 400.338,10.1034 L 400.537,10.2515
 L 400.736,10.398 L 400.935,10.5429 L 401.134,10.6861 L 401.333,10.8275 L 401.532,10.9671 L 401.731,11.105
 L 401.931,11.2409 L 402.13,11.375 L 402.329,11.5071 L 402.528,11.6372 L 402.727,11.7653 L 402.926,11.8913
 L 403.125,12.0152 L 403.324,12.1369 L 403.523,12.2565 L 403.722,12.3739 L 403.921,12.489 L 404.12,12.6018
 L 404.319,12.7123 L 404.519,12.8205 L 404.718,12.9262 L 404.917,13.0296 L 405.116,13.1304 L 405.315,13.2288
 L 405.514,13.3247 L 405.713,13.4181 L 405.912,13.5088 L 406.111,13.597 L 406.31,13.6826 L 406.509,13.7654
 L 406.708,13.8457 L 406.907,13.9232 L 407.106,13.998 L 407.306,14.07 L 407.505,14.1393 L 407.704,14.2058
 L 407.903,14.2694 L 408.102,14.3303 L 408.301,14.3883 L 408.5,14.4434 L 408.699,14.4956 L 408.898,14.545
 L 409.097,14.5914 L 409.296,14.6349 L 409.495,14.6754 L 409.694,14.713 L 409.894,14.7477 L 410.093,14.7793
 L 410.292,14.808 L 410.491,14.8337 L 410.69,14.8564 L 410.889,14.876 L 411.088,14.8927 L 411.287,14.9063
 L 411.486,14.9169 L 411.685,14.9245 L 411.884,14.929 L 412.083,14.9306 z
M 342.724,0.530455 L 344.149,-0.104321 L 345.412,-1.02166 L 346.456,-2.18146 L 347.237,-3.53304 L 347.719,-5.01733
 L 347.882,-6.56944 L 347.719,-8.12156 L 347.237,-9.60584 L 346.456,-10.9574 L 345.412,-12.1172 L 344.149,-13.0346
 L 342.724,-13.6693 L 341.197,-13.9938 L 339.636,-13.9938 L 338.11,-13.6693 L 336.684,-13.0346 L 335.421,-12.1172
 L 334.377,-10.9574 L 333.597,-9.60584 L 333.115,-8.12156 L 332.951,-6.56944 L 333.115,-5.01733 L 333.597,-3.53304
 L 334.377,-2.18146 L 335.421,-1.02166 L 336.684,-0.104321 L 338.11,0.530455 L 339.636,0.854938 L 341.197,0.854938
 z
M 414.39,0.530455 L 415.816,-0.104321 L 417.079,-1.02166 L 418.123,-2.18146 L 418.903,-3.53304 L 419.385,-5.01733
 L 419.549,-6.56944 L 419.385,-8.12156 L 418.903,-9.60584 L 418.123,-10.9574 L 417.079,-12.1172 L 415.816,-13.0346
 L 414.39,-13.6693 L 412.864,-13.9938 L 411.303,-13.9938 L 409.776,-13.6693 L 408.351,-13.0346 L 407.088,-12.1172
 L 406.044,-10.9574 L 405.263,-9.60584 L 404.781,-8.12156 L 404.618,-6.56944 L 404.781,-5.01733 L 405.263,-3.53304
 L 406.044,-2.18146 L 407.088,-1.02166 L 408.351,-0.104321 L 409.776,0.530455 L 411.303,0.854938 L 412.864,0.854938
 z
M 271.057,0.530455 L 272.483,-0.104321 L 273.745,-1.02166 L 274.79,-2.18146 L 275.57,-3.53304 L 276.052,-5.01733
 L 276.215,-6.56944 L 276.052,-8.12156 L 275.57,-9.60584 L 274.79,-10.9574 L 273.745,-12.1172 L 272.483,-13.0346
 L 271.057,-13.6693 L 269.53,-13.9938 L 267.97,-13.9938 L 266.443,-13.6693 L 265.017,-13.0346 L 263.755,-12.1172
 L 262.71,-10.9574 L 261.93,-9.60584 L 261.448,-8.12156 L 261.285,-6.56944 L 261.448,-5.01733 L 261.93,-3.53304
 L 262.71,-2.18146 L 263.755,-1.02166 L 265.017,-0.104321 L 266.443,0.530455 L 267.97,0.854938 L 269.53,0.854938
 z
M 199.39,0.530455 L 200.816,-0.104321 L 202.079,-1.02166 L 203.123,-2.18146 L 203.903,-3.53304 L 204.385,-5.01733
 L 204.549,-6.56944 L 204.385,-8.12156 L 203.903,-9.60584 L 203.123,-10.9574 L 202.079,-12.1172 L 200.816,-13.0346
 L 199.39,-13.6693 L 197.864,-13.9938 L 196.303,-13.9938 L 194.776,-13.6693 L 193.351,-13.0346 L 192.088,-12.1172
 L 191.044,-10.9574 L 190.263,-9.60584 L 189.781,-8.12156 L 189.618,-6.56944 L 189.781,-5.01733 L 190.263,-3.53304
 L 191.044,-2.18146 L 192.088,-1.02166 L 193.351,-0.104321 L 194.776,0.530455 L 196.303,0.854938 L 197.864,0.854938
 z
M 127.724,0.530455 L 129.149,-0.104321 L 130.412,-1.02166 L 131.456,-2.18146 L 132.237,-3.53304 L 132.719,-5.01733
 L 132.882,-6.56944 L 132.719,-8.12156 L 132.237,-9.60584 L 131.456,-10.9574 L 130.412,-12.1172 L 129.149,-13.0346
 L 127.724,-13.6693 L 126.197,-13.9938 L 124.636,-13.9938 L 123.11,-13.6693 L 121.684,-13.0346 L 120.421,-12.1172
 L 119.377,-10.9574 L 118.597,-9.60584 L 118.115,-8.12156 L 117.951,-6.56944 L 118.115,-5.01733 L 118.597,-3.53304
 L 119.377,-2.18146 L 120.421,-1.02166 L 121.684,-0.104321 L 123.11,0.530455 L 124.636,0.854938 L 126.197,0.854938
 z
M 56.0569,0.530455 L 57.4826,-0.104321 L 58.7452,-1.02166 L 59.7895,-2.18146 L 60.5699,-3.53304 L 61.0521,-5.01733
 L 61.2153,-6.56944 L 61.0521,-8.12156 L 60.5699,-9.60584 L 59.7895,-10.9574 L 58.7452,-12.1172 L 57.4826,-13.0346
 L 56.0569,-13.6693 L 54.5303,-13.9938 L 52.9697,-13.9938 L 51.4431,-13.6693 L 50.0174,-13.0346 L 48.7548,-12.1172
 L 47.7105,-10.9574 L 46.9301,-9.60584 L 46.4479,-8.12156 L 46.2847,-6.56944 L 46.4479,-5.01733 L 46.9301,-3.53304
 L 47.7105,-2.18146 L 48.7548,-1.02166 L 50.0174,-0.104321 L 51.4431,0.530455 L 52.9697,0.854938 L 54.5303,0.854938
 z
M 91.8902,13.6693 L 93.316,13.0346 L 94.5786,12.1172 L 95.6229,10.9574 L 96.4032,9.60584 L 96.8855,8.12156
 L 97.0486,6.56944 L 96.8855,5.01733 L 96.4032,3.53304 L 95.6229,2.18146 L 94.5786,1.02166 L 93.316,0.104321
 L 91.8902,-0.530455 L 90.3637,-0.854938 L 88.803,-0.854938 L 87.2764,-0.530455 L 85.8507,0.104321 L 84.5881,1.02166
 L 83.5438,2.18146 L 82.7635,3.53304 L 82.2812,5.01733 L 82.1181,6.56944 L 82.2812,8.12156 L 82.7635,9.60584
 L 83.5438,10.9574 L 84.5881,12.1172 L 85.8507,13.0346 L 87.2764,13.6693 L 88.803,13.9938 L 90.3637,13.9938
 z
M 378.557,13.6693 L 379.983,13.0346 L 381.245,12.1172 L 382.29,10.9574 L 383.07,9.60584 L 383.552,8.12156
 L 383.715,6.56944 L 383.552,5.01733 L 383.07,3.53304 L 382.29,2.18146 L 381.245,1.02166 L 379.983,0.104321
 L 378.557,-0.530455 L 377.03,-0.854938 L 375.47,-0.854938 L 373.943,-0.530455 L 372.517,0.104321 L 371.255,1.02166
 L 370.21,2.18146 L 369.43,3.53304 L 368.948,5.01733 L 368.785,6.56944 L 368.948,8.12156 L 369.43,9.60584
 L 370.21,10.9574 L 371.255,12.1172 L 372.517,13.0346 L 373.943,13.6693 L 375.47,13.9938 L 377.03,13.9938
 z
M 306.89,13.6693 L 308.316,13.0346 L 309.579,12.1172 L 310.623,10.9574 L 311.403,9.60584 L 311.885,8.12156
 L 312.049,6.56944 L 311.885,5.01733 L 311.403,3.53304 L 310.623,2.18146 L 309.579,1.02166 L 308.316,0.104321
 L 306.89,-0.530455 L 305.364,-0.854938 L 303.803,-0.854938 L 302.276,-0.530455 L 300.851,0.104321 L 299.588,1.02166
 L 298.544,2.18146 L 297.763,3.53304 L 297.281,5.01733 L 297.118,6.56944 L 297.281,8.12156 L 297.763,9.60584
 L 298.544,10.9574 L 299.588,12.1172 L 300.851,13.0346 L 302.276,13.6693 L 303.803,13.9938 L 305.364,13.9938
 z
M 235.224,13.6693 L 236.649,13.0346 L 237.912,12.1172 L 238.956,10.9574 L 239.737,9.60584 L 240.219,8.12156
 L 240.382,6.56944 L 240.219,5.01733 L 239.737,3.53304 L 238.956,2.18146 L 237.912,1.02166 L 236.649,0.104321
 L 235.224,-0.530455 L 233.697,-0.854938 L 232.136,-0.854938 L 230.61,-0.530455 L 229.184,0.104321 L 227.921,1.02166
 L 226.877,2.18146 L 226.097,3.53304 L 225.615,5.01733 L 225.451,6.56944 L 225.615,8.12156 L 226.097,9.60584
 L 226.877,10.9574 L 227.921,12.1172 L 229.184,13.0346 L 230.61,13.6693 L 232.136,13.9938 L 233.697,13.9938
 z
M 163.557,13.6693 L 164.983,13.0346 L 166.245,12.1172 L 167.29,10.9574 L 168.07,9.60584 L 168.552,8.12156
 L 168.715,6.56944 L 168.552,5.01733 L 168.07,3.53304 L 167.29,2.18146 L 166.245,1.02166 L 164.983,0.104321
 L 163.557,-0.530455 L 162.03,-0.854938 L 160.47,-0.854938 L 158.943,-0.530455 L 157.517,0.104321 L 156.255,1.02166
 L 155.21,2.18146 L 154.43,3.53304 L 153.948,5.01733 L 153.785,6.56944 L 153.948,8.12156 L 154.43,9.60584
 L 155.21,10.9574 L 156.255,12.1172 L 157.517,13.0346 L 158.943,13.6693 L 160.47,13.9938 L 162.03,13.9938
 z
M 20.2236,13.6693 L 21.6493,13.0346 L 22.9119,12.1172 L 23.9562,10.9574 L 24.7365,9.60584 L 25.2188,8.12156
 L 25.3819,6.56944 L 25.2188,5.01733 L 24.7365,3.53304 L 23.9562,2.18146 L 22.9119,1.02166 L 21.6493,0.104321
 L 20.2236,-0.530455 L 18.697,-0.854938 L 17.1363,-0.854938 L 15.6098,-0.530455 L 14.184,0.104321 L 12.9214,1.02166
 L 11.8771,2.18146 L 11.0968,3.53304 L 10.6145,5.01733 L 10.4514,6.56944 L 10.6145,8.12156 L 11.0968,9.60584
 L 11.8771,10.9574 L 12.9214,12.1172 L 14.184,13.0346 L 15.6098,13.6693 L 17.1363,13.9938 L 18.697,13.9938
 z
M 430,14.9306 L 0,14.9306 L 0,24.8843 L 430,24.8843 z
" stroke="black" fill="lightgray" stroke-width="0.5"/>
</svg>
